G75*
%MOIN*%
%OFA0B0*%
%FSLAX25Y25*%
%IPPOS*%
%LPD*%
%AMOC8*
5,1,8,0,0,1.08239X$1,22.5*
%
%ADD10C,0.00500*%
%ADD11C,0.00800*%
%ADD12R,0.00866X0.03150*%
%ADD13R,0.15000X0.07600*%
%ADD14R,0.03937X0.04331*%
%ADD15R,0.04134X0.04252*%
%ADD16R,0.04252X0.04134*%
%ADD17C,0.03175*%
%ADD18C,0.00900*%
%ADD19C,0.03200*%
%ADD20C,0.01000*%
%ADD21C,0.04000*%
%ADD22C,0.01200*%
%ADD23C,0.02400*%
D10*
X0046250Y0009000D02*
X0046700Y0008550D01*
X0047151Y0009000D01*
X0047601Y0008550D01*
X0048052Y0009000D01*
X0048052Y0010352D01*
X0049197Y0010352D02*
X0049197Y0009000D01*
X0049647Y0008550D01*
X0050097Y0009000D01*
X0050548Y0008550D01*
X0050998Y0009000D01*
X0050998Y0010352D01*
X0052143Y0010352D02*
X0052143Y0009000D01*
X0052593Y0008550D01*
X0053044Y0009000D01*
X0053494Y0008550D01*
X0053945Y0009000D01*
X0053945Y0010352D01*
X0055090Y0009000D02*
X0055540Y0009000D01*
X0055540Y0008550D01*
X0055090Y0008550D01*
X0055090Y0009000D01*
X0056563Y0008550D02*
X0056563Y0010352D01*
X0057013Y0010352D01*
X0057464Y0009901D01*
X0057914Y0010352D01*
X0058364Y0009901D01*
X0058364Y0008550D01*
X0057464Y0008550D02*
X0057464Y0009901D01*
X0059509Y0010352D02*
X0059960Y0010352D01*
X0059960Y0008550D01*
X0060410Y0008550D02*
X0059509Y0008550D01*
X0061474Y0009000D02*
X0061924Y0008550D01*
X0063275Y0008550D01*
X0064420Y0008550D02*
X0064420Y0010352D01*
X0065321Y0010352D02*
X0065771Y0010352D01*
X0065321Y0010352D02*
X0064420Y0009451D01*
X0063275Y0010352D02*
X0061924Y0010352D01*
X0061474Y0009901D01*
X0061474Y0009000D01*
X0059960Y0011252D02*
X0059960Y0011703D01*
X0066876Y0009901D02*
X0066876Y0009000D01*
X0067326Y0008550D01*
X0068227Y0008550D01*
X0068677Y0009000D01*
X0068677Y0009901D01*
X0068227Y0010352D01*
X0067326Y0010352D01*
X0066876Y0009901D01*
X0069822Y0009901D02*
X0070273Y0010352D01*
X0071173Y0010352D01*
X0071624Y0009901D01*
X0071624Y0008550D01*
X0072769Y0009000D02*
X0073219Y0009451D01*
X0074570Y0009451D01*
X0074570Y0009901D02*
X0074570Y0008550D01*
X0073219Y0008550D01*
X0072769Y0009000D01*
X0073219Y0010352D02*
X0074120Y0010352D01*
X0074570Y0009901D01*
X0075715Y0008550D02*
X0076616Y0008550D01*
X0076166Y0008550D02*
X0076166Y0011252D01*
X0075715Y0011252D01*
X0077680Y0009000D02*
X0078130Y0009000D01*
X0078130Y0008550D01*
X0077680Y0008550D01*
X0077680Y0009000D01*
X0079153Y0009000D02*
X0079603Y0008550D01*
X0080504Y0008550D01*
X0080954Y0009000D01*
X0080954Y0009901D01*
X0080504Y0010352D01*
X0079603Y0010352D01*
X0079153Y0009901D01*
X0079153Y0009000D01*
X0082099Y0008550D02*
X0082099Y0010352D01*
X0083000Y0010352D02*
X0083450Y0010352D01*
X0083000Y0010352D02*
X0082099Y0009451D01*
X0084555Y0009901D02*
X0084555Y0009000D01*
X0085005Y0008550D01*
X0086356Y0008550D01*
X0086356Y0008100D02*
X0086356Y0010352D01*
X0085005Y0010352D01*
X0084555Y0009901D01*
X0086356Y0008100D02*
X0085906Y0007649D01*
X0085455Y0007649D01*
X0069822Y0008550D02*
X0069822Y0011252D01*
X0046250Y0010352D02*
X0046250Y0009000D01*
D11*
X0049400Y0017200D02*
X0049400Y0022004D01*
X0051001Y0020403D01*
X0052603Y0022004D01*
X0052603Y0017200D01*
X0054556Y0017200D02*
X0054556Y0020403D01*
X0056158Y0022004D01*
X0057759Y0020403D01*
X0057759Y0017200D01*
X0059713Y0018001D02*
X0060513Y0017200D01*
X0062115Y0017200D01*
X0062916Y0018001D01*
X0062916Y0019602D01*
X0061314Y0019602D01*
X0059713Y0021203D02*
X0059713Y0018001D01*
X0057759Y0019602D02*
X0054556Y0019602D01*
X0059713Y0021203D02*
X0060513Y0022004D01*
X0062115Y0022004D01*
X0062916Y0021203D01*
X0064869Y0021203D02*
X0065670Y0022004D01*
X0067271Y0022004D01*
X0068072Y0021203D01*
X0068072Y0020403D01*
X0067271Y0019602D01*
X0068072Y0018801D01*
X0068072Y0018001D01*
X0067271Y0017200D01*
X0065670Y0017200D01*
X0064869Y0018001D01*
X0066471Y0019602D02*
X0067271Y0019602D01*
X0070026Y0020403D02*
X0071627Y0022004D01*
X0071627Y0017200D01*
X0070026Y0017200D02*
X0073228Y0017200D01*
X0075182Y0017200D02*
X0078385Y0017200D01*
X0080338Y0018001D02*
X0083541Y0021203D01*
X0083541Y0018001D01*
X0082740Y0017200D01*
X0081139Y0017200D01*
X0080338Y0018001D01*
X0080338Y0021203D01*
X0081139Y0022004D01*
X0082740Y0022004D01*
X0083541Y0021203D01*
X0076783Y0022004D02*
X0076783Y0017200D01*
X0075182Y0020403D02*
X0076783Y0022004D01*
D12*
X0058650Y0030717D03*
X0057075Y0030717D03*
X0055500Y0030717D03*
X0053925Y0030717D03*
X0052350Y0030717D03*
X0052350Y0037883D03*
X0053925Y0037883D03*
X0055500Y0037883D03*
X0057075Y0037883D03*
X0058650Y0037883D03*
D13*
X0020500Y0016800D03*
X0020500Y0026800D03*
X0020500Y0036800D03*
X0020500Y0046800D03*
X0020500Y0056800D03*
X0020500Y0066800D03*
D14*
X0044654Y0059300D03*
X0051346Y0059300D03*
X0051346Y0051800D03*
X0044654Y0051800D03*
D15*
X0044555Y0044300D03*
X0051445Y0044300D03*
X0057055Y0044300D03*
X0063945Y0044300D03*
D16*
X0063000Y0037745D03*
X0063000Y0030855D03*
D17*
X0063000Y0027300D03*
X0060000Y0027300D03*
X0050000Y0037800D03*
X0044500Y0040800D03*
X0030500Y0049300D03*
X0030500Y0056800D03*
X0064000Y0048300D03*
D18*
X0057075Y0044280D02*
X0057055Y0044300D01*
X0057075Y0044280D02*
X0057075Y0037883D01*
X0057075Y0035375D01*
X0055500Y0033800D02*
X0055500Y0030717D01*
X0053925Y0030717D02*
X0053925Y0028225D01*
X0052350Y0030717D02*
X0052268Y0030800D01*
X0049000Y0030800D01*
X0057075Y0030717D02*
X0057075Y0027875D01*
X0058650Y0030717D02*
X0060000Y0029367D01*
X0058787Y0037745D02*
X0063000Y0037745D01*
X0058787Y0037745D02*
X0058650Y0037883D01*
X0053925Y0037883D02*
X0053925Y0040875D01*
X0052350Y0037883D02*
X0050000Y0037883D01*
X0050000Y0037800D01*
D19*
X0044500Y0040800D02*
X0044500Y0044355D01*
X0044555Y0044300D01*
X0063945Y0044300D02*
X0064000Y0044355D01*
X0064000Y0048300D01*
X0063000Y0027300D02*
X0060000Y0027300D01*
D20*
X0060000Y0029367D01*
X0057075Y0027875D02*
X0054500Y0025300D01*
X0054000Y0025300D01*
X0037000Y0025300D01*
X0034000Y0028300D01*
X0034000Y0042300D01*
X0031000Y0045300D01*
X0022000Y0045300D01*
X0020500Y0046800D01*
X0038000Y0049300D02*
X0038000Y0034300D01*
X0045000Y0027300D01*
X0052000Y0027300D01*
X0053000Y0027300D01*
X0053925Y0028225D01*
X0049000Y0030800D02*
X0047000Y0032800D01*
X0047000Y0038800D01*
X0048000Y0039800D01*
X0048000Y0056800D01*
X0045500Y0059300D01*
X0044654Y0059300D01*
X0051445Y0044300D02*
X0053000Y0042745D01*
X0053000Y0041800D01*
X0053925Y0040875D01*
X0057075Y0035375D02*
X0055500Y0033800D01*
D21*
X0063000Y0030855D02*
X0063000Y0027300D01*
X0057055Y0044300D02*
X0057055Y0051800D01*
X0057055Y0059300D01*
X0057055Y0065245D01*
X0055500Y0066800D01*
X0020500Y0066800D01*
D22*
X0030500Y0056800D02*
X0033000Y0059300D01*
X0044654Y0059300D01*
X0044654Y0051800D02*
X0040500Y0051800D01*
X0038000Y0049300D01*
X0030500Y0049300D01*
D23*
X0051346Y0051800D02*
X0057055Y0051800D01*
X0057055Y0059300D02*
X0051346Y0059300D01*
M02*
