G75*
%MOIN*%
%OFA0B0*%
%FSLAX25Y25*%
%IPPOS*%
%LPD*%
%AMOC8*
5,1,8,0,0,1.08239X$1,22.5*
%
%ADD10C,0.00600*%
%ADD11C,0.00900*%
%ADD12R,0.01666X0.03950*%
%ADD13R,0.15800X0.08400*%
%ADD14R,0.04737X0.05131*%
%ADD15R,0.04934X0.05052*%
%ADD16R,0.05052X0.04934*%
%ADD17C,0.03975*%
D10*
X0046300Y0009034D02*
X0046734Y0008600D01*
X0047167Y0009034D01*
X0047601Y0008600D01*
X0048035Y0009034D01*
X0048035Y0010335D01*
X0049247Y0010335D02*
X0049247Y0009034D01*
X0049680Y0008600D01*
X0050114Y0009034D01*
X0050548Y0008600D01*
X0050981Y0009034D01*
X0050981Y0010335D01*
X0052193Y0010335D02*
X0052193Y0009034D01*
X0052627Y0008600D01*
X0053060Y0009034D01*
X0053494Y0008600D01*
X0053928Y0009034D01*
X0053928Y0010335D01*
X0055140Y0009034D02*
X0055573Y0009034D01*
X0055573Y0008600D01*
X0055140Y0008600D01*
X0055140Y0009034D01*
X0056613Y0008600D02*
X0056613Y0010335D01*
X0057047Y0010335D01*
X0057480Y0009901D01*
X0057914Y0010335D01*
X0058348Y0009901D01*
X0058348Y0008600D01*
X0057480Y0008600D02*
X0057480Y0009901D01*
X0059559Y0010335D02*
X0059993Y0010335D01*
X0059993Y0008600D01*
X0059559Y0008600D02*
X0060427Y0008600D01*
X0061524Y0009034D02*
X0061957Y0008600D01*
X0063258Y0008600D01*
X0064470Y0008600D02*
X0064470Y0010335D01*
X0065338Y0010335D02*
X0065771Y0010335D01*
X0065338Y0010335D02*
X0064470Y0009467D01*
X0063258Y0010335D02*
X0061957Y0010335D01*
X0061524Y0009901D01*
X0061524Y0009034D01*
X0059993Y0011202D02*
X0059993Y0011636D01*
X0066926Y0009901D02*
X0066926Y0009034D01*
X0067359Y0008600D01*
X0068227Y0008600D01*
X0068660Y0009034D01*
X0068660Y0009901D01*
X0068227Y0010335D01*
X0067359Y0010335D01*
X0066926Y0009901D01*
X0069872Y0009901D02*
X0070306Y0010335D01*
X0071173Y0010335D01*
X0071607Y0009901D01*
X0071607Y0008600D01*
X0072819Y0009034D02*
X0073252Y0009467D01*
X0074553Y0009467D01*
X0074553Y0009901D02*
X0074553Y0008600D01*
X0073252Y0008600D01*
X0072819Y0009034D01*
X0073252Y0010335D02*
X0074120Y0010335D01*
X0074553Y0009901D01*
X0075765Y0008600D02*
X0076633Y0008600D01*
X0076199Y0008600D02*
X0076199Y0011202D01*
X0075765Y0011202D01*
X0077730Y0009034D02*
X0078163Y0009034D01*
X0078163Y0008600D01*
X0077730Y0008600D01*
X0077730Y0009034D01*
X0079203Y0009034D02*
X0079636Y0008600D01*
X0080504Y0008600D01*
X0080938Y0009034D01*
X0080938Y0009901D01*
X0080504Y0010335D01*
X0079636Y0010335D01*
X0079203Y0009901D01*
X0079203Y0009034D01*
X0082149Y0009467D02*
X0083017Y0010335D01*
X0083450Y0010335D01*
X0084605Y0009901D02*
X0084605Y0009034D01*
X0085038Y0008600D01*
X0086340Y0008600D01*
X0086340Y0008166D02*
X0086340Y0010335D01*
X0085038Y0010335D01*
X0084605Y0009901D01*
X0086340Y0008166D02*
X0085906Y0007733D01*
X0085472Y0007733D01*
X0082149Y0008600D02*
X0082149Y0010335D01*
X0069872Y0011202D02*
X0069872Y0008600D01*
X0046300Y0009034D02*
X0046300Y0010335D01*
D11*
X0049450Y0017250D02*
X0049450Y0021954D01*
X0051018Y0020386D01*
X0052586Y0021954D01*
X0052586Y0017250D01*
X0054606Y0017250D02*
X0054606Y0020386D01*
X0056174Y0021954D01*
X0057742Y0020386D01*
X0057742Y0017250D01*
X0059763Y0018034D02*
X0060547Y0017250D01*
X0062115Y0017250D01*
X0062899Y0018034D01*
X0062899Y0019602D01*
X0061331Y0019602D01*
X0059763Y0021170D02*
X0059763Y0018034D01*
X0057742Y0019602D02*
X0054606Y0019602D01*
X0059763Y0021170D02*
X0060547Y0021954D01*
X0062115Y0021954D01*
X0062899Y0021170D01*
X0064919Y0021170D02*
X0065703Y0021954D01*
X0067271Y0021954D01*
X0068055Y0021170D01*
X0068055Y0020386D01*
X0067271Y0019602D01*
X0068055Y0018818D01*
X0068055Y0018034D01*
X0067271Y0017250D01*
X0065703Y0017250D01*
X0064919Y0018034D01*
X0066487Y0019602D02*
X0067271Y0019602D01*
X0070076Y0020386D02*
X0071644Y0021954D01*
X0071644Y0017250D01*
X0070076Y0017250D02*
X0073212Y0017250D01*
X0075232Y0017250D02*
X0078368Y0017250D01*
X0080388Y0018034D02*
X0083524Y0021170D01*
X0083524Y0018034D01*
X0082740Y0017250D01*
X0081172Y0017250D01*
X0080388Y0018034D01*
X0080388Y0021170D01*
X0081172Y0021954D01*
X0082740Y0021954D01*
X0083524Y0021170D01*
X0076800Y0021954D02*
X0076800Y0017250D01*
X0075232Y0020386D02*
X0076800Y0021954D01*
D12*
X0058650Y0030717D03*
X0057075Y0030717D03*
X0055500Y0030717D03*
X0053925Y0030717D03*
X0052350Y0030717D03*
X0052350Y0037883D03*
X0053925Y0037883D03*
X0055500Y0037883D03*
X0057075Y0037883D03*
X0058650Y0037883D03*
D13*
X0020500Y0016800D03*
X0020500Y0026800D03*
X0020500Y0036800D03*
X0020500Y0046800D03*
X0020500Y0056800D03*
X0020500Y0066800D03*
D14*
X0044654Y0059300D03*
X0051346Y0059300D03*
X0051346Y0051800D03*
X0044654Y0051800D03*
D15*
X0044555Y0044300D03*
X0051445Y0044300D03*
X0057055Y0044300D03*
X0063945Y0044300D03*
D16*
X0063000Y0037745D03*
X0063000Y0030855D03*
D17*
X0063000Y0027300D03*
X0060000Y0027300D03*
X0050000Y0037800D03*
X0044500Y0040800D03*
X0030500Y0049300D03*
X0030500Y0056800D03*
X0064000Y0048300D03*
M02*
