G75*
%MOIN*%
%OFA0B0*%
%FSLAX25Y25*%
%IPPOS*%
%LPD*%
%AMOC8*
5,1,8,0,0,1.08239X$1,22.5*
%
%ADD10C,0.00600*%
%ADD11R,0.15000X0.07600*%
%ADD12C,0.01600*%
%ADD13C,0.03175*%
%ADD14C,0.06600*%
%ADD15C,0.01000*%
D10*
X0036051Y0021835D02*
X0036618Y0021268D01*
X0037185Y0021268D01*
X0037752Y0022402D02*
X0036051Y0022402D01*
X0036051Y0021835D02*
X0036051Y0024671D01*
X0037752Y0024671D01*
X0038319Y0024103D01*
X0038319Y0022969D01*
X0037752Y0022402D01*
X0039687Y0024671D02*
X0040254Y0024671D01*
X0041388Y0023536D01*
X0041388Y0022402D02*
X0041388Y0024671D01*
X0042803Y0024103D02*
X0042803Y0022969D01*
X0043370Y0022402D01*
X0044504Y0022402D01*
X0045072Y0022969D01*
X0045072Y0024103D01*
X0044504Y0024671D01*
X0043370Y0024671D01*
X0042803Y0024103D01*
X0046346Y0022969D02*
X0046346Y0022402D01*
X0046913Y0022402D01*
X0046913Y0022969D01*
X0046346Y0022969D01*
X0048234Y0022402D02*
X0049369Y0022402D01*
X0048801Y0022402D02*
X0048801Y0025805D01*
X0049369Y0025805D01*
X0050783Y0024103D02*
X0050783Y0022402D01*
X0052485Y0022402D01*
X0053052Y0022969D01*
X0052485Y0023536D01*
X0050783Y0023536D01*
X0050783Y0024103D02*
X0051350Y0024671D01*
X0052485Y0024671D01*
X0054466Y0024103D02*
X0054466Y0022402D01*
X0054466Y0024103D02*
X0055033Y0024671D01*
X0056168Y0024671D01*
X0056735Y0024103D01*
X0058149Y0024103D02*
X0058149Y0022969D01*
X0058717Y0022402D01*
X0059851Y0022402D01*
X0060418Y0022969D01*
X0060418Y0024103D01*
X0059851Y0024671D01*
X0058717Y0024671D01*
X0058149Y0024103D01*
X0056735Y0022402D02*
X0056735Y0025805D01*
X0061786Y0024671D02*
X0062353Y0024671D01*
X0063487Y0023536D01*
X0063487Y0022402D02*
X0063487Y0024671D01*
X0064902Y0024671D02*
X0066603Y0024671D01*
X0067170Y0024103D01*
X0067170Y0022969D01*
X0066603Y0022402D01*
X0064902Y0022402D01*
X0068492Y0022402D02*
X0069626Y0022402D01*
X0069059Y0022402D02*
X0069059Y0024671D01*
X0069626Y0024671D01*
X0069059Y0025805D02*
X0069059Y0026372D01*
X0071040Y0024103D02*
X0071040Y0022402D01*
X0072175Y0022402D02*
X0072175Y0024103D01*
X0071608Y0024671D01*
X0071040Y0024103D01*
X0072175Y0024103D02*
X0072742Y0024671D01*
X0073309Y0024671D01*
X0073309Y0022402D01*
X0074583Y0022402D02*
X0074583Y0022969D01*
X0075151Y0022969D01*
X0075151Y0022402D01*
X0074583Y0022402D01*
X0076565Y0022969D02*
X0076565Y0024671D01*
X0076565Y0022969D02*
X0077132Y0022402D01*
X0077699Y0022969D01*
X0078267Y0022402D01*
X0078834Y0022969D01*
X0078834Y0024671D01*
X0080248Y0024671D02*
X0080248Y0022969D01*
X0080815Y0022402D01*
X0081383Y0022969D01*
X0081950Y0022402D01*
X0082517Y0022969D01*
X0082517Y0024671D01*
X0083931Y0024671D02*
X0083931Y0022969D01*
X0084499Y0022402D01*
X0085066Y0022969D01*
X0085633Y0022402D01*
X0086200Y0022969D01*
X0086200Y0024671D01*
D11*
X0020500Y0023102D03*
X0020500Y0033102D03*
X0020500Y0043102D03*
X0020500Y0053102D03*
X0020500Y0063102D03*
X0020500Y0073102D03*
X0020500Y0083102D03*
D12*
X0021300Y0083641D02*
X0087700Y0083641D01*
X0087700Y0085239D02*
X0029800Y0085239D01*
X0029800Y0085302D02*
X0087700Y0085302D01*
X0087700Y0026972D01*
X0086737Y0027371D01*
X0085663Y0027371D01*
X0085066Y0027123D01*
X0084468Y0027371D01*
X0084370Y0027371D01*
X0084643Y0027644D01*
X0085458Y0028459D01*
X0085900Y0029525D01*
X0085900Y0040363D01*
X0086380Y0040843D01*
X0086987Y0042309D01*
X0086987Y0043895D01*
X0086380Y0045361D01*
X0085259Y0046482D01*
X0083793Y0047089D01*
X0082207Y0047089D01*
X0080741Y0046482D01*
X0079620Y0045361D01*
X0079013Y0043895D01*
X0079013Y0042309D01*
X0079620Y0040843D01*
X0080100Y0040363D01*
X0080100Y0031303D01*
X0079799Y0031002D01*
X0062701Y0031002D01*
X0060987Y0032716D01*
X0060987Y0032895D01*
X0060380Y0034361D01*
X0059259Y0035482D01*
X0057793Y0036089D01*
X0056207Y0036089D01*
X0054741Y0035482D01*
X0053620Y0034361D01*
X0053013Y0032895D01*
X0053013Y0031309D01*
X0053620Y0029843D01*
X0054741Y0028722D01*
X0055731Y0028312D01*
X0055205Y0028094D01*
X0054472Y0027361D01*
X0053759Y0027065D01*
X0053022Y0027371D01*
X0051621Y0027371D01*
X0050898Y0028094D01*
X0049906Y0028505D01*
X0048264Y0028505D01*
X0047272Y0028094D01*
X0046512Y0027334D01*
X0046262Y0026731D01*
X0046034Y0026960D01*
X0045041Y0027371D01*
X0042833Y0027371D01*
X0042379Y0027183D01*
X0041925Y0027371D01*
X0040851Y0027371D01*
X0040821Y0027358D01*
X0040791Y0027371D01*
X0039150Y0027371D01*
X0038719Y0027192D01*
X0038289Y0027371D01*
X0035513Y0027371D01*
X0034521Y0026960D01*
X0033762Y0026200D01*
X0033551Y0025690D01*
X0032759Y0026482D01*
X0031293Y0027089D01*
X0030400Y0027089D01*
X0030400Y0027379D01*
X0030101Y0028102D01*
X0030400Y0028825D01*
X0030400Y0033901D01*
X0030458Y0033959D01*
X0032958Y0036459D01*
X0033400Y0037525D01*
X0033400Y0040863D01*
X0033880Y0041343D01*
X0033950Y0041513D01*
X0034241Y0041222D01*
X0035707Y0040615D01*
X0037293Y0040615D01*
X0038759Y0041222D01*
X0039880Y0042343D01*
X0040487Y0043809D01*
X0040487Y0045395D01*
X0039880Y0046861D01*
X0039400Y0047341D01*
X0039400Y0050179D01*
X0038958Y0051245D01*
X0038143Y0052061D01*
X0036643Y0053561D01*
X0035577Y0054002D01*
X0030400Y0054002D01*
X0030400Y0057379D01*
X0030101Y0058102D01*
X0030400Y0058825D01*
X0030400Y0059115D01*
X0031293Y0059115D01*
X0032759Y0059722D01*
X0033880Y0060843D01*
X0034487Y0062309D01*
X0034487Y0063895D01*
X0033880Y0065361D01*
X0032759Y0066482D01*
X0031293Y0067089D01*
X0030400Y0067089D01*
X0030400Y0067379D01*
X0030101Y0068102D01*
X0030400Y0068825D01*
X0030400Y0069115D01*
X0031293Y0069115D01*
X0032759Y0069722D01*
X0033880Y0070843D01*
X0034487Y0072309D01*
X0034487Y0073895D01*
X0033880Y0075361D01*
X0032759Y0076482D01*
X0031293Y0077089D01*
X0030400Y0077089D01*
X0030400Y0077379D01*
X0030035Y0078262D01*
X0029680Y0078616D01*
X0029800Y0079065D01*
X0029800Y0082302D01*
X0021300Y0082302D01*
X0021300Y0083902D01*
X0029800Y0083902D01*
X0029800Y0085302D01*
X0029800Y0082042D02*
X0087700Y0082042D01*
X0087700Y0080444D02*
X0029800Y0080444D01*
X0029741Y0078845D02*
X0087700Y0078845D01*
X0087700Y0077247D02*
X0030400Y0077247D01*
X0033593Y0075648D02*
X0087700Y0075648D01*
X0087700Y0074050D02*
X0034423Y0074050D01*
X0034487Y0072451D02*
X0044710Y0072451D01*
X0044741Y0072482D02*
X0043620Y0071361D01*
X0043013Y0069895D01*
X0043013Y0068309D01*
X0043620Y0066843D01*
X0044741Y0065722D01*
X0046207Y0065115D01*
X0047793Y0065115D01*
X0049259Y0065722D01*
X0049739Y0066202D01*
X0055761Y0066202D01*
X0056241Y0065722D01*
X0057707Y0065115D01*
X0059293Y0065115D01*
X0060759Y0065722D01*
X0061880Y0066843D01*
X0062487Y0068309D01*
X0062487Y0069895D01*
X0061880Y0071361D01*
X0060759Y0072482D01*
X0059293Y0073089D01*
X0057707Y0073089D01*
X0056241Y0072482D01*
X0055761Y0072002D01*
X0049739Y0072002D01*
X0049259Y0072482D01*
X0047793Y0073089D01*
X0046207Y0073089D01*
X0044741Y0072482D01*
X0043409Y0070853D02*
X0033884Y0070853D01*
X0031631Y0069254D02*
X0043013Y0069254D01*
X0043283Y0067656D02*
X0030285Y0067656D01*
X0033184Y0066057D02*
X0044406Y0066057D01*
X0049594Y0066057D02*
X0055906Y0066057D01*
X0061094Y0066057D02*
X0087700Y0066057D01*
X0087700Y0064459D02*
X0034254Y0064459D01*
X0034487Y0062860D02*
X0087700Y0062860D01*
X0087700Y0061262D02*
X0034054Y0061262D01*
X0032618Y0059663D02*
X0087700Y0059663D01*
X0087700Y0058065D02*
X0061176Y0058065D01*
X0060759Y0058482D02*
X0059293Y0059089D01*
X0057707Y0059089D01*
X0056241Y0058482D01*
X0055120Y0057361D01*
X0054513Y0055895D01*
X0054513Y0054309D01*
X0054600Y0054098D01*
X0054600Y0050841D01*
X0054120Y0050361D01*
X0053513Y0048895D01*
X0053513Y0047309D01*
X0054120Y0045843D01*
X0055241Y0044722D01*
X0056707Y0044115D01*
X0058293Y0044115D01*
X0059759Y0044722D01*
X0060880Y0045843D01*
X0061487Y0047309D01*
X0061487Y0048895D01*
X0060880Y0050361D01*
X0060400Y0050841D01*
X0060400Y0051573D01*
X0060759Y0051722D01*
X0061880Y0052843D01*
X0062487Y0054309D01*
X0062487Y0055895D01*
X0061880Y0057361D01*
X0060759Y0058482D01*
X0062251Y0056466D02*
X0087700Y0056466D01*
X0087700Y0054868D02*
X0062487Y0054868D01*
X0062057Y0053269D02*
X0087700Y0053269D01*
X0087700Y0051671D02*
X0060636Y0051671D01*
X0061000Y0050072D02*
X0087700Y0050072D01*
X0087700Y0048474D02*
X0061487Y0048474D01*
X0061308Y0046875D02*
X0081690Y0046875D01*
X0079585Y0045277D02*
X0060314Y0045277D01*
X0054686Y0045277D02*
X0040487Y0045277D01*
X0040433Y0043678D02*
X0079013Y0043678D01*
X0079108Y0042080D02*
X0039617Y0042080D01*
X0039866Y0046875D02*
X0053692Y0046875D01*
X0053513Y0048474D02*
X0039400Y0048474D01*
X0039400Y0050072D02*
X0054000Y0050072D01*
X0054600Y0051671D02*
X0038532Y0051671D01*
X0036934Y0053269D02*
X0054600Y0053269D01*
X0054513Y0054868D02*
X0030400Y0054868D01*
X0030400Y0056466D02*
X0054749Y0056466D01*
X0055824Y0058065D02*
X0030116Y0058065D01*
X0033400Y0040481D02*
X0079982Y0040481D01*
X0080100Y0038883D02*
X0033400Y0038883D01*
X0033300Y0037284D02*
X0080100Y0037284D01*
X0080100Y0035686D02*
X0058768Y0035686D01*
X0060494Y0034087D02*
X0080100Y0034087D01*
X0080100Y0032489D02*
X0061215Y0032489D01*
X0055232Y0035686D02*
X0032185Y0035686D01*
X0030586Y0034087D02*
X0053506Y0034087D01*
X0053013Y0032489D02*
X0030400Y0032489D01*
X0030400Y0030890D02*
X0053186Y0030890D01*
X0054171Y0029292D02*
X0030400Y0029292D01*
X0030270Y0027693D02*
X0046871Y0027693D01*
X0051299Y0027693D02*
X0054805Y0027693D01*
X0033718Y0026095D02*
X0033146Y0026095D01*
X0062217Y0067656D02*
X0087700Y0067656D01*
X0087700Y0069254D02*
X0062487Y0069254D01*
X0062091Y0070853D02*
X0087700Y0070853D01*
X0087700Y0072451D02*
X0060790Y0072451D01*
X0056210Y0072451D02*
X0049290Y0072451D01*
X0084310Y0046875D02*
X0087700Y0046875D01*
X0087700Y0045277D02*
X0086415Y0045277D01*
X0086987Y0043678D02*
X0087700Y0043678D01*
X0087700Y0042080D02*
X0086892Y0042080D01*
X0087700Y0040481D02*
X0086018Y0040481D01*
X0085900Y0038883D02*
X0087700Y0038883D01*
X0087700Y0037284D02*
X0085900Y0037284D01*
X0085900Y0035686D02*
X0087700Y0035686D01*
X0087700Y0034087D02*
X0085900Y0034087D01*
X0085900Y0032489D02*
X0087700Y0032489D01*
X0087700Y0030890D02*
X0085900Y0030890D01*
X0085803Y0029292D02*
X0087700Y0029292D01*
X0087700Y0027693D02*
X0084692Y0027693D01*
D13*
X0086500Y0028102D03*
X0078000Y0032102D03*
X0073000Y0040602D03*
X0066000Y0048102D03*
X0063000Y0046602D03*
X0057500Y0048102D03*
X0058500Y0055102D03*
X0069500Y0062102D03*
X0079000Y0063102D03*
X0086500Y0053102D03*
X0083000Y0043102D03*
X0058000Y0040102D03*
X0057000Y0032102D03*
X0036500Y0044602D03*
X0033500Y0048102D03*
X0030500Y0043602D03*
X0030500Y0063102D03*
X0030500Y0073102D03*
X0047000Y0069102D03*
X0058500Y0069102D03*
X0067000Y0079602D03*
X0067000Y0084602D03*
X0030500Y0023102D03*
D14*
X0030500Y0083102D02*
X0020500Y0083102D01*
D15*
X0020500Y0073102D02*
X0030500Y0073102D01*
X0030500Y0063102D02*
X0020500Y0063102D01*
X0020500Y0053102D02*
X0026000Y0053102D01*
X0028000Y0051102D01*
X0035000Y0051102D01*
X0036500Y0049602D01*
X0036500Y0044602D01*
X0033500Y0048102D02*
X0030500Y0048102D01*
X0028500Y0046102D01*
X0023500Y0046102D01*
X0020500Y0043102D01*
X0023000Y0035602D02*
X0020500Y0033102D01*
X0023000Y0035602D02*
X0028000Y0035602D01*
X0030500Y0038102D01*
X0030500Y0043602D01*
X0030500Y0023102D02*
X0020500Y0023102D01*
X0057000Y0032102D02*
X0057500Y0032102D01*
X0061500Y0028102D01*
X0081000Y0028102D01*
X0083000Y0030102D01*
X0083000Y0043102D01*
X0058500Y0055102D02*
X0057500Y0054102D01*
X0057500Y0048102D01*
X0058500Y0069102D02*
X0047000Y0069102D01*
M02*
