%
M48
M72
T01C0.01575
%
T01
X30500Y23102
X30500Y43602
X33500Y48102
X36500Y44602
X30500Y63102
X30500Y73102
X47000Y69102
X58500Y69102
X69500Y62102
X79000Y63102
X86500Y53102
X83000Y43102
X73000Y40602
X66000Y48102
X63000Y46602
X57500Y48102
X58500Y55102
X58000Y40102
X57000Y32102
X78000Y32102
X86500Y28102
X67000Y79602
X67000Y84602
M30
