G75*
%MOIN*%
%OFA0B0*%
%FSLAX25Y25*%
%IPPOS*%
%LPD*%
%AMOC8*
5,1,8,0,0,1.08239X$1,22.5*
%
%ADD10C,0.00700*%
%ADD11C,0.00200*%
%ADD12C,0.00500*%
%ADD13C,0.00394*%
D10*
X0057850Y0072452D02*
X0060385Y0072452D01*
X0061994Y0072452D02*
X0063261Y0072452D01*
X0062627Y0072452D02*
X0062627Y0076255D01*
X0061994Y0076255D02*
X0063261Y0076255D01*
X0064756Y0075621D02*
X0064756Y0074988D01*
X0065390Y0074354D01*
X0066658Y0074354D01*
X0067291Y0073720D01*
X0067291Y0073086D01*
X0066658Y0072452D01*
X0065390Y0072452D01*
X0064756Y0073086D01*
X0064756Y0075621D02*
X0065390Y0076255D01*
X0066658Y0076255D01*
X0067291Y0075621D01*
X0068899Y0075621D02*
X0069533Y0076255D01*
X0070801Y0076255D01*
X0071435Y0075621D01*
X0071435Y0074988D01*
X0070801Y0074354D01*
X0071435Y0073720D01*
X0071435Y0073086D01*
X0070801Y0072452D01*
X0069533Y0072452D01*
X0068899Y0073086D01*
X0070167Y0074354D02*
X0070801Y0074354D01*
X0073043Y0075621D02*
X0073677Y0076255D01*
X0074945Y0076255D01*
X0075578Y0075621D01*
X0075578Y0074988D01*
X0074945Y0074354D01*
X0075578Y0073720D01*
X0075578Y0073086D01*
X0074945Y0072452D01*
X0073677Y0072452D01*
X0073043Y0073086D01*
X0074311Y0074354D02*
X0074945Y0074354D01*
X0077187Y0074988D02*
X0078454Y0076255D01*
X0078454Y0072452D01*
X0077187Y0072452D02*
X0079722Y0072452D01*
X0081330Y0072452D02*
X0081330Y0076255D01*
X0081330Y0074354D02*
X0083866Y0074354D01*
X0085474Y0074354D02*
X0088009Y0074354D01*
X0088009Y0076255D02*
X0088009Y0072452D01*
X0085474Y0072452D02*
X0085474Y0076255D01*
X0083866Y0076255D02*
X0083866Y0072452D01*
X0057850Y0072452D02*
X0057850Y0076255D01*
D11*
X0068663Y0082514D02*
X0069030Y0082147D01*
X0069764Y0082147D01*
X0070131Y0082514D01*
X0070873Y0082147D02*
X0072341Y0082147D01*
X0071607Y0082147D02*
X0071607Y0084349D01*
X0070873Y0083615D01*
X0070131Y0083982D02*
X0069764Y0084349D01*
X0069030Y0084349D01*
X0068663Y0083982D01*
X0068663Y0082514D01*
X0044778Y0066202D02*
X0043310Y0066202D01*
X0044044Y0066202D02*
X0044044Y0068404D01*
X0043310Y0067670D01*
X0042568Y0068037D02*
X0042568Y0067303D01*
X0042201Y0066936D01*
X0041100Y0066936D01*
X0041834Y0066936D02*
X0042568Y0066202D01*
X0041100Y0066202D02*
X0041100Y0068404D01*
X0042201Y0068404D01*
X0042568Y0068037D01*
X0042810Y0076202D02*
X0044278Y0077670D01*
X0044278Y0078037D01*
X0043911Y0078404D01*
X0043177Y0078404D01*
X0042810Y0078037D01*
X0042068Y0078037D02*
X0042068Y0077303D01*
X0041701Y0076936D01*
X0040600Y0076936D01*
X0041334Y0076936D02*
X0042068Y0076202D01*
X0042810Y0076202D02*
X0044278Y0076202D01*
X0042068Y0078037D02*
X0041701Y0078404D01*
X0040600Y0078404D01*
X0040600Y0076202D01*
X0056834Y0053097D02*
X0057568Y0053097D01*
X0057201Y0053097D02*
X0057201Y0051262D01*
X0056834Y0050895D01*
X0056467Y0050895D01*
X0056100Y0051262D01*
X0058310Y0050895D02*
X0058310Y0053097D01*
X0059044Y0052363D01*
X0059778Y0053097D01*
X0059778Y0050895D01*
X0060520Y0050895D02*
X0060520Y0053097D01*
X0061621Y0053097D01*
X0061988Y0052730D01*
X0061988Y0051996D01*
X0061621Y0051629D01*
X0060520Y0051629D01*
X0062730Y0050895D02*
X0064198Y0052363D01*
X0064198Y0052730D01*
X0063831Y0053097D01*
X0063097Y0053097D01*
X0062730Y0052730D01*
X0062730Y0050895D02*
X0064198Y0050895D01*
X0063464Y0044097D02*
X0063464Y0041895D01*
X0062730Y0041895D02*
X0064198Y0041895D01*
X0063831Y0040097D02*
X0062730Y0038996D01*
X0064198Y0038996D01*
X0063831Y0037895D02*
X0063831Y0040097D01*
X0061988Y0039730D02*
X0061988Y0038996D01*
X0061621Y0038629D01*
X0060520Y0038629D01*
X0060520Y0037895D02*
X0060520Y0040097D01*
X0061621Y0040097D01*
X0061988Y0039730D01*
X0060520Y0041895D02*
X0060520Y0044097D01*
X0061621Y0044097D01*
X0061988Y0043730D01*
X0061988Y0042996D01*
X0061621Y0042629D01*
X0060520Y0042629D01*
X0059778Y0041895D02*
X0059778Y0044097D01*
X0059044Y0043363D01*
X0058310Y0044097D01*
X0058310Y0041895D01*
X0057201Y0042262D02*
X0056834Y0041895D01*
X0056467Y0041895D01*
X0056100Y0042262D01*
X0057201Y0042262D02*
X0057201Y0044097D01*
X0056834Y0044097D02*
X0057568Y0044097D01*
X0057568Y0040097D02*
X0056834Y0040097D01*
X0057201Y0040097D02*
X0057201Y0038262D01*
X0056834Y0037895D01*
X0056467Y0037895D01*
X0056100Y0038262D01*
X0058310Y0037895D02*
X0058310Y0040097D01*
X0059044Y0039363D01*
X0059778Y0040097D01*
X0059778Y0037895D01*
X0059701Y0033097D02*
X0059701Y0031262D01*
X0059334Y0030895D01*
X0058967Y0030895D01*
X0058600Y0031262D01*
X0059334Y0033097D02*
X0060068Y0033097D01*
X0060810Y0033097D02*
X0061544Y0032363D01*
X0062278Y0033097D01*
X0062278Y0030895D01*
X0063020Y0030895D02*
X0063020Y0033097D01*
X0064121Y0033097D01*
X0064488Y0032730D01*
X0064488Y0031996D01*
X0064121Y0031629D01*
X0063020Y0031629D01*
X0065230Y0031262D02*
X0065597Y0030895D01*
X0066331Y0030895D01*
X0066698Y0031262D01*
X0066698Y0031629D01*
X0066331Y0031996D01*
X0065964Y0031996D01*
X0066331Y0031996D02*
X0066698Y0032363D01*
X0066698Y0032730D01*
X0066331Y0033097D01*
X0065597Y0033097D01*
X0065230Y0032730D01*
X0060810Y0033097D02*
X0060810Y0030895D01*
X0062730Y0043363D02*
X0063464Y0044097D01*
X0072506Y0053052D02*
X0073974Y0053052D01*
X0074341Y0053419D01*
X0074341Y0054153D01*
X0073974Y0054520D01*
X0074341Y0055262D02*
X0072873Y0056730D01*
X0072506Y0056730D01*
X0072139Y0056363D01*
X0072139Y0055629D01*
X0072506Y0055262D01*
X0072506Y0054520D02*
X0072139Y0054153D01*
X0072139Y0053419D01*
X0072506Y0053052D01*
X0074341Y0055262D02*
X0074341Y0056730D01*
X0081800Y0045960D02*
X0081800Y0044492D01*
X0081800Y0045226D02*
X0079598Y0045226D01*
X0080332Y0044492D01*
X0079965Y0043750D02*
X0079598Y0043383D01*
X0079598Y0042649D01*
X0079965Y0042282D01*
X0081433Y0042282D01*
X0081800Y0042649D01*
X0081800Y0043383D01*
X0081433Y0043750D01*
X0081800Y0041543D02*
X0081800Y0040809D01*
X0081800Y0041176D02*
X0079598Y0041176D01*
X0079598Y0040809D02*
X0079598Y0041543D01*
X0082524Y0027610D02*
X0082891Y0027610D01*
X0083258Y0027243D01*
X0083625Y0027610D01*
X0083992Y0027610D01*
X0084359Y0027243D01*
X0084359Y0026509D01*
X0083992Y0026142D01*
X0083992Y0025400D02*
X0084359Y0025033D01*
X0084359Y0024299D01*
X0083992Y0023932D01*
X0082524Y0023932D01*
X0082157Y0024299D01*
X0082157Y0025033D01*
X0082524Y0025400D01*
X0082524Y0026142D02*
X0082157Y0026509D01*
X0082157Y0027243D01*
X0082524Y0027610D01*
X0083258Y0027243D02*
X0083258Y0026876D01*
D12*
X0031751Y0030852D02*
X0030250Y0030852D01*
X0031001Y0030852D02*
X0031001Y0035356D01*
X0031751Y0035356D02*
X0030250Y0035356D01*
X0033319Y0034605D02*
X0033319Y0031603D01*
X0034070Y0030852D01*
X0035571Y0030852D01*
X0036322Y0031603D01*
X0036322Y0034605D01*
X0035571Y0035356D01*
X0034070Y0035356D01*
X0033319Y0034605D01*
X0037923Y0034605D02*
X0038674Y0035356D01*
X0040175Y0035356D01*
X0040926Y0034605D01*
X0040926Y0033855D01*
X0040175Y0033104D01*
X0040926Y0032353D01*
X0040926Y0031603D01*
X0040175Y0030852D01*
X0038674Y0030852D01*
X0037923Y0031603D01*
X0039424Y0033104D02*
X0040175Y0033104D01*
X0037106Y0040852D02*
X0035605Y0040852D01*
X0034854Y0041603D01*
X0033253Y0041603D02*
X0033253Y0042353D01*
X0032502Y0043104D01*
X0031001Y0043104D01*
X0030250Y0043855D01*
X0030250Y0044605D01*
X0031001Y0045356D01*
X0032502Y0045356D01*
X0033253Y0044605D01*
X0034854Y0044605D02*
X0034854Y0043855D01*
X0035605Y0043104D01*
X0037106Y0043104D01*
X0037856Y0042353D01*
X0037856Y0041603D01*
X0037106Y0040852D01*
X0037856Y0044605D02*
X0037106Y0045356D01*
X0035605Y0045356D01*
X0034854Y0044605D01*
X0033253Y0041603D02*
X0032502Y0040852D01*
X0031001Y0040852D01*
X0030250Y0041603D01*
X0030250Y0050852D02*
X0031751Y0050852D01*
X0031001Y0050852D02*
X0031001Y0055356D01*
X0031751Y0055356D02*
X0030250Y0055356D01*
X0033319Y0054605D02*
X0033319Y0051603D01*
X0034070Y0050852D01*
X0035571Y0050852D01*
X0036322Y0051603D01*
X0036322Y0054605D01*
X0035571Y0055356D01*
X0034070Y0055356D01*
X0033319Y0054605D01*
X0037923Y0054605D02*
X0038674Y0055356D01*
X0040175Y0055356D01*
X0040926Y0054605D01*
X0040926Y0053855D01*
X0037923Y0050852D01*
X0040926Y0050852D01*
X0040926Y0060852D02*
X0037923Y0060852D01*
X0039424Y0060852D02*
X0039424Y0065356D01*
X0037923Y0063855D01*
X0036322Y0064605D02*
X0035571Y0065356D01*
X0034070Y0065356D01*
X0033319Y0064605D01*
X0033319Y0061603D01*
X0034070Y0060852D01*
X0035571Y0060852D01*
X0036322Y0061603D01*
X0036322Y0064605D01*
X0031751Y0065356D02*
X0030250Y0065356D01*
X0031001Y0065356D02*
X0031001Y0060852D01*
X0031751Y0060852D02*
X0030250Y0060852D01*
X0031001Y0070852D02*
X0030250Y0071603D01*
X0031001Y0070852D02*
X0032502Y0070852D01*
X0033253Y0071603D01*
X0033253Y0073104D01*
X0032502Y0073855D01*
X0031751Y0073855D01*
X0030250Y0073104D01*
X0030250Y0075356D01*
X0033253Y0075356D01*
X0034854Y0075356D02*
X0034854Y0072353D01*
X0036355Y0070852D01*
X0037856Y0072353D01*
X0037856Y0075356D01*
X0037907Y0080852D02*
X0037156Y0081603D01*
X0037907Y0080852D02*
X0039408Y0080852D01*
X0040158Y0081603D01*
X0040158Y0082353D01*
X0039408Y0083104D01*
X0038657Y0083104D01*
X0039408Y0083104D02*
X0040158Y0083855D01*
X0040158Y0084605D01*
X0039408Y0085356D01*
X0037907Y0085356D01*
X0037156Y0084605D01*
X0035605Y0081603D02*
X0034854Y0081603D01*
X0034854Y0080852D01*
X0035605Y0080852D01*
X0035605Y0081603D01*
X0033253Y0081603D02*
X0032502Y0080852D01*
X0031001Y0080852D01*
X0030250Y0081603D01*
X0031751Y0083104D02*
X0032502Y0083104D01*
X0033253Y0082353D01*
X0033253Y0081603D01*
X0032502Y0083104D02*
X0033253Y0083855D01*
X0033253Y0084605D01*
X0032502Y0085356D01*
X0031001Y0085356D01*
X0030250Y0084605D01*
X0041760Y0085356D02*
X0041760Y0082353D01*
X0043261Y0080852D01*
X0044762Y0082353D01*
X0044762Y0085356D01*
D13*
X0067094Y0046508D02*
X0067094Y0034697D01*
X0078906Y0034697D01*
X0078906Y0046508D01*
X0067094Y0046508D01*
X0078209Y0045976D02*
X0078211Y0046003D01*
X0078217Y0046030D01*
X0078226Y0046056D01*
X0078239Y0046080D01*
X0078255Y0046103D01*
X0078274Y0046122D01*
X0078296Y0046139D01*
X0078320Y0046153D01*
X0078345Y0046163D01*
X0078372Y0046170D01*
X0078399Y0046173D01*
X0078427Y0046172D01*
X0078454Y0046167D01*
X0078480Y0046159D01*
X0078504Y0046147D01*
X0078527Y0046131D01*
X0078548Y0046113D01*
X0078565Y0046092D01*
X0078580Y0046068D01*
X0078591Y0046043D01*
X0078599Y0046017D01*
X0078603Y0045990D01*
X0078603Y0045962D01*
X0078599Y0045935D01*
X0078591Y0045909D01*
X0078580Y0045884D01*
X0078565Y0045860D01*
X0078548Y0045839D01*
X0078527Y0045821D01*
X0078505Y0045805D01*
X0078480Y0045793D01*
X0078454Y0045785D01*
X0078427Y0045780D01*
X0078399Y0045779D01*
X0078372Y0045782D01*
X0078345Y0045789D01*
X0078320Y0045799D01*
X0078296Y0045813D01*
X0078274Y0045830D01*
X0078255Y0045849D01*
X0078239Y0045872D01*
X0078226Y0045896D01*
X0078217Y0045922D01*
X0078211Y0045949D01*
X0078209Y0045976D01*
M02*
