G75*
%MOIN*%
%OFA0B0*%
%FSLAX25Y25*%
%IPPOS*%
%LPD*%
%AMOC8*
5,1,8,0,0,1.08239X$1,22.5*
%
%ADD10R,0.05118X0.06299*%
%ADD11R,0.04252X0.04134*%
%ADD12R,0.15000X0.07600*%
%ADD13R,0.01220X0.01614*%
%ADD14R,0.01614X0.01220*%
%ADD15R,0.03937X0.04331*%
%ADD16C,0.03150*%
%ADD17C,0.01575*%
%ADD18C,0.00800*%
%ADD19C,0.01000*%
%ADD20C,0.03175*%
%ADD21C,0.02400*%
%ADD22C,0.05000*%
%ADD23C,0.03200*%
%ADD24C,0.01600*%
D10*
X0053563Y0083102D03*
X0061437Y0083102D03*
D11*
X0078500Y0057547D03*
X0078500Y0050657D03*
X0083000Y0039047D03*
X0083000Y0032157D03*
D12*
X0020500Y0033102D03*
X0020500Y0043102D03*
X0020500Y0053102D03*
X0020500Y0063102D03*
X0020500Y0073102D03*
X0020500Y0083102D03*
D13*
X0069063Y0045425D03*
X0071031Y0045425D03*
X0073000Y0045425D03*
X0074969Y0045425D03*
X0076937Y0045425D03*
X0076937Y0035779D03*
X0074969Y0035779D03*
X0073000Y0035779D03*
X0071031Y0035779D03*
X0069063Y0035779D03*
D14*
X0068177Y0038634D03*
X0068177Y0040602D03*
X0068177Y0042571D03*
X0077823Y0042571D03*
X0077823Y0040602D03*
X0077823Y0038634D03*
D15*
X0053846Y0063102D03*
X0047154Y0063102D03*
X0047154Y0073102D03*
X0053846Y0073102D03*
D16*
X0054086Y0055102D02*
X0053300Y0055102D01*
X0046700Y0055102D02*
X0045914Y0055102D01*
X0045914Y0048102D02*
X0046700Y0048102D01*
X0053300Y0048102D02*
X0054086Y0048102D01*
X0054086Y0039102D02*
X0053300Y0039102D01*
X0046700Y0039102D02*
X0045914Y0039102D01*
X0045914Y0032102D02*
X0046700Y0032102D01*
X0053300Y0032102D02*
X0054086Y0032102D01*
D17*
X0049212Y0030921D02*
X0049212Y0033283D01*
X0050788Y0033283D01*
X0050788Y0030921D01*
X0049212Y0030921D01*
X0049212Y0032495D02*
X0050788Y0032495D01*
X0049212Y0037921D02*
X0049212Y0040283D01*
X0050788Y0040283D01*
X0050788Y0037921D01*
X0049212Y0037921D01*
X0049212Y0039495D02*
X0050788Y0039495D01*
X0049212Y0046921D02*
X0049212Y0049283D01*
X0050788Y0049283D01*
X0050788Y0046921D01*
X0049212Y0046921D01*
X0049212Y0048495D02*
X0050788Y0048495D01*
X0049212Y0053921D02*
X0049212Y0056283D01*
X0050788Y0056283D01*
X0050788Y0053921D01*
X0049212Y0053921D01*
X0049212Y0055495D02*
X0050788Y0055495D01*
D18*
X0061087Y0047388D02*
X0060695Y0046442D01*
X0062067Y0045071D01*
X0066431Y0045071D01*
X0066542Y0045181D01*
X0067053Y0045181D01*
X0067053Y0045425D01*
X0068421Y0045425D01*
X0068421Y0045425D01*
X0067053Y0045425D01*
X0067053Y0046416D01*
X0067148Y0046772D01*
X0067332Y0047092D01*
X0067593Y0047352D01*
X0067912Y0047537D01*
X0068268Y0047632D01*
X0068435Y0047632D01*
X0066964Y0049102D01*
X0060969Y0049102D01*
X0061087Y0048816D01*
X0061087Y0047388D01*
X0061087Y0047647D02*
X0068420Y0047647D01*
X0067621Y0048445D02*
X0061087Y0048445D01*
X0060864Y0046848D02*
X0067192Y0046848D01*
X0067053Y0046050D02*
X0061088Y0046050D01*
X0061886Y0045251D02*
X0067053Y0045251D01*
X0070984Y0042618D02*
X0075593Y0042618D01*
X0075016Y0042041D01*
X0075016Y0039163D01*
X0075016Y0038009D01*
X0074439Y0038586D01*
X0071561Y0038586D01*
X0071031Y0038056D01*
X0070984Y0038104D01*
X0070984Y0042618D01*
X0070984Y0042057D02*
X0075032Y0042057D01*
X0075016Y0041259D02*
X0070984Y0041259D01*
X0070984Y0040460D02*
X0075016Y0040460D01*
X0075016Y0039662D02*
X0070984Y0039662D01*
X0070984Y0038863D02*
X0075016Y0038863D01*
X0075016Y0038065D02*
X0074960Y0038065D01*
X0076937Y0035779D02*
X0078947Y0035779D01*
X0076937Y0035779D01*
X0076937Y0035779D01*
X0076937Y0034632D02*
X0076937Y0033572D01*
X0077732Y0033572D01*
X0078088Y0033668D01*
X0078407Y0033852D01*
X0078668Y0034112D01*
X0078852Y0034432D01*
X0078947Y0034788D01*
X0078947Y0035779D01*
X0078947Y0036023D01*
X0079002Y0036023D01*
X0079848Y0035178D01*
X0079754Y0035084D01*
X0079569Y0034764D01*
X0079474Y0034408D01*
X0079474Y0032557D01*
X0082600Y0032557D01*
X0082600Y0031757D01*
X0083400Y0031757D01*
X0083400Y0028690D01*
X0085310Y0028690D01*
X0085666Y0028786D01*
X0085986Y0028970D01*
X0086246Y0029231D01*
X0086431Y0029550D01*
X0086526Y0029906D01*
X0086526Y0031757D01*
X0083400Y0031757D01*
X0083400Y0032557D01*
X0086526Y0032557D01*
X0086526Y0034408D01*
X0086431Y0034764D01*
X0086246Y0035084D01*
X0086152Y0035178D01*
X0087126Y0036152D01*
X0087126Y0041942D01*
X0086587Y0042481D01*
X0086587Y0043816D01*
X0086200Y0044751D01*
X0086200Y0049739D01*
X0085713Y0050915D01*
X0084813Y0051815D01*
X0083258Y0053370D01*
X0082491Y0053687D01*
X0081652Y0054526D01*
X0081746Y0054620D01*
X0081931Y0054940D01*
X0082026Y0055296D01*
X0082026Y0057147D01*
X0078900Y0057147D01*
X0078900Y0057947D01*
X0078100Y0057947D01*
X0078100Y0061014D01*
X0076190Y0061014D01*
X0075834Y0060918D01*
X0075514Y0060734D01*
X0075254Y0060473D01*
X0075069Y0060154D01*
X0074974Y0059798D01*
X0074974Y0057947D01*
X0078100Y0057947D01*
X0078100Y0057147D01*
X0074974Y0057147D01*
X0074974Y0055296D01*
X0075069Y0054940D01*
X0075254Y0054620D01*
X0075348Y0054526D01*
X0074725Y0053903D01*
X0066200Y0062427D01*
X0066200Y0071239D01*
X0065713Y0072415D01*
X0064813Y0073315D01*
X0062029Y0076098D01*
X0060853Y0076585D01*
X0057325Y0076585D01*
X0057163Y0076748D01*
X0057163Y0078165D01*
X0057924Y0078926D01*
X0058018Y0078832D01*
X0058338Y0078648D01*
X0058694Y0078552D01*
X0061037Y0078552D01*
X0061037Y0082702D01*
X0061837Y0082702D01*
X0061837Y0078552D01*
X0064180Y0078552D01*
X0064536Y0078648D01*
X0064856Y0078832D01*
X0065116Y0079093D01*
X0065301Y0079412D01*
X0065396Y0079768D01*
X0065396Y0082702D01*
X0061837Y0082702D01*
X0061837Y0083502D01*
X0065396Y0083502D01*
X0065396Y0085702D01*
X0088100Y0085702D01*
X0088100Y0020502D01*
X0037000Y0020502D01*
X0037000Y0020602D01*
X0070997Y0020602D01*
X0071916Y0020983D01*
X0072619Y0021686D01*
X0075119Y0024186D01*
X0075500Y0025105D01*
X0075500Y0033572D01*
X0075763Y0033572D01*
X0075953Y0033623D01*
X0076142Y0033572D01*
X0076937Y0033572D01*
X0076937Y0034632D01*
X0076937Y0034632D01*
X0076937Y0034072D02*
X0076937Y0034072D01*
X0075500Y0033274D02*
X0079474Y0033274D01*
X0079474Y0034072D02*
X0078627Y0034072D01*
X0078947Y0034871D02*
X0079631Y0034871D01*
X0079356Y0035669D02*
X0078947Y0035669D01*
X0079474Y0031757D02*
X0079474Y0029906D01*
X0079569Y0029550D01*
X0079754Y0029231D01*
X0080014Y0028970D01*
X0080334Y0028786D01*
X0080690Y0028690D01*
X0082600Y0028690D01*
X0082600Y0031757D01*
X0079474Y0031757D01*
X0079474Y0031677D02*
X0075500Y0031677D01*
X0075500Y0032475D02*
X0082600Y0032475D01*
X0082600Y0031677D02*
X0083400Y0031677D01*
X0083400Y0032475D02*
X0088100Y0032475D01*
X0088100Y0031677D02*
X0086526Y0031677D01*
X0086526Y0030878D02*
X0088100Y0030878D01*
X0088100Y0030080D02*
X0086526Y0030080D01*
X0086275Y0029281D02*
X0088100Y0029281D01*
X0088100Y0028483D02*
X0075500Y0028483D01*
X0075500Y0029281D02*
X0079725Y0029281D01*
X0079474Y0030080D02*
X0075500Y0030080D01*
X0075500Y0030878D02*
X0079474Y0030878D01*
X0082600Y0030878D02*
X0083400Y0030878D01*
X0083400Y0030080D02*
X0082600Y0030080D01*
X0082600Y0029281D02*
X0083400Y0029281D01*
X0088100Y0027684D02*
X0075500Y0027684D01*
X0075500Y0026886D02*
X0088100Y0026886D01*
X0088100Y0026087D02*
X0075500Y0026087D01*
X0075500Y0025289D02*
X0088100Y0025289D01*
X0088100Y0024490D02*
X0075245Y0024490D01*
X0074625Y0023692D02*
X0088100Y0023692D01*
X0088100Y0022893D02*
X0073827Y0022893D01*
X0073028Y0022095D02*
X0088100Y0022095D01*
X0088100Y0021296D02*
X0072230Y0021296D01*
X0086526Y0033274D02*
X0088100Y0033274D01*
X0088100Y0034072D02*
X0086526Y0034072D01*
X0086369Y0034871D02*
X0088100Y0034871D01*
X0088100Y0035669D02*
X0086644Y0035669D01*
X0087126Y0036468D02*
X0088100Y0036468D01*
X0088100Y0037266D02*
X0087126Y0037266D01*
X0087126Y0038065D02*
X0088100Y0038065D01*
X0088100Y0038863D02*
X0087126Y0038863D01*
X0087126Y0039662D02*
X0088100Y0039662D01*
X0088100Y0040460D02*
X0087126Y0040460D01*
X0087126Y0041259D02*
X0088100Y0041259D01*
X0088100Y0042057D02*
X0087011Y0042057D01*
X0086587Y0042856D02*
X0088100Y0042856D01*
X0088100Y0043654D02*
X0086587Y0043654D01*
X0086323Y0044453D02*
X0088100Y0044453D01*
X0088100Y0045251D02*
X0086200Y0045251D01*
X0086200Y0046050D02*
X0088100Y0046050D01*
X0088100Y0046848D02*
X0086200Y0046848D01*
X0086200Y0047647D02*
X0088100Y0047647D01*
X0088100Y0048445D02*
X0086200Y0048445D01*
X0086200Y0049244D02*
X0088100Y0049244D01*
X0088100Y0050042D02*
X0086074Y0050042D01*
X0085743Y0050841D02*
X0088100Y0050841D01*
X0088100Y0051639D02*
X0084988Y0051639D01*
X0084189Y0052438D02*
X0088100Y0052438D01*
X0088100Y0053237D02*
X0083391Y0053237D01*
X0082143Y0054035D02*
X0088100Y0054035D01*
X0088100Y0054834D02*
X0081869Y0054834D01*
X0082026Y0055632D02*
X0088100Y0055632D01*
X0088100Y0056431D02*
X0082026Y0056431D01*
X0082026Y0057947D02*
X0082026Y0059798D01*
X0081931Y0060154D01*
X0081746Y0060473D01*
X0081486Y0060734D01*
X0081166Y0060918D01*
X0080810Y0061014D01*
X0078900Y0061014D01*
X0078900Y0057947D01*
X0082026Y0057947D01*
X0082026Y0058028D02*
X0088100Y0058028D01*
X0088100Y0058826D02*
X0082026Y0058826D01*
X0082026Y0059625D02*
X0088100Y0059625D01*
X0088100Y0060423D02*
X0081775Y0060423D01*
X0078900Y0060423D02*
X0078100Y0060423D01*
X0078100Y0059625D02*
X0078900Y0059625D01*
X0078900Y0058826D02*
X0078100Y0058826D01*
X0078100Y0058028D02*
X0078900Y0058028D01*
X0078900Y0057229D02*
X0088100Y0057229D01*
X0088100Y0061222D02*
X0067406Y0061222D01*
X0066607Y0062020D02*
X0088100Y0062020D01*
X0088100Y0062819D02*
X0066200Y0062819D01*
X0066200Y0063617D02*
X0088100Y0063617D01*
X0088100Y0064416D02*
X0066200Y0064416D01*
X0066200Y0065214D02*
X0088100Y0065214D01*
X0088100Y0066013D02*
X0066200Y0066013D01*
X0066200Y0066811D02*
X0088100Y0066811D01*
X0088100Y0067610D02*
X0066200Y0067610D01*
X0066200Y0068408D02*
X0088100Y0068408D01*
X0088100Y0069207D02*
X0066200Y0069207D01*
X0066200Y0070005D02*
X0088100Y0070005D01*
X0088100Y0070804D02*
X0066200Y0070804D01*
X0066049Y0071602D02*
X0088100Y0071602D01*
X0088100Y0072401D02*
X0065719Y0072401D01*
X0064928Y0073199D02*
X0088100Y0073199D01*
X0088100Y0073998D02*
X0064130Y0073998D01*
X0063331Y0074796D02*
X0088100Y0074796D01*
X0088100Y0075595D02*
X0062533Y0075595D01*
X0061317Y0076393D02*
X0088100Y0076393D01*
X0088100Y0077192D02*
X0057163Y0077192D01*
X0057163Y0077990D02*
X0088100Y0077990D01*
X0088100Y0078789D02*
X0064781Y0078789D01*
X0065348Y0079587D02*
X0088100Y0079587D01*
X0088100Y0080386D02*
X0065396Y0080386D01*
X0065396Y0081184D02*
X0088100Y0081184D01*
X0088100Y0081983D02*
X0065396Y0081983D01*
X0065396Y0083580D02*
X0088100Y0083580D01*
X0088100Y0084378D02*
X0065396Y0084378D01*
X0065396Y0085177D02*
X0088100Y0085177D01*
X0088100Y0082781D02*
X0061837Y0082781D01*
X0061837Y0081983D02*
X0061037Y0081983D01*
X0061037Y0081184D02*
X0061837Y0081184D01*
X0061837Y0080386D02*
X0061037Y0080386D01*
X0061037Y0079587D02*
X0061837Y0079587D01*
X0061837Y0078789D02*
X0061037Y0078789D01*
X0058093Y0078789D02*
X0057787Y0078789D01*
X0068204Y0060423D02*
X0075225Y0060423D01*
X0074974Y0059625D02*
X0069003Y0059625D01*
X0069801Y0058826D02*
X0074974Y0058826D01*
X0074974Y0058028D02*
X0070600Y0058028D01*
X0071398Y0057229D02*
X0078100Y0057229D01*
X0074974Y0056431D02*
X0072197Y0056431D01*
X0072995Y0055632D02*
X0074974Y0055632D01*
X0075131Y0054834D02*
X0073794Y0054834D01*
X0074592Y0054035D02*
X0074857Y0054035D01*
X0060109Y0040247D02*
X0057964Y0038102D01*
X0056892Y0038102D01*
X0056947Y0038234D01*
X0057043Y0038715D01*
X0054080Y0038715D01*
X0054080Y0039489D01*
X0057043Y0039489D01*
X0056947Y0039970D01*
X0056723Y0040511D01*
X0056397Y0040998D01*
X0055983Y0041413D01*
X0055496Y0041738D01*
X0054954Y0041962D01*
X0054380Y0042077D01*
X0054080Y0042077D01*
X0054080Y0039489D01*
X0053575Y0039489D01*
X0053575Y0040838D01*
X0053305Y0041488D01*
X0053305Y0042077D01*
X0053006Y0042077D01*
X0052947Y0042065D01*
X0052910Y0042102D01*
X0057964Y0042102D01*
X0059615Y0040451D01*
X0060109Y0040247D01*
X0059606Y0040460D02*
X0056744Y0040460D01*
X0057008Y0039662D02*
X0059524Y0039662D01*
X0058726Y0038863D02*
X0054080Y0038863D01*
X0054080Y0039662D02*
X0053575Y0039662D01*
X0053575Y0040460D02*
X0054080Y0040460D01*
X0054080Y0041259D02*
X0053400Y0041259D01*
X0053305Y0042057D02*
X0054080Y0042057D01*
X0054477Y0042057D02*
X0058009Y0042057D01*
X0058808Y0041259D02*
X0056137Y0041259D01*
X0071023Y0038065D02*
X0071040Y0038065D01*
D19*
X0023500Y0030102D02*
X0020500Y0033102D01*
X0023500Y0030102D02*
X0029000Y0030102D01*
X0033000Y0026102D01*
X0068000Y0026102D01*
X0069063Y0027165D01*
X0069063Y0035779D01*
X0071031Y0035779D02*
X0071031Y0038634D01*
X0073000Y0040602D01*
X0074969Y0038634D01*
X0074969Y0035779D01*
X0074969Y0033634D01*
X0075500Y0033102D01*
X0076937Y0033165D02*
X0077000Y0033102D01*
X0076937Y0033165D02*
X0076937Y0035779D01*
X0077823Y0038634D02*
X0082587Y0038634D01*
X0083000Y0039047D01*
X0081445Y0040602D01*
X0077823Y0040602D01*
X0077823Y0042571D02*
X0073531Y0042571D01*
X0073500Y0042602D01*
X0071031Y0045425D02*
X0071000Y0045456D01*
X0071000Y0048602D01*
X0068000Y0051602D01*
X0051000Y0051602D01*
X0050000Y0052602D01*
X0050000Y0055102D01*
X0046307Y0055102D02*
X0032500Y0055102D01*
X0030500Y0053102D01*
X0030500Y0043602D01*
X0032000Y0040602D02*
X0023000Y0040602D01*
X0032000Y0040602D02*
X0040500Y0032102D01*
X0046307Y0032102D01*
X0050000Y0032102D02*
X0050000Y0030102D01*
X0051500Y0028602D01*
X0058000Y0028602D01*
X0063000Y0033602D01*
X0063000Y0036634D01*
X0065000Y0038634D01*
X0068177Y0038634D01*
X0068177Y0040602D02*
X0064000Y0040602D01*
X0059000Y0035602D01*
X0051500Y0035602D01*
X0050000Y0037102D01*
X0050000Y0039102D01*
X0046307Y0039102D02*
X0046193Y0039102D01*
X0046193Y0041909D01*
X0045500Y0042602D01*
X0038500Y0042602D01*
X0036500Y0044602D01*
X0033500Y0048102D02*
X0046307Y0048102D01*
X0050000Y0048102D02*
X0050000Y0046102D01*
X0051500Y0044602D01*
X0059000Y0044602D01*
X0061031Y0042571D01*
X0068177Y0042571D01*
X0069063Y0045425D02*
X0069063Y0047039D01*
X0068000Y0048102D01*
X0066000Y0048102D01*
X0058500Y0055102D02*
X0058500Y0069102D01*
X0053000Y0058602D02*
X0048000Y0058602D01*
X0047000Y0059602D01*
X0047000Y0062948D01*
X0047154Y0063102D01*
X0030500Y0063102D01*
X0030500Y0073102D02*
X0047154Y0073102D01*
X0047000Y0072948D01*
X0047000Y0069102D01*
X0053000Y0058602D02*
X0053693Y0057909D01*
X0053693Y0055102D01*
X0053693Y0048102D02*
X0057500Y0048102D01*
X0073000Y0035779D02*
X0073000Y0025602D01*
X0070500Y0023102D01*
X0030500Y0023102D01*
X0053693Y0032102D02*
X0057000Y0032102D01*
X0076937Y0045425D02*
X0076937Y0049094D01*
X0078500Y0050657D01*
D20*
X0086500Y0053102D03*
X0079000Y0063102D03*
X0069500Y0062102D03*
X0058500Y0055102D03*
X0057500Y0048102D03*
X0063000Y0046602D03*
X0066000Y0048102D03*
X0073000Y0040602D03*
X0078000Y0032102D03*
X0086500Y0028102D03*
X0083000Y0043102D03*
X0058000Y0040102D03*
X0057000Y0032102D03*
X0036500Y0044602D03*
X0033500Y0048102D03*
X0030500Y0043602D03*
X0030500Y0063102D03*
X0030500Y0073102D03*
X0047000Y0069102D03*
X0058500Y0069102D03*
X0067000Y0079602D03*
X0067000Y0084602D03*
X0030500Y0023102D03*
D21*
X0063000Y0061102D02*
X0073500Y0050602D01*
X0078445Y0050602D01*
X0078500Y0050657D01*
X0081445Y0050657D01*
X0083000Y0049102D01*
X0083000Y0043102D01*
X0083000Y0039047D01*
X0063000Y0061102D02*
X0063000Y0070602D01*
X0060217Y0073385D01*
X0053563Y0073385D01*
D22*
X0053563Y0083102D02*
X0020500Y0083102D01*
D23*
X0053563Y0083102D02*
X0053563Y0073385D01*
X0053846Y0073102D01*
X0053846Y0063102D01*
D24*
X0023000Y0040602D02*
X0020500Y0043102D01*
M02*
