G75*
%MOIN*%
%OFA0B0*%
%FSLAX25Y25*%
%IPPOS*%
%LPD*%
%AMOC8*
5,1,8,0,0,1.08239X$1,22.5*
%
%ADD10R,0.15000X0.07600*%
%ADD11C,0.01000*%
%ADD12C,0.03175*%
%ADD13C,0.06600*%
%ADD14C,0.01600*%
%ADD15C,0.02400*%
D10*
X0020500Y0027602D03*
X0020500Y0037602D03*
X0020500Y0047602D03*
X0020500Y0057602D03*
X0020500Y0067602D03*
X0020500Y0077602D03*
X0020500Y0087602D03*
D11*
X0021000Y0087505D02*
X0088000Y0087505D01*
X0088000Y0086507D02*
X0029500Y0086507D01*
X0029500Y0087102D02*
X0021000Y0087102D01*
X0021000Y0088102D01*
X0029500Y0088102D01*
X0029500Y0090102D01*
X0088000Y0090102D01*
X0088000Y0073203D01*
X0087643Y0073561D01*
X0086577Y0074002D01*
X0085815Y0074002D01*
X0085589Y0074228D01*
X0084233Y0074789D01*
X0082767Y0074789D01*
X0081411Y0074228D01*
X0080374Y0073191D01*
X0079813Y0071835D01*
X0079813Y0070369D01*
X0080374Y0069013D01*
X0081411Y0067976D01*
X0082767Y0067415D01*
X0084233Y0067415D01*
X0084600Y0067566D01*
X0084600Y0059306D01*
X0084411Y0059228D01*
X0083374Y0058191D01*
X0082813Y0056835D01*
X0082813Y0055369D01*
X0083374Y0054013D01*
X0084400Y0052987D01*
X0084400Y0041217D01*
X0083374Y0040191D01*
X0082813Y0038835D01*
X0082813Y0037369D01*
X0083374Y0036013D01*
X0084411Y0034976D01*
X0085767Y0034415D01*
X0087233Y0034415D01*
X0088000Y0034732D01*
X0088000Y0025102D01*
X0033870Y0025102D01*
X0034187Y0025869D01*
X0034187Y0027335D01*
X0033626Y0028691D01*
X0032589Y0029728D01*
X0031233Y0030289D01*
X0030100Y0030289D01*
X0030100Y0032272D01*
X0029770Y0032602D01*
X0030100Y0032932D01*
X0030100Y0042272D01*
X0029770Y0042602D01*
X0030100Y0042932D01*
X0030100Y0052272D01*
X0029770Y0052602D01*
X0030100Y0052932D01*
X0030100Y0061484D01*
X0030267Y0061415D01*
X0031733Y0061415D01*
X0033089Y0061976D01*
X0034126Y0063013D01*
X0034687Y0064369D01*
X0034687Y0065835D01*
X0034126Y0067191D01*
X0033089Y0068228D01*
X0031733Y0068789D01*
X0030267Y0068789D01*
X0030100Y0068720D01*
X0030100Y0069415D01*
X0031233Y0069415D01*
X0031444Y0069502D01*
X0065813Y0069502D01*
X0065813Y0068869D01*
X0066374Y0067513D01*
X0067411Y0066476D01*
X0068767Y0065915D01*
X0070233Y0065915D01*
X0071589Y0066476D01*
X0072626Y0067513D01*
X0073187Y0068869D01*
X0073187Y0070335D01*
X0072626Y0071691D01*
X0071965Y0072352D01*
X0072126Y0072513D01*
X0072687Y0073869D01*
X0072687Y0075335D01*
X0072126Y0076691D01*
X0071089Y0077728D01*
X0070153Y0078115D01*
X0069869Y0078400D01*
X0068656Y0078902D01*
X0060994Y0078902D01*
X0061187Y0079369D01*
X0061187Y0080835D01*
X0060626Y0082191D01*
X0059589Y0083228D01*
X0058233Y0083789D01*
X0056767Y0083789D01*
X0055411Y0083228D01*
X0054885Y0082702D01*
X0042983Y0082702D01*
X0042027Y0082306D01*
X0041296Y0081575D01*
X0039010Y0079289D01*
X0038767Y0079289D01*
X0037411Y0078728D01*
X0036885Y0078202D01*
X0036615Y0078202D01*
X0035589Y0079228D01*
X0034687Y0079601D01*
X0034687Y0080835D01*
X0034126Y0082191D01*
X0033089Y0083228D01*
X0031733Y0083789D01*
X0030267Y0083789D01*
X0029460Y0083455D01*
X0029500Y0083605D01*
X0029500Y0087102D01*
X0029500Y0088504D02*
X0088000Y0088504D01*
X0088000Y0089502D02*
X0029500Y0089502D01*
X0029500Y0085508D02*
X0088000Y0085508D01*
X0088000Y0084510D02*
X0029500Y0084510D01*
X0029475Y0083511D02*
X0029595Y0083511D01*
X0032405Y0083511D02*
X0056095Y0083511D01*
X0058905Y0083511D02*
X0088000Y0083511D01*
X0088000Y0082513D02*
X0060304Y0082513D01*
X0060906Y0081514D02*
X0088000Y0081514D01*
X0088000Y0080516D02*
X0061187Y0080516D01*
X0061187Y0079517D02*
X0088000Y0079517D01*
X0088000Y0078519D02*
X0069582Y0078519D01*
X0071297Y0077520D02*
X0088000Y0077520D01*
X0088000Y0076522D02*
X0072196Y0076522D01*
X0072610Y0075523D02*
X0088000Y0075523D01*
X0088000Y0074525D02*
X0084873Y0074525D01*
X0082127Y0074525D02*
X0072687Y0074525D01*
X0072546Y0073526D02*
X0080709Y0073526D01*
X0080099Y0072528D02*
X0072132Y0072528D01*
X0072693Y0071529D02*
X0079813Y0071529D01*
X0079813Y0070531D02*
X0073107Y0070531D01*
X0073187Y0069532D02*
X0080159Y0069532D01*
X0080854Y0068534D02*
X0073049Y0068534D01*
X0072635Y0067535D02*
X0082476Y0067535D01*
X0084524Y0067535D02*
X0084600Y0067535D01*
X0084600Y0066537D02*
X0071649Y0066537D01*
X0069500Y0069602D02*
X0067000Y0072102D01*
X0031500Y0072102D01*
X0030500Y0073102D01*
X0033500Y0075602D02*
X0033500Y0076102D01*
X0033500Y0075602D02*
X0039500Y0075602D01*
X0039500Y0076102D01*
X0043500Y0080102D01*
X0057500Y0080102D01*
X0065951Y0068534D02*
X0032351Y0068534D01*
X0033782Y0067535D02*
X0066365Y0067535D01*
X0067351Y0066537D02*
X0034397Y0066537D01*
X0034687Y0065538D02*
X0084600Y0065538D01*
X0084600Y0064539D02*
X0034687Y0064539D01*
X0034345Y0063541D02*
X0084600Y0063541D01*
X0084600Y0062542D02*
X0033655Y0062542D01*
X0032046Y0061544D02*
X0084600Y0061544D01*
X0084600Y0060545D02*
X0030100Y0060545D01*
X0030100Y0059547D02*
X0084600Y0059547D01*
X0083732Y0058548D02*
X0030100Y0058548D01*
X0030100Y0057550D02*
X0083109Y0057550D01*
X0082813Y0056551D02*
X0030100Y0056551D01*
X0030100Y0055553D02*
X0082813Y0055553D01*
X0083150Y0054554D02*
X0030100Y0054554D01*
X0030100Y0053556D02*
X0083831Y0053556D01*
X0084400Y0052557D02*
X0029814Y0052557D01*
X0030100Y0051559D02*
X0084400Y0051559D01*
X0084400Y0050560D02*
X0065719Y0050560D01*
X0065473Y0050806D02*
X0064517Y0051202D01*
X0059483Y0051202D01*
X0058527Y0050806D01*
X0057027Y0049306D01*
X0056476Y0048755D01*
X0056411Y0048728D01*
X0055374Y0047691D01*
X0054813Y0046335D01*
X0054813Y0044869D01*
X0055374Y0043513D01*
X0056411Y0042476D01*
X0057767Y0041915D01*
X0059233Y0041915D01*
X0060500Y0042439D01*
X0061767Y0041915D01*
X0062510Y0041915D01*
X0063027Y0041398D01*
X0063983Y0041002D01*
X0070423Y0041002D01*
X0071813Y0039612D01*
X0071813Y0038869D01*
X0072374Y0037513D01*
X0073411Y0036476D01*
X0074767Y0035915D01*
X0076233Y0035915D01*
X0077589Y0036476D01*
X0078626Y0037513D01*
X0079187Y0038869D01*
X0079187Y0040335D01*
X0078626Y0041691D01*
X0078402Y0041915D01*
X0078733Y0041915D01*
X0080089Y0042476D01*
X0081126Y0043513D01*
X0081687Y0044869D01*
X0081687Y0046335D01*
X0081126Y0047691D01*
X0080089Y0048728D01*
X0078733Y0049289D01*
X0077267Y0049289D01*
X0075911Y0048728D01*
X0075385Y0048202D01*
X0068077Y0048202D01*
X0066204Y0050075D01*
X0065473Y0050806D01*
X0066204Y0050075D02*
X0066204Y0050075D01*
X0066717Y0049562D02*
X0084400Y0049562D01*
X0084400Y0048563D02*
X0080253Y0048563D01*
X0081178Y0047565D02*
X0084400Y0047565D01*
X0084400Y0046566D02*
X0081592Y0046566D01*
X0081687Y0045568D02*
X0084400Y0045568D01*
X0084400Y0044569D02*
X0081563Y0044569D01*
X0081150Y0043571D02*
X0084400Y0043571D01*
X0084400Y0042572D02*
X0080185Y0042572D01*
X0078674Y0041574D02*
X0084400Y0041574D01*
X0083758Y0040575D02*
X0079088Y0040575D01*
X0079187Y0039577D02*
X0083120Y0039577D01*
X0082813Y0038578D02*
X0079067Y0038578D01*
X0078654Y0037580D02*
X0082813Y0037580D01*
X0083139Y0036581D02*
X0077694Y0036581D01*
X0079411Y0035228D02*
X0078885Y0034702D01*
X0063115Y0034702D01*
X0062589Y0035228D01*
X0061233Y0035789D01*
X0059767Y0035789D01*
X0058411Y0035228D01*
X0057374Y0034191D01*
X0056813Y0032835D01*
X0056813Y0031369D01*
X0057374Y0030013D01*
X0058411Y0028976D01*
X0059767Y0028415D01*
X0061233Y0028415D01*
X0062589Y0028976D01*
X0063115Y0029502D01*
X0078885Y0029502D01*
X0079411Y0028976D01*
X0080767Y0028415D01*
X0082233Y0028415D01*
X0083589Y0028976D01*
X0084626Y0030013D01*
X0085187Y0031369D01*
X0085187Y0032835D01*
X0084626Y0034191D01*
X0083589Y0035228D01*
X0082233Y0035789D01*
X0080767Y0035789D01*
X0079411Y0035228D01*
X0080267Y0035583D02*
X0061733Y0035583D01*
X0059267Y0035583D02*
X0030100Y0035583D01*
X0030100Y0036581D02*
X0073306Y0036581D01*
X0072346Y0037580D02*
X0030100Y0037580D01*
X0030100Y0038578D02*
X0071933Y0038578D01*
X0071813Y0039577D02*
X0030100Y0039577D01*
X0030100Y0040575D02*
X0070850Y0040575D01*
X0071500Y0043602D02*
X0075500Y0039602D01*
X0071500Y0043602D02*
X0064500Y0043602D01*
X0062500Y0045602D01*
X0064000Y0048602D02*
X0060000Y0048602D01*
X0058500Y0047102D01*
X0058500Y0045602D01*
X0056247Y0048563D02*
X0030100Y0048563D01*
X0030100Y0047565D02*
X0055322Y0047565D01*
X0054908Y0046566D02*
X0030100Y0046566D01*
X0030100Y0045568D02*
X0054813Y0045568D01*
X0054937Y0044569D02*
X0030100Y0044569D01*
X0030100Y0043571D02*
X0055350Y0043571D01*
X0056315Y0042572D02*
X0029800Y0042572D01*
X0030100Y0041574D02*
X0062851Y0041574D01*
X0067000Y0045602D02*
X0064000Y0048602D01*
X0067000Y0045602D02*
X0078000Y0045602D01*
X0075747Y0048563D02*
X0067716Y0048563D01*
X0058281Y0050560D02*
X0030100Y0050560D01*
X0030100Y0049562D02*
X0057283Y0049562D01*
X0057767Y0034584D02*
X0030100Y0034584D01*
X0030100Y0033586D02*
X0057123Y0033586D01*
X0056813Y0032587D02*
X0029785Y0032587D01*
X0030100Y0031589D02*
X0056813Y0031589D01*
X0057135Y0030590D02*
X0030100Y0030590D01*
X0032725Y0029592D02*
X0057796Y0029592D01*
X0059336Y0028593D02*
X0033666Y0028593D01*
X0034080Y0027595D02*
X0088000Y0027595D01*
X0088000Y0028593D02*
X0082664Y0028593D01*
X0084204Y0029592D02*
X0088000Y0029592D01*
X0088000Y0030590D02*
X0084865Y0030590D01*
X0085187Y0031589D02*
X0088000Y0031589D01*
X0088000Y0032587D02*
X0085187Y0032587D01*
X0084877Y0033586D02*
X0088000Y0033586D01*
X0088000Y0034584D02*
X0087643Y0034584D01*
X0085357Y0034584D02*
X0084233Y0034584D01*
X0083805Y0035583D02*
X0082733Y0035583D01*
X0081500Y0032102D02*
X0060500Y0032102D01*
X0061664Y0028593D02*
X0080336Y0028593D01*
X0088000Y0026596D02*
X0034187Y0026596D01*
X0034075Y0025598D02*
X0088000Y0025598D01*
X0086500Y0038102D02*
X0087000Y0038602D01*
X0087000Y0056102D01*
X0086500Y0056102D01*
X0087677Y0073526D02*
X0088000Y0073526D01*
X0042526Y0082513D02*
X0033804Y0082513D01*
X0034406Y0081514D02*
X0041235Y0081514D01*
X0040237Y0080516D02*
X0034687Y0080516D01*
X0034891Y0079517D02*
X0039238Y0079517D01*
X0037202Y0078519D02*
X0036298Y0078519D01*
X0031000Y0080102D02*
X0023000Y0080102D01*
X0022902Y0080100D01*
X0022804Y0080094D01*
X0022706Y0080085D01*
X0022609Y0080071D01*
X0022512Y0080054D01*
X0022416Y0080033D01*
X0022321Y0080008D01*
X0022227Y0079980D01*
X0022135Y0079947D01*
X0022043Y0079912D01*
X0021953Y0079872D01*
X0021865Y0079830D01*
X0021778Y0079783D01*
X0021694Y0079734D01*
X0021611Y0079681D01*
X0021531Y0079625D01*
X0021452Y0079565D01*
X0021376Y0079503D01*
X0021303Y0079438D01*
X0021232Y0079370D01*
X0021164Y0079299D01*
X0021099Y0079226D01*
X0021037Y0079150D01*
X0020977Y0079071D01*
X0020921Y0078991D01*
X0020868Y0078908D01*
X0020819Y0078824D01*
X0020772Y0078737D01*
X0020730Y0078649D01*
X0020690Y0078559D01*
X0020655Y0078467D01*
X0020622Y0078375D01*
X0020594Y0078281D01*
X0020569Y0078186D01*
X0020548Y0078090D01*
X0020531Y0077993D01*
X0020517Y0077896D01*
X0020508Y0077798D01*
X0020502Y0077700D01*
X0020500Y0077602D01*
X0025000Y0075602D01*
X0020500Y0067602D02*
X0023000Y0065102D01*
X0031000Y0065102D01*
X0025500Y0027602D02*
X0020500Y0027602D01*
X0025500Y0027602D02*
X0027000Y0026102D01*
X0027500Y0026602D01*
X0030500Y0026602D01*
D12*
X0030500Y0026602D03*
X0035500Y0032602D03*
X0047000Y0048102D03*
X0055000Y0048102D03*
X0058500Y0045602D03*
X0062500Y0045602D03*
X0061000Y0055102D03*
X0061000Y0060102D03*
X0055000Y0064602D03*
X0054500Y0068102D03*
X0051000Y0075602D03*
X0057500Y0080102D03*
X0060000Y0085602D03*
X0060000Y0088602D03*
X0064500Y0080602D03*
X0069000Y0074602D03*
X0069500Y0069602D03*
X0069000Y0060102D03*
X0069000Y0055102D03*
X0077000Y0055102D03*
X0077000Y0060102D03*
X0083500Y0065102D03*
X0083500Y0071102D03*
X0080500Y0080602D03*
X0086500Y0088602D03*
X0072000Y0088602D03*
X0072000Y0081102D03*
X0086500Y0056102D03*
X0083000Y0050602D03*
X0078000Y0045602D03*
X0075500Y0039602D03*
X0071500Y0036602D03*
X0081500Y0032102D03*
X0086500Y0038102D03*
X0060500Y0032102D03*
X0039000Y0050102D03*
X0041000Y0059102D03*
X0041000Y0068102D03*
X0039500Y0075602D03*
X0033500Y0076102D03*
X0030500Y0073102D03*
X0031000Y0080102D03*
X0031000Y0065102D03*
D13*
X0030500Y0087602D02*
X0020500Y0087602D01*
D14*
X0083500Y0071102D02*
X0086000Y0071102D01*
X0087500Y0069602D01*
X0087500Y0057102D01*
X0086500Y0056102D01*
D15*
X0069000Y0074602D02*
X0068000Y0075602D01*
X0051000Y0075602D01*
M02*
