%
M48
M72
T01C0.01575
%
T01
X30500Y26602
X35500Y32602
X47000Y48102
X55000Y48102
X58500Y45602
X62500Y45602
X61000Y55102
X61000Y60102
X55000Y64602
X54500Y68102
X51000Y75602
X57500Y80102
X60000Y85602
X60000Y88602
X64500Y80602
X69000Y74602
X69500Y69602
X69000Y60102
X69000Y55102
X77000Y55102
X77000Y60102
X83500Y65102
X83500Y71102
X80500Y80602
X86500Y88602
X72000Y88602
X72000Y81102
X86500Y56102
X83000Y50602
X78000Y45602
X75500Y39602
X71500Y36602
X81500Y32102
X86500Y38102
X60500Y32102
X39000Y50102
X41000Y59102
X41000Y68102
X39500Y75602
X33500Y76102
X30500Y73102
X31000Y80102
X31000Y65102
M30
