G75*
%MOIN*%
%OFA0B0*%
%FSLAX25Y25*%
%IPPOS*%
%LPD*%
%AMOC8*
5,1,8,0,0,1.08239X$1,22.5*
%
%ADD10C,0.00600*%
%ADD11C,0.00200*%
%ADD12C,0.00500*%
D10*
X0037800Y0026469D02*
X0038367Y0025902D01*
X0038934Y0026469D01*
X0039501Y0025902D01*
X0040069Y0026469D01*
X0040069Y0028171D01*
X0041483Y0028171D02*
X0041483Y0026469D01*
X0042050Y0025902D01*
X0042617Y0026469D01*
X0043185Y0025902D01*
X0043752Y0026469D01*
X0043752Y0028171D01*
X0045166Y0028171D02*
X0045166Y0026469D01*
X0045733Y0025902D01*
X0046301Y0026469D01*
X0046868Y0025902D01*
X0047435Y0026469D01*
X0047435Y0028171D01*
X0048849Y0026469D02*
X0049417Y0026469D01*
X0049417Y0025902D01*
X0048849Y0025902D01*
X0048849Y0026469D01*
X0050691Y0025902D02*
X0050691Y0028171D01*
X0051258Y0028171D01*
X0051825Y0027603D01*
X0052392Y0028171D01*
X0052960Y0027603D01*
X0052960Y0025902D01*
X0051825Y0025902D02*
X0051825Y0027603D01*
X0054374Y0028171D02*
X0054941Y0028171D01*
X0054941Y0025902D01*
X0054374Y0025902D02*
X0055508Y0025902D01*
X0056830Y0026469D02*
X0056830Y0027603D01*
X0057397Y0028171D01*
X0059098Y0028171D01*
X0060513Y0028171D02*
X0060513Y0025902D01*
X0060513Y0027036D02*
X0061647Y0028171D01*
X0062214Y0028171D01*
X0063582Y0027603D02*
X0063582Y0026469D01*
X0064149Y0025902D01*
X0065283Y0025902D01*
X0065851Y0026469D01*
X0065851Y0027603D01*
X0065283Y0028171D01*
X0064149Y0028171D01*
X0063582Y0027603D01*
X0067265Y0027603D02*
X0067832Y0028171D01*
X0068967Y0028171D01*
X0069534Y0027603D01*
X0069534Y0025902D01*
X0070948Y0026469D02*
X0071515Y0027036D01*
X0073217Y0027036D01*
X0073217Y0027603D02*
X0073217Y0025902D01*
X0071515Y0025902D01*
X0070948Y0026469D01*
X0071515Y0028171D02*
X0072650Y0028171D01*
X0073217Y0027603D01*
X0074631Y0025902D02*
X0075766Y0025902D01*
X0075199Y0025902D02*
X0075199Y0029305D01*
X0074631Y0029305D01*
X0077087Y0026469D02*
X0077654Y0026469D01*
X0077654Y0025902D01*
X0077087Y0025902D01*
X0077087Y0026469D01*
X0078928Y0026469D02*
X0078928Y0027603D01*
X0079496Y0028171D01*
X0080630Y0028171D01*
X0081197Y0027603D01*
X0081197Y0026469D01*
X0080630Y0025902D01*
X0079496Y0025902D01*
X0078928Y0026469D01*
X0082612Y0025902D02*
X0082612Y0028171D01*
X0083746Y0028171D02*
X0082612Y0027036D01*
X0083746Y0028171D02*
X0084313Y0028171D01*
X0085681Y0027603D02*
X0085681Y0026469D01*
X0086248Y0025902D01*
X0087949Y0025902D01*
X0087949Y0025335D02*
X0087382Y0024768D01*
X0086815Y0024768D01*
X0087949Y0025335D02*
X0087949Y0028171D01*
X0086248Y0028171D01*
X0085681Y0027603D01*
X0067265Y0029305D02*
X0067265Y0025902D01*
X0059098Y0025902D02*
X0057397Y0025902D01*
X0056830Y0026469D01*
X0054941Y0029305D02*
X0054941Y0029872D01*
X0037800Y0028171D02*
X0037800Y0026469D01*
X0058300Y0083402D02*
X0060569Y0083402D01*
X0061983Y0083969D02*
X0062550Y0083402D01*
X0063685Y0083402D01*
X0064252Y0083969D01*
X0064252Y0084536D01*
X0063685Y0085103D01*
X0062550Y0085103D01*
X0061983Y0085671D01*
X0061983Y0086238D01*
X0062550Y0086805D01*
X0063685Y0086805D01*
X0064252Y0086238D01*
X0065666Y0086805D02*
X0066801Y0085671D01*
X0067935Y0086805D01*
X0067935Y0083402D01*
X0069349Y0083969D02*
X0069917Y0083402D01*
X0071051Y0083402D01*
X0071618Y0083969D01*
X0071618Y0084536D01*
X0071051Y0085103D01*
X0070484Y0085103D01*
X0071051Y0085103D02*
X0071618Y0085671D01*
X0071618Y0086238D01*
X0071051Y0086805D01*
X0069917Y0086805D01*
X0069349Y0086238D01*
X0073033Y0086238D02*
X0073600Y0086805D01*
X0074734Y0086805D01*
X0075301Y0086238D01*
X0075301Y0085671D01*
X0074734Y0085103D01*
X0075301Y0084536D01*
X0075301Y0083969D01*
X0074734Y0083402D01*
X0073600Y0083402D01*
X0073033Y0083969D01*
X0074167Y0085103D02*
X0074734Y0085103D01*
X0076716Y0083969D02*
X0078984Y0086238D01*
X0078984Y0083969D01*
X0078417Y0083402D01*
X0077283Y0083402D01*
X0076716Y0083969D01*
X0076716Y0086238D01*
X0077283Y0086805D01*
X0078417Y0086805D01*
X0078984Y0086238D01*
X0080399Y0086805D02*
X0082100Y0086805D01*
X0082667Y0086238D01*
X0082667Y0083969D01*
X0082100Y0083402D01*
X0080399Y0083402D01*
X0080399Y0086805D01*
X0084082Y0086805D02*
X0084082Y0083402D01*
X0086351Y0083402D01*
X0065666Y0083402D02*
X0065666Y0086805D01*
X0058300Y0086805D02*
X0058300Y0083402D01*
D11*
X0054778Y0080303D02*
X0053310Y0080303D01*
X0054411Y0081404D01*
X0054411Y0079202D01*
X0052568Y0079202D02*
X0051834Y0079936D01*
X0052201Y0079936D02*
X0051100Y0079936D01*
X0051100Y0079202D02*
X0051100Y0081404D01*
X0052201Y0081404D01*
X0052568Y0081037D01*
X0052568Y0080303D01*
X0052201Y0079936D01*
X0052600Y0076904D02*
X0053701Y0076904D01*
X0054068Y0076537D01*
X0054068Y0075803D01*
X0053701Y0075436D01*
X0052600Y0075436D01*
X0053334Y0075436D02*
X0054068Y0074702D01*
X0054810Y0075069D02*
X0055177Y0074702D01*
X0055911Y0074702D01*
X0056278Y0075069D01*
X0056278Y0075803D01*
X0055911Y0076170D01*
X0055544Y0076170D01*
X0054810Y0075803D01*
X0054810Y0076904D01*
X0056278Y0076904D01*
X0058025Y0075044D02*
X0058392Y0075411D01*
X0058759Y0075411D01*
X0059126Y0075044D01*
X0059493Y0075411D01*
X0059860Y0075411D01*
X0060227Y0075044D01*
X0060227Y0074310D01*
X0059860Y0073943D01*
X0059860Y0073201D02*
X0060227Y0072834D01*
X0060227Y0072100D01*
X0059860Y0071734D01*
X0058392Y0071734D01*
X0058025Y0072100D01*
X0058025Y0072834D01*
X0058392Y0073201D01*
X0058392Y0073943D02*
X0058025Y0074310D01*
X0058025Y0075044D01*
X0059126Y0075044D02*
X0059126Y0074677D01*
X0052600Y0074702D02*
X0052600Y0076904D01*
X0048860Y0073411D02*
X0049227Y0073044D01*
X0049227Y0072310D01*
X0048860Y0071943D01*
X0048126Y0071943D02*
X0047759Y0072677D01*
X0047759Y0073044D01*
X0048126Y0073411D01*
X0048860Y0073411D01*
X0047025Y0073411D02*
X0047025Y0071943D01*
X0048126Y0071943D01*
X0048860Y0071201D02*
X0049227Y0070834D01*
X0049227Y0070100D01*
X0048860Y0069734D01*
X0047392Y0069734D01*
X0047025Y0070100D01*
X0047025Y0070834D01*
X0047392Y0071201D01*
X0042900Y0071170D02*
X0042166Y0070436D01*
X0042166Y0070803D02*
X0042166Y0069702D01*
X0042900Y0069702D02*
X0040698Y0069702D01*
X0040698Y0070803D01*
X0041065Y0071170D01*
X0041799Y0071170D01*
X0042166Y0070803D01*
X0041432Y0071912D02*
X0040698Y0072646D01*
X0042900Y0072646D01*
X0042900Y0071912D02*
X0042900Y0073380D01*
X0046016Y0056331D02*
X0045649Y0055964D01*
X0045649Y0054496D01*
X0046016Y0054129D01*
X0046750Y0054129D01*
X0047117Y0054496D01*
X0047859Y0054496D02*
X0048226Y0054129D01*
X0048960Y0054129D01*
X0049327Y0054496D01*
X0049327Y0054863D01*
X0048960Y0055230D01*
X0047859Y0055230D01*
X0047859Y0054496D01*
X0047859Y0055230D02*
X0048593Y0055964D01*
X0049327Y0056331D01*
X0047117Y0055964D02*
X0046750Y0056331D01*
X0046016Y0056331D01*
X0047271Y0052195D02*
X0049473Y0052195D01*
X0049473Y0051461D02*
X0049473Y0052929D01*
X0048005Y0051461D02*
X0047271Y0052195D01*
X0047638Y0050719D02*
X0047271Y0050352D01*
X0047271Y0049618D01*
X0047638Y0049251D01*
X0049106Y0049251D01*
X0049473Y0049618D01*
X0049473Y0050352D01*
X0049106Y0050719D01*
X0051698Y0051042D02*
X0052065Y0050675D01*
X0053533Y0050675D01*
X0053900Y0051042D01*
X0053900Y0051776D01*
X0053533Y0052143D01*
X0053900Y0052885D02*
X0053900Y0054353D01*
X0053900Y0053619D02*
X0051698Y0053619D01*
X0052432Y0052885D01*
X0052065Y0052143D02*
X0051698Y0051776D01*
X0051698Y0051042D01*
X0051698Y0049936D02*
X0051698Y0049202D01*
X0051698Y0049569D02*
X0053900Y0049569D01*
X0053900Y0049202D02*
X0053900Y0049936D01*
X0054121Y0038097D02*
X0053020Y0038097D01*
X0053020Y0035895D01*
X0053020Y0036629D02*
X0054121Y0036629D01*
X0054488Y0036996D01*
X0054488Y0037730D01*
X0054121Y0038097D01*
X0055230Y0037363D02*
X0055964Y0038097D01*
X0055964Y0035895D01*
X0055230Y0035895D02*
X0056698Y0035895D01*
X0061100Y0036262D02*
X0061467Y0035895D01*
X0061834Y0035895D01*
X0062201Y0036262D01*
X0062201Y0038097D01*
X0061834Y0038097D02*
X0062568Y0038097D01*
X0063310Y0038097D02*
X0064044Y0037363D01*
X0064778Y0038097D01*
X0064778Y0035895D01*
X0065520Y0035895D02*
X0065520Y0038097D01*
X0066621Y0038097D01*
X0066988Y0037730D01*
X0066988Y0036996D01*
X0066621Y0036629D01*
X0065520Y0036629D01*
X0063310Y0035895D02*
X0063310Y0038097D01*
X0067730Y0037730D02*
X0068097Y0038097D01*
X0068831Y0038097D01*
X0069198Y0037730D01*
X0069198Y0037363D01*
X0067730Y0035895D01*
X0069198Y0035895D01*
X0078698Y0038202D02*
X0078698Y0039303D01*
X0079065Y0039670D01*
X0079799Y0039670D01*
X0080166Y0039303D01*
X0080166Y0038202D01*
X0080166Y0038936D02*
X0080900Y0039670D01*
X0080900Y0040412D02*
X0079432Y0041880D01*
X0079065Y0041880D01*
X0078698Y0041513D01*
X0078698Y0040779D01*
X0079065Y0040412D01*
X0080900Y0040412D02*
X0080900Y0041880D01*
X0080900Y0038202D02*
X0078698Y0038202D01*
X0085771Y0041618D02*
X0086138Y0041251D01*
X0087606Y0041251D01*
X0087973Y0041618D01*
X0087973Y0042352D01*
X0087606Y0042719D01*
X0087973Y0043461D02*
X0086505Y0044929D01*
X0086138Y0044929D01*
X0085771Y0044562D01*
X0085771Y0043828D01*
X0086138Y0043461D01*
X0086138Y0042719D02*
X0085771Y0042352D01*
X0085771Y0041618D01*
X0087973Y0043461D02*
X0087973Y0044929D01*
X0084360Y0079234D02*
X0082892Y0079234D01*
X0082525Y0079600D01*
X0082525Y0080334D01*
X0082892Y0080701D01*
X0083626Y0081443D02*
X0083626Y0082911D01*
X0084727Y0082544D02*
X0082525Y0082544D01*
X0083626Y0081443D01*
X0084360Y0080701D02*
X0084727Y0080334D01*
X0084727Y0079600D01*
X0084360Y0079234D01*
X0076300Y0078782D02*
X0074098Y0078782D01*
X0074098Y0079883D01*
X0074465Y0080250D01*
X0075199Y0080250D01*
X0075566Y0079883D01*
X0075566Y0078782D01*
X0075566Y0079516D02*
X0076300Y0080250D01*
X0075933Y0080992D02*
X0076300Y0081359D01*
X0076300Y0082093D01*
X0075933Y0082460D01*
X0075566Y0082460D01*
X0075199Y0082093D01*
X0075199Y0081726D01*
X0075199Y0082093D02*
X0074832Y0082460D01*
X0074465Y0082460D01*
X0074098Y0082093D01*
X0074098Y0081359D01*
X0074465Y0080992D01*
X0065841Y0089982D02*
X0064373Y0088514D01*
X0064373Y0088147D01*
X0063631Y0088514D02*
X0063264Y0088147D01*
X0062530Y0088147D01*
X0062163Y0088514D01*
X0062163Y0089982D01*
X0062530Y0090349D01*
X0063264Y0090349D01*
X0063631Y0089982D01*
X0064373Y0090349D02*
X0065841Y0090349D01*
X0065841Y0089982D01*
X0052278Y0038097D02*
X0051544Y0037363D01*
X0050810Y0038097D01*
X0050810Y0035895D01*
X0052278Y0035895D02*
X0052278Y0038097D01*
X0050068Y0038097D02*
X0049334Y0038097D01*
X0049701Y0038097D02*
X0049701Y0036262D01*
X0049334Y0035895D01*
X0048967Y0035895D01*
X0048600Y0036262D01*
D12*
X0031751Y0035352D02*
X0030250Y0035352D01*
X0031001Y0035352D02*
X0031001Y0039856D01*
X0031751Y0039856D02*
X0030250Y0039856D01*
X0033319Y0039105D02*
X0033319Y0036103D01*
X0034070Y0035352D01*
X0035571Y0035352D01*
X0036322Y0036103D01*
X0036322Y0039105D01*
X0035571Y0039856D01*
X0034070Y0039856D01*
X0033319Y0039105D01*
X0037923Y0039105D02*
X0038674Y0039856D01*
X0040175Y0039856D01*
X0040926Y0039105D01*
X0040926Y0038355D01*
X0040175Y0037604D01*
X0040926Y0036853D01*
X0040926Y0036103D01*
X0040175Y0035352D01*
X0038674Y0035352D01*
X0037923Y0036103D01*
X0039424Y0037604D02*
X0040175Y0037604D01*
X0037106Y0045352D02*
X0035605Y0045352D01*
X0034854Y0046103D01*
X0033253Y0046103D02*
X0032502Y0045352D01*
X0031001Y0045352D01*
X0030250Y0046103D01*
X0031001Y0047604D02*
X0032502Y0047604D01*
X0033253Y0046853D01*
X0033253Y0046103D01*
X0034854Y0048355D02*
X0035605Y0047604D01*
X0037106Y0047604D01*
X0037856Y0046853D01*
X0037856Y0046103D01*
X0037106Y0045352D01*
X0034854Y0048355D02*
X0034854Y0049105D01*
X0035605Y0049856D01*
X0037106Y0049856D01*
X0037856Y0049105D01*
X0033253Y0049105D02*
X0032502Y0049856D01*
X0031001Y0049856D01*
X0030250Y0049105D01*
X0030250Y0048355D01*
X0031001Y0047604D01*
X0031001Y0055352D02*
X0031001Y0059856D01*
X0031751Y0059856D02*
X0030250Y0059856D01*
X0033319Y0059105D02*
X0033319Y0056103D01*
X0034070Y0055352D01*
X0035571Y0055352D01*
X0036322Y0056103D01*
X0036322Y0059105D01*
X0035571Y0059856D01*
X0034070Y0059856D01*
X0033319Y0059105D01*
X0031751Y0055352D02*
X0030250Y0055352D01*
X0037923Y0055352D02*
X0040926Y0058355D01*
X0040926Y0059105D01*
X0040175Y0059856D01*
X0038674Y0059856D01*
X0037923Y0059105D01*
X0037923Y0055352D02*
X0040926Y0055352D01*
X0040926Y0065352D02*
X0037923Y0065352D01*
X0039424Y0065352D02*
X0039424Y0069856D01*
X0037923Y0068355D01*
X0036322Y0069105D02*
X0036322Y0066103D01*
X0035571Y0065352D01*
X0034070Y0065352D01*
X0033319Y0066103D01*
X0033319Y0069105D01*
X0034070Y0069856D01*
X0035571Y0069856D01*
X0036322Y0069105D01*
X0031751Y0069856D02*
X0030250Y0069856D01*
X0031001Y0069856D02*
X0031001Y0065352D01*
X0031751Y0065352D02*
X0030250Y0065352D01*
X0031001Y0075352D02*
X0030250Y0076103D01*
X0031001Y0075352D02*
X0032502Y0075352D01*
X0033253Y0076103D01*
X0033253Y0077604D01*
X0032502Y0078355D01*
X0031751Y0078355D01*
X0030250Y0077604D01*
X0030250Y0079856D01*
X0033253Y0079856D01*
X0034854Y0079856D02*
X0034854Y0076853D01*
X0036355Y0075352D01*
X0037856Y0076853D01*
X0037856Y0079856D01*
X0037907Y0085352D02*
X0037156Y0086103D01*
X0037907Y0085352D02*
X0039408Y0085352D01*
X0040158Y0086103D01*
X0040158Y0086853D01*
X0039408Y0087604D01*
X0038657Y0087604D01*
X0039408Y0087604D02*
X0040158Y0088355D01*
X0040158Y0089105D01*
X0039408Y0089856D01*
X0037907Y0089856D01*
X0037156Y0089105D01*
X0035605Y0086103D02*
X0035605Y0085352D01*
X0034854Y0085352D01*
X0034854Y0086103D01*
X0035605Y0086103D01*
X0033253Y0086103D02*
X0032502Y0085352D01*
X0031001Y0085352D01*
X0030250Y0086103D01*
X0031751Y0087604D02*
X0032502Y0087604D01*
X0033253Y0086853D01*
X0033253Y0086103D01*
X0032502Y0087604D02*
X0033253Y0088355D01*
X0033253Y0089105D01*
X0032502Y0089856D01*
X0031001Y0089856D01*
X0030250Y0089105D01*
X0041760Y0089856D02*
X0041760Y0086853D01*
X0043261Y0085352D01*
X0044762Y0086853D01*
X0044762Y0089856D01*
X0054531Y0065980D02*
X0054531Y0062602D01*
X0054531Y0065968D02*
X0056500Y0065968D01*
X0054531Y0052602D02*
X0054531Y0049236D01*
X0056500Y0049236D01*
X0055614Y0050515D02*
X0055616Y0050554D01*
X0055622Y0050593D01*
X0055632Y0050631D01*
X0055645Y0050668D01*
X0055662Y0050703D01*
X0055682Y0050737D01*
X0055706Y0050768D01*
X0055733Y0050797D01*
X0055762Y0050823D01*
X0055794Y0050846D01*
X0055828Y0050866D01*
X0055864Y0050882D01*
X0055901Y0050894D01*
X0055940Y0050903D01*
X0055979Y0050908D01*
X0056018Y0050909D01*
X0056057Y0050906D01*
X0056096Y0050899D01*
X0056133Y0050888D01*
X0056170Y0050874D01*
X0056205Y0050856D01*
X0056238Y0050835D01*
X0056269Y0050810D01*
X0056297Y0050783D01*
X0056322Y0050753D01*
X0056344Y0050720D01*
X0056363Y0050686D01*
X0056378Y0050650D01*
X0056390Y0050612D01*
X0056398Y0050574D01*
X0056402Y0050535D01*
X0056402Y0050495D01*
X0056398Y0050456D01*
X0056390Y0050418D01*
X0056378Y0050380D01*
X0056363Y0050344D01*
X0056344Y0050310D01*
X0056322Y0050277D01*
X0056297Y0050247D01*
X0056269Y0050220D01*
X0056238Y0050195D01*
X0056205Y0050174D01*
X0056170Y0050156D01*
X0056133Y0050142D01*
X0056096Y0050131D01*
X0056057Y0050124D01*
X0056018Y0050121D01*
X0055979Y0050122D01*
X0055940Y0050127D01*
X0055901Y0050136D01*
X0055864Y0050148D01*
X0055828Y0050164D01*
X0055794Y0050184D01*
X0055762Y0050207D01*
X0055733Y0050233D01*
X0055706Y0050262D01*
X0055682Y0050293D01*
X0055662Y0050327D01*
X0055645Y0050362D01*
X0055632Y0050399D01*
X0055622Y0050437D01*
X0055616Y0050476D01*
X0055614Y0050515D01*
X0081500Y0049236D02*
X0083469Y0049236D01*
X0083469Y0052602D01*
X0083469Y0062602D02*
X0083469Y0065968D01*
X0081500Y0065968D01*
M02*
