G75*
%MOIN*%
%OFA0B0*%
%FSLAX25Y25*%
%IPPOS*%
%LPD*%
%AMOC8*
5,1,8,0,0,1.08239X$1,22.5*
%
%ADD10C,0.00500*%
D10*
X0031351Y0027604D02*
X0034354Y0027604D01*
X0032102Y0029856D01*
X0032102Y0025352D01*
X0035955Y0026103D02*
X0035955Y0029105D01*
X0036706Y0029856D01*
X0038207Y0029856D01*
X0038958Y0029105D01*
X0038958Y0026103D01*
X0038207Y0025352D01*
X0036706Y0025352D01*
X0035955Y0026103D01*
X0040526Y0025352D02*
X0042027Y0025352D01*
X0041277Y0025352D02*
X0041277Y0029856D01*
X0042027Y0029856D02*
X0040526Y0029856D01*
X0041310Y0035352D02*
X0042811Y0035352D01*
X0043562Y0036103D01*
X0042811Y0037604D02*
X0041310Y0037604D01*
X0040559Y0036853D01*
X0040559Y0036103D01*
X0041310Y0035352D01*
X0038958Y0036103D02*
X0038207Y0035352D01*
X0036706Y0035352D01*
X0035955Y0036103D01*
X0034354Y0036853D02*
X0031351Y0039856D01*
X0033603Y0037604D02*
X0031351Y0035352D01*
X0034354Y0035352D02*
X0034354Y0039856D01*
X0035955Y0039105D02*
X0036706Y0039856D01*
X0038207Y0039856D01*
X0038958Y0039105D01*
X0038958Y0036103D01*
X0040559Y0039105D02*
X0041310Y0039856D01*
X0042811Y0039856D01*
X0043562Y0039105D01*
X0043562Y0038355D01*
X0042811Y0037604D01*
X0043629Y0045352D02*
X0043629Y0049856D01*
X0045130Y0048355D01*
X0046631Y0049856D01*
X0046631Y0045352D01*
X0042027Y0046103D02*
X0041277Y0045352D01*
X0039775Y0045352D01*
X0039025Y0046103D01*
X0039025Y0049105D01*
X0039775Y0049856D01*
X0041277Y0049856D01*
X0042027Y0049105D01*
X0042027Y0046103D01*
X0037423Y0046103D02*
X0036673Y0045352D01*
X0035171Y0045352D01*
X0034421Y0046103D01*
X0034421Y0046853D01*
X0035171Y0047604D01*
X0036673Y0047604D01*
X0037423Y0048355D01*
X0037423Y0049105D01*
X0036673Y0049856D01*
X0035171Y0049856D01*
X0034421Y0049105D01*
X0032819Y0049856D02*
X0031318Y0049856D01*
X0032069Y0049856D02*
X0032069Y0045352D01*
X0032819Y0045352D02*
X0031318Y0045352D01*
X0032102Y0055352D02*
X0031351Y0056103D01*
X0031351Y0059105D01*
X0032102Y0059856D01*
X0033603Y0059856D01*
X0034354Y0059105D01*
X0034354Y0056103D01*
X0033603Y0055352D01*
X0032102Y0055352D01*
X0035955Y0056103D02*
X0036706Y0055352D01*
X0038207Y0055352D01*
X0038958Y0056103D01*
X0038207Y0057604D02*
X0036706Y0057604D01*
X0035955Y0056853D01*
X0035955Y0056103D01*
X0038207Y0057604D02*
X0038958Y0058355D01*
X0038958Y0059105D01*
X0038207Y0059856D01*
X0036706Y0059856D01*
X0035955Y0059105D01*
X0040526Y0059856D02*
X0042027Y0059856D01*
X0041277Y0059856D02*
X0041277Y0055352D01*
X0042027Y0055352D02*
X0040526Y0055352D01*
X0043629Y0055352D02*
X0043629Y0059856D01*
X0045130Y0058355D01*
X0046631Y0059856D01*
X0046631Y0055352D01*
X0042811Y0065352D02*
X0041310Y0065352D01*
X0040559Y0066103D01*
X0040559Y0066853D01*
X0041310Y0067604D01*
X0042811Y0067604D01*
X0043562Y0068355D01*
X0043562Y0069105D01*
X0042811Y0069856D01*
X0041310Y0069856D01*
X0040559Y0069105D01*
X0038958Y0069105D02*
X0038958Y0066103D01*
X0038207Y0065352D01*
X0036706Y0065352D01*
X0035955Y0066103D01*
X0034354Y0065352D02*
X0031351Y0065352D01*
X0034354Y0065352D02*
X0034354Y0069856D01*
X0035955Y0069105D02*
X0036706Y0069856D01*
X0038207Y0069856D01*
X0038958Y0069105D01*
X0042811Y0065352D02*
X0043562Y0066103D01*
X0042811Y0075352D02*
X0041310Y0075352D01*
X0040559Y0076103D01*
X0040559Y0076853D01*
X0041310Y0077604D01*
X0042811Y0077604D01*
X0043562Y0078355D01*
X0043562Y0079105D01*
X0042811Y0079856D01*
X0041310Y0079856D01*
X0040559Y0079105D01*
X0038958Y0079856D02*
X0036706Y0079856D01*
X0035955Y0079105D01*
X0035955Y0076103D01*
X0036706Y0075352D01*
X0038958Y0075352D01*
X0038958Y0079856D01*
X0042811Y0075352D02*
X0043562Y0076103D01*
X0042811Y0085352D02*
X0041310Y0085352D01*
X0040559Y0086103D01*
X0040559Y0087604D01*
X0042061Y0087604D01*
X0043562Y0089105D02*
X0043562Y0086103D01*
X0042811Y0085352D01*
X0043562Y0089105D02*
X0042811Y0089856D01*
X0041310Y0089856D01*
X0040559Y0089105D01*
X0038958Y0089856D02*
X0035955Y0085352D01*
X0035955Y0089856D01*
X0034354Y0089856D02*
X0032102Y0089856D01*
X0031351Y0089105D01*
X0031351Y0086103D01*
X0032102Y0085352D01*
X0034354Y0085352D01*
X0034354Y0089856D01*
X0038958Y0089856D02*
X0038958Y0085352D01*
X0032853Y0079856D02*
X0034354Y0078355D01*
X0034354Y0075352D01*
X0034354Y0077604D02*
X0031351Y0077604D01*
X0031351Y0078355D02*
X0031351Y0075352D01*
X0031351Y0078355D02*
X0032853Y0079856D01*
M02*
