G75*
%MOIN*%
%OFA0B0*%
%FSLAX25Y25*%
%IPPOS*%
%LPD*%
%AMOC8*
5,1,8,0,0,1.08239X$1,22.5*
%
%ADD10R,0.02913X0.03642*%
%ADD11R,0.03642X0.02913*%
%ADD12R,0.05118X0.06299*%
%ADD13R,0.15000X0.07600*%
%ADD14R,0.01378X0.03543*%
%ADD15R,0.03543X0.01378*%
%ADD16C,0.03150*%
%ADD17C,0.01575*%
%ADD18R,0.03543X0.02756*%
%ADD19R,0.02756X0.03543*%
%ADD20C,0.01000*%
%ADD21C,0.03175*%
%ADD22C,0.01600*%
%ADD23C,0.01200*%
%ADD24C,0.02400*%
%ADD25C,0.05000*%
D10*
X0051500Y0048240D03*
X0051500Y0052964D03*
X0050500Y0063240D03*
X0050500Y0067964D03*
X0063000Y0071240D03*
X0063000Y0075964D03*
X0080500Y0075964D03*
X0080500Y0071240D03*
X0087000Y0052964D03*
X0087000Y0048240D03*
D11*
X0050362Y0058102D03*
X0045638Y0058102D03*
D12*
X0046563Y0087102D03*
X0054437Y0087102D03*
D13*
X0020500Y0087602D03*
X0020500Y0077602D03*
X0020500Y0067602D03*
X0020500Y0057602D03*
X0020500Y0047602D03*
X0020500Y0037602D03*
D14*
X0058370Y0050515D03*
X0060732Y0050515D03*
X0063094Y0050515D03*
X0065457Y0050515D03*
X0067819Y0050515D03*
X0070181Y0050515D03*
X0072543Y0050515D03*
X0074906Y0050515D03*
X0077268Y0050515D03*
X0079630Y0050515D03*
X0079630Y0064689D03*
X0077268Y0064689D03*
X0074906Y0064689D03*
X0072543Y0064689D03*
X0070181Y0064689D03*
X0067819Y0064689D03*
X0065457Y0064689D03*
X0063094Y0064689D03*
X0060732Y0064689D03*
X0058370Y0064689D03*
D15*
X0056008Y0061145D03*
X0056008Y0058783D03*
X0056008Y0056421D03*
X0056008Y0054059D03*
X0081992Y0054059D03*
X0081992Y0056421D03*
X0081992Y0058783D03*
X0081992Y0061145D03*
D16*
X0071586Y0032102D02*
X0070800Y0032102D01*
X0064200Y0032102D02*
X0063414Y0032102D01*
X0057086Y0032102D02*
X0056300Y0032102D01*
X0049700Y0032102D02*
X0048914Y0032102D01*
D17*
X0053788Y0033283D02*
X0053788Y0030921D01*
X0052212Y0030921D01*
X0052212Y0033283D01*
X0053788Y0033283D01*
X0053788Y0032495D02*
X0052212Y0032495D01*
X0066712Y0033283D02*
X0066712Y0030921D01*
X0066712Y0033283D02*
X0068288Y0033283D01*
X0068288Y0030921D01*
X0066712Y0030921D01*
X0066712Y0032495D02*
X0068288Y0032495D01*
D18*
X0083500Y0038043D03*
X0083500Y0043161D03*
X0074000Y0071043D03*
X0074000Y0076161D03*
X0045500Y0068161D03*
X0045500Y0063043D03*
D19*
X0047559Y0075602D03*
X0047559Y0080102D03*
X0042441Y0080102D03*
X0042441Y0075602D03*
D20*
X0039500Y0075602D01*
X0036500Y0071602D02*
X0036500Y0080102D01*
X0031000Y0080102D01*
X0033500Y0076102D02*
X0033500Y0071602D01*
X0031000Y0069102D01*
X0031000Y0065102D01*
X0031000Y0056602D01*
X0033500Y0054102D01*
X0033500Y0046102D01*
X0037000Y0042602D01*
X0064000Y0042602D01*
X0065457Y0044059D01*
X0065457Y0050515D01*
X0063094Y0050515D02*
X0063094Y0046197D01*
X0062500Y0045602D01*
X0058500Y0045602D02*
X0058500Y0050385D01*
X0058370Y0050515D01*
X0060732Y0050516D02*
X0060732Y0053787D01*
X0059846Y0053787D01*
X0059715Y0053752D01*
X0059680Y0053787D01*
X0059280Y0053787D01*
X0059280Y0055369D01*
X0059245Y0055404D01*
X0059280Y0055534D01*
X0059280Y0056421D01*
X0059280Y0057307D01*
X0059245Y0057438D01*
X0059280Y0057473D01*
X0059280Y0060093D01*
X0059245Y0060128D01*
X0059280Y0060259D01*
X0059280Y0061145D01*
X0056008Y0061145D01*
X0056008Y0061145D01*
X0059280Y0061145D01*
X0059280Y0061423D01*
X0059551Y0061496D01*
X0059846Y0061417D01*
X0060732Y0061417D01*
X0060732Y0064688D01*
X0060732Y0064688D01*
X0060732Y0064689D02*
X0058370Y0064689D01*
X0058370Y0067960D01*
X0057484Y0067960D01*
X0057102Y0067858D01*
X0056760Y0067661D01*
X0056481Y0067381D01*
X0056283Y0067039D01*
X0056181Y0066658D01*
X0056181Y0064689D01*
X0058370Y0064689D01*
X0058370Y0064689D01*
X0058370Y0067960D01*
X0059257Y0067960D01*
X0059551Y0067881D01*
X0059846Y0067960D01*
X0060732Y0067960D01*
X0060732Y0064689D01*
X0060732Y0064689D01*
X0060732Y0064689D01*
X0060559Y0064689D01*
X0058370Y0064689D01*
X0058370Y0064689D01*
X0058370Y0064689D01*
X0056181Y0064689D01*
X0056181Y0063334D01*
X0056008Y0063334D01*
X0056008Y0061145D01*
X0056008Y0061145D01*
X0056008Y0063334D01*
X0054039Y0063334D01*
X0053657Y0063232D01*
X0053457Y0063116D01*
X0053457Y0065682D01*
X0053401Y0065738D01*
X0053457Y0065946D01*
X0053457Y0067736D01*
X0050728Y0067736D01*
X0050728Y0068193D01*
X0050272Y0068193D01*
X0050272Y0071285D01*
X0048846Y0071285D01*
X0048464Y0071183D01*
X0048122Y0070985D01*
X0047992Y0070855D01*
X0047851Y0070937D01*
X0047643Y0070992D01*
X0047800Y0071149D01*
X0048981Y0072330D01*
X0049558Y0072330D01*
X0049931Y0072703D01*
X0050386Y0072515D01*
X0051614Y0072515D01*
X0052749Y0072985D01*
X0053617Y0073853D01*
X0054087Y0074988D01*
X0054087Y0076216D01*
X0053617Y0077351D01*
X0052749Y0078219D01*
X0051614Y0078689D01*
X0050437Y0078689D01*
X0050437Y0082495D01*
X0050259Y0082673D01*
X0050259Y0082968D01*
X0050548Y0083257D01*
X0050678Y0083031D01*
X0050957Y0082752D01*
X0051299Y0082555D01*
X0051680Y0082452D01*
X0053937Y0082452D01*
X0053937Y0086602D01*
X0054937Y0086602D01*
X0054937Y0082452D01*
X0055484Y0082452D01*
X0054883Y0081851D01*
X0054413Y0080716D01*
X0054413Y0079488D01*
X0054883Y0078353D01*
X0055751Y0077485D01*
X0056886Y0077015D01*
X0058114Y0077015D01*
X0059249Y0077485D01*
X0060117Y0078353D01*
X0060144Y0078418D01*
X0060221Y0078494D01*
X0060146Y0078364D01*
X0060043Y0077983D01*
X0060043Y0076193D01*
X0062772Y0076193D01*
X0062772Y0079285D01*
X0061346Y0079285D01*
X0060964Y0079183D01*
X0060834Y0079108D01*
X0061000Y0079274D01*
X0064328Y0082602D01*
X0081672Y0082602D01*
X0085500Y0078774D01*
X0085500Y0073468D01*
X0085249Y0073719D01*
X0084114Y0074189D01*
X0083457Y0074189D01*
X0083457Y0075736D01*
X0080728Y0075736D01*
X0080728Y0076193D01*
X0080272Y0076193D01*
X0080272Y0079285D01*
X0078846Y0079285D01*
X0078464Y0079183D01*
X0078122Y0078985D01*
X0077843Y0078706D01*
X0077646Y0078364D01*
X0077543Y0077983D01*
X0077543Y0076311D01*
X0077272Y0076583D01*
X0077272Y0078160D01*
X0076393Y0079039D01*
X0071607Y0079039D01*
X0071370Y0078802D01*
X0069963Y0078802D01*
X0068971Y0078391D01*
X0068186Y0077607D01*
X0067251Y0077219D01*
X0066383Y0076351D01*
X0065995Y0075416D01*
X0065957Y0075377D01*
X0065957Y0075736D01*
X0063228Y0075736D01*
X0063228Y0076193D01*
X0062772Y0076193D01*
X0062772Y0075736D01*
X0060043Y0075736D01*
X0060043Y0073946D01*
X0060099Y0073738D01*
X0060043Y0073682D01*
X0060043Y0068798D01*
X0060881Y0067960D01*
X0060732Y0067960D01*
X0060732Y0064689D01*
X0060732Y0064688D02*
X0060732Y0061417D01*
X0061619Y0061417D01*
X0061749Y0061452D01*
X0061784Y0061417D01*
X0066767Y0061417D01*
X0066802Y0061452D01*
X0066932Y0061417D01*
X0067819Y0061417D01*
X0068705Y0061417D01*
X0069000Y0061496D01*
X0069295Y0061417D01*
X0070181Y0061417D01*
X0070181Y0064688D01*
X0070181Y0064688D01*
X0070181Y0061417D01*
X0071068Y0061417D01*
X0071362Y0061496D01*
X0071657Y0061417D01*
X0072543Y0061417D01*
X0072543Y0064688D01*
X0072543Y0064688D01*
X0072543Y0064689D02*
X0070181Y0064689D01*
X0070181Y0064689D01*
X0070008Y0064689D01*
X0067819Y0064689D01*
X0067819Y0064689D01*
X0070181Y0064689D01*
X0072370Y0064689D01*
X0072543Y0064689D01*
X0072543Y0067960D01*
X0072162Y0067960D01*
X0072247Y0068165D01*
X0072806Y0068165D01*
X0072806Y0067960D01*
X0072543Y0067960D01*
X0072543Y0064689D01*
X0072543Y0064689D01*
X0072543Y0064689D01*
X0072543Y0064688D02*
X0072543Y0061417D01*
X0073430Y0061417D01*
X0073560Y0061452D01*
X0073595Y0061417D01*
X0076216Y0061417D01*
X0076251Y0061452D01*
X0076381Y0061417D01*
X0077268Y0061417D01*
X0078154Y0061417D01*
X0078285Y0061452D01*
X0078320Y0061417D01*
X0078720Y0061417D01*
X0078720Y0061145D01*
X0078720Y0060259D01*
X0078755Y0060128D01*
X0078720Y0060093D01*
X0078720Y0055111D01*
X0078755Y0055076D01*
X0078720Y0054945D01*
X0078720Y0054059D01*
X0081992Y0054059D01*
X0081992Y0054059D01*
X0078720Y0054059D01*
X0078720Y0053787D01*
X0061784Y0053787D01*
X0061749Y0053752D01*
X0061619Y0053787D01*
X0060732Y0053787D01*
X0060732Y0050516D01*
X0060732Y0050516D01*
X0060732Y0050560D02*
X0060732Y0050560D01*
X0060732Y0051559D02*
X0060732Y0051559D01*
X0060732Y0052557D02*
X0060732Y0052557D01*
X0060732Y0053556D02*
X0060732Y0053556D01*
X0059280Y0054554D02*
X0078720Y0054554D01*
X0078720Y0055553D02*
X0059280Y0055553D01*
X0059280Y0056421D02*
X0056008Y0056421D01*
X0059280Y0056421D01*
X0059280Y0056551D02*
X0078720Y0056551D01*
X0078720Y0057550D02*
X0059280Y0057550D01*
X0059280Y0058548D02*
X0078720Y0058548D01*
X0078720Y0059547D02*
X0059280Y0059547D01*
X0059280Y0060545D02*
X0078720Y0060545D01*
X0078720Y0061145D02*
X0081992Y0061145D01*
X0081992Y0061145D01*
X0078720Y0061145D01*
X0077268Y0061417D02*
X0077268Y0064688D01*
X0077268Y0064688D01*
X0077268Y0061417D01*
X0077268Y0061544D02*
X0077268Y0061544D01*
X0077268Y0062542D02*
X0077268Y0062542D01*
X0077268Y0063541D02*
X0077268Y0063541D01*
X0077268Y0064539D02*
X0077268Y0064539D01*
X0077268Y0064689D02*
X0077268Y0067960D01*
X0077268Y0064689D01*
X0077268Y0064689D01*
X0077268Y0065538D02*
X0077268Y0065538D01*
X0077268Y0066537D02*
X0077268Y0066537D01*
X0077268Y0067535D02*
X0077268Y0067535D01*
X0077268Y0067960D02*
X0077005Y0067960D01*
X0077005Y0068778D01*
X0077272Y0069044D01*
X0077272Y0070078D01*
X0077330Y0070019D01*
X0077330Y0069917D01*
X0077530Y0069717D01*
X0077530Y0067960D01*
X0077268Y0067960D01*
X0077530Y0068534D02*
X0077005Y0068534D01*
X0077272Y0069532D02*
X0077530Y0069532D01*
X0081730Y0067919D02*
X0082578Y0067919D01*
X0082736Y0068077D01*
X0082886Y0068015D01*
X0084114Y0068015D01*
X0085249Y0068485D01*
X0085500Y0068736D01*
X0085500Y0062430D01*
X0085229Y0062160D01*
X0085162Y0062413D01*
X0084964Y0062755D01*
X0084685Y0063035D01*
X0084343Y0063232D01*
X0083961Y0063334D01*
X0081992Y0063334D01*
X0081819Y0063334D01*
X0081819Y0067082D01*
X0081730Y0067171D01*
X0081730Y0067919D01*
X0081730Y0067535D02*
X0085500Y0067535D01*
X0085500Y0066537D02*
X0081819Y0066537D01*
X0081819Y0065538D02*
X0085500Y0065538D01*
X0085500Y0064539D02*
X0081819Y0064539D01*
X0081819Y0063541D02*
X0085500Y0063541D01*
X0085500Y0062542D02*
X0085087Y0062542D01*
X0087500Y0061602D02*
X0084681Y0058783D01*
X0081992Y0058783D01*
X0081992Y0061145D02*
X0081992Y0063334D01*
X0081992Y0061145D01*
X0081992Y0061145D01*
X0081992Y0061544D02*
X0081992Y0061544D01*
X0081992Y0062542D02*
X0081992Y0062542D01*
X0087500Y0061602D02*
X0087500Y0079602D01*
X0082500Y0084602D01*
X0063500Y0084602D01*
X0059000Y0080102D01*
X0057500Y0080102D01*
X0059284Y0077520D02*
X0060043Y0077520D01*
X0060043Y0076522D02*
X0053961Y0076522D01*
X0054087Y0075523D02*
X0060043Y0075523D01*
X0060043Y0074525D02*
X0053895Y0074525D01*
X0053290Y0073526D02*
X0060043Y0073526D01*
X0060043Y0072528D02*
X0051645Y0072528D01*
X0050355Y0072528D02*
X0049756Y0072528D01*
X0050728Y0071285D02*
X0050728Y0068193D01*
X0053457Y0068193D01*
X0053457Y0069983D01*
X0053354Y0070364D01*
X0053157Y0070706D01*
X0052878Y0070985D01*
X0052536Y0071183D01*
X0052154Y0071285D01*
X0050728Y0071285D01*
X0050728Y0070531D02*
X0050272Y0070531D01*
X0050272Y0069532D02*
X0050728Y0069532D01*
X0050728Y0068534D02*
X0050272Y0068534D01*
X0050272Y0068193D02*
X0050272Y0067736D01*
X0048772Y0067736D01*
X0048772Y0067972D01*
X0045689Y0067972D01*
X0045689Y0068350D01*
X0047543Y0068350D01*
X0047543Y0068193D01*
X0050272Y0068193D01*
X0053457Y0068534D02*
X0060307Y0068534D01*
X0060043Y0069532D02*
X0053457Y0069532D01*
X0053258Y0070531D02*
X0060043Y0070531D01*
X0060043Y0071529D02*
X0048180Y0071529D01*
X0045311Y0068350D02*
X0045311Y0067972D01*
X0042228Y0067972D01*
X0042228Y0066586D01*
X0042331Y0066204D01*
X0042528Y0065862D01*
X0042788Y0065602D01*
X0042228Y0065042D01*
X0042228Y0061044D01*
X0042704Y0060568D01*
X0042317Y0060180D01*
X0042317Y0056024D01*
X0043077Y0055264D01*
X0042590Y0055264D01*
X0039300Y0058555D01*
X0039300Y0068149D01*
X0040953Y0069802D01*
X0042246Y0069802D01*
X0042228Y0069737D01*
X0042228Y0068350D01*
X0045311Y0068350D01*
X0042724Y0065538D02*
X0039300Y0065538D01*
X0039300Y0064539D02*
X0042228Y0064539D01*
X0042228Y0063541D02*
X0039300Y0063541D01*
X0039300Y0062542D02*
X0042228Y0062542D01*
X0042228Y0061544D02*
X0039300Y0061544D01*
X0039300Y0060545D02*
X0042682Y0060545D01*
X0042317Y0059547D02*
X0039300Y0059547D01*
X0039306Y0058548D02*
X0042317Y0058548D01*
X0042317Y0057550D02*
X0040305Y0057550D01*
X0041303Y0056551D02*
X0042317Y0056551D01*
X0042302Y0055553D02*
X0042788Y0055553D01*
X0039790Y0051559D02*
X0037500Y0051559D01*
X0037500Y0052557D02*
X0038792Y0052557D01*
X0037793Y0053556D02*
X0037500Y0053556D01*
X0037500Y0053849D02*
X0040685Y0050664D01*
X0048543Y0050664D01*
X0048543Y0050522D01*
X0048599Y0050466D01*
X0048543Y0050258D01*
X0048543Y0048468D01*
X0051272Y0048468D01*
X0051272Y0048011D01*
X0048543Y0048011D01*
X0048543Y0046602D01*
X0038828Y0046602D01*
X0037500Y0047930D01*
X0037500Y0053849D01*
X0035500Y0056102D02*
X0034500Y0057102D01*
X0034500Y0069602D01*
X0036500Y0071602D01*
X0039684Y0068534D02*
X0042228Y0068534D01*
X0042228Y0069532D02*
X0040683Y0069532D01*
X0039300Y0067535D02*
X0042228Y0067535D01*
X0042241Y0066537D02*
X0039300Y0066537D01*
X0030500Y0073102D02*
X0025000Y0067602D01*
X0023500Y0067602D01*
X0020500Y0067602D01*
X0025000Y0067602D02*
X0025500Y0067602D01*
X0025500Y0069102D01*
X0024500Y0070102D01*
X0020500Y0057602D02*
X0023500Y0054602D01*
X0029500Y0054602D01*
X0031000Y0053102D01*
X0031000Y0045102D01*
X0036000Y0040102D01*
X0064500Y0040102D01*
X0067819Y0043421D01*
X0067819Y0050515D01*
X0070181Y0050515D02*
X0070181Y0042783D01*
X0065000Y0037602D01*
X0020500Y0037602D01*
X0030500Y0035602D02*
X0030500Y0029689D01*
X0031114Y0029689D01*
X0032249Y0029219D01*
X0033117Y0028351D01*
X0033220Y0028102D01*
X0052172Y0028102D01*
X0051640Y0028634D01*
X0051265Y0028634D01*
X0050708Y0029191D01*
X0050598Y0029145D01*
X0050004Y0029027D01*
X0049594Y0029027D01*
X0049594Y0031815D01*
X0049020Y0031815D01*
X0045839Y0031815D01*
X0045839Y0031799D01*
X0045957Y0031205D01*
X0046189Y0030646D01*
X0046525Y0030142D01*
X0046953Y0029714D01*
X0047457Y0029377D01*
X0048016Y0029145D01*
X0048611Y0029027D01*
X0049020Y0029027D01*
X0049020Y0031815D01*
X0049020Y0032389D01*
X0045839Y0032389D01*
X0045839Y0032405D01*
X0045957Y0032999D01*
X0046189Y0033558D01*
X0046525Y0034062D01*
X0046953Y0034490D01*
X0047457Y0034827D01*
X0048016Y0035059D01*
X0048611Y0035177D01*
X0049020Y0035177D01*
X0049020Y0032389D01*
X0049594Y0032389D01*
X0049594Y0035177D01*
X0050004Y0035177D01*
X0050598Y0035059D01*
X0050708Y0035013D01*
X0051265Y0035571D01*
X0054735Y0035571D01*
X0055292Y0035013D01*
X0055688Y0035177D01*
X0057698Y0035177D01*
X0058777Y0034730D01*
X0059886Y0035189D01*
X0061114Y0035189D01*
X0061973Y0034834D01*
X0062802Y0035177D01*
X0064812Y0035177D01*
X0065208Y0035013D01*
X0065500Y0035305D01*
X0065500Y0035602D01*
X0030500Y0035602D01*
X0030500Y0035583D02*
X0065500Y0035583D01*
X0067500Y0037102D02*
X0067500Y0032102D01*
X0069792Y0035013D02*
X0069500Y0035305D01*
X0069500Y0036274D01*
X0072413Y0039186D01*
X0072413Y0038988D01*
X0072883Y0037853D01*
X0073500Y0037236D01*
X0073500Y0034522D01*
X0073043Y0034827D01*
X0072484Y0035059D01*
X0071889Y0035177D01*
X0071480Y0035177D01*
X0071480Y0032389D01*
X0070905Y0032389D01*
X0070905Y0035177D01*
X0070496Y0035177D01*
X0069902Y0035059D01*
X0069792Y0035013D01*
X0069500Y0035583D02*
X0073500Y0035583D01*
X0073500Y0036581D02*
X0069808Y0036581D01*
X0070806Y0037580D02*
X0073156Y0037580D01*
X0072582Y0038578D02*
X0071805Y0038578D01*
X0072543Y0042145D02*
X0067500Y0037102D01*
X0070905Y0034584D02*
X0071480Y0034584D01*
X0071480Y0033586D02*
X0070905Y0033586D01*
X0070905Y0032587D02*
X0071480Y0032587D01*
X0073406Y0034584D02*
X0073500Y0034584D01*
X0075500Y0030102D02*
X0073500Y0028102D01*
X0055000Y0028102D01*
X0053500Y0029602D01*
X0053500Y0031602D01*
X0053000Y0032102D01*
X0049594Y0032587D02*
X0049020Y0032587D01*
X0049020Y0031589D02*
X0049594Y0031589D01*
X0049594Y0030590D02*
X0049020Y0030590D01*
X0049020Y0029592D02*
X0049594Y0029592D01*
X0051681Y0028593D02*
X0032875Y0028593D01*
X0031350Y0029592D02*
X0047136Y0029592D01*
X0046226Y0030590D02*
X0030500Y0030590D01*
X0030500Y0031589D02*
X0045880Y0031589D01*
X0045875Y0032587D02*
X0030500Y0032587D01*
X0030500Y0033586D02*
X0046207Y0033586D01*
X0047094Y0034584D02*
X0030500Y0034584D01*
X0030500Y0026602D02*
X0031000Y0026102D01*
X0077500Y0026102D01*
X0078500Y0027102D01*
X0078500Y0041102D01*
X0077000Y0042602D01*
X0076500Y0042602D01*
X0074906Y0044197D01*
X0074906Y0050515D01*
X0072543Y0050515D02*
X0072543Y0042145D01*
X0075500Y0039602D02*
X0075500Y0030102D01*
X0081500Y0032102D02*
X0082500Y0032102D01*
X0083500Y0033102D01*
X0083500Y0038043D01*
X0085941Y0038043D01*
X0086500Y0038102D01*
X0086772Y0041189D02*
X0086772Y0045160D01*
X0086772Y0045160D01*
X0086772Y0048011D01*
X0087228Y0048011D01*
X0087228Y0044919D01*
X0088000Y0044919D01*
X0088000Y0040822D01*
X0087114Y0041189D01*
X0086772Y0041189D01*
X0086772Y0041574D02*
X0088000Y0041574D01*
X0088000Y0042572D02*
X0086772Y0042572D01*
X0086772Y0043571D02*
X0088000Y0043571D01*
X0088000Y0044569D02*
X0086772Y0044569D01*
X0086772Y0045568D02*
X0087228Y0045568D01*
X0087228Y0046566D02*
X0086772Y0046566D01*
X0086772Y0047565D02*
X0087228Y0047565D01*
X0086772Y0048011D02*
X0084043Y0048011D01*
X0084043Y0046887D01*
X0083328Y0047602D01*
X0081819Y0049112D01*
X0081819Y0051870D01*
X0081992Y0051870D01*
X0081992Y0054059D01*
X0081992Y0054059D01*
X0081992Y0051870D01*
X0083961Y0051870D01*
X0084043Y0051892D01*
X0084043Y0050522D01*
X0084099Y0050466D01*
X0084043Y0050258D01*
X0084043Y0048468D01*
X0086772Y0048468D01*
X0086772Y0048011D01*
X0084043Y0047565D02*
X0083366Y0047565D01*
X0084043Y0048563D02*
X0082367Y0048563D01*
X0081819Y0049562D02*
X0084043Y0049562D01*
X0084043Y0050560D02*
X0081819Y0050560D01*
X0081819Y0051559D02*
X0084043Y0051559D01*
X0081992Y0052557D02*
X0081992Y0052557D01*
X0081992Y0053556D02*
X0081992Y0053556D01*
X0079630Y0050515D02*
X0079630Y0048472D01*
X0082500Y0045602D01*
X0082500Y0043602D01*
X0083500Y0043161D01*
X0078000Y0045602D02*
X0077268Y0045834D01*
X0077268Y0050515D01*
X0072543Y0061544D02*
X0072543Y0061544D01*
X0072543Y0062542D02*
X0072543Y0062542D01*
X0072543Y0063541D02*
X0072543Y0063541D01*
X0072543Y0064539D02*
X0072543Y0064539D01*
X0072543Y0065538D02*
X0072543Y0065538D01*
X0072543Y0066537D02*
X0072543Y0066537D01*
X0072543Y0067535D02*
X0072543Y0067535D01*
X0070181Y0064689D02*
X0070181Y0064689D01*
X0070181Y0064539D02*
X0070181Y0064539D01*
X0070181Y0063541D02*
X0070181Y0063541D01*
X0070181Y0062542D02*
X0070181Y0062542D01*
X0070181Y0061544D02*
X0070181Y0061544D01*
X0067819Y0061544D02*
X0067819Y0061544D01*
X0067819Y0061417D02*
X0067819Y0064688D01*
X0067819Y0064688D01*
X0067819Y0061417D01*
X0067819Y0062542D02*
X0067819Y0062542D01*
X0067819Y0063541D02*
X0067819Y0063541D01*
X0067819Y0064539D02*
X0067819Y0064539D01*
X0065500Y0064689D02*
X0065500Y0067602D01*
X0066000Y0068102D01*
X0067500Y0068102D01*
X0069500Y0069602D01*
X0065500Y0064689D02*
X0065457Y0064689D01*
X0060732Y0064539D02*
X0060732Y0064539D01*
X0060732Y0063541D02*
X0060732Y0063541D01*
X0060732Y0062542D02*
X0060732Y0062542D01*
X0060732Y0061544D02*
X0060732Y0061544D01*
X0060732Y0065538D02*
X0060732Y0065538D01*
X0060732Y0066537D02*
X0060732Y0066537D01*
X0060732Y0067535D02*
X0060732Y0067535D01*
X0058370Y0067535D02*
X0058370Y0067535D01*
X0058370Y0066537D02*
X0058370Y0066537D01*
X0058370Y0065538D02*
X0058370Y0065538D01*
X0056635Y0067535D02*
X0053457Y0067535D01*
X0053457Y0066537D02*
X0056181Y0066537D01*
X0056181Y0065538D02*
X0053457Y0065538D01*
X0053457Y0064539D02*
X0056181Y0064539D01*
X0056181Y0063541D02*
X0053457Y0063541D01*
X0056008Y0062542D02*
X0056008Y0062542D01*
X0056008Y0061544D02*
X0056008Y0061544D01*
X0056008Y0056421D02*
X0056008Y0056421D01*
X0056008Y0054059D02*
X0051362Y0054059D01*
X0051500Y0052964D01*
X0054457Y0051870D02*
X0054457Y0050522D01*
X0054401Y0050466D01*
X0054457Y0050258D01*
X0054457Y0048468D01*
X0051728Y0048468D01*
X0051728Y0048011D01*
X0054457Y0048011D01*
X0054457Y0046602D01*
X0055572Y0046602D01*
X0055883Y0047351D01*
X0056418Y0047886D01*
X0056181Y0048122D01*
X0056181Y0051870D01*
X0054457Y0051870D01*
X0054457Y0051559D02*
X0056181Y0051559D01*
X0056181Y0050560D02*
X0054457Y0050560D01*
X0054457Y0049562D02*
X0056181Y0049562D01*
X0056181Y0048563D02*
X0054457Y0048563D01*
X0054457Y0047565D02*
X0056097Y0047565D01*
X0057500Y0045602D02*
X0056500Y0044602D01*
X0038000Y0044602D01*
X0035500Y0047102D01*
X0035500Y0056102D01*
X0037500Y0050560D02*
X0048543Y0050560D01*
X0048543Y0049562D02*
X0037500Y0049562D01*
X0037500Y0048563D02*
X0048543Y0048563D01*
X0048543Y0047565D02*
X0037866Y0047565D01*
X0049020Y0034584D02*
X0049594Y0034584D01*
X0049594Y0033586D02*
X0049020Y0033586D01*
X0056693Y0032102D02*
X0060500Y0032102D01*
X0063807Y0032102D01*
X0058500Y0045602D02*
X0057500Y0045602D01*
X0083457Y0074525D02*
X0085500Y0074525D01*
X0085500Y0075523D02*
X0083457Y0075523D01*
X0083457Y0076193D02*
X0083457Y0077983D01*
X0083354Y0078364D01*
X0083157Y0078706D01*
X0082878Y0078985D01*
X0082536Y0079183D01*
X0082154Y0079285D01*
X0080728Y0079285D01*
X0080728Y0076193D01*
X0083457Y0076193D01*
X0083457Y0076522D02*
X0085500Y0076522D01*
X0085500Y0077520D02*
X0083457Y0077520D01*
X0083265Y0078519D02*
X0085500Y0078519D01*
X0084756Y0079517D02*
X0061244Y0079517D01*
X0062242Y0080516D02*
X0083758Y0080516D01*
X0082759Y0081514D02*
X0063241Y0081514D01*
X0064239Y0082513D02*
X0081761Y0082513D01*
X0084500Y0085430D02*
X0083328Y0086602D01*
X0062672Y0086602D01*
X0058924Y0082854D01*
X0058254Y0083131D01*
X0058394Y0083373D01*
X0058496Y0083755D01*
X0058496Y0086602D01*
X0054937Y0086602D01*
X0054937Y0087602D01*
X0058496Y0087602D01*
X0058496Y0090102D01*
X0088000Y0090102D01*
X0088000Y0081930D01*
X0084500Y0085430D01*
X0084422Y0085508D02*
X0088000Y0085508D01*
X0088000Y0084510D02*
X0085421Y0084510D01*
X0086419Y0083511D02*
X0088000Y0083511D01*
X0088000Y0082513D02*
X0087418Y0082513D01*
X0088000Y0086507D02*
X0083424Y0086507D01*
X0088000Y0087505D02*
X0054937Y0087505D01*
X0054937Y0086507D02*
X0053937Y0086507D01*
X0053937Y0085508D02*
X0054937Y0085508D01*
X0054937Y0084510D02*
X0053937Y0084510D01*
X0053937Y0083511D02*
X0054937Y0083511D01*
X0054937Y0082513D02*
X0053937Y0082513D01*
X0054743Y0081514D02*
X0050437Y0081514D01*
X0050437Y0080516D02*
X0054413Y0080516D01*
X0054413Y0079517D02*
X0050437Y0079517D01*
X0052026Y0078519D02*
X0054814Y0078519D01*
X0055716Y0077520D02*
X0053448Y0077520D01*
X0051455Y0082513D02*
X0050419Y0082513D01*
X0042441Y0080102D02*
X0036500Y0080102D01*
X0058431Y0083511D02*
X0059581Y0083511D01*
X0060579Y0084510D02*
X0058496Y0084510D01*
X0058496Y0085508D02*
X0061578Y0085508D01*
X0062576Y0086507D02*
X0058496Y0086507D01*
X0058496Y0088504D02*
X0088000Y0088504D01*
X0088000Y0089502D02*
X0058496Y0089502D01*
X0063228Y0079285D02*
X0063228Y0076193D01*
X0065957Y0076193D01*
X0065957Y0077983D01*
X0065854Y0078364D01*
X0065657Y0078706D01*
X0065378Y0078985D01*
X0065036Y0079183D01*
X0064654Y0079285D01*
X0063228Y0079285D01*
X0063228Y0078519D02*
X0062772Y0078519D01*
X0062772Y0077520D02*
X0063228Y0077520D01*
X0063228Y0076522D02*
X0062772Y0076522D01*
X0065765Y0078519D02*
X0069279Y0078519D01*
X0067977Y0077520D02*
X0065957Y0077520D01*
X0065957Y0076522D02*
X0066553Y0076522D01*
X0066040Y0075523D02*
X0065957Y0075523D01*
X0076913Y0078519D02*
X0077735Y0078519D01*
X0077543Y0077520D02*
X0077272Y0077520D01*
X0077333Y0076522D02*
X0077543Y0076522D01*
X0080272Y0076522D02*
X0080728Y0076522D01*
X0080728Y0077520D02*
X0080272Y0077520D01*
X0080272Y0078519D02*
X0080728Y0078519D01*
X0085442Y0073526D02*
X0085500Y0073526D01*
X0085500Y0068534D02*
X0085298Y0068534D01*
D21*
X0030500Y0026602D03*
X0035500Y0032602D03*
X0047000Y0048102D03*
X0055000Y0048102D03*
X0058500Y0045602D03*
X0062500Y0045602D03*
X0061000Y0055102D03*
X0061000Y0060102D03*
X0055000Y0064602D03*
X0054500Y0068102D03*
X0051000Y0075602D03*
X0057500Y0080102D03*
X0060000Y0085602D03*
X0060000Y0088602D03*
X0064500Y0080602D03*
X0069000Y0074602D03*
X0069500Y0069602D03*
X0069000Y0060102D03*
X0069000Y0055102D03*
X0077000Y0055102D03*
X0077000Y0060102D03*
X0083500Y0065102D03*
X0083500Y0071102D03*
X0080500Y0080602D03*
X0086500Y0088602D03*
X0072000Y0088602D03*
X0072000Y0081102D03*
X0086500Y0056102D03*
X0083000Y0050602D03*
X0078000Y0045602D03*
X0075500Y0039602D03*
X0071500Y0036602D03*
X0081500Y0032102D03*
X0086500Y0038102D03*
X0060500Y0032102D03*
X0039000Y0050102D03*
X0041000Y0059102D03*
X0041000Y0068102D03*
X0039500Y0075602D03*
X0033500Y0076102D03*
X0030500Y0073102D03*
X0031000Y0080102D03*
X0031000Y0065102D03*
D22*
X0037000Y0069102D02*
X0040000Y0072102D01*
X0045500Y0072102D01*
X0047000Y0073602D01*
X0047000Y0075043D01*
X0047559Y0075602D01*
X0037000Y0069102D02*
X0037000Y0057602D01*
X0041638Y0052964D01*
X0051500Y0052964D01*
X0050500Y0058102D02*
X0050500Y0063240D01*
X0045500Y0063043D02*
X0045500Y0058102D01*
X0045638Y0058102D01*
X0050362Y0058102D02*
X0050500Y0058102D01*
X0074000Y0076161D02*
X0074441Y0076161D01*
X0079630Y0070972D01*
X0079630Y0070870D01*
X0080500Y0071240D02*
X0080638Y0071102D01*
X0083500Y0071102D01*
X0086500Y0056421D02*
X0086500Y0056102D01*
X0087000Y0052964D01*
D23*
X0086500Y0056421D02*
X0081992Y0056421D01*
X0079630Y0064689D02*
X0079630Y0070870D01*
X0080500Y0071240D01*
X0074906Y0070637D02*
X0074000Y0071043D01*
X0074906Y0070637D02*
X0074906Y0064689D01*
X0063094Y0064689D02*
X0063094Y0071145D01*
X0063000Y0071240D01*
X0056008Y0058783D02*
X0050362Y0058783D01*
X0050362Y0058102D01*
D24*
X0063094Y0071145D02*
X0065543Y0071145D01*
X0069000Y0074602D01*
X0070500Y0076102D01*
X0073941Y0076102D01*
X0074000Y0076161D01*
X0051000Y0075602D02*
X0048000Y0075602D01*
X0047500Y0076102D01*
X0047500Y0075602D01*
X0047559Y0075602D01*
X0047559Y0080102D01*
X0047559Y0087602D01*
X0046563Y0087102D01*
D25*
X0046563Y0087539D01*
X0046500Y0087602D01*
X0020500Y0087602D01*
M02*
