G04 This is an RS-274x file exported by *
G04 gerbv version 2.6.1 *
G04 More information is available about gerbv at *
G04 http://gerbv.geda-project.org/ *
G04 --End of header info--*
%MOIN*%
%FSLAX34Y34*%
%IPPOS*%
G04 --Define apertures--*
%ADD10R,0.0371X0.0444*%
%ADD11R,0.0444X0.0371*%
%ADD12R,0.0592X0.0710*%
%ADD13R,0.1580X0.0840*%
%ADD14R,0.0218X0.0434*%
%ADD15R,0.0434X0.0218*%
%ADD16C,0.0395*%
%ADD17C,0.0198*%
%ADD18R,0.0434X0.0356*%
%ADD19R,0.0356X0.0434*%
G04 --Start main section--*
G54D10*
G01X0005150Y0004824D03*
G01X0005150Y0005296D03*
G01X0005050Y0006324D03*
G01X0005050Y0006796D03*
G01X0006300Y0007124D03*
G01X0006300Y0007596D03*
G01X0008050Y0007596D03*
G01X0008050Y0007124D03*
G01X0008700Y0005296D03*
G01X0008700Y0004824D03*
G54D11*
G01X0005036Y0005810D03*
G01X0004564Y0005810D03*
G54D12*
G01X0004656Y0008710D03*
G01X0005444Y0008710D03*
G54D13*
G01X0002050Y0003760D03*
G01X0002050Y0004760D03*
G01X0002050Y0005760D03*
G01X0002050Y0006760D03*
G01X0002050Y0007760D03*
G01X0002050Y0008760D03*
G54D14*
G01X0005837Y0006469D03*
G01X0006073Y0006469D03*
G01X0006309Y0006469D03*
G01X0006546Y0006469D03*
G01X0006782Y0006469D03*
G01X0007018Y0006469D03*
G01X0007254Y0006469D03*
G01X0007491Y0006469D03*
G01X0007727Y0006469D03*
G01X0007963Y0006469D03*
G01X0007963Y0005052D03*
G01X0007727Y0005052D03*
G01X0007491Y0005052D03*
G01X0007254Y0005052D03*
G01X0007018Y0005052D03*
G01X0006782Y0005052D03*
G01X0006546Y0005052D03*
G01X0006309Y0005052D03*
G01X0006073Y0005052D03*
G01X0005837Y0005052D03*
G54D15*
G01X0005601Y0005406D03*
G01X0005601Y0005642D03*
G01X0005601Y0005878D03*
G01X0005601Y0006115D03*
G01X0008199Y0006115D03*
G01X0008199Y0005878D03*
G01X0008199Y0005642D03*
G01X0008199Y0005406D03*
G54D16*
G01X0007159Y0003210D02*
G01X0007080Y0003210D01*
G01X0006420Y0003210D02*
G01X0006341Y0003210D01*
G01X0005709Y0003210D02*
G01X0005630Y0003210D01*
G01X0004970Y0003210D02*
G01X0004891Y0003210D01*
G54D17*
G01X0005399Y0003348D02*
G01X0005399Y0003072D01*
G01X0005399Y0003072D02*
G01X0005201Y0003072D01*
G01X0005201Y0003072D02*
G01X0005201Y0003348D01*
G01X0005201Y0003348D02*
G01X0005399Y0003348D01*
G01X0005399Y0003270D02*
G01X0005201Y0003270D01*
G01X0006651Y0003348D02*
G01X0006651Y0003072D01*
G01X0006651Y0003348D02*
G01X0006849Y0003348D01*
G01X0006849Y0003348D02*
G01X0006849Y0003072D01*
G01X0006849Y0003072D02*
G01X0006651Y0003072D01*
G01X0006651Y0003270D02*
G01X0006849Y0003270D01*
G54D18*
G01X0008350Y0003804D03*
G01X0008350Y0004316D03*
G01X0007400Y0007104D03*
G01X0007400Y0007616D03*
G01X0004550Y0006816D03*
G01X0004550Y0006304D03*
G54D19*
G01X0004756Y0007560D03*
G01X0004756Y0008010D03*
G01X0004244Y0008010D03*
G01X0004244Y0007560D03*
M02*
