G75*
%MOIN*%
%OFA0B0*%
%FSLAX25Y25*%
%IPPOS*%
%LPD*%
%AMOC8*
5,1,8,0,0,1.08239X$1,22.5*
%
%ADD10R,0.05400X0.07100*%
%ADD11R,0.15800X0.08400*%
%ADD12C,0.03975*%
%ADD13C,0.03581*%
D10*
X0052000Y0030550D03*
X0058000Y0030550D03*
X0064000Y0030550D03*
X0064000Y0045550D03*
X0058000Y0045550D03*
X0052000Y0045550D03*
D11*
X0020500Y0006800D03*
X0020500Y0016800D03*
X0020500Y0026800D03*
X0020500Y0036800D03*
X0020500Y0046800D03*
X0020500Y0056800D03*
X0020500Y0066800D03*
D12*
X0033000Y0054300D03*
X0033000Y0046800D03*
X0051750Y0051800D03*
X0058000Y0040550D03*
X0058000Y0035550D03*
X0076750Y0049300D03*
X0076750Y0053050D03*
X0076750Y0056800D03*
X0070500Y0065550D03*
X0105500Y0053050D03*
X0096750Y0046800D03*
X0093000Y0046800D03*
X0125500Y0053050D03*
X0143000Y0056800D03*
X0143000Y0048050D03*
X0143000Y0040550D03*
X0143000Y0033050D03*
X0143000Y0025550D03*
X0040500Y0020550D03*
X0038000Y0010550D03*
X0033000Y0008050D03*
D13*
X0078000Y0034300D03*
X0088000Y0033050D03*
X0088000Y0029300D03*
X0102150Y0036250D03*
X0078000Y0041800D03*
X0128000Y0039300D03*
X0128000Y0034300D03*
X0128000Y0044300D03*
M02*
