%
M48
M72
T01C0.01181
T02C0.01575
%
T01
X78000Y34300
X88000Y33050
X88000Y29300
X102150Y36250
X78000Y41800
X128000Y39300
X128000Y34300
X128000Y44300
T02
X33000Y8050
X38000Y10550
X40500Y20550
X58000Y35550
X58000Y40550
X76750Y49300
X76750Y53050
X76750Y56800
X70500Y65550
X51750Y51800
X33000Y54300
X33000Y46800
X93000Y46800
X96750Y46800
X105500Y53050
X125500Y53050
X143000Y56800
X143000Y48050
X143000Y40550
X143000Y33050
X143000Y25550
M30
