G75*
%MOIN*%
%OFA0B0*%
%FSLAX25Y25*%
%IPPOS*%
%LPD*%
%AMOC8*
5,1,8,0,0,1.08239X$1,22.5*
%
%ADD10C,0.00200*%
%ADD11C,0.00500*%
%ADD12C,0.00400*%
D10*
X0054350Y0013150D02*
X0054350Y0015352D01*
X0055451Y0015352D01*
X0055818Y0014985D01*
X0055818Y0014251D01*
X0055451Y0013884D01*
X0054350Y0013884D01*
X0055084Y0013884D02*
X0055818Y0013150D01*
X0056560Y0013150D02*
X0058028Y0013150D01*
X0057294Y0013150D02*
X0057294Y0015352D01*
X0056560Y0014618D01*
X0056560Y0019400D02*
X0056560Y0019767D01*
X0058028Y0021235D01*
X0058028Y0021602D01*
X0056560Y0021602D01*
X0055818Y0021235D02*
X0055818Y0020501D01*
X0055451Y0020134D01*
X0054350Y0020134D01*
X0055084Y0020134D02*
X0055818Y0019400D01*
X0054350Y0019400D02*
X0054350Y0021602D01*
X0055451Y0021602D01*
X0055818Y0021235D01*
X0055818Y0025650D02*
X0055084Y0026384D01*
X0055451Y0026384D02*
X0054350Y0026384D01*
X0054350Y0025650D02*
X0054350Y0027852D01*
X0055451Y0027852D01*
X0055818Y0027485D01*
X0055818Y0026751D01*
X0055451Y0026384D01*
X0056560Y0025650D02*
X0058028Y0027118D01*
X0058028Y0027485D01*
X0057661Y0027852D01*
X0056927Y0027852D01*
X0056560Y0027485D01*
X0056560Y0025650D02*
X0058028Y0025650D01*
X0048911Y0036900D02*
X0048177Y0036900D01*
X0047810Y0037267D01*
X0047068Y0036900D02*
X0046334Y0037634D01*
X0046701Y0037634D02*
X0045600Y0037634D01*
X0045600Y0036900D02*
X0045600Y0039102D01*
X0046701Y0039102D01*
X0047068Y0038735D01*
X0047068Y0038001D01*
X0046701Y0037634D01*
X0047810Y0038735D02*
X0048177Y0039102D01*
X0048911Y0039102D01*
X0049278Y0038735D01*
X0049278Y0038368D01*
X0048911Y0038001D01*
X0049278Y0037634D01*
X0049278Y0037267D01*
X0048911Y0036900D01*
X0048911Y0038001D02*
X0048544Y0038001D01*
X0071100Y0048267D02*
X0071467Y0047900D01*
X0072201Y0047900D01*
X0072568Y0048267D01*
X0072568Y0050102D01*
X0073310Y0049368D02*
X0074044Y0050102D01*
X0074044Y0047900D01*
X0073310Y0047900D02*
X0074778Y0047900D01*
X0071100Y0048267D02*
X0071100Y0050102D01*
X0063008Y0051941D02*
X0061540Y0051941D01*
X0063008Y0053409D01*
X0063008Y0053776D01*
X0062641Y0054143D01*
X0061907Y0054143D01*
X0061540Y0053776D01*
X0060798Y0053776D02*
X0060431Y0054143D01*
X0059697Y0054143D01*
X0059330Y0053776D01*
X0059330Y0052308D01*
X0059697Y0051941D01*
X0060431Y0051941D01*
X0060798Y0052308D01*
X0048028Y0051602D02*
X0046560Y0051602D01*
X0046560Y0050501D01*
X0047294Y0050868D01*
X0047661Y0050868D01*
X0048028Y0050501D01*
X0048028Y0049767D01*
X0047661Y0049400D01*
X0046927Y0049400D01*
X0046560Y0049767D01*
X0045818Y0049400D02*
X0045084Y0050134D01*
X0045451Y0050134D02*
X0044350Y0050134D01*
X0044350Y0049400D02*
X0044350Y0051602D01*
X0045451Y0051602D01*
X0045818Y0051235D01*
X0045818Y0050501D01*
X0045451Y0050134D01*
X0045818Y0059400D02*
X0045084Y0060134D01*
X0045451Y0060134D02*
X0044350Y0060134D01*
X0044350Y0059400D02*
X0044350Y0061602D01*
X0045451Y0061602D01*
X0045818Y0061235D01*
X0045818Y0060501D01*
X0045451Y0060134D01*
X0046560Y0060501D02*
X0048028Y0060501D01*
X0047661Y0061602D02*
X0046560Y0060501D01*
X0047661Y0059400D02*
X0047661Y0061602D01*
X0069350Y0061602D02*
X0069350Y0059400D01*
X0069350Y0060134D02*
X0070451Y0060134D01*
X0070818Y0060501D01*
X0070818Y0061235D01*
X0070451Y0061602D01*
X0069350Y0061602D01*
X0071560Y0060501D02*
X0072661Y0060501D01*
X0073028Y0060134D01*
X0073028Y0059767D01*
X0072661Y0059400D01*
X0071927Y0059400D01*
X0071560Y0059767D01*
X0071560Y0060501D01*
X0072294Y0061235D01*
X0073028Y0061602D01*
X0070818Y0059400D02*
X0070084Y0060134D01*
X0070317Y0066959D02*
X0071051Y0066959D01*
X0071418Y0067326D01*
X0072160Y0066959D02*
X0073628Y0066959D01*
X0072894Y0066959D02*
X0072894Y0069161D01*
X0072160Y0068427D01*
X0071418Y0068794D02*
X0071051Y0069161D01*
X0070317Y0069161D01*
X0069950Y0068794D01*
X0069950Y0067326D01*
X0070317Y0066959D01*
X0094950Y0057544D02*
X0094950Y0056076D01*
X0095317Y0055709D01*
X0096051Y0055709D01*
X0096418Y0056076D01*
X0097160Y0056076D02*
X0097527Y0055709D01*
X0098261Y0055709D01*
X0098628Y0056076D01*
X0098628Y0056443D01*
X0098261Y0056810D01*
X0097894Y0056810D01*
X0098261Y0056810D02*
X0098628Y0057177D01*
X0098628Y0057544D01*
X0098261Y0057911D01*
X0097527Y0057911D01*
X0097160Y0057544D01*
X0096418Y0057544D02*
X0096051Y0057911D01*
X0095317Y0057911D01*
X0094950Y0057544D01*
X0108100Y0051602D02*
X0109568Y0049400D01*
X0110310Y0049400D02*
X0111778Y0049400D01*
X0111044Y0049400D02*
X0111044Y0051602D01*
X0110310Y0050868D01*
X0109568Y0051602D02*
X0108100Y0049400D01*
X0114950Y0056076D02*
X0115317Y0055709D01*
X0116051Y0055709D01*
X0116418Y0056076D01*
X0117160Y0056810D02*
X0118628Y0056810D01*
X0118261Y0057911D02*
X0117160Y0056810D01*
X0116418Y0057544D02*
X0116051Y0057911D01*
X0115317Y0057911D01*
X0114950Y0057544D01*
X0114950Y0056076D01*
X0118261Y0055709D02*
X0118261Y0057911D01*
X0132450Y0059826D02*
X0132817Y0059459D01*
X0133551Y0059459D01*
X0133918Y0059826D01*
X0134660Y0059826D02*
X0135027Y0059459D01*
X0135761Y0059459D01*
X0136128Y0059826D01*
X0136128Y0060560D01*
X0135761Y0060927D01*
X0135394Y0060927D01*
X0134660Y0060560D01*
X0134660Y0061661D01*
X0136128Y0061661D01*
X0133918Y0061294D02*
X0133551Y0061661D01*
X0132817Y0061661D01*
X0132450Y0061294D01*
X0132450Y0059826D01*
X0133100Y0052852D02*
X0134201Y0052852D01*
X0134568Y0052485D01*
X0134568Y0051751D01*
X0134201Y0051384D01*
X0133100Y0051384D01*
X0133834Y0051384D02*
X0134568Y0050650D01*
X0135310Y0051017D02*
X0135677Y0050650D01*
X0136411Y0050650D01*
X0136778Y0051017D01*
X0136778Y0052485D01*
X0136411Y0052852D01*
X0135677Y0052852D01*
X0135310Y0052485D01*
X0135310Y0052118D01*
X0135677Y0051751D01*
X0136778Y0051751D01*
X0133100Y0050650D02*
X0133100Y0052852D01*
X0133100Y0045352D02*
X0134201Y0045352D01*
X0134568Y0044985D01*
X0134568Y0044251D01*
X0134201Y0043884D01*
X0133100Y0043884D01*
X0133834Y0043884D02*
X0134568Y0043150D01*
X0135310Y0043150D02*
X0136778Y0043150D01*
X0136044Y0043150D02*
X0136044Y0045352D01*
X0135310Y0044618D01*
X0133100Y0045352D02*
X0133100Y0043150D01*
X0137520Y0043517D02*
X0137520Y0044985D01*
X0137887Y0045352D01*
X0138621Y0045352D01*
X0138988Y0044985D01*
X0137520Y0043517D01*
X0137887Y0043150D01*
X0138621Y0043150D01*
X0138988Y0043517D01*
X0138988Y0044985D01*
X0138254Y0037852D02*
X0138254Y0035650D01*
X0137520Y0035650D02*
X0138988Y0035650D01*
X0137520Y0037118D02*
X0138254Y0037852D01*
X0136044Y0037852D02*
X0136044Y0035650D01*
X0135310Y0035650D02*
X0136778Y0035650D01*
X0134568Y0035650D02*
X0133834Y0036384D01*
X0134201Y0036384D02*
X0133100Y0036384D01*
X0133100Y0035650D02*
X0133100Y0037852D01*
X0134201Y0037852D01*
X0134568Y0037485D01*
X0134568Y0036751D01*
X0134201Y0036384D01*
X0135310Y0037118D02*
X0136044Y0037852D01*
X0136044Y0030352D02*
X0136044Y0028150D01*
X0135310Y0028150D02*
X0136778Y0028150D01*
X0137520Y0028150D02*
X0138988Y0029618D01*
X0138988Y0029985D01*
X0138621Y0030352D01*
X0137887Y0030352D01*
X0137520Y0029985D01*
X0136044Y0030352D02*
X0135310Y0029618D01*
X0134568Y0029985D02*
X0134568Y0029251D01*
X0134201Y0028884D01*
X0133100Y0028884D01*
X0133834Y0028884D02*
X0134568Y0028150D01*
X0133100Y0028150D02*
X0133100Y0030352D01*
X0134201Y0030352D01*
X0134568Y0029985D01*
X0137520Y0028150D02*
X0138988Y0028150D01*
X0087358Y0048617D02*
X0086991Y0048250D01*
X0086257Y0048250D01*
X0085890Y0048617D01*
X0085890Y0048984D01*
X0086257Y0049351D01*
X0086991Y0049351D01*
X0087358Y0048984D01*
X0087358Y0048617D01*
X0086991Y0049351D02*
X0087358Y0049718D01*
X0087358Y0050085D01*
X0086991Y0050452D01*
X0086257Y0050452D01*
X0085890Y0050085D01*
X0085890Y0049718D01*
X0086257Y0049351D01*
X0085148Y0049351D02*
X0084781Y0048984D01*
X0083680Y0048984D01*
X0083680Y0048250D02*
X0083680Y0050452D01*
X0084781Y0050452D01*
X0085148Y0050085D01*
X0085148Y0049351D01*
X0084414Y0048984D02*
X0085148Y0048250D01*
D11*
X0031751Y0014550D02*
X0030250Y0014550D01*
X0031001Y0014550D02*
X0031001Y0019054D01*
X0031751Y0019054D02*
X0030250Y0019054D01*
X0033319Y0018303D02*
X0033319Y0015301D01*
X0034070Y0014550D01*
X0035571Y0014550D01*
X0036322Y0015301D01*
X0036322Y0018303D01*
X0035571Y0019054D01*
X0034070Y0019054D01*
X0033319Y0018303D01*
X0037923Y0018303D02*
X0038674Y0019054D01*
X0040175Y0019054D01*
X0040926Y0018303D01*
X0040926Y0017553D01*
X0040175Y0016802D01*
X0040926Y0016051D01*
X0040926Y0015301D01*
X0040175Y0014550D01*
X0038674Y0014550D01*
X0037923Y0015301D01*
X0039424Y0016802D02*
X0040175Y0016802D01*
X0037106Y0024550D02*
X0035605Y0024550D01*
X0034854Y0025301D01*
X0033253Y0025301D02*
X0032502Y0024550D01*
X0031001Y0024550D01*
X0030250Y0025301D01*
X0031001Y0026802D02*
X0032502Y0026802D01*
X0033253Y0026051D01*
X0033253Y0025301D01*
X0031001Y0026802D02*
X0030250Y0027553D01*
X0030250Y0028303D01*
X0031001Y0029054D01*
X0032502Y0029054D01*
X0033253Y0028303D01*
X0034854Y0028303D02*
X0034854Y0027553D01*
X0035605Y0026802D01*
X0037106Y0026802D01*
X0037856Y0026051D01*
X0037856Y0025301D01*
X0037106Y0024550D01*
X0037856Y0028303D02*
X0037106Y0029054D01*
X0035605Y0029054D01*
X0034854Y0028303D01*
X0035571Y0034550D02*
X0034070Y0034550D01*
X0033319Y0035301D01*
X0033319Y0038303D01*
X0034070Y0039054D01*
X0035571Y0039054D01*
X0036322Y0038303D01*
X0036322Y0035301D01*
X0035571Y0034550D01*
X0037923Y0034550D02*
X0040926Y0037553D01*
X0040926Y0038303D01*
X0040175Y0039054D01*
X0038674Y0039054D01*
X0037923Y0038303D01*
X0031751Y0039054D02*
X0030250Y0039054D01*
X0031001Y0039054D02*
X0031001Y0034550D01*
X0031751Y0034550D02*
X0030250Y0034550D01*
X0037923Y0034550D02*
X0040926Y0034550D01*
X0040926Y0044550D02*
X0037923Y0044550D01*
X0039424Y0044550D02*
X0039424Y0049054D01*
X0037923Y0047553D01*
X0036322Y0048303D02*
X0035571Y0049054D01*
X0034070Y0049054D01*
X0033319Y0048303D01*
X0033319Y0045301D01*
X0034070Y0044550D01*
X0035571Y0044550D01*
X0036322Y0045301D01*
X0036322Y0048303D01*
X0031751Y0049054D02*
X0030250Y0049054D01*
X0031001Y0049054D02*
X0031001Y0044550D01*
X0031751Y0044550D02*
X0030250Y0044550D01*
X0031001Y0054550D02*
X0030250Y0055301D01*
X0031001Y0054550D02*
X0032502Y0054550D01*
X0033253Y0055301D01*
X0033253Y0056802D01*
X0032502Y0057553D01*
X0031751Y0057553D01*
X0030250Y0056802D01*
X0030250Y0059054D01*
X0033253Y0059054D01*
X0034854Y0059054D02*
X0034854Y0056051D01*
X0036355Y0054550D01*
X0037856Y0056051D01*
X0037856Y0059054D01*
X0037907Y0064550D02*
X0037156Y0065301D01*
X0037907Y0064550D02*
X0039408Y0064550D01*
X0040158Y0065301D01*
X0040158Y0066051D01*
X0039408Y0066802D01*
X0038657Y0066802D01*
X0039408Y0066802D02*
X0040158Y0067553D01*
X0040158Y0068303D01*
X0039408Y0069054D01*
X0037907Y0069054D01*
X0037156Y0068303D01*
X0033253Y0068303D02*
X0033253Y0067553D01*
X0032502Y0066802D01*
X0033253Y0066051D01*
X0033253Y0065301D01*
X0032502Y0064550D01*
X0031001Y0064550D01*
X0030250Y0065301D01*
X0031751Y0066802D02*
X0032502Y0066802D01*
X0033253Y0068303D02*
X0032502Y0069054D01*
X0031001Y0069054D01*
X0030250Y0068303D01*
X0034854Y0065301D02*
X0035605Y0065301D01*
X0035605Y0064550D01*
X0034854Y0064550D01*
X0034854Y0065301D01*
X0041760Y0066051D02*
X0041760Y0069054D01*
X0044762Y0069054D02*
X0044762Y0066051D01*
X0043261Y0064550D01*
X0041760Y0066051D01*
X0071000Y0046800D02*
X0078500Y0046800D01*
X0082500Y0046800D01*
X0090000Y0046800D01*
X0090000Y0017300D01*
X0071000Y0017300D01*
X0071000Y0046800D01*
X0078500Y0046800D02*
X0078502Y0046712D01*
X0078508Y0046623D01*
X0078518Y0046535D01*
X0078531Y0046448D01*
X0078549Y0046361D01*
X0078570Y0046275D01*
X0078595Y0046190D01*
X0078624Y0046107D01*
X0078657Y0046024D01*
X0078693Y0045944D01*
X0078732Y0045865D01*
X0078775Y0045787D01*
X0078822Y0045712D01*
X0078872Y0045639D01*
X0078925Y0045568D01*
X0078981Y0045499D01*
X0079040Y0045433D01*
X0079102Y0045370D01*
X0079166Y0045310D01*
X0079233Y0045252D01*
X0079303Y0045198D01*
X0079375Y0045146D01*
X0079449Y0045098D01*
X0079526Y0045053D01*
X0079604Y0045012D01*
X0079684Y0044974D01*
X0079765Y0044940D01*
X0079848Y0044909D01*
X0079933Y0044882D01*
X0080018Y0044859D01*
X0080104Y0044840D01*
X0080192Y0044824D01*
X0080279Y0044812D01*
X0080367Y0044804D01*
X0080456Y0044800D01*
X0080544Y0044800D01*
X0080633Y0044804D01*
X0080721Y0044812D01*
X0080808Y0044824D01*
X0080896Y0044840D01*
X0080982Y0044859D01*
X0081067Y0044882D01*
X0081152Y0044909D01*
X0081235Y0044940D01*
X0081316Y0044974D01*
X0081396Y0045012D01*
X0081474Y0045053D01*
X0081551Y0045098D01*
X0081625Y0045146D01*
X0081697Y0045198D01*
X0081767Y0045252D01*
X0081834Y0045310D01*
X0081898Y0045370D01*
X0081960Y0045433D01*
X0082019Y0045499D01*
X0082075Y0045568D01*
X0082128Y0045639D01*
X0082178Y0045712D01*
X0082225Y0045787D01*
X0082268Y0045865D01*
X0082307Y0045944D01*
X0082343Y0046024D01*
X0082376Y0046107D01*
X0082405Y0046190D01*
X0082430Y0046275D01*
X0082451Y0046361D01*
X0082469Y0046448D01*
X0082482Y0046535D01*
X0082492Y0046623D01*
X0082498Y0046712D01*
X0082500Y0046800D01*
D12*
X0109791Y0047430D02*
X0121209Y0047430D01*
X0120000Y0046300D02*
X0116000Y0046300D01*
X0116000Y0042300D01*
X0120000Y0042300D01*
X0120000Y0041300D02*
X0116000Y0041300D01*
X0116000Y0037300D01*
X0120000Y0037300D01*
X0120000Y0036300D02*
X0116000Y0036300D01*
X0116000Y0032300D01*
X0120000Y0032300D01*
X0120000Y0031300D02*
X0116000Y0031300D01*
X0116000Y0027300D01*
X0120000Y0027300D01*
X0121209Y0026170D02*
X0109791Y0026170D01*
X0111000Y0027300D02*
X0115000Y0027300D01*
X0115000Y0031300D01*
X0111000Y0031300D01*
X0111000Y0032300D02*
X0115000Y0032300D01*
X0115000Y0036300D01*
X0111000Y0036300D01*
X0111000Y0037300D02*
X0115000Y0037300D01*
X0115000Y0041300D01*
X0111000Y0041300D01*
X0111000Y0042300D02*
X0115000Y0042300D01*
X0115000Y0046300D01*
X0111000Y0046300D01*
X0114000Y0045300D02*
X0114000Y0043300D01*
X0117000Y0043300D02*
X0117000Y0045300D01*
X0117000Y0040300D02*
X0117000Y0038300D01*
X0114000Y0038300D02*
X0114000Y0040300D01*
X0114000Y0035300D02*
X0114000Y0033300D01*
X0117000Y0033300D02*
X0117000Y0035300D01*
X0117000Y0030300D02*
X0117000Y0028300D01*
X0114000Y0028300D02*
X0114000Y0030300D01*
M02*
