G75*
%MOIN*%
%OFA0B0*%
%FSLAX25Y25*%
%IPPOS*%
%LPD*%
%AMOC8*
5,1,8,0,0,1.08239X$1,22.5*
%
%ADD10C,0.00600*%
%ADD11C,0.00800*%
%ADD12R,0.04134X0.04252*%
%ADD13R,0.03937X0.04331*%
%ADD14R,0.06890X0.01772*%
%ADD15R,0.08071X0.02992*%
%ADD16R,0.15000X0.07600*%
%ADD17C,0.03175*%
%ADD18C,0.04000*%
%ADD19C,0.03200*%
%ADD20C,0.01600*%
%ADD21C,0.05000*%
%ADD22C,0.02400*%
%ADD23C,0.02781*%
D10*
X0093300Y0008917D02*
X0093867Y0008350D01*
X0094434Y0008917D01*
X0095001Y0008350D01*
X0095569Y0008917D01*
X0095569Y0010619D01*
X0096983Y0010619D02*
X0096983Y0008917D01*
X0097550Y0008350D01*
X0098117Y0008917D01*
X0098685Y0008350D01*
X0099252Y0008917D01*
X0099252Y0010619D01*
X0100666Y0010619D02*
X0100666Y0008917D01*
X0101233Y0008350D01*
X0101801Y0008917D01*
X0102368Y0008350D01*
X0102935Y0008917D01*
X0102935Y0010619D01*
X0104349Y0008917D02*
X0104917Y0008917D01*
X0104917Y0008350D01*
X0104349Y0008350D01*
X0104349Y0008917D01*
X0106191Y0008350D02*
X0106191Y0010619D01*
X0106758Y0010619D01*
X0107325Y0010051D01*
X0107892Y0010619D01*
X0108460Y0010051D01*
X0108460Y0008350D01*
X0107325Y0008350D02*
X0107325Y0010051D01*
X0109874Y0010619D02*
X0110441Y0010619D01*
X0110441Y0008350D01*
X0109874Y0008350D02*
X0111008Y0008350D01*
X0112330Y0008917D02*
X0112897Y0008350D01*
X0114598Y0008350D01*
X0116013Y0008350D02*
X0116013Y0010619D01*
X0117147Y0010619D02*
X0117714Y0010619D01*
X0117147Y0010619D02*
X0116013Y0009484D01*
X0114598Y0010619D02*
X0112897Y0010619D01*
X0112330Y0010051D01*
X0112330Y0008917D01*
X0110441Y0011753D02*
X0110441Y0012320D01*
X0119082Y0010051D02*
X0119082Y0008917D01*
X0119649Y0008350D01*
X0120783Y0008350D01*
X0121351Y0008917D01*
X0121351Y0010051D01*
X0120783Y0010619D01*
X0119649Y0010619D01*
X0119082Y0010051D01*
X0122765Y0010051D02*
X0123332Y0010619D01*
X0124467Y0010619D01*
X0125034Y0010051D01*
X0125034Y0008350D01*
X0126448Y0008917D02*
X0127015Y0009484D01*
X0128717Y0009484D01*
X0128717Y0010051D02*
X0128717Y0008350D01*
X0127015Y0008350D01*
X0126448Y0008917D01*
X0128150Y0010619D02*
X0128717Y0010051D01*
X0128150Y0010619D02*
X0127015Y0010619D01*
X0130131Y0011753D02*
X0130699Y0011753D01*
X0130699Y0008350D01*
X0131266Y0008350D02*
X0130131Y0008350D01*
X0132587Y0008350D02*
X0133154Y0008350D01*
X0133154Y0008917D01*
X0132587Y0008917D01*
X0132587Y0008350D01*
X0134428Y0008917D02*
X0134996Y0008350D01*
X0136130Y0008350D01*
X0136697Y0008917D01*
X0136697Y0010051D01*
X0136130Y0010619D01*
X0134996Y0010619D01*
X0134428Y0010051D01*
X0134428Y0008917D01*
X0138112Y0008350D02*
X0138112Y0010619D01*
X0139246Y0010619D02*
X0139813Y0010619D01*
X0139246Y0010619D02*
X0138112Y0009484D01*
X0141181Y0008917D02*
X0141748Y0008350D01*
X0143449Y0008350D01*
X0143449Y0007783D02*
X0143449Y0010619D01*
X0141748Y0010619D01*
X0141181Y0010051D01*
X0141181Y0008917D01*
X0142882Y0007216D02*
X0143449Y0007783D01*
X0142882Y0007216D02*
X0142315Y0007216D01*
X0122765Y0008350D02*
X0122765Y0011753D01*
X0093300Y0010619D02*
X0093300Y0008917D01*
D11*
X0104650Y0014700D02*
X0104650Y0017903D01*
X0106251Y0019504D01*
X0107853Y0017903D01*
X0107853Y0014700D01*
X0109806Y0014700D02*
X0109806Y0019504D01*
X0112208Y0019504D01*
X0113009Y0018703D01*
X0113009Y0017102D01*
X0112208Y0016301D01*
X0109806Y0016301D01*
X0111408Y0016301D02*
X0113009Y0014700D01*
X0114963Y0014700D02*
X0118166Y0014700D01*
X0116564Y0014700D02*
X0116564Y0019504D01*
X0114963Y0017903D01*
X0120119Y0018703D02*
X0120119Y0015501D01*
X0123322Y0018703D01*
X0123322Y0015501D01*
X0122521Y0014700D01*
X0120920Y0014700D01*
X0120119Y0015501D01*
X0120119Y0018703D02*
X0120920Y0019504D01*
X0122521Y0019504D01*
X0123322Y0018703D01*
X0125276Y0018703D02*
X0126076Y0019504D01*
X0127678Y0019504D01*
X0128478Y0018703D01*
X0128478Y0017903D01*
X0125276Y0014700D01*
X0128478Y0014700D01*
X0130432Y0015501D02*
X0133635Y0018703D01*
X0133635Y0015501D01*
X0132834Y0014700D01*
X0131233Y0014700D01*
X0130432Y0015501D01*
X0130432Y0018703D01*
X0131233Y0019504D01*
X0132834Y0019504D01*
X0133635Y0018703D01*
X0107853Y0017102D02*
X0104650Y0017102D01*
D12*
X0101445Y0053050D03*
X0094555Y0053050D03*
X0114555Y0053050D03*
X0121445Y0053050D03*
X0132055Y0056800D03*
X0138945Y0056800D03*
X0072695Y0053050D03*
X0065805Y0053050D03*
X0066445Y0066800D03*
X0059555Y0066800D03*
D13*
X0059654Y0060550D03*
X0066346Y0060550D03*
X0051346Y0056800D03*
X0044654Y0056800D03*
X0044654Y0046800D03*
X0051346Y0046800D03*
X0051346Y0034300D03*
X0044654Y0034300D03*
X0044654Y0026800D03*
X0051346Y0026800D03*
X0051346Y0020550D03*
X0044654Y0020550D03*
X0044654Y0014300D03*
X0051346Y0014300D03*
X0082154Y0053050D03*
X0088846Y0053050D03*
X0132154Y0048050D03*
X0138846Y0048050D03*
X0138846Y0040550D03*
X0132154Y0040550D03*
X0132154Y0033050D03*
X0138846Y0033050D03*
X0138846Y0025550D03*
X0132154Y0025550D03*
D14*
X0094673Y0025402D03*
X0094673Y0022843D03*
X0094673Y0020284D03*
X0094673Y0027961D03*
X0094673Y0030520D03*
X0094673Y0033080D03*
X0094673Y0035639D03*
X0094673Y0038198D03*
X0094673Y0040757D03*
X0094673Y0043316D03*
X0066327Y0043316D03*
X0066327Y0040757D03*
X0066327Y0038198D03*
X0066327Y0035639D03*
X0066327Y0033080D03*
X0066327Y0030520D03*
X0066327Y0027961D03*
X0066327Y0025402D03*
X0066327Y0022843D03*
X0066327Y0020284D03*
D15*
X0108492Y0029300D03*
X0108492Y0034300D03*
X0108492Y0039300D03*
X0108492Y0044300D03*
X0122508Y0044300D03*
X0122508Y0039300D03*
X0122508Y0034300D03*
X0122508Y0029300D03*
D16*
X0020500Y0026800D03*
X0020500Y0016800D03*
X0020500Y0036800D03*
X0020500Y0046800D03*
X0020500Y0056800D03*
X0020500Y0066800D03*
D17*
X0033000Y0008050D03*
X0038000Y0010550D03*
X0040500Y0020550D03*
X0058000Y0035550D03*
X0058000Y0040550D03*
X0076750Y0049300D03*
X0076750Y0053050D03*
X0076750Y0056800D03*
X0070500Y0065550D03*
X0051750Y0051800D03*
X0033000Y0054300D03*
X0033000Y0046800D03*
X0093000Y0046800D03*
X0096750Y0046800D03*
X0105500Y0053050D03*
X0125500Y0053050D03*
X0143000Y0056800D03*
X0143000Y0048050D03*
X0143000Y0040550D03*
X0143000Y0033050D03*
X0143000Y0025550D03*
D18*
X0138846Y0025550D01*
X0138846Y0033050D02*
X0143000Y0033050D01*
X0143000Y0040550D02*
X0138846Y0040550D01*
X0138846Y0048050D02*
X0143000Y0048050D01*
X0125500Y0053050D02*
X0121445Y0053050D01*
X0105500Y0053050D02*
X0101445Y0053050D01*
X0096750Y0046800D02*
X0093000Y0046800D01*
X0076750Y0049300D02*
X0073000Y0053050D01*
X0076750Y0056800D01*
X0076750Y0053050D02*
X0073000Y0053050D01*
X0072695Y0053050D01*
X0070500Y0065550D02*
X0069250Y0066800D01*
X0066445Y0066800D01*
X0059555Y0066800D02*
X0059250Y0066800D01*
X0138945Y0056800D02*
X0143000Y0056800D01*
X0044654Y0020550D02*
X0040500Y0020550D01*
D19*
X0065500Y0044300D02*
X0065500Y0052745D01*
X0065805Y0053050D01*
X0065805Y0060009D01*
X0066346Y0060550D01*
X0059654Y0060550D02*
X0059654Y0066702D01*
X0059555Y0066800D01*
X0093000Y0046800D02*
X0093000Y0044300D01*
X0096750Y0044300D01*
X0096750Y0046800D01*
D20*
X0093000Y0046800D02*
X0093000Y0044989D01*
X0094673Y0043316D01*
X0094673Y0040757D02*
X0090293Y0040757D01*
X0088000Y0043050D01*
X0088000Y0052204D01*
X0088846Y0053050D01*
X0094555Y0053050D01*
X0082154Y0053050D02*
X0081750Y0052646D01*
X0081750Y0048050D01*
X0078000Y0044300D01*
X0078000Y0041800D01*
X0081898Y0038198D02*
X0087045Y0033050D01*
X0088000Y0033050D01*
X0088000Y0029300D02*
X0086661Y0027961D01*
X0066327Y0027961D01*
X0066327Y0025402D02*
X0058148Y0025402D01*
X0056750Y0026800D01*
X0051346Y0026800D01*
X0056780Y0030520D02*
X0053000Y0034300D01*
X0051346Y0034300D01*
X0056780Y0030520D02*
X0066327Y0030520D01*
X0066327Y0033080D02*
X0076780Y0033080D01*
X0078000Y0034300D01*
X0081898Y0038198D02*
X0066327Y0038198D01*
X0066327Y0035639D02*
X0059161Y0035639D01*
X0058000Y0035550D01*
X0058000Y0040550D02*
X0058207Y0040757D01*
X0066327Y0040757D01*
X0066327Y0043316D02*
X0066327Y0043473D01*
X0065500Y0044300D01*
X0094673Y0040757D02*
X0098507Y0040757D01*
X0102050Y0044300D01*
X0108492Y0044300D01*
X0108305Y0044487D01*
X0108492Y0039300D02*
X0100500Y0039300D01*
X0099398Y0038198D01*
X0094673Y0038198D01*
X0094673Y0035639D02*
X0101161Y0035639D01*
X0102150Y0036250D01*
X0104530Y0033080D02*
X0105750Y0034300D01*
X0108492Y0034300D01*
X0113000Y0034300D01*
X0115500Y0036800D01*
X0115500Y0052105D01*
X0114555Y0053050D01*
X0128404Y0044300D02*
X0132154Y0048050D01*
X0132154Y0056702D01*
X0132055Y0056800D01*
X0128404Y0044300D02*
X0128000Y0044300D01*
X0122508Y0044300D01*
X0122508Y0044792D01*
X0130904Y0039300D02*
X0132154Y0040550D01*
X0130904Y0039300D02*
X0128000Y0039300D01*
X0122508Y0039300D01*
X0122508Y0034300D02*
X0128000Y0034300D01*
X0130904Y0034300D01*
X0132154Y0033050D01*
X0122508Y0029300D02*
X0122508Y0026042D01*
X0123000Y0025550D01*
X0132154Y0025550D01*
X0123000Y0025550D02*
X0103000Y0025550D01*
X0100589Y0027961D01*
X0094673Y0027961D01*
X0094673Y0025402D02*
X0080352Y0025402D01*
X0065500Y0010550D01*
X0038000Y0010550D01*
X0034250Y0006800D02*
X0033000Y0008050D01*
X0034250Y0006800D02*
X0066750Y0006800D01*
X0080234Y0020284D01*
X0094673Y0020284D01*
X0104250Y0029300D02*
X0108492Y0029300D01*
X0104250Y0029300D02*
X0103030Y0030520D01*
X0094673Y0030520D01*
X0094673Y0033080D02*
X0104530Y0033080D01*
X0119250Y0029300D02*
X0122508Y0029300D01*
X0066327Y0022843D02*
X0060293Y0022843D01*
X0059250Y0021800D01*
X0059250Y0016800D01*
X0056750Y0014300D01*
X0051346Y0014300D01*
D21*
X0059250Y0066800D02*
X0020500Y0066800D01*
D22*
X0044654Y0065954D02*
X0051631Y0066358D01*
X0051631Y0056516D01*
X0051750Y0056396D01*
X0051750Y0051800D01*
X0051750Y0047204D01*
X0051346Y0046800D01*
X0044654Y0046800D02*
X0033000Y0046800D01*
X0033000Y0054300D02*
X0042154Y0054300D01*
X0044654Y0056800D01*
X0051346Y0056800D02*
X0051631Y0056516D01*
X0051631Y0066358D02*
X0059250Y0066800D01*
X0030500Y0036800D02*
X0020500Y0036800D01*
X0030500Y0036800D02*
X0033000Y0034300D01*
X0044654Y0034300D01*
X0044654Y0026800D02*
X0020500Y0026800D01*
X0020500Y0016800D02*
X0030500Y0016800D01*
X0033000Y0014300D01*
X0044654Y0014300D01*
X0051346Y0020550D02*
X0051346Y0026800D01*
D23*
X0078000Y0034300D03*
X0088000Y0033050D03*
X0088000Y0029300D03*
X0102150Y0036250D03*
X0078000Y0041800D03*
X0128000Y0039300D03*
X0128000Y0034300D03*
X0128000Y0044300D03*
M02*
