G75*
%MOIN*%
%OFA0B0*%
%FSLAX25Y25*%
%IPPOS*%
%LPD*%
%AMOC8*
5,1,8,0,0,1.08239X$1,22.5*
%
%ADD10C,0.00900*%
%ADD11C,0.00700*%
%ADD12R,0.04934X0.05052*%
%ADD13R,0.04737X0.05131*%
%ADD14R,0.07690X0.02572*%
%ADD15R,0.08871X0.03792*%
%ADD16R,0.15800X0.08400*%
%ADD17C,0.03975*%
%ADD18C,0.03581*%
D10*
X0104700Y0014750D02*
X0104700Y0017886D01*
X0106268Y0019454D01*
X0107836Y0017886D01*
X0107836Y0014750D01*
X0109856Y0014750D02*
X0109856Y0019454D01*
X0112208Y0019454D01*
X0112992Y0018670D01*
X0112992Y0017102D01*
X0112208Y0016318D01*
X0109856Y0016318D01*
X0111424Y0016318D02*
X0112992Y0014750D01*
X0115013Y0014750D02*
X0118149Y0014750D01*
X0116581Y0014750D02*
X0116581Y0019454D01*
X0115013Y0017886D01*
X0120169Y0018670D02*
X0120169Y0015534D01*
X0123305Y0018670D01*
X0123305Y0015534D01*
X0122521Y0014750D01*
X0120953Y0014750D01*
X0120169Y0015534D01*
X0120169Y0018670D02*
X0120953Y0019454D01*
X0122521Y0019454D01*
X0123305Y0018670D01*
X0125326Y0018670D02*
X0126110Y0019454D01*
X0127678Y0019454D01*
X0128462Y0018670D01*
X0128462Y0017886D01*
X0125326Y0014750D01*
X0128462Y0014750D01*
X0130482Y0015534D02*
X0133618Y0018670D01*
X0133618Y0015534D01*
X0132834Y0014750D01*
X0131266Y0014750D01*
X0130482Y0015534D01*
X0130482Y0018670D01*
X0131266Y0019454D01*
X0132834Y0019454D01*
X0133618Y0018670D01*
X0107836Y0017102D02*
X0104700Y0017102D01*
D11*
X0110475Y0012253D02*
X0110475Y0011703D01*
X0110475Y0010602D02*
X0110475Y0008400D01*
X0111025Y0008400D02*
X0109924Y0008400D01*
X0108443Y0008400D02*
X0108443Y0010051D01*
X0107892Y0010602D01*
X0107342Y0010051D01*
X0107342Y0008400D01*
X0106241Y0008400D02*
X0106241Y0010602D01*
X0106791Y0010602D01*
X0107342Y0010051D01*
X0104950Y0008950D02*
X0104950Y0008400D01*
X0104399Y0008400D01*
X0104399Y0008950D01*
X0104950Y0008950D01*
X0102918Y0008950D02*
X0102368Y0008400D01*
X0101817Y0008950D01*
X0101267Y0008400D01*
X0100716Y0008950D01*
X0100716Y0010602D01*
X0099235Y0010602D02*
X0099235Y0008950D01*
X0098685Y0008400D01*
X0098134Y0008950D01*
X0097584Y0008400D01*
X0097033Y0008950D01*
X0097033Y0010602D01*
X0095552Y0010602D02*
X0095552Y0008950D01*
X0095001Y0008400D01*
X0094451Y0008950D01*
X0093900Y0008400D01*
X0093350Y0008950D01*
X0093350Y0010602D01*
X0102918Y0010602D02*
X0102918Y0008950D01*
X0109924Y0010602D02*
X0110475Y0010602D01*
X0112380Y0010051D02*
X0112380Y0008950D01*
X0112930Y0008400D01*
X0114581Y0008400D01*
X0116063Y0008400D02*
X0116063Y0010602D01*
X0117164Y0010602D02*
X0117714Y0010602D01*
X0117164Y0010602D02*
X0116063Y0009501D01*
X0114581Y0010602D02*
X0112930Y0010602D01*
X0112380Y0010051D01*
X0119132Y0010051D02*
X0119132Y0008950D01*
X0119682Y0008400D01*
X0120783Y0008400D01*
X0121334Y0008950D01*
X0121334Y0010051D01*
X0120783Y0010602D01*
X0119682Y0010602D01*
X0119132Y0010051D01*
X0122815Y0010051D02*
X0123366Y0010602D01*
X0124467Y0010602D01*
X0125017Y0010051D01*
X0125017Y0008400D01*
X0126498Y0008950D02*
X0127049Y0009501D01*
X0128700Y0009501D01*
X0128700Y0010051D02*
X0128700Y0008400D01*
X0127049Y0008400D01*
X0126498Y0008950D01*
X0128150Y0010602D02*
X0128700Y0010051D01*
X0128150Y0010602D02*
X0127049Y0010602D01*
X0130181Y0011703D02*
X0130732Y0011703D01*
X0130732Y0008400D01*
X0131282Y0008400D02*
X0130181Y0008400D01*
X0132637Y0008400D02*
X0133187Y0008400D01*
X0133187Y0008950D01*
X0132637Y0008950D01*
X0132637Y0008400D01*
X0134478Y0008950D02*
X0135029Y0008400D01*
X0136130Y0008400D01*
X0136680Y0008950D01*
X0136680Y0010051D01*
X0136130Y0010602D01*
X0135029Y0010602D01*
X0134478Y0010051D01*
X0134478Y0008950D01*
X0138162Y0008400D02*
X0138162Y0010602D01*
X0139263Y0010602D02*
X0139813Y0010602D01*
X0139263Y0010602D02*
X0138162Y0009501D01*
X0141231Y0010051D02*
X0141231Y0008950D01*
X0141781Y0008400D01*
X0143433Y0008400D01*
X0143433Y0007850D02*
X0143433Y0010602D01*
X0141781Y0010602D01*
X0141231Y0010051D01*
X0143433Y0007850D02*
X0142882Y0007299D01*
X0142332Y0007299D01*
X0122815Y0008400D02*
X0122815Y0011703D01*
D12*
X0121445Y0053050D03*
X0114555Y0053050D03*
X0101445Y0053050D03*
X0094555Y0053050D03*
X0072695Y0053050D03*
X0065805Y0053050D03*
X0066445Y0066800D03*
X0059555Y0066800D03*
X0132055Y0056800D03*
X0138945Y0056800D03*
D13*
X0138846Y0048050D03*
X0132154Y0048050D03*
X0132154Y0040550D03*
X0138846Y0040550D03*
X0138846Y0033050D03*
X0132154Y0033050D03*
X0132154Y0025550D03*
X0138846Y0025550D03*
X0088846Y0053050D03*
X0082154Y0053050D03*
X0066346Y0060550D03*
X0059654Y0060550D03*
X0051346Y0056800D03*
X0044654Y0056800D03*
X0044654Y0046800D03*
X0051346Y0046800D03*
X0051346Y0034300D03*
X0044654Y0034300D03*
X0044654Y0026800D03*
X0051346Y0026800D03*
X0051346Y0020550D03*
X0044654Y0020550D03*
X0044654Y0014300D03*
X0051346Y0014300D03*
D14*
X0066327Y0020284D03*
X0066327Y0022843D03*
X0066327Y0025402D03*
X0066327Y0027961D03*
X0066327Y0030520D03*
X0066327Y0033080D03*
X0066327Y0035639D03*
X0066327Y0038198D03*
X0066327Y0040757D03*
X0066327Y0043316D03*
X0094673Y0043316D03*
X0094673Y0040757D03*
X0094673Y0038198D03*
X0094673Y0035639D03*
X0094673Y0033080D03*
X0094673Y0030520D03*
X0094673Y0027961D03*
X0094673Y0025402D03*
X0094673Y0022843D03*
X0094673Y0020284D03*
D15*
X0108492Y0029300D03*
X0108492Y0034300D03*
X0108492Y0039300D03*
X0108492Y0044300D03*
X0122508Y0044300D03*
X0122508Y0039300D03*
X0122508Y0034300D03*
X0122508Y0029300D03*
D16*
X0020500Y0026800D03*
X0020500Y0016800D03*
X0020500Y0036800D03*
X0020500Y0046800D03*
X0020500Y0056800D03*
X0020500Y0066800D03*
D17*
X0033000Y0008050D03*
X0038000Y0010550D03*
X0040500Y0020550D03*
X0058000Y0035550D03*
X0058000Y0040550D03*
X0076750Y0049300D03*
X0076750Y0053050D03*
X0076750Y0056800D03*
X0070500Y0065550D03*
X0051750Y0051800D03*
X0033000Y0054300D03*
X0033000Y0046800D03*
X0093000Y0046800D03*
X0096750Y0046800D03*
X0105500Y0053050D03*
X0125500Y0053050D03*
X0143000Y0056800D03*
X0143000Y0048050D03*
X0143000Y0040550D03*
X0143000Y0033050D03*
X0143000Y0025550D03*
D18*
X0128000Y0034300D03*
X0128000Y0039300D03*
X0128000Y0044300D03*
X0102150Y0036250D03*
X0088000Y0033050D03*
X0088000Y0029300D03*
X0078000Y0034300D03*
X0078000Y0041800D03*
M02*
