G75*
%MOIN*%
%OFA0B0*%
%FSLAX25Y25*%
%IPPOS*%
%LPD*%
%AMOC8*
5,1,8,0,0,1.08239X$1,22.5*
%
%ADD10C,0.00400*%
%ADD11R,0.15000X0.07600*%
%ADD12C,0.05200*%
%ADD13C,0.01600*%
%ADD14C,0.06600*%
%ADD15C,0.03175*%
%ADD16C,0.02400*%
D10*
X0042182Y0005600D02*
X0042182Y0007601D01*
X0043383Y0007601D01*
X0043783Y0007201D01*
X0043783Y0006400D01*
X0043383Y0006000D01*
X0042182Y0006000D01*
X0042182Y0005600D02*
X0042582Y0005199D01*
X0042983Y0005199D01*
X0044731Y0007601D02*
X0045131Y0007601D01*
X0045932Y0006801D01*
X0045932Y0007601D02*
X0045932Y0006000D01*
X0046909Y0006400D02*
X0046909Y0007201D01*
X0047309Y0007601D01*
X0048110Y0007601D01*
X0048510Y0007201D01*
X0048510Y0006400D01*
X0048110Y0006000D01*
X0047309Y0006000D01*
X0046909Y0006400D01*
X0049399Y0006400D02*
X0049399Y0006000D01*
X0049799Y0006000D01*
X0049799Y0006400D01*
X0049399Y0006400D01*
X0050717Y0006000D02*
X0051518Y0006000D01*
X0051118Y0006000D02*
X0051118Y0008402D01*
X0051518Y0008402D01*
X0052495Y0007201D02*
X0052495Y0006000D01*
X0053696Y0006000D01*
X0054096Y0006400D01*
X0053696Y0006801D01*
X0052495Y0006801D01*
X0052495Y0007201D02*
X0052895Y0007601D01*
X0053696Y0007601D01*
X0055073Y0007201D02*
X0055073Y0006000D01*
X0055073Y0007201D02*
X0055473Y0007601D01*
X0056274Y0007601D01*
X0056674Y0007201D01*
X0057651Y0007201D02*
X0058052Y0007601D01*
X0058852Y0007601D01*
X0059253Y0007201D01*
X0059253Y0006400D01*
X0058852Y0006000D01*
X0058052Y0006000D01*
X0057651Y0006400D01*
X0057651Y0007201D01*
X0056674Y0008402D02*
X0056674Y0006000D01*
X0060200Y0007601D02*
X0060600Y0007601D01*
X0061401Y0006801D01*
X0061401Y0007601D02*
X0061401Y0006000D01*
X0062378Y0006000D02*
X0063579Y0006000D01*
X0063979Y0006400D01*
X0063979Y0007201D01*
X0063579Y0007601D01*
X0062378Y0007601D01*
X0065298Y0007601D02*
X0065298Y0006000D01*
X0065698Y0006000D02*
X0064897Y0006000D01*
X0066675Y0006000D02*
X0066675Y0007201D01*
X0067075Y0007601D01*
X0067476Y0007201D01*
X0067476Y0006000D01*
X0068276Y0006000D02*
X0068276Y0007601D01*
X0067876Y0007601D01*
X0067476Y0007201D01*
X0065698Y0007601D02*
X0065298Y0007601D01*
X0065298Y0008402D02*
X0065298Y0008802D01*
X0069165Y0006400D02*
X0069165Y0006000D01*
X0069565Y0006000D01*
X0069565Y0006400D01*
X0069165Y0006400D01*
X0070542Y0006400D02*
X0070943Y0006000D01*
X0071343Y0006400D01*
X0071743Y0006000D01*
X0072144Y0006400D01*
X0072144Y0007601D01*
X0073120Y0007601D02*
X0073120Y0006400D01*
X0073521Y0006000D01*
X0073921Y0006400D01*
X0074321Y0006000D01*
X0074722Y0006400D01*
X0074722Y0007601D01*
X0075699Y0007601D02*
X0075699Y0006400D01*
X0076099Y0006000D01*
X0076499Y0006400D01*
X0076900Y0006000D01*
X0077300Y0006400D01*
X0077300Y0007601D01*
X0070542Y0007601D02*
X0070542Y0006400D01*
D11*
X0020500Y0006800D03*
X0020500Y0016800D03*
X0020500Y0026800D03*
X0020500Y0036800D03*
X0020500Y0046800D03*
X0020500Y0056800D03*
X0020500Y0066800D03*
D12*
X0083000Y0016800D03*
X0083000Y0006800D03*
D13*
X0078699Y0010702D02*
X0077976Y0011001D01*
X0076624Y0011001D01*
X0076499Y0010950D01*
X0076375Y0011001D01*
X0074045Y0011001D01*
X0073921Y0010950D01*
X0073797Y0011001D01*
X0071467Y0011001D01*
X0071343Y0010950D01*
X0071219Y0011001D01*
X0069866Y0011001D01*
X0069409Y0010812D01*
X0068953Y0011001D01*
X0067907Y0011001D01*
X0067224Y0011685D01*
X0065974Y0012202D01*
X0064621Y0012202D01*
X0063372Y0011685D01*
X0062688Y0011001D01*
X0058883Y0011001D01*
X0058600Y0011284D01*
X0057351Y0011802D01*
X0055998Y0011802D01*
X0054748Y0011284D01*
X0054438Y0010974D01*
X0054372Y0011001D01*
X0053727Y0011001D01*
X0053444Y0011284D01*
X0052194Y0011802D01*
X0050441Y0011802D01*
X0049192Y0011284D01*
X0048873Y0010965D01*
X0048786Y0011001D01*
X0048117Y0011001D01*
X0047434Y0011001D01*
X0047434Y0011001D01*
X0046633Y0011001D01*
X0046620Y0010996D01*
X0046608Y0011001D01*
X0043391Y0011001D01*
X0042707Y0011001D01*
X0041506Y0011001D01*
X0040256Y0010484D01*
X0039300Y0009527D01*
X0038782Y0008278D01*
X0038782Y0005000D01*
X0031200Y0005000D01*
X0031200Y0011237D01*
X0030967Y0011800D01*
X0031200Y0012363D01*
X0031200Y0021237D01*
X0030967Y0021800D01*
X0031200Y0022363D01*
X0031200Y0031237D01*
X0030967Y0031800D01*
X0031200Y0032363D01*
X0031200Y0041237D01*
X0030967Y0041800D01*
X0031200Y0042363D01*
X0031200Y0042800D01*
X0069343Y0042800D01*
X0071213Y0040931D01*
X0071213Y0040848D01*
X0071941Y0039088D01*
X0073288Y0037741D01*
X0075048Y0037013D01*
X0076952Y0037013D01*
X0078500Y0037654D01*
X0080048Y0037013D01*
X0081952Y0037013D01*
X0083712Y0037741D01*
X0085059Y0039088D01*
X0085787Y0040848D01*
X0085787Y0042752D01*
X0085059Y0044512D01*
X0083712Y0045859D01*
X0081952Y0046587D01*
X0081869Y0046587D01*
X0074766Y0053691D01*
X0073296Y0054300D01*
X0034657Y0054300D01*
X0031200Y0057757D01*
X0031200Y0061237D01*
X0030713Y0062413D01*
X0029813Y0063313D01*
X0029800Y0063318D01*
X0029800Y0066000D01*
X0021300Y0066000D01*
X0021300Y0067600D01*
X0029800Y0067600D01*
X0029800Y0068600D01*
X0087300Y0068600D01*
X0087300Y0020702D01*
X0086285Y0021717D01*
X0084154Y0022600D01*
X0081846Y0022600D01*
X0079715Y0021717D01*
X0078083Y0020085D01*
X0077200Y0017954D01*
X0077200Y0015646D01*
X0078083Y0013515D01*
X0079715Y0011883D01*
X0079915Y0011800D01*
X0079715Y0011717D01*
X0078699Y0010702D01*
X0079389Y0011391D02*
X0067517Y0011391D01*
X0063078Y0011391D02*
X0058343Y0011391D01*
X0055006Y0011391D02*
X0053186Y0011391D01*
X0049449Y0011391D02*
X0031136Y0011391D01*
X0031200Y0009793D02*
X0039565Y0009793D01*
X0038782Y0008194D02*
X0031200Y0008194D01*
X0031200Y0006596D02*
X0038782Y0006596D01*
X0042707Y0011001D02*
X0042707Y0011001D01*
X0048786Y0011001D02*
X0048786Y0011001D01*
X0048786Y0011001D01*
X0031200Y0012990D02*
X0078608Y0012990D01*
X0077638Y0014588D02*
X0031200Y0014588D01*
X0031200Y0016187D02*
X0077200Y0016187D01*
X0077200Y0017785D02*
X0031200Y0017785D01*
X0031200Y0019384D02*
X0077792Y0019384D01*
X0078980Y0020982D02*
X0031200Y0020982D01*
X0031200Y0022581D02*
X0081800Y0022581D01*
X0084200Y0022581D02*
X0087300Y0022581D01*
X0087300Y0024179D02*
X0031200Y0024179D01*
X0031200Y0025778D02*
X0087300Y0025778D01*
X0087300Y0027376D02*
X0031200Y0027376D01*
X0031200Y0028975D02*
X0087300Y0028975D01*
X0087300Y0030573D02*
X0031200Y0030573D01*
X0031121Y0032172D02*
X0087300Y0032172D01*
X0087300Y0033770D02*
X0031200Y0033770D01*
X0031200Y0035369D02*
X0087300Y0035369D01*
X0087300Y0036967D02*
X0031200Y0036967D01*
X0031200Y0038566D02*
X0072464Y0038566D01*
X0071496Y0040164D02*
X0031200Y0040164D01*
X0030982Y0041763D02*
X0070380Y0041763D01*
X0071000Y0046800D02*
X0020500Y0046800D01*
X0026500Y0056800D02*
X0033000Y0050300D01*
X0072500Y0050300D01*
X0081000Y0041800D01*
X0085504Y0040164D02*
X0087300Y0040164D01*
X0087300Y0038566D02*
X0084536Y0038566D01*
X0085787Y0041763D02*
X0087300Y0041763D01*
X0087300Y0043361D02*
X0085535Y0043361D01*
X0084611Y0044960D02*
X0087300Y0044960D01*
X0087300Y0046558D02*
X0082022Y0046558D01*
X0080300Y0048157D02*
X0087300Y0048157D01*
X0087300Y0049755D02*
X0078702Y0049755D01*
X0077103Y0051354D02*
X0087300Y0051354D01*
X0087300Y0052952D02*
X0075504Y0052952D01*
X0071000Y0046800D02*
X0076000Y0041800D01*
X0087300Y0054551D02*
X0034406Y0054551D01*
X0032807Y0056149D02*
X0087300Y0056149D01*
X0087300Y0057748D02*
X0031209Y0057748D01*
X0031200Y0059346D02*
X0087300Y0059346D01*
X0087300Y0060945D02*
X0031200Y0060945D01*
X0030582Y0062543D02*
X0087300Y0062543D01*
X0087300Y0064142D02*
X0029800Y0064142D01*
X0029800Y0065740D02*
X0087300Y0065740D01*
X0087300Y0067339D02*
X0021300Y0067339D01*
X0087020Y0020982D02*
X0087300Y0020982D01*
D14*
X0030500Y0066800D02*
X0020500Y0066800D01*
D15*
X0033000Y0059300D03*
X0039500Y0055300D03*
X0040500Y0060300D03*
X0059000Y0064800D03*
X0059000Y0067800D03*
X0064000Y0067800D03*
X0064000Y0064800D03*
X0076000Y0041800D03*
X0081000Y0041800D03*
X0086000Y0030800D03*
X0086000Y0026800D03*
X0060500Y0038800D03*
X0050500Y0038800D03*
X0036000Y0041300D03*
X0032000Y0041300D03*
D16*
X0026500Y0056800D02*
X0020500Y0056800D01*
M02*
