G75*
%MOIN*%
%OFA0B0*%
%FSLAX25Y25*%
%IPPOS*%
%LPD*%
%AMOC8*
5,1,8,0,0,1.08239X$1,22.5*
%
%ADD10C,0.00400*%
%ADD11R,0.15800X0.08400*%
%ADD12C,0.06000*%
%ADD13C,0.03975*%
D10*
X0042182Y0005600D02*
X0042182Y0007601D01*
X0043383Y0007601D01*
X0043783Y0007201D01*
X0043783Y0006400D01*
X0043383Y0006000D01*
X0042182Y0006000D01*
X0042182Y0005600D02*
X0042582Y0005199D01*
X0042983Y0005199D01*
X0044731Y0007601D02*
X0045131Y0007601D01*
X0045932Y0006801D01*
X0045932Y0007601D02*
X0045932Y0006000D01*
X0046909Y0006400D02*
X0046909Y0007201D01*
X0047309Y0007601D01*
X0048110Y0007601D01*
X0048510Y0007201D01*
X0048510Y0006400D01*
X0048110Y0006000D01*
X0047309Y0006000D01*
X0046909Y0006400D01*
X0049399Y0006400D02*
X0049399Y0006000D01*
X0049799Y0006000D01*
X0049799Y0006400D01*
X0049399Y0006400D01*
X0050717Y0006000D02*
X0051518Y0006000D01*
X0051118Y0006000D02*
X0051118Y0008402D01*
X0051518Y0008402D01*
X0052495Y0007201D02*
X0052495Y0006000D01*
X0053696Y0006000D01*
X0054096Y0006400D01*
X0053696Y0006801D01*
X0052495Y0006801D01*
X0052495Y0007201D02*
X0052895Y0007601D01*
X0053696Y0007601D01*
X0055073Y0007201D02*
X0055073Y0006000D01*
X0055073Y0007201D02*
X0055473Y0007601D01*
X0056274Y0007601D01*
X0056674Y0007201D01*
X0057651Y0007201D02*
X0058052Y0007601D01*
X0058852Y0007601D01*
X0059253Y0007201D01*
X0059253Y0006400D01*
X0058852Y0006000D01*
X0058052Y0006000D01*
X0057651Y0006400D01*
X0057651Y0007201D01*
X0056674Y0008402D02*
X0056674Y0006000D01*
X0060200Y0007601D02*
X0060600Y0007601D01*
X0061401Y0006801D01*
X0061401Y0007601D02*
X0061401Y0006000D01*
X0062378Y0006000D02*
X0063579Y0006000D01*
X0063979Y0006400D01*
X0063979Y0007201D01*
X0063579Y0007601D01*
X0062378Y0007601D01*
X0065298Y0007601D02*
X0065298Y0006000D01*
X0065698Y0006000D02*
X0064897Y0006000D01*
X0066675Y0006000D02*
X0066675Y0007201D01*
X0067075Y0007601D01*
X0067476Y0007201D01*
X0067476Y0006000D01*
X0068276Y0006000D02*
X0068276Y0007601D01*
X0067876Y0007601D01*
X0067476Y0007201D01*
X0065698Y0007601D02*
X0065298Y0007601D01*
X0065298Y0008402D02*
X0065298Y0008802D01*
X0069165Y0006400D02*
X0069165Y0006000D01*
X0069565Y0006000D01*
X0069565Y0006400D01*
X0069165Y0006400D01*
X0070542Y0006400D02*
X0070943Y0006000D01*
X0071343Y0006400D01*
X0071743Y0006000D01*
X0072144Y0006400D01*
X0072144Y0007601D01*
X0073120Y0007601D02*
X0073120Y0006400D01*
X0073521Y0006000D01*
X0073921Y0006400D01*
X0074321Y0006000D01*
X0074722Y0006400D01*
X0074722Y0007601D01*
X0075699Y0007601D02*
X0075699Y0006400D01*
X0076099Y0006000D01*
X0076499Y0006400D01*
X0076900Y0006000D01*
X0077300Y0006400D01*
X0077300Y0007601D01*
X0070542Y0007601D02*
X0070542Y0006400D01*
D11*
X0020500Y0006800D03*
X0020500Y0016800D03*
X0020500Y0026800D03*
X0020500Y0036800D03*
X0020500Y0046800D03*
X0020500Y0056800D03*
X0020500Y0066800D03*
D12*
X0083000Y0016800D03*
X0083000Y0006800D03*
D13*
X0086000Y0026800D03*
X0086000Y0030800D03*
X0081000Y0041800D03*
X0076000Y0041800D03*
X0060500Y0038800D03*
X0050500Y0038800D03*
X0036000Y0041300D03*
X0032000Y0041300D03*
X0039500Y0055300D03*
X0040500Y0060300D03*
X0033000Y0059300D03*
X0059000Y0064800D03*
X0059000Y0067800D03*
X0064000Y0067800D03*
X0064000Y0064800D03*
M02*
