G75*
%MOIN*%
%OFA0B0*%
%FSLAX25Y25*%
%IPPOS*%
%LPD*%
%AMOC8*
5,1,8,0,0,1.08239X$1,22.5*
%
%ADD10C,0.00200*%
%ADD11C,0.01000*%
%ADD12C,0.00500*%
%ADD13C,0.00600*%
%ADD14C,0.01600*%
%ADD15R,0.02300X0.01600*%
D10*
X0039198Y0005267D02*
X0039198Y0006001D01*
X0039565Y0006368D01*
X0041033Y0006368D01*
X0041400Y0006001D01*
X0041400Y0005267D01*
X0041033Y0004900D01*
X0039565Y0004900D01*
X0039198Y0005267D01*
X0040666Y0005634D02*
X0041400Y0006368D01*
X0041400Y0007110D02*
X0041400Y0008578D01*
X0041400Y0007844D02*
X0039198Y0007844D01*
X0039932Y0007110D01*
X0044510Y0023042D02*
X0044143Y0023409D01*
X0044143Y0024143D01*
X0044510Y0024510D01*
X0044510Y0025252D02*
X0044143Y0025619D01*
X0044143Y0026353D01*
X0044510Y0026720D01*
X0044877Y0026720D01*
X0045244Y0026353D01*
X0045611Y0026720D01*
X0045978Y0026720D01*
X0046345Y0026353D01*
X0046345Y0025619D01*
X0045978Y0025252D01*
X0045978Y0024510D02*
X0046345Y0024143D01*
X0046345Y0023409D01*
X0045978Y0023042D01*
X0044510Y0023042D01*
X0045244Y0025986D02*
X0045244Y0026353D01*
X0063198Y0042400D02*
X0063198Y0043134D01*
X0063198Y0042767D02*
X0065400Y0042767D01*
X0065400Y0042400D02*
X0065400Y0043134D01*
X0065033Y0043873D02*
X0065400Y0044240D01*
X0065400Y0044974D01*
X0065033Y0045341D01*
X0065400Y0046083D02*
X0065400Y0047551D01*
X0065400Y0046817D02*
X0063198Y0046817D01*
X0063932Y0046083D01*
X0063565Y0045341D02*
X0063198Y0044974D01*
X0063198Y0044240D01*
X0063565Y0043873D01*
X0065033Y0043873D01*
X0056900Y0057900D02*
X0054698Y0057900D01*
X0054698Y0059001D01*
X0055065Y0059368D01*
X0055799Y0059368D01*
X0056166Y0059001D01*
X0056166Y0057900D01*
X0056166Y0058634D02*
X0056900Y0059368D01*
X0055799Y0060110D02*
X0055799Y0061578D01*
X0054698Y0061211D02*
X0055799Y0060110D01*
X0056900Y0061211D02*
X0054698Y0061211D01*
X0052841Y0060845D02*
X0051373Y0060845D01*
X0052107Y0060845D02*
X0052107Y0063047D01*
X0051373Y0062313D01*
X0050631Y0062680D02*
X0050264Y0063047D01*
X0049530Y0063047D01*
X0049163Y0062680D01*
X0049163Y0061212D01*
X0049530Y0060845D01*
X0050264Y0060845D01*
X0050631Y0061212D01*
X0046900Y0061211D02*
X0046900Y0060477D01*
X0046533Y0060110D01*
X0046900Y0059368D02*
X0046166Y0058634D01*
X0046166Y0059001D02*
X0046166Y0057900D01*
X0046900Y0057900D02*
X0044698Y0057900D01*
X0044698Y0059001D01*
X0045065Y0059368D01*
X0045799Y0059368D01*
X0046166Y0059001D01*
X0045065Y0060110D02*
X0044698Y0060477D01*
X0044698Y0061211D01*
X0045065Y0061578D01*
X0045432Y0061578D01*
X0045799Y0061211D01*
X0046166Y0061578D01*
X0046533Y0061578D01*
X0046900Y0061211D01*
X0045799Y0061211D02*
X0045799Y0060844D01*
X0065950Y0068326D02*
X0066317Y0067959D01*
X0067051Y0067959D01*
X0067418Y0068326D01*
X0068160Y0067959D02*
X0069628Y0069427D01*
X0069628Y0069794D01*
X0069261Y0070161D01*
X0068527Y0070161D01*
X0068160Y0069794D01*
X0067418Y0069794D02*
X0067051Y0070161D01*
X0066317Y0070161D01*
X0065950Y0069794D01*
X0065950Y0068326D01*
X0068160Y0067959D02*
X0069628Y0067959D01*
X0074100Y0067900D02*
X0074100Y0070102D01*
X0075201Y0070102D01*
X0075568Y0069735D01*
X0075568Y0069001D01*
X0075201Y0068634D01*
X0074100Y0068634D01*
X0074834Y0068634D02*
X0075568Y0067900D01*
X0076310Y0067900D02*
X0077778Y0067900D01*
X0077044Y0067900D02*
X0077044Y0070102D01*
X0076310Y0069368D01*
X0081600Y0070102D02*
X0081600Y0067900D01*
X0081600Y0068634D02*
X0082701Y0068634D01*
X0083068Y0069001D01*
X0083068Y0069735D01*
X0082701Y0070102D01*
X0081600Y0070102D01*
X0082334Y0068634D02*
X0083068Y0067900D01*
X0083810Y0067900D02*
X0085278Y0069368D01*
X0085278Y0069735D01*
X0084911Y0070102D01*
X0084177Y0070102D01*
X0083810Y0069735D01*
X0083810Y0067900D02*
X0085278Y0067900D01*
D11*
X0062980Y0040265D02*
X0059634Y0040265D01*
X0062980Y0040265D02*
X0062980Y0023335D01*
X0059634Y0023335D01*
X0051366Y0023335D02*
X0048020Y0023335D01*
X0048020Y0040265D01*
X0051366Y0040265D01*
D12*
X0031751Y0014550D02*
X0030250Y0014550D01*
X0031001Y0014550D02*
X0031001Y0019054D01*
X0031751Y0019054D02*
X0030250Y0019054D01*
X0033319Y0018303D02*
X0033319Y0015301D01*
X0034070Y0014550D01*
X0035571Y0014550D01*
X0036322Y0015301D01*
X0036322Y0018303D01*
X0035571Y0019054D01*
X0034070Y0019054D01*
X0033319Y0018303D01*
X0037923Y0018303D02*
X0038674Y0019054D01*
X0040175Y0019054D01*
X0040926Y0018303D01*
X0040926Y0017553D01*
X0040175Y0016802D01*
X0040926Y0016051D01*
X0040926Y0015301D01*
X0040175Y0014550D01*
X0038674Y0014550D01*
X0037923Y0015301D01*
X0039424Y0016802D02*
X0040175Y0016802D01*
X0037106Y0024550D02*
X0035605Y0024550D01*
X0034854Y0025301D01*
X0035605Y0026802D02*
X0037106Y0026802D01*
X0037856Y0026051D01*
X0037856Y0025301D01*
X0037106Y0024550D01*
X0035605Y0026802D02*
X0034854Y0027553D01*
X0034854Y0028303D01*
X0035605Y0029054D01*
X0037106Y0029054D01*
X0037856Y0028303D01*
X0033253Y0028303D02*
X0032502Y0029054D01*
X0031001Y0029054D01*
X0030250Y0028303D01*
X0030250Y0027553D01*
X0031001Y0026802D01*
X0032502Y0026802D01*
X0033253Y0026051D01*
X0033253Y0025301D01*
X0032502Y0024550D01*
X0031001Y0024550D01*
X0030250Y0025301D01*
X0030250Y0034550D02*
X0031751Y0034550D01*
X0031001Y0034550D02*
X0031001Y0039054D01*
X0031751Y0039054D02*
X0030250Y0039054D01*
X0033319Y0038303D02*
X0033319Y0035301D01*
X0034070Y0034550D01*
X0035571Y0034550D01*
X0036322Y0035301D01*
X0036322Y0038303D01*
X0035571Y0039054D01*
X0034070Y0039054D01*
X0033319Y0038303D01*
X0037923Y0038303D02*
X0038674Y0039054D01*
X0040175Y0039054D01*
X0040926Y0038303D01*
X0040926Y0037553D01*
X0037923Y0034550D01*
X0040926Y0034550D01*
X0040926Y0044550D02*
X0037923Y0044550D01*
X0039424Y0044550D02*
X0039424Y0049054D01*
X0037923Y0047553D01*
X0036322Y0048303D02*
X0036322Y0045301D01*
X0035571Y0044550D01*
X0034070Y0044550D01*
X0033319Y0045301D01*
X0033319Y0048303D01*
X0034070Y0049054D01*
X0035571Y0049054D01*
X0036322Y0048303D01*
X0031751Y0049054D02*
X0030250Y0049054D01*
X0031001Y0049054D02*
X0031001Y0044550D01*
X0031751Y0044550D02*
X0030250Y0044550D01*
X0031001Y0054550D02*
X0030250Y0055301D01*
X0031001Y0054550D02*
X0032502Y0054550D01*
X0033253Y0055301D01*
X0033253Y0056802D01*
X0032502Y0057553D01*
X0031751Y0057553D01*
X0030250Y0056802D01*
X0030250Y0059054D01*
X0033253Y0059054D01*
X0034854Y0059054D02*
X0034854Y0056051D01*
X0036355Y0054550D01*
X0037856Y0056051D01*
X0037856Y0059054D01*
X0037907Y0064550D02*
X0037156Y0065301D01*
X0037907Y0064550D02*
X0039408Y0064550D01*
X0040158Y0065301D01*
X0040158Y0066051D01*
X0039408Y0066802D01*
X0038657Y0066802D01*
X0039408Y0066802D02*
X0040158Y0067553D01*
X0040158Y0068303D01*
X0039408Y0069054D01*
X0037907Y0069054D01*
X0037156Y0068303D01*
X0035605Y0065301D02*
X0035605Y0064550D01*
X0034854Y0064550D01*
X0034854Y0065301D01*
X0035605Y0065301D01*
X0033253Y0065301D02*
X0032502Y0064550D01*
X0031001Y0064550D01*
X0030250Y0065301D01*
X0031751Y0066802D02*
X0032502Y0066802D01*
X0033253Y0066051D01*
X0033253Y0065301D01*
X0032502Y0066802D02*
X0033253Y0067553D01*
X0033253Y0068303D01*
X0032502Y0069054D01*
X0031001Y0069054D01*
X0030250Y0068303D01*
X0041760Y0069054D02*
X0041760Y0066051D01*
X0043261Y0064550D01*
X0044762Y0066051D01*
X0044762Y0069054D01*
D13*
X0045000Y0017800D02*
X0075000Y0017800D01*
X0075000Y0017300D01*
X0075000Y0006300D01*
X0075000Y0005800D01*
X0045000Y0005800D01*
X0044940Y0005802D01*
X0044879Y0005807D01*
X0044820Y0005816D01*
X0044761Y0005829D01*
X0044702Y0005845D01*
X0044645Y0005865D01*
X0044590Y0005888D01*
X0044535Y0005915D01*
X0044483Y0005944D01*
X0044432Y0005977D01*
X0044383Y0006013D01*
X0044337Y0006051D01*
X0044293Y0006093D01*
X0044251Y0006137D01*
X0044213Y0006183D01*
X0044177Y0006232D01*
X0044144Y0006283D01*
X0044115Y0006335D01*
X0044088Y0006390D01*
X0044065Y0006445D01*
X0044045Y0006502D01*
X0044029Y0006561D01*
X0044016Y0006620D01*
X0044007Y0006679D01*
X0044002Y0006740D01*
X0044000Y0006800D01*
X0044000Y0016800D01*
X0044002Y0016860D01*
X0044007Y0016921D01*
X0044016Y0016980D01*
X0044029Y0017039D01*
X0044045Y0017098D01*
X0044065Y0017155D01*
X0044088Y0017210D01*
X0044115Y0017265D01*
X0044144Y0017317D01*
X0044177Y0017368D01*
X0044213Y0017417D01*
X0044251Y0017463D01*
X0044293Y0017507D01*
X0044337Y0017549D01*
X0044383Y0017587D01*
X0044432Y0017623D01*
X0044483Y0017656D01*
X0044535Y0017685D01*
X0044590Y0017712D01*
X0044645Y0017735D01*
X0044702Y0017755D01*
X0044761Y0017771D01*
X0044820Y0017784D01*
X0044879Y0017793D01*
X0044940Y0017798D01*
X0045000Y0017800D01*
X0057500Y0011800D02*
X0059500Y0011800D01*
X0059500Y0014800D01*
X0061000Y0014800D02*
X0061000Y0008800D01*
X0062500Y0008800D01*
X0062500Y0014800D01*
X0061000Y0014800D01*
X0059500Y0011800D02*
X0059500Y0008800D01*
X0064000Y0008800D02*
X0064000Y0011800D01*
X0064000Y0014800D01*
X0064000Y0011800D02*
X0066000Y0011800D01*
X0075000Y0006300D02*
X0076500Y0006300D01*
X0076500Y0017300D01*
X0075000Y0017300D01*
D14*
X0078500Y0013800D02*
X0080000Y0013800D01*
X0080200Y0014000D01*
X0080000Y0009800D02*
X0079000Y0009800D01*
X0080000Y0009800D02*
X0080200Y0009600D01*
D15*
X0077850Y0009800D03*
X0077850Y0013800D03*
M02*
