G75*
%MOIN*%
%OFA0B0*%
%FSLAX25Y25*%
%IPPOS*%
%LPD*%
%AMOC8*
5,1,8,0,0,1.08239X$1,22.5*
%
%ADD10R,0.05118X0.06299*%
%ADD11R,0.04252X0.04134*%
%ADD12R,0.06299X0.04724*%
%ADD13R,0.15000X0.07600*%
%ADD14R,0.02362X0.08661*%
%ADD15C,0.05200*%
%ADD16R,0.04331X0.03937*%
%ADD17C,0.03175*%
%ADD18C,0.04000*%
%ADD19C,0.01600*%
%ADD20C,0.03200*%
%ADD21C,0.02400*%
%ADD22C,0.05000*%
D10*
X0046563Y0066800D03*
X0054437Y0066800D03*
D11*
X0068000Y0065245D03*
X0068000Y0058355D03*
D12*
X0055500Y0038887D03*
X0055500Y0024713D03*
D13*
X0020500Y0016800D03*
X0020500Y0026800D03*
X0020500Y0036800D03*
X0020500Y0046800D03*
X0020500Y0056800D03*
X0020500Y0066800D03*
D14*
X0068000Y0049536D03*
X0073000Y0049536D03*
X0078000Y0049536D03*
X0083000Y0049536D03*
X0083000Y0029064D03*
X0078000Y0029064D03*
X0073000Y0029064D03*
X0068000Y0029064D03*
D15*
X0083000Y0016800D03*
X0083000Y0006800D03*
D16*
X0055500Y0048454D03*
X0055500Y0055146D03*
X0045500Y0055146D03*
X0045500Y0048454D03*
X0075500Y0058454D03*
X0075500Y0065146D03*
X0083000Y0065146D03*
X0083000Y0058454D03*
D17*
X0081000Y0041800D03*
X0076000Y0041800D03*
X0086000Y0030800D03*
X0086000Y0026800D03*
X0060500Y0038800D03*
X0050500Y0038800D03*
X0036000Y0041300D03*
X0032000Y0041300D03*
X0039500Y0055300D03*
X0040500Y0060300D03*
X0033000Y0059300D03*
X0059000Y0064800D03*
X0059000Y0067800D03*
X0064000Y0067800D03*
X0064000Y0064800D03*
D18*
X0059000Y0064800D02*
X0055500Y0064800D01*
X0055500Y0066800D01*
X0055437Y0067800D02*
X0059000Y0067800D01*
X0055437Y0067800D02*
X0054437Y0066800D01*
X0055500Y0038887D02*
X0055413Y0038800D01*
X0050500Y0038800D01*
X0055500Y0038800D02*
X0060500Y0038800D01*
D19*
X0061000Y0044300D02*
X0055500Y0044300D01*
X0055500Y0048454D01*
X0055500Y0044300D02*
X0049500Y0044300D01*
X0040500Y0035300D01*
X0040500Y0021800D01*
X0035500Y0016800D01*
X0020500Y0016800D01*
X0021500Y0035800D02*
X0020500Y0036800D01*
X0021500Y0035800D02*
X0037000Y0035800D01*
X0045500Y0044300D01*
X0045500Y0048454D01*
X0046346Y0049300D01*
X0049000Y0049300D01*
X0051500Y0051800D01*
X0060500Y0051800D01*
X0064000Y0048300D01*
X0064000Y0045300D01*
X0066500Y0042800D01*
X0071000Y0042800D01*
X0073000Y0044800D01*
X0073000Y0049536D01*
X0068000Y0049536D02*
X0068000Y0058355D01*
X0075500Y0058454D02*
X0078000Y0055954D01*
X0078000Y0049536D01*
X0078000Y0043800D01*
X0076000Y0041800D01*
X0072500Y0039300D02*
X0066000Y0039300D01*
X0061000Y0044300D01*
X0072500Y0039300D02*
X0078000Y0033800D01*
X0078000Y0029064D01*
X0073000Y0029064D02*
X0073000Y0023300D01*
X0074000Y0022300D01*
X0085000Y0022300D01*
X0087500Y0019800D01*
X0087500Y0011300D01*
X0083000Y0006800D01*
X0083000Y0016800D02*
X0080500Y0019300D01*
X0068000Y0019300D01*
X0068000Y0029064D01*
X0068000Y0019300D02*
X0058000Y0019300D01*
X0055500Y0021800D01*
X0055500Y0024713D01*
X0038437Y0041763D02*
X0030500Y0041763D01*
X0030500Y0043361D02*
X0040036Y0043361D01*
X0041550Y0044876D02*
X0041300Y0045126D01*
X0040935Y0046008D01*
X0040935Y0050899D01*
X0041300Y0051782D01*
X0041318Y0051800D01*
X0041300Y0051818D01*
X0040935Y0052701D01*
X0040935Y0057592D01*
X0041300Y0058474D01*
X0041900Y0059074D01*
X0041900Y0061800D01*
X0030500Y0061800D01*
X0030500Y0039000D01*
X0035675Y0039000D01*
X0041550Y0044876D01*
X0041466Y0044960D02*
X0030500Y0044960D01*
X0030500Y0046558D02*
X0040935Y0046558D01*
X0040935Y0048157D02*
X0030500Y0048157D01*
X0030500Y0049755D02*
X0040935Y0049755D01*
X0041123Y0051354D02*
X0030500Y0051354D01*
X0030500Y0052952D02*
X0040935Y0052952D01*
X0040935Y0054551D02*
X0030500Y0054551D01*
X0030500Y0056149D02*
X0040935Y0056149D01*
X0040999Y0057748D02*
X0030500Y0057748D01*
X0030500Y0059346D02*
X0041900Y0059346D01*
X0041900Y0060945D02*
X0030500Y0060945D01*
X0030500Y0040164D02*
X0036839Y0040164D01*
X0081000Y0041800D02*
X0081500Y0041800D01*
X0083000Y0043300D01*
X0083000Y0049536D01*
X0083000Y0058454D01*
X0084736Y0030800D02*
X0083000Y0029064D01*
X0083000Y0028800D02*
X0085000Y0026800D01*
X0086000Y0026800D01*
X0086000Y0030800D02*
X0084736Y0030800D01*
D20*
X0068000Y0064800D02*
X0064000Y0064800D01*
X0064000Y0067800D02*
X0068000Y0067800D01*
X0068000Y0065245D01*
X0068000Y0064800D01*
D21*
X0069945Y0060300D02*
X0068000Y0058355D01*
X0063445Y0058355D01*
X0061500Y0060300D01*
X0045500Y0060300D01*
X0045500Y0065737D01*
X0046563Y0066800D01*
X0045500Y0060300D02*
X0045500Y0055146D01*
X0055500Y0055146D01*
X0069945Y0060300D02*
X0070000Y0060300D01*
X0074846Y0065146D01*
X0075500Y0065146D01*
X0083000Y0065146D01*
D22*
X0046563Y0066800D02*
X0020500Y0066800D01*
M02*
