G75*
%MOIN*%
%OFA0B0*%
%FSLAX25Y25*%
%IPPOS*%
%LPD*%
%AMOC8*
5,1,8,0,0,1.08239X$1,22.5*
%
%ADD10R,0.05918X0.07099*%
%ADD11R,0.05052X0.04934*%
%ADD12R,0.07099X0.05524*%
%ADD13R,0.15800X0.08400*%
%ADD14R,0.03162X0.09461*%
%ADD15C,0.06000*%
%ADD16R,0.05131X0.04737*%
%ADD17C,0.03975*%
D10*
X0046563Y0066800D03*
X0054437Y0066800D03*
D11*
X0068000Y0065245D03*
X0068000Y0058355D03*
D12*
X0055500Y0038887D03*
X0055500Y0024713D03*
D13*
X0020500Y0016800D03*
X0020500Y0026800D03*
X0020500Y0036800D03*
X0020500Y0046800D03*
X0020500Y0056800D03*
X0020500Y0066800D03*
D14*
X0068000Y0049536D03*
X0073000Y0049536D03*
X0078000Y0049536D03*
X0083000Y0049536D03*
X0083000Y0029064D03*
X0078000Y0029064D03*
X0073000Y0029064D03*
X0068000Y0029064D03*
D15*
X0083000Y0016800D03*
X0083000Y0006800D03*
D16*
X0055500Y0048454D03*
X0055500Y0055146D03*
X0045500Y0055146D03*
X0045500Y0048454D03*
X0075500Y0058454D03*
X0075500Y0065146D03*
X0083000Y0065146D03*
X0083000Y0058454D03*
D17*
X0081000Y0041800D03*
X0076000Y0041800D03*
X0086000Y0030800D03*
X0086000Y0026800D03*
X0060500Y0038800D03*
X0050500Y0038800D03*
X0036000Y0041300D03*
X0032000Y0041300D03*
X0039500Y0055300D03*
X0040500Y0060300D03*
X0033000Y0059300D03*
X0059000Y0064800D03*
X0059000Y0067800D03*
X0064000Y0067800D03*
X0064000Y0064800D03*
M02*
