G75*
%MOIN*%
%OFA0B0*%
%FSLAX25Y25*%
%IPPOS*%
%LPD*%
%AMOC8*
5,1,8,0,0,1.08239X$1,22.5*
%
%ADD10R,0.04252X0.04134*%
%ADD11R,0.04134X0.04252*%
%ADD12OC8,0.06000*%
%ADD13C,0.05600*%
%ADD14OC8,0.05600*%
%ADD15C,0.06000*%
%ADD16C,0.03175*%
%ADD17C,0.01600*%
%ADD18C,0.02400*%
%ADD19C,0.03200*%
%ADD20C,0.05000*%
%ADD21C,0.06600*%
%ADD22C,0.04000*%
%ADD23C,0.01000*%
D10*
X0036500Y0109555D03*
X0042000Y0109555D03*
X0042000Y0116445D03*
X0036500Y0116445D03*
X0178500Y0046945D03*
X0178500Y0040055D03*
X0186500Y0040055D03*
X0186500Y0046945D03*
X0286000Y0190555D03*
X0291500Y0190555D03*
X0291500Y0197445D03*
X0286000Y0197445D03*
D11*
X0275445Y0206000D03*
X0275445Y0211000D03*
X0268555Y0211000D03*
X0268555Y0206000D03*
X0185445Y0207000D03*
X0185445Y0212000D03*
X0178555Y0212000D03*
X0178555Y0207000D03*
X0172445Y0205500D03*
X0172445Y0211000D03*
X0165555Y0211000D03*
X0165555Y0205500D03*
X0115445Y0207000D03*
X0115445Y0212000D03*
X0108555Y0212000D03*
X0108555Y0207000D03*
X0102445Y0206000D03*
X0102445Y0211500D03*
X0095555Y0211500D03*
X0095555Y0206000D03*
X0061945Y0101000D03*
X0061945Y0096000D03*
X0055055Y0096000D03*
X0055055Y0101000D03*
X0142555Y0101000D03*
X0142555Y0096000D03*
X0149445Y0096000D03*
X0149445Y0101000D03*
X0155055Y0102000D03*
X0155055Y0097000D03*
X0161945Y0097000D03*
X0161945Y0102000D03*
X0212555Y0101500D03*
X0212555Y0096500D03*
X0219445Y0096500D03*
X0225055Y0096000D03*
X0225055Y0101500D03*
X0219445Y0101500D03*
X0231945Y0101500D03*
X0231945Y0096000D03*
X0168445Y0052000D03*
X0168445Y0046000D03*
X0161555Y0046000D03*
X0161555Y0052000D03*
X0212055Y0028000D03*
X0218945Y0028000D03*
X0242555Y0028000D03*
X0249445Y0028000D03*
D12*
X0251500Y0061500D03*
X0241500Y0061500D03*
X0231500Y0061500D03*
X0221500Y0061500D03*
X0211500Y0061500D03*
X0201500Y0061500D03*
X0201500Y0071500D03*
X0211500Y0071500D03*
X0221500Y0071500D03*
X0231500Y0071500D03*
X0241500Y0071500D03*
X0251500Y0071500D03*
X0181500Y0071500D03*
X0171500Y0071500D03*
X0161500Y0071500D03*
X0161500Y0061500D03*
X0171500Y0061500D03*
X0181500Y0061500D03*
X0151500Y0061500D03*
X0141500Y0061500D03*
X0131500Y0061500D03*
X0121500Y0061500D03*
X0111500Y0061500D03*
X0111500Y0071500D03*
X0121500Y0071500D03*
X0131500Y0071500D03*
X0141500Y0071500D03*
X0151500Y0071500D03*
X0155500Y0241500D03*
X0155500Y0251500D03*
X0145500Y0251500D03*
X0145500Y0241500D03*
X0135500Y0241500D03*
X0135500Y0251500D03*
X0125500Y0251500D03*
X0125500Y0241500D03*
X0115500Y0241500D03*
X0115500Y0251500D03*
X0105500Y0251500D03*
X0105500Y0241500D03*
X0095500Y0241500D03*
X0095500Y0251500D03*
X0085500Y0251500D03*
X0085500Y0241500D03*
X0075500Y0241500D03*
X0075500Y0251500D03*
X0165500Y0251500D03*
X0165500Y0241500D03*
X0181500Y0241500D03*
X0181500Y0251500D03*
X0191500Y0251500D03*
X0191500Y0241500D03*
X0201500Y0241500D03*
X0201500Y0251500D03*
X0211500Y0251500D03*
X0211500Y0241500D03*
X0221500Y0241500D03*
X0221500Y0251500D03*
X0231500Y0251500D03*
X0231500Y0241500D03*
X0241500Y0241500D03*
X0241500Y0251500D03*
X0251500Y0251500D03*
X0251500Y0241500D03*
D13*
X0278500Y0188500D03*
X0229500Y0118500D03*
X0188500Y0188500D03*
X0139500Y0118500D03*
X0098500Y0188500D03*
X0049500Y0118500D03*
D14*
X0059500Y0118500D03*
X0069500Y0118500D03*
X0079500Y0118500D03*
X0089500Y0118500D03*
X0099500Y0118500D03*
X0109500Y0118500D03*
X0109500Y0108500D03*
X0099500Y0108500D03*
X0089500Y0108500D03*
X0079500Y0108500D03*
X0069500Y0108500D03*
X0059500Y0108500D03*
X0049500Y0108500D03*
X0119500Y0108500D03*
X0129500Y0108500D03*
X0139500Y0108500D03*
X0149500Y0108500D03*
X0159500Y0108500D03*
X0169500Y0108500D03*
X0179500Y0108500D03*
X0189500Y0108500D03*
X0199500Y0108500D03*
X0209500Y0108500D03*
X0209500Y0118500D03*
X0199500Y0118500D03*
X0189500Y0118500D03*
X0179500Y0118500D03*
X0169500Y0118500D03*
X0159500Y0118500D03*
X0149500Y0118500D03*
X0129500Y0118500D03*
X0119500Y0118500D03*
X0118500Y0188500D03*
X0108500Y0188500D03*
X0108500Y0198500D03*
X0098500Y0198500D03*
X0088500Y0198500D03*
X0078500Y0198500D03*
X0068500Y0198500D03*
X0058500Y0198500D03*
X0048500Y0198500D03*
X0048500Y0188500D03*
X0058500Y0188500D03*
X0068500Y0188500D03*
X0078500Y0188500D03*
X0088500Y0188500D03*
X0118500Y0198500D03*
X0128500Y0198500D03*
X0138500Y0198500D03*
X0138500Y0188500D03*
X0128500Y0188500D03*
X0148500Y0188500D03*
X0158500Y0188500D03*
X0168500Y0188500D03*
X0178500Y0188500D03*
X0178500Y0198500D03*
X0168500Y0198500D03*
X0158500Y0198500D03*
X0148500Y0198500D03*
X0188500Y0198500D03*
X0198500Y0198500D03*
X0208500Y0198500D03*
X0218500Y0198500D03*
X0228500Y0198500D03*
X0238500Y0198500D03*
X0238500Y0188500D03*
X0228500Y0188500D03*
X0218500Y0188500D03*
X0208500Y0188500D03*
X0198500Y0188500D03*
X0248500Y0188500D03*
X0258500Y0188500D03*
X0268500Y0188500D03*
X0268500Y0198500D03*
X0258500Y0198500D03*
X0248500Y0198500D03*
X0278500Y0198500D03*
X0279500Y0118500D03*
X0269500Y0118500D03*
X0259500Y0118500D03*
X0249500Y0118500D03*
X0239500Y0118500D03*
X0239500Y0108500D03*
X0229500Y0108500D03*
X0219500Y0108500D03*
X0219500Y0118500D03*
X0249500Y0108500D03*
X0259500Y0108500D03*
X0269500Y0108500D03*
X0279500Y0108500D03*
D15*
X0024000Y0224500D02*
X0018000Y0224500D01*
X0018000Y0234500D02*
X0024000Y0234500D01*
X0024000Y0244500D02*
X0018000Y0244500D01*
D16*
X0032000Y0226000D03*
X0040500Y0226000D03*
X0046500Y0225000D03*
X0048500Y0229000D03*
X0056000Y0230500D03*
X0073000Y0225000D03*
X0088500Y0224500D03*
X0091000Y0219500D03*
X0091000Y0216000D03*
X0091000Y0212000D03*
X0104500Y0229000D03*
X0108500Y0229000D03*
X0112500Y0229000D03*
X0114500Y0235000D03*
X0140500Y0258000D03*
X0175000Y0229000D03*
X0178500Y0229000D03*
X0182000Y0229000D03*
X0172000Y0222000D03*
X0168500Y0222000D03*
X0165000Y0222000D03*
X0149000Y0223000D03*
X0199500Y0222000D03*
X0218000Y0222000D03*
X0236500Y0238500D03*
X0265000Y0222000D03*
X0268500Y0222000D03*
X0272000Y0222000D03*
X0274000Y0229000D03*
X0278500Y0229000D03*
X0294000Y0235000D03*
X0301500Y0236000D03*
X0233500Y0193500D03*
X0203500Y0193500D03*
X0175000Y0168000D03*
X0158500Y0152500D03*
X0148500Y0155000D03*
X0138500Y0160500D03*
X0133500Y0157000D03*
X0128500Y0164000D03*
X0118500Y0157000D03*
X0107500Y0145000D03*
X0093500Y0151000D03*
X0089500Y0146500D03*
X0079500Y0142500D03*
X0074500Y0138000D03*
X0064500Y0134000D03*
X0063500Y0155000D03*
X0068500Y0160500D03*
X0058500Y0164000D03*
X0043000Y0169500D03*
X0078500Y0155000D03*
X0105500Y0168500D03*
X0154500Y0134000D03*
X0164500Y0138000D03*
X0168500Y0145000D03*
X0179500Y0142500D03*
X0182500Y0146500D03*
X0191000Y0146500D03*
X0224000Y0134000D03*
X0234500Y0138000D03*
X0249500Y0142500D03*
X0259500Y0142500D03*
X0258500Y0161500D03*
X0248500Y0161500D03*
X0238500Y0162000D03*
X0228500Y0164000D03*
X0287500Y0142000D03*
X0285000Y0093500D03*
X0285000Y0089500D03*
X0285000Y0085500D03*
X0303500Y0085500D03*
X0303500Y0089500D03*
X0303500Y0093500D03*
X0291250Y0056250D03*
X0268510Y0047058D03*
X0268500Y0028000D03*
X0254858Y0028000D03*
X0237142Y0028000D03*
X0224500Y0028000D03*
X0206642Y0028000D03*
X0195500Y0056000D03*
X0191500Y0056000D03*
X0187500Y0056000D03*
X0185500Y0066500D03*
X0163494Y0080603D03*
X0159494Y0080603D03*
X0155494Y0080603D03*
X0153500Y0089500D03*
X0149500Y0089500D03*
X0145500Y0089500D03*
X0210000Y0089500D03*
X0213500Y0089500D03*
X0217000Y0089500D03*
X0216000Y0080500D03*
X0219500Y0080500D03*
X0223000Y0080500D03*
X0257500Y0081500D03*
X0066000Y0073000D03*
X0063005Y0080931D03*
X0059505Y0080931D03*
X0056005Y0080931D03*
X0041500Y0089500D03*
X0041500Y0093000D03*
X0038000Y0091500D03*
X0029500Y0207000D03*
X0044500Y0209000D03*
D17*
X0043293Y0207793D01*
X0043000Y0207086D02*
X0043000Y0169500D01*
X0039500Y0160500D02*
X0029500Y0170500D01*
X0029500Y0207000D01*
X0043000Y0207086D02*
X0043002Y0207146D01*
X0043007Y0207207D01*
X0043016Y0207266D01*
X0043029Y0207325D01*
X0043045Y0207384D01*
X0043065Y0207441D01*
X0043088Y0207496D01*
X0043115Y0207551D01*
X0043144Y0207603D01*
X0043177Y0207654D01*
X0043213Y0207703D01*
X0043251Y0207749D01*
X0043293Y0207793D01*
X0046500Y0225000D02*
X0044000Y0227500D01*
X0044000Y0232000D01*
X0046500Y0234500D01*
X0095500Y0234500D01*
X0100500Y0239500D01*
X0100500Y0256000D01*
X0103000Y0258500D01*
X0108500Y0258500D01*
X0115500Y0251500D01*
X0112000Y0246500D02*
X0160086Y0246500D01*
X0160793Y0246793D02*
X0165500Y0251500D01*
X0167000Y0257000D02*
X0151000Y0257000D01*
X0145500Y0251500D01*
X0140500Y0258000D02*
X0144000Y0261500D01*
X0201500Y0261500D01*
X0211500Y0251500D01*
X0221500Y0251500D02*
X0226500Y0256500D01*
X0255500Y0256500D01*
X0258000Y0254000D01*
X0258000Y0244500D01*
X0263000Y0239500D01*
X0298000Y0239500D01*
X0301500Y0236000D01*
X0294000Y0235000D02*
X0148000Y0235000D01*
X0145500Y0237500D01*
X0145500Y0241500D01*
X0135500Y0251500D02*
X0135500Y0252500D01*
X0123000Y0265000D01*
X0053000Y0265000D01*
X0036500Y0248500D01*
X0036500Y0230500D01*
X0032000Y0226000D01*
X0040500Y0226000D02*
X0040500Y0234000D01*
X0045000Y0238500D01*
X0065500Y0238500D01*
X0073500Y0246500D01*
X0088500Y0246500D01*
X0090500Y0248500D01*
X0090500Y0257000D01*
X0095000Y0261500D01*
X0115500Y0261500D01*
X0125500Y0251500D01*
X0125500Y0241500D02*
X0119000Y0235000D01*
X0114500Y0235000D01*
X0110500Y0238000D02*
X0110500Y0244586D01*
X0110793Y0245293D02*
X0112000Y0246500D01*
X0110793Y0245293D02*
X0110751Y0245249D01*
X0110713Y0245203D01*
X0110677Y0245154D01*
X0110644Y0245103D01*
X0110615Y0245051D01*
X0110588Y0244996D01*
X0110565Y0244941D01*
X0110545Y0244884D01*
X0110529Y0244825D01*
X0110516Y0244766D01*
X0110507Y0244707D01*
X0110502Y0244646D01*
X0110500Y0244586D01*
X0110500Y0238000D02*
X0107293Y0234793D01*
X0106586Y0234500D02*
X0100500Y0234500D01*
X0096500Y0230500D01*
X0056000Y0230500D01*
X0052500Y0225000D02*
X0048500Y0229000D01*
X0052500Y0225000D02*
X0073000Y0225000D01*
X0088500Y0224500D02*
X0088707Y0224293D01*
X0089414Y0224000D02*
X0148000Y0224000D01*
X0149000Y0223000D01*
X0160086Y0246500D02*
X0160146Y0246502D01*
X0160207Y0246507D01*
X0160266Y0246516D01*
X0160325Y0246529D01*
X0160384Y0246545D01*
X0160441Y0246565D01*
X0160496Y0246588D01*
X0160551Y0246615D01*
X0160603Y0246644D01*
X0160654Y0246677D01*
X0160703Y0246713D01*
X0160749Y0246751D01*
X0160793Y0246793D01*
X0167000Y0257000D02*
X0177500Y0246500D01*
X0234500Y0246500D01*
X0236500Y0244500D01*
X0236500Y0238500D01*
X0218000Y0222000D02*
X0199500Y0222000D01*
X0203500Y0193500D02*
X0233500Y0193500D01*
X0228500Y0164000D02*
X0128500Y0164000D01*
X0058500Y0164000D01*
X0063500Y0155000D02*
X0078500Y0155000D01*
X0115500Y0155000D01*
X0117000Y0153500D01*
X0147000Y0153500D01*
X0148500Y0155000D01*
X0150000Y0156500D01*
X0243500Y0156500D01*
X0248500Y0161500D01*
X0251000Y0154000D02*
X0160000Y0154000D01*
X0158500Y0152500D01*
X0156500Y0150500D01*
X0115000Y0150500D01*
X0113000Y0152500D01*
X0095000Y0152500D01*
X0093500Y0151000D01*
X0089500Y0146500D02*
X0099500Y0146500D01*
X0102000Y0149000D01*
X0110500Y0149000D01*
X0111500Y0148000D01*
X0162500Y0148000D01*
X0165000Y0150500D01*
X0178500Y0150500D01*
X0182500Y0146500D01*
X0187000Y0151000D01*
X0251000Y0151000D01*
X0259500Y0142500D01*
X0254500Y0143000D02*
X0254500Y0136500D01*
X0255500Y0135500D01*
X0281000Y0135500D01*
X0287500Y0142000D01*
X0258500Y0161500D02*
X0251000Y0154000D01*
X0251000Y0146500D02*
X0254500Y0143000D01*
X0251000Y0146500D02*
X0191000Y0146500D01*
X0179500Y0142500D02*
X0172500Y0142500D01*
X0171500Y0141500D01*
X0084500Y0141500D01*
X0083500Y0142500D01*
X0079500Y0142500D01*
X0068500Y0160500D02*
X0039500Y0160500D01*
X0068500Y0160500D02*
X0138500Y0160500D01*
X0236500Y0160500D01*
X0238500Y0162000D01*
X0175000Y0168000D02*
X0107000Y0168500D01*
X0105500Y0168500D01*
X0118500Y0157000D02*
X0133500Y0157000D01*
X0107500Y0145000D02*
X0168500Y0145000D01*
X0185500Y0066500D02*
X0074500Y0066500D01*
X0068000Y0073000D01*
X0066000Y0073000D01*
X0178500Y0040055D02*
X0178500Y0037667D01*
X0178519Y0037667D01*
X0186500Y0037730D02*
X0186518Y0037730D01*
X0186500Y0037730D02*
X0186500Y0040055D01*
X0251500Y0061500D02*
X0256000Y0061500D01*
X0257500Y0063000D01*
X0257500Y0081500D01*
X0265000Y0219000D02*
X0266346Y0219000D01*
X0107293Y0234793D02*
X0107249Y0234751D01*
X0107203Y0234713D01*
X0107154Y0234677D01*
X0107103Y0234644D01*
X0107051Y0234615D01*
X0106996Y0234588D01*
X0106941Y0234565D01*
X0106884Y0234545D01*
X0106825Y0234529D01*
X0106766Y0234516D01*
X0106707Y0234507D01*
X0106646Y0234502D01*
X0106586Y0234500D01*
X0089414Y0224000D02*
X0089354Y0224002D01*
X0089293Y0224007D01*
X0089234Y0224016D01*
X0089175Y0224029D01*
X0089116Y0224045D01*
X0089059Y0224065D01*
X0089004Y0224088D01*
X0088949Y0224115D01*
X0088897Y0224144D01*
X0088846Y0224177D01*
X0088797Y0224213D01*
X0088751Y0224251D01*
X0088707Y0224293D01*
D18*
X0102445Y0206000D02*
X0102509Y0205998D01*
X0102572Y0205992D01*
X0102635Y0205983D01*
X0102697Y0205969D01*
X0102759Y0205952D01*
X0102819Y0205931D01*
X0102878Y0205907D01*
X0102935Y0205879D01*
X0102991Y0205848D01*
X0103044Y0205813D01*
X0103096Y0205775D01*
X0103145Y0205735D01*
X0103191Y0205691D01*
X0103235Y0205645D01*
X0103275Y0205596D01*
X0103313Y0205544D01*
X0103348Y0205491D01*
X0103379Y0205435D01*
X0103407Y0205378D01*
X0103431Y0205319D01*
X0103452Y0205259D01*
X0103469Y0205197D01*
X0103483Y0205135D01*
X0103492Y0205072D01*
X0103498Y0205009D01*
X0103500Y0204945D01*
X0103500Y0193500D01*
X0108500Y0188500D01*
X0113500Y0193500D01*
X0113500Y0205055D01*
X0115445Y0207000D01*
X0172445Y0205500D02*
X0173500Y0204445D01*
X0173500Y0193500D01*
X0178500Y0188500D01*
X0183500Y0193500D01*
X0183500Y0202000D01*
X0185445Y0203945D01*
X0185445Y0207000D01*
X0179500Y0142500D02*
X0249500Y0142500D01*
X0234500Y0138000D02*
X0164500Y0138000D01*
X0074500Y0138000D01*
X0064500Y0134000D02*
X0154500Y0134000D01*
X0224000Y0134000D01*
X0219500Y0118500D02*
X0214500Y0113500D01*
X0214500Y0105000D01*
X0212555Y0103055D01*
X0212555Y0101500D01*
X0224500Y0103055D02*
X0224500Y0113500D01*
X0219500Y0118500D01*
X0224500Y0103055D02*
X0225055Y0101500D01*
X0155055Y0102000D02*
X0154500Y0102555D01*
X0154500Y0113500D01*
X0149500Y0118500D01*
X0149000Y0118500D01*
X0144500Y0114000D01*
X0144500Y0102945D01*
X0142555Y0101000D01*
X0055055Y0101000D02*
X0054500Y0101555D01*
X0054500Y0113500D01*
X0049500Y0118500D01*
X0237142Y0028000D02*
X0242555Y0028000D01*
X0249445Y0028000D02*
X0254858Y0028000D01*
X0278500Y0188500D02*
X0278500Y0189000D01*
X0273500Y0194000D01*
X0273500Y0204055D01*
X0275445Y0206000D01*
D19*
X0219445Y0101500D02*
X0219445Y0100845D01*
X0219445Y0096500D01*
X0212555Y0096500D02*
X0212555Y0101500D01*
X0212055Y0028000D02*
X0206642Y0028000D01*
X0218945Y0028000D02*
X0224500Y0028000D01*
X0064500Y0080603D02*
X0064170Y0080933D01*
X0059003Y0080933D01*
X0056006Y0080933D01*
X0056005Y0080931D01*
D20*
X0161500Y0061500D02*
X0171500Y0061500D01*
D21*
X0171500Y0054500D01*
X0178942Y0047058D01*
X0186500Y0047058D01*
X0268510Y0047058D01*
X0282058Y0047058D01*
X0291250Y0056250D01*
X0294500Y0059500D01*
X0294500Y0171000D01*
X0289500Y0176000D01*
X0278500Y0176000D01*
X0278500Y0188500D01*
X0278500Y0176000D02*
X0178500Y0175500D01*
X0178500Y0188500D01*
X0178500Y0175500D02*
X0112500Y0175500D01*
X0108500Y0179500D01*
X0108500Y0188500D01*
X0129207Y0208293D02*
X0119293Y0218207D01*
X0118586Y0218500D02*
X0098500Y0218500D01*
X0031000Y0218500D01*
X0021000Y0208500D01*
X0021000Y0095500D01*
X0035897Y0080603D01*
X0064500Y0080603D01*
X0159494Y0080603D01*
X0160502Y0080601D01*
X0191500Y0080500D01*
X0214500Y0080500D01*
X0219500Y0080500D01*
X0221500Y0080500D01*
X0213500Y0089500D02*
X0285000Y0089500D01*
X0285000Y0093500D01*
X0285000Y0089500D02*
X0285000Y0085500D01*
X0303500Y0085500D02*
X0303500Y0054500D01*
X0286500Y0037500D01*
X0157500Y0037500D01*
X0141500Y0053500D01*
X0141000Y0053500D01*
X0141500Y0054000D01*
X0141500Y0061500D01*
X0141000Y0053500D02*
X0126000Y0053500D01*
X0121500Y0058000D01*
X0121500Y0061500D01*
X0149500Y0089500D02*
X0041500Y0089500D01*
X0041000Y0089500D01*
X0049500Y0118500D02*
X0049500Y0125500D01*
X0053000Y0127500D01*
X0149500Y0127500D01*
X0149500Y0118500D01*
X0149500Y0127500D02*
X0219500Y0127500D01*
X0219500Y0118500D01*
X0219500Y0127500D02*
X0291500Y0128000D01*
X0303500Y0093500D02*
X0303500Y0089500D01*
X0303500Y0085500D01*
X0303500Y0093500D01*
X0303500Y0207500D01*
X0282000Y0229000D01*
X0278500Y0229000D01*
X0274000Y0229000D01*
X0182000Y0229000D01*
X0178500Y0229000D01*
X0175000Y0229000D01*
X0112500Y0229000D01*
X0108500Y0229000D01*
X0104500Y0229000D01*
X0118586Y0218500D02*
X0118646Y0218498D01*
X0118707Y0218493D01*
X0118766Y0218484D01*
X0118825Y0218471D01*
X0118884Y0218455D01*
X0118941Y0218435D01*
X0118996Y0218412D01*
X0119051Y0218385D01*
X0119103Y0218356D01*
X0119154Y0218323D01*
X0119203Y0218287D01*
X0119249Y0218249D01*
X0119293Y0218207D01*
X0129207Y0208293D02*
X0129251Y0208251D01*
X0129297Y0208213D01*
X0129346Y0208177D01*
X0129397Y0208144D01*
X0129449Y0208115D01*
X0129504Y0208088D01*
X0129559Y0208065D01*
X0129616Y0208045D01*
X0129675Y0208029D01*
X0129734Y0208016D01*
X0129793Y0208007D01*
X0129854Y0208002D01*
X0129914Y0208000D01*
X0151000Y0208000D01*
X0161207Y0218207D01*
X0161914Y0218500D02*
X0167500Y0218500D01*
X0191000Y0218500D01*
X0202000Y0207500D01*
X0253500Y0207500D01*
X0265000Y0219000D01*
X0161914Y0218500D02*
X0161854Y0218498D01*
X0161793Y0218493D01*
X0161734Y0218484D01*
X0161675Y0218471D01*
X0161616Y0218455D01*
X0161559Y0218435D01*
X0161504Y0218412D01*
X0161449Y0218385D01*
X0161397Y0218356D01*
X0161346Y0218323D01*
X0161297Y0218287D01*
X0161251Y0218249D01*
X0161207Y0218207D01*
X0149500Y0089500D02*
X0213500Y0089500D01*
X0191500Y0080500D02*
X0191500Y0056000D01*
X0268500Y0028000D02*
X0268500Y0027900D01*
X0303500Y0065500D02*
X0303500Y0085500D01*
D22*
X0231945Y0096000D02*
X0231945Y0104555D01*
X0229500Y0108500D01*
X0231945Y0101500D02*
X0231945Y0096000D01*
X0225055Y0096000D02*
X0225055Y0101500D01*
X0219445Y0100845D02*
X0219445Y0108445D01*
X0219500Y0108500D01*
X0219500Y0080500D02*
X0223000Y0080500D01*
X0217500Y0080500D01*
X0217000Y0080000D01*
X0215000Y0080000D01*
X0214500Y0080500D01*
X0212000Y0080500D01*
X0211500Y0081000D01*
X0211000Y0081000D01*
X0186500Y0047058D02*
X0186500Y0046945D01*
X0178500Y0046945D01*
X0178500Y0040055D02*
X0186500Y0040055D01*
X0168445Y0046000D02*
X0168445Y0052000D01*
X0168445Y0058445D01*
X0171500Y0061500D01*
X0161555Y0052000D02*
X0161555Y0046000D01*
X0151500Y0056055D01*
X0151500Y0061500D01*
X0159494Y0080603D02*
X0159994Y0080601D01*
X0160502Y0080601D01*
X0161945Y0097000D02*
X0161945Y0106055D01*
X0159500Y0108500D01*
X0161945Y0102000D02*
X0161945Y0097000D01*
X0155055Y0097000D02*
X0155055Y0102000D01*
X0149445Y0101000D02*
X0149445Y0096000D01*
X0149445Y0101000D02*
X0149445Y0108445D01*
X0149500Y0108500D01*
X0142555Y0101000D02*
X0142555Y0096000D01*
X0061945Y0096000D02*
X0061945Y0101000D01*
X0061945Y0106055D01*
X0059500Y0108500D01*
X0055055Y0101000D02*
X0055055Y0096000D01*
X0049500Y0108500D02*
X0048445Y0109555D01*
X0042000Y0109555D01*
X0036500Y0109555D01*
X0036500Y0116445D02*
X0042000Y0116445D01*
X0047445Y0116445D01*
X0047535Y0116447D01*
X0047624Y0116453D01*
X0047713Y0116463D01*
X0047802Y0116476D01*
X0047890Y0116494D01*
X0047977Y0116515D01*
X0048063Y0116540D01*
X0048148Y0116569D01*
X0048231Y0116601D01*
X0048313Y0116638D01*
X0048394Y0116677D01*
X0048473Y0116720D01*
X0048549Y0116767D01*
X0048624Y0116817D01*
X0048696Y0116870D01*
X0048766Y0116926D01*
X0048833Y0116985D01*
X0048898Y0117047D01*
X0048960Y0117112D01*
X0049019Y0117179D01*
X0049075Y0117249D01*
X0049128Y0117321D01*
X0049178Y0117396D01*
X0049225Y0117473D01*
X0049268Y0117551D01*
X0049307Y0117632D01*
X0049344Y0117714D01*
X0049376Y0117797D01*
X0049405Y0117882D01*
X0049430Y0117968D01*
X0049451Y0118055D01*
X0049469Y0118143D01*
X0049482Y0118232D01*
X0049492Y0118321D01*
X0049498Y0118410D01*
X0049500Y0118500D01*
X0041500Y0093000D02*
X0038000Y0091500D01*
X0041500Y0089500D01*
X0041500Y0093000D01*
X0059003Y0080933D02*
X0059503Y0080933D01*
X0059505Y0080931D01*
X0098500Y0198500D02*
X0095555Y0201445D01*
X0095555Y0206000D01*
X0095555Y0211500D01*
X0091000Y0216000D02*
X0098500Y0218500D01*
X0102445Y0211500D02*
X0102445Y0206000D01*
X0108500Y0206945D02*
X0108555Y0207000D01*
X0108555Y0212000D01*
X0108500Y0206945D02*
X0108500Y0198500D01*
X0115445Y0207000D02*
X0115445Y0212000D01*
X0165555Y0211000D02*
X0165555Y0205500D01*
X0165555Y0201445D01*
X0168500Y0198500D01*
X0172445Y0205500D02*
X0172445Y0211000D01*
X0178555Y0212000D02*
X0178555Y0207000D01*
X0178500Y0206945D01*
X0178500Y0198500D01*
X0185445Y0207000D02*
X0185445Y0212000D01*
X0172000Y0222000D02*
X0168500Y0222000D01*
X0165000Y0222000D01*
X0168500Y0222000D02*
X0168500Y0219500D01*
X0167500Y0218500D01*
X0265000Y0219000D02*
X0265000Y0222000D01*
X0268500Y0222000D01*
X0269000Y0222000D01*
X0269000Y0219000D01*
X0272000Y0219000D01*
X0272000Y0222000D01*
X0272000Y0221000D01*
X0271500Y0221000D01*
X0271500Y0219000D01*
X0266346Y0219000D01*
X0269000Y0222000D02*
X0272000Y0222000D01*
X0268555Y0211000D02*
X0268555Y0206000D01*
X0268555Y0198555D01*
X0268500Y0198500D01*
X0278500Y0198500D02*
X0279555Y0197445D01*
X0286000Y0197445D01*
X0291500Y0197445D01*
X0291500Y0190555D02*
X0286000Y0190555D01*
X0280055Y0190555D01*
X0278500Y0189000D01*
X0275445Y0206000D02*
X0275445Y0211000D01*
D23*
X0005500Y0280461D02*
X0005500Y0006000D01*
X0317201Y0006000D01*
X0317201Y0280461D01*
X0005500Y0280461D01*
X0005500Y0280085D02*
X0317201Y0280085D01*
X0317201Y0279086D02*
X0005500Y0279086D01*
X0005500Y0278088D02*
X0317201Y0278088D01*
X0317201Y0277089D02*
X0005500Y0277089D01*
X0005500Y0276091D02*
X0317201Y0276091D01*
X0317201Y0275092D02*
X0005500Y0275092D01*
X0005500Y0274094D02*
X0317201Y0274094D01*
X0317201Y0273095D02*
X0005500Y0273095D01*
X0005500Y0272097D02*
X0317201Y0272097D01*
X0317201Y0271098D02*
X0005500Y0271098D01*
X0005500Y0270100D02*
X0317201Y0270100D01*
X0317201Y0269101D02*
X0005500Y0269101D01*
X0005500Y0268103D02*
X0051867Y0268103D01*
X0052344Y0268300D02*
X0051131Y0267798D01*
X0050202Y0266869D01*
X0033702Y0250369D01*
X0033200Y0249156D01*
X0033200Y0231867D01*
X0031420Y0230087D01*
X0031187Y0230087D01*
X0029685Y0229465D01*
X0028535Y0228315D01*
X0027913Y0226813D01*
X0027913Y0225187D01*
X0028509Y0223746D01*
X0027715Y0223417D01*
X0016083Y0211785D01*
X0015200Y0209654D01*
X0015200Y0207346D01*
X0015200Y0094346D01*
X0016083Y0092215D01*
X0017715Y0090583D01*
X0032612Y0075686D01*
X0034743Y0074803D01*
X0062323Y0074803D01*
X0061913Y0073813D01*
X0061913Y0072187D01*
X0062535Y0070685D01*
X0063006Y0070214D01*
X0060668Y0071563D01*
X0057922Y0072299D01*
X0055078Y0072299D01*
X0052332Y0071563D01*
X0049869Y0070142D01*
X0047858Y0068131D01*
X0046437Y0065668D01*
X0045701Y0062922D01*
X0045701Y0060078D01*
X0046437Y0057332D01*
X0047858Y0054869D01*
X0049869Y0052858D01*
X0052332Y0051437D01*
X0055078Y0050701D01*
X0057922Y0050701D01*
X0060668Y0051437D01*
X0063131Y0052858D01*
X0065142Y0054869D01*
X0066563Y0057332D01*
X0067299Y0060078D01*
X0067299Y0062922D01*
X0066563Y0065668D01*
X0065142Y0068131D01*
X0063775Y0069498D01*
X0065187Y0068913D01*
X0066813Y0068913D01*
X0067243Y0069091D01*
X0072631Y0063702D01*
X0073844Y0063200D01*
X0106000Y0063200D01*
X0106000Y0059222D01*
X0109222Y0056000D01*
X0113778Y0056000D01*
X0115700Y0057922D01*
X0115700Y0056846D01*
X0116583Y0054715D01*
X0121083Y0050215D01*
X0122715Y0048583D01*
X0124846Y0047700D01*
X0139098Y0047700D01*
X0154215Y0032583D01*
X0156346Y0031700D01*
X0204861Y0031700D01*
X0204319Y0031476D01*
X0203166Y0030322D01*
X0202542Y0028816D01*
X0202542Y0027184D01*
X0203166Y0025678D01*
X0204319Y0024524D01*
X0205826Y0023900D01*
X0208427Y0023900D01*
X0208572Y0023755D01*
X0209491Y0023374D01*
X0214619Y0023374D01*
X0215538Y0023755D01*
X0216241Y0024458D01*
X0216622Y0025377D01*
X0216622Y0030623D01*
X0216241Y0031542D01*
X0216084Y0031700D01*
X0235393Y0031700D01*
X0234826Y0031465D01*
X0233677Y0030315D01*
X0233054Y0028813D01*
X0233054Y0027187D01*
X0233677Y0025685D01*
X0234826Y0024535D01*
X0236329Y0023913D01*
X0237955Y0023913D01*
X0238633Y0024194D01*
X0239072Y0023755D01*
X0239991Y0023374D01*
X0245119Y0023374D01*
X0246038Y0023755D01*
X0246741Y0024458D01*
X0247122Y0025377D01*
X0247122Y0030623D01*
X0246741Y0031542D01*
X0246584Y0031700D01*
X0287654Y0031700D01*
X0289785Y0032583D01*
X0291417Y0034215D01*
X0308417Y0051215D01*
X0309300Y0053346D01*
X0309300Y0208654D01*
X0308417Y0210785D01*
X0287502Y0231700D01*
X0291520Y0231700D01*
X0291685Y0231535D01*
X0293187Y0230913D01*
X0294813Y0230913D01*
X0296315Y0231535D01*
X0297465Y0232685D01*
X0297957Y0233872D01*
X0298035Y0233685D01*
X0299185Y0232535D01*
X0300687Y0231913D01*
X0302313Y0231913D01*
X0303815Y0232535D01*
X0304965Y0233685D01*
X0305587Y0235187D01*
X0305587Y0236813D01*
X0304965Y0238315D01*
X0303815Y0239465D01*
X0302313Y0240087D01*
X0302079Y0240087D01*
X0299869Y0242298D01*
X0298656Y0242800D01*
X0278030Y0242800D01*
X0278131Y0242858D01*
X0280142Y0244869D01*
X0281563Y0247332D01*
X0282299Y0250078D01*
X0282299Y0252922D01*
X0281563Y0255668D01*
X0280142Y0258131D01*
X0278131Y0260142D01*
X0275668Y0261563D01*
X0272922Y0262299D01*
X0270078Y0262299D01*
X0267332Y0261563D01*
X0264869Y0260142D01*
X0262858Y0258131D01*
X0261437Y0255668D01*
X0261218Y0254853D01*
X0260798Y0255869D01*
X0259869Y0256798D01*
X0257369Y0259298D01*
X0256156Y0259800D01*
X0225844Y0259800D01*
X0224631Y0259298D01*
X0222333Y0257000D01*
X0219222Y0257000D01*
X0216500Y0254278D01*
X0213778Y0257000D01*
X0210667Y0257000D01*
X0204298Y0263369D01*
X0203369Y0264298D01*
X0202156Y0264800D01*
X0143344Y0264800D01*
X0142131Y0264298D01*
X0139920Y0262087D01*
X0139687Y0262087D01*
X0138185Y0261465D01*
X0137035Y0260315D01*
X0136413Y0258813D01*
X0136413Y0257187D01*
X0136490Y0257000D01*
X0135667Y0257000D01*
X0124869Y0267798D01*
X0123656Y0268300D01*
X0052344Y0268300D01*
X0050437Y0267104D02*
X0005500Y0267104D01*
X0005500Y0266105D02*
X0049439Y0266105D01*
X0048440Y0265107D02*
X0005500Y0265107D01*
X0005500Y0264108D02*
X0047442Y0264108D01*
X0046443Y0263110D02*
X0005500Y0263110D01*
X0005500Y0262111D02*
X0045445Y0262111D01*
X0044446Y0261113D02*
X0005500Y0261113D01*
X0005500Y0260114D02*
X0043448Y0260114D01*
X0042449Y0259116D02*
X0005500Y0259116D01*
X0005500Y0258117D02*
X0041451Y0258117D01*
X0040452Y0257119D02*
X0005500Y0257119D01*
X0005500Y0256120D02*
X0039453Y0256120D01*
X0038455Y0255122D02*
X0005500Y0255122D01*
X0005500Y0254123D02*
X0037456Y0254123D01*
X0036458Y0253125D02*
X0005500Y0253125D01*
X0005500Y0252126D02*
X0035459Y0252126D01*
X0034461Y0251128D02*
X0005500Y0251128D01*
X0005500Y0250129D02*
X0033603Y0250129D01*
X0033200Y0249131D02*
X0027147Y0249131D01*
X0027115Y0249163D02*
X0025094Y0250000D01*
X0016906Y0250000D01*
X0014884Y0249163D01*
X0013337Y0247615D01*
X0012500Y0245594D01*
X0012500Y0243406D01*
X0013337Y0241384D01*
X0014884Y0239837D01*
X0015699Y0239500D01*
X0014884Y0239163D01*
X0013337Y0237615D01*
X0012500Y0235594D01*
X0012500Y0233406D01*
X0013337Y0231384D01*
X0014884Y0229837D01*
X0016906Y0229000D01*
X0025094Y0229000D01*
X0027115Y0229837D01*
X0028663Y0231384D01*
X0029500Y0233406D01*
X0029500Y0235594D01*
X0028663Y0237615D01*
X0027115Y0239163D01*
X0026301Y0239500D01*
X0027115Y0239837D01*
X0028663Y0241384D01*
X0029500Y0243406D01*
X0029500Y0245594D01*
X0028663Y0247615D01*
X0027115Y0249163D01*
X0028146Y0248132D02*
X0033200Y0248132D01*
X0033200Y0247134D02*
X0028862Y0247134D01*
X0029276Y0246135D02*
X0033200Y0246135D01*
X0033200Y0245137D02*
X0029500Y0245137D01*
X0029500Y0244138D02*
X0033200Y0244138D01*
X0033200Y0243140D02*
X0029390Y0243140D01*
X0028976Y0242141D02*
X0033200Y0242141D01*
X0033200Y0241143D02*
X0028421Y0241143D01*
X0027422Y0240144D02*
X0033200Y0240144D01*
X0033200Y0239146D02*
X0027132Y0239146D01*
X0028131Y0238147D02*
X0033200Y0238147D01*
X0033200Y0237149D02*
X0028856Y0237149D01*
X0029270Y0236150D02*
X0033200Y0236150D01*
X0033200Y0235152D02*
X0029500Y0235152D01*
X0029500Y0234153D02*
X0033200Y0234153D01*
X0033200Y0233155D02*
X0029396Y0233155D01*
X0028982Y0232156D02*
X0033200Y0232156D01*
X0032491Y0231158D02*
X0028436Y0231158D01*
X0027437Y0230159D02*
X0031492Y0230159D01*
X0029380Y0229161D02*
X0025482Y0229161D01*
X0028471Y0228162D02*
X0005500Y0228162D01*
X0005500Y0227164D02*
X0028058Y0227164D01*
X0027913Y0226165D02*
X0005500Y0226165D01*
X0005500Y0225167D02*
X0027921Y0225167D01*
X0028335Y0224168D02*
X0005500Y0224168D01*
X0005500Y0223170D02*
X0027467Y0223170D01*
X0026469Y0222171D02*
X0005500Y0222171D01*
X0005500Y0221172D02*
X0025470Y0221172D01*
X0024472Y0220174D02*
X0005500Y0220174D01*
X0005500Y0219175D02*
X0023473Y0219175D01*
X0022475Y0218177D02*
X0005500Y0218177D01*
X0005500Y0217178D02*
X0021476Y0217178D01*
X0020477Y0216180D02*
X0005500Y0216180D01*
X0005500Y0215181D02*
X0019479Y0215181D01*
X0018480Y0214183D02*
X0005500Y0214183D01*
X0005500Y0213184D02*
X0017482Y0213184D01*
X0016483Y0212186D02*
X0005500Y0212186D01*
X0005500Y0211187D02*
X0015835Y0211187D01*
X0015422Y0210189D02*
X0005500Y0210189D01*
X0005500Y0209190D02*
X0015200Y0209190D01*
X0015200Y0208192D02*
X0005500Y0208192D01*
X0005500Y0207193D02*
X0015200Y0207193D01*
X0015200Y0206195D02*
X0005500Y0206195D01*
X0005500Y0205196D02*
X0015200Y0205196D01*
X0015200Y0204198D02*
X0005500Y0204198D01*
X0005500Y0203199D02*
X0015200Y0203199D01*
X0015200Y0202201D02*
X0005500Y0202201D01*
X0005500Y0201202D02*
X0015200Y0201202D01*
X0015200Y0200204D02*
X0005500Y0200204D01*
X0005500Y0199205D02*
X0015200Y0199205D01*
X0015200Y0198207D02*
X0005500Y0198207D01*
X0005500Y0197208D02*
X0015200Y0197208D01*
X0015200Y0196210D02*
X0005500Y0196210D01*
X0005500Y0195211D02*
X0015200Y0195211D01*
X0015200Y0194213D02*
X0005500Y0194213D01*
X0005500Y0193214D02*
X0015200Y0193214D01*
X0015200Y0192216D02*
X0005500Y0192216D01*
X0005500Y0191217D02*
X0015200Y0191217D01*
X0015200Y0190219D02*
X0005500Y0190219D01*
X0005500Y0189220D02*
X0015200Y0189220D01*
X0015200Y0188222D02*
X0005500Y0188222D01*
X0005500Y0187223D02*
X0015200Y0187223D01*
X0015200Y0186225D02*
X0005500Y0186225D01*
X0005500Y0185226D02*
X0015200Y0185226D01*
X0015200Y0184228D02*
X0005500Y0184228D01*
X0005500Y0183229D02*
X0015200Y0183229D01*
X0015200Y0182231D02*
X0005500Y0182231D01*
X0005500Y0181232D02*
X0015200Y0181232D01*
X0015200Y0180234D02*
X0005500Y0180234D01*
X0005500Y0179235D02*
X0015200Y0179235D01*
X0015200Y0178237D02*
X0005500Y0178237D01*
X0005500Y0177238D02*
X0015200Y0177238D01*
X0015200Y0176239D02*
X0005500Y0176239D01*
X0005500Y0175241D02*
X0015200Y0175241D01*
X0015200Y0174242D02*
X0005500Y0174242D01*
X0005500Y0173244D02*
X0015200Y0173244D01*
X0015200Y0172245D02*
X0005500Y0172245D01*
X0005500Y0171247D02*
X0015200Y0171247D01*
X0015200Y0170248D02*
X0005500Y0170248D01*
X0005500Y0169250D02*
X0015200Y0169250D01*
X0015200Y0168251D02*
X0005500Y0168251D01*
X0005500Y0167253D02*
X0015200Y0167253D01*
X0015200Y0166254D02*
X0005500Y0166254D01*
X0005500Y0165256D02*
X0015200Y0165256D01*
X0015200Y0164257D02*
X0005500Y0164257D01*
X0005500Y0163259D02*
X0015200Y0163259D01*
X0015200Y0162260D02*
X0005500Y0162260D01*
X0005500Y0161262D02*
X0015200Y0161262D01*
X0015200Y0160263D02*
X0005500Y0160263D01*
X0005500Y0159265D02*
X0015200Y0159265D01*
X0015200Y0158266D02*
X0005500Y0158266D01*
X0005500Y0157268D02*
X0015200Y0157268D01*
X0015200Y0156269D02*
X0005500Y0156269D01*
X0005500Y0155271D02*
X0015200Y0155271D01*
X0015200Y0154272D02*
X0005500Y0154272D01*
X0005500Y0153274D02*
X0015200Y0153274D01*
X0015200Y0152275D02*
X0005500Y0152275D01*
X0005500Y0151277D02*
X0015200Y0151277D01*
X0015200Y0150278D02*
X0005500Y0150278D01*
X0005500Y0149280D02*
X0015200Y0149280D01*
X0015200Y0148281D02*
X0005500Y0148281D01*
X0005500Y0147283D02*
X0015200Y0147283D01*
X0015200Y0146284D02*
X0005500Y0146284D01*
X0005500Y0145286D02*
X0015200Y0145286D01*
X0015200Y0144287D02*
X0005500Y0144287D01*
X0005500Y0143289D02*
X0015200Y0143289D01*
X0015200Y0142290D02*
X0005500Y0142290D01*
X0005500Y0141292D02*
X0015200Y0141292D01*
X0015200Y0140293D02*
X0005500Y0140293D01*
X0005500Y0139295D02*
X0015200Y0139295D01*
X0015200Y0138296D02*
X0005500Y0138296D01*
X0005500Y0137298D02*
X0015200Y0137298D01*
X0015200Y0136299D02*
X0005500Y0136299D01*
X0005500Y0135301D02*
X0015200Y0135301D01*
X0015200Y0134302D02*
X0005500Y0134302D01*
X0005500Y0133303D02*
X0015200Y0133303D01*
X0015200Y0132305D02*
X0005500Y0132305D01*
X0005500Y0131306D02*
X0015200Y0131306D01*
X0015200Y0130308D02*
X0005500Y0130308D01*
X0005500Y0129309D02*
X0015200Y0129309D01*
X0015200Y0128311D02*
X0005500Y0128311D01*
X0005500Y0127312D02*
X0015200Y0127312D01*
X0015200Y0126314D02*
X0005500Y0126314D01*
X0005500Y0125315D02*
X0015200Y0125315D01*
X0015200Y0124317D02*
X0005500Y0124317D01*
X0005500Y0123318D02*
X0015200Y0123318D01*
X0015200Y0122320D02*
X0005500Y0122320D01*
X0005500Y0121321D02*
X0015200Y0121321D01*
X0015200Y0120323D02*
X0005500Y0120323D01*
X0005500Y0119324D02*
X0015200Y0119324D01*
X0015200Y0118326D02*
X0005500Y0118326D01*
X0005500Y0117327D02*
X0015200Y0117327D01*
X0015200Y0116329D02*
X0005500Y0116329D01*
X0005500Y0115330D02*
X0015200Y0115330D01*
X0015200Y0114332D02*
X0005500Y0114332D01*
X0005500Y0113333D02*
X0015200Y0113333D01*
X0015200Y0112335D02*
X0005500Y0112335D01*
X0005500Y0111336D02*
X0015200Y0111336D01*
X0015200Y0110338D02*
X0005500Y0110338D01*
X0005500Y0109339D02*
X0015200Y0109339D01*
X0015200Y0108341D02*
X0005500Y0108341D01*
X0005500Y0107342D02*
X0015200Y0107342D01*
X0015200Y0106344D02*
X0005500Y0106344D01*
X0005500Y0105345D02*
X0015200Y0105345D01*
X0015200Y0104347D02*
X0005500Y0104347D01*
X0005500Y0103348D02*
X0015200Y0103348D01*
X0015200Y0102350D02*
X0005500Y0102350D01*
X0005500Y0101351D02*
X0015200Y0101351D01*
X0015200Y0100353D02*
X0005500Y0100353D01*
X0005500Y0099354D02*
X0015200Y0099354D01*
X0015200Y0098356D02*
X0005500Y0098356D01*
X0005500Y0097357D02*
X0015200Y0097357D01*
X0015200Y0096359D02*
X0005500Y0096359D01*
X0005500Y0095360D02*
X0015200Y0095360D01*
X0015200Y0094362D02*
X0005500Y0094362D01*
X0005500Y0093363D02*
X0015607Y0093363D01*
X0016021Y0092365D02*
X0005500Y0092365D01*
X0005500Y0091366D02*
X0016932Y0091366D01*
X0017715Y0090583D02*
X0017715Y0090583D01*
X0017930Y0090368D02*
X0005500Y0090368D01*
X0005500Y0089369D02*
X0018929Y0089369D01*
X0019927Y0088370D02*
X0005500Y0088370D01*
X0005500Y0087372D02*
X0020926Y0087372D01*
X0021924Y0086373D02*
X0005500Y0086373D01*
X0005500Y0085375D02*
X0022923Y0085375D01*
X0023921Y0084376D02*
X0005500Y0084376D01*
X0005500Y0083378D02*
X0024920Y0083378D01*
X0025918Y0082379D02*
X0005500Y0082379D01*
X0005500Y0081381D02*
X0026917Y0081381D01*
X0027915Y0080382D02*
X0005500Y0080382D01*
X0005500Y0079384D02*
X0028914Y0079384D01*
X0029912Y0078385D02*
X0005500Y0078385D01*
X0005500Y0077387D02*
X0030911Y0077387D01*
X0031909Y0076388D02*
X0005500Y0076388D01*
X0005500Y0075390D02*
X0033326Y0075390D01*
X0047438Y0067402D02*
X0005500Y0067402D01*
X0005500Y0068400D02*
X0048128Y0068400D01*
X0049126Y0069399D02*
X0005500Y0069399D01*
X0005500Y0070397D02*
X0050312Y0070397D01*
X0052042Y0071396D02*
X0005500Y0071396D01*
X0005500Y0072394D02*
X0061913Y0072394D01*
X0061913Y0073393D02*
X0005500Y0073393D01*
X0005500Y0074391D02*
X0062152Y0074391D01*
X0062240Y0071396D02*
X0060958Y0071396D01*
X0062688Y0070397D02*
X0062822Y0070397D01*
X0063874Y0069399D02*
X0064013Y0069399D01*
X0064872Y0068400D02*
X0067933Y0068400D01*
X0068931Y0067402D02*
X0065562Y0067402D01*
X0066139Y0066403D02*
X0069930Y0066403D01*
X0070928Y0065405D02*
X0066634Y0065405D01*
X0066901Y0064406D02*
X0071927Y0064406D01*
X0073342Y0063408D02*
X0067169Y0063408D01*
X0067299Y0062409D02*
X0106000Y0062409D01*
X0106000Y0061411D02*
X0067299Y0061411D01*
X0067299Y0060412D02*
X0106000Y0060412D01*
X0106000Y0059414D02*
X0067121Y0059414D01*
X0066854Y0058415D02*
X0106807Y0058415D01*
X0107805Y0057417D02*
X0066586Y0057417D01*
X0066036Y0056418D02*
X0108804Y0056418D01*
X0114196Y0056418D02*
X0115877Y0056418D01*
X0115700Y0057417D02*
X0115195Y0057417D01*
X0116291Y0055420D02*
X0065459Y0055420D01*
X0064693Y0054421D02*
X0116876Y0054421D01*
X0117875Y0053423D02*
X0063695Y0053423D01*
X0062378Y0052424D02*
X0118873Y0052424D01*
X0119872Y0051426D02*
X0060627Y0051426D01*
X0052373Y0051426D02*
X0005500Y0051426D01*
X0005500Y0052424D02*
X0050622Y0052424D01*
X0049305Y0053423D02*
X0005500Y0053423D01*
X0005500Y0054421D02*
X0048306Y0054421D01*
X0047541Y0055420D02*
X0005500Y0055420D01*
X0005500Y0056418D02*
X0046964Y0056418D01*
X0046414Y0057417D02*
X0005500Y0057417D01*
X0005500Y0058415D02*
X0046146Y0058415D01*
X0045879Y0059414D02*
X0005500Y0059414D01*
X0005500Y0060412D02*
X0045701Y0060412D01*
X0045701Y0061411D02*
X0005500Y0061411D01*
X0005500Y0062409D02*
X0045701Y0062409D01*
X0045831Y0063408D02*
X0005500Y0063408D01*
X0005500Y0064406D02*
X0046099Y0064406D01*
X0046366Y0065405D02*
X0005500Y0065405D01*
X0005500Y0066403D02*
X0046861Y0066403D01*
X0033434Y0091268D02*
X0026800Y0097902D01*
X0026800Y0168533D01*
X0037631Y0157702D01*
X0038844Y0157200D01*
X0059987Y0157200D01*
X0059413Y0155813D01*
X0059413Y0154187D01*
X0060035Y0152685D01*
X0061185Y0151535D01*
X0062687Y0150913D01*
X0064313Y0150913D01*
X0065815Y0151535D01*
X0065980Y0151700D01*
X0076020Y0151700D01*
X0076185Y0151535D01*
X0077687Y0150913D01*
X0079313Y0150913D01*
X0080815Y0151535D01*
X0080980Y0151700D01*
X0089413Y0151700D01*
X0089413Y0150587D01*
X0088687Y0150587D01*
X0087185Y0149965D01*
X0086035Y0148815D01*
X0085413Y0147313D01*
X0085413Y0145687D01*
X0085719Y0144948D01*
X0085369Y0145298D01*
X0084156Y0145800D01*
X0081980Y0145800D01*
X0081815Y0145965D01*
X0080313Y0146587D01*
X0078687Y0146587D01*
X0077185Y0145965D01*
X0076035Y0144815D01*
X0075413Y0143313D01*
X0075413Y0142046D01*
X0075313Y0142087D01*
X0073687Y0142087D01*
X0072185Y0141465D01*
X0071035Y0140315D01*
X0070413Y0138813D01*
X0070413Y0137700D01*
X0066248Y0137700D01*
X0065313Y0138087D01*
X0063687Y0138087D01*
X0062185Y0137465D01*
X0061035Y0136315D01*
X0060413Y0134813D01*
X0060413Y0133187D01*
X0061035Y0131685D01*
X0062185Y0130535D01*
X0063687Y0129913D01*
X0065313Y0129913D01*
X0066248Y0130300D01*
X0152752Y0130300D01*
X0153687Y0129913D01*
X0155313Y0129913D01*
X0156248Y0130300D01*
X0222252Y0130300D01*
X0223187Y0129913D01*
X0224813Y0129913D01*
X0226315Y0130535D01*
X0227465Y0131685D01*
X0228087Y0133187D01*
X0228087Y0134300D01*
X0232752Y0134300D01*
X0233687Y0133913D01*
X0235313Y0133913D01*
X0236815Y0134535D01*
X0237965Y0135685D01*
X0238587Y0137187D01*
X0238587Y0138800D01*
X0247752Y0138800D01*
X0248687Y0138413D01*
X0250313Y0138413D01*
X0251200Y0138780D01*
X0251200Y0135844D01*
X0251702Y0134631D01*
X0252702Y0133631D01*
X0253631Y0132702D01*
X0254844Y0132200D01*
X0281656Y0132200D01*
X0282869Y0132702D01*
X0288079Y0137913D01*
X0288313Y0137913D01*
X0289815Y0138535D01*
X0290965Y0139685D01*
X0291587Y0141187D01*
X0291587Y0142813D01*
X0290965Y0144315D01*
X0289815Y0145465D01*
X0288313Y0146087D01*
X0286687Y0146087D01*
X0285185Y0145465D01*
X0284035Y0144315D01*
X0283413Y0142813D01*
X0283413Y0142579D01*
X0279633Y0138800D01*
X0261248Y0138800D01*
X0261815Y0139035D01*
X0262965Y0140185D01*
X0263587Y0141687D01*
X0263587Y0143313D01*
X0262965Y0144815D01*
X0261815Y0145965D01*
X0260313Y0146587D01*
X0260079Y0146587D01*
X0254167Y0152500D01*
X0259079Y0157413D01*
X0259313Y0157413D01*
X0260815Y0158035D01*
X0261965Y0159185D01*
X0262587Y0160687D01*
X0262587Y0162313D01*
X0261965Y0163815D01*
X0260815Y0164965D01*
X0259313Y0165587D01*
X0257687Y0165587D01*
X0256185Y0164965D01*
X0255035Y0163815D01*
X0254413Y0162313D01*
X0254413Y0162079D01*
X0252281Y0159948D01*
X0252587Y0160687D01*
X0252587Y0162313D01*
X0251965Y0163815D01*
X0250815Y0164965D01*
X0249313Y0165587D01*
X0247687Y0165587D01*
X0246185Y0164965D01*
X0245035Y0163815D01*
X0244413Y0162313D01*
X0244413Y0162079D01*
X0242133Y0159800D01*
X0242013Y0159800D01*
X0242587Y0161187D01*
X0242587Y0162813D01*
X0241965Y0164315D01*
X0240815Y0165465D01*
X0239313Y0166087D01*
X0237687Y0166087D01*
X0236185Y0165465D01*
X0235035Y0164315D01*
X0234821Y0163800D01*
X0232587Y0163800D01*
X0232587Y0164813D01*
X0231965Y0166315D01*
X0230815Y0167465D01*
X0229313Y0168087D01*
X0227687Y0168087D01*
X0226185Y0167465D01*
X0226020Y0167300D01*
X0179087Y0167300D01*
X0179087Y0168813D01*
X0178465Y0170315D01*
X0177315Y0171465D01*
X0175813Y0172087D01*
X0174187Y0172087D01*
X0172685Y0171465D01*
X0172538Y0171318D01*
X0107988Y0171793D01*
X0107815Y0171965D01*
X0106313Y0172587D01*
X0104687Y0172587D01*
X0103185Y0171965D01*
X0102035Y0170815D01*
X0101413Y0169313D01*
X0101413Y0167687D01*
X0101573Y0167300D01*
X0060980Y0167300D01*
X0060815Y0167465D01*
X0059313Y0168087D01*
X0057687Y0168087D01*
X0056185Y0167465D01*
X0055035Y0166315D01*
X0054413Y0164813D01*
X0054413Y0163800D01*
X0040867Y0163800D01*
X0032800Y0171867D01*
X0032800Y0204520D01*
X0032965Y0204685D01*
X0033587Y0206187D01*
X0033587Y0207813D01*
X0032965Y0209315D01*
X0031815Y0210465D01*
X0031357Y0210655D01*
X0033402Y0212700D01*
X0042752Y0212700D01*
X0042185Y0212465D01*
X0041035Y0211315D01*
X0040413Y0209813D01*
X0040413Y0209579D01*
X0040355Y0209522D01*
X0040355Y0209522D01*
X0039700Y0207941D01*
X0039700Y0171980D01*
X0039535Y0171815D01*
X0038913Y0170313D01*
X0038913Y0168687D01*
X0039535Y0167185D01*
X0040685Y0166035D01*
X0042187Y0165413D01*
X0043813Y0165413D01*
X0045315Y0166035D01*
X0046465Y0167185D01*
X0047087Y0168687D01*
X0047087Y0170313D01*
X0046465Y0171815D01*
X0046300Y0171980D01*
X0046300Y0183205D01*
X0046305Y0183200D01*
X0050695Y0183200D01*
X0053500Y0186005D01*
X0056305Y0183200D01*
X0060695Y0183200D01*
X0063500Y0186005D01*
X0066305Y0183200D01*
X0070695Y0183200D01*
X0073500Y0186005D01*
X0076305Y0183200D01*
X0080695Y0183200D01*
X0083500Y0186005D01*
X0086305Y0183200D01*
X0090695Y0183200D01*
X0093710Y0186215D01*
X0094007Y0185498D01*
X0095498Y0184007D01*
X0097446Y0183200D01*
X0099554Y0183200D01*
X0101502Y0184007D01*
X0102993Y0185498D01*
X0103800Y0187446D01*
X0103800Y0189554D01*
X0102993Y0191502D01*
X0101502Y0192993D01*
X0100785Y0193290D01*
X0103500Y0196005D01*
X0106305Y0193200D01*
X0110695Y0193200D01*
X0113500Y0196005D01*
X0116005Y0193500D01*
X0113200Y0190695D01*
X0113200Y0186305D01*
X0116305Y0183200D01*
X0120695Y0183200D01*
X0123500Y0186005D01*
X0126305Y0183200D01*
X0130695Y0183200D01*
X0133500Y0186005D01*
X0136305Y0183200D01*
X0140695Y0183200D01*
X0143500Y0186005D01*
X0146305Y0183200D01*
X0150695Y0183200D01*
X0153500Y0186005D01*
X0156305Y0183200D01*
X0160695Y0183200D01*
X0163500Y0186005D01*
X0166305Y0183200D01*
X0170695Y0183200D01*
X0173800Y0186305D01*
X0173800Y0190695D01*
X0170995Y0193500D01*
X0173500Y0196005D01*
X0176305Y0193200D01*
X0180695Y0193200D01*
X0183500Y0196005D01*
X0186215Y0193290D01*
X0185498Y0192993D01*
X0184007Y0191502D01*
X0183200Y0189554D01*
X0183200Y0187446D01*
X0184007Y0185498D01*
X0185498Y0184007D01*
X0187446Y0183200D01*
X0189554Y0183200D01*
X0191502Y0184007D01*
X0192993Y0185498D01*
X0193290Y0186215D01*
X0196305Y0183200D01*
X0200695Y0183200D01*
X0203500Y0186005D01*
X0206305Y0183200D01*
X0210695Y0183200D01*
X0213500Y0186005D01*
X0216305Y0183200D01*
X0220695Y0183200D01*
X0223500Y0186005D01*
X0226305Y0183200D01*
X0230695Y0183200D01*
X0233500Y0186005D01*
X0236305Y0183200D01*
X0240695Y0183200D01*
X0243500Y0186005D01*
X0246305Y0183200D01*
X0250695Y0183200D01*
X0253500Y0186005D01*
X0256305Y0183200D01*
X0260695Y0183200D01*
X0263500Y0186005D01*
X0266305Y0183200D01*
X0270695Y0183200D01*
X0273800Y0186305D01*
X0273800Y0190695D01*
X0270995Y0193500D01*
X0273500Y0196005D01*
X0276305Y0193200D01*
X0278044Y0193200D01*
X0278660Y0192945D01*
X0283215Y0192945D01*
X0283377Y0192878D01*
X0288623Y0192878D01*
X0288750Y0192930D01*
X0288877Y0192878D01*
X0294123Y0192878D01*
X0295042Y0193259D01*
X0295745Y0193962D01*
X0296126Y0194881D01*
X0296126Y0200009D01*
X0295745Y0200928D01*
X0295042Y0201631D01*
X0294123Y0202012D01*
X0288877Y0202012D01*
X0288750Y0201959D01*
X0288623Y0202012D01*
X0283377Y0202012D01*
X0283215Y0201945D01*
X0282550Y0201945D01*
X0280695Y0203800D01*
X0276305Y0203800D01*
X0273500Y0200995D01*
X0273055Y0201440D01*
X0273055Y0203215D01*
X0273122Y0203377D01*
X0273122Y0213623D01*
X0272759Y0214500D01*
X0272895Y0214500D01*
X0274549Y0215185D01*
X0275815Y0216451D01*
X0276500Y0218105D01*
X0276500Y0222895D01*
X0276374Y0223200D01*
X0279598Y0223200D01*
X0297700Y0205098D01*
X0297700Y0056902D01*
X0284098Y0043300D01*
X0190844Y0043300D01*
X0190745Y0043538D01*
X0190042Y0044241D01*
X0189123Y0044622D01*
X0183877Y0044622D01*
X0183715Y0044555D01*
X0181285Y0044555D01*
X0181123Y0044622D01*
X0175877Y0044622D01*
X0174958Y0044241D01*
X0174255Y0043538D01*
X0174156Y0043300D01*
X0166090Y0043300D01*
X0166122Y0043377D01*
X0166122Y0048623D01*
X0166055Y0048785D01*
X0166055Y0049215D01*
X0166122Y0049377D01*
X0166122Y0054623D01*
X0165741Y0055542D01*
X0165038Y0056245D01*
X0164119Y0056626D01*
X0158991Y0056626D01*
X0158072Y0056245D01*
X0157873Y0056046D01*
X0156000Y0057919D01*
X0156000Y0058222D01*
X0157000Y0059222D01*
X0157000Y0063200D01*
X0176000Y0063200D01*
X0176000Y0059222D01*
X0179222Y0056000D01*
X0183413Y0056000D01*
X0183413Y0055187D01*
X0184035Y0053685D01*
X0185185Y0052535D01*
X0186687Y0051913D01*
X0187385Y0051913D01*
X0188215Y0051083D01*
X0190346Y0050200D01*
X0192654Y0050200D01*
X0194785Y0051083D01*
X0195615Y0051913D01*
X0196313Y0051913D01*
X0197815Y0052535D01*
X0198965Y0053685D01*
X0199587Y0055187D01*
X0199587Y0056000D01*
X0203778Y0056000D01*
X0206500Y0058722D01*
X0209222Y0056000D01*
X0213778Y0056000D01*
X0216500Y0058722D01*
X0219222Y0056000D01*
X0223778Y0056000D01*
X0226500Y0058722D01*
X0229222Y0056000D01*
X0233778Y0056000D01*
X0236500Y0058722D01*
X0239222Y0056000D01*
X0243778Y0056000D01*
X0246500Y0058722D01*
X0249222Y0056000D01*
X0253778Y0056000D01*
X0255978Y0058200D01*
X0256656Y0058200D01*
X0257869Y0058702D01*
X0259369Y0060202D01*
X0260298Y0061131D01*
X0260701Y0062104D01*
X0260701Y0060078D01*
X0261437Y0057332D01*
X0262858Y0054869D01*
X0264869Y0052858D01*
X0267332Y0051437D01*
X0270078Y0050701D01*
X0272922Y0050701D01*
X0275668Y0051437D01*
X0278131Y0052858D01*
X0280142Y0054869D01*
X0281563Y0057332D01*
X0282299Y0060078D01*
X0282299Y0062922D01*
X0281563Y0065668D01*
X0280142Y0068131D01*
X0278131Y0070142D01*
X0275668Y0071563D01*
X0272922Y0072299D01*
X0270078Y0072299D01*
X0267332Y0071563D01*
X0264869Y0070142D01*
X0262858Y0068131D01*
X0261437Y0065668D01*
X0260800Y0063292D01*
X0260800Y0079020D01*
X0260965Y0079185D01*
X0261587Y0080687D01*
X0261587Y0082313D01*
X0261013Y0083700D01*
X0279468Y0083700D01*
X0280083Y0082215D01*
X0281715Y0080583D01*
X0283846Y0079700D01*
X0286154Y0079700D01*
X0288285Y0080583D01*
X0289917Y0082215D01*
X0290800Y0084346D01*
X0290800Y0094654D01*
X0289917Y0096785D01*
X0288285Y0098417D01*
X0286154Y0099300D01*
X0283846Y0099300D01*
X0281715Y0098417D01*
X0280083Y0096785D01*
X0279468Y0095300D01*
X0236512Y0095300D01*
X0236512Y0098623D01*
X0236459Y0098750D01*
X0236512Y0098877D01*
X0236512Y0103993D01*
X0237305Y0103200D01*
X0241695Y0103200D01*
X0244500Y0106005D01*
X0247305Y0103200D01*
X0251695Y0103200D01*
X0254500Y0106005D01*
X0257305Y0103200D01*
X0261695Y0103200D01*
X0264500Y0106005D01*
X0267305Y0103200D01*
X0271695Y0103200D01*
X0274500Y0106005D01*
X0277305Y0103200D01*
X0281695Y0103200D01*
X0284800Y0106305D01*
X0284800Y0110695D01*
X0281995Y0113500D01*
X0284800Y0116305D01*
X0284800Y0120695D01*
X0281695Y0123800D01*
X0277305Y0123800D01*
X0274500Y0120995D01*
X0271695Y0123800D01*
X0267305Y0123800D01*
X0264500Y0120995D01*
X0261695Y0123800D01*
X0257305Y0123800D01*
X0254500Y0120995D01*
X0251695Y0123800D01*
X0247305Y0123800D01*
X0244500Y0120995D01*
X0241695Y0123800D01*
X0237305Y0123800D01*
X0234290Y0120785D01*
X0233993Y0121502D01*
X0232502Y0122993D01*
X0230554Y0123800D01*
X0228446Y0123800D01*
X0226498Y0122993D01*
X0225007Y0121502D01*
X0224200Y0119554D01*
X0224200Y0117446D01*
X0225007Y0115498D01*
X0226498Y0114007D01*
X0227215Y0113710D01*
X0224500Y0110995D01*
X0221695Y0113800D01*
X0217305Y0113800D01*
X0214500Y0110995D01*
X0211995Y0113500D01*
X0214800Y0116305D01*
X0214800Y0120695D01*
X0211695Y0123800D01*
X0207305Y0123800D01*
X0204500Y0120995D01*
X0201695Y0123800D01*
X0197305Y0123800D01*
X0194500Y0120995D01*
X0191695Y0123800D01*
X0187305Y0123800D01*
X0184500Y0120995D01*
X0181695Y0123800D01*
X0177305Y0123800D01*
X0174500Y0120995D01*
X0171695Y0123800D01*
X0167305Y0123800D01*
X0164500Y0120995D01*
X0161695Y0123800D01*
X0157305Y0123800D01*
X0154200Y0120695D01*
X0154200Y0116305D01*
X0157005Y0113500D01*
X0154500Y0110995D01*
X0151695Y0113800D01*
X0147305Y0113800D01*
X0144500Y0110995D01*
X0141785Y0113710D01*
X0142502Y0114007D01*
X0143993Y0115498D01*
X0144800Y0117446D01*
X0144800Y0119554D01*
X0143993Y0121502D01*
X0142502Y0122993D01*
X0140554Y0123800D01*
X0138446Y0123800D01*
X0136498Y0122993D01*
X0135007Y0121502D01*
X0134710Y0120785D01*
X0131695Y0123800D01*
X0127305Y0123800D01*
X0124500Y0120995D01*
X0121695Y0123800D01*
X0117305Y0123800D01*
X0114500Y0120995D01*
X0111695Y0123800D01*
X0107305Y0123800D01*
X0104500Y0120995D01*
X0101695Y0123800D01*
X0097305Y0123800D01*
X0094500Y0120995D01*
X0091695Y0123800D01*
X0087305Y0123800D01*
X0084500Y0120995D01*
X0081695Y0123800D01*
X0077305Y0123800D01*
X0074500Y0120995D01*
X0071695Y0123800D01*
X0067305Y0123800D01*
X0064500Y0120995D01*
X0061695Y0123800D01*
X0057305Y0123800D01*
X0054200Y0120695D01*
X0054200Y0116305D01*
X0057005Y0113500D01*
X0054500Y0110995D01*
X0051695Y0113800D01*
X0049956Y0113800D01*
X0049340Y0114055D01*
X0044785Y0114055D01*
X0044623Y0114122D01*
X0039377Y0114122D01*
X0039250Y0114070D01*
X0039123Y0114122D01*
X0033877Y0114122D01*
X0032958Y0113741D01*
X0032255Y0113038D01*
X0031874Y0112119D01*
X0031874Y0106991D01*
X0032255Y0106072D01*
X0032958Y0105369D01*
X0033877Y0104988D01*
X0039123Y0104988D01*
X0039250Y0105041D01*
X0039377Y0104988D01*
X0044623Y0104988D01*
X0044785Y0105055D01*
X0045450Y0105055D01*
X0047305Y0103200D01*
X0051695Y0103200D01*
X0054500Y0106005D01*
X0057305Y0103200D01*
X0057378Y0103200D01*
X0057378Y0095300D01*
X0045418Y0095300D01*
X0045315Y0095549D01*
X0045295Y0095569D01*
X0045284Y0095595D01*
X0044663Y0096201D01*
X0044049Y0096815D01*
X0044023Y0096826D01*
X0044002Y0096846D01*
X0043197Y0097168D01*
X0042395Y0097500D01*
X0042367Y0097500D01*
X0042340Y0097511D01*
X0041472Y0097500D01*
X0040605Y0097500D01*
X0040579Y0097489D01*
X0040550Y0097489D01*
X0039753Y0097147D01*
X0038951Y0096815D01*
X0038931Y0096795D01*
X0036515Y0095759D01*
X0035952Y0095606D01*
X0035699Y0095410D01*
X0035405Y0095284D01*
X0034998Y0094867D01*
X0034537Y0094510D01*
X0034378Y0094232D01*
X0034154Y0094002D01*
X0033938Y0093461D01*
X0033649Y0092955D01*
X0033608Y0092638D01*
X0033489Y0092340D01*
X0033497Y0091758D01*
X0033434Y0091268D01*
X0033447Y0091366D02*
X0033336Y0091366D01*
X0033499Y0092365D02*
X0032338Y0092365D01*
X0031339Y0093363D02*
X0033882Y0093363D01*
X0034452Y0094362D02*
X0030341Y0094362D01*
X0029342Y0095360D02*
X0035583Y0095360D01*
X0037913Y0096359D02*
X0028344Y0096359D01*
X0027345Y0097357D02*
X0040243Y0097357D01*
X0042740Y0097357D02*
X0057378Y0097357D01*
X0057378Y0096359D02*
X0044505Y0096359D01*
X0045393Y0095360D02*
X0057378Y0095360D01*
X0057378Y0098356D02*
X0026800Y0098356D01*
X0026800Y0099354D02*
X0057378Y0099354D01*
X0057378Y0100353D02*
X0026800Y0100353D01*
X0026800Y0101351D02*
X0057378Y0101351D01*
X0057378Y0102350D02*
X0026800Y0102350D01*
X0026800Y0103348D02*
X0047157Y0103348D01*
X0046158Y0104347D02*
X0026800Y0104347D01*
X0026800Y0105345D02*
X0033015Y0105345D01*
X0032142Y0106344D02*
X0026800Y0106344D01*
X0026800Y0107342D02*
X0031874Y0107342D01*
X0031874Y0108341D02*
X0026800Y0108341D01*
X0026800Y0109339D02*
X0031874Y0109339D01*
X0031874Y0110338D02*
X0026800Y0110338D01*
X0026800Y0111336D02*
X0031874Y0111336D01*
X0031963Y0112335D02*
X0026800Y0112335D01*
X0026800Y0113333D02*
X0032550Y0113333D01*
X0026800Y0114332D02*
X0056173Y0114332D01*
X0056838Y0113333D02*
X0052162Y0113333D01*
X0053161Y0112335D02*
X0055839Y0112335D01*
X0054841Y0111336D02*
X0054159Y0111336D01*
X0055174Y0115330D02*
X0026800Y0115330D01*
X0026800Y0116329D02*
X0054200Y0116329D01*
X0054200Y0117327D02*
X0026800Y0117327D01*
X0026800Y0118326D02*
X0054200Y0118326D01*
X0054200Y0119324D02*
X0026800Y0119324D01*
X0026800Y0120323D02*
X0054200Y0120323D01*
X0054826Y0121321D02*
X0026800Y0121321D01*
X0026800Y0122320D02*
X0055825Y0122320D01*
X0056823Y0123318D02*
X0026800Y0123318D01*
X0026800Y0124317D02*
X0297700Y0124317D01*
X0297700Y0125315D02*
X0026800Y0125315D01*
X0026800Y0126314D02*
X0297700Y0126314D01*
X0297700Y0127312D02*
X0026800Y0127312D01*
X0026800Y0128311D02*
X0297700Y0128311D01*
X0297700Y0129309D02*
X0026800Y0129309D01*
X0026800Y0130308D02*
X0062732Y0130308D01*
X0061413Y0131306D02*
X0026800Y0131306D01*
X0026800Y0132305D02*
X0060778Y0132305D01*
X0060413Y0133303D02*
X0026800Y0133303D01*
X0026800Y0134302D02*
X0060413Y0134302D01*
X0060615Y0135301D02*
X0026800Y0135301D01*
X0026800Y0136299D02*
X0061028Y0136299D01*
X0062017Y0137298D02*
X0026800Y0137298D01*
X0026800Y0138296D02*
X0070413Y0138296D01*
X0070612Y0139295D02*
X0026800Y0139295D01*
X0026800Y0140293D02*
X0071026Y0140293D01*
X0072011Y0141292D02*
X0026800Y0141292D01*
X0026800Y0142290D02*
X0075413Y0142290D01*
X0075413Y0143289D02*
X0026800Y0143289D01*
X0026800Y0144287D02*
X0075816Y0144287D01*
X0076505Y0145286D02*
X0026800Y0145286D01*
X0026800Y0146284D02*
X0077955Y0146284D01*
X0081045Y0146284D02*
X0085413Y0146284D01*
X0085413Y0147283D02*
X0026800Y0147283D01*
X0026800Y0148281D02*
X0085814Y0148281D01*
X0086499Y0149280D02*
X0026800Y0149280D01*
X0026800Y0150278D02*
X0087940Y0150278D01*
X0089413Y0151277D02*
X0080192Y0151277D01*
X0076808Y0151277D02*
X0065192Y0151277D01*
X0061808Y0151277D02*
X0026800Y0151277D01*
X0026800Y0152275D02*
X0060444Y0152275D01*
X0059791Y0153274D02*
X0026800Y0153274D01*
X0026800Y0154272D02*
X0059413Y0154272D01*
X0059413Y0155271D02*
X0026800Y0155271D01*
X0026800Y0156269D02*
X0059602Y0156269D01*
X0054413Y0164257D02*
X0040410Y0164257D01*
X0039411Y0165256D02*
X0054596Y0165256D01*
X0055010Y0166254D02*
X0045535Y0166254D01*
X0046493Y0167253D02*
X0055972Y0167253D01*
X0047087Y0169250D02*
X0101413Y0169250D01*
X0101413Y0168251D02*
X0046907Y0168251D01*
X0047087Y0170248D02*
X0101800Y0170248D01*
X0102466Y0171247D02*
X0046701Y0171247D01*
X0046300Y0172245D02*
X0103861Y0172245D01*
X0107139Y0172245D02*
X0297700Y0172245D01*
X0297700Y0171247D02*
X0177534Y0171247D01*
X0178493Y0170248D02*
X0297700Y0170248D01*
X0297700Y0169250D02*
X0178906Y0169250D01*
X0179087Y0168251D02*
X0297700Y0168251D01*
X0297700Y0167253D02*
X0231028Y0167253D01*
X0231990Y0166254D02*
X0297700Y0166254D01*
X0297700Y0165256D02*
X0260113Y0165256D01*
X0261523Y0164257D02*
X0297700Y0164257D01*
X0297700Y0163259D02*
X0262196Y0163259D01*
X0262587Y0162260D02*
X0297700Y0162260D01*
X0297700Y0161262D02*
X0262587Y0161262D01*
X0262412Y0160263D02*
X0297700Y0160263D01*
X0297700Y0159265D02*
X0261998Y0159265D01*
X0261047Y0158266D02*
X0297700Y0158266D01*
X0297700Y0157268D02*
X0258935Y0157268D01*
X0257936Y0156269D02*
X0297700Y0156269D01*
X0297700Y0155271D02*
X0256938Y0155271D01*
X0255939Y0154272D02*
X0297700Y0154272D01*
X0297700Y0153274D02*
X0254941Y0153274D01*
X0254392Y0152275D02*
X0297700Y0152275D01*
X0297700Y0151277D02*
X0255390Y0151277D01*
X0256389Y0150278D02*
X0297700Y0150278D01*
X0297700Y0149280D02*
X0257387Y0149280D01*
X0258386Y0148281D02*
X0297700Y0148281D01*
X0297700Y0147283D02*
X0259384Y0147283D01*
X0261045Y0146284D02*
X0297700Y0146284D01*
X0297700Y0145286D02*
X0289995Y0145286D01*
X0290977Y0144287D02*
X0297700Y0144287D01*
X0297700Y0143289D02*
X0291390Y0143289D01*
X0291587Y0142290D02*
X0297700Y0142290D01*
X0297700Y0141292D02*
X0291587Y0141292D01*
X0291217Y0140293D02*
X0297700Y0140293D01*
X0297700Y0139295D02*
X0290575Y0139295D01*
X0289239Y0138296D02*
X0297700Y0138296D01*
X0297700Y0137298D02*
X0287464Y0137298D01*
X0286466Y0136299D02*
X0297700Y0136299D01*
X0297700Y0135301D02*
X0285467Y0135301D01*
X0284469Y0134302D02*
X0297700Y0134302D01*
X0297700Y0133303D02*
X0283470Y0133303D01*
X0281910Y0132305D02*
X0297700Y0132305D01*
X0297700Y0131306D02*
X0227087Y0131306D01*
X0227722Y0132305D02*
X0254590Y0132305D01*
X0253030Y0133303D02*
X0228087Y0133303D01*
X0225768Y0130308D02*
X0297700Y0130308D01*
X0297700Y0123318D02*
X0282177Y0123318D01*
X0283175Y0122320D02*
X0297700Y0122320D01*
X0297700Y0121321D02*
X0284174Y0121321D01*
X0284800Y0120323D02*
X0297700Y0120323D01*
X0297700Y0119324D02*
X0284800Y0119324D01*
X0284800Y0118326D02*
X0297700Y0118326D01*
X0297700Y0117327D02*
X0284800Y0117327D01*
X0284800Y0116329D02*
X0297700Y0116329D01*
X0297700Y0115330D02*
X0283826Y0115330D01*
X0282827Y0114332D02*
X0297700Y0114332D01*
X0297700Y0113333D02*
X0282162Y0113333D01*
X0283161Y0112335D02*
X0297700Y0112335D01*
X0297700Y0111336D02*
X0284159Y0111336D01*
X0284800Y0110338D02*
X0297700Y0110338D01*
X0297700Y0109339D02*
X0284800Y0109339D01*
X0284800Y0108341D02*
X0297700Y0108341D01*
X0297700Y0107342D02*
X0284800Y0107342D01*
X0284800Y0106344D02*
X0297700Y0106344D01*
X0297700Y0105345D02*
X0283841Y0105345D01*
X0282842Y0104347D02*
X0297700Y0104347D01*
X0297700Y0103348D02*
X0281843Y0103348D01*
X0277157Y0103348D02*
X0271843Y0103348D01*
X0272842Y0104347D02*
X0276158Y0104347D01*
X0275159Y0105345D02*
X0273840Y0105345D01*
X0267157Y0103348D02*
X0261843Y0103348D01*
X0262842Y0104347D02*
X0266158Y0104347D01*
X0265159Y0105345D02*
X0263840Y0105345D01*
X0257157Y0103348D02*
X0251843Y0103348D01*
X0252842Y0104347D02*
X0256158Y0104347D01*
X0255159Y0105345D02*
X0253841Y0105345D01*
X0247157Y0103348D02*
X0241843Y0103348D01*
X0242842Y0104347D02*
X0246158Y0104347D01*
X0245159Y0105345D02*
X0243840Y0105345D01*
X0237157Y0103348D02*
X0236512Y0103348D01*
X0236512Y0102350D02*
X0297700Y0102350D01*
X0297700Y0101351D02*
X0236512Y0101351D01*
X0236512Y0100353D02*
X0297700Y0100353D01*
X0297700Y0099354D02*
X0236512Y0099354D01*
X0236512Y0098356D02*
X0281653Y0098356D01*
X0280655Y0097357D02*
X0236512Y0097357D01*
X0236512Y0096359D02*
X0279906Y0096359D01*
X0279493Y0095360D02*
X0236512Y0095360D01*
X0227378Y0095360D02*
X0224012Y0095360D01*
X0224012Y0095300D02*
X0224012Y0099123D01*
X0224012Y0104123D01*
X0223945Y0104285D01*
X0223945Y0105450D01*
X0224500Y0106005D01*
X0227305Y0103200D01*
X0227378Y0103200D01*
X0227378Y0098877D01*
X0227430Y0098750D01*
X0227378Y0098623D01*
X0227378Y0095300D01*
X0224012Y0095300D01*
X0224012Y0096359D02*
X0227378Y0096359D01*
X0227378Y0097357D02*
X0224012Y0097357D01*
X0224012Y0098356D02*
X0227378Y0098356D01*
X0227378Y0099354D02*
X0224012Y0099354D01*
X0224012Y0100353D02*
X0227378Y0100353D01*
X0227378Y0101351D02*
X0224012Y0101351D01*
X0224012Y0102350D02*
X0227378Y0102350D01*
X0227157Y0103348D02*
X0224012Y0103348D01*
X0223945Y0104347D02*
X0226158Y0104347D01*
X0225159Y0105345D02*
X0223945Y0105345D01*
X0224159Y0111336D02*
X0224841Y0111336D01*
X0225839Y0112335D02*
X0223161Y0112335D01*
X0222162Y0113333D02*
X0226838Y0113333D01*
X0226173Y0114332D02*
X0212827Y0114332D01*
X0212162Y0113333D02*
X0216838Y0113333D01*
X0215839Y0112335D02*
X0213161Y0112335D01*
X0214159Y0111336D02*
X0214841Y0111336D01*
X0214500Y0106005D02*
X0214945Y0105560D01*
X0214945Y0104285D01*
X0214878Y0104123D01*
X0214878Y0095300D01*
X0166512Y0095300D01*
X0166512Y0099623D01*
X0166512Y0103993D01*
X0167305Y0103200D01*
X0171695Y0103200D01*
X0174500Y0106005D01*
X0177305Y0103200D01*
X0181695Y0103200D01*
X0184500Y0106005D01*
X0187305Y0103200D01*
X0191695Y0103200D01*
X0194500Y0106005D01*
X0197305Y0103200D01*
X0201695Y0103200D01*
X0204500Y0106005D01*
X0207305Y0103200D01*
X0211695Y0103200D01*
X0214500Y0106005D01*
X0214945Y0105345D02*
X0213840Y0105345D01*
X0212842Y0104347D02*
X0214945Y0104347D01*
X0214878Y0103348D02*
X0211843Y0103348D01*
X0214878Y0102350D02*
X0166512Y0102350D01*
X0166512Y0103348D02*
X0167157Y0103348D01*
X0166512Y0101351D02*
X0214878Y0101351D01*
X0214878Y0100353D02*
X0166512Y0100353D01*
X0166512Y0099354D02*
X0214878Y0099354D01*
X0214878Y0098356D02*
X0166512Y0098356D01*
X0166512Y0097357D02*
X0214878Y0097357D01*
X0214878Y0096359D02*
X0166512Y0096359D01*
X0166512Y0095360D02*
X0214878Y0095360D01*
X0207157Y0103348D02*
X0201843Y0103348D01*
X0202842Y0104347D02*
X0206158Y0104347D01*
X0205159Y0105345D02*
X0203840Y0105345D01*
X0197157Y0103348D02*
X0191843Y0103348D01*
X0192842Y0104347D02*
X0196158Y0104347D01*
X0195159Y0105345D02*
X0193840Y0105345D01*
X0187157Y0103348D02*
X0181843Y0103348D01*
X0182842Y0104347D02*
X0186158Y0104347D01*
X0185159Y0105345D02*
X0183840Y0105345D01*
X0177157Y0103348D02*
X0171843Y0103348D01*
X0172842Y0104347D02*
X0176158Y0104347D01*
X0175159Y0105345D02*
X0173840Y0105345D01*
X0157378Y0103200D02*
X0157378Y0095300D01*
X0154012Y0095300D01*
X0154012Y0098377D01*
X0154012Y0103623D01*
X0153945Y0103785D01*
X0153945Y0105450D01*
X0154500Y0106005D01*
X0157305Y0103200D01*
X0157378Y0103200D01*
X0157157Y0103348D02*
X0154012Y0103348D01*
X0154012Y0102350D02*
X0157378Y0102350D01*
X0157378Y0101351D02*
X0154012Y0101351D01*
X0154012Y0100353D02*
X0157378Y0100353D01*
X0157378Y0099354D02*
X0154012Y0099354D01*
X0154012Y0098356D02*
X0157378Y0098356D01*
X0157378Y0097357D02*
X0154012Y0097357D01*
X0154012Y0096359D02*
X0157378Y0096359D01*
X0157378Y0095360D02*
X0154012Y0095360D01*
X0153945Y0104347D02*
X0156158Y0104347D01*
X0155159Y0105345D02*
X0153945Y0105345D01*
X0154159Y0111336D02*
X0154841Y0111336D01*
X0155839Y0112335D02*
X0153161Y0112335D01*
X0152162Y0113333D02*
X0156838Y0113333D01*
X0156173Y0114332D02*
X0142827Y0114332D01*
X0142162Y0113333D02*
X0146838Y0113333D01*
X0145839Y0112335D02*
X0143161Y0112335D01*
X0144159Y0111336D02*
X0144841Y0111336D01*
X0144500Y0106005D02*
X0144945Y0105560D01*
X0144945Y0103785D01*
X0144878Y0103623D01*
X0144878Y0095300D01*
X0066512Y0095300D01*
X0066512Y0098623D01*
X0066512Y0103623D01*
X0066445Y0103785D01*
X0066445Y0104060D01*
X0067305Y0103200D01*
X0071695Y0103200D01*
X0074500Y0106005D01*
X0077305Y0103200D01*
X0081695Y0103200D01*
X0084500Y0106005D01*
X0087305Y0103200D01*
X0091695Y0103200D01*
X0094500Y0106005D01*
X0097305Y0103200D01*
X0101695Y0103200D01*
X0104500Y0106005D01*
X0107305Y0103200D01*
X0111695Y0103200D01*
X0114500Y0106005D01*
X0117305Y0103200D01*
X0121695Y0103200D01*
X0124500Y0106005D01*
X0127305Y0103200D01*
X0131695Y0103200D01*
X0134500Y0106005D01*
X0137305Y0103200D01*
X0141695Y0103200D01*
X0144500Y0106005D01*
X0144945Y0105345D02*
X0143840Y0105345D01*
X0142842Y0104347D02*
X0144945Y0104347D01*
X0144878Y0103348D02*
X0141843Y0103348D01*
X0144878Y0102350D02*
X0066512Y0102350D01*
X0066512Y0103348D02*
X0067157Y0103348D01*
X0066512Y0101351D02*
X0144878Y0101351D01*
X0144878Y0100353D02*
X0066512Y0100353D01*
X0066512Y0099354D02*
X0144878Y0099354D01*
X0144878Y0098356D02*
X0066512Y0098356D01*
X0066512Y0097357D02*
X0144878Y0097357D01*
X0144878Y0096359D02*
X0066512Y0096359D01*
X0066512Y0095360D02*
X0144878Y0095360D01*
X0137157Y0103348D02*
X0131843Y0103348D01*
X0132842Y0104347D02*
X0136158Y0104347D01*
X0135159Y0105345D02*
X0133840Y0105345D01*
X0127157Y0103348D02*
X0121843Y0103348D01*
X0122842Y0104347D02*
X0126158Y0104347D01*
X0125159Y0105345D02*
X0123840Y0105345D01*
X0117157Y0103348D02*
X0111843Y0103348D01*
X0112842Y0104347D02*
X0116158Y0104347D01*
X0115159Y0105345D02*
X0113840Y0105345D01*
X0107157Y0103348D02*
X0101843Y0103348D01*
X0102842Y0104347D02*
X0106158Y0104347D01*
X0105159Y0105345D02*
X0103840Y0105345D01*
X0097157Y0103348D02*
X0091843Y0103348D01*
X0092842Y0104347D02*
X0096158Y0104347D01*
X0095159Y0105345D02*
X0093840Y0105345D01*
X0087157Y0103348D02*
X0081843Y0103348D01*
X0082842Y0104347D02*
X0086158Y0104347D01*
X0085159Y0105345D02*
X0083840Y0105345D01*
X0077157Y0103348D02*
X0071843Y0103348D01*
X0072842Y0104347D02*
X0076158Y0104347D01*
X0075159Y0105345D02*
X0073840Y0105345D01*
X0057157Y0103348D02*
X0051843Y0103348D01*
X0052842Y0104347D02*
X0056158Y0104347D01*
X0055159Y0105345D02*
X0053840Y0105345D01*
X0064174Y0121321D02*
X0064826Y0121321D01*
X0065825Y0122320D02*
X0063175Y0122320D01*
X0062177Y0123318D02*
X0066823Y0123318D01*
X0072177Y0123318D02*
X0076823Y0123318D01*
X0075825Y0122320D02*
X0073175Y0122320D01*
X0074174Y0121321D02*
X0074826Y0121321D01*
X0082177Y0123318D02*
X0086823Y0123318D01*
X0085825Y0122320D02*
X0083175Y0122320D01*
X0084174Y0121321D02*
X0084826Y0121321D01*
X0092177Y0123318D02*
X0096823Y0123318D01*
X0095825Y0122320D02*
X0093175Y0122320D01*
X0094174Y0121321D02*
X0094826Y0121321D01*
X0102177Y0123318D02*
X0106823Y0123318D01*
X0105825Y0122320D02*
X0103175Y0122320D01*
X0104174Y0121321D02*
X0104826Y0121321D01*
X0112177Y0123318D02*
X0116823Y0123318D01*
X0115825Y0122320D02*
X0113175Y0122320D01*
X0114174Y0121321D02*
X0114826Y0121321D01*
X0122177Y0123318D02*
X0126823Y0123318D01*
X0125825Y0122320D02*
X0123175Y0122320D01*
X0124174Y0121321D02*
X0124826Y0121321D01*
X0132177Y0123318D02*
X0137283Y0123318D01*
X0135825Y0122320D02*
X0133175Y0122320D01*
X0134174Y0121321D02*
X0134932Y0121321D01*
X0141717Y0123318D02*
X0156823Y0123318D01*
X0155825Y0122320D02*
X0143175Y0122320D01*
X0144068Y0121321D02*
X0154826Y0121321D01*
X0154200Y0120323D02*
X0144482Y0120323D01*
X0144800Y0119324D02*
X0154200Y0119324D01*
X0154200Y0118326D02*
X0144800Y0118326D01*
X0144751Y0117327D02*
X0154200Y0117327D01*
X0154200Y0116329D02*
X0144337Y0116329D01*
X0143826Y0115330D02*
X0155174Y0115330D01*
X0163175Y0122320D02*
X0165825Y0122320D01*
X0166823Y0123318D02*
X0162177Y0123318D01*
X0164174Y0121321D02*
X0164826Y0121321D01*
X0172177Y0123318D02*
X0176823Y0123318D01*
X0175825Y0122320D02*
X0173175Y0122320D01*
X0174174Y0121321D02*
X0174826Y0121321D01*
X0182177Y0123318D02*
X0186823Y0123318D01*
X0185825Y0122320D02*
X0183175Y0122320D01*
X0184174Y0121321D02*
X0184826Y0121321D01*
X0192177Y0123318D02*
X0196823Y0123318D01*
X0195825Y0122320D02*
X0193175Y0122320D01*
X0194174Y0121321D02*
X0194826Y0121321D01*
X0202177Y0123318D02*
X0206823Y0123318D01*
X0205825Y0122320D02*
X0203175Y0122320D01*
X0204174Y0121321D02*
X0204826Y0121321D01*
X0212177Y0123318D02*
X0227283Y0123318D01*
X0225825Y0122320D02*
X0213175Y0122320D01*
X0214174Y0121321D02*
X0224932Y0121321D01*
X0224518Y0120323D02*
X0214800Y0120323D01*
X0214800Y0119324D02*
X0224200Y0119324D01*
X0224200Y0118326D02*
X0214800Y0118326D01*
X0214800Y0117327D02*
X0224249Y0117327D01*
X0224663Y0116329D02*
X0214800Y0116329D01*
X0213826Y0115330D02*
X0225174Y0115330D01*
X0231717Y0123318D02*
X0236823Y0123318D01*
X0235825Y0122320D02*
X0233175Y0122320D01*
X0234068Y0121321D02*
X0234826Y0121321D01*
X0242177Y0123318D02*
X0246823Y0123318D01*
X0245825Y0122320D02*
X0243175Y0122320D01*
X0244174Y0121321D02*
X0244826Y0121321D01*
X0252177Y0123318D02*
X0256823Y0123318D01*
X0255825Y0122320D02*
X0253175Y0122320D01*
X0254174Y0121321D02*
X0254826Y0121321D01*
X0262177Y0123318D02*
X0266823Y0123318D01*
X0265825Y0122320D02*
X0263175Y0122320D01*
X0264174Y0121321D02*
X0264826Y0121321D01*
X0272177Y0123318D02*
X0276823Y0123318D01*
X0275825Y0122320D02*
X0273175Y0122320D01*
X0274174Y0121321D02*
X0274826Y0121321D01*
X0280128Y0139295D02*
X0262075Y0139295D01*
X0263010Y0140293D02*
X0281126Y0140293D01*
X0282125Y0141292D02*
X0263424Y0141292D01*
X0263587Y0142290D02*
X0283123Y0142290D01*
X0283610Y0143289D02*
X0263587Y0143289D01*
X0263184Y0144287D02*
X0284023Y0144287D01*
X0285005Y0145286D02*
X0262495Y0145286D01*
X0251200Y0138296D02*
X0238587Y0138296D01*
X0238587Y0137298D02*
X0251200Y0137298D01*
X0251200Y0136299D02*
X0238220Y0136299D01*
X0237581Y0135301D02*
X0251425Y0135301D01*
X0252031Y0134302D02*
X0236253Y0134302D01*
X0242205Y0160263D02*
X0242596Y0160263D01*
X0242587Y0161262D02*
X0243595Y0161262D01*
X0244413Y0162260D02*
X0242587Y0162260D01*
X0242403Y0163259D02*
X0244804Y0163259D01*
X0245477Y0164257D02*
X0241989Y0164257D01*
X0241025Y0165256D02*
X0246887Y0165256D01*
X0250113Y0165256D02*
X0256887Y0165256D01*
X0255477Y0164257D02*
X0251523Y0164257D01*
X0252196Y0163259D02*
X0254804Y0163259D01*
X0254413Y0162260D02*
X0252587Y0162260D01*
X0252587Y0161262D02*
X0253595Y0161262D01*
X0252596Y0160263D02*
X0252412Y0160263D01*
X0235975Y0165256D02*
X0232404Y0165256D01*
X0232587Y0164257D02*
X0235011Y0164257D01*
X0236276Y0183229D02*
X0230724Y0183229D01*
X0231723Y0184228D02*
X0235277Y0184228D01*
X0234279Y0185226D02*
X0232721Y0185226D01*
X0226276Y0183229D02*
X0220724Y0183229D01*
X0221723Y0184228D02*
X0225277Y0184228D01*
X0224279Y0185226D02*
X0222721Y0185226D01*
X0216276Y0183229D02*
X0210724Y0183229D01*
X0211723Y0184228D02*
X0215277Y0184228D01*
X0214279Y0185226D02*
X0212721Y0185226D01*
X0206276Y0183229D02*
X0200724Y0183229D01*
X0201723Y0184228D02*
X0205277Y0184228D01*
X0204279Y0185226D02*
X0202721Y0185226D01*
X0196276Y0183229D02*
X0189624Y0183229D01*
X0187376Y0183229D02*
X0170724Y0183229D01*
X0171723Y0184228D02*
X0185277Y0184228D01*
X0184279Y0185226D02*
X0172721Y0185226D01*
X0173720Y0186225D02*
X0183706Y0186225D01*
X0183292Y0187223D02*
X0173800Y0187223D01*
X0173800Y0188222D02*
X0183200Y0188222D01*
X0183200Y0189220D02*
X0173800Y0189220D01*
X0173800Y0190219D02*
X0183475Y0190219D01*
X0183889Y0191217D02*
X0173278Y0191217D01*
X0172280Y0192216D02*
X0184720Y0192216D01*
X0186031Y0193214D02*
X0180709Y0193214D01*
X0181708Y0194213D02*
X0185292Y0194213D01*
X0184293Y0195211D02*
X0182707Y0195211D01*
X0183500Y0200995D02*
X0183000Y0201495D01*
X0183000Y0204082D01*
X0183122Y0204377D01*
X0183122Y0212700D01*
X0188598Y0212700D01*
X0197083Y0204215D01*
X0197498Y0203800D01*
X0196305Y0203800D01*
X0193500Y0200995D01*
X0190695Y0203800D01*
X0186305Y0203800D01*
X0183500Y0200995D01*
X0183293Y0201202D02*
X0183707Y0201202D01*
X0183000Y0202201D02*
X0184705Y0202201D01*
X0185704Y0203199D02*
X0183000Y0203199D01*
X0183048Y0204198D02*
X0197100Y0204198D01*
X0196101Y0205196D02*
X0183122Y0205196D01*
X0183122Y0206195D02*
X0195103Y0206195D01*
X0194104Y0207193D02*
X0183122Y0207193D01*
X0183122Y0208192D02*
X0193106Y0208192D01*
X0192107Y0209190D02*
X0183122Y0209190D01*
X0183122Y0210189D02*
X0191109Y0210189D01*
X0190110Y0211187D02*
X0183122Y0211187D01*
X0183122Y0212186D02*
X0189112Y0212186D01*
X0191296Y0203199D02*
X0195704Y0203199D01*
X0194705Y0202201D02*
X0192295Y0202201D01*
X0193293Y0201202D02*
X0193707Y0201202D01*
X0194279Y0185226D02*
X0192721Y0185226D01*
X0191723Y0184228D02*
X0195277Y0184228D01*
X0176290Y0193214D02*
X0171281Y0193214D01*
X0171708Y0194213D02*
X0175292Y0194213D01*
X0174293Y0195211D02*
X0172707Y0195211D01*
X0173500Y0200995D02*
X0170695Y0203800D01*
X0170122Y0203800D01*
X0170122Y0208123D01*
X0170070Y0208250D01*
X0170122Y0208377D01*
X0170122Y0212700D01*
X0173988Y0212700D01*
X0173988Y0209377D01*
X0173988Y0204377D01*
X0174000Y0204348D01*
X0174000Y0201495D01*
X0173500Y0200995D01*
X0173293Y0201202D02*
X0173707Y0201202D01*
X0174000Y0202201D02*
X0172295Y0202201D01*
X0171296Y0203199D02*
X0174000Y0203199D01*
X0174000Y0204198D02*
X0170122Y0204198D01*
X0170122Y0205196D02*
X0173988Y0205196D01*
X0173988Y0206195D02*
X0170122Y0206195D01*
X0170122Y0207193D02*
X0173988Y0207193D01*
X0173988Y0208192D02*
X0170094Y0208192D01*
X0170122Y0209190D02*
X0173988Y0209190D01*
X0173988Y0210189D02*
X0170122Y0210189D01*
X0170122Y0211187D02*
X0173988Y0211187D01*
X0173988Y0212186D02*
X0170122Y0212186D01*
X0164279Y0185226D02*
X0162721Y0185226D01*
X0161723Y0184228D02*
X0165277Y0184228D01*
X0166276Y0183229D02*
X0160724Y0183229D01*
X0156276Y0183229D02*
X0150724Y0183229D01*
X0151723Y0184228D02*
X0155277Y0184228D01*
X0154279Y0185226D02*
X0152721Y0185226D01*
X0146276Y0183229D02*
X0140724Y0183229D01*
X0141723Y0184228D02*
X0145277Y0184228D01*
X0144279Y0185226D02*
X0142721Y0185226D01*
X0136276Y0183229D02*
X0130724Y0183229D01*
X0131723Y0184228D02*
X0135277Y0184228D01*
X0134279Y0185226D02*
X0132721Y0185226D01*
X0126276Y0183229D02*
X0120724Y0183229D01*
X0121723Y0184228D02*
X0125277Y0184228D01*
X0124279Y0185226D02*
X0122721Y0185226D01*
X0116276Y0183229D02*
X0099624Y0183229D01*
X0097376Y0183229D02*
X0090724Y0183229D01*
X0091723Y0184228D02*
X0095277Y0184228D01*
X0094279Y0185226D02*
X0092721Y0185226D01*
X0086276Y0183229D02*
X0080724Y0183229D01*
X0081723Y0184228D02*
X0085277Y0184228D01*
X0084279Y0185226D02*
X0082721Y0185226D01*
X0076276Y0183229D02*
X0070724Y0183229D01*
X0071723Y0184228D02*
X0075277Y0184228D01*
X0074279Y0185226D02*
X0072721Y0185226D01*
X0066276Y0183229D02*
X0060724Y0183229D01*
X0061723Y0184228D02*
X0065277Y0184228D01*
X0064279Y0185226D02*
X0062721Y0185226D01*
X0056276Y0183229D02*
X0050724Y0183229D01*
X0051723Y0184228D02*
X0055277Y0184228D01*
X0054279Y0185226D02*
X0052721Y0185226D01*
X0046300Y0182231D02*
X0297700Y0182231D01*
X0297700Y0183229D02*
X0270724Y0183229D01*
X0271723Y0184228D02*
X0297700Y0184228D01*
X0297700Y0185226D02*
X0272721Y0185226D01*
X0273720Y0186225D02*
X0297700Y0186225D01*
X0297700Y0187223D02*
X0273800Y0187223D01*
X0273800Y0188222D02*
X0297700Y0188222D01*
X0297700Y0189220D02*
X0273800Y0189220D01*
X0273800Y0190219D02*
X0297700Y0190219D01*
X0297700Y0191217D02*
X0273278Y0191217D01*
X0272280Y0192216D02*
X0297700Y0192216D01*
X0297700Y0193214D02*
X0294935Y0193214D01*
X0295849Y0194213D02*
X0297700Y0194213D01*
X0297700Y0195211D02*
X0296126Y0195211D01*
X0296126Y0196210D02*
X0297700Y0196210D01*
X0297700Y0197208D02*
X0296126Y0197208D01*
X0296126Y0198207D02*
X0297700Y0198207D01*
X0297700Y0199205D02*
X0296126Y0199205D01*
X0296045Y0200204D02*
X0297700Y0200204D01*
X0297700Y0201202D02*
X0295471Y0201202D01*
X0297700Y0202201D02*
X0282295Y0202201D01*
X0281296Y0203199D02*
X0297700Y0203199D01*
X0297700Y0204198D02*
X0273122Y0204198D01*
X0273122Y0205196D02*
X0297601Y0205196D01*
X0296603Y0206195D02*
X0273122Y0206195D01*
X0273122Y0207193D02*
X0295604Y0207193D01*
X0294606Y0208192D02*
X0273122Y0208192D01*
X0273122Y0209190D02*
X0293607Y0209190D01*
X0292609Y0210189D02*
X0273122Y0210189D01*
X0273122Y0211187D02*
X0291610Y0211187D01*
X0290612Y0212186D02*
X0273122Y0212186D01*
X0273122Y0213184D02*
X0289613Y0213184D01*
X0288615Y0214183D02*
X0272890Y0214183D01*
X0274540Y0215181D02*
X0287616Y0215181D01*
X0286618Y0216180D02*
X0275544Y0216180D01*
X0276116Y0217178D02*
X0285619Y0217178D01*
X0284621Y0218177D02*
X0276500Y0218177D01*
X0276500Y0219175D02*
X0283622Y0219175D01*
X0282624Y0220174D02*
X0276500Y0220174D01*
X0276500Y0221172D02*
X0281625Y0221172D01*
X0280627Y0222171D02*
X0276500Y0222171D01*
X0276386Y0223170D02*
X0279628Y0223170D01*
X0288045Y0231158D02*
X0292595Y0231158D01*
X0295405Y0231158D02*
X0317201Y0231158D01*
X0317201Y0232156D02*
X0302901Y0232156D01*
X0304435Y0233155D02*
X0317201Y0233155D01*
X0317201Y0234153D02*
X0305159Y0234153D01*
X0305573Y0235152D02*
X0317201Y0235152D01*
X0317201Y0236150D02*
X0305587Y0236150D01*
X0305448Y0237149D02*
X0317201Y0237149D01*
X0317201Y0238147D02*
X0305035Y0238147D01*
X0304135Y0239146D02*
X0317201Y0239146D01*
X0317201Y0240144D02*
X0302023Y0240144D01*
X0301024Y0241143D02*
X0317201Y0241143D01*
X0317201Y0242141D02*
X0300026Y0242141D01*
X0298565Y0233155D02*
X0297660Y0233155D01*
X0296937Y0232156D02*
X0300099Y0232156D01*
X0293037Y0226165D02*
X0317201Y0226165D01*
X0317201Y0225167D02*
X0294036Y0225167D01*
X0295034Y0224168D02*
X0317201Y0224168D01*
X0317201Y0223170D02*
X0296033Y0223170D01*
X0297031Y0222171D02*
X0317201Y0222171D01*
X0317201Y0221172D02*
X0298030Y0221172D01*
X0299028Y0220174D02*
X0317201Y0220174D01*
X0317201Y0219175D02*
X0300027Y0219175D01*
X0301025Y0218177D02*
X0317201Y0218177D01*
X0317201Y0217178D02*
X0302024Y0217178D01*
X0303022Y0216180D02*
X0317201Y0216180D01*
X0317201Y0215181D02*
X0304021Y0215181D01*
X0305020Y0214183D02*
X0317201Y0214183D01*
X0317201Y0213184D02*
X0306018Y0213184D01*
X0307017Y0212186D02*
X0317201Y0212186D01*
X0317201Y0211187D02*
X0308015Y0211187D01*
X0308664Y0210189D02*
X0317201Y0210189D01*
X0317201Y0209190D02*
X0309078Y0209190D01*
X0309300Y0208192D02*
X0317201Y0208192D01*
X0317201Y0207193D02*
X0309300Y0207193D01*
X0309300Y0206195D02*
X0317201Y0206195D01*
X0317201Y0205196D02*
X0309300Y0205196D01*
X0309300Y0204198D02*
X0317201Y0204198D01*
X0317201Y0203199D02*
X0309300Y0203199D01*
X0309300Y0202201D02*
X0317201Y0202201D01*
X0317201Y0201202D02*
X0309300Y0201202D01*
X0309300Y0200204D02*
X0317201Y0200204D01*
X0317201Y0199205D02*
X0309300Y0199205D01*
X0309300Y0198207D02*
X0317201Y0198207D01*
X0317201Y0197208D02*
X0309300Y0197208D01*
X0309300Y0196210D02*
X0317201Y0196210D01*
X0317201Y0195211D02*
X0309300Y0195211D01*
X0309300Y0194213D02*
X0317201Y0194213D01*
X0317201Y0193214D02*
X0309300Y0193214D01*
X0309300Y0192216D02*
X0317201Y0192216D01*
X0317201Y0191217D02*
X0309300Y0191217D01*
X0309300Y0190219D02*
X0317201Y0190219D01*
X0317201Y0189220D02*
X0309300Y0189220D01*
X0309300Y0188222D02*
X0317201Y0188222D01*
X0317201Y0187223D02*
X0309300Y0187223D01*
X0309300Y0186225D02*
X0317201Y0186225D01*
X0317201Y0185226D02*
X0309300Y0185226D01*
X0309300Y0184228D02*
X0317201Y0184228D01*
X0317201Y0183229D02*
X0309300Y0183229D01*
X0309300Y0182231D02*
X0317201Y0182231D01*
X0317201Y0181232D02*
X0309300Y0181232D01*
X0309300Y0180234D02*
X0317201Y0180234D01*
X0317201Y0179235D02*
X0309300Y0179235D01*
X0309300Y0178237D02*
X0317201Y0178237D01*
X0317201Y0177238D02*
X0309300Y0177238D01*
X0309300Y0176239D02*
X0317201Y0176239D01*
X0317201Y0175241D02*
X0309300Y0175241D01*
X0309300Y0174242D02*
X0317201Y0174242D01*
X0317201Y0173244D02*
X0309300Y0173244D01*
X0309300Y0172245D02*
X0317201Y0172245D01*
X0317201Y0171247D02*
X0309300Y0171247D01*
X0309300Y0170248D02*
X0317201Y0170248D01*
X0317201Y0169250D02*
X0309300Y0169250D01*
X0309300Y0168251D02*
X0317201Y0168251D01*
X0317201Y0167253D02*
X0309300Y0167253D01*
X0309300Y0166254D02*
X0317201Y0166254D01*
X0317201Y0165256D02*
X0309300Y0165256D01*
X0309300Y0164257D02*
X0317201Y0164257D01*
X0317201Y0163259D02*
X0309300Y0163259D01*
X0309300Y0162260D02*
X0317201Y0162260D01*
X0317201Y0161262D02*
X0309300Y0161262D01*
X0309300Y0160263D02*
X0317201Y0160263D01*
X0317201Y0159265D02*
X0309300Y0159265D01*
X0309300Y0158266D02*
X0317201Y0158266D01*
X0317201Y0157268D02*
X0309300Y0157268D01*
X0309300Y0156269D02*
X0317201Y0156269D01*
X0317201Y0155271D02*
X0309300Y0155271D01*
X0309300Y0154272D02*
X0317201Y0154272D01*
X0317201Y0153274D02*
X0309300Y0153274D01*
X0309300Y0152275D02*
X0317201Y0152275D01*
X0317201Y0151277D02*
X0309300Y0151277D01*
X0309300Y0150278D02*
X0317201Y0150278D01*
X0317201Y0149280D02*
X0309300Y0149280D01*
X0309300Y0148281D02*
X0317201Y0148281D01*
X0317201Y0147283D02*
X0309300Y0147283D01*
X0309300Y0146284D02*
X0317201Y0146284D01*
X0317201Y0145286D02*
X0309300Y0145286D01*
X0309300Y0144287D02*
X0317201Y0144287D01*
X0317201Y0143289D02*
X0309300Y0143289D01*
X0309300Y0142290D02*
X0317201Y0142290D01*
X0317201Y0141292D02*
X0309300Y0141292D01*
X0309300Y0140293D02*
X0317201Y0140293D01*
X0317201Y0139295D02*
X0309300Y0139295D01*
X0309300Y0138296D02*
X0317201Y0138296D01*
X0317201Y0137298D02*
X0309300Y0137298D01*
X0309300Y0136299D02*
X0317201Y0136299D01*
X0317201Y0135301D02*
X0309300Y0135301D01*
X0309300Y0134302D02*
X0317201Y0134302D01*
X0317201Y0133303D02*
X0309300Y0133303D01*
X0309300Y0132305D02*
X0317201Y0132305D01*
X0317201Y0131306D02*
X0309300Y0131306D01*
X0309300Y0130308D02*
X0317201Y0130308D01*
X0317201Y0129309D02*
X0309300Y0129309D01*
X0309300Y0128311D02*
X0317201Y0128311D01*
X0317201Y0127312D02*
X0309300Y0127312D01*
X0309300Y0126314D02*
X0317201Y0126314D01*
X0317201Y0125315D02*
X0309300Y0125315D01*
X0309300Y0124317D02*
X0317201Y0124317D01*
X0317201Y0123318D02*
X0309300Y0123318D01*
X0309300Y0122320D02*
X0317201Y0122320D01*
X0317201Y0121321D02*
X0309300Y0121321D01*
X0309300Y0120323D02*
X0317201Y0120323D01*
X0317201Y0119324D02*
X0309300Y0119324D01*
X0309300Y0118326D02*
X0317201Y0118326D01*
X0317201Y0117327D02*
X0309300Y0117327D01*
X0309300Y0116329D02*
X0317201Y0116329D01*
X0317201Y0115330D02*
X0309300Y0115330D01*
X0309300Y0114332D02*
X0317201Y0114332D01*
X0317201Y0113333D02*
X0309300Y0113333D01*
X0309300Y0112335D02*
X0317201Y0112335D01*
X0317201Y0111336D02*
X0309300Y0111336D01*
X0309300Y0110338D02*
X0317201Y0110338D01*
X0317201Y0109339D02*
X0309300Y0109339D01*
X0309300Y0108341D02*
X0317201Y0108341D01*
X0317201Y0107342D02*
X0309300Y0107342D01*
X0309300Y0106344D02*
X0317201Y0106344D01*
X0317201Y0105345D02*
X0309300Y0105345D01*
X0309300Y0104347D02*
X0317201Y0104347D01*
X0317201Y0103348D02*
X0309300Y0103348D01*
X0309300Y0102350D02*
X0317201Y0102350D01*
X0317201Y0101351D02*
X0309300Y0101351D01*
X0309300Y0100353D02*
X0317201Y0100353D01*
X0317201Y0099354D02*
X0309300Y0099354D01*
X0309300Y0098356D02*
X0317201Y0098356D01*
X0317201Y0097357D02*
X0309300Y0097357D01*
X0309300Y0096359D02*
X0317201Y0096359D01*
X0317201Y0095360D02*
X0309300Y0095360D01*
X0309300Y0094362D02*
X0317201Y0094362D01*
X0317201Y0093363D02*
X0309300Y0093363D01*
X0309300Y0092365D02*
X0317201Y0092365D01*
X0317201Y0091366D02*
X0309300Y0091366D01*
X0309300Y0090368D02*
X0317201Y0090368D01*
X0317201Y0089369D02*
X0309300Y0089369D01*
X0309300Y0088370D02*
X0317201Y0088370D01*
X0317201Y0087372D02*
X0309300Y0087372D01*
X0309300Y0086373D02*
X0317201Y0086373D01*
X0317201Y0085375D02*
X0309300Y0085375D01*
X0309300Y0084376D02*
X0317201Y0084376D01*
X0317201Y0083378D02*
X0309300Y0083378D01*
X0309300Y0082379D02*
X0317201Y0082379D01*
X0317201Y0081381D02*
X0309300Y0081381D01*
X0309300Y0080382D02*
X0317201Y0080382D01*
X0317201Y0079384D02*
X0309300Y0079384D01*
X0309300Y0078385D02*
X0317201Y0078385D01*
X0317201Y0077387D02*
X0309300Y0077387D01*
X0309300Y0076388D02*
X0317201Y0076388D01*
X0317201Y0075390D02*
X0309300Y0075390D01*
X0309300Y0074391D02*
X0317201Y0074391D01*
X0317201Y0073393D02*
X0309300Y0073393D01*
X0309300Y0072394D02*
X0317201Y0072394D01*
X0317201Y0071396D02*
X0309300Y0071396D01*
X0309300Y0070397D02*
X0317201Y0070397D01*
X0317201Y0069399D02*
X0309300Y0069399D01*
X0309300Y0068400D02*
X0317201Y0068400D01*
X0317201Y0067402D02*
X0309300Y0067402D01*
X0309300Y0066403D02*
X0317201Y0066403D01*
X0317201Y0065405D02*
X0309300Y0065405D01*
X0309300Y0064406D02*
X0317201Y0064406D01*
X0317201Y0063408D02*
X0309300Y0063408D01*
X0309300Y0062409D02*
X0317201Y0062409D01*
X0317201Y0061411D02*
X0309300Y0061411D01*
X0309300Y0060412D02*
X0317201Y0060412D01*
X0317201Y0059414D02*
X0309300Y0059414D01*
X0309300Y0058415D02*
X0317201Y0058415D01*
X0317201Y0057417D02*
X0309300Y0057417D01*
X0309300Y0056418D02*
X0317201Y0056418D01*
X0317201Y0055420D02*
X0309300Y0055420D01*
X0309300Y0054421D02*
X0317201Y0054421D01*
X0317201Y0053423D02*
X0309300Y0053423D01*
X0308918Y0052424D02*
X0317201Y0052424D01*
X0317201Y0051426D02*
X0308504Y0051426D01*
X0307629Y0050427D02*
X0317201Y0050427D01*
X0317201Y0049429D02*
X0306631Y0049429D01*
X0305632Y0048430D02*
X0317201Y0048430D01*
X0317201Y0047432D02*
X0304634Y0047432D01*
X0303635Y0046433D02*
X0317201Y0046433D01*
X0317201Y0045434D02*
X0302637Y0045434D01*
X0301638Y0044436D02*
X0317201Y0044436D01*
X0317201Y0043437D02*
X0300640Y0043437D01*
X0299641Y0042439D02*
X0317201Y0042439D01*
X0317201Y0041440D02*
X0298643Y0041440D01*
X0297644Y0040442D02*
X0317201Y0040442D01*
X0317201Y0039443D02*
X0296646Y0039443D01*
X0295647Y0038445D02*
X0317201Y0038445D01*
X0317201Y0037446D02*
X0294649Y0037446D01*
X0293650Y0036448D02*
X0317201Y0036448D01*
X0317201Y0035449D02*
X0292652Y0035449D01*
X0291653Y0034451D02*
X0317201Y0034451D01*
X0317201Y0033452D02*
X0290655Y0033452D01*
X0289474Y0032454D02*
X0317201Y0032454D01*
X0317201Y0031455D02*
X0246777Y0031455D01*
X0247122Y0030457D02*
X0317201Y0030457D01*
X0317201Y0029458D02*
X0247122Y0029458D01*
X0247122Y0028460D02*
X0317201Y0028460D01*
X0317201Y0027461D02*
X0247122Y0027461D01*
X0247122Y0026463D02*
X0317201Y0026463D01*
X0317201Y0025464D02*
X0247122Y0025464D01*
X0246745Y0024466D02*
X0317201Y0024466D01*
X0317201Y0023467D02*
X0245344Y0023467D01*
X0239766Y0023467D02*
X0214844Y0023467D01*
X0216245Y0024466D02*
X0234993Y0024466D01*
X0233897Y0025464D02*
X0216622Y0025464D01*
X0216622Y0026463D02*
X0233354Y0026463D01*
X0233054Y0027461D02*
X0216622Y0027461D01*
X0216622Y0028460D02*
X0233054Y0028460D01*
X0233322Y0029458D02*
X0216622Y0029458D01*
X0216622Y0030457D02*
X0233818Y0030457D01*
X0234817Y0031455D02*
X0216277Y0031455D01*
X0209266Y0023467D02*
X0005500Y0023467D01*
X0005500Y0022469D02*
X0317201Y0022469D01*
X0317201Y0021470D02*
X0005500Y0021470D01*
X0005500Y0020472D02*
X0317201Y0020472D01*
X0317201Y0019473D02*
X0005500Y0019473D01*
X0005500Y0018475D02*
X0317201Y0018475D01*
X0317201Y0017476D02*
X0005500Y0017476D01*
X0005500Y0016478D02*
X0317201Y0016478D01*
X0317201Y0015479D02*
X0005500Y0015479D01*
X0005500Y0014481D02*
X0317201Y0014481D01*
X0317201Y0013482D02*
X0005500Y0013482D01*
X0005500Y0012484D02*
X0317201Y0012484D01*
X0317201Y0011485D02*
X0005500Y0011485D01*
X0005500Y0010487D02*
X0317201Y0010487D01*
X0317201Y0009488D02*
X0005500Y0009488D01*
X0005500Y0008490D02*
X0317201Y0008490D01*
X0317201Y0007491D02*
X0005500Y0007491D01*
X0005500Y0006493D02*
X0317201Y0006493D01*
X0284235Y0043437D02*
X0190787Y0043437D01*
X0189572Y0044436D02*
X0285234Y0044436D01*
X0286232Y0045434D02*
X0166122Y0045434D01*
X0166122Y0044436D02*
X0175428Y0044436D01*
X0174213Y0043437D02*
X0166122Y0043437D01*
X0166122Y0046433D02*
X0287231Y0046433D01*
X0288229Y0047432D02*
X0166122Y0047432D01*
X0166122Y0048430D02*
X0289228Y0048430D01*
X0290226Y0049429D02*
X0166122Y0049429D01*
X0166122Y0050427D02*
X0189798Y0050427D01*
X0187872Y0051426D02*
X0166122Y0051426D01*
X0166122Y0052424D02*
X0185452Y0052424D01*
X0184297Y0053423D02*
X0166122Y0053423D01*
X0166122Y0054421D02*
X0183730Y0054421D01*
X0183413Y0055420D02*
X0165792Y0055420D01*
X0164621Y0056418D02*
X0178804Y0056418D01*
X0177805Y0057417D02*
X0156502Y0057417D01*
X0156193Y0058415D02*
X0176807Y0058415D01*
X0176000Y0059414D02*
X0157000Y0059414D01*
X0157000Y0060412D02*
X0176000Y0060412D01*
X0176000Y0061411D02*
X0157000Y0061411D01*
X0157000Y0062409D02*
X0176000Y0062409D01*
X0158489Y0056418D02*
X0157501Y0056418D01*
X0143360Y0043437D02*
X0005500Y0043437D01*
X0005500Y0042439D02*
X0144359Y0042439D01*
X0145357Y0041440D02*
X0005500Y0041440D01*
X0005500Y0040442D02*
X0146356Y0040442D01*
X0147354Y0039443D02*
X0005500Y0039443D01*
X0005500Y0038445D02*
X0148353Y0038445D01*
X0149351Y0037446D02*
X0005500Y0037446D01*
X0005500Y0036448D02*
X0150350Y0036448D01*
X0151348Y0035449D02*
X0005500Y0035449D01*
X0005500Y0034451D02*
X0152347Y0034451D01*
X0153345Y0033452D02*
X0005500Y0033452D01*
X0005500Y0032454D02*
X0154526Y0032454D01*
X0157500Y0037500D02*
X0157667Y0037667D01*
X0178500Y0037667D01*
X0193202Y0050427D02*
X0291225Y0050427D01*
X0292223Y0051426D02*
X0275627Y0051426D01*
X0277378Y0052424D02*
X0293222Y0052424D01*
X0294220Y0053423D02*
X0278695Y0053423D01*
X0279693Y0054421D02*
X0295219Y0054421D01*
X0296217Y0055420D02*
X0280459Y0055420D01*
X0281036Y0056418D02*
X0297216Y0056418D01*
X0297700Y0057417D02*
X0281586Y0057417D01*
X0281854Y0058415D02*
X0297700Y0058415D01*
X0297700Y0059414D02*
X0282121Y0059414D01*
X0282299Y0060412D02*
X0297700Y0060412D01*
X0297700Y0061411D02*
X0282299Y0061411D01*
X0282299Y0062409D02*
X0297700Y0062409D01*
X0297700Y0063408D02*
X0282169Y0063408D01*
X0281901Y0064406D02*
X0297700Y0064406D01*
X0297700Y0065405D02*
X0281634Y0065405D01*
X0281139Y0066403D02*
X0297700Y0066403D01*
X0297700Y0067402D02*
X0280562Y0067402D01*
X0279872Y0068400D02*
X0297700Y0068400D01*
X0297700Y0069399D02*
X0278874Y0069399D01*
X0277688Y0070397D02*
X0297700Y0070397D01*
X0297700Y0071396D02*
X0275958Y0071396D01*
X0267042Y0071396D02*
X0260800Y0071396D01*
X0260800Y0072394D02*
X0297700Y0072394D01*
X0297700Y0073393D02*
X0260800Y0073393D01*
X0260800Y0074391D02*
X0297700Y0074391D01*
X0297700Y0075390D02*
X0260800Y0075390D01*
X0260800Y0076388D02*
X0297700Y0076388D01*
X0297700Y0077387D02*
X0260800Y0077387D01*
X0260800Y0078385D02*
X0297700Y0078385D01*
X0297700Y0079384D02*
X0261048Y0079384D01*
X0261461Y0080382D02*
X0282199Y0080382D01*
X0280917Y0081381D02*
X0261587Y0081381D01*
X0261560Y0082379D02*
X0280015Y0082379D01*
X0279601Y0083378D02*
X0261146Y0083378D01*
X0260800Y0070397D02*
X0265312Y0070397D01*
X0264126Y0069399D02*
X0260800Y0069399D01*
X0260800Y0068400D02*
X0263128Y0068400D01*
X0262438Y0067402D02*
X0260800Y0067402D01*
X0260800Y0066403D02*
X0261861Y0066403D01*
X0261366Y0065405D02*
X0260800Y0065405D01*
X0260800Y0064406D02*
X0261099Y0064406D01*
X0260831Y0063408D02*
X0260800Y0063408D01*
X0260701Y0061411D02*
X0260414Y0061411D01*
X0260701Y0060412D02*
X0259579Y0060412D01*
X0258581Y0059414D02*
X0260879Y0059414D01*
X0261146Y0058415D02*
X0257176Y0058415D01*
X0255195Y0057417D02*
X0261414Y0057417D01*
X0261964Y0056418D02*
X0254196Y0056418D01*
X0248804Y0056418D02*
X0244196Y0056418D01*
X0245195Y0057417D02*
X0247805Y0057417D01*
X0246807Y0058415D02*
X0246193Y0058415D01*
X0238804Y0056418D02*
X0234196Y0056418D01*
X0235195Y0057417D02*
X0237805Y0057417D01*
X0236807Y0058415D02*
X0236193Y0058415D01*
X0228804Y0056418D02*
X0224196Y0056418D01*
X0225195Y0057417D02*
X0227805Y0057417D01*
X0226807Y0058415D02*
X0226193Y0058415D01*
X0218804Y0056418D02*
X0214196Y0056418D01*
X0215195Y0057417D02*
X0217805Y0057417D01*
X0216807Y0058415D02*
X0216193Y0058415D01*
X0208804Y0056418D02*
X0204196Y0056418D01*
X0205195Y0057417D02*
X0207805Y0057417D01*
X0206807Y0058415D02*
X0206193Y0058415D01*
X0199587Y0055420D02*
X0262541Y0055420D01*
X0263306Y0054421D02*
X0199270Y0054421D01*
X0198703Y0053423D02*
X0264305Y0053423D01*
X0265622Y0052424D02*
X0197548Y0052424D01*
X0195128Y0051426D02*
X0267373Y0051426D01*
X0287801Y0080382D02*
X0297700Y0080382D01*
X0297700Y0081381D02*
X0289083Y0081381D01*
X0289985Y0082379D02*
X0297700Y0082379D01*
X0297700Y0083378D02*
X0290399Y0083378D01*
X0290800Y0084376D02*
X0297700Y0084376D01*
X0297700Y0085375D02*
X0290800Y0085375D01*
X0290800Y0086373D02*
X0297700Y0086373D01*
X0297700Y0087372D02*
X0290800Y0087372D01*
X0290800Y0088370D02*
X0297700Y0088370D01*
X0297700Y0089369D02*
X0290800Y0089369D01*
X0290800Y0090368D02*
X0297700Y0090368D01*
X0297700Y0091366D02*
X0290800Y0091366D01*
X0290800Y0092365D02*
X0297700Y0092365D01*
X0297700Y0093363D02*
X0290800Y0093363D01*
X0290800Y0094362D02*
X0297700Y0094362D01*
X0297700Y0095360D02*
X0290507Y0095360D01*
X0290094Y0096359D02*
X0297700Y0096359D01*
X0297700Y0097357D02*
X0289345Y0097357D01*
X0288347Y0098356D02*
X0297700Y0098356D01*
X0297700Y0173244D02*
X0046300Y0173244D01*
X0046300Y0174242D02*
X0297700Y0174242D01*
X0297700Y0175241D02*
X0046300Y0175241D01*
X0046300Y0176239D02*
X0297700Y0176239D01*
X0297700Y0177238D02*
X0046300Y0177238D01*
X0046300Y0178237D02*
X0297700Y0178237D01*
X0297700Y0179235D02*
X0046300Y0179235D01*
X0046300Y0180234D02*
X0297700Y0180234D01*
X0297700Y0181232D02*
X0046300Y0181232D01*
X0039700Y0181232D02*
X0032800Y0181232D01*
X0032800Y0180234D02*
X0039700Y0180234D01*
X0039700Y0179235D02*
X0032800Y0179235D01*
X0032800Y0178237D02*
X0039700Y0178237D01*
X0039700Y0177238D02*
X0032800Y0177238D01*
X0032800Y0176239D02*
X0039700Y0176239D01*
X0039700Y0175241D02*
X0032800Y0175241D01*
X0032800Y0174242D02*
X0039700Y0174242D01*
X0039700Y0173244D02*
X0032800Y0173244D01*
X0032800Y0172245D02*
X0039700Y0172245D01*
X0039299Y0171247D02*
X0033420Y0171247D01*
X0034418Y0170248D02*
X0038913Y0170248D01*
X0038913Y0169250D02*
X0035417Y0169250D01*
X0036415Y0168251D02*
X0039093Y0168251D01*
X0039507Y0167253D02*
X0037414Y0167253D01*
X0038413Y0166254D02*
X0040465Y0166254D01*
X0035070Y0160263D02*
X0026800Y0160263D01*
X0026800Y0159265D02*
X0036068Y0159265D01*
X0037067Y0158266D02*
X0026800Y0158266D01*
X0026800Y0157268D02*
X0038680Y0157268D01*
X0034071Y0161262D02*
X0026800Y0161262D01*
X0026800Y0162260D02*
X0033073Y0162260D01*
X0032074Y0163259D02*
X0026800Y0163259D01*
X0026800Y0164257D02*
X0031076Y0164257D01*
X0030077Y0165256D02*
X0026800Y0165256D01*
X0026800Y0166254D02*
X0029079Y0166254D01*
X0028080Y0167253D02*
X0026800Y0167253D01*
X0026800Y0168251D02*
X0027082Y0168251D01*
X0032800Y0182231D02*
X0039700Y0182231D01*
X0039700Y0183229D02*
X0032800Y0183229D01*
X0032800Y0184228D02*
X0039700Y0184228D01*
X0039700Y0185226D02*
X0032800Y0185226D01*
X0032800Y0186225D02*
X0039700Y0186225D01*
X0039700Y0187223D02*
X0032800Y0187223D01*
X0032800Y0188222D02*
X0039700Y0188222D01*
X0039700Y0189220D02*
X0032800Y0189220D01*
X0032800Y0190219D02*
X0039700Y0190219D01*
X0039700Y0191217D02*
X0032800Y0191217D01*
X0032800Y0192216D02*
X0039700Y0192216D01*
X0039700Y0193214D02*
X0032800Y0193214D01*
X0032800Y0194213D02*
X0039700Y0194213D01*
X0039700Y0195211D02*
X0032800Y0195211D01*
X0032800Y0196210D02*
X0039700Y0196210D01*
X0039700Y0197208D02*
X0032800Y0197208D01*
X0032800Y0198207D02*
X0039700Y0198207D01*
X0039700Y0199205D02*
X0032800Y0199205D01*
X0032800Y0200204D02*
X0039700Y0200204D01*
X0039700Y0201202D02*
X0032800Y0201202D01*
X0032800Y0202201D02*
X0039700Y0202201D01*
X0039700Y0203199D02*
X0032800Y0203199D01*
X0032800Y0204198D02*
X0039700Y0204198D01*
X0039700Y0205196D02*
X0033177Y0205196D01*
X0033587Y0206195D02*
X0039700Y0206195D01*
X0039700Y0207193D02*
X0033587Y0207193D01*
X0033430Y0208192D02*
X0039804Y0208192D01*
X0040217Y0209190D02*
X0033017Y0209190D01*
X0032092Y0210189D02*
X0040568Y0210189D01*
X0040982Y0211187D02*
X0031890Y0211187D01*
X0032888Y0212186D02*
X0041905Y0212186D01*
X0016518Y0229161D02*
X0005500Y0229161D01*
X0005500Y0230159D02*
X0014563Y0230159D01*
X0013564Y0231158D02*
X0005500Y0231158D01*
X0005500Y0232156D02*
X0013018Y0232156D01*
X0012604Y0233155D02*
X0005500Y0233155D01*
X0005500Y0234153D02*
X0012500Y0234153D01*
X0012500Y0235152D02*
X0005500Y0235152D01*
X0005500Y0236150D02*
X0012730Y0236150D01*
X0013144Y0237149D02*
X0005500Y0237149D01*
X0005500Y0238147D02*
X0013869Y0238147D01*
X0014868Y0239146D02*
X0005500Y0239146D01*
X0005500Y0240144D02*
X0014578Y0240144D01*
X0013579Y0241143D02*
X0005500Y0241143D01*
X0005500Y0242141D02*
X0013024Y0242141D01*
X0012610Y0243140D02*
X0005500Y0243140D01*
X0005500Y0244138D02*
X0012500Y0244138D01*
X0012500Y0245137D02*
X0005500Y0245137D01*
X0005500Y0246135D02*
X0012724Y0246135D01*
X0013138Y0247134D02*
X0005500Y0247134D01*
X0005500Y0248132D02*
X0013854Y0248132D01*
X0014853Y0249131D02*
X0005500Y0249131D01*
X0100122Y0212700D02*
X0100122Y0208877D01*
X0100070Y0208750D01*
X0100122Y0208623D01*
X0100122Y0203800D01*
X0100695Y0203800D01*
X0103500Y0200995D01*
X0104000Y0201495D01*
X0104000Y0204348D01*
X0103988Y0204377D01*
X0103988Y0209377D01*
X0103988Y0212700D01*
X0100122Y0212700D01*
X0100122Y0212186D02*
X0103988Y0212186D01*
X0103988Y0211187D02*
X0100122Y0211187D01*
X0100122Y0210189D02*
X0103988Y0210189D01*
X0103988Y0209190D02*
X0100122Y0209190D01*
X0100122Y0208192D02*
X0103988Y0208192D01*
X0103988Y0207193D02*
X0100122Y0207193D01*
X0100122Y0206195D02*
X0103988Y0206195D01*
X0103988Y0205196D02*
X0100122Y0205196D01*
X0100122Y0204198D02*
X0104000Y0204198D01*
X0104000Y0203199D02*
X0101296Y0203199D01*
X0102295Y0202201D02*
X0104000Y0202201D01*
X0103707Y0201202D02*
X0103293Y0201202D01*
X0102707Y0195211D02*
X0104293Y0195211D01*
X0105292Y0194213D02*
X0101708Y0194213D01*
X0100969Y0193214D02*
X0106290Y0193214D01*
X0103111Y0191217D02*
X0113722Y0191217D01*
X0113200Y0190219D02*
X0103525Y0190219D01*
X0103800Y0189220D02*
X0113200Y0189220D01*
X0113200Y0188222D02*
X0103800Y0188222D01*
X0103708Y0187223D02*
X0113200Y0187223D01*
X0113280Y0186225D02*
X0103294Y0186225D01*
X0102721Y0185226D02*
X0114279Y0185226D01*
X0115277Y0184228D02*
X0101723Y0184228D01*
X0102280Y0192216D02*
X0114720Y0192216D01*
X0115719Y0193214D02*
X0110709Y0193214D01*
X0111708Y0194213D02*
X0115292Y0194213D01*
X0114293Y0195211D02*
X0112707Y0195211D01*
X0113500Y0200995D02*
X0113000Y0201495D01*
X0113000Y0204082D01*
X0113122Y0204377D01*
X0113122Y0212700D01*
X0116598Y0212700D01*
X0124290Y0205007D01*
X0125026Y0204272D01*
X0125901Y0203396D01*
X0123500Y0200995D01*
X0120695Y0203800D01*
X0116305Y0203800D01*
X0113500Y0200995D01*
X0113293Y0201202D02*
X0113707Y0201202D01*
X0113000Y0202201D02*
X0114705Y0202201D01*
X0115704Y0203199D02*
X0113000Y0203199D01*
X0113048Y0204198D02*
X0125100Y0204198D01*
X0124290Y0205007D02*
X0124290Y0205007D01*
X0124101Y0205196D02*
X0113122Y0205196D01*
X0113122Y0206195D02*
X0123103Y0206195D01*
X0122104Y0207193D02*
X0113122Y0207193D01*
X0113122Y0208192D02*
X0121106Y0208192D01*
X0120107Y0209190D02*
X0113122Y0209190D01*
X0113122Y0210189D02*
X0119109Y0210189D01*
X0118110Y0211187D02*
X0113122Y0211187D01*
X0113122Y0212186D02*
X0117112Y0212186D01*
X0121296Y0203199D02*
X0125704Y0203199D01*
X0124705Y0202201D02*
X0122295Y0202201D01*
X0123293Y0201202D02*
X0123707Y0201202D01*
X0107826Y0246952D02*
X0107778Y0247000D01*
X0103800Y0247000D01*
X0103800Y0254633D01*
X0104367Y0255200D01*
X0107133Y0255200D01*
X0110000Y0252333D01*
X0110000Y0249222D01*
X0110027Y0249194D01*
X0109202Y0248369D01*
X0108924Y0248090D01*
X0108924Y0248090D01*
X0108501Y0247668D01*
X0107995Y0247162D01*
X0107855Y0247022D01*
X0107855Y0247022D01*
X0107855Y0247022D01*
X0107826Y0246952D01*
X0107967Y0247134D02*
X0103800Y0247134D01*
X0103800Y0248132D02*
X0108965Y0248132D01*
X0107995Y0247162D02*
X0107995Y0247162D01*
X0109964Y0249131D02*
X0103800Y0249131D01*
X0103800Y0250129D02*
X0110000Y0250129D01*
X0110000Y0251128D02*
X0103800Y0251128D01*
X0103800Y0252126D02*
X0110000Y0252126D01*
X0109208Y0253125D02*
X0103800Y0253125D01*
X0103800Y0254123D02*
X0108210Y0254123D01*
X0107211Y0255122D02*
X0104289Y0255122D01*
X0124133Y0268103D02*
X0317201Y0268103D01*
X0317201Y0267104D02*
X0125563Y0267104D01*
X0126561Y0266105D02*
X0317201Y0266105D01*
X0317201Y0265107D02*
X0127560Y0265107D01*
X0128558Y0264108D02*
X0141942Y0264108D01*
X0140943Y0263110D02*
X0129557Y0263110D01*
X0130555Y0262111D02*
X0139945Y0262111D01*
X0137832Y0261113D02*
X0131554Y0261113D01*
X0132552Y0260114D02*
X0136952Y0260114D01*
X0136538Y0259116D02*
X0133551Y0259116D01*
X0134549Y0258117D02*
X0136413Y0258117D01*
X0136441Y0257119D02*
X0135548Y0257119D01*
X0203558Y0264108D02*
X0317201Y0264108D01*
X0317201Y0263110D02*
X0204557Y0263110D01*
X0204298Y0263369D02*
X0204298Y0263369D01*
X0205555Y0262111D02*
X0269378Y0262111D01*
X0266552Y0261113D02*
X0206554Y0261113D01*
X0207552Y0260114D02*
X0264842Y0260114D01*
X0263844Y0259116D02*
X0257551Y0259116D01*
X0258549Y0258117D02*
X0262851Y0258117D01*
X0262274Y0257119D02*
X0259548Y0257119D01*
X0260546Y0256120D02*
X0261698Y0256120D01*
X0261290Y0255122D02*
X0261107Y0255122D01*
X0273622Y0262111D02*
X0317201Y0262111D01*
X0317201Y0261113D02*
X0276448Y0261113D01*
X0278158Y0260114D02*
X0317201Y0260114D01*
X0317201Y0259116D02*
X0279156Y0259116D01*
X0280149Y0258117D02*
X0317201Y0258117D01*
X0317201Y0257119D02*
X0280726Y0257119D01*
X0281302Y0256120D02*
X0317201Y0256120D01*
X0317201Y0255122D02*
X0281710Y0255122D01*
X0281977Y0254123D02*
X0317201Y0254123D01*
X0317201Y0253125D02*
X0282245Y0253125D01*
X0282299Y0252126D02*
X0317201Y0252126D01*
X0317201Y0251128D02*
X0282299Y0251128D01*
X0282299Y0250129D02*
X0317201Y0250129D01*
X0317201Y0249131D02*
X0282045Y0249131D01*
X0281778Y0248132D02*
X0317201Y0248132D01*
X0317201Y0247134D02*
X0281449Y0247134D01*
X0280873Y0246135D02*
X0317201Y0246135D01*
X0317201Y0245137D02*
X0280296Y0245137D01*
X0279411Y0244138D02*
X0317201Y0244138D01*
X0317201Y0243140D02*
X0278412Y0243140D01*
X0289043Y0230159D02*
X0317201Y0230159D01*
X0317201Y0229161D02*
X0290042Y0229161D01*
X0291040Y0228162D02*
X0317201Y0228162D01*
X0317201Y0227164D02*
X0292039Y0227164D01*
X0275704Y0203199D02*
X0273055Y0203199D01*
X0273055Y0202201D02*
X0274705Y0202201D01*
X0273707Y0201202D02*
X0273293Y0201202D01*
X0272707Y0195211D02*
X0274293Y0195211D01*
X0275292Y0194213D02*
X0271708Y0194213D01*
X0271281Y0193214D02*
X0276290Y0193214D01*
X0266276Y0183229D02*
X0260724Y0183229D01*
X0261723Y0184228D02*
X0265277Y0184228D01*
X0264279Y0185226D02*
X0262721Y0185226D01*
X0256276Y0183229D02*
X0250724Y0183229D01*
X0251723Y0184228D02*
X0255277Y0184228D01*
X0254279Y0185226D02*
X0252721Y0185226D01*
X0246276Y0183229D02*
X0240724Y0183229D01*
X0241723Y0184228D02*
X0245277Y0184228D01*
X0244279Y0185226D02*
X0242721Y0185226D01*
X0217344Y0255122D02*
X0215656Y0255122D01*
X0214658Y0256120D02*
X0218342Y0256120D01*
X0222452Y0257119D02*
X0210548Y0257119D01*
X0209549Y0258117D02*
X0223451Y0258117D01*
X0224449Y0259116D02*
X0208551Y0259116D01*
X0085579Y0145286D02*
X0085381Y0145286D01*
X0120870Y0050427D02*
X0005500Y0050427D01*
X0005500Y0049429D02*
X0121869Y0049429D01*
X0123084Y0048430D02*
X0005500Y0048430D01*
X0005500Y0047432D02*
X0139366Y0047432D01*
X0140365Y0046433D02*
X0005500Y0046433D01*
X0005500Y0045434D02*
X0141363Y0045434D01*
X0142362Y0044436D02*
X0005500Y0044436D01*
X0005500Y0031455D02*
X0204299Y0031455D01*
X0203300Y0030457D02*
X0005500Y0030457D01*
X0005500Y0029458D02*
X0202808Y0029458D01*
X0202542Y0028460D02*
X0005500Y0028460D01*
X0005500Y0027461D02*
X0202542Y0027461D01*
X0202841Y0026463D02*
X0005500Y0026463D01*
X0005500Y0025464D02*
X0203379Y0025464D01*
X0204460Y0024466D02*
X0005500Y0024466D01*
M02*
