G75*
%MOIN*%
%OFA0B0*%
%FSLAX25Y25*%
%IPPOS*%
%LPD*%
%AMOC8*
5,1,8,0,0,1.08239X$1,22.5*
%
%ADD10R,0.05052X0.04934*%
%ADD11R,0.04934X0.05052*%
%ADD12OC8,0.06800*%
%ADD13C,0.13398*%
%ADD14C,0.06400*%
%ADD15OC8,0.06400*%
%ADD16C,0.06800*%
%ADD17C,0.03975*%
D10*
X0036500Y0109555D03*
X0042000Y0109555D03*
X0042000Y0116445D03*
X0036500Y0116445D03*
X0178500Y0046945D03*
X0178500Y0040055D03*
X0186500Y0040055D03*
X0186500Y0046945D03*
X0286000Y0190555D03*
X0291500Y0190555D03*
X0291500Y0197445D03*
X0286000Y0197445D03*
D11*
X0275445Y0206000D03*
X0275445Y0211000D03*
X0268555Y0211000D03*
X0268555Y0206000D03*
X0185445Y0207000D03*
X0185445Y0212000D03*
X0178555Y0212000D03*
X0178555Y0207000D03*
X0172445Y0205500D03*
X0172445Y0211000D03*
X0165555Y0211000D03*
X0165555Y0205500D03*
X0115445Y0207000D03*
X0115445Y0212000D03*
X0108555Y0212000D03*
X0108555Y0207000D03*
X0102445Y0206000D03*
X0102445Y0211500D03*
X0095555Y0211500D03*
X0095555Y0206000D03*
X0061945Y0101000D03*
X0061945Y0096000D03*
X0055055Y0096000D03*
X0055055Y0101000D03*
X0142555Y0101000D03*
X0142555Y0096000D03*
X0149445Y0096000D03*
X0149445Y0101000D03*
X0155055Y0102000D03*
X0155055Y0097000D03*
X0161945Y0097000D03*
X0161945Y0102000D03*
X0212555Y0101500D03*
X0212555Y0096500D03*
X0219445Y0096500D03*
X0225055Y0096000D03*
X0225055Y0101500D03*
X0219445Y0101500D03*
X0231945Y0101500D03*
X0231945Y0096000D03*
X0168445Y0052000D03*
X0168445Y0046000D03*
X0161555Y0046000D03*
X0161555Y0052000D03*
X0212055Y0028000D03*
X0218945Y0028000D03*
X0242555Y0028000D03*
X0249445Y0028000D03*
D12*
X0251500Y0061500D03*
X0241500Y0061500D03*
X0231500Y0061500D03*
X0221500Y0061500D03*
X0211500Y0061500D03*
X0201500Y0061500D03*
X0201500Y0071500D03*
X0211500Y0071500D03*
X0221500Y0071500D03*
X0231500Y0071500D03*
X0241500Y0071500D03*
X0251500Y0071500D03*
X0181500Y0071500D03*
X0171500Y0071500D03*
X0161500Y0071500D03*
X0161500Y0061500D03*
X0171500Y0061500D03*
X0181500Y0061500D03*
X0151500Y0061500D03*
X0141500Y0061500D03*
X0131500Y0061500D03*
X0121500Y0061500D03*
X0111500Y0061500D03*
X0111500Y0071500D03*
X0121500Y0071500D03*
X0131500Y0071500D03*
X0141500Y0071500D03*
X0151500Y0071500D03*
X0155500Y0241500D03*
X0155500Y0251500D03*
X0145500Y0251500D03*
X0145500Y0241500D03*
X0135500Y0241500D03*
X0135500Y0251500D03*
X0125500Y0251500D03*
X0125500Y0241500D03*
X0115500Y0241500D03*
X0115500Y0251500D03*
X0105500Y0251500D03*
X0105500Y0241500D03*
X0095500Y0241500D03*
X0095500Y0251500D03*
X0085500Y0251500D03*
X0085500Y0241500D03*
X0075500Y0241500D03*
X0075500Y0251500D03*
X0165500Y0251500D03*
X0165500Y0241500D03*
X0181500Y0241500D03*
X0181500Y0251500D03*
X0191500Y0251500D03*
X0191500Y0241500D03*
X0201500Y0241500D03*
X0201500Y0251500D03*
X0211500Y0251500D03*
X0211500Y0241500D03*
X0221500Y0241500D03*
X0221500Y0251500D03*
X0231500Y0251500D03*
X0231500Y0241500D03*
X0241500Y0241500D03*
X0241500Y0251500D03*
X0251500Y0251500D03*
X0251500Y0241500D03*
D13*
X0056500Y0061500D03*
X0061500Y0251500D03*
X0271500Y0251500D03*
X0271500Y0061500D03*
D14*
X0229500Y0118500D03*
X0188500Y0188500D03*
X0139500Y0118500D03*
X0098500Y0188500D03*
X0049500Y0118500D03*
X0278500Y0188500D03*
D15*
X0268500Y0188500D03*
X0258500Y0188500D03*
X0248500Y0188500D03*
X0248500Y0198500D03*
X0258500Y0198500D03*
X0268500Y0198500D03*
X0278500Y0198500D03*
X0238500Y0198500D03*
X0228500Y0198500D03*
X0218500Y0198500D03*
X0208500Y0198500D03*
X0198500Y0198500D03*
X0188500Y0198500D03*
X0178500Y0198500D03*
X0168500Y0198500D03*
X0158500Y0198500D03*
X0148500Y0198500D03*
X0148500Y0188500D03*
X0158500Y0188500D03*
X0168500Y0188500D03*
X0178500Y0188500D03*
X0198500Y0188500D03*
X0208500Y0188500D03*
X0218500Y0188500D03*
X0228500Y0188500D03*
X0238500Y0188500D03*
X0239500Y0118500D03*
X0249500Y0118500D03*
X0259500Y0118500D03*
X0269500Y0118500D03*
X0279500Y0118500D03*
X0279500Y0108500D03*
X0269500Y0108500D03*
X0259500Y0108500D03*
X0249500Y0108500D03*
X0239500Y0108500D03*
X0229500Y0108500D03*
X0219500Y0108500D03*
X0219500Y0118500D03*
X0209500Y0118500D03*
X0199500Y0118500D03*
X0189500Y0118500D03*
X0179500Y0118500D03*
X0169500Y0118500D03*
X0159500Y0118500D03*
X0149500Y0118500D03*
X0149500Y0108500D03*
X0139500Y0108500D03*
X0129500Y0108500D03*
X0119500Y0108500D03*
X0119500Y0118500D03*
X0129500Y0118500D03*
X0109500Y0118500D03*
X0099500Y0118500D03*
X0089500Y0118500D03*
X0079500Y0118500D03*
X0069500Y0118500D03*
X0059500Y0118500D03*
X0059500Y0108500D03*
X0049500Y0108500D03*
X0069500Y0108500D03*
X0079500Y0108500D03*
X0089500Y0108500D03*
X0099500Y0108500D03*
X0109500Y0108500D03*
X0159500Y0108500D03*
X0169500Y0108500D03*
X0179500Y0108500D03*
X0189500Y0108500D03*
X0199500Y0108500D03*
X0209500Y0108500D03*
X0138500Y0188500D03*
X0128500Y0188500D03*
X0118500Y0188500D03*
X0108500Y0188500D03*
X0108500Y0198500D03*
X0098500Y0198500D03*
X0088500Y0198500D03*
X0078500Y0198500D03*
X0068500Y0198500D03*
X0058500Y0198500D03*
X0048500Y0198500D03*
X0048500Y0188500D03*
X0058500Y0188500D03*
X0068500Y0188500D03*
X0078500Y0188500D03*
X0088500Y0188500D03*
X0118500Y0198500D03*
X0128500Y0198500D03*
X0138500Y0198500D03*
D16*
X0024000Y0224500D02*
X0018000Y0224500D01*
X0018000Y0234500D02*
X0024000Y0234500D01*
X0024000Y0244500D02*
X0018000Y0244500D01*
D17*
X0032000Y0226000D03*
X0040500Y0226000D03*
X0046500Y0225000D03*
X0048500Y0229000D03*
X0056000Y0230500D03*
X0073000Y0225000D03*
X0088500Y0224500D03*
X0091000Y0219500D03*
X0091000Y0216000D03*
X0091000Y0212000D03*
X0104500Y0229000D03*
X0108500Y0229000D03*
X0112500Y0229000D03*
X0114500Y0235000D03*
X0140500Y0258000D03*
X0175000Y0229000D03*
X0178500Y0229000D03*
X0182000Y0229000D03*
X0172000Y0222000D03*
X0168500Y0222000D03*
X0165000Y0222000D03*
X0149000Y0223000D03*
X0199500Y0222000D03*
X0218000Y0222000D03*
X0236500Y0238500D03*
X0265000Y0222000D03*
X0268500Y0222000D03*
X0272000Y0222000D03*
X0274000Y0229000D03*
X0278500Y0229000D03*
X0294000Y0235000D03*
X0301500Y0236000D03*
X0233500Y0193500D03*
X0203500Y0193500D03*
X0175000Y0168000D03*
X0158500Y0152500D03*
X0148500Y0155000D03*
X0138500Y0160500D03*
X0133500Y0157000D03*
X0128500Y0164000D03*
X0118500Y0157000D03*
X0107500Y0145000D03*
X0093500Y0151000D03*
X0089500Y0146500D03*
X0079500Y0142500D03*
X0074500Y0138000D03*
X0064500Y0134000D03*
X0063500Y0155000D03*
X0068500Y0160500D03*
X0058500Y0164000D03*
X0043000Y0169500D03*
X0078500Y0155000D03*
X0105500Y0168500D03*
X0154500Y0134000D03*
X0164500Y0138000D03*
X0168500Y0145000D03*
X0179500Y0142500D03*
X0182500Y0146500D03*
X0191000Y0146500D03*
X0224000Y0134000D03*
X0234500Y0138000D03*
X0249500Y0142500D03*
X0259500Y0142500D03*
X0258500Y0161500D03*
X0248500Y0161500D03*
X0238500Y0162000D03*
X0228500Y0164000D03*
X0287500Y0142000D03*
X0285000Y0093500D03*
X0285000Y0089500D03*
X0285000Y0085500D03*
X0303500Y0085500D03*
X0303500Y0089500D03*
X0303500Y0093500D03*
X0291250Y0056250D03*
X0268510Y0047058D03*
X0268500Y0028000D03*
X0254858Y0028000D03*
X0237142Y0028000D03*
X0224500Y0028000D03*
X0206642Y0028000D03*
X0195500Y0056000D03*
X0191500Y0056000D03*
X0187500Y0056000D03*
X0185500Y0066500D03*
X0163494Y0080603D03*
X0159494Y0080603D03*
X0155494Y0080603D03*
X0153500Y0089500D03*
X0149500Y0089500D03*
X0145500Y0089500D03*
X0210000Y0089500D03*
X0213500Y0089500D03*
X0217000Y0089500D03*
X0216000Y0080500D03*
X0219500Y0080500D03*
X0223000Y0080500D03*
X0257500Y0081500D03*
X0066000Y0073000D03*
X0063005Y0080931D03*
X0059505Y0080931D03*
X0056005Y0080931D03*
X0041500Y0089500D03*
X0041500Y0093000D03*
X0038000Y0091500D03*
X0029500Y0207000D03*
X0044500Y0209000D03*
M02*
