%
M48
M72
T01C0.01575
T02C0.03600
T03C0.04000
T04C0.12598
%
T01
X66000Y73000
X63005Y80931
X59505Y80931
X56005Y80931
X41500Y89500
X41500Y93000
X38000Y91500
X64500Y134000
X74500Y138000
X79500Y142500
X89500Y146500
X93500Y151000
X78500Y155000
X68500Y160500
X63500Y155000
X58500Y164000
X43000Y169500
X29500Y207000
X44500Y209000
X46500Y225000
X48500Y229000
X56000Y230500
X40500Y226000
X32000Y226000
X73000Y225000
X88500Y224500
X91000Y219500
X91000Y216000
X91000Y212000
X104500Y229000
X108500Y229000
X112500Y229000
X114500Y235000
X140500Y258000
X175000Y229000
X178500Y229000
X182000Y229000
X172000Y222000
X168500Y222000
X165000Y222000
X149000Y223000
X199500Y222000
X218000Y222000
X236500Y238500
X265000Y222000
X268500Y222000
X272000Y222000
X274000Y229000
X278500Y229000
X294000Y235000
X301500Y236000
X233500Y193500
X203500Y193500
X175000Y168000
X158500Y152500
X148500Y155000
X138500Y160500
X133500Y157000
X128500Y164000
X118500Y157000
X107500Y145000
X105500Y168500
X154500Y134000
X164500Y138000
X168500Y145000
X179500Y142500
X182500Y146500
X191000Y146500
X224000Y134000
X234500Y138000
X249500Y142500
X259500Y142500
X258500Y161500
X248500Y161500
X238500Y162000
X228500Y164000
X287500Y142000
X285000Y93500
X285000Y89500
X285000Y85500
X303500Y85500
X303500Y89500
X303500Y93500
X291250Y56250
X268510Y47058
X268500Y28000
X254858Y28000
X237142Y28000
X224500Y28000
X206642Y28000
X195500Y56000
X191500Y56000
X187500Y56000
X185500Y66500
X163494Y80603
X159494Y80603
X155494Y80603
X153500Y89500
X149500Y89500
X145500Y89500
X210000Y89500
X213500Y89500
X217000Y89500
X216000Y80500
X219500Y80500
X223000Y80500
X257500Y81500
T02
X259500Y108500
X249500Y108500
X239500Y108500
X229500Y108500
X219500Y108500
X219500Y118500
X229500Y118500
X239500Y118500
X249500Y118500
X259500Y118500
X269500Y118500
X279500Y118500
X279500Y108500
X269500Y108500
X209500Y108500
X199500Y108500
X189500Y108500
X179500Y108500
X169500Y108500
X159500Y108500
X149500Y108500
X139500Y108500
X129500Y108500
X119500Y108500
X119500Y118500
X129500Y118500
X139500Y118500
X149500Y118500
X159500Y118500
X169500Y118500
X179500Y118500
X189500Y118500
X199500Y118500
X209500Y118500
X208500Y188500
X198500Y188500
X188500Y188500
X178500Y188500
X168500Y188500
X158500Y188500
X148500Y188500
X148500Y198500
X158500Y198500
X168500Y198500
X178500Y198500
X188500Y198500
X198500Y198500
X208500Y198500
X218500Y198500
X228500Y198500
X238500Y198500
X238500Y188500
X228500Y188500
X218500Y188500
X248500Y188500
X258500Y188500
X268500Y188500
X278500Y188500
X278500Y198500
X268500Y198500
X258500Y198500
X248500Y198500
X138500Y198500
X128500Y198500
X118500Y198500
X108500Y198500
X98500Y198500
X88500Y198500
X78500Y198500
X68500Y198500
X58500Y198500
X48500Y198500
X48500Y188500
X58500Y188500
X68500Y188500
X78500Y188500
X88500Y188500
X98500Y188500
X108500Y188500
X118500Y188500
X128500Y188500
X138500Y188500
X109500Y118500
X99500Y118500
X89500Y118500
X79500Y118500
X69500Y118500
X59500Y118500
X49500Y118500
X49500Y108500
X59500Y108500
X69500Y108500
X79500Y108500
X89500Y108500
X99500Y108500
X109500Y108500
T03
X111500Y71500
X121500Y71500
X131500Y71500
X141500Y71500
X151500Y71500
X151500Y61500
X141500Y61500
X131500Y61500
X121500Y61500
X111500Y61500
X161500Y61500
X171500Y61500
X181500Y61500
X181500Y71500
X171500Y71500
X161500Y71500
X201500Y71500
X211500Y71500
X221500Y71500
X231500Y71500
X241500Y71500
X251500Y71500
X251500Y61500
X241500Y61500
X231500Y61500
X221500Y61500
X211500Y61500
X201500Y61500
X21000Y224500
X21000Y234500
X21000Y244500
X75500Y241500
X75500Y251500
X85500Y251500
X85500Y241500
X95500Y241500
X95500Y251500
X105500Y251500
X105500Y241500
X115500Y241500
X115500Y251500
X125500Y251500
X125500Y241500
X135500Y241500
X135500Y251500
X145500Y251500
X145500Y241500
X155500Y241500
X155500Y251500
X165500Y251500
X165500Y241500
X181500Y241500
X181500Y251500
X191500Y251500
X191500Y241500
X201500Y241500
X201500Y251500
X211500Y251500
X211500Y241500
X221500Y241500
X221500Y251500
X231500Y251500
X231500Y241500
X241500Y241500
X241500Y251500
X251500Y251500
X251500Y241500
T04
X56500Y61500
X61500Y251500
X271500Y251500
X271500Y61500
M30
