G75*
%MOIN*%
%OFA0B0*%
%FSLAX25Y25*%
%IPPOS*%
%LPD*%
%AMOC8*
5,1,8,0,0,1.08239X$1,22.5*
%
%ADD10C,0.00000*%
D10*
X0001000Y0001500D02*
X0001000Y0284961D01*
X0321701Y0284961D01*
X0321701Y0001500D01*
X0001000Y0001500D01*
X0050201Y0061500D02*
X0050203Y0061658D01*
X0050209Y0061816D01*
X0050219Y0061974D01*
X0050233Y0062132D01*
X0050251Y0062289D01*
X0050272Y0062446D01*
X0050298Y0062602D01*
X0050328Y0062758D01*
X0050361Y0062913D01*
X0050399Y0063066D01*
X0050440Y0063219D01*
X0050485Y0063371D01*
X0050534Y0063522D01*
X0050587Y0063671D01*
X0050643Y0063819D01*
X0050703Y0063965D01*
X0050767Y0064110D01*
X0050835Y0064253D01*
X0050906Y0064395D01*
X0050980Y0064535D01*
X0051058Y0064672D01*
X0051140Y0064808D01*
X0051224Y0064942D01*
X0051313Y0065073D01*
X0051404Y0065202D01*
X0051499Y0065329D01*
X0051596Y0065454D01*
X0051697Y0065576D01*
X0051801Y0065695D01*
X0051908Y0065812D01*
X0052018Y0065926D01*
X0052131Y0066037D01*
X0052246Y0066146D01*
X0052364Y0066251D01*
X0052485Y0066353D01*
X0052608Y0066453D01*
X0052734Y0066549D01*
X0052862Y0066642D01*
X0052992Y0066732D01*
X0053125Y0066818D01*
X0053260Y0066902D01*
X0053396Y0066981D01*
X0053535Y0067058D01*
X0053676Y0067130D01*
X0053818Y0067200D01*
X0053962Y0067265D01*
X0054108Y0067327D01*
X0054255Y0067385D01*
X0054404Y0067440D01*
X0054554Y0067491D01*
X0054705Y0067538D01*
X0054857Y0067581D01*
X0055010Y0067620D01*
X0055165Y0067656D01*
X0055320Y0067687D01*
X0055476Y0067715D01*
X0055632Y0067739D01*
X0055789Y0067759D01*
X0055947Y0067775D01*
X0056104Y0067787D01*
X0056263Y0067795D01*
X0056421Y0067799D01*
X0056579Y0067799D01*
X0056737Y0067795D01*
X0056896Y0067787D01*
X0057053Y0067775D01*
X0057211Y0067759D01*
X0057368Y0067739D01*
X0057524Y0067715D01*
X0057680Y0067687D01*
X0057835Y0067656D01*
X0057990Y0067620D01*
X0058143Y0067581D01*
X0058295Y0067538D01*
X0058446Y0067491D01*
X0058596Y0067440D01*
X0058745Y0067385D01*
X0058892Y0067327D01*
X0059038Y0067265D01*
X0059182Y0067200D01*
X0059324Y0067130D01*
X0059465Y0067058D01*
X0059604Y0066981D01*
X0059740Y0066902D01*
X0059875Y0066818D01*
X0060008Y0066732D01*
X0060138Y0066642D01*
X0060266Y0066549D01*
X0060392Y0066453D01*
X0060515Y0066353D01*
X0060636Y0066251D01*
X0060754Y0066146D01*
X0060869Y0066037D01*
X0060982Y0065926D01*
X0061092Y0065812D01*
X0061199Y0065695D01*
X0061303Y0065576D01*
X0061404Y0065454D01*
X0061501Y0065329D01*
X0061596Y0065202D01*
X0061687Y0065073D01*
X0061776Y0064942D01*
X0061860Y0064808D01*
X0061942Y0064672D01*
X0062020Y0064535D01*
X0062094Y0064395D01*
X0062165Y0064253D01*
X0062233Y0064110D01*
X0062297Y0063965D01*
X0062357Y0063819D01*
X0062413Y0063671D01*
X0062466Y0063522D01*
X0062515Y0063371D01*
X0062560Y0063219D01*
X0062601Y0063066D01*
X0062639Y0062913D01*
X0062672Y0062758D01*
X0062702Y0062602D01*
X0062728Y0062446D01*
X0062749Y0062289D01*
X0062767Y0062132D01*
X0062781Y0061974D01*
X0062791Y0061816D01*
X0062797Y0061658D01*
X0062799Y0061500D01*
X0062797Y0061342D01*
X0062791Y0061184D01*
X0062781Y0061026D01*
X0062767Y0060868D01*
X0062749Y0060711D01*
X0062728Y0060554D01*
X0062702Y0060398D01*
X0062672Y0060242D01*
X0062639Y0060087D01*
X0062601Y0059934D01*
X0062560Y0059781D01*
X0062515Y0059629D01*
X0062466Y0059478D01*
X0062413Y0059329D01*
X0062357Y0059181D01*
X0062297Y0059035D01*
X0062233Y0058890D01*
X0062165Y0058747D01*
X0062094Y0058605D01*
X0062020Y0058465D01*
X0061942Y0058328D01*
X0061860Y0058192D01*
X0061776Y0058058D01*
X0061687Y0057927D01*
X0061596Y0057798D01*
X0061501Y0057671D01*
X0061404Y0057546D01*
X0061303Y0057424D01*
X0061199Y0057305D01*
X0061092Y0057188D01*
X0060982Y0057074D01*
X0060869Y0056963D01*
X0060754Y0056854D01*
X0060636Y0056749D01*
X0060515Y0056647D01*
X0060392Y0056547D01*
X0060266Y0056451D01*
X0060138Y0056358D01*
X0060008Y0056268D01*
X0059875Y0056182D01*
X0059740Y0056098D01*
X0059604Y0056019D01*
X0059465Y0055942D01*
X0059324Y0055870D01*
X0059182Y0055800D01*
X0059038Y0055735D01*
X0058892Y0055673D01*
X0058745Y0055615D01*
X0058596Y0055560D01*
X0058446Y0055509D01*
X0058295Y0055462D01*
X0058143Y0055419D01*
X0057990Y0055380D01*
X0057835Y0055344D01*
X0057680Y0055313D01*
X0057524Y0055285D01*
X0057368Y0055261D01*
X0057211Y0055241D01*
X0057053Y0055225D01*
X0056896Y0055213D01*
X0056737Y0055205D01*
X0056579Y0055201D01*
X0056421Y0055201D01*
X0056263Y0055205D01*
X0056104Y0055213D01*
X0055947Y0055225D01*
X0055789Y0055241D01*
X0055632Y0055261D01*
X0055476Y0055285D01*
X0055320Y0055313D01*
X0055165Y0055344D01*
X0055010Y0055380D01*
X0054857Y0055419D01*
X0054705Y0055462D01*
X0054554Y0055509D01*
X0054404Y0055560D01*
X0054255Y0055615D01*
X0054108Y0055673D01*
X0053962Y0055735D01*
X0053818Y0055800D01*
X0053676Y0055870D01*
X0053535Y0055942D01*
X0053396Y0056019D01*
X0053260Y0056098D01*
X0053125Y0056182D01*
X0052992Y0056268D01*
X0052862Y0056358D01*
X0052734Y0056451D01*
X0052608Y0056547D01*
X0052485Y0056647D01*
X0052364Y0056749D01*
X0052246Y0056854D01*
X0052131Y0056963D01*
X0052018Y0057074D01*
X0051908Y0057188D01*
X0051801Y0057305D01*
X0051697Y0057424D01*
X0051596Y0057546D01*
X0051499Y0057671D01*
X0051404Y0057798D01*
X0051313Y0057927D01*
X0051224Y0058058D01*
X0051140Y0058192D01*
X0051058Y0058328D01*
X0050980Y0058465D01*
X0050906Y0058605D01*
X0050835Y0058747D01*
X0050767Y0058890D01*
X0050703Y0059035D01*
X0050643Y0059181D01*
X0050587Y0059329D01*
X0050534Y0059478D01*
X0050485Y0059629D01*
X0050440Y0059781D01*
X0050399Y0059934D01*
X0050361Y0060087D01*
X0050328Y0060242D01*
X0050298Y0060398D01*
X0050272Y0060554D01*
X0050251Y0060711D01*
X0050233Y0060868D01*
X0050219Y0061026D01*
X0050209Y0061184D01*
X0050203Y0061342D01*
X0050201Y0061500D01*
X0055201Y0251500D02*
X0055203Y0251658D01*
X0055209Y0251816D01*
X0055219Y0251974D01*
X0055233Y0252132D01*
X0055251Y0252289D01*
X0055272Y0252446D01*
X0055298Y0252602D01*
X0055328Y0252758D01*
X0055361Y0252913D01*
X0055399Y0253066D01*
X0055440Y0253219D01*
X0055485Y0253371D01*
X0055534Y0253522D01*
X0055587Y0253671D01*
X0055643Y0253819D01*
X0055703Y0253965D01*
X0055767Y0254110D01*
X0055835Y0254253D01*
X0055906Y0254395D01*
X0055980Y0254535D01*
X0056058Y0254672D01*
X0056140Y0254808D01*
X0056224Y0254942D01*
X0056313Y0255073D01*
X0056404Y0255202D01*
X0056499Y0255329D01*
X0056596Y0255454D01*
X0056697Y0255576D01*
X0056801Y0255695D01*
X0056908Y0255812D01*
X0057018Y0255926D01*
X0057131Y0256037D01*
X0057246Y0256146D01*
X0057364Y0256251D01*
X0057485Y0256353D01*
X0057608Y0256453D01*
X0057734Y0256549D01*
X0057862Y0256642D01*
X0057992Y0256732D01*
X0058125Y0256818D01*
X0058260Y0256902D01*
X0058396Y0256981D01*
X0058535Y0257058D01*
X0058676Y0257130D01*
X0058818Y0257200D01*
X0058962Y0257265D01*
X0059108Y0257327D01*
X0059255Y0257385D01*
X0059404Y0257440D01*
X0059554Y0257491D01*
X0059705Y0257538D01*
X0059857Y0257581D01*
X0060010Y0257620D01*
X0060165Y0257656D01*
X0060320Y0257687D01*
X0060476Y0257715D01*
X0060632Y0257739D01*
X0060789Y0257759D01*
X0060947Y0257775D01*
X0061104Y0257787D01*
X0061263Y0257795D01*
X0061421Y0257799D01*
X0061579Y0257799D01*
X0061737Y0257795D01*
X0061896Y0257787D01*
X0062053Y0257775D01*
X0062211Y0257759D01*
X0062368Y0257739D01*
X0062524Y0257715D01*
X0062680Y0257687D01*
X0062835Y0257656D01*
X0062990Y0257620D01*
X0063143Y0257581D01*
X0063295Y0257538D01*
X0063446Y0257491D01*
X0063596Y0257440D01*
X0063745Y0257385D01*
X0063892Y0257327D01*
X0064038Y0257265D01*
X0064182Y0257200D01*
X0064324Y0257130D01*
X0064465Y0257058D01*
X0064604Y0256981D01*
X0064740Y0256902D01*
X0064875Y0256818D01*
X0065008Y0256732D01*
X0065138Y0256642D01*
X0065266Y0256549D01*
X0065392Y0256453D01*
X0065515Y0256353D01*
X0065636Y0256251D01*
X0065754Y0256146D01*
X0065869Y0256037D01*
X0065982Y0255926D01*
X0066092Y0255812D01*
X0066199Y0255695D01*
X0066303Y0255576D01*
X0066404Y0255454D01*
X0066501Y0255329D01*
X0066596Y0255202D01*
X0066687Y0255073D01*
X0066776Y0254942D01*
X0066860Y0254808D01*
X0066942Y0254672D01*
X0067020Y0254535D01*
X0067094Y0254395D01*
X0067165Y0254253D01*
X0067233Y0254110D01*
X0067297Y0253965D01*
X0067357Y0253819D01*
X0067413Y0253671D01*
X0067466Y0253522D01*
X0067515Y0253371D01*
X0067560Y0253219D01*
X0067601Y0253066D01*
X0067639Y0252913D01*
X0067672Y0252758D01*
X0067702Y0252602D01*
X0067728Y0252446D01*
X0067749Y0252289D01*
X0067767Y0252132D01*
X0067781Y0251974D01*
X0067791Y0251816D01*
X0067797Y0251658D01*
X0067799Y0251500D01*
X0067797Y0251342D01*
X0067791Y0251184D01*
X0067781Y0251026D01*
X0067767Y0250868D01*
X0067749Y0250711D01*
X0067728Y0250554D01*
X0067702Y0250398D01*
X0067672Y0250242D01*
X0067639Y0250087D01*
X0067601Y0249934D01*
X0067560Y0249781D01*
X0067515Y0249629D01*
X0067466Y0249478D01*
X0067413Y0249329D01*
X0067357Y0249181D01*
X0067297Y0249035D01*
X0067233Y0248890D01*
X0067165Y0248747D01*
X0067094Y0248605D01*
X0067020Y0248465D01*
X0066942Y0248328D01*
X0066860Y0248192D01*
X0066776Y0248058D01*
X0066687Y0247927D01*
X0066596Y0247798D01*
X0066501Y0247671D01*
X0066404Y0247546D01*
X0066303Y0247424D01*
X0066199Y0247305D01*
X0066092Y0247188D01*
X0065982Y0247074D01*
X0065869Y0246963D01*
X0065754Y0246854D01*
X0065636Y0246749D01*
X0065515Y0246647D01*
X0065392Y0246547D01*
X0065266Y0246451D01*
X0065138Y0246358D01*
X0065008Y0246268D01*
X0064875Y0246182D01*
X0064740Y0246098D01*
X0064604Y0246019D01*
X0064465Y0245942D01*
X0064324Y0245870D01*
X0064182Y0245800D01*
X0064038Y0245735D01*
X0063892Y0245673D01*
X0063745Y0245615D01*
X0063596Y0245560D01*
X0063446Y0245509D01*
X0063295Y0245462D01*
X0063143Y0245419D01*
X0062990Y0245380D01*
X0062835Y0245344D01*
X0062680Y0245313D01*
X0062524Y0245285D01*
X0062368Y0245261D01*
X0062211Y0245241D01*
X0062053Y0245225D01*
X0061896Y0245213D01*
X0061737Y0245205D01*
X0061579Y0245201D01*
X0061421Y0245201D01*
X0061263Y0245205D01*
X0061104Y0245213D01*
X0060947Y0245225D01*
X0060789Y0245241D01*
X0060632Y0245261D01*
X0060476Y0245285D01*
X0060320Y0245313D01*
X0060165Y0245344D01*
X0060010Y0245380D01*
X0059857Y0245419D01*
X0059705Y0245462D01*
X0059554Y0245509D01*
X0059404Y0245560D01*
X0059255Y0245615D01*
X0059108Y0245673D01*
X0058962Y0245735D01*
X0058818Y0245800D01*
X0058676Y0245870D01*
X0058535Y0245942D01*
X0058396Y0246019D01*
X0058260Y0246098D01*
X0058125Y0246182D01*
X0057992Y0246268D01*
X0057862Y0246358D01*
X0057734Y0246451D01*
X0057608Y0246547D01*
X0057485Y0246647D01*
X0057364Y0246749D01*
X0057246Y0246854D01*
X0057131Y0246963D01*
X0057018Y0247074D01*
X0056908Y0247188D01*
X0056801Y0247305D01*
X0056697Y0247424D01*
X0056596Y0247546D01*
X0056499Y0247671D01*
X0056404Y0247798D01*
X0056313Y0247927D01*
X0056224Y0248058D01*
X0056140Y0248192D01*
X0056058Y0248328D01*
X0055980Y0248465D01*
X0055906Y0248605D01*
X0055835Y0248747D01*
X0055767Y0248890D01*
X0055703Y0249035D01*
X0055643Y0249181D01*
X0055587Y0249329D01*
X0055534Y0249478D01*
X0055485Y0249629D01*
X0055440Y0249781D01*
X0055399Y0249934D01*
X0055361Y0250087D01*
X0055328Y0250242D01*
X0055298Y0250398D01*
X0055272Y0250554D01*
X0055251Y0250711D01*
X0055233Y0250868D01*
X0055219Y0251026D01*
X0055209Y0251184D01*
X0055203Y0251342D01*
X0055201Y0251500D01*
X0265201Y0251500D02*
X0265203Y0251658D01*
X0265209Y0251816D01*
X0265219Y0251974D01*
X0265233Y0252132D01*
X0265251Y0252289D01*
X0265272Y0252446D01*
X0265298Y0252602D01*
X0265328Y0252758D01*
X0265361Y0252913D01*
X0265399Y0253066D01*
X0265440Y0253219D01*
X0265485Y0253371D01*
X0265534Y0253522D01*
X0265587Y0253671D01*
X0265643Y0253819D01*
X0265703Y0253965D01*
X0265767Y0254110D01*
X0265835Y0254253D01*
X0265906Y0254395D01*
X0265980Y0254535D01*
X0266058Y0254672D01*
X0266140Y0254808D01*
X0266224Y0254942D01*
X0266313Y0255073D01*
X0266404Y0255202D01*
X0266499Y0255329D01*
X0266596Y0255454D01*
X0266697Y0255576D01*
X0266801Y0255695D01*
X0266908Y0255812D01*
X0267018Y0255926D01*
X0267131Y0256037D01*
X0267246Y0256146D01*
X0267364Y0256251D01*
X0267485Y0256353D01*
X0267608Y0256453D01*
X0267734Y0256549D01*
X0267862Y0256642D01*
X0267992Y0256732D01*
X0268125Y0256818D01*
X0268260Y0256902D01*
X0268396Y0256981D01*
X0268535Y0257058D01*
X0268676Y0257130D01*
X0268818Y0257200D01*
X0268962Y0257265D01*
X0269108Y0257327D01*
X0269255Y0257385D01*
X0269404Y0257440D01*
X0269554Y0257491D01*
X0269705Y0257538D01*
X0269857Y0257581D01*
X0270010Y0257620D01*
X0270165Y0257656D01*
X0270320Y0257687D01*
X0270476Y0257715D01*
X0270632Y0257739D01*
X0270789Y0257759D01*
X0270947Y0257775D01*
X0271104Y0257787D01*
X0271263Y0257795D01*
X0271421Y0257799D01*
X0271579Y0257799D01*
X0271737Y0257795D01*
X0271896Y0257787D01*
X0272053Y0257775D01*
X0272211Y0257759D01*
X0272368Y0257739D01*
X0272524Y0257715D01*
X0272680Y0257687D01*
X0272835Y0257656D01*
X0272990Y0257620D01*
X0273143Y0257581D01*
X0273295Y0257538D01*
X0273446Y0257491D01*
X0273596Y0257440D01*
X0273745Y0257385D01*
X0273892Y0257327D01*
X0274038Y0257265D01*
X0274182Y0257200D01*
X0274324Y0257130D01*
X0274465Y0257058D01*
X0274604Y0256981D01*
X0274740Y0256902D01*
X0274875Y0256818D01*
X0275008Y0256732D01*
X0275138Y0256642D01*
X0275266Y0256549D01*
X0275392Y0256453D01*
X0275515Y0256353D01*
X0275636Y0256251D01*
X0275754Y0256146D01*
X0275869Y0256037D01*
X0275982Y0255926D01*
X0276092Y0255812D01*
X0276199Y0255695D01*
X0276303Y0255576D01*
X0276404Y0255454D01*
X0276501Y0255329D01*
X0276596Y0255202D01*
X0276687Y0255073D01*
X0276776Y0254942D01*
X0276860Y0254808D01*
X0276942Y0254672D01*
X0277020Y0254535D01*
X0277094Y0254395D01*
X0277165Y0254253D01*
X0277233Y0254110D01*
X0277297Y0253965D01*
X0277357Y0253819D01*
X0277413Y0253671D01*
X0277466Y0253522D01*
X0277515Y0253371D01*
X0277560Y0253219D01*
X0277601Y0253066D01*
X0277639Y0252913D01*
X0277672Y0252758D01*
X0277702Y0252602D01*
X0277728Y0252446D01*
X0277749Y0252289D01*
X0277767Y0252132D01*
X0277781Y0251974D01*
X0277791Y0251816D01*
X0277797Y0251658D01*
X0277799Y0251500D01*
X0277797Y0251342D01*
X0277791Y0251184D01*
X0277781Y0251026D01*
X0277767Y0250868D01*
X0277749Y0250711D01*
X0277728Y0250554D01*
X0277702Y0250398D01*
X0277672Y0250242D01*
X0277639Y0250087D01*
X0277601Y0249934D01*
X0277560Y0249781D01*
X0277515Y0249629D01*
X0277466Y0249478D01*
X0277413Y0249329D01*
X0277357Y0249181D01*
X0277297Y0249035D01*
X0277233Y0248890D01*
X0277165Y0248747D01*
X0277094Y0248605D01*
X0277020Y0248465D01*
X0276942Y0248328D01*
X0276860Y0248192D01*
X0276776Y0248058D01*
X0276687Y0247927D01*
X0276596Y0247798D01*
X0276501Y0247671D01*
X0276404Y0247546D01*
X0276303Y0247424D01*
X0276199Y0247305D01*
X0276092Y0247188D01*
X0275982Y0247074D01*
X0275869Y0246963D01*
X0275754Y0246854D01*
X0275636Y0246749D01*
X0275515Y0246647D01*
X0275392Y0246547D01*
X0275266Y0246451D01*
X0275138Y0246358D01*
X0275008Y0246268D01*
X0274875Y0246182D01*
X0274740Y0246098D01*
X0274604Y0246019D01*
X0274465Y0245942D01*
X0274324Y0245870D01*
X0274182Y0245800D01*
X0274038Y0245735D01*
X0273892Y0245673D01*
X0273745Y0245615D01*
X0273596Y0245560D01*
X0273446Y0245509D01*
X0273295Y0245462D01*
X0273143Y0245419D01*
X0272990Y0245380D01*
X0272835Y0245344D01*
X0272680Y0245313D01*
X0272524Y0245285D01*
X0272368Y0245261D01*
X0272211Y0245241D01*
X0272053Y0245225D01*
X0271896Y0245213D01*
X0271737Y0245205D01*
X0271579Y0245201D01*
X0271421Y0245201D01*
X0271263Y0245205D01*
X0271104Y0245213D01*
X0270947Y0245225D01*
X0270789Y0245241D01*
X0270632Y0245261D01*
X0270476Y0245285D01*
X0270320Y0245313D01*
X0270165Y0245344D01*
X0270010Y0245380D01*
X0269857Y0245419D01*
X0269705Y0245462D01*
X0269554Y0245509D01*
X0269404Y0245560D01*
X0269255Y0245615D01*
X0269108Y0245673D01*
X0268962Y0245735D01*
X0268818Y0245800D01*
X0268676Y0245870D01*
X0268535Y0245942D01*
X0268396Y0246019D01*
X0268260Y0246098D01*
X0268125Y0246182D01*
X0267992Y0246268D01*
X0267862Y0246358D01*
X0267734Y0246451D01*
X0267608Y0246547D01*
X0267485Y0246647D01*
X0267364Y0246749D01*
X0267246Y0246854D01*
X0267131Y0246963D01*
X0267018Y0247074D01*
X0266908Y0247188D01*
X0266801Y0247305D01*
X0266697Y0247424D01*
X0266596Y0247546D01*
X0266499Y0247671D01*
X0266404Y0247798D01*
X0266313Y0247927D01*
X0266224Y0248058D01*
X0266140Y0248192D01*
X0266058Y0248328D01*
X0265980Y0248465D01*
X0265906Y0248605D01*
X0265835Y0248747D01*
X0265767Y0248890D01*
X0265703Y0249035D01*
X0265643Y0249181D01*
X0265587Y0249329D01*
X0265534Y0249478D01*
X0265485Y0249629D01*
X0265440Y0249781D01*
X0265399Y0249934D01*
X0265361Y0250087D01*
X0265328Y0250242D01*
X0265298Y0250398D01*
X0265272Y0250554D01*
X0265251Y0250711D01*
X0265233Y0250868D01*
X0265219Y0251026D01*
X0265209Y0251184D01*
X0265203Y0251342D01*
X0265201Y0251500D01*
X0265201Y0061500D02*
X0265203Y0061658D01*
X0265209Y0061816D01*
X0265219Y0061974D01*
X0265233Y0062132D01*
X0265251Y0062289D01*
X0265272Y0062446D01*
X0265298Y0062602D01*
X0265328Y0062758D01*
X0265361Y0062913D01*
X0265399Y0063066D01*
X0265440Y0063219D01*
X0265485Y0063371D01*
X0265534Y0063522D01*
X0265587Y0063671D01*
X0265643Y0063819D01*
X0265703Y0063965D01*
X0265767Y0064110D01*
X0265835Y0064253D01*
X0265906Y0064395D01*
X0265980Y0064535D01*
X0266058Y0064672D01*
X0266140Y0064808D01*
X0266224Y0064942D01*
X0266313Y0065073D01*
X0266404Y0065202D01*
X0266499Y0065329D01*
X0266596Y0065454D01*
X0266697Y0065576D01*
X0266801Y0065695D01*
X0266908Y0065812D01*
X0267018Y0065926D01*
X0267131Y0066037D01*
X0267246Y0066146D01*
X0267364Y0066251D01*
X0267485Y0066353D01*
X0267608Y0066453D01*
X0267734Y0066549D01*
X0267862Y0066642D01*
X0267992Y0066732D01*
X0268125Y0066818D01*
X0268260Y0066902D01*
X0268396Y0066981D01*
X0268535Y0067058D01*
X0268676Y0067130D01*
X0268818Y0067200D01*
X0268962Y0067265D01*
X0269108Y0067327D01*
X0269255Y0067385D01*
X0269404Y0067440D01*
X0269554Y0067491D01*
X0269705Y0067538D01*
X0269857Y0067581D01*
X0270010Y0067620D01*
X0270165Y0067656D01*
X0270320Y0067687D01*
X0270476Y0067715D01*
X0270632Y0067739D01*
X0270789Y0067759D01*
X0270947Y0067775D01*
X0271104Y0067787D01*
X0271263Y0067795D01*
X0271421Y0067799D01*
X0271579Y0067799D01*
X0271737Y0067795D01*
X0271896Y0067787D01*
X0272053Y0067775D01*
X0272211Y0067759D01*
X0272368Y0067739D01*
X0272524Y0067715D01*
X0272680Y0067687D01*
X0272835Y0067656D01*
X0272990Y0067620D01*
X0273143Y0067581D01*
X0273295Y0067538D01*
X0273446Y0067491D01*
X0273596Y0067440D01*
X0273745Y0067385D01*
X0273892Y0067327D01*
X0274038Y0067265D01*
X0274182Y0067200D01*
X0274324Y0067130D01*
X0274465Y0067058D01*
X0274604Y0066981D01*
X0274740Y0066902D01*
X0274875Y0066818D01*
X0275008Y0066732D01*
X0275138Y0066642D01*
X0275266Y0066549D01*
X0275392Y0066453D01*
X0275515Y0066353D01*
X0275636Y0066251D01*
X0275754Y0066146D01*
X0275869Y0066037D01*
X0275982Y0065926D01*
X0276092Y0065812D01*
X0276199Y0065695D01*
X0276303Y0065576D01*
X0276404Y0065454D01*
X0276501Y0065329D01*
X0276596Y0065202D01*
X0276687Y0065073D01*
X0276776Y0064942D01*
X0276860Y0064808D01*
X0276942Y0064672D01*
X0277020Y0064535D01*
X0277094Y0064395D01*
X0277165Y0064253D01*
X0277233Y0064110D01*
X0277297Y0063965D01*
X0277357Y0063819D01*
X0277413Y0063671D01*
X0277466Y0063522D01*
X0277515Y0063371D01*
X0277560Y0063219D01*
X0277601Y0063066D01*
X0277639Y0062913D01*
X0277672Y0062758D01*
X0277702Y0062602D01*
X0277728Y0062446D01*
X0277749Y0062289D01*
X0277767Y0062132D01*
X0277781Y0061974D01*
X0277791Y0061816D01*
X0277797Y0061658D01*
X0277799Y0061500D01*
X0277797Y0061342D01*
X0277791Y0061184D01*
X0277781Y0061026D01*
X0277767Y0060868D01*
X0277749Y0060711D01*
X0277728Y0060554D01*
X0277702Y0060398D01*
X0277672Y0060242D01*
X0277639Y0060087D01*
X0277601Y0059934D01*
X0277560Y0059781D01*
X0277515Y0059629D01*
X0277466Y0059478D01*
X0277413Y0059329D01*
X0277357Y0059181D01*
X0277297Y0059035D01*
X0277233Y0058890D01*
X0277165Y0058747D01*
X0277094Y0058605D01*
X0277020Y0058465D01*
X0276942Y0058328D01*
X0276860Y0058192D01*
X0276776Y0058058D01*
X0276687Y0057927D01*
X0276596Y0057798D01*
X0276501Y0057671D01*
X0276404Y0057546D01*
X0276303Y0057424D01*
X0276199Y0057305D01*
X0276092Y0057188D01*
X0275982Y0057074D01*
X0275869Y0056963D01*
X0275754Y0056854D01*
X0275636Y0056749D01*
X0275515Y0056647D01*
X0275392Y0056547D01*
X0275266Y0056451D01*
X0275138Y0056358D01*
X0275008Y0056268D01*
X0274875Y0056182D01*
X0274740Y0056098D01*
X0274604Y0056019D01*
X0274465Y0055942D01*
X0274324Y0055870D01*
X0274182Y0055800D01*
X0274038Y0055735D01*
X0273892Y0055673D01*
X0273745Y0055615D01*
X0273596Y0055560D01*
X0273446Y0055509D01*
X0273295Y0055462D01*
X0273143Y0055419D01*
X0272990Y0055380D01*
X0272835Y0055344D01*
X0272680Y0055313D01*
X0272524Y0055285D01*
X0272368Y0055261D01*
X0272211Y0055241D01*
X0272053Y0055225D01*
X0271896Y0055213D01*
X0271737Y0055205D01*
X0271579Y0055201D01*
X0271421Y0055201D01*
X0271263Y0055205D01*
X0271104Y0055213D01*
X0270947Y0055225D01*
X0270789Y0055241D01*
X0270632Y0055261D01*
X0270476Y0055285D01*
X0270320Y0055313D01*
X0270165Y0055344D01*
X0270010Y0055380D01*
X0269857Y0055419D01*
X0269705Y0055462D01*
X0269554Y0055509D01*
X0269404Y0055560D01*
X0269255Y0055615D01*
X0269108Y0055673D01*
X0268962Y0055735D01*
X0268818Y0055800D01*
X0268676Y0055870D01*
X0268535Y0055942D01*
X0268396Y0056019D01*
X0268260Y0056098D01*
X0268125Y0056182D01*
X0267992Y0056268D01*
X0267862Y0056358D01*
X0267734Y0056451D01*
X0267608Y0056547D01*
X0267485Y0056647D01*
X0267364Y0056749D01*
X0267246Y0056854D01*
X0267131Y0056963D01*
X0267018Y0057074D01*
X0266908Y0057188D01*
X0266801Y0057305D01*
X0266697Y0057424D01*
X0266596Y0057546D01*
X0266499Y0057671D01*
X0266404Y0057798D01*
X0266313Y0057927D01*
X0266224Y0058058D01*
X0266140Y0058192D01*
X0266058Y0058328D01*
X0265980Y0058465D01*
X0265906Y0058605D01*
X0265835Y0058747D01*
X0265767Y0058890D01*
X0265703Y0059035D01*
X0265643Y0059181D01*
X0265587Y0059329D01*
X0265534Y0059478D01*
X0265485Y0059629D01*
X0265440Y0059781D01*
X0265399Y0059934D01*
X0265361Y0060087D01*
X0265328Y0060242D01*
X0265298Y0060398D01*
X0265272Y0060554D01*
X0265251Y0060711D01*
X0265233Y0060868D01*
X0265219Y0061026D01*
X0265209Y0061184D01*
X0265203Y0061342D01*
X0265201Y0061500D01*
M02*
