G75*
%MOIN*%
%OFA0B0*%
%FSLAX25Y25*%
%IPPOS*%
%LPD*%
%AMOC8*
5,1,8,0,0,1.08239X$1,22.5*
%
%ADD10C,0.00300*%
D10*
X0040782Y0094709D02*
X0040782Y0098412D01*
X0042633Y0096561D01*
X0040165Y0096561D01*
X0040165Y0099709D02*
X0042633Y0099709D01*
X0043848Y0099709D02*
X0046316Y0099709D01*
X0045082Y0099709D02*
X0045082Y0103412D01*
X0046316Y0102178D01*
X0047531Y0102795D02*
X0048148Y0103412D01*
X0049382Y0103412D01*
X0050000Y0102795D01*
X0050000Y0100326D01*
X0049382Y0099709D01*
X0048148Y0099709D01*
X0047531Y0100326D01*
X0048148Y0098412D02*
X0049382Y0098412D01*
X0050000Y0097795D01*
X0050000Y0095326D01*
X0049382Y0094709D01*
X0048148Y0094709D01*
X0047531Y0095326D01*
X0046316Y0094709D02*
X0043848Y0097178D01*
X0043848Y0097795D01*
X0044465Y0098412D01*
X0045699Y0098412D01*
X0046316Y0097795D01*
X0047531Y0097795D02*
X0048148Y0098412D01*
X0046316Y0094709D02*
X0043848Y0094709D01*
X0041399Y0099709D02*
X0041399Y0103412D01*
X0042633Y0102178D01*
X0043295Y0118500D02*
X0040826Y0118500D01*
X0040209Y0119118D01*
X0040209Y0120352D01*
X0040826Y0120969D01*
X0040826Y0122184D02*
X0040209Y0122801D01*
X0040209Y0124035D01*
X0040826Y0124652D01*
X0042061Y0124652D01*
X0042678Y0124035D01*
X0042678Y0123418D01*
X0042061Y0122184D01*
X0043912Y0122184D01*
X0043912Y0124652D01*
X0043295Y0120969D02*
X0043912Y0120352D01*
X0043912Y0119118D01*
X0043295Y0118500D01*
X0038412Y0119118D02*
X0037795Y0118500D01*
X0035326Y0118500D01*
X0034709Y0119118D01*
X0034709Y0120352D01*
X0035326Y0120969D01*
X0034709Y0122184D02*
X0034709Y0124652D01*
X0034709Y0123418D02*
X0038412Y0123418D01*
X0037178Y0122184D01*
X0037795Y0120969D02*
X0038412Y0120352D01*
X0038412Y0119118D01*
X0037795Y0125867D02*
X0037178Y0125867D01*
X0036561Y0126484D01*
X0036561Y0127718D01*
X0035943Y0128335D01*
X0035326Y0128335D01*
X0034709Y0127718D01*
X0034709Y0126484D01*
X0035326Y0125867D01*
X0035943Y0125867D01*
X0036561Y0126484D01*
X0036561Y0127718D02*
X0037178Y0128335D01*
X0037795Y0128335D01*
X0038412Y0127718D01*
X0038412Y0126484D01*
X0037795Y0125867D01*
X0076782Y0204709D02*
X0078016Y0204709D01*
X0078633Y0205326D01*
X0079848Y0204709D02*
X0082316Y0204709D01*
X0079848Y0207178D01*
X0079848Y0207795D01*
X0080465Y0208412D01*
X0081699Y0208412D01*
X0082316Y0207795D01*
X0083531Y0207795D02*
X0084148Y0208412D01*
X0085382Y0208412D01*
X0086000Y0207795D01*
X0086000Y0205326D01*
X0085382Y0204709D01*
X0084148Y0204709D01*
X0083531Y0205326D01*
X0078633Y0207795D02*
X0078016Y0208412D01*
X0076782Y0208412D01*
X0076165Y0207795D01*
X0076165Y0207178D01*
X0076782Y0206561D01*
X0076165Y0205943D01*
X0076165Y0205326D01*
X0076782Y0204709D01*
X0076782Y0206561D02*
X0077399Y0206561D01*
X0076782Y0210209D02*
X0078016Y0210209D01*
X0078633Y0210826D01*
X0076165Y0213295D01*
X0076165Y0210826D01*
X0076782Y0210209D01*
X0078633Y0210826D02*
X0078633Y0213295D01*
X0078016Y0213912D01*
X0076782Y0213912D01*
X0076165Y0213295D01*
X0079848Y0210209D02*
X0082316Y0210209D01*
X0081082Y0210209D02*
X0081082Y0213912D01*
X0082316Y0212678D01*
X0083531Y0213295D02*
X0084148Y0213912D01*
X0085382Y0213912D01*
X0086000Y0213295D01*
X0086000Y0210826D01*
X0085382Y0210209D01*
X0084148Y0210209D01*
X0083531Y0210826D01*
X0120915Y0212443D02*
X0123384Y0212443D01*
X0121532Y0214294D01*
X0121532Y0210591D01*
X0120915Y0208294D02*
X0120915Y0207677D01*
X0123384Y0205208D01*
X0123384Y0204591D01*
X0124598Y0204591D02*
X0127067Y0204591D01*
X0125832Y0204591D02*
X0125832Y0208294D01*
X0127067Y0207060D01*
X0128281Y0207677D02*
X0128898Y0208294D01*
X0130133Y0208294D01*
X0130750Y0207677D01*
X0130750Y0205208D01*
X0130133Y0204591D01*
X0128898Y0204591D01*
X0128281Y0205208D01*
X0123384Y0208294D02*
X0120915Y0208294D01*
X0124598Y0211208D02*
X0125215Y0210591D01*
X0126449Y0210591D01*
X0127067Y0211208D01*
X0127067Y0213677D01*
X0126449Y0214294D01*
X0125215Y0214294D01*
X0124598Y0213677D01*
X0151665Y0214178D02*
X0151665Y0214795D01*
X0152282Y0215412D01*
X0153516Y0215412D01*
X0154133Y0214795D01*
X0155348Y0214795D02*
X0155348Y0214178D01*
X0157816Y0211709D01*
X0155348Y0211709D01*
X0154133Y0211709D02*
X0151665Y0214178D01*
X0151665Y0211709D02*
X0154133Y0211709D01*
X0155348Y0214795D02*
X0155965Y0215412D01*
X0157199Y0215412D01*
X0157816Y0214795D01*
X0159031Y0214795D02*
X0159648Y0215412D01*
X0160882Y0215412D01*
X0161500Y0214795D01*
X0161500Y0212326D01*
X0160882Y0211709D01*
X0159648Y0211709D01*
X0159031Y0212326D01*
X0159648Y0208912D02*
X0160882Y0208912D01*
X0161500Y0208295D01*
X0161500Y0205826D01*
X0160882Y0205209D01*
X0159648Y0205209D01*
X0159031Y0205826D01*
X0157816Y0205826D02*
X0157199Y0205209D01*
X0155965Y0205209D01*
X0155348Y0205826D01*
X0155348Y0208295D01*
X0155965Y0208912D01*
X0157199Y0208912D01*
X0157816Y0208295D01*
X0157816Y0207678D01*
X0157199Y0207061D01*
X0155348Y0207061D01*
X0159031Y0208295D02*
X0159648Y0208912D01*
X0189415Y0208294D02*
X0190649Y0207677D01*
X0191884Y0206443D01*
X0190032Y0206443D01*
X0189415Y0205825D01*
X0189415Y0205208D01*
X0190032Y0204591D01*
X0191266Y0204591D01*
X0191884Y0205208D01*
X0191884Y0206443D01*
X0193098Y0204591D02*
X0195567Y0204591D01*
X0194332Y0204591D02*
X0194332Y0208294D01*
X0195567Y0207060D01*
X0196781Y0207677D02*
X0197398Y0208294D01*
X0198633Y0208294D01*
X0199250Y0207677D01*
X0199250Y0205208D01*
X0198633Y0204591D01*
X0197398Y0204591D01*
X0196781Y0205208D01*
X0194949Y0210091D02*
X0193715Y0210091D01*
X0193098Y0210708D01*
X0191884Y0210708D02*
X0191266Y0210091D01*
X0190032Y0210091D01*
X0189415Y0210708D01*
X0189415Y0211325D01*
X0190032Y0211943D01*
X0190649Y0211943D01*
X0190032Y0211943D02*
X0189415Y0212560D01*
X0189415Y0213177D01*
X0190032Y0213794D01*
X0191266Y0213794D01*
X0191884Y0213177D01*
X0193098Y0213177D02*
X0193715Y0213794D01*
X0194949Y0213794D01*
X0195567Y0213177D01*
X0195567Y0210708D01*
X0194949Y0210091D01*
X0279415Y0209091D02*
X0281884Y0209091D01*
X0283098Y0209091D02*
X0285567Y0209091D01*
X0283098Y0211560D01*
X0283098Y0212177D01*
X0283715Y0212794D01*
X0284949Y0212794D01*
X0285567Y0212177D01*
X0286781Y0212177D02*
X0287398Y0212794D01*
X0288633Y0212794D01*
X0289250Y0212177D01*
X0289250Y0209708D01*
X0288633Y0209091D01*
X0287398Y0209091D01*
X0286781Y0209708D01*
X0284949Y0207294D02*
X0283715Y0207294D01*
X0283098Y0206677D01*
X0281884Y0206677D02*
X0281884Y0206060D01*
X0281266Y0205443D01*
X0280032Y0205443D01*
X0279415Y0204825D01*
X0279415Y0204208D01*
X0280032Y0203591D01*
X0281266Y0203591D01*
X0281884Y0204208D01*
X0281884Y0204825D01*
X0281266Y0205443D01*
X0280032Y0205443D02*
X0279415Y0206060D01*
X0279415Y0206677D01*
X0280032Y0207294D01*
X0281266Y0207294D01*
X0281884Y0206677D01*
X0280649Y0209091D02*
X0280649Y0212794D01*
X0281884Y0211560D01*
X0284949Y0207294D02*
X0285567Y0206677D01*
X0285567Y0204208D01*
X0284949Y0203591D01*
X0283715Y0203591D01*
X0283098Y0204208D01*
X0284208Y0187085D02*
X0283591Y0186468D01*
X0283591Y0185234D01*
X0284208Y0184616D01*
X0285443Y0184616D02*
X0286060Y0185851D01*
X0286060Y0186468D01*
X0285443Y0187085D01*
X0284208Y0187085D01*
X0285443Y0184616D02*
X0287294Y0184616D01*
X0287294Y0187085D01*
X0289591Y0187085D02*
X0289591Y0184616D01*
X0292060Y0187085D01*
X0292677Y0187085D01*
X0293294Y0186468D01*
X0293294Y0185234D01*
X0292677Y0184616D01*
X0292677Y0183402D02*
X0293294Y0182785D01*
X0293294Y0181551D01*
X0292677Y0180933D01*
X0290208Y0180933D01*
X0289591Y0181551D01*
X0289591Y0182785D01*
X0290208Y0183402D01*
X0287294Y0182168D02*
X0286060Y0180933D01*
X0286677Y0179719D02*
X0287294Y0179102D01*
X0287294Y0177867D01*
X0286677Y0177250D01*
X0284208Y0177250D01*
X0283591Y0177867D01*
X0283591Y0179102D01*
X0284208Y0179719D01*
X0283591Y0180933D02*
X0283591Y0183402D01*
X0283591Y0182168D02*
X0287294Y0182168D01*
X0243382Y0103412D02*
X0244000Y0102795D01*
X0244000Y0100326D01*
X0243382Y0099709D01*
X0242148Y0099709D01*
X0241531Y0100326D01*
X0240316Y0099709D02*
X0237848Y0099709D01*
X0236633Y0100326D02*
X0236016Y0099709D01*
X0234782Y0099709D01*
X0234165Y0100326D01*
X0234165Y0100943D01*
X0234782Y0101561D01*
X0236633Y0101561D01*
X0236633Y0100326D01*
X0236633Y0101561D02*
X0235399Y0102795D01*
X0234165Y0103412D01*
X0237848Y0102795D02*
X0238465Y0103412D01*
X0239699Y0103412D01*
X0240316Y0102795D01*
X0241531Y0102795D02*
X0242148Y0103412D01*
X0243382Y0103412D01*
X0240316Y0099709D02*
X0237848Y0102178D01*
X0237848Y0102795D01*
X0239082Y0097412D02*
X0239082Y0093709D01*
X0240316Y0093709D02*
X0237848Y0093709D01*
X0236633Y0094326D02*
X0236016Y0093709D01*
X0234782Y0093709D01*
X0234165Y0094326D01*
X0234165Y0094943D01*
X0234782Y0095561D01*
X0235399Y0095561D01*
X0234782Y0095561D02*
X0234165Y0096178D01*
X0234165Y0096795D01*
X0234782Y0097412D01*
X0236016Y0097412D01*
X0236633Y0096795D01*
X0239082Y0097412D02*
X0240316Y0096178D01*
X0241531Y0096795D02*
X0242148Y0097412D01*
X0243382Y0097412D01*
X0244000Y0096795D01*
X0244000Y0094326D01*
X0243382Y0093709D01*
X0242148Y0093709D01*
X0241531Y0094326D01*
X0210500Y0094326D02*
X0209882Y0093709D01*
X0208648Y0093709D01*
X0208031Y0094326D01*
X0206816Y0094326D02*
X0206199Y0093709D01*
X0204965Y0093709D01*
X0204348Y0094326D01*
X0204348Y0094943D01*
X0204965Y0095561D01*
X0205582Y0095561D01*
X0204965Y0095561D02*
X0204348Y0096178D01*
X0204348Y0096795D01*
X0204965Y0097412D01*
X0206199Y0097412D01*
X0206816Y0096795D01*
X0208031Y0096795D02*
X0208648Y0097412D01*
X0209882Y0097412D01*
X0210500Y0096795D01*
X0210500Y0094326D01*
X0209882Y0099709D02*
X0208648Y0099709D01*
X0208031Y0100326D01*
X0206816Y0099709D02*
X0204348Y0099709D01*
X0203133Y0100326D02*
X0202516Y0099709D01*
X0201282Y0099709D01*
X0200665Y0100326D01*
X0200665Y0102795D01*
X0201282Y0103412D01*
X0202516Y0103412D01*
X0203133Y0102795D01*
X0203133Y0102178D01*
X0202516Y0101561D01*
X0200665Y0101561D01*
X0204348Y0102178D02*
X0204348Y0102795D01*
X0204965Y0103412D01*
X0206199Y0103412D01*
X0206816Y0102795D01*
X0208031Y0102795D02*
X0208648Y0103412D01*
X0209882Y0103412D01*
X0210500Y0102795D01*
X0210500Y0100326D01*
X0209882Y0099709D01*
X0206816Y0099709D02*
X0204348Y0102178D01*
X0202516Y0097412D02*
X0201282Y0097412D01*
X0200665Y0096795D01*
X0203133Y0094326D01*
X0202516Y0093709D01*
X0201282Y0093709D01*
X0200665Y0094326D01*
X0200665Y0096795D01*
X0202516Y0097412D02*
X0203133Y0096795D01*
X0203133Y0094326D01*
X0174500Y0095326D02*
X0173882Y0094709D01*
X0172648Y0094709D01*
X0172031Y0095326D01*
X0170816Y0094709D02*
X0168348Y0097178D01*
X0168348Y0097795D01*
X0168965Y0098412D01*
X0170199Y0098412D01*
X0170816Y0097795D01*
X0172031Y0097795D02*
X0172648Y0098412D01*
X0173882Y0098412D01*
X0174500Y0097795D01*
X0174500Y0095326D01*
X0170816Y0094709D02*
X0168348Y0094709D01*
X0167133Y0095326D02*
X0166516Y0094709D01*
X0165282Y0094709D01*
X0164665Y0095326D01*
X0164665Y0096561D01*
X0165282Y0097178D01*
X0165899Y0097178D01*
X0167133Y0096561D01*
X0167133Y0098412D01*
X0164665Y0098412D01*
X0165165Y0100209D02*
X0167633Y0100209D01*
X0165165Y0102678D01*
X0165165Y0103295D01*
X0165782Y0103912D01*
X0167016Y0103912D01*
X0167633Y0103295D01*
X0170082Y0103912D02*
X0170082Y0100209D01*
X0171316Y0100209D02*
X0168848Y0100209D01*
X0171316Y0102678D02*
X0170082Y0103912D01*
X0172531Y0103295D02*
X0173148Y0103912D01*
X0174382Y0103912D01*
X0175000Y0103295D01*
X0175000Y0100826D01*
X0174382Y0100209D01*
X0173148Y0100209D01*
X0172531Y0100826D01*
X0137000Y0101795D02*
X0137000Y0099326D01*
X0136382Y0098709D01*
X0135148Y0098709D01*
X0134531Y0099326D01*
X0133316Y0099326D02*
X0132699Y0098709D01*
X0131465Y0098709D01*
X0130848Y0099326D01*
X0130848Y0099943D01*
X0131465Y0100561D01*
X0133316Y0100561D01*
X0133316Y0099326D01*
X0133316Y0100561D02*
X0132082Y0101795D01*
X0130848Y0102412D01*
X0134531Y0101795D02*
X0135148Y0102412D01*
X0136382Y0102412D01*
X0137000Y0101795D01*
X0136382Y0096412D02*
X0135148Y0096412D01*
X0134531Y0095795D01*
X0133316Y0095178D02*
X0132082Y0096412D01*
X0132082Y0092709D01*
X0133316Y0092709D02*
X0130848Y0092709D01*
X0129633Y0093326D02*
X0129016Y0092709D01*
X0127782Y0092709D01*
X0127165Y0093326D01*
X0127165Y0095795D01*
X0127782Y0096412D01*
X0129016Y0096412D01*
X0129633Y0095795D01*
X0129633Y0095178D01*
X0129016Y0094561D01*
X0127165Y0094561D01*
X0134531Y0093326D02*
X0135148Y0092709D01*
X0136382Y0092709D01*
X0137000Y0093326D01*
X0137000Y0095795D01*
X0136382Y0096412D01*
X0150032Y0053794D02*
X0149415Y0053177D01*
X0151884Y0050708D01*
X0151266Y0050091D01*
X0150032Y0050091D01*
X0149415Y0050708D01*
X0149415Y0053177D01*
X0150032Y0053794D02*
X0151266Y0053794D01*
X0151884Y0053177D01*
X0151884Y0050708D01*
X0153098Y0050091D02*
X0155567Y0050091D01*
X0153098Y0052560D01*
X0153098Y0053177D01*
X0153715Y0053794D01*
X0154949Y0053794D01*
X0155567Y0053177D01*
X0156781Y0053177D02*
X0157398Y0053794D01*
X0158633Y0053794D01*
X0159250Y0053177D01*
X0159250Y0050708D01*
X0158633Y0050091D01*
X0157398Y0050091D01*
X0156781Y0050708D01*
X0154949Y0047794D02*
X0153715Y0047794D01*
X0153098Y0047177D01*
X0151884Y0047794D02*
X0149415Y0047794D01*
X0149415Y0047177D01*
X0151884Y0044708D01*
X0151884Y0044091D01*
X0153098Y0044708D02*
X0153715Y0044091D01*
X0154949Y0044091D01*
X0155567Y0044708D01*
X0155567Y0047177D01*
X0154949Y0047794D01*
X0176209Y0037652D02*
X0176209Y0035184D01*
X0176209Y0036418D02*
X0179912Y0036418D01*
X0178678Y0035184D01*
X0179295Y0033969D02*
X0179912Y0033352D01*
X0179912Y0032118D01*
X0179295Y0031500D01*
X0176826Y0031500D01*
X0176209Y0032118D01*
X0176209Y0033352D01*
X0176826Y0033969D01*
X0184709Y0033652D02*
X0184709Y0031184D01*
X0184709Y0032418D02*
X0188412Y0032418D01*
X0187178Y0031184D01*
X0187795Y0029969D02*
X0188412Y0029352D01*
X0188412Y0028118D01*
X0187795Y0027500D01*
X0185326Y0027500D01*
X0184709Y0028118D01*
X0184709Y0029352D01*
X0185326Y0029969D01*
X0186561Y0034867D02*
X0186561Y0037335D01*
X0188412Y0036718D02*
X0186561Y0034867D01*
X0188412Y0036718D02*
X0184709Y0036718D01*
X0211415Y0022794D02*
X0211415Y0022177D01*
X0213884Y0019708D01*
X0213884Y0019091D01*
X0215098Y0019091D02*
X0217567Y0019091D01*
X0215098Y0021560D01*
X0215098Y0022177D01*
X0215715Y0022794D01*
X0216949Y0022794D01*
X0217567Y0022177D01*
X0218781Y0022177D02*
X0219398Y0022794D01*
X0220633Y0022794D01*
X0221250Y0022177D01*
X0221250Y0019708D01*
X0220633Y0019091D01*
X0219398Y0019091D01*
X0218781Y0019708D01*
X0213884Y0022794D02*
X0211415Y0022794D01*
X0241415Y0021177D02*
X0241415Y0020560D01*
X0242032Y0019943D01*
X0243266Y0019943D01*
X0243884Y0020560D01*
X0243884Y0021177D01*
X0243266Y0021794D01*
X0242032Y0021794D01*
X0241415Y0021177D01*
X0242032Y0019943D02*
X0241415Y0019325D01*
X0241415Y0018708D01*
X0242032Y0018091D01*
X0243266Y0018091D01*
X0243884Y0018708D01*
X0243884Y0019325D01*
X0243266Y0019943D01*
X0245098Y0020560D02*
X0245098Y0021177D01*
X0245715Y0021794D01*
X0246949Y0021794D01*
X0247567Y0021177D01*
X0248781Y0021177D02*
X0249398Y0021794D01*
X0250633Y0021794D01*
X0251250Y0021177D01*
X0251250Y0018708D01*
X0250633Y0018091D01*
X0249398Y0018091D01*
X0248781Y0018708D01*
X0247567Y0018091D02*
X0245098Y0020560D01*
X0245098Y0018091D02*
X0247567Y0018091D01*
M02*
