G75*
%MOIN*%
%OFA0B0*%
%FSLAX25Y25*%
%IPPOS*%
%LPD*%
%AMOC8*
5,1,8,0,0,1.08239X$1,22.5*
%
%ADD10C,0.00600*%
%ADD11C,0.00400*%
%ADD12OC8,0.06800*%
%ADD13C,0.13398*%
%ADD14C,0.06400*%
%ADD15OC8,0.06400*%
%ADD16R,0.03950X0.03950*%
%ADD17R,0.05131X0.04737*%
%ADD18R,0.04737X0.05131*%
%ADD19R,0.05918X0.06902*%
%ADD20C,0.06800*%
%ADD21C,0.03975*%
D10*
X0100800Y0024534D02*
X0102034Y0023300D01*
X0103269Y0024534D01*
X0104503Y0023300D01*
X0105738Y0024534D01*
X0105738Y0028238D01*
X0108166Y0028238D02*
X0108166Y0024534D01*
X0109401Y0023300D01*
X0110635Y0024534D01*
X0111869Y0023300D01*
X0113104Y0024534D01*
X0113104Y0028238D01*
X0115533Y0028238D02*
X0115533Y0024534D01*
X0116767Y0023300D01*
X0118001Y0024534D01*
X0119236Y0023300D01*
X0120470Y0024534D01*
X0120470Y0028238D01*
X0122899Y0024534D02*
X0124133Y0024534D01*
X0124133Y0023300D01*
X0122899Y0023300D01*
X0122899Y0024534D01*
X0126582Y0023300D02*
X0126582Y0028238D01*
X0127816Y0028238D01*
X0129051Y0027003D01*
X0130285Y0028238D01*
X0131520Y0027003D01*
X0131520Y0023300D01*
X0133948Y0023300D02*
X0136417Y0023300D01*
X0135183Y0023300D02*
X0135183Y0028238D01*
X0133948Y0028238D01*
X0135183Y0030706D02*
X0135183Y0031941D01*
X0140094Y0028238D02*
X0138859Y0027003D01*
X0138859Y0024534D01*
X0140094Y0023300D01*
X0143797Y0023300D01*
X0146225Y0023300D02*
X0146225Y0028238D01*
X0143797Y0028238D02*
X0140094Y0028238D01*
X0146225Y0025769D02*
X0148694Y0028238D01*
X0149929Y0028238D01*
X0152364Y0027003D02*
X0152364Y0024534D01*
X0153598Y0023300D01*
X0156067Y0023300D01*
X0157302Y0024534D01*
X0157302Y0027003D01*
X0156067Y0028238D01*
X0153598Y0028238D01*
X0152364Y0027003D01*
X0159730Y0027003D02*
X0160965Y0028238D01*
X0163433Y0028238D01*
X0164668Y0027003D01*
X0164668Y0023300D01*
X0167097Y0024534D02*
X0168331Y0025769D01*
X0172034Y0025769D01*
X0172034Y0027003D02*
X0172034Y0023300D01*
X0168331Y0023300D01*
X0167097Y0024534D01*
X0168331Y0028238D02*
X0170800Y0028238D01*
X0172034Y0027003D01*
X0174463Y0023300D02*
X0176932Y0023300D01*
X0175697Y0023300D02*
X0175697Y0030706D01*
X0174463Y0030706D01*
X0179374Y0024534D02*
X0180608Y0024534D01*
X0180608Y0023300D01*
X0179374Y0023300D01*
X0179374Y0024534D01*
X0183057Y0024534D02*
X0183057Y0027003D01*
X0184291Y0028238D01*
X0186760Y0028238D01*
X0187994Y0027003D01*
X0187994Y0024534D01*
X0186760Y0023300D01*
X0184291Y0023300D01*
X0183057Y0024534D01*
X0190423Y0023300D02*
X0190423Y0028238D01*
X0192892Y0028238D02*
X0194126Y0028238D01*
X0192892Y0028238D02*
X0190423Y0025769D01*
X0196562Y0027003D02*
X0196562Y0024534D01*
X0197796Y0023300D01*
X0201499Y0023300D01*
X0201499Y0022066D02*
X0201499Y0028238D01*
X0197796Y0028238D01*
X0196562Y0027003D01*
X0199031Y0020831D02*
X0200265Y0020831D01*
X0201499Y0022066D01*
X0159730Y0023300D02*
X0159730Y0030706D01*
X0129051Y0027003D02*
X0129051Y0023300D01*
X0100800Y0024534D02*
X0100800Y0028238D01*
D11*
X0135200Y0269700D02*
X0135200Y0274904D01*
X0138670Y0274904D01*
X0140356Y0274904D02*
X0142959Y0274904D01*
X0143826Y0274037D01*
X0143826Y0272302D01*
X0142959Y0271435D01*
X0140356Y0271435D01*
X0140356Y0269700D02*
X0140356Y0274904D01*
X0136935Y0272302D02*
X0135200Y0272302D01*
X0142091Y0271435D02*
X0143826Y0269700D01*
X0145513Y0269700D02*
X0148115Y0269700D01*
X0148982Y0270567D01*
X0148982Y0274037D01*
X0148115Y0274904D01*
X0145513Y0274904D01*
X0145513Y0269700D01*
X0150669Y0269700D02*
X0150669Y0274904D01*
X0152404Y0273170D01*
X0154139Y0274904D01*
X0154139Y0269700D01*
X0160982Y0273170D02*
X0162717Y0269700D01*
X0164452Y0273170D01*
X0166138Y0273170D02*
X0167873Y0274904D01*
X0167873Y0269700D01*
X0166138Y0269700D02*
X0169608Y0269700D01*
X0171295Y0269700D02*
X0172162Y0269700D01*
X0172162Y0270567D01*
X0171295Y0270567D01*
X0171295Y0269700D01*
X0173873Y0270567D02*
X0177343Y0274037D01*
X0177343Y0270567D01*
X0176475Y0269700D01*
X0174740Y0269700D01*
X0173873Y0270567D01*
X0173873Y0274037D01*
X0174740Y0274904D01*
X0176475Y0274904D01*
X0177343Y0274037D01*
D12*
X0181500Y0251500D03*
X0181500Y0241500D03*
X0191500Y0241500D03*
X0191500Y0251500D03*
X0201500Y0251500D03*
X0201500Y0241500D03*
X0211500Y0241500D03*
X0211500Y0251500D03*
X0221500Y0251500D03*
X0221500Y0241500D03*
X0231500Y0241500D03*
X0231500Y0251500D03*
X0241500Y0251500D03*
X0241500Y0241500D03*
X0251500Y0241500D03*
X0251500Y0251500D03*
X0165500Y0251500D03*
X0165500Y0241500D03*
X0155500Y0241500D03*
X0155500Y0251500D03*
X0145500Y0251500D03*
X0145500Y0241500D03*
X0135500Y0241500D03*
X0135500Y0251500D03*
X0125500Y0251500D03*
X0125500Y0241500D03*
X0115500Y0241500D03*
X0115500Y0251500D03*
X0105500Y0251500D03*
X0105500Y0241500D03*
X0095500Y0241500D03*
X0095500Y0251500D03*
X0085500Y0251500D03*
X0085500Y0241500D03*
X0075500Y0241500D03*
X0075500Y0251500D03*
X0111500Y0071500D03*
X0121500Y0071500D03*
X0131500Y0071500D03*
X0141500Y0071500D03*
X0151500Y0071500D03*
X0151500Y0061500D03*
X0141500Y0061500D03*
X0131500Y0061500D03*
X0121500Y0061500D03*
X0111500Y0061500D03*
X0161500Y0061500D03*
X0171500Y0061500D03*
X0181500Y0061500D03*
X0181500Y0071500D03*
X0171500Y0071500D03*
X0161500Y0071500D03*
X0201500Y0071500D03*
X0211500Y0071500D03*
X0221500Y0071500D03*
X0231500Y0071500D03*
X0241500Y0071500D03*
X0251500Y0071500D03*
X0251500Y0061500D03*
X0241500Y0061500D03*
X0231500Y0061500D03*
X0221500Y0061500D03*
X0211500Y0061500D03*
X0201500Y0061500D03*
D13*
X0271500Y0061500D03*
X0271500Y0251500D03*
X0061500Y0251500D03*
X0056500Y0061500D03*
D14*
X0049500Y0118500D03*
X0098500Y0188500D03*
X0139500Y0118500D03*
X0188500Y0188500D03*
X0229500Y0118500D03*
X0278500Y0188500D03*
D15*
X0268500Y0188500D03*
X0258500Y0188500D03*
X0248500Y0188500D03*
X0248500Y0198500D03*
X0258500Y0198500D03*
X0268500Y0198500D03*
X0278500Y0198500D03*
X0238500Y0198500D03*
X0228500Y0198500D03*
X0218500Y0198500D03*
X0208500Y0198500D03*
X0198500Y0198500D03*
X0188500Y0198500D03*
X0178500Y0198500D03*
X0168500Y0198500D03*
X0158500Y0198500D03*
X0148500Y0198500D03*
X0148500Y0188500D03*
X0158500Y0188500D03*
X0168500Y0188500D03*
X0178500Y0188500D03*
X0198500Y0188500D03*
X0208500Y0188500D03*
X0218500Y0188500D03*
X0228500Y0188500D03*
X0238500Y0188500D03*
X0239500Y0118500D03*
X0249500Y0118500D03*
X0259500Y0118500D03*
X0269500Y0118500D03*
X0279500Y0118500D03*
X0279500Y0108500D03*
X0269500Y0108500D03*
X0259500Y0108500D03*
X0249500Y0108500D03*
X0239500Y0108500D03*
X0229500Y0108500D03*
X0219500Y0108500D03*
X0219500Y0118500D03*
X0209500Y0118500D03*
X0199500Y0118500D03*
X0189500Y0118500D03*
X0179500Y0118500D03*
X0169500Y0118500D03*
X0159500Y0118500D03*
X0149500Y0118500D03*
X0149500Y0108500D03*
X0139500Y0108500D03*
X0129500Y0108500D03*
X0119500Y0108500D03*
X0119500Y0118500D03*
X0129500Y0118500D03*
X0109500Y0118500D03*
X0099500Y0118500D03*
X0089500Y0118500D03*
X0079500Y0118500D03*
X0069500Y0118500D03*
X0059500Y0118500D03*
X0059500Y0108500D03*
X0049500Y0108500D03*
X0069500Y0108500D03*
X0079500Y0108500D03*
X0089500Y0108500D03*
X0099500Y0108500D03*
X0109500Y0108500D03*
X0159500Y0108500D03*
X0169500Y0108500D03*
X0179500Y0108500D03*
X0189500Y0108500D03*
X0199500Y0108500D03*
X0209500Y0108500D03*
X0138500Y0188500D03*
X0128500Y0188500D03*
X0118500Y0188500D03*
X0108500Y0188500D03*
X0108500Y0198500D03*
X0098500Y0198500D03*
X0088500Y0198500D03*
X0078500Y0198500D03*
X0068500Y0198500D03*
X0058500Y0198500D03*
X0048500Y0198500D03*
X0048500Y0188500D03*
X0058500Y0188500D03*
X0068500Y0188500D03*
X0078500Y0188500D03*
X0088500Y0188500D03*
X0118500Y0198500D03*
X0128500Y0198500D03*
X0138500Y0198500D03*
D16*
X0292500Y0067953D03*
X0292500Y0062047D03*
D17*
X0269500Y0089154D03*
X0269500Y0095846D03*
X0259500Y0095846D03*
X0259500Y0089154D03*
X0249500Y0089654D03*
X0249500Y0096346D03*
X0239500Y0095846D03*
X0239500Y0089154D03*
X0199500Y0088154D03*
X0199500Y0094846D03*
X0189500Y0094846D03*
X0189500Y0088154D03*
X0179500Y0088154D03*
X0179500Y0094846D03*
X0169500Y0094846D03*
X0169500Y0088154D03*
X0159500Y0088154D03*
X0159500Y0094846D03*
X0129500Y0096846D03*
X0129500Y0090154D03*
X0119500Y0090154D03*
X0119500Y0096846D03*
X0099500Y0096846D03*
X0099500Y0090154D03*
X0089500Y0090154D03*
X0089500Y0096846D03*
X0079500Y0096846D03*
X0079500Y0090154D03*
X0069500Y0090154D03*
X0069500Y0096846D03*
X0059500Y0096846D03*
X0059500Y0090154D03*
X0049500Y0090154D03*
X0049500Y0096846D03*
X0059500Y0131154D03*
X0059500Y0137846D03*
X0069500Y0137846D03*
X0069500Y0131154D03*
X0079500Y0131154D03*
X0079500Y0137846D03*
X0089500Y0137846D03*
X0089500Y0131154D03*
X0099500Y0131154D03*
X0099500Y0137846D03*
X0109500Y0137846D03*
X0109500Y0131154D03*
X0119500Y0131154D03*
X0119500Y0137846D03*
X0129500Y0137846D03*
X0129500Y0131154D03*
X0159500Y0131154D03*
X0159500Y0137846D03*
X0169500Y0137846D03*
X0169500Y0131154D03*
X0179500Y0131154D03*
X0179500Y0137846D03*
X0189500Y0137846D03*
X0189500Y0131154D03*
X0199500Y0131154D03*
X0199500Y0137846D03*
X0210500Y0137846D03*
X0210500Y0131154D03*
X0229500Y0131154D03*
X0229500Y0137846D03*
X0239500Y0137846D03*
X0239500Y0131154D03*
X0249500Y0131154D03*
X0249500Y0137846D03*
X0259500Y0137846D03*
X0259500Y0131154D03*
X0269500Y0131154D03*
X0269500Y0137846D03*
X0279500Y0137846D03*
X0279500Y0131154D03*
X0268500Y0169154D03*
X0268500Y0175846D03*
X0258500Y0175846D03*
X0258500Y0169154D03*
X0248500Y0169154D03*
X0248500Y0175846D03*
X0238500Y0175846D03*
X0238500Y0169154D03*
X0228500Y0169154D03*
X0228500Y0175846D03*
X0218500Y0175846D03*
X0218500Y0169154D03*
X0208500Y0169154D03*
X0208500Y0175846D03*
X0198500Y0175846D03*
X0198500Y0169154D03*
X0168500Y0169154D03*
X0168500Y0175846D03*
X0158500Y0175846D03*
X0158500Y0169154D03*
X0148500Y0169154D03*
X0148500Y0175846D03*
X0138500Y0175846D03*
X0138500Y0169154D03*
X0128500Y0169154D03*
X0128500Y0175846D03*
X0118500Y0175846D03*
X0118500Y0169154D03*
X0098500Y0168654D03*
X0098500Y0175346D03*
X0088500Y0175846D03*
X0088500Y0169154D03*
X0078500Y0169154D03*
X0078500Y0175846D03*
X0068500Y0175846D03*
X0068500Y0169154D03*
X0058500Y0169154D03*
X0058500Y0175846D03*
X0048500Y0175846D03*
X0048500Y0169154D03*
X0055500Y0210154D03*
X0055500Y0216846D03*
X0062500Y0216846D03*
X0062500Y0210154D03*
X0073000Y0210154D03*
X0073000Y0216846D03*
X0084000Y0216846D03*
X0084000Y0210154D03*
X0098500Y0210154D03*
X0098500Y0216846D03*
X0108500Y0216846D03*
X0108500Y0210154D03*
X0128500Y0210154D03*
X0128500Y0216846D03*
X0138500Y0216846D03*
X0138500Y0210154D03*
X0148500Y0210154D03*
X0148500Y0216846D03*
X0158500Y0216846D03*
X0158500Y0210154D03*
X0168500Y0210154D03*
X0168500Y0216846D03*
X0178500Y0216846D03*
X0178500Y0210154D03*
X0198500Y0210154D03*
X0198500Y0216846D03*
X0208500Y0216846D03*
X0208500Y0210154D03*
X0228500Y0210154D03*
X0228500Y0216846D03*
X0238500Y0216846D03*
X0238500Y0210154D03*
X0248500Y0210154D03*
X0248500Y0216846D03*
X0258500Y0216846D03*
X0258500Y0210154D03*
X0268500Y0210154D03*
X0268500Y0216846D03*
X0278500Y0216846D03*
X0278500Y0210154D03*
D18*
X0219346Y0097000D03*
X0212654Y0097000D03*
X0222654Y0088500D03*
X0229346Y0088500D03*
X0285654Y0076000D03*
X0292346Y0076000D03*
X0149846Y0097500D03*
X0143154Y0097500D03*
X0048346Y0234500D03*
X0041654Y0234500D03*
X0041654Y0244500D03*
X0048346Y0244500D03*
D19*
X0070642Y0017850D03*
X0088358Y0017850D03*
X0088358Y0049150D03*
X0070642Y0049150D03*
X0206642Y0048650D03*
X0224358Y0048650D03*
X0237142Y0048650D03*
X0254858Y0048650D03*
X0254858Y0017350D03*
X0237142Y0017350D03*
X0224358Y0017350D03*
X0206642Y0017350D03*
D20*
X0024000Y0224500D02*
X0018000Y0224500D01*
X0018000Y0234500D02*
X0024000Y0234500D01*
X0024000Y0244500D02*
X0018000Y0244500D01*
D21*
X0032000Y0226000D03*
X0040500Y0226000D03*
X0046500Y0225000D03*
X0048500Y0229000D03*
X0056000Y0230500D03*
X0073000Y0225000D03*
X0088500Y0224500D03*
X0091000Y0219500D03*
X0091000Y0216000D03*
X0091000Y0212000D03*
X0104500Y0229000D03*
X0108500Y0229000D03*
X0112500Y0229000D03*
X0114500Y0235000D03*
X0140500Y0258000D03*
X0175000Y0229000D03*
X0178500Y0229000D03*
X0182000Y0229000D03*
X0172000Y0222000D03*
X0168500Y0222000D03*
X0165000Y0222000D03*
X0149000Y0223000D03*
X0199500Y0222000D03*
X0218000Y0222000D03*
X0236500Y0238500D03*
X0265000Y0222000D03*
X0268500Y0222000D03*
X0272000Y0222000D03*
X0274000Y0229000D03*
X0278500Y0229000D03*
X0294000Y0235000D03*
X0301500Y0236000D03*
X0233500Y0193500D03*
X0203500Y0193500D03*
X0175000Y0168000D03*
X0158500Y0152500D03*
X0148500Y0155000D03*
X0138500Y0160500D03*
X0133500Y0157000D03*
X0128500Y0164000D03*
X0118500Y0157000D03*
X0107500Y0145000D03*
X0093500Y0151000D03*
X0089500Y0146500D03*
X0079500Y0142500D03*
X0074500Y0138000D03*
X0064500Y0134000D03*
X0063500Y0155000D03*
X0068500Y0160500D03*
X0058500Y0164000D03*
X0043000Y0169500D03*
X0078500Y0155000D03*
X0105500Y0168500D03*
X0154500Y0134000D03*
X0164500Y0138000D03*
X0168500Y0145000D03*
X0179500Y0142500D03*
X0182500Y0146500D03*
X0191000Y0146500D03*
X0224000Y0134000D03*
X0234500Y0138000D03*
X0249500Y0142500D03*
X0259500Y0142500D03*
X0258500Y0161500D03*
X0248500Y0161500D03*
X0238500Y0162000D03*
X0228500Y0164000D03*
X0287500Y0142000D03*
X0285000Y0093500D03*
X0285000Y0089500D03*
X0285000Y0085500D03*
X0303500Y0085500D03*
X0303500Y0089500D03*
X0303500Y0093500D03*
X0291250Y0056250D03*
X0268510Y0047058D03*
X0268500Y0028000D03*
X0254858Y0028000D03*
X0237142Y0028000D03*
X0224500Y0028000D03*
X0206642Y0028000D03*
X0195500Y0056000D03*
X0191500Y0056000D03*
X0187500Y0056000D03*
X0185500Y0066500D03*
X0163494Y0080603D03*
X0159494Y0080603D03*
X0155494Y0080603D03*
X0153500Y0089500D03*
X0149500Y0089500D03*
X0145500Y0089500D03*
X0210000Y0089500D03*
X0213500Y0089500D03*
X0217000Y0089500D03*
X0216000Y0080500D03*
X0219500Y0080500D03*
X0223000Y0080500D03*
X0257500Y0081500D03*
X0066000Y0073000D03*
X0063005Y0080931D03*
X0059505Y0080931D03*
X0056005Y0080931D03*
X0041500Y0089500D03*
X0041500Y0093000D03*
X0038000Y0091500D03*
X0029500Y0207000D03*
X0044500Y0209000D03*
M02*
