G75*
%MOIN*%
%OFA0B0*%
%FSLAX25Y25*%
%IPPOS*%
%LPD*%
%AMOC8*
5,1,8,0,0,1.08239X$1,22.5*
%
%ADD10R,0.15000X0.07600*%
%ADD11C,0.03175*%
%ADD12C,0.01600*%
%ADD13C,0.06600*%
%ADD14C,0.03200*%
%ADD15C,0.02400*%
%ADD16C,0.01000*%
%ADD17C,0.00600*%
D10*
X0020500Y0006800D03*
X0020500Y0016800D03*
X0020500Y0026800D03*
X0020500Y0036800D03*
X0020500Y0046800D03*
X0020500Y0056800D03*
X0020500Y0066800D03*
D11*
X0030500Y0056800D03*
X0030500Y0046800D03*
X0052000Y0034300D03*
X0051500Y0028300D03*
X0063000Y0028300D03*
X0069000Y0028300D03*
X0075000Y0028300D03*
X0075000Y0022300D03*
X0075000Y0016300D03*
X0069000Y0016300D03*
X0063000Y0016300D03*
X0063000Y0022300D03*
X0051500Y0012300D03*
X0046500Y0017300D03*
X0052000Y0005800D03*
X0069000Y0005800D03*
X0086500Y0005800D03*
X0086500Y0022300D03*
X0086500Y0038800D03*
X0079500Y0046800D03*
X0075000Y0046800D03*
X0069000Y0046800D03*
X0066000Y0039300D03*
X0060000Y0039300D03*
X0055000Y0040800D03*
X0055000Y0050800D03*
X0055000Y0058800D03*
X0065000Y0063800D03*
X0065000Y0067800D03*
D12*
X0058380Y0061059D02*
X0057259Y0062180D01*
X0055793Y0062787D01*
X0054207Y0062787D01*
X0052741Y0062180D01*
X0051620Y0061059D01*
X0051013Y0059593D01*
X0051013Y0058007D01*
X0051400Y0057072D01*
X0051400Y0052528D01*
X0051013Y0051593D01*
X0051013Y0050007D01*
X0051400Y0049072D01*
X0051400Y0042528D01*
X0051013Y0041593D01*
X0051013Y0040007D01*
X0051620Y0038541D01*
X0052741Y0037420D01*
X0052900Y0037354D01*
X0052900Y0032300D01*
X0050704Y0032300D01*
X0049234Y0031691D01*
X0048109Y0030566D01*
X0047500Y0029096D01*
X0047500Y0027504D01*
X0048109Y0026034D01*
X0049234Y0024909D01*
X0050704Y0024300D01*
X0053444Y0024300D01*
X0053544Y0024200D01*
X0059956Y0024200D01*
X0060056Y0024300D01*
X0063796Y0024300D01*
X0065266Y0024909D01*
X0066009Y0025652D01*
X0066741Y0024920D01*
X0068207Y0024313D01*
X0069793Y0024313D01*
X0071259Y0024920D01*
X0072000Y0025661D01*
X0072361Y0025300D01*
X0071620Y0024559D01*
X0071013Y0023093D01*
X0071013Y0021507D01*
X0071620Y0020041D01*
X0072741Y0018920D01*
X0074207Y0018313D01*
X0075793Y0018313D01*
X0077259Y0018920D01*
X0077400Y0019061D01*
X0077400Y0014400D01*
X0053544Y0014400D01*
X0052900Y0013756D01*
X0052900Y0007344D01*
X0053544Y0006700D01*
X0084456Y0006700D01*
X0085100Y0007344D01*
X0085100Y0037756D01*
X0084456Y0038400D01*
X0082400Y0038400D01*
X0082400Y0044061D01*
X0082880Y0044541D01*
X0083487Y0046007D01*
X0083487Y0047593D01*
X0082880Y0049059D01*
X0081759Y0050180D01*
X0080293Y0050787D01*
X0078707Y0050787D01*
X0077250Y0050184D01*
X0075793Y0050787D01*
X0074207Y0050787D01*
X0072741Y0050180D01*
X0072000Y0049439D01*
X0071259Y0050180D01*
X0069793Y0050787D01*
X0068207Y0050787D01*
X0066741Y0050180D01*
X0065620Y0049059D01*
X0065013Y0047593D01*
X0065013Y0046007D01*
X0065620Y0044541D01*
X0066100Y0044061D01*
X0066100Y0038400D01*
X0058239Y0038400D01*
X0058380Y0038541D01*
X0058987Y0040007D01*
X0058987Y0041593D01*
X0058600Y0042528D01*
X0058600Y0049072D01*
X0058987Y0050007D01*
X0058987Y0051593D01*
X0058600Y0052528D01*
X0058600Y0057072D01*
X0058987Y0058007D01*
X0058987Y0059593D01*
X0058380Y0061059D01*
X0058427Y0060945D02*
X0087700Y0060945D01*
X0087700Y0062543D02*
X0056382Y0062543D01*
X0053618Y0062543D02*
X0029741Y0062543D01*
X0029800Y0062763D02*
X0029680Y0062314D01*
X0030035Y0061959D01*
X0030400Y0061077D01*
X0030400Y0060787D01*
X0031293Y0060787D01*
X0032759Y0060180D01*
X0033880Y0059059D01*
X0034487Y0057593D01*
X0034487Y0056007D01*
X0033880Y0054541D01*
X0032759Y0053420D01*
X0031293Y0052813D01*
X0030400Y0052813D01*
X0030400Y0052523D01*
X0030101Y0051800D01*
X0030400Y0051077D01*
X0030400Y0050787D01*
X0031293Y0050787D01*
X0032759Y0050180D01*
X0033880Y0049059D01*
X0034487Y0047593D01*
X0034487Y0046007D01*
X0033880Y0044541D01*
X0032759Y0043420D01*
X0031293Y0042813D01*
X0030400Y0042813D01*
X0030400Y0042523D01*
X0030101Y0041800D01*
X0030400Y0041077D01*
X0030400Y0032523D01*
X0030101Y0031800D01*
X0030400Y0031077D01*
X0030400Y0022523D01*
X0030101Y0021800D01*
X0030400Y0021077D01*
X0030400Y0012523D01*
X0030101Y0011800D01*
X0030400Y0011077D01*
X0030400Y0004600D01*
X0087700Y0004600D01*
X0087700Y0069000D01*
X0029800Y0069000D01*
X0029800Y0067600D01*
X0021300Y0067600D01*
X0021300Y0066000D01*
X0029800Y0066000D01*
X0029800Y0062763D01*
X0029800Y0064142D02*
X0087700Y0064142D01*
X0087700Y0065740D02*
X0029800Y0065740D01*
X0029800Y0068937D02*
X0087700Y0068937D01*
X0087700Y0067339D02*
X0021300Y0067339D01*
X0030400Y0060945D02*
X0051573Y0060945D01*
X0051013Y0059346D02*
X0033593Y0059346D01*
X0034423Y0057748D02*
X0051120Y0057748D01*
X0051400Y0056149D02*
X0034487Y0056149D01*
X0033884Y0054551D02*
X0051400Y0054551D01*
X0051400Y0052952D02*
X0031631Y0052952D01*
X0030285Y0051354D02*
X0051013Y0051354D01*
X0051117Y0049755D02*
X0033184Y0049755D01*
X0034254Y0048157D02*
X0051400Y0048157D01*
X0051400Y0046558D02*
X0034487Y0046558D01*
X0034054Y0044960D02*
X0051400Y0044960D01*
X0051400Y0043361D02*
X0032618Y0043361D01*
X0030116Y0041763D02*
X0051083Y0041763D01*
X0051013Y0040164D02*
X0030400Y0040164D01*
X0030400Y0038566D02*
X0051610Y0038566D01*
X0052900Y0036967D02*
X0030400Y0036967D01*
X0030400Y0035369D02*
X0052900Y0035369D01*
X0052900Y0033770D02*
X0030400Y0033770D01*
X0030255Y0032172D02*
X0050395Y0032172D01*
X0048116Y0030573D02*
X0030400Y0030573D01*
X0030400Y0028975D02*
X0047500Y0028975D01*
X0047553Y0027376D02*
X0030400Y0027376D01*
X0030400Y0025778D02*
X0048365Y0025778D01*
X0058390Y0038566D02*
X0066100Y0038566D01*
X0066100Y0040164D02*
X0058987Y0040164D01*
X0058917Y0041763D02*
X0066100Y0041763D01*
X0066100Y0043361D02*
X0058600Y0043361D01*
X0058600Y0044960D02*
X0065446Y0044960D01*
X0065013Y0046558D02*
X0058600Y0046558D01*
X0058600Y0048157D02*
X0065246Y0048157D01*
X0066316Y0049755D02*
X0058883Y0049755D01*
X0058987Y0051354D02*
X0087700Y0051354D01*
X0087700Y0052952D02*
X0058600Y0052952D01*
X0058600Y0054551D02*
X0087700Y0054551D01*
X0087700Y0056149D02*
X0058600Y0056149D01*
X0058880Y0057748D02*
X0087700Y0057748D01*
X0087700Y0059346D02*
X0058987Y0059346D01*
X0071684Y0049755D02*
X0072316Y0049755D01*
X0082184Y0049755D02*
X0087700Y0049755D01*
X0087700Y0048157D02*
X0083254Y0048157D01*
X0083487Y0046558D02*
X0087700Y0046558D01*
X0087700Y0044960D02*
X0083054Y0044960D01*
X0082400Y0043361D02*
X0087700Y0043361D01*
X0087700Y0041763D02*
X0082400Y0041763D01*
X0082400Y0040164D02*
X0087700Y0040164D01*
X0087700Y0038566D02*
X0082400Y0038566D01*
X0085100Y0036967D02*
X0087700Y0036967D01*
X0087700Y0035369D02*
X0085100Y0035369D01*
X0085100Y0033770D02*
X0087700Y0033770D01*
X0087700Y0032172D02*
X0085100Y0032172D01*
X0085100Y0030573D02*
X0087700Y0030573D01*
X0087700Y0028975D02*
X0085100Y0028975D01*
X0085100Y0027376D02*
X0087700Y0027376D01*
X0087700Y0025778D02*
X0085100Y0025778D01*
X0085100Y0024179D02*
X0087700Y0024179D01*
X0087700Y0022581D02*
X0085100Y0022581D01*
X0085100Y0020982D02*
X0087700Y0020982D01*
X0087700Y0019384D02*
X0085100Y0019384D01*
X0085100Y0017785D02*
X0087700Y0017785D01*
X0087700Y0016187D02*
X0085100Y0016187D01*
X0085100Y0014588D02*
X0087700Y0014588D01*
X0087700Y0012990D02*
X0085100Y0012990D01*
X0085100Y0011391D02*
X0087700Y0011391D01*
X0087700Y0009793D02*
X0085100Y0009793D01*
X0085100Y0008194D02*
X0087700Y0008194D01*
X0087700Y0006596D02*
X0030400Y0006596D01*
X0030400Y0004997D02*
X0087700Y0004997D01*
X0077400Y0014588D02*
X0030400Y0014588D01*
X0030400Y0012990D02*
X0052900Y0012990D01*
X0052900Y0011391D02*
X0030270Y0011391D01*
X0030400Y0009793D02*
X0052900Y0009793D01*
X0052900Y0008194D02*
X0030400Y0008194D01*
X0030400Y0016187D02*
X0077400Y0016187D01*
X0077400Y0017785D02*
X0030400Y0017785D01*
X0030400Y0019384D02*
X0072277Y0019384D01*
X0071230Y0020982D02*
X0030400Y0020982D01*
X0030400Y0022581D02*
X0071013Y0022581D01*
X0071462Y0024179D02*
X0030400Y0024179D01*
X0030500Y0046800D02*
X0020500Y0046800D01*
X0020500Y0056800D02*
X0030500Y0056800D01*
D13*
X0030500Y0066800D02*
X0020500Y0066800D01*
D14*
X0051500Y0028300D02*
X0063000Y0028300D01*
D15*
X0055000Y0040800D02*
X0055000Y0050800D01*
X0055000Y0058800D01*
D16*
X0069000Y0046800D02*
X0069000Y0029800D01*
X0075000Y0028300D02*
X0075000Y0046800D01*
X0079500Y0046800D02*
X0079500Y0026800D01*
X0075000Y0022300D01*
D17*
X0069000Y0028300D02*
X0069000Y0029800D01*
M02*
