%
M48
M72
T01C0.01575
%
T01
X46500Y17300
X51500Y12300
X52000Y5800
X63000Y16300
X69000Y16300
X75000Y16300
X75000Y22300
X75000Y28300
X69000Y28300
X63000Y28300
X63000Y22300
X51500Y28300
X52000Y34300
X55000Y40800
X60000Y39300
X66000Y39300
X69000Y46800
X75000Y46800
X79500Y46800
X86500Y38800
X86500Y22300
X86500Y5800
X69000Y5800
X30500Y46800
X30500Y56800
X55000Y58800
X55000Y50800
X65000Y63800
X65000Y67800
M30
