G75*
%MOIN*%
%OFA0B0*%
%FSLAX25Y25*%
%IPPOS*%
%LPD*%
%AMOC8*
5,1,8,0,0,1.08239X$1,22.5*
%
%ADD10C,0.00600*%
%ADD11C,0.00200*%
%ADD12C,0.00500*%
%ADD13C,0.00300*%
D10*
X0032800Y0005667D02*
X0033367Y0005100D01*
X0033934Y0005667D01*
X0034501Y0005100D01*
X0035069Y0005667D01*
X0035069Y0007369D01*
X0036483Y0007369D02*
X0036483Y0005667D01*
X0037050Y0005100D01*
X0037617Y0005667D01*
X0038185Y0005100D01*
X0038752Y0005667D01*
X0038752Y0007369D01*
X0040166Y0007369D02*
X0040166Y0005667D01*
X0040733Y0005100D01*
X0041301Y0005667D01*
X0041868Y0005100D01*
X0042435Y0005667D01*
X0042435Y0007369D01*
X0043849Y0005667D02*
X0044417Y0005667D01*
X0044417Y0005100D01*
X0043849Y0005100D01*
X0043849Y0005667D01*
X0045691Y0005100D02*
X0045691Y0007369D01*
X0046258Y0007369D01*
X0046825Y0006801D01*
X0047392Y0007369D01*
X0047960Y0006801D01*
X0047960Y0005100D01*
X0046825Y0005100D02*
X0046825Y0006801D01*
X0049374Y0007369D02*
X0049941Y0007369D01*
X0049941Y0005100D01*
X0049374Y0005100D02*
X0050508Y0005100D01*
X0051830Y0005667D02*
X0052397Y0005100D01*
X0054098Y0005100D01*
X0055513Y0005100D02*
X0055513Y0007369D01*
X0056647Y0007369D02*
X0057214Y0007369D01*
X0056647Y0007369D02*
X0055513Y0006234D01*
X0054098Y0007369D02*
X0052397Y0007369D01*
X0051830Y0006801D01*
X0051830Y0005667D01*
X0049941Y0008503D02*
X0049941Y0009070D01*
X0058582Y0006801D02*
X0058582Y0005667D01*
X0059149Y0005100D01*
X0060283Y0005100D01*
X0060851Y0005667D01*
X0060851Y0006801D01*
X0060283Y0007369D01*
X0059149Y0007369D01*
X0058582Y0006801D01*
X0062265Y0006801D02*
X0062832Y0007369D01*
X0063967Y0007369D01*
X0064534Y0006801D01*
X0064534Y0005100D01*
X0065948Y0005667D02*
X0066515Y0006234D01*
X0068217Y0006234D01*
X0068217Y0006801D02*
X0068217Y0005100D01*
X0066515Y0005100D01*
X0065948Y0005667D01*
X0067650Y0007369D02*
X0068217Y0006801D01*
X0067650Y0007369D02*
X0066515Y0007369D01*
X0069631Y0008503D02*
X0070199Y0008503D01*
X0070199Y0005100D01*
X0070766Y0005100D02*
X0069631Y0005100D01*
X0072087Y0005100D02*
X0072654Y0005100D01*
X0072654Y0005667D01*
X0072087Y0005667D01*
X0072087Y0005100D01*
X0073928Y0005667D02*
X0074496Y0005100D01*
X0075630Y0005100D01*
X0076197Y0005667D01*
X0076197Y0006801D01*
X0075630Y0007369D01*
X0074496Y0007369D01*
X0073928Y0006801D01*
X0073928Y0005667D01*
X0077612Y0005100D02*
X0077612Y0007369D01*
X0078746Y0007369D02*
X0079313Y0007369D01*
X0078746Y0007369D02*
X0077612Y0006234D01*
X0080681Y0005667D02*
X0081248Y0005100D01*
X0082949Y0005100D01*
X0082949Y0004533D02*
X0082949Y0007369D01*
X0081248Y0007369D01*
X0080681Y0006801D01*
X0080681Y0005667D01*
X0081815Y0003966D02*
X0082382Y0003966D01*
X0082949Y0004533D01*
X0062265Y0005100D02*
X0062265Y0008503D01*
X0032800Y0007369D02*
X0032800Y0005667D01*
X0066934Y0058100D02*
X0066934Y0061503D01*
X0065800Y0061503D02*
X0068069Y0061503D01*
X0069483Y0061503D02*
X0070617Y0060369D01*
X0071752Y0061503D01*
X0071752Y0058100D01*
X0073166Y0058100D02*
X0073166Y0061503D01*
X0074868Y0061503D01*
X0075435Y0060936D01*
X0075435Y0059801D01*
X0074868Y0059234D01*
X0073166Y0059234D01*
X0076849Y0058667D02*
X0077417Y0058100D01*
X0078551Y0058100D01*
X0079118Y0058667D01*
X0079118Y0060936D01*
X0076849Y0058667D01*
X0076849Y0060936D01*
X0077417Y0061503D01*
X0078551Y0061503D01*
X0079118Y0060936D01*
X0080533Y0060936D02*
X0081100Y0061503D01*
X0082234Y0061503D01*
X0082801Y0060936D01*
X0080533Y0058667D01*
X0081100Y0058100D01*
X0082234Y0058100D01*
X0082801Y0058667D01*
X0082801Y0060936D01*
X0084216Y0059801D02*
X0085917Y0059801D01*
X0086484Y0059234D01*
X0086484Y0058667D01*
X0085917Y0058100D01*
X0084783Y0058100D01*
X0084216Y0058667D01*
X0084216Y0059801D01*
X0085350Y0060936D01*
X0086484Y0061503D01*
X0080533Y0060936D02*
X0080533Y0058667D01*
X0069483Y0058100D02*
X0069483Y0061503D01*
D11*
X0069373Y0065845D02*
X0070841Y0065845D01*
X0070107Y0065845D02*
X0070107Y0068047D01*
X0069373Y0067313D01*
X0068631Y0067680D02*
X0068264Y0068047D01*
X0067530Y0068047D01*
X0067163Y0067680D01*
X0067163Y0066212D01*
X0067530Y0065845D01*
X0068264Y0065845D01*
X0068631Y0066212D01*
X0060044Y0062102D02*
X0060044Y0059900D01*
X0059310Y0059900D02*
X0060778Y0059900D01*
X0059310Y0061368D02*
X0060044Y0062102D01*
X0058568Y0061735D02*
X0058568Y0061001D01*
X0058201Y0060634D01*
X0057100Y0060634D01*
X0057834Y0060634D02*
X0058568Y0059900D01*
X0057100Y0059900D02*
X0057100Y0062102D01*
X0058201Y0062102D01*
X0058568Y0061735D01*
X0058201Y0054602D02*
X0057100Y0054602D01*
X0057100Y0052400D01*
X0057100Y0053134D02*
X0058201Y0053134D01*
X0058568Y0053501D01*
X0058568Y0054235D01*
X0058201Y0054602D01*
X0059310Y0054235D02*
X0059677Y0054602D01*
X0060411Y0054602D01*
X0060778Y0054235D01*
X0060778Y0053868D01*
X0059310Y0052400D01*
X0060778Y0052400D01*
X0058568Y0052400D02*
X0057834Y0053134D01*
X0058201Y0045102D02*
X0057100Y0045102D01*
X0057100Y0042900D01*
X0057100Y0043634D02*
X0058201Y0043634D01*
X0058568Y0044001D01*
X0058568Y0044735D01*
X0058201Y0045102D01*
X0059310Y0044735D02*
X0059677Y0045102D01*
X0060411Y0045102D01*
X0060778Y0044735D01*
X0060778Y0044368D01*
X0060411Y0044001D01*
X0060778Y0043634D01*
X0060778Y0043267D01*
X0060411Y0042900D01*
X0059677Y0042900D01*
X0059310Y0043267D01*
X0058568Y0042900D02*
X0057834Y0043634D01*
X0060044Y0044001D02*
X0060411Y0044001D01*
X0061900Y0025051D02*
X0061900Y0023583D01*
X0061900Y0024317D02*
X0059698Y0024317D01*
X0060432Y0023583D01*
X0060065Y0022841D02*
X0059698Y0022474D01*
X0059698Y0021740D01*
X0060065Y0021373D01*
X0061533Y0021373D01*
X0061900Y0021740D01*
X0061900Y0022474D01*
X0061533Y0022841D01*
X0061900Y0020634D02*
X0061900Y0019900D01*
X0061900Y0020267D02*
X0059698Y0020267D01*
X0059698Y0019900D02*
X0059698Y0020634D01*
X0047841Y0020617D02*
X0047474Y0020250D01*
X0046006Y0020250D01*
X0045639Y0020617D01*
X0045639Y0021351D01*
X0046006Y0021718D01*
X0046006Y0022460D02*
X0045639Y0022827D01*
X0045639Y0023561D01*
X0046006Y0023928D01*
X0046373Y0023928D01*
X0047841Y0022460D01*
X0047841Y0023928D01*
X0047474Y0021718D02*
X0047841Y0021351D01*
X0047841Y0020617D01*
D12*
X0031751Y0014550D02*
X0030250Y0014550D01*
X0031001Y0014550D02*
X0031001Y0019054D01*
X0031751Y0019054D02*
X0030250Y0019054D01*
X0033319Y0018303D02*
X0033319Y0015301D01*
X0034070Y0014550D01*
X0035571Y0014550D01*
X0036322Y0015301D01*
X0036322Y0018303D01*
X0035571Y0019054D01*
X0034070Y0019054D01*
X0033319Y0018303D01*
X0037923Y0018303D02*
X0038674Y0019054D01*
X0040175Y0019054D01*
X0040926Y0018303D01*
X0040926Y0017553D01*
X0040175Y0016802D01*
X0040926Y0016051D01*
X0040926Y0015301D01*
X0040175Y0014550D01*
X0038674Y0014550D01*
X0037923Y0015301D01*
X0039424Y0016802D02*
X0040175Y0016802D01*
X0037106Y0024550D02*
X0035605Y0024550D01*
X0034854Y0025301D01*
X0033253Y0025301D02*
X0033253Y0026051D01*
X0032502Y0026802D01*
X0031001Y0026802D01*
X0030250Y0027553D01*
X0030250Y0028303D01*
X0031001Y0029054D01*
X0032502Y0029054D01*
X0033253Y0028303D01*
X0034854Y0028303D02*
X0034854Y0027553D01*
X0035605Y0026802D01*
X0037106Y0026802D01*
X0037856Y0026051D01*
X0037856Y0025301D01*
X0037106Y0024550D01*
X0033253Y0025301D02*
X0032502Y0024550D01*
X0031001Y0024550D01*
X0030250Y0025301D01*
X0034854Y0028303D02*
X0035605Y0029054D01*
X0037106Y0029054D01*
X0037856Y0028303D01*
X0037923Y0034550D02*
X0040926Y0037553D01*
X0040926Y0038303D01*
X0040175Y0039054D01*
X0038674Y0039054D01*
X0037923Y0038303D01*
X0036322Y0038303D02*
X0035571Y0039054D01*
X0034070Y0039054D01*
X0033319Y0038303D01*
X0033319Y0035301D01*
X0034070Y0034550D01*
X0035571Y0034550D01*
X0036322Y0035301D01*
X0036322Y0038303D01*
X0031751Y0039054D02*
X0030250Y0039054D01*
X0031001Y0039054D02*
X0031001Y0034550D01*
X0031751Y0034550D02*
X0030250Y0034550D01*
X0037923Y0034550D02*
X0040926Y0034550D01*
X0040926Y0044550D02*
X0037923Y0044550D01*
X0039424Y0044550D02*
X0039424Y0049054D01*
X0037923Y0047553D01*
X0036322Y0048303D02*
X0035571Y0049054D01*
X0034070Y0049054D01*
X0033319Y0048303D01*
X0033319Y0045301D01*
X0034070Y0044550D01*
X0035571Y0044550D01*
X0036322Y0045301D01*
X0036322Y0048303D01*
X0031751Y0049054D02*
X0030250Y0049054D01*
X0031001Y0049054D02*
X0031001Y0044550D01*
X0031751Y0044550D02*
X0030250Y0044550D01*
X0031001Y0054550D02*
X0030250Y0055301D01*
X0031001Y0054550D02*
X0032502Y0054550D01*
X0033253Y0055301D01*
X0033253Y0056802D01*
X0032502Y0057553D01*
X0031751Y0057553D01*
X0030250Y0056802D01*
X0030250Y0059054D01*
X0033253Y0059054D01*
X0034854Y0059054D02*
X0034854Y0056051D01*
X0036355Y0054550D01*
X0037856Y0056051D01*
X0037856Y0059054D01*
X0037907Y0064550D02*
X0037156Y0065301D01*
X0037907Y0064550D02*
X0039408Y0064550D01*
X0040158Y0065301D01*
X0040158Y0066051D01*
X0039408Y0066802D01*
X0038657Y0066802D01*
X0039408Y0066802D02*
X0040158Y0067553D01*
X0040158Y0068303D01*
X0039408Y0069054D01*
X0037907Y0069054D01*
X0037156Y0068303D01*
X0035605Y0065301D02*
X0034854Y0065301D01*
X0034854Y0064550D01*
X0035605Y0064550D01*
X0035605Y0065301D01*
X0033253Y0065301D02*
X0032502Y0064550D01*
X0031001Y0064550D01*
X0030250Y0065301D01*
X0031751Y0066802D02*
X0032502Y0066802D01*
X0033253Y0066051D01*
X0033253Y0065301D01*
X0032502Y0066802D02*
X0033253Y0067553D01*
X0033253Y0068303D01*
X0032502Y0069054D01*
X0031001Y0069054D01*
X0030250Y0068303D01*
X0041760Y0069054D02*
X0041760Y0066051D01*
X0043261Y0064550D01*
X0044762Y0066051D01*
X0044762Y0069054D01*
D13*
X0065850Y0025450D02*
X0072150Y0025450D01*
X0072150Y0019150D01*
X0065850Y0019150D01*
X0065850Y0025450D01*
M02*
