G75*
%MOIN*%
%OFA0B0*%
%FSLAX25Y25*%
%IPPOS*%
%LPD*%
%AMOC8*
5,1,8,0,0,1.08239X$1,22.5*
%
%ADD10R,0.04252X0.04134*%
%ADD11R,0.04134X0.04252*%
%ADD12R,0.03937X0.04331*%
%ADD13R,0.04331X0.03937*%
%ADD14OC8,0.06000*%
%ADD15C,0.02781*%
%ADD16C,0.01600*%
%ADD17C,0.02400*%
%ADD18C,0.02700*%
%ADD19C,0.03200*%
%ADD20C,0.01000*%
%ADD21C,0.03175*%
%ADD22C,0.00800*%
D10*
X0100550Y0115640D03*
X0100550Y0122530D03*
X0095550Y0153140D03*
X0095550Y0160030D03*
D11*
X0081495Y0137835D03*
X0074605Y0137835D03*
D12*
X0082204Y0160335D03*
X0088896Y0160335D03*
D13*
X0108050Y0122432D03*
X0108050Y0115739D03*
D14*
X0028050Y0117835D03*
X0028050Y0127835D03*
X0028050Y0137835D03*
X0028050Y0147835D03*
X0028050Y0157835D03*
X0028050Y0167835D03*
X0018050Y0167835D03*
X0018050Y0157835D03*
X0018050Y0147835D03*
X0018050Y0137835D03*
X0018050Y0127835D03*
X0018050Y0117835D03*
X0018050Y0107835D03*
D15*
X0056800Y0145335D03*
X0055550Y0149085D03*
X0069300Y0137835D03*
X0064300Y0129085D03*
X0061800Y0122835D03*
X0080550Y0129085D03*
X0080550Y0134085D03*
X0084300Y0145335D03*
X0084300Y0149085D03*
X0096800Y0165335D03*
X0099300Y0154085D03*
X0114300Y0137835D03*
X0124300Y0137835D03*
X0139300Y0137835D03*
X0160550Y0145335D03*
X0163050Y0145335D03*
X0166800Y0184085D03*
X0170550Y0184085D03*
X0099300Y0110335D03*
X0096800Y0120335D03*
X0081800Y0122835D03*
X0051800Y0181585D03*
X0049300Y0181585D03*
X0153050Y0091585D03*
X0156800Y0091585D03*
D16*
X0044600Y0080635D02*
X0044600Y0103392D01*
X0044174Y0104421D01*
X0043386Y0105209D01*
X0042357Y0105635D01*
X0022921Y0105635D01*
X0023050Y0105764D01*
X0023050Y0109906D01*
X0020121Y0112835D01*
X0015979Y0112835D01*
X0013350Y0110206D01*
X0013350Y0115464D01*
X0015979Y0112835D01*
X0020121Y0112835D01*
X0023050Y0115764D01*
X0025979Y0112835D01*
X0030121Y0112835D01*
X0033050Y0115764D01*
X0033050Y0119906D01*
X0030121Y0122835D01*
X0025979Y0122835D01*
X0023050Y0119906D01*
X0023050Y0115764D01*
X0023050Y0119906D01*
X0020121Y0122835D01*
X0015979Y0122835D01*
X0013350Y0120206D01*
X0013350Y0125464D01*
X0015979Y0122835D01*
X0020121Y0122835D01*
X0023050Y0125764D01*
X0025979Y0122835D01*
X0030121Y0122835D01*
X0033050Y0125764D01*
X0033050Y0129906D01*
X0030121Y0132835D01*
X0025979Y0132835D01*
X0023050Y0129906D01*
X0023050Y0125764D01*
X0023050Y0129906D01*
X0020121Y0132835D01*
X0015979Y0132835D01*
X0013350Y0130206D01*
X0013350Y0135464D01*
X0015979Y0132835D01*
X0020121Y0132835D01*
X0023050Y0135764D01*
X0025979Y0132835D01*
X0030121Y0132835D01*
X0033050Y0135764D01*
X0033050Y0139906D01*
X0030121Y0142835D01*
X0025979Y0142835D01*
X0023050Y0139906D01*
X0023050Y0135764D01*
X0023050Y0139906D01*
X0020121Y0142835D01*
X0015979Y0142835D01*
X0013350Y0140206D01*
X0013350Y0145464D01*
X0015979Y0142835D01*
X0020121Y0142835D01*
X0023050Y0145764D01*
X0025979Y0142835D01*
X0030121Y0142835D01*
X0033050Y0145764D01*
X0033050Y0149906D01*
X0030121Y0152835D01*
X0025979Y0152835D01*
X0023050Y0149906D01*
X0023050Y0145764D01*
X0023050Y0149906D01*
X0020121Y0152835D01*
X0015979Y0152835D01*
X0013350Y0150206D01*
X0013350Y0155464D01*
X0015979Y0152835D01*
X0020121Y0152835D01*
X0023050Y0155764D01*
X0025979Y0152835D01*
X0030121Y0152835D01*
X0033050Y0155764D01*
X0033050Y0159906D01*
X0030121Y0162835D01*
X0025979Y0162835D01*
X0023050Y0159906D01*
X0023050Y0155764D01*
X0023050Y0159906D01*
X0020121Y0162835D01*
X0015979Y0162835D01*
X0013350Y0160206D01*
X0013350Y0165747D01*
X0016062Y0163035D01*
X0017850Y0163035D01*
X0017850Y0167635D01*
X0018250Y0167635D01*
X0018250Y0163035D01*
X0020038Y0163035D01*
X0022850Y0165847D01*
X0022850Y0167635D01*
X0018250Y0167635D01*
X0018250Y0168035D01*
X0022850Y0168035D01*
X0022850Y0169823D01*
X0022638Y0170035D01*
X0023179Y0170035D01*
X0023050Y0169906D01*
X0023050Y0165764D01*
X0025979Y0162835D01*
X0030121Y0162835D01*
X0033050Y0165764D01*
X0033050Y0169906D01*
X0032921Y0170035D01*
X0042357Y0170035D01*
X0043386Y0170461D01*
X0044174Y0171249D01*
X0044600Y0172278D01*
X0044600Y0195035D01*
X0177671Y0195035D01*
X0177671Y0080635D01*
X0044600Y0080635D01*
X0044600Y0081032D02*
X0177671Y0081032D01*
X0177671Y0082631D02*
X0044600Y0082631D01*
X0044600Y0084229D02*
X0177671Y0084229D01*
X0177671Y0085828D02*
X0044600Y0085828D01*
X0044600Y0087426D02*
X0177671Y0087426D01*
X0177671Y0089025D02*
X0044600Y0089025D01*
X0044600Y0090623D02*
X0177671Y0090623D01*
X0177671Y0092222D02*
X0044600Y0092222D01*
X0044600Y0093820D02*
X0177671Y0093820D01*
X0177671Y0095419D02*
X0044600Y0095419D01*
X0044600Y0097017D02*
X0177671Y0097017D01*
X0177671Y0098616D02*
X0044600Y0098616D01*
X0044600Y0100214D02*
X0177671Y0100214D01*
X0177671Y0101813D02*
X0044600Y0101813D01*
X0044592Y0103411D02*
X0177671Y0103411D01*
X0177671Y0105010D02*
X0043585Y0105010D01*
X0031887Y0114601D02*
X0096424Y0114601D01*
X0096424Y0116199D02*
X0033050Y0116199D01*
X0033050Y0117798D02*
X0096424Y0117798D01*
X0096424Y0118536D02*
X0096424Y0112745D01*
X0096669Y0112499D01*
X0096426Y0112256D01*
X0095909Y0111010D01*
X0095909Y0109661D01*
X0096426Y0108415D01*
X0097379Y0107461D01*
X0098626Y0106945D01*
X0099974Y0106945D01*
X0101221Y0107461D01*
X0102174Y0108415D01*
X0102691Y0109661D01*
X0102691Y0109766D01*
X0102924Y0109999D01*
X0103350Y0111028D01*
X0103350Y0111573D01*
X0103504Y0111573D01*
X0104017Y0112085D01*
X0104732Y0112095D01*
X0105056Y0111770D01*
X0111044Y0111770D01*
X0112215Y0112942D01*
X0112215Y0118536D01*
X0111666Y0119085D01*
X0112215Y0119635D01*
X0112215Y0125228D01*
X0111250Y0126194D01*
X0111250Y0129307D01*
X0111400Y0129669D01*
X0111400Y0131001D01*
X0110890Y0132233D01*
X0109948Y0133175D01*
X0108716Y0133685D01*
X0107384Y0133685D01*
X0106152Y0133175D01*
X0105210Y0132233D01*
X0104700Y0131001D01*
X0104700Y0129669D01*
X0104850Y0129307D01*
X0104850Y0126194D01*
X0104205Y0125549D01*
X0104116Y0125702D01*
X0103781Y0126037D01*
X0103371Y0126274D01*
X0102913Y0126397D01*
X0100783Y0126397D01*
X0100783Y0122764D01*
X0100317Y0122764D01*
X0100317Y0126397D01*
X0098187Y0126397D01*
X0097729Y0126274D01*
X0097319Y0126037D01*
X0096984Y0125702D01*
X0096747Y0125292D01*
X0096624Y0124834D01*
X0096624Y0122763D01*
X0100316Y0122763D01*
X0100316Y0122297D01*
X0096624Y0122297D01*
X0096624Y0120226D01*
X0096747Y0119768D01*
X0096984Y0119358D01*
X0097115Y0119227D01*
X0096424Y0118536D01*
X0096961Y0119396D02*
X0033050Y0119396D01*
X0031961Y0120995D02*
X0058892Y0120995D01*
X0058926Y0120915D02*
X0059879Y0119961D01*
X0061126Y0119445D01*
X0062474Y0119445D01*
X0063721Y0119961D01*
X0064095Y0120335D01*
X0079505Y0120335D01*
X0079879Y0119961D01*
X0081126Y0119445D01*
X0082474Y0119445D01*
X0083721Y0119961D01*
X0084674Y0120915D01*
X0085191Y0122161D01*
X0085191Y0123510D01*
X0084674Y0124756D01*
X0083721Y0125709D01*
X0082482Y0126222D01*
X0083424Y0127165D01*
X0083941Y0128411D01*
X0083941Y0129760D01*
X0083424Y0131006D01*
X0082471Y0131959D01*
X0081224Y0132476D01*
X0079876Y0132476D01*
X0078629Y0131959D01*
X0078255Y0131585D01*
X0066595Y0131585D01*
X0066221Y0131959D01*
X0064974Y0132476D01*
X0063626Y0132476D01*
X0062379Y0131959D01*
X0061426Y0131006D01*
X0060909Y0129760D01*
X0060909Y0128411D01*
X0061426Y0127165D01*
X0062365Y0126226D01*
X0061126Y0126226D01*
X0059879Y0125709D01*
X0058926Y0124756D01*
X0058409Y0123510D01*
X0058409Y0122161D01*
X0058926Y0120915D01*
X0058409Y0122593D02*
X0030363Y0122593D01*
X0031478Y0124192D02*
X0058692Y0124192D01*
X0060075Y0125790D02*
X0033050Y0125790D01*
X0033050Y0127389D02*
X0061333Y0127389D01*
X0060909Y0128987D02*
X0033050Y0128987D01*
X0032370Y0130586D02*
X0061252Y0130586D01*
X0062923Y0132184D02*
X0030772Y0132184D01*
X0031069Y0133783D02*
X0034529Y0133783D01*
X0034768Y0133544D02*
X0033759Y0134553D01*
X0033213Y0135872D01*
X0033213Y0137299D01*
X0033759Y0138617D01*
X0034000Y0138858D01*
X0034000Y0150562D01*
X0033759Y0150803D01*
X0033213Y0152122D01*
X0033213Y0153549D01*
X0033759Y0154867D01*
X0034768Y0155876D01*
X0036086Y0156423D01*
X0037514Y0156423D01*
X0038832Y0155876D01*
X0039841Y0154867D01*
X0040387Y0153549D01*
X0040387Y0152122D01*
X0039841Y0150803D01*
X0039600Y0150562D01*
X0039600Y0138858D01*
X0039841Y0138617D01*
X0040387Y0137299D01*
X0040387Y0135872D01*
X0039841Y0134553D01*
X0038832Y0133544D01*
X0037514Y0132998D01*
X0036086Y0132998D01*
X0034768Y0133544D01*
X0033416Y0135382D02*
X0032667Y0135382D01*
X0033050Y0136980D02*
X0033213Y0136980D01*
X0033050Y0138579D02*
X0033743Y0138579D01*
X0034000Y0140177D02*
X0032779Y0140177D01*
X0034000Y0141776D02*
X0031181Y0141776D01*
X0030660Y0143374D02*
X0034000Y0143374D01*
X0034000Y0144973D02*
X0032259Y0144973D01*
X0033050Y0146571D02*
X0034000Y0146571D01*
X0034000Y0148170D02*
X0033050Y0148170D01*
X0033050Y0149768D02*
X0034000Y0149768D01*
X0033525Y0151367D02*
X0031590Y0151367D01*
X0030251Y0152965D02*
X0033213Y0152965D01*
X0033633Y0154564D02*
X0031850Y0154564D01*
X0033050Y0156162D02*
X0035458Y0156162D01*
X0038142Y0156162D02*
X0091897Y0156162D01*
X0091984Y0156312D02*
X0091747Y0155902D01*
X0091624Y0155444D01*
X0091624Y0153374D01*
X0095316Y0153374D01*
X0095316Y0152907D01*
X0091624Y0152907D01*
X0091624Y0150836D01*
X0091747Y0150379D01*
X0091984Y0149968D01*
X0092319Y0149633D01*
X0092729Y0149396D01*
X0093187Y0149273D01*
X0095317Y0149273D01*
X0095317Y0152907D01*
X0095783Y0152907D01*
X0095783Y0149273D01*
X0097913Y0149273D01*
X0098371Y0149396D01*
X0098781Y0149633D01*
X0099116Y0149968D01*
X0099353Y0150379D01*
X0099476Y0150836D01*
X0099476Y0152907D01*
X0095784Y0152907D01*
X0095784Y0153374D01*
X0099476Y0153374D01*
X0099476Y0155444D01*
X0099353Y0155902D01*
X0099116Y0156312D01*
X0098985Y0156444D01*
X0099676Y0157135D01*
X0099676Y0162925D01*
X0099600Y0163001D01*
X0099600Y0163340D01*
X0099674Y0163415D01*
X0100191Y0164661D01*
X0100191Y0166010D01*
X0099674Y0167256D01*
X0098721Y0168209D01*
X0097474Y0168726D01*
X0096126Y0168726D01*
X0094879Y0168209D01*
X0093926Y0167256D01*
X0093409Y0166010D01*
X0093409Y0164661D01*
X0093643Y0164097D01*
X0092596Y0164097D01*
X0092346Y0163848D01*
X0091693Y0164500D01*
X0086100Y0164500D01*
X0085550Y0163951D01*
X0085000Y0164500D01*
X0079407Y0164500D01*
X0078441Y0163535D01*
X0077828Y0163535D01*
X0077466Y0163685D01*
X0076134Y0163685D01*
X0075772Y0163535D01*
X0060328Y0163535D01*
X0059966Y0163685D01*
X0058634Y0163685D01*
X0057402Y0163175D01*
X0056460Y0162233D01*
X0055950Y0161001D01*
X0055950Y0159669D01*
X0056460Y0158437D01*
X0057402Y0157495D01*
X0058634Y0156985D01*
X0059966Y0156985D01*
X0060328Y0157135D01*
X0075772Y0157135D01*
X0076134Y0156985D01*
X0077466Y0156985D01*
X0077828Y0157135D01*
X0078441Y0157135D01*
X0079407Y0156170D01*
X0085000Y0156170D01*
X0085550Y0156719D01*
X0086100Y0156170D01*
X0091693Y0156170D01*
X0092041Y0156518D01*
X0092115Y0156444D01*
X0091984Y0156312D01*
X0091624Y0154564D02*
X0039967Y0154564D01*
X0040387Y0152965D02*
X0095316Y0152965D01*
X0095784Y0152965D02*
X0177671Y0152965D01*
X0177671Y0151367D02*
X0113898Y0151367D01*
X0113764Y0151423D02*
X0115082Y0150876D01*
X0115723Y0150235D01*
X0142277Y0150235D01*
X0143159Y0149870D01*
X0147857Y0145173D01*
X0148764Y0145173D01*
X0150082Y0144626D01*
X0151091Y0143617D01*
X0151637Y0142299D01*
X0151637Y0140872D01*
X0151091Y0139553D01*
X0150082Y0138544D01*
X0149137Y0138153D01*
X0149137Y0137122D01*
X0148591Y0135803D01*
X0147582Y0134794D01*
X0146264Y0134248D01*
X0144836Y0134248D01*
X0143518Y0134794D01*
X0142509Y0135803D01*
X0141963Y0137122D01*
X0141963Y0138028D01*
X0137056Y0142935D01*
X0117794Y0142935D01*
X0116909Y0142050D01*
X0116027Y0141685D01*
X0110073Y0141685D01*
X0109921Y0141748D01*
X0108586Y0141748D01*
X0107268Y0142294D01*
X0106259Y0143303D01*
X0105713Y0144622D01*
X0105713Y0146049D01*
X0106259Y0147367D01*
X0107268Y0148376D01*
X0108586Y0148923D01*
X0109617Y0148923D01*
X0110009Y0149867D01*
X0111018Y0150876D01*
X0112336Y0151423D01*
X0113764Y0151423D01*
X0112202Y0151367D02*
X0099476Y0151367D01*
X0098916Y0149768D02*
X0109968Y0149768D01*
X0107061Y0148170D02*
X0087591Y0148170D01*
X0087691Y0148411D02*
X0087193Y0147210D01*
X0087691Y0146010D01*
X0087691Y0144661D01*
X0087174Y0143415D01*
X0086221Y0142461D01*
X0084974Y0141945D01*
X0083626Y0141945D01*
X0082379Y0142461D01*
X0082005Y0142835D01*
X0059095Y0142835D01*
X0058721Y0142461D01*
X0057474Y0141945D01*
X0056126Y0141945D01*
X0054879Y0142461D01*
X0053926Y0143415D01*
X0053409Y0144661D01*
X0053409Y0146010D01*
X0053533Y0146307D01*
X0052676Y0147165D01*
X0052159Y0148411D01*
X0052159Y0149760D01*
X0052676Y0151006D01*
X0053629Y0151959D01*
X0054876Y0152476D01*
X0056224Y0152476D01*
X0057471Y0151959D01*
X0057845Y0151585D01*
X0082005Y0151585D01*
X0082379Y0151959D01*
X0083626Y0152476D01*
X0084974Y0152476D01*
X0086221Y0151959D01*
X0087174Y0151006D01*
X0087691Y0149760D01*
X0087691Y0148411D01*
X0087687Y0149768D02*
X0092184Y0149768D01*
X0091624Y0151367D02*
X0086813Y0151367D01*
X0087458Y0146571D02*
X0105929Y0146571D01*
X0105713Y0144973D02*
X0087691Y0144973D01*
X0087134Y0143374D02*
X0106229Y0143374D01*
X0108519Y0141776D02*
X0077686Y0141776D01*
X0077500Y0141961D02*
X0071710Y0141961D01*
X0071184Y0141435D01*
X0068584Y0141435D01*
X0067261Y0140887D01*
X0066248Y0139874D01*
X0065700Y0138551D01*
X0065700Y0137119D01*
X0066248Y0135796D01*
X0067261Y0134783D01*
X0068584Y0134235D01*
X0071184Y0134235D01*
X0071710Y0133709D01*
X0077500Y0133709D01*
X0078191Y0134400D01*
X0078323Y0134269D01*
X0078733Y0134032D01*
X0079191Y0133909D01*
X0081261Y0133909D01*
X0081261Y0137602D01*
X0081728Y0137602D01*
X0081728Y0133909D01*
X0083799Y0133909D01*
X0084257Y0134032D01*
X0084667Y0134269D01*
X0085002Y0134604D01*
X0085239Y0135014D01*
X0085362Y0135472D01*
X0085362Y0137602D01*
X0081728Y0137602D01*
X0081728Y0138069D01*
X0081261Y0138069D01*
X0081261Y0141761D01*
X0079191Y0141761D01*
X0078733Y0141638D01*
X0078323Y0141401D01*
X0078191Y0141270D01*
X0077500Y0141961D01*
X0081261Y0140177D02*
X0081728Y0140177D01*
X0081728Y0141761D02*
X0081728Y0138069D01*
X0085362Y0138069D01*
X0085362Y0140198D01*
X0085239Y0140656D01*
X0085002Y0141066D01*
X0084667Y0141401D01*
X0084257Y0141638D01*
X0083799Y0141761D01*
X0081728Y0141761D01*
X0081728Y0138579D02*
X0081261Y0138579D01*
X0081495Y0137835D02*
X0080550Y0136280D01*
X0080550Y0134085D01*
X0081261Y0135382D02*
X0081728Y0135382D01*
X0081728Y0136980D02*
X0081261Y0136980D01*
X0085362Y0136980D02*
X0142021Y0136980D01*
X0141412Y0138579D02*
X0085362Y0138579D01*
X0085362Y0140177D02*
X0139814Y0140177D01*
X0138215Y0141776D02*
X0116246Y0141776D01*
X0110910Y0132184D02*
X0177671Y0132184D01*
X0177671Y0130586D02*
X0111400Y0130586D01*
X0111250Y0128987D02*
X0177671Y0128987D01*
X0177671Y0127389D02*
X0111250Y0127389D01*
X0111653Y0125790D02*
X0177671Y0125790D01*
X0177671Y0124192D02*
X0112215Y0124192D01*
X0112215Y0122593D02*
X0177671Y0122593D01*
X0177671Y0120995D02*
X0112215Y0120995D01*
X0111977Y0119396D02*
X0177671Y0119396D01*
X0177671Y0117798D02*
X0112215Y0117798D01*
X0112215Y0116199D02*
X0177671Y0116199D01*
X0177671Y0114601D02*
X0112215Y0114601D01*
X0112215Y0113002D02*
X0177671Y0113002D01*
X0177671Y0111404D02*
X0103350Y0111404D01*
X0102730Y0109805D02*
X0177671Y0109805D01*
X0177671Y0108207D02*
X0101967Y0108207D01*
X0099300Y0110335D02*
X0100550Y0111585D01*
X0100550Y0115640D01*
X0096424Y0113002D02*
X0030288Y0113002D01*
X0025812Y0113002D02*
X0020288Y0113002D01*
X0021552Y0111404D02*
X0096073Y0111404D01*
X0095909Y0109805D02*
X0023050Y0109805D01*
X0023050Y0108207D02*
X0096633Y0108207D01*
X0096624Y0120995D02*
X0084708Y0120995D01*
X0085191Y0122593D02*
X0100316Y0122593D01*
X0100317Y0124192D02*
X0100783Y0124192D01*
X0100783Y0125790D02*
X0100317Y0125790D01*
X0097072Y0125790D02*
X0083525Y0125790D01*
X0083517Y0127389D02*
X0104850Y0127389D01*
X0104850Y0128987D02*
X0083941Y0128987D01*
X0083598Y0130586D02*
X0104700Y0130586D01*
X0105190Y0132184D02*
X0081927Y0132184D01*
X0079173Y0132184D02*
X0065677Y0132184D01*
X0066662Y0135382D02*
X0040184Y0135382D01*
X0040387Y0136980D02*
X0065758Y0136980D01*
X0065711Y0138579D02*
X0039857Y0138579D01*
X0039600Y0140177D02*
X0066551Y0140177D01*
X0069300Y0137835D02*
X0074605Y0137835D01*
X0071524Y0141776D02*
X0039600Y0141776D01*
X0039600Y0143374D02*
X0053966Y0143374D01*
X0053409Y0144973D02*
X0039600Y0144973D01*
X0039600Y0146571D02*
X0053269Y0146571D01*
X0052259Y0148170D02*
X0039600Y0148170D01*
X0039600Y0149768D02*
X0052163Y0149768D01*
X0053037Y0151367D02*
X0040075Y0151367D01*
X0036800Y0152835D02*
X0036800Y0136585D01*
X0039071Y0133783D02*
X0071636Y0133783D01*
X0077574Y0133783D02*
X0177671Y0133783D01*
X0177671Y0135382D02*
X0148170Y0135382D01*
X0149079Y0136980D02*
X0177671Y0136980D01*
X0177671Y0138579D02*
X0150117Y0138579D01*
X0151350Y0140177D02*
X0177671Y0140177D01*
X0177671Y0141776D02*
X0151637Y0141776D01*
X0151192Y0143374D02*
X0177671Y0143374D01*
X0177671Y0144973D02*
X0149246Y0144973D01*
X0146458Y0146571D02*
X0177671Y0146571D01*
X0177671Y0148170D02*
X0144860Y0148170D01*
X0143261Y0149768D02*
X0177671Y0149768D01*
X0177671Y0154564D02*
X0099476Y0154564D01*
X0099300Y0154085D02*
X0100550Y0154085D01*
X0099203Y0156162D02*
X0177671Y0156162D01*
X0177671Y0157761D02*
X0099676Y0157761D01*
X0099676Y0159359D02*
X0177671Y0159359D01*
X0177671Y0160958D02*
X0099676Y0160958D01*
X0099676Y0162556D02*
X0177671Y0162556D01*
X0177671Y0164155D02*
X0099981Y0164155D01*
X0100191Y0165753D02*
X0177671Y0165753D01*
X0177671Y0167352D02*
X0099578Y0167352D01*
X0096800Y0165335D02*
X0096800Y0160030D01*
X0095550Y0160030D01*
X0093619Y0164155D02*
X0092039Y0164155D01*
X0093409Y0165753D02*
X0033039Y0165753D01*
X0033050Y0167352D02*
X0094022Y0167352D01*
X0085754Y0164155D02*
X0085346Y0164155D01*
X0079061Y0164155D02*
X0031441Y0164155D01*
X0030400Y0162556D02*
X0056783Y0162556D01*
X0055950Y0160958D02*
X0031998Y0160958D01*
X0033050Y0159359D02*
X0056078Y0159359D01*
X0057137Y0157761D02*
X0033050Y0157761D01*
X0025849Y0152965D02*
X0020251Y0152965D01*
X0021590Y0151367D02*
X0024510Y0151367D01*
X0023050Y0149768D02*
X0023050Y0149768D01*
X0023050Y0148170D02*
X0023050Y0148170D01*
X0023050Y0146571D02*
X0023050Y0146571D01*
X0022259Y0144973D02*
X0023841Y0144973D01*
X0025440Y0143374D02*
X0020660Y0143374D01*
X0021181Y0141776D02*
X0024919Y0141776D01*
X0023321Y0140177D02*
X0022779Y0140177D01*
X0023050Y0138579D02*
X0023050Y0138579D01*
X0023050Y0136980D02*
X0023050Y0136980D01*
X0022667Y0135382D02*
X0023433Y0135382D01*
X0025031Y0133783D02*
X0021069Y0133783D01*
X0020772Y0132184D02*
X0025328Y0132184D01*
X0023730Y0130586D02*
X0022370Y0130586D01*
X0023050Y0128987D02*
X0023050Y0128987D01*
X0023050Y0127389D02*
X0023050Y0127389D01*
X0023050Y0125790D02*
X0023050Y0125790D01*
X0021478Y0124192D02*
X0024622Y0124192D01*
X0025737Y0122593D02*
X0020363Y0122593D01*
X0021961Y0120995D02*
X0024139Y0120995D01*
X0023050Y0119396D02*
X0023050Y0119396D01*
X0023050Y0117798D02*
X0023050Y0117798D01*
X0023050Y0116199D02*
X0023050Y0116199D01*
X0021887Y0114601D02*
X0024213Y0114601D01*
X0023050Y0106608D02*
X0177671Y0106608D01*
X0168050Y0145335D02*
X0163050Y0145335D01*
X0160550Y0145335D02*
X0155550Y0145335D01*
X0142930Y0135382D02*
X0085338Y0135382D01*
X0084908Y0124192D02*
X0096624Y0124192D01*
X0104028Y0125790D02*
X0104447Y0125790D01*
X0095783Y0149768D02*
X0095317Y0149768D01*
X0095317Y0151367D02*
X0095783Y0151367D01*
X0044546Y0172147D02*
X0177671Y0172147D01*
X0177671Y0170549D02*
X0043473Y0170549D01*
X0044600Y0173746D02*
X0177671Y0173746D01*
X0177671Y0175344D02*
X0044600Y0175344D01*
X0044600Y0176943D02*
X0177671Y0176943D01*
X0177671Y0178541D02*
X0044600Y0178541D01*
X0044600Y0180140D02*
X0177671Y0180140D01*
X0177671Y0181738D02*
X0044600Y0181738D01*
X0044600Y0183337D02*
X0177671Y0183337D01*
X0177671Y0184935D02*
X0044600Y0184935D01*
X0044600Y0186534D02*
X0177671Y0186534D01*
X0177671Y0188132D02*
X0044600Y0188132D01*
X0044600Y0189731D02*
X0177671Y0189731D01*
X0177671Y0191329D02*
X0044600Y0191329D01*
X0044600Y0192928D02*
X0177671Y0192928D01*
X0177671Y0194526D02*
X0044600Y0194526D01*
X0033050Y0168950D02*
X0177671Y0168950D01*
X0025700Y0162556D02*
X0020400Y0162556D01*
X0021158Y0164155D02*
X0024659Y0164155D01*
X0023061Y0165753D02*
X0022756Y0165753D01*
X0022850Y0167352D02*
X0023050Y0167352D01*
X0023050Y0168950D02*
X0022850Y0168950D01*
X0018250Y0167352D02*
X0017850Y0167352D01*
X0017850Y0165753D02*
X0018250Y0165753D01*
X0018250Y0164155D02*
X0017850Y0164155D01*
X0015700Y0162556D02*
X0013350Y0162556D01*
X0013350Y0160958D02*
X0014102Y0160958D01*
X0013350Y0164155D02*
X0014942Y0164155D01*
X0021998Y0160958D02*
X0024102Y0160958D01*
X0023050Y0159359D02*
X0023050Y0159359D01*
X0023050Y0157761D02*
X0023050Y0157761D01*
X0023050Y0156162D02*
X0023050Y0156162D01*
X0021850Y0154564D02*
X0024250Y0154564D01*
X0015849Y0152965D02*
X0013350Y0152965D01*
X0013350Y0151367D02*
X0014510Y0151367D01*
X0014250Y0154564D02*
X0013350Y0154564D01*
X0013350Y0144973D02*
X0013841Y0144973D01*
X0013350Y0143374D02*
X0015440Y0143374D01*
X0014919Y0141776D02*
X0013350Y0141776D01*
X0013350Y0135382D02*
X0013433Y0135382D01*
X0013350Y0133783D02*
X0015031Y0133783D01*
X0015328Y0132184D02*
X0013350Y0132184D01*
X0013350Y0130586D02*
X0013730Y0130586D01*
X0013350Y0124192D02*
X0014622Y0124192D01*
X0015737Y0122593D02*
X0013350Y0122593D01*
X0013350Y0120995D02*
X0014139Y0120995D01*
X0014213Y0114601D02*
X0013350Y0114601D01*
X0013350Y0113002D02*
X0015812Y0113002D01*
X0014548Y0111404D02*
X0013350Y0111404D01*
D17*
X0059300Y0160335D02*
X0076800Y0160335D01*
X0082204Y0160335D01*
X0088896Y0160335D02*
X0095245Y0160335D01*
X0095550Y0160030D01*
X0108050Y0130335D02*
X0108050Y0122432D01*
D18*
X0108050Y0130335D03*
X0076800Y0160335D03*
X0059300Y0160335D03*
D19*
X0069300Y0137835D02*
X0074700Y0137835D01*
X0100550Y0115640D02*
X0108050Y0115739D01*
D20*
X0081800Y0122835D02*
X0061800Y0122835D01*
X0064300Y0129085D02*
X0080550Y0129085D01*
X0084300Y0145335D02*
X0056800Y0145335D01*
X0055550Y0149085D02*
X0084300Y0149085D01*
D21*
X0109300Y0145335D03*
X0113050Y0147835D03*
X0145550Y0137835D03*
X0148050Y0141585D03*
X0036800Y0136585D03*
X0036800Y0152835D03*
D22*
X0109300Y0145335D02*
X0110550Y0144085D01*
X0115550Y0144085D01*
X0116800Y0145335D01*
X0138050Y0145335D01*
X0145550Y0137835D01*
X0148050Y0141585D02*
X0141800Y0147835D01*
X0113050Y0147835D01*
M02*
