%
M48
M72
T01C0.01100
T02C0.01181
T03C0.01575
T04C0.04000
%
T01
X108050Y130335
X76800Y160335
X59300Y160335
T02
X55550Y149085
X56800Y145335
X69300Y137835
X64300Y129085
X61800Y122835
X80550Y129085
X80550Y134085
X84300Y145335
X84300Y149085
X96800Y165335
X99300Y154085
X114300Y137835
X124300Y137835
X139300Y137835
X160550Y145335
X163050Y145335
X166800Y184085
X170550Y184085
X99300Y110335
X96800Y120335
X81800Y122835
X51800Y181585
X49300Y181585
X153050Y91585
X156800Y91585
T03
X145550Y137835
X148050Y141585
X113050Y147835
X109300Y145335
X36800Y152835
X36800Y136585
T04
X18050Y107835
X18050Y117835
X18050Y127835
X18050Y137835
X18050Y147835
X18050Y157835
X18050Y167835
X28050Y167835
X28050Y157835
X28050Y147835
X28050Y137835
X28050Y127835
X28050Y117835
M30
