G75*
%MOIN*%
%OFA0B0*%
%FSLAX25Y25*%
%IPPOS*%
%LPD*%
%AMOC8*
5,1,8,0,0,1.08239X$1,22.5*
%
%ADD10C,0.00800*%
%ADD11C,0.01100*%
%ADD12C,0.00200*%
%ADD13C,0.00600*%
%ADD14C,0.00300*%
%ADD15C,0.00400*%
%ADD16C,0.00500*%
D10*
X0049151Y0083235D02*
X0049851Y0083936D01*
X0050552Y0083235D01*
X0051252Y0083936D01*
X0051252Y0086038D01*
X0053054Y0086038D02*
X0053054Y0083936D01*
X0053755Y0083235D01*
X0054455Y0083936D01*
X0055156Y0083235D01*
X0055856Y0083936D01*
X0055856Y0086038D01*
X0057658Y0086038D02*
X0057658Y0083936D01*
X0058358Y0083235D01*
X0059059Y0083936D01*
X0059760Y0083235D01*
X0060460Y0083936D01*
X0060460Y0086038D01*
X0062262Y0083936D02*
X0062962Y0083936D01*
X0062962Y0083235D01*
X0062262Y0083235D01*
X0062262Y0083936D01*
X0064564Y0083235D02*
X0064564Y0086038D01*
X0065264Y0086038D01*
X0065965Y0085337D01*
X0066666Y0086038D01*
X0067366Y0085337D01*
X0067366Y0083235D01*
X0065965Y0083235D02*
X0065965Y0085337D01*
X0069168Y0086038D02*
X0069868Y0086038D01*
X0069868Y0083235D01*
X0069168Y0083235D02*
X0070569Y0083235D01*
X0072237Y0083936D02*
X0072938Y0083235D01*
X0075039Y0083235D01*
X0076841Y0083235D02*
X0076841Y0086038D01*
X0078242Y0086038D02*
X0076841Y0084636D01*
X0078242Y0086038D02*
X0078943Y0086038D01*
X0080677Y0085337D02*
X0080677Y0083936D01*
X0081378Y0083235D01*
X0082779Y0083235D01*
X0083480Y0083936D01*
X0083480Y0085337D01*
X0082779Y0086038D01*
X0081378Y0086038D01*
X0080677Y0085337D01*
X0085281Y0085337D02*
X0085982Y0086038D01*
X0087383Y0086038D01*
X0088084Y0085337D01*
X0088084Y0083235D01*
X0089885Y0083936D02*
X0090586Y0084636D01*
X0092688Y0084636D01*
X0092688Y0085337D02*
X0092688Y0083235D01*
X0090586Y0083235D01*
X0089885Y0083936D01*
X0090586Y0086038D02*
X0091987Y0086038D01*
X0092688Y0085337D01*
X0094489Y0087439D02*
X0095190Y0087439D01*
X0095190Y0083235D01*
X0095890Y0083235D02*
X0094489Y0083235D01*
X0097559Y0083235D02*
X0098259Y0083235D01*
X0098259Y0083936D01*
X0097559Y0083936D01*
X0097559Y0083235D01*
X0099860Y0083936D02*
X0100561Y0083235D01*
X0101962Y0083235D01*
X0102663Y0083936D01*
X0102663Y0085337D01*
X0101962Y0086038D01*
X0100561Y0086038D01*
X0099860Y0085337D01*
X0099860Y0083936D01*
X0104464Y0084636D02*
X0105866Y0086038D01*
X0106566Y0086038D01*
X0108301Y0085337D02*
X0108301Y0083936D01*
X0109002Y0083235D01*
X0111103Y0083235D01*
X0111103Y0082535D02*
X0111103Y0086038D01*
X0109002Y0086038D01*
X0108301Y0085337D01*
X0109702Y0081834D02*
X0110403Y0081834D01*
X0111103Y0082535D01*
X0104464Y0083235D02*
X0104464Y0086038D01*
X0085281Y0087439D02*
X0085281Y0083235D01*
X0075039Y0086038D02*
X0072938Y0086038D01*
X0072237Y0085337D01*
X0072237Y0083936D01*
X0069868Y0087439D02*
X0069868Y0088139D01*
X0049151Y0083235D02*
X0048450Y0083936D01*
X0048450Y0086038D01*
D11*
X0083600Y0178385D02*
X0083600Y0184290D01*
X0085568Y0182322D01*
X0087537Y0184290D01*
X0087537Y0178385D01*
X0092014Y0178385D02*
X0092014Y0184290D01*
X0093982Y0184290D02*
X0090045Y0184290D01*
X0096491Y0183306D02*
X0096491Y0179369D01*
X0097475Y0178385D01*
X0099444Y0178385D01*
X0100428Y0179369D01*
X0102936Y0178385D02*
X0102936Y0184290D01*
X0100428Y0183306D02*
X0099444Y0184290D01*
X0097475Y0184290D01*
X0096491Y0183306D01*
X0102936Y0181338D02*
X0106873Y0181338D01*
X0109382Y0181338D02*
X0109382Y0179369D01*
X0110366Y0178385D01*
X0112335Y0178385D01*
X0113319Y0179369D01*
X0113319Y0180353D01*
X0112335Y0181338D01*
X0109382Y0181338D01*
X0111350Y0183306D01*
X0113319Y0184290D01*
X0115827Y0183306D02*
X0116812Y0184290D01*
X0118780Y0184290D01*
X0119764Y0183306D01*
X0119764Y0182322D01*
X0118780Y0181338D01*
X0119764Y0180353D01*
X0119764Y0179369D01*
X0118780Y0178385D01*
X0116812Y0178385D01*
X0115827Y0179369D01*
X0117796Y0181338D02*
X0118780Y0181338D01*
X0122273Y0179369D02*
X0122273Y0183306D01*
X0123257Y0184290D01*
X0125226Y0184290D01*
X0126210Y0183306D01*
X0122273Y0179369D01*
X0123257Y0178385D01*
X0125226Y0178385D01*
X0126210Y0179369D01*
X0126210Y0183306D01*
X0128718Y0182322D02*
X0130687Y0184290D01*
X0130687Y0178385D01*
X0132655Y0178385D02*
X0128718Y0178385D01*
X0106873Y0178385D02*
X0106873Y0184290D01*
D12*
X0083544Y0166937D02*
X0083544Y0164735D01*
X0082810Y0164735D02*
X0084278Y0164735D01*
X0082810Y0166203D02*
X0083544Y0166937D01*
X0082068Y0166937D02*
X0082068Y0165102D01*
X0081701Y0164735D01*
X0080967Y0164735D01*
X0080600Y0165102D01*
X0080600Y0166937D01*
X0059038Y0157270D02*
X0057570Y0155802D01*
X0057937Y0155435D01*
X0058671Y0155435D01*
X0059038Y0155802D01*
X0059038Y0157270D01*
X0058671Y0157637D01*
X0057937Y0157637D01*
X0057570Y0157270D01*
X0057570Y0155802D01*
X0056828Y0155435D02*
X0055360Y0155435D01*
X0056094Y0155435D02*
X0056094Y0157637D01*
X0055360Y0156903D01*
X0054618Y0156536D02*
X0054251Y0156169D01*
X0053150Y0156169D01*
X0053150Y0155435D02*
X0053150Y0157637D01*
X0054251Y0157637D01*
X0054618Y0157270D01*
X0054618Y0156536D01*
X0053884Y0156169D02*
X0054618Y0155435D01*
X0054251Y0152637D02*
X0053150Y0152637D01*
X0053150Y0150435D01*
X0053150Y0151169D02*
X0054251Y0151169D01*
X0054618Y0151536D01*
X0054618Y0152270D01*
X0054251Y0152637D01*
X0053884Y0151169D02*
X0054618Y0150435D01*
X0055360Y0151536D02*
X0056461Y0152637D01*
X0056461Y0150435D01*
X0056828Y0151536D02*
X0055360Y0151536D01*
X0055360Y0143887D02*
X0055360Y0142786D01*
X0056094Y0143153D01*
X0056461Y0143153D01*
X0056828Y0142786D01*
X0056828Y0142052D01*
X0056461Y0141685D01*
X0055727Y0141685D01*
X0055360Y0142052D01*
X0054618Y0141685D02*
X0053884Y0142419D01*
X0054251Y0142419D02*
X0053150Y0142419D01*
X0053150Y0141685D02*
X0053150Y0143887D01*
X0054251Y0143887D01*
X0054618Y0143520D01*
X0054618Y0142786D01*
X0054251Y0142419D01*
X0055360Y0143887D02*
X0056828Y0143887D01*
X0060650Y0142637D02*
X0060650Y0140435D01*
X0060650Y0141169D02*
X0061751Y0141169D01*
X0062118Y0141536D01*
X0062118Y0142270D01*
X0061751Y0142637D01*
X0060650Y0142637D01*
X0061384Y0141169D02*
X0062118Y0140435D01*
X0062860Y0140435D02*
X0064328Y0141903D01*
X0064328Y0142270D01*
X0063961Y0142637D01*
X0063227Y0142637D01*
X0062860Y0142270D01*
X0062860Y0140435D02*
X0064328Y0140435D01*
X0056828Y0135137D02*
X0056094Y0134770D01*
X0055360Y0134036D01*
X0056461Y0134036D01*
X0056828Y0133669D01*
X0056828Y0133302D01*
X0056461Y0132935D01*
X0055727Y0132935D01*
X0055360Y0133302D01*
X0055360Y0134036D01*
X0054618Y0134036D02*
X0054251Y0133669D01*
X0053150Y0133669D01*
X0053150Y0132935D02*
X0053150Y0135137D01*
X0054251Y0135137D01*
X0054618Y0134770D01*
X0054618Y0134036D01*
X0053884Y0133669D02*
X0054618Y0132935D01*
X0054251Y0127637D02*
X0053150Y0127637D01*
X0053150Y0125435D01*
X0053150Y0126169D02*
X0054251Y0126169D01*
X0054618Y0126536D01*
X0054618Y0127270D01*
X0054251Y0127637D01*
X0055360Y0127270D02*
X0055360Y0126903D01*
X0055727Y0126536D01*
X0056828Y0126536D01*
X0056828Y0125802D02*
X0056828Y0127270D01*
X0056461Y0127637D01*
X0055727Y0127637D01*
X0055360Y0127270D01*
X0055360Y0125802D02*
X0055727Y0125435D01*
X0056461Y0125435D01*
X0056828Y0125802D01*
X0054618Y0125435D02*
X0053884Y0126169D01*
X0054251Y0120137D02*
X0053150Y0120137D01*
X0053150Y0117935D01*
X0053150Y0118669D02*
X0054251Y0118669D01*
X0054618Y0119036D01*
X0054618Y0119770D01*
X0054251Y0120137D01*
X0055360Y0119770D02*
X0055360Y0119403D01*
X0055727Y0119036D01*
X0056461Y0119036D01*
X0056828Y0118669D01*
X0056828Y0118302D01*
X0056461Y0117935D01*
X0055727Y0117935D01*
X0055360Y0118302D01*
X0055360Y0118669D01*
X0055727Y0119036D01*
X0056461Y0119036D02*
X0056828Y0119403D01*
X0056828Y0119770D01*
X0056461Y0120137D01*
X0055727Y0120137D01*
X0055360Y0119770D01*
X0053884Y0118669D02*
X0054618Y0117935D01*
X0054251Y0112637D02*
X0053150Y0112637D01*
X0053150Y0110435D01*
X0053150Y0111169D02*
X0054251Y0111169D01*
X0054618Y0111536D01*
X0054618Y0112270D01*
X0054251Y0112637D01*
X0055360Y0112637D02*
X0056828Y0112637D01*
X0056828Y0112270D01*
X0055360Y0110802D01*
X0055360Y0110435D01*
X0054618Y0110435D02*
X0053884Y0111169D01*
X0036483Y0160346D02*
X0036850Y0160713D01*
X0036850Y0161446D01*
X0036483Y0161813D01*
X0036483Y0162555D02*
X0036850Y0162922D01*
X0036850Y0163656D01*
X0036483Y0164023D01*
X0035015Y0164023D01*
X0034648Y0163656D01*
X0034648Y0162922D01*
X0035015Y0162555D01*
X0036483Y0162555D01*
X0035015Y0161813D02*
X0034648Y0161446D01*
X0034648Y0160713D01*
X0035015Y0160346D01*
X0036483Y0160346D01*
X0036850Y0164765D02*
X0034648Y0164765D01*
X0036850Y0166233D01*
X0034648Y0166233D01*
X0035382Y0166975D02*
X0034648Y0167709D01*
X0036850Y0167709D01*
X0036850Y0166975D02*
X0036850Y0168443D01*
X0043553Y0168115D02*
X0043920Y0167748D01*
X0045388Y0167748D01*
X0045755Y0168115D01*
X0045755Y0168849D01*
X0045388Y0169216D01*
X0045388Y0169958D02*
X0045755Y0170325D01*
X0045755Y0171059D01*
X0045388Y0171426D01*
X0044654Y0171426D01*
X0044287Y0171059D01*
X0044287Y0170692D01*
X0044654Y0169958D01*
X0043553Y0169958D01*
X0043553Y0171426D01*
X0043920Y0169216D02*
X0043553Y0168849D01*
X0043553Y0168115D01*
X0129351Y0150351D02*
X0129351Y0148883D01*
X0129718Y0148516D01*
X0130452Y0148516D01*
X0130819Y0148883D01*
X0131561Y0149617D02*
X0133029Y0149617D01*
X0132662Y0148516D02*
X0132662Y0150718D01*
X0131561Y0149617D01*
X0130819Y0150351D02*
X0130452Y0150718D01*
X0129718Y0150718D01*
X0129351Y0150351D01*
X0167480Y0090237D02*
X0168948Y0088035D01*
X0169690Y0088035D02*
X0171158Y0088035D01*
X0170424Y0088035D02*
X0170424Y0090237D01*
X0169690Y0089503D01*
X0168948Y0090237D02*
X0167480Y0088035D01*
D13*
X0116500Y0118135D02*
X0116500Y0119735D01*
X0116500Y0118135D02*
X0114900Y0118135D01*
X0113300Y0119935D02*
X0114700Y0121335D01*
X0116500Y0155935D02*
X0116500Y0157535D01*
X0114900Y0157535D01*
X0078700Y0157535D02*
X0077100Y0157535D01*
X0077100Y0155935D01*
X0077100Y0119735D02*
X0077100Y0118135D01*
X0078700Y0118135D01*
X0033050Y0120335D02*
X0033050Y0115335D01*
X0030550Y0112835D01*
X0033050Y0110335D01*
X0033050Y0105335D01*
X0030550Y0102835D01*
X0015550Y0102835D01*
X0013050Y0105335D01*
X0013050Y0110335D01*
X0015550Y0112835D01*
X0013050Y0115335D01*
X0013050Y0120335D01*
X0015550Y0122835D01*
X0013050Y0125335D01*
X0013050Y0130335D01*
X0015550Y0132835D01*
X0013050Y0135335D01*
X0013050Y0140335D01*
X0015550Y0142835D01*
X0013050Y0145335D01*
X0013050Y0150335D01*
X0015550Y0152835D01*
X0013050Y0155335D01*
X0013050Y0160335D01*
X0015550Y0162835D01*
X0013050Y0165335D01*
X0013050Y0170335D01*
X0015550Y0172835D01*
X0030550Y0172835D01*
X0033050Y0170335D01*
X0033050Y0165335D01*
X0030550Y0162835D01*
X0033050Y0160335D01*
X0033050Y0155335D01*
X0030550Y0152835D01*
X0033050Y0150335D01*
X0033050Y0145335D01*
X0030550Y0142835D01*
X0033050Y0140335D01*
X0033050Y0135335D01*
X0030550Y0132835D01*
X0033050Y0130335D01*
X0033050Y0125335D01*
X0030550Y0122835D01*
X0033050Y0120335D01*
D14*
X0123314Y0120601D02*
X0126450Y0117465D01*
X0124882Y0117465D02*
X0124882Y0120601D01*
X0126450Y0120601D02*
X0123314Y0117465D01*
X0123314Y0119033D02*
X0126450Y0119033D01*
D15*
X0157300Y0118335D02*
X0161300Y0118335D01*
X0161300Y0122335D01*
X0157300Y0122335D01*
X0157300Y0123335D02*
X0161300Y0123335D01*
X0161300Y0127335D01*
X0157300Y0127335D01*
X0157300Y0128335D02*
X0161300Y0128335D01*
X0161300Y0132335D01*
X0157300Y0132335D01*
X0157300Y0133335D02*
X0161300Y0133335D01*
X0161300Y0137335D01*
X0157300Y0137335D01*
X0157300Y0138335D02*
X0161300Y0138335D01*
X0161300Y0142335D01*
X0157300Y0142335D01*
X0157300Y0143335D02*
X0161300Y0143335D01*
X0161300Y0147335D01*
X0157300Y0147335D01*
X0157300Y0148335D02*
X0161300Y0148335D01*
X0161300Y0152335D01*
X0157300Y0152335D01*
X0157300Y0153335D02*
X0161300Y0153335D01*
X0161300Y0157335D01*
X0157300Y0157335D01*
X0157300Y0158335D02*
X0161300Y0158335D01*
X0161300Y0162335D01*
X0157300Y0162335D01*
X0157300Y0163335D02*
X0161300Y0163335D01*
X0161300Y0167335D01*
X0157300Y0167335D01*
X0157300Y0168335D02*
X0161300Y0168335D01*
X0161300Y0172335D01*
X0157300Y0172335D01*
X0157300Y0173335D02*
X0161300Y0173335D01*
X0161300Y0177335D01*
X0157300Y0177335D01*
X0157300Y0178335D02*
X0161300Y0178335D01*
X0161300Y0182335D01*
X0157300Y0182335D01*
X0156091Y0183465D02*
X0167509Y0183465D01*
X0166300Y0182335D02*
X0162300Y0182335D01*
X0162300Y0178335D01*
X0166300Y0178335D01*
X0166300Y0177335D02*
X0162300Y0177335D01*
X0162300Y0173335D01*
X0166300Y0173335D01*
X0166300Y0172335D02*
X0162300Y0172335D01*
X0162300Y0168335D01*
X0166300Y0168335D01*
X0166300Y0167335D02*
X0162300Y0167335D01*
X0162300Y0163335D01*
X0166300Y0163335D01*
X0166300Y0162335D02*
X0162300Y0162335D01*
X0162300Y0158335D01*
X0166300Y0158335D01*
X0166300Y0157335D02*
X0162300Y0157335D01*
X0162300Y0153335D01*
X0166300Y0153335D01*
X0166300Y0152335D02*
X0162300Y0152335D01*
X0162300Y0148335D01*
X0166300Y0148335D01*
X0166300Y0147335D02*
X0162300Y0147335D01*
X0162300Y0143335D01*
X0166300Y0143335D01*
X0166300Y0142335D02*
X0162300Y0142335D01*
X0162300Y0138335D01*
X0166300Y0138335D01*
X0166300Y0137335D02*
X0162300Y0137335D01*
X0162300Y0133335D01*
X0166300Y0133335D01*
X0166300Y0132335D02*
X0162300Y0132335D01*
X0162300Y0128335D01*
X0166300Y0128335D01*
X0166300Y0127335D02*
X0162300Y0127335D01*
X0162300Y0123335D01*
X0166300Y0123335D01*
X0166300Y0122335D02*
X0162300Y0122335D01*
X0162300Y0118335D01*
X0166300Y0118335D01*
X0166300Y0117335D02*
X0162300Y0117335D01*
X0162300Y0113335D01*
X0166300Y0113335D01*
X0166300Y0112335D02*
X0162300Y0112335D01*
X0162300Y0108335D01*
X0166300Y0108335D01*
X0166300Y0107335D02*
X0162300Y0107335D01*
X0162300Y0103335D01*
X0166300Y0103335D01*
X0166300Y0102335D02*
X0162300Y0102335D01*
X0162300Y0098335D01*
X0166300Y0098335D01*
X0166300Y0097335D02*
X0162300Y0097335D01*
X0162300Y0093335D01*
X0166300Y0093335D01*
X0167509Y0092205D02*
X0156091Y0092205D01*
X0157300Y0093335D02*
X0161300Y0093335D01*
X0161300Y0097335D01*
X0157300Y0097335D01*
X0157300Y0098335D02*
X0161300Y0098335D01*
X0161300Y0102335D01*
X0157300Y0102335D01*
X0157300Y0103335D02*
X0161300Y0103335D01*
X0161300Y0107335D01*
X0157300Y0107335D01*
X0157300Y0108335D02*
X0161300Y0108335D01*
X0161300Y0112335D01*
X0157300Y0112335D01*
X0157300Y0113335D02*
X0161300Y0113335D01*
X0161300Y0117335D01*
X0157300Y0117335D01*
X0160300Y0116335D02*
X0160300Y0114335D01*
X0163300Y0114335D02*
X0163300Y0116335D01*
X0163300Y0119335D02*
X0163300Y0121335D01*
X0160300Y0121335D02*
X0160300Y0119335D01*
X0160300Y0124335D02*
X0160300Y0126335D01*
X0163300Y0126335D02*
X0163300Y0124335D01*
X0163300Y0129335D02*
X0163300Y0131335D01*
X0160300Y0131335D02*
X0160300Y0129335D01*
X0160300Y0134335D02*
X0160300Y0136335D01*
X0163300Y0136335D02*
X0163300Y0134335D01*
X0163300Y0139335D02*
X0163300Y0141335D01*
X0160300Y0141335D02*
X0160300Y0139335D01*
X0160300Y0144335D02*
X0160300Y0146335D01*
X0163300Y0146335D02*
X0163300Y0144335D01*
X0163300Y0149335D02*
X0163300Y0151335D01*
X0160300Y0151335D02*
X0160300Y0149335D01*
X0160300Y0154335D02*
X0160300Y0156335D01*
X0163300Y0156335D02*
X0163300Y0154335D01*
X0163300Y0159335D02*
X0163300Y0161335D01*
X0160300Y0161335D02*
X0160300Y0159335D01*
X0160300Y0164335D02*
X0160300Y0166335D01*
X0163300Y0166335D02*
X0163300Y0164335D01*
X0163300Y0169335D02*
X0163300Y0171335D01*
X0160300Y0171335D02*
X0160300Y0169335D01*
X0160300Y0174335D02*
X0160300Y0176335D01*
X0163300Y0176335D02*
X0163300Y0174335D01*
X0163300Y0179335D02*
X0163300Y0181335D01*
X0160300Y0181335D02*
X0160300Y0179335D01*
X0160300Y0111335D02*
X0160300Y0109335D01*
X0160300Y0106335D02*
X0160300Y0104335D01*
X0163300Y0104335D02*
X0163300Y0106335D01*
X0163300Y0109335D02*
X0163300Y0111335D01*
X0163300Y0101335D02*
X0163300Y0099335D01*
X0163300Y0096335D02*
X0163300Y0094335D01*
X0160300Y0094335D02*
X0160300Y0096335D01*
X0160300Y0099335D02*
X0160300Y0101335D01*
D16*
X0039300Y0103377D02*
X0039300Y0106380D01*
X0039300Y0104879D02*
X0034796Y0104879D01*
X0036297Y0103377D01*
X0037048Y0107981D02*
X0037048Y0110984D01*
X0034796Y0110233D02*
X0037048Y0107981D01*
X0039300Y0110233D02*
X0034796Y0110233D01*
X0011300Y0165481D02*
X0011300Y0168484D01*
X0011300Y0166982D02*
X0006796Y0166982D01*
X0008297Y0165481D01*
M02*
