G75*
%MOIN*%
%OFA0B0*%
%FSLAX25Y25*%
%IPPOS*%
%LPD*%
%AMOC8*
5,1,8,0,0,1.08239X$1,22.5*
%
%ADD10C,0.00200*%
D10*
X0102326Y0106036D02*
X0101959Y0106402D01*
X0101959Y0107136D01*
X0102326Y0107503D01*
X0102326Y0108245D02*
X0101959Y0108612D01*
X0101959Y0109346D01*
X0102326Y0109713D01*
X0102693Y0109713D01*
X0103060Y0109346D01*
X0103060Y0108979D01*
X0103060Y0109346D02*
X0103427Y0109713D01*
X0103794Y0109713D01*
X0104161Y0109346D01*
X0104161Y0108612D01*
X0103794Y0108245D01*
X0103794Y0107503D02*
X0104161Y0107136D01*
X0104161Y0106402D01*
X0103794Y0106036D01*
X0102326Y0106036D01*
X0107000Y0107265D02*
X0109202Y0107265D01*
X0109202Y0108366D01*
X0108835Y0108733D01*
X0108101Y0108733D01*
X0107734Y0108366D01*
X0107734Y0107265D01*
X0107734Y0107999D02*
X0107000Y0108733D01*
X0107367Y0109475D02*
X0107000Y0109842D01*
X0107000Y0110576D01*
X0107367Y0110943D01*
X0107734Y0110943D01*
X0108101Y0110576D01*
X0108101Y0110209D01*
X0108101Y0110576D02*
X0108468Y0110943D01*
X0108835Y0110943D01*
X0109202Y0110576D01*
X0109202Y0109842D01*
X0108835Y0109475D01*
X0076353Y0141726D02*
X0075619Y0141726D01*
X0075252Y0142093D01*
X0074510Y0141726D02*
X0073042Y0141726D01*
X0073042Y0143194D02*
X0073042Y0143561D01*
X0073409Y0143928D01*
X0074143Y0143928D01*
X0074510Y0143561D01*
X0075252Y0143561D02*
X0075619Y0143928D01*
X0076353Y0143928D01*
X0076720Y0143561D01*
X0076720Y0142093D01*
X0076353Y0141726D01*
X0074510Y0141726D02*
X0073042Y0143194D01*
X0090691Y0155782D02*
X0091058Y0155415D01*
X0092526Y0155415D01*
X0092893Y0155782D01*
X0092893Y0156516D01*
X0092526Y0156883D01*
X0092159Y0157625D02*
X0092893Y0158359D01*
X0090691Y0158359D01*
X0090691Y0157625D02*
X0090691Y0159093D01*
X0091058Y0156883D02*
X0090691Y0156516D01*
X0090691Y0155782D01*
X0087370Y0164285D02*
X0087370Y0166487D01*
X0086269Y0166487D01*
X0085902Y0166120D01*
X0085902Y0165386D01*
X0086269Y0165019D01*
X0087370Y0165019D01*
X0086636Y0165019D02*
X0085902Y0164285D01*
X0085160Y0164285D02*
X0083692Y0164285D01*
X0084426Y0164285D02*
X0084426Y0166487D01*
X0085160Y0165753D01*
M02*
