G75*
%MOIN*%
%OFA0B0*%
%FSLAX25Y25*%
%IPPOS*%
%LPD*%
%AMOC8*
5,1,8,0,0,1.08239X$1,22.5*
%
%ADD10R,0.06706X0.08674*%
%ADD11R,0.04737X0.05131*%
%ADD12R,0.06600X0.02800*%
%ADD13R,0.02800X0.06600*%
%ADD14R,0.08871X0.03792*%
%ADD15OC8,0.06800*%
%ADD16R,0.07099X0.05918*%
D10*
X0129644Y0144085D03*
X0141456Y0144085D03*
D11*
X0065146Y0137835D03*
X0058454Y0137835D03*
X0050146Y0134085D03*
X0050146Y0141585D03*
X0043454Y0141585D03*
X0043454Y0134085D03*
X0043454Y0126585D03*
X0050146Y0126585D03*
X0050146Y0119085D03*
X0043454Y0119085D03*
X0043454Y0111585D03*
X0050146Y0111585D03*
X0050146Y0149085D03*
X0043454Y0149085D03*
X0043454Y0156585D03*
X0050146Y0156585D03*
D12*
X0074700Y0153535D03*
X0074700Y0150435D03*
X0074700Y0147235D03*
X0074700Y0144135D03*
X0074700Y0140935D03*
X0074700Y0137835D03*
X0074700Y0134735D03*
X0074700Y0131535D03*
X0074700Y0128435D03*
X0074700Y0125235D03*
X0074700Y0122135D03*
X0118900Y0122135D03*
X0118900Y0125235D03*
X0118900Y0128435D03*
X0118900Y0131535D03*
X0118900Y0134735D03*
X0118900Y0137835D03*
X0118900Y0140935D03*
X0118900Y0144135D03*
X0118900Y0147235D03*
X0118900Y0150435D03*
X0118900Y0153535D03*
D13*
X0112500Y0159935D03*
X0109400Y0159935D03*
X0106200Y0159935D03*
X0103100Y0159935D03*
X0099900Y0159935D03*
X0096800Y0159935D03*
X0093700Y0159935D03*
X0090500Y0159935D03*
X0087400Y0159935D03*
X0084200Y0159935D03*
X0081100Y0159935D03*
X0081100Y0115735D03*
X0084200Y0115735D03*
X0087400Y0115735D03*
X0090500Y0115735D03*
X0093700Y0115735D03*
X0096800Y0115735D03*
X0099900Y0115735D03*
X0103100Y0115735D03*
X0106200Y0115735D03*
X0109400Y0115735D03*
X0112500Y0115735D03*
D14*
X0154792Y0115335D03*
X0154792Y0110335D03*
X0154792Y0105335D03*
X0154792Y0100335D03*
X0154792Y0095335D03*
X0168808Y0095335D03*
X0168808Y0100335D03*
X0168808Y0105335D03*
X0168808Y0110335D03*
X0168808Y0115335D03*
X0168808Y0120335D03*
X0168808Y0125335D03*
X0168808Y0130335D03*
X0168808Y0135335D03*
X0168808Y0140335D03*
X0168808Y0145335D03*
X0168808Y0150335D03*
X0168808Y0155335D03*
X0168808Y0160335D03*
X0168808Y0165335D03*
X0168808Y0170335D03*
X0168808Y0175335D03*
X0168808Y0180335D03*
X0154792Y0180335D03*
X0154792Y0175335D03*
X0154792Y0170335D03*
X0154792Y0165335D03*
X0154792Y0160335D03*
X0154792Y0155335D03*
X0154792Y0150335D03*
X0154792Y0145335D03*
X0154792Y0140335D03*
X0154792Y0135335D03*
X0154792Y0130335D03*
X0154792Y0125335D03*
X0154792Y0120335D03*
D15*
X0018050Y0107835D03*
X0018050Y0117835D03*
X0018050Y0127835D03*
X0018050Y0137835D03*
X0018050Y0147835D03*
X0018050Y0157835D03*
X0018050Y0167835D03*
X0028050Y0167835D03*
X0028050Y0157835D03*
X0028050Y0147835D03*
X0028050Y0137835D03*
X0028050Y0127835D03*
X0028050Y0117835D03*
D16*
X0050550Y0168898D03*
X0050550Y0176772D03*
M02*
