G75*
%MOIN*%
%OFA0B0*%
%FSLAX25Y25*%
%IPPOS*%
%LPD*%
%AMOC8*
5,1,8,0,0,1.08239X$1,22.5*
%
%ADD10C,0.00000*%
%ADD11C,0.05400*%
%ADD12OC8,0.05400*%
%ADD13C,0.06000*%
D10*
X0001256Y0036433D02*
X0001256Y0287634D01*
X0278677Y0287634D01*
X0278677Y0036433D01*
X0001256Y0036433D01*
D11*
X0026256Y0056433D03*
X0016256Y0131433D03*
X0016256Y0211433D03*
X0026256Y0256433D03*
X0106256Y0211433D03*
X0106256Y0131433D03*
X0196256Y0131433D03*
X0226256Y0056433D03*
X0196256Y0211433D03*
X0226256Y0256433D03*
D12*
X0236256Y0256433D03*
X0246256Y0256433D03*
X0256256Y0256433D03*
X0266256Y0256433D03*
X0266256Y0266433D03*
X0256256Y0266433D03*
X0246256Y0266433D03*
X0236256Y0266433D03*
X0226256Y0266433D03*
X0216256Y0266433D03*
X0216256Y0256433D03*
X0206256Y0256433D03*
X0196256Y0256433D03*
X0186256Y0256433D03*
X0176256Y0256433D03*
X0166256Y0256433D03*
X0166256Y0266433D03*
X0176256Y0266433D03*
X0186256Y0266433D03*
X0196256Y0266433D03*
X0206256Y0266433D03*
X0156256Y0266433D03*
X0146256Y0266433D03*
X0136256Y0266433D03*
X0126256Y0266433D03*
X0116256Y0266433D03*
X0116256Y0256433D03*
X0126256Y0256433D03*
X0136256Y0256433D03*
X0146256Y0256433D03*
X0156256Y0256433D03*
X0156256Y0211433D03*
X0146256Y0211433D03*
X0136256Y0211433D03*
X0126256Y0211433D03*
X0116256Y0211433D03*
X0116256Y0201433D03*
X0126256Y0201433D03*
X0136256Y0201433D03*
X0146256Y0201433D03*
X0156256Y0201433D03*
X0166256Y0201433D03*
X0176256Y0201433D03*
X0186256Y0201433D03*
X0196256Y0201433D03*
X0206256Y0201433D03*
X0216256Y0201433D03*
X0226256Y0201433D03*
X0236256Y0201433D03*
X0246256Y0201433D03*
X0246256Y0211433D03*
X0236256Y0211433D03*
X0226256Y0211433D03*
X0216256Y0211433D03*
X0206256Y0211433D03*
X0186256Y0211433D03*
X0176256Y0211433D03*
X0166256Y0211433D03*
X0106256Y0201433D03*
X0096256Y0201433D03*
X0086256Y0201433D03*
X0076256Y0201433D03*
X0066256Y0201433D03*
X0066256Y0211433D03*
X0076256Y0211433D03*
X0086256Y0211433D03*
X0096256Y0211433D03*
X0056256Y0211433D03*
X0046256Y0211433D03*
X0036256Y0211433D03*
X0026256Y0211433D03*
X0026256Y0201433D03*
X0036256Y0201433D03*
X0046256Y0201433D03*
X0056256Y0201433D03*
X0016256Y0201433D03*
X0036256Y0256433D03*
X0046256Y0256433D03*
X0056256Y0256433D03*
X0066256Y0256433D03*
X0076256Y0256433D03*
X0086256Y0256433D03*
X0096256Y0256433D03*
X0106256Y0256433D03*
X0106256Y0266433D03*
X0096256Y0266433D03*
X0086256Y0266433D03*
X0076256Y0266433D03*
X0066256Y0266433D03*
X0056256Y0266433D03*
X0046256Y0266433D03*
X0036256Y0266433D03*
X0026256Y0266433D03*
X0026256Y0131433D03*
X0036256Y0131433D03*
X0046256Y0131433D03*
X0056256Y0131433D03*
X0056256Y0121433D03*
X0046256Y0121433D03*
X0036256Y0121433D03*
X0026256Y0121433D03*
X0016256Y0121433D03*
X0066256Y0121433D03*
X0076256Y0121433D03*
X0086256Y0121433D03*
X0096256Y0121433D03*
X0106256Y0121433D03*
X0096256Y0131433D03*
X0086256Y0131433D03*
X0076256Y0131433D03*
X0066256Y0131433D03*
X0116256Y0131433D03*
X0126256Y0131433D03*
X0136256Y0131433D03*
X0146256Y0131433D03*
X0156256Y0131433D03*
X0156256Y0121433D03*
X0146256Y0121433D03*
X0136256Y0121433D03*
X0126256Y0121433D03*
X0116256Y0121433D03*
X0166256Y0121433D03*
X0176256Y0121433D03*
X0186256Y0121433D03*
X0196256Y0121433D03*
X0206256Y0121433D03*
X0206256Y0131433D03*
X0216256Y0131433D03*
X0226256Y0131433D03*
X0236256Y0131433D03*
X0246256Y0131433D03*
X0246256Y0121433D03*
X0236256Y0121433D03*
X0226256Y0121433D03*
X0216256Y0121433D03*
X0186256Y0131433D03*
X0176256Y0131433D03*
X0166256Y0131433D03*
X0166256Y0066433D03*
X0176256Y0066433D03*
X0186256Y0066433D03*
X0196256Y0066433D03*
X0206256Y0066433D03*
X0206256Y0056433D03*
X0196256Y0056433D03*
X0186256Y0056433D03*
X0176256Y0056433D03*
X0166256Y0056433D03*
X0156256Y0056433D03*
X0156256Y0066433D03*
X0146256Y0066433D03*
X0146256Y0056433D03*
X0136256Y0056433D03*
X0136256Y0066433D03*
X0126256Y0066433D03*
X0126256Y0056433D03*
X0116256Y0056433D03*
X0116256Y0066433D03*
X0106256Y0066433D03*
X0106256Y0056433D03*
X0096256Y0056433D03*
X0096256Y0066433D03*
X0086256Y0066433D03*
X0086256Y0056433D03*
X0076256Y0056433D03*
X0076256Y0066433D03*
X0066256Y0066433D03*
X0066256Y0056433D03*
X0056256Y0056433D03*
X0056256Y0066433D03*
X0046256Y0066433D03*
X0046256Y0056433D03*
X0036256Y0056433D03*
X0036256Y0066433D03*
X0026256Y0066433D03*
X0216256Y0066433D03*
X0226256Y0066433D03*
X0236256Y0066433D03*
X0246256Y0066433D03*
X0256256Y0066433D03*
X0256256Y0056433D03*
X0246256Y0056433D03*
X0236256Y0056433D03*
X0216256Y0056433D03*
X0266256Y0056433D03*
X0266256Y0066433D03*
D13*
X0266756Y0088933D02*
X0260756Y0088933D01*
X0260756Y0098933D02*
X0266756Y0098933D01*
X0266756Y0108933D02*
X0260756Y0108933D01*
M02*
