%
M48
M72
T01C0.01575
T02C0.02362
T03C0.03600
T04C0.04000
%
T01
X11256Y98933
X18756Y98933
X26256Y111433
X66256Y111433
X109756Y98933
X116256Y98933
X186256Y99433
X193756Y99433
X202256Y178433
X178756Y193433
X121256Y214933
X109256Y221933
X105756Y189933
X46256Y233933
X24756Y244933
T02
X41256Y271433
X46256Y281433
X46256Y191433
X56256Y191433
X61256Y191433
X66256Y181433
X71256Y181433
X71256Y176433
X66256Y176433
X81256Y176433
X81256Y181433
X86256Y181433
X86256Y176433
X91256Y191433
X116256Y181433
X126256Y176433
X131256Y146433
X121256Y146433
X141256Y146433
X151256Y146433
X161256Y146433
X196256Y176433
X201256Y196433
X211256Y196433
X221256Y196433
X231256Y196433
X191256Y196433
X176256Y181433
X168756Y241433
X96256Y146433
X71256Y136433
X91256Y111433
X101256Y106433
X101256Y101433
X96256Y91433
X76256Y91433
X66256Y73933
X56256Y76433
X46256Y81433
X41256Y108933
X31256Y116433
X21256Y176433
X13756Y181433
X26256Y191433
X36256Y191433
X206256Y98933
X226256Y98933
X243756Y73933
T03
X26256Y56433
X36256Y56433
X46256Y56433
X56256Y56433
X56256Y66433
X46256Y66433
X36256Y66433
X26256Y66433
X66256Y66433
X76256Y66433
X86256Y66433
X96256Y66433
X106256Y66433
X106256Y56433
X96256Y56433
X86256Y56433
X76256Y56433
X66256Y56433
X116256Y56433
X126256Y56433
X136256Y56433
X146256Y56433
X156256Y56433
X156256Y66433
X146256Y66433
X136256Y66433
X126256Y66433
X116256Y66433
X166256Y66433
X176256Y66433
X186256Y66433
X196256Y66433
X206256Y66433
X206256Y56433
X196256Y56433
X186256Y56433
X176256Y56433
X166256Y56433
X216256Y56433
X226256Y56433
X236256Y56433
X246256Y56433
X256256Y56433
X256256Y66433
X246256Y66433
X236256Y66433
X226256Y66433
X216256Y66433
X266256Y66433
X266256Y56433
X246256Y121433
X246256Y131433
X236256Y131433
X236256Y121433
X226256Y121433
X226256Y131433
X216256Y131433
X216256Y121433
X206256Y121433
X206256Y131433
X196256Y131433
X196256Y121433
X186256Y121433
X186256Y131433
X176256Y131433
X176256Y121433
X166256Y121433
X166256Y131433
X156256Y131433
X156256Y121433
X146256Y121433
X146256Y131433
X136256Y131433
X136256Y121433
X126256Y121433
X126256Y131433
X116256Y131433
X116256Y121433
X106256Y121433
X106256Y131433
X96256Y131433
X96256Y121433
X86256Y121433
X86256Y131433
X76256Y131433
X76256Y121433
X66256Y121433
X66256Y131433
X56256Y131433
X56256Y121433
X46256Y121433
X46256Y131433
X36256Y131433
X36256Y121433
X26256Y121433
X26256Y131433
X16256Y131433
X16256Y121433
X16256Y201433
X26256Y201433
X36256Y201433
X46256Y201433
X56256Y201433
X66256Y201433
X76256Y201433
X86256Y201433
X96256Y201433
X106256Y201433
X116256Y201433
X126256Y201433
X136256Y201433
X146256Y201433
X156256Y201433
X166256Y201433
X176256Y201433
X186256Y201433
X196256Y201433
X206256Y201433
X216256Y201433
X226256Y201433
X236256Y201433
X246256Y201433
X246256Y211433
X236256Y211433
X226256Y211433
X216256Y211433
X206256Y211433
X196256Y211433
X186256Y211433
X176256Y211433
X166256Y211433
X156256Y211433
X146256Y211433
X136256Y211433
X126256Y211433
X116256Y211433
X106256Y211433
X96256Y211433
X86256Y211433
X76256Y211433
X66256Y211433
X56256Y211433
X46256Y211433
X36256Y211433
X26256Y211433
X16256Y211433
X26256Y256433
X36256Y256433
X46256Y256433
X56256Y256433
X66256Y256433
X76256Y256433
X86256Y256433
X96256Y256433
X106256Y256433
X116256Y256433
X126256Y256433
X136256Y256433
X146256Y256433
X156256Y256433
X166256Y256433
X176256Y256433
X186256Y256433
X196256Y256433
X206256Y256433
X216256Y256433
X226256Y256433
X236256Y256433
X246256Y256433
X256256Y256433
X266256Y256433
X266256Y266433
X256256Y266433
X246256Y266433
X236256Y266433
X226256Y266433
X216256Y266433
X206256Y266433
X196256Y266433
X186256Y266433
X176256Y266433
X166256Y266433
X156256Y266433
X146256Y266433
X136256Y266433
X126256Y266433
X116256Y266433
X106256Y266433
X96256Y266433
X86256Y266433
X76256Y266433
X66256Y266433
X56256Y266433
X46256Y266433
X36256Y266433
X26256Y266433
T04
X263756Y108933
X263756Y98933
X263756Y88933
M30
