G75*
%MOIN*%
%OFA0B0*%
%FSLAX25Y25*%
%IPPOS*%
%LPD*%
%AMOC8*
5,1,8,0,0,1.08239X$1,22.5*
%
%ADD10C,0.00000*%
%ADD11C,0.01100*%
%ADD12C,0.05400*%
%ADD13OC8,0.05400*%
%ADD14R,0.04331X0.03937*%
%ADD15C,0.06000*%
%ADD16R,0.04252X0.04134*%
%ADD17R,0.04134X0.04252*%
D10*
X0001256Y0036433D02*
X0001256Y0287634D01*
X0278677Y0287634D01*
X0278677Y0036433D01*
X0001256Y0036433D01*
D11*
X0264284Y0187748D02*
X0265201Y0187748D01*
X0267036Y0187748D02*
X0270706Y0187748D01*
X0270706Y0188665D02*
X0270706Y0186830D01*
X0270706Y0184423D02*
X0267954Y0184423D01*
X0267036Y0183506D01*
X0267954Y0182588D01*
X0270706Y0182588D01*
X0270706Y0180753D02*
X0267036Y0180753D01*
X0267036Y0181671D01*
X0267954Y0182588D01*
X0267036Y0186830D02*
X0267036Y0187748D01*
X0267954Y0190882D02*
X0269788Y0190882D01*
X0270706Y0191799D01*
X0270706Y0194552D01*
X0270706Y0196959D02*
X0267036Y0196959D01*
X0267036Y0198794D02*
X0267036Y0199711D01*
X0267036Y0198794D02*
X0268871Y0196959D01*
X0267036Y0194552D02*
X0267036Y0191799D01*
X0267954Y0190882D01*
X0267954Y0202023D02*
X0269788Y0202023D01*
X0270706Y0202941D01*
X0270706Y0204776D01*
X0269788Y0205693D01*
X0267954Y0205693D01*
X0267036Y0204776D01*
X0267036Y0202941D01*
X0267954Y0202023D01*
X0267954Y0208101D02*
X0267036Y0209018D01*
X0267036Y0210853D01*
X0267954Y0211770D01*
X0270706Y0211770D01*
X0269788Y0214178D02*
X0268871Y0215095D01*
X0268871Y0217848D01*
X0267954Y0217848D02*
X0270706Y0217848D01*
X0270706Y0215095D01*
X0269788Y0214178D01*
X0267036Y0215095D02*
X0267036Y0216930D01*
X0267954Y0217848D01*
X0270706Y0220255D02*
X0270706Y0222090D01*
X0270706Y0221172D02*
X0265201Y0221172D01*
X0265201Y0220255D01*
X0269788Y0224306D02*
X0269788Y0225224D01*
X0270706Y0225224D01*
X0270706Y0224306D01*
X0269788Y0224306D01*
X0269788Y0227345D02*
X0267954Y0227345D01*
X0267036Y0228262D01*
X0267036Y0230097D01*
X0267954Y0231015D01*
X0269788Y0231015D01*
X0270706Y0230097D01*
X0270706Y0228262D01*
X0269788Y0227345D01*
X0268871Y0233422D02*
X0267036Y0235257D01*
X0267036Y0236175D01*
X0267954Y0238487D02*
X0269788Y0238487D01*
X0270706Y0239404D01*
X0270706Y0242156D01*
X0271623Y0242156D02*
X0267036Y0242156D01*
X0267036Y0239404D01*
X0267954Y0238487D01*
X0271623Y0242156D02*
X0272541Y0241239D01*
X0272541Y0240321D01*
X0270706Y0233422D02*
X0267036Y0233422D01*
X0265201Y0208101D02*
X0270706Y0208101D01*
X0270706Y0178632D02*
X0270706Y0177715D01*
X0269788Y0177715D01*
X0269788Y0178632D01*
X0270706Y0178632D01*
X0269788Y0175307D02*
X0267036Y0175307D01*
X0269788Y0175307D02*
X0270706Y0174390D01*
X0269788Y0173472D01*
X0270706Y0172555D01*
X0269788Y0171637D01*
X0267036Y0171637D01*
X0267036Y0169230D02*
X0269788Y0169230D01*
X0270706Y0168313D01*
X0269788Y0167395D01*
X0270706Y0166478D01*
X0269788Y0165560D01*
X0267036Y0165560D01*
X0267036Y0163153D02*
X0269788Y0163153D01*
X0270706Y0162235D01*
X0269788Y0161318D01*
X0270706Y0160401D01*
X0269788Y0159483D01*
X0267036Y0159483D01*
D12*
X0196256Y0131433D03*
X0226256Y0056433D03*
X0106256Y0131433D03*
X0026256Y0056433D03*
X0016256Y0131433D03*
X0016256Y0211433D03*
X0026256Y0256433D03*
X0106256Y0211433D03*
X0196256Y0211433D03*
X0226256Y0256433D03*
D13*
X0236256Y0256433D03*
X0246256Y0256433D03*
X0256256Y0256433D03*
X0266256Y0256433D03*
X0266256Y0266433D03*
X0256256Y0266433D03*
X0246256Y0266433D03*
X0236256Y0266433D03*
X0226256Y0266433D03*
X0216256Y0266433D03*
X0216256Y0256433D03*
X0206256Y0256433D03*
X0196256Y0256433D03*
X0186256Y0256433D03*
X0176256Y0256433D03*
X0166256Y0256433D03*
X0166256Y0266433D03*
X0176256Y0266433D03*
X0186256Y0266433D03*
X0196256Y0266433D03*
X0206256Y0266433D03*
X0156256Y0266433D03*
X0146256Y0266433D03*
X0136256Y0266433D03*
X0126256Y0266433D03*
X0116256Y0266433D03*
X0116256Y0256433D03*
X0126256Y0256433D03*
X0136256Y0256433D03*
X0146256Y0256433D03*
X0156256Y0256433D03*
X0156256Y0211433D03*
X0146256Y0211433D03*
X0136256Y0211433D03*
X0126256Y0211433D03*
X0116256Y0211433D03*
X0116256Y0201433D03*
X0126256Y0201433D03*
X0136256Y0201433D03*
X0146256Y0201433D03*
X0156256Y0201433D03*
X0166256Y0201433D03*
X0176256Y0201433D03*
X0186256Y0201433D03*
X0196256Y0201433D03*
X0206256Y0201433D03*
X0216256Y0201433D03*
X0226256Y0201433D03*
X0236256Y0201433D03*
X0246256Y0201433D03*
X0246256Y0211433D03*
X0236256Y0211433D03*
X0226256Y0211433D03*
X0216256Y0211433D03*
X0206256Y0211433D03*
X0186256Y0211433D03*
X0176256Y0211433D03*
X0166256Y0211433D03*
X0106256Y0201433D03*
X0096256Y0201433D03*
X0086256Y0201433D03*
X0076256Y0201433D03*
X0066256Y0201433D03*
X0066256Y0211433D03*
X0076256Y0211433D03*
X0086256Y0211433D03*
X0096256Y0211433D03*
X0056256Y0211433D03*
X0046256Y0211433D03*
X0036256Y0211433D03*
X0026256Y0211433D03*
X0026256Y0201433D03*
X0036256Y0201433D03*
X0046256Y0201433D03*
X0056256Y0201433D03*
X0016256Y0201433D03*
X0036256Y0256433D03*
X0046256Y0256433D03*
X0056256Y0256433D03*
X0066256Y0256433D03*
X0076256Y0256433D03*
X0086256Y0256433D03*
X0096256Y0256433D03*
X0106256Y0256433D03*
X0106256Y0266433D03*
X0096256Y0266433D03*
X0086256Y0266433D03*
X0076256Y0266433D03*
X0066256Y0266433D03*
X0056256Y0266433D03*
X0046256Y0266433D03*
X0036256Y0266433D03*
X0026256Y0266433D03*
X0026256Y0131433D03*
X0036256Y0131433D03*
X0046256Y0131433D03*
X0056256Y0131433D03*
X0056256Y0121433D03*
X0046256Y0121433D03*
X0036256Y0121433D03*
X0026256Y0121433D03*
X0016256Y0121433D03*
X0066256Y0121433D03*
X0076256Y0121433D03*
X0086256Y0121433D03*
X0096256Y0121433D03*
X0106256Y0121433D03*
X0096256Y0131433D03*
X0086256Y0131433D03*
X0076256Y0131433D03*
X0066256Y0131433D03*
X0116256Y0131433D03*
X0126256Y0131433D03*
X0136256Y0131433D03*
X0146256Y0131433D03*
X0156256Y0131433D03*
X0156256Y0121433D03*
X0146256Y0121433D03*
X0136256Y0121433D03*
X0126256Y0121433D03*
X0116256Y0121433D03*
X0166256Y0121433D03*
X0176256Y0121433D03*
X0186256Y0121433D03*
X0196256Y0121433D03*
X0206256Y0121433D03*
X0206256Y0131433D03*
X0216256Y0131433D03*
X0226256Y0131433D03*
X0236256Y0131433D03*
X0246256Y0131433D03*
X0246256Y0121433D03*
X0236256Y0121433D03*
X0226256Y0121433D03*
X0216256Y0121433D03*
X0186256Y0131433D03*
X0176256Y0131433D03*
X0166256Y0131433D03*
X0166256Y0066433D03*
X0176256Y0066433D03*
X0186256Y0066433D03*
X0196256Y0066433D03*
X0206256Y0066433D03*
X0206256Y0056433D03*
X0196256Y0056433D03*
X0186256Y0056433D03*
X0176256Y0056433D03*
X0166256Y0056433D03*
X0156256Y0056433D03*
X0156256Y0066433D03*
X0146256Y0066433D03*
X0146256Y0056433D03*
X0136256Y0056433D03*
X0136256Y0066433D03*
X0126256Y0066433D03*
X0126256Y0056433D03*
X0116256Y0056433D03*
X0116256Y0066433D03*
X0106256Y0066433D03*
X0106256Y0056433D03*
X0096256Y0056433D03*
X0096256Y0066433D03*
X0086256Y0066433D03*
X0086256Y0056433D03*
X0076256Y0056433D03*
X0076256Y0066433D03*
X0066256Y0066433D03*
X0066256Y0056433D03*
X0056256Y0056433D03*
X0056256Y0066433D03*
X0046256Y0066433D03*
X0046256Y0056433D03*
X0036256Y0056433D03*
X0036256Y0066433D03*
X0026256Y0066433D03*
X0216256Y0066433D03*
X0226256Y0066433D03*
X0236256Y0066433D03*
X0246256Y0066433D03*
X0256256Y0066433D03*
X0256256Y0056433D03*
X0246256Y0056433D03*
X0236256Y0056433D03*
X0216256Y0056433D03*
X0266256Y0056433D03*
X0266256Y0066433D03*
D14*
X0251256Y0078087D03*
X0251256Y0084780D03*
X0241256Y0084780D03*
X0241256Y0078087D03*
X0231256Y0078087D03*
X0231256Y0084780D03*
X0221256Y0084780D03*
X0221256Y0078087D03*
X0211256Y0078087D03*
X0211256Y0084780D03*
X0100256Y0084780D03*
X0100256Y0078087D03*
X0092256Y0078087D03*
X0092256Y0084780D03*
X0084256Y0084780D03*
X0084256Y0078087D03*
X0076256Y0078087D03*
X0076256Y0084780D03*
X0066256Y0085587D03*
X0066256Y0092280D03*
X0056256Y0092280D03*
X0056256Y0085587D03*
X0046256Y0085587D03*
X0046256Y0092280D03*
X0036256Y0084780D03*
X0036256Y0078087D03*
X0026256Y0078087D03*
X0026256Y0084780D03*
X0166256Y0223087D03*
X0166256Y0229780D03*
X0151256Y0238087D03*
X0151256Y0244780D03*
X0143756Y0244780D03*
X0143756Y0238087D03*
X0136256Y0238087D03*
X0136256Y0244780D03*
X0126256Y0244780D03*
X0126256Y0238087D03*
X0196256Y0227280D03*
X0196256Y0220587D03*
X0206256Y0220587D03*
X0206256Y0227280D03*
D15*
X0260756Y0108933D02*
X0266756Y0108933D01*
X0266756Y0098933D02*
X0260756Y0098933D01*
X0260756Y0088933D02*
X0266756Y0088933D01*
D16*
X0193756Y0102988D03*
X0186256Y0102988D03*
X0186256Y0109878D03*
X0193756Y0109878D03*
X0202256Y0181988D03*
X0202256Y0188878D03*
X0116256Y0109378D03*
X0109756Y0109378D03*
X0109756Y0102488D03*
X0116256Y0102488D03*
X0018756Y0102988D03*
X0011256Y0102988D03*
X0011256Y0109878D03*
X0018756Y0109878D03*
X0046256Y0237988D03*
X0046256Y0244878D03*
D17*
X0035701Y0244933D03*
X0028811Y0244933D03*
X0109311Y0189933D03*
X0116201Y0189933D03*
X0113311Y0221933D03*
X0120201Y0221933D03*
X0178811Y0189433D03*
X0185701Y0189433D03*
M02*
