G75*
%MOIN*%
%OFA0B0*%
%FSLAX25Y25*%
%IPPOS*%
%LPD*%
%AMOC8*
5,1,8,0,0,1.08239X$1,22.5*
%
%ADD10C,0.00000*%
%ADD11R,0.04331X0.03937*%
%ADD12R,0.04252X0.04134*%
%ADD13R,0.04134X0.04252*%
D10*
X0001256Y0036433D02*
X0001256Y0287634D01*
X0278677Y0287634D01*
X0278677Y0036433D01*
X0001256Y0036433D01*
D11*
X0026256Y0078087D03*
X0026256Y0084780D03*
X0036256Y0084780D03*
X0036256Y0078087D03*
X0046256Y0085587D03*
X0046256Y0092280D03*
X0056256Y0092280D03*
X0056256Y0085587D03*
X0066256Y0085587D03*
X0066256Y0092280D03*
X0076256Y0084780D03*
X0076256Y0078087D03*
X0084256Y0078087D03*
X0084256Y0084780D03*
X0092256Y0084780D03*
X0092256Y0078087D03*
X0100256Y0078087D03*
X0100256Y0084780D03*
X0211256Y0084780D03*
X0211256Y0078087D03*
X0221256Y0078087D03*
X0221256Y0084780D03*
X0231256Y0084780D03*
X0231256Y0078087D03*
X0241256Y0078087D03*
X0241256Y0084780D03*
X0251256Y0084780D03*
X0251256Y0078087D03*
X0206256Y0220587D03*
X0206256Y0227280D03*
X0196256Y0227280D03*
X0196256Y0220587D03*
X0166256Y0223087D03*
X0166256Y0229780D03*
X0151256Y0238087D03*
X0151256Y0244780D03*
X0143756Y0244780D03*
X0143756Y0238087D03*
X0136256Y0238087D03*
X0136256Y0244780D03*
X0126256Y0244780D03*
X0126256Y0238087D03*
D12*
X0202256Y0188878D03*
X0202256Y0181988D03*
X0193756Y0109878D03*
X0186256Y0109878D03*
X0186256Y0102988D03*
X0193756Y0102988D03*
X0116256Y0102488D03*
X0109756Y0102488D03*
X0109756Y0109378D03*
X0116256Y0109378D03*
X0018756Y0109878D03*
X0011256Y0109878D03*
X0011256Y0102988D03*
X0018756Y0102988D03*
X0046256Y0237988D03*
X0046256Y0244878D03*
D13*
X0035701Y0244933D03*
X0028811Y0244933D03*
X0109311Y0189933D03*
X0116201Y0189933D03*
X0113311Y0221933D03*
X0120201Y0221933D03*
X0178811Y0189433D03*
X0185701Y0189433D03*
M02*
