G75*
%MOIN*%
%OFA0B0*%
%FSLAX25Y25*%
%IPPOS*%
%LPD*%
%AMOC8*
5,1,8,0,0,1.08239X$1,22.5*
%
%ADD10C,0.05200*%
%ADD11C,0.05600*%
%ADD12OC8,0.05600*%
%ADD13C,0.06000*%
%ADD14C,0.02400*%
%ADD15C,0.03175*%
%ADD16C,0.01600*%
D10*
X0017200Y0014600D02*
X0017200Y0019800D01*
X0027200Y0019800D02*
X0027200Y0014600D01*
X0037200Y0014600D02*
X0037200Y0019800D01*
X0047200Y0019800D02*
X0047200Y0014600D01*
X0057200Y0014600D02*
X0057200Y0019800D01*
X0067200Y0019800D02*
X0067200Y0014600D01*
X0077200Y0014600D02*
X0077200Y0019800D01*
X0087200Y0019800D02*
X0087200Y0014600D01*
X0097200Y0014600D02*
X0097200Y0019800D01*
X0107200Y0019800D02*
X0107200Y0014600D01*
X0117200Y0014600D02*
X0117200Y0019800D01*
X0127200Y0019800D02*
X0127200Y0014600D01*
X0137200Y0014600D02*
X0137200Y0019800D01*
X0147200Y0019800D02*
X0147200Y0014600D01*
X0157200Y0014600D02*
X0157200Y0019800D01*
X0167200Y0019800D02*
X0167200Y0014600D01*
X0177200Y0014600D02*
X0177200Y0019800D01*
X0187200Y0019800D02*
X0187200Y0014600D01*
X0197200Y0014600D02*
X0197200Y0019800D01*
X0207200Y0019800D02*
X0207200Y0014600D01*
X0217200Y0014600D02*
X0217200Y0019800D01*
X0227200Y0019800D02*
X0227200Y0014600D01*
X0237200Y0014600D02*
X0237200Y0019800D01*
X0247200Y0019800D02*
X0247200Y0014600D01*
X0257200Y0014600D02*
X0257200Y0019800D01*
X0267200Y0019800D02*
X0267200Y0014600D01*
X0277200Y0014600D02*
X0277200Y0019800D01*
X0287200Y0019800D02*
X0287200Y0014600D01*
X0297200Y0014600D02*
X0297200Y0019800D01*
X0307200Y0019800D02*
X0307200Y0014600D01*
X0317200Y0014600D02*
X0317200Y0019800D01*
X0327200Y0019800D02*
X0327200Y0014600D01*
X0337200Y0014600D02*
X0337200Y0019800D01*
X0337200Y0164600D02*
X0337200Y0169800D01*
X0327200Y0169800D02*
X0327200Y0164600D01*
X0317200Y0164600D02*
X0317200Y0169800D01*
X0307200Y0169800D02*
X0307200Y0164600D01*
X0297200Y0164600D02*
X0297200Y0169800D01*
X0287200Y0169800D02*
X0287200Y0164600D01*
X0277200Y0164600D02*
X0277200Y0169800D01*
X0267200Y0169800D02*
X0267200Y0164600D01*
X0257200Y0164600D02*
X0257200Y0169800D01*
X0247200Y0169800D02*
X0247200Y0164600D01*
X0237200Y0164600D02*
X0237200Y0169800D01*
X0227200Y0169800D02*
X0227200Y0164600D01*
X0217200Y0164600D02*
X0217200Y0169800D01*
X0207200Y0169800D02*
X0207200Y0164600D01*
X0197200Y0164600D02*
X0197200Y0169800D01*
X0187200Y0169800D02*
X0187200Y0164600D01*
X0177200Y0164600D02*
X0177200Y0169800D01*
X0167200Y0169800D02*
X0167200Y0164600D01*
X0157200Y0164600D02*
X0157200Y0169800D01*
X0147200Y0169800D02*
X0147200Y0164600D01*
X0137200Y0164600D02*
X0137200Y0169800D01*
X0127200Y0169800D02*
X0127200Y0164600D01*
X0117200Y0164600D02*
X0117200Y0169800D01*
X0107200Y0169800D02*
X0107200Y0164600D01*
X0097200Y0164600D02*
X0097200Y0169800D01*
X0087200Y0169800D02*
X0087200Y0164600D01*
X0077200Y0164600D02*
X0077200Y0169800D01*
X0067200Y0169800D02*
X0067200Y0164600D01*
X0057200Y0164600D02*
X0057200Y0169800D01*
X0047200Y0169800D02*
X0047200Y0164600D01*
X0037200Y0164600D02*
X0037200Y0169800D01*
X0027200Y0169800D02*
X0027200Y0164600D01*
X0017200Y0164600D02*
X0017200Y0169800D01*
D11*
X0067200Y0112200D03*
X0157200Y0112200D03*
X0247200Y0112200D03*
D12*
X0237200Y0112200D03*
X0227200Y0112200D03*
X0217200Y0112200D03*
X0207200Y0112200D03*
X0197200Y0112200D03*
X0187200Y0112200D03*
X0177200Y0112200D03*
X0167200Y0112200D03*
X0167200Y0102200D03*
X0157200Y0102200D03*
X0147200Y0102200D03*
X0137200Y0102200D03*
X0127200Y0102200D03*
X0117200Y0102200D03*
X0107200Y0102200D03*
X0097200Y0102200D03*
X0087200Y0102200D03*
X0077200Y0102200D03*
X0067200Y0102200D03*
X0077200Y0112200D03*
X0087200Y0112200D03*
X0097200Y0112200D03*
X0107200Y0112200D03*
X0117200Y0112200D03*
X0127200Y0112200D03*
X0137200Y0112200D03*
X0147200Y0112200D03*
X0177200Y0102200D03*
X0187200Y0102200D03*
X0197200Y0102200D03*
X0207200Y0102200D03*
X0217200Y0102200D03*
X0227200Y0102200D03*
X0237200Y0102200D03*
X0247200Y0102200D03*
X0257200Y0102200D03*
X0267200Y0102200D03*
X0277200Y0102200D03*
X0287200Y0102200D03*
X0297200Y0102200D03*
X0297200Y0112200D03*
X0287200Y0112200D03*
X0277200Y0112200D03*
X0267200Y0112200D03*
X0257200Y0112200D03*
D13*
X0247200Y0149700D02*
X0247200Y0155700D01*
X0237200Y0155700D02*
X0237200Y0149700D01*
X0227200Y0149700D02*
X0227200Y0155700D01*
X0167200Y0155200D02*
X0167200Y0149200D01*
X0157200Y0149200D02*
X0157200Y0155200D01*
X0147200Y0155200D02*
X0147200Y0149200D01*
X0087200Y0149200D02*
X0087200Y0155200D01*
X0077200Y0155200D02*
X0077200Y0149200D01*
X0067200Y0149200D02*
X0067200Y0155200D01*
X0048000Y0153600D02*
X0042000Y0153600D01*
X0022400Y0153600D02*
X0016400Y0153600D01*
X0016400Y0135800D02*
X0022400Y0135800D01*
X0042000Y0135800D02*
X0048000Y0135800D01*
X0048000Y0118600D02*
X0042000Y0118600D01*
X0022400Y0118600D02*
X0016400Y0118600D01*
X0016400Y0100800D02*
X0022400Y0100800D01*
X0042000Y0100800D02*
X0048000Y0100800D01*
X0048000Y0083600D02*
X0042000Y0083600D01*
X0022400Y0083600D02*
X0016400Y0083600D01*
X0016400Y0065800D02*
X0022400Y0065800D01*
X0042000Y0065800D02*
X0048000Y0065800D01*
X0048000Y0048600D02*
X0042000Y0048600D01*
X0022400Y0048600D02*
X0016400Y0048600D01*
X0016400Y0030800D02*
X0022400Y0030800D01*
X0042000Y0030800D02*
X0048000Y0030800D01*
X0277200Y0029200D02*
X0277200Y0035200D01*
X0287200Y0035200D02*
X0287200Y0029200D01*
X0297200Y0029200D02*
X0297200Y0035200D01*
X0307200Y0035200D02*
X0307200Y0029200D01*
X0317200Y0029200D02*
X0317200Y0035200D01*
D14*
X0005400Y0005400D02*
X0005400Y0182200D01*
X0348921Y0182200D01*
X0348921Y0005400D01*
X0005400Y0005400D01*
X0005400Y0006997D02*
X0348921Y0006997D01*
X0348921Y0009396D02*
X0328746Y0009396D01*
X0328274Y0009200D02*
X0330259Y0010022D01*
X0331778Y0011541D01*
X0332545Y0013393D01*
X0332752Y0012757D01*
X0333095Y0012084D01*
X0333539Y0011473D01*
X0334073Y0010939D01*
X0334684Y0010495D01*
X0335357Y0010152D01*
X0336076Y0009918D01*
X0336822Y0009800D01*
X0337200Y0009800D01*
X0337578Y0009800D01*
X0338324Y0009918D01*
X0339043Y0010152D01*
X0339716Y0010495D01*
X0340327Y0010939D01*
X0340861Y0011473D01*
X0341305Y0012084D01*
X0341648Y0012757D01*
X0341882Y0013476D01*
X0342000Y0014222D01*
X0342000Y0017200D01*
X0342000Y0020178D01*
X0341882Y0020924D01*
X0341648Y0021643D01*
X0341305Y0022316D01*
X0340861Y0022927D01*
X0340327Y0023461D01*
X0339716Y0023905D01*
X0339043Y0024248D01*
X0338324Y0024482D01*
X0337578Y0024600D01*
X0337200Y0024600D01*
X0337200Y0017200D01*
X0337200Y0017200D01*
X0342000Y0017200D01*
X0337200Y0017200D01*
X0337200Y0017200D01*
X0337200Y0024600D01*
X0336822Y0024600D01*
X0336076Y0024482D01*
X0335357Y0024248D01*
X0334684Y0023905D01*
X0334073Y0023461D01*
X0333539Y0022927D01*
X0333095Y0022316D01*
X0332752Y0021643D01*
X0332545Y0021007D01*
X0331778Y0022859D01*
X0330259Y0024378D01*
X0328274Y0025200D01*
X0326126Y0025200D01*
X0324141Y0024378D01*
X0322622Y0022859D01*
X0322200Y0021840D01*
X0321778Y0022859D01*
X0320392Y0024244D01*
X0320485Y0024283D01*
X0322117Y0025915D01*
X0323000Y0028046D01*
X0323000Y0036354D01*
X0322117Y0038485D01*
X0320485Y0040117D01*
X0318354Y0041000D01*
X0316046Y0041000D01*
X0313915Y0040117D01*
X0312283Y0038485D01*
X0312200Y0038285D01*
X0312117Y0038485D01*
X0310485Y0040117D01*
X0308354Y0041000D01*
X0306046Y0041000D01*
X0303915Y0040117D01*
X0302283Y0038485D01*
X0302200Y0038285D01*
X0302117Y0038485D01*
X0300485Y0040117D01*
X0298354Y0041000D01*
X0296046Y0041000D01*
X0293915Y0040117D01*
X0292283Y0038485D01*
X0292200Y0038285D01*
X0292117Y0038485D01*
X0290485Y0040117D01*
X0288354Y0041000D01*
X0286046Y0041000D01*
X0283915Y0040117D01*
X0282283Y0038485D01*
X0282200Y0038285D01*
X0282117Y0038485D01*
X0280485Y0040117D01*
X0278354Y0041000D01*
X0276046Y0041000D01*
X0273915Y0040117D01*
X0272283Y0038485D01*
X0271400Y0036354D01*
X0271400Y0028046D01*
X0272283Y0025915D01*
X0273915Y0024283D01*
X0274008Y0024244D01*
X0272622Y0022859D01*
X0272200Y0021840D01*
X0271778Y0022859D01*
X0270259Y0024378D01*
X0268274Y0025200D01*
X0266126Y0025200D01*
X0264141Y0024378D01*
X0262622Y0022859D01*
X0262200Y0021840D01*
X0261778Y0022859D01*
X0260259Y0024378D01*
X0258274Y0025200D01*
X0256126Y0025200D01*
X0254141Y0024378D01*
X0252622Y0022859D01*
X0252200Y0021840D01*
X0251778Y0022859D01*
X0250259Y0024378D01*
X0248274Y0025200D01*
X0246126Y0025200D01*
X0244141Y0024378D01*
X0242622Y0022859D01*
X0242200Y0021840D01*
X0241778Y0022859D01*
X0240259Y0024378D01*
X0238274Y0025200D01*
X0236126Y0025200D01*
X0234141Y0024378D01*
X0232622Y0022859D01*
X0232200Y0021840D01*
X0231778Y0022859D01*
X0230259Y0024378D01*
X0228274Y0025200D01*
X0226126Y0025200D01*
X0224141Y0024378D01*
X0222622Y0022859D01*
X0222200Y0021840D01*
X0221778Y0022859D01*
X0220259Y0024378D01*
X0218274Y0025200D01*
X0216126Y0025200D01*
X0214141Y0024378D01*
X0212622Y0022859D01*
X0212200Y0021840D01*
X0211778Y0022859D01*
X0210259Y0024378D01*
X0208274Y0025200D01*
X0206126Y0025200D01*
X0204141Y0024378D01*
X0202622Y0022859D01*
X0202200Y0021840D01*
X0201778Y0022859D01*
X0200259Y0024378D01*
X0198274Y0025200D01*
X0196126Y0025200D01*
X0194141Y0024378D01*
X0192622Y0022859D01*
X0192200Y0021840D01*
X0191778Y0022859D01*
X0190259Y0024378D01*
X0188274Y0025200D01*
X0186126Y0025200D01*
X0184141Y0024378D01*
X0182622Y0022859D01*
X0182200Y0021840D01*
X0181778Y0022859D01*
X0180259Y0024378D01*
X0178274Y0025200D01*
X0176126Y0025200D01*
X0174141Y0024378D01*
X0172622Y0022859D01*
X0172200Y0021840D01*
X0171778Y0022859D01*
X0170259Y0024378D01*
X0168274Y0025200D01*
X0166126Y0025200D01*
X0164141Y0024378D01*
X0162622Y0022859D01*
X0162200Y0021840D01*
X0161778Y0022859D01*
X0160259Y0024378D01*
X0158274Y0025200D01*
X0156126Y0025200D01*
X0154141Y0024378D01*
X0152622Y0022859D01*
X0152200Y0021840D01*
X0151778Y0022859D01*
X0150259Y0024378D01*
X0148274Y0025200D01*
X0146126Y0025200D01*
X0144141Y0024378D01*
X0142622Y0022859D01*
X0142200Y0021840D01*
X0141778Y0022859D01*
X0140259Y0024378D01*
X0138274Y0025200D01*
X0136126Y0025200D01*
X0134141Y0024378D01*
X0132622Y0022859D01*
X0132200Y0021840D01*
X0131778Y0022859D01*
X0130259Y0024378D01*
X0128274Y0025200D01*
X0126126Y0025200D01*
X0124141Y0024378D01*
X0122622Y0022859D01*
X0122200Y0021840D01*
X0121778Y0022859D01*
X0120259Y0024378D01*
X0118274Y0025200D01*
X0116126Y0025200D01*
X0114141Y0024378D01*
X0112622Y0022859D01*
X0112200Y0021840D01*
X0111778Y0022859D01*
X0110259Y0024378D01*
X0108274Y0025200D01*
X0106126Y0025200D01*
X0104141Y0024378D01*
X0102622Y0022859D01*
X0101855Y0021007D01*
X0101648Y0021643D01*
X0101305Y0022316D01*
X0100861Y0022927D01*
X0100327Y0023461D01*
X0099716Y0023905D01*
X0099043Y0024248D01*
X0098324Y0024482D01*
X0097578Y0024600D01*
X0097200Y0024600D01*
X0097200Y0017200D01*
X0097200Y0017200D01*
X0097200Y0024600D01*
X0096822Y0024600D01*
X0096076Y0024482D01*
X0095357Y0024248D01*
X0094684Y0023905D01*
X0094073Y0023461D01*
X0093539Y0022927D01*
X0093095Y0022316D01*
X0092752Y0021643D01*
X0092545Y0021007D01*
X0091778Y0022859D01*
X0090259Y0024378D01*
X0088274Y0025200D01*
X0086126Y0025200D01*
X0084141Y0024378D01*
X0082622Y0022859D01*
X0082200Y0021840D01*
X0081778Y0022859D01*
X0080259Y0024378D01*
X0078274Y0025200D01*
X0076126Y0025200D01*
X0074141Y0024378D01*
X0072622Y0022859D01*
X0072200Y0021840D01*
X0071778Y0022859D01*
X0070259Y0024378D01*
X0068274Y0025200D01*
X0066126Y0025200D01*
X0064141Y0024378D01*
X0062622Y0022859D01*
X0062200Y0021840D01*
X0061778Y0022859D01*
X0060259Y0024378D01*
X0058274Y0025200D01*
X0056126Y0025200D01*
X0054141Y0024378D01*
X0052622Y0022859D01*
X0052200Y0021840D01*
X0051778Y0022859D01*
X0050259Y0024378D01*
X0048757Y0025000D01*
X0049154Y0025000D01*
X0051285Y0025883D01*
X0052917Y0027515D01*
X0053800Y0029646D01*
X0053800Y0031954D01*
X0052917Y0034085D01*
X0051285Y0035717D01*
X0049154Y0036600D01*
X0040846Y0036600D01*
X0038715Y0035717D01*
X0037798Y0034800D01*
X0026602Y0034800D01*
X0025685Y0035717D01*
X0023554Y0036600D01*
X0015246Y0036600D01*
X0013115Y0035717D01*
X0011483Y0034085D01*
X0010600Y0031954D01*
X0010600Y0029646D01*
X0011483Y0027515D01*
X0013115Y0025883D01*
X0015246Y0025000D01*
X0015643Y0025000D01*
X0014141Y0024378D01*
X0012622Y0022859D01*
X0011800Y0020874D01*
X0011800Y0013526D01*
X0012622Y0011541D01*
X0014141Y0010022D01*
X0016126Y0009200D01*
X0018274Y0009200D01*
X0020259Y0010022D01*
X0021778Y0011541D01*
X0022545Y0013393D01*
X0022752Y0012757D01*
X0023095Y0012084D01*
X0023539Y0011473D01*
X0024073Y0010939D01*
X0024684Y0010495D01*
X0025357Y0010152D01*
X0026076Y0009918D01*
X0026822Y0009800D01*
X0027200Y0009800D01*
X0027578Y0009800D01*
X0028324Y0009918D01*
X0029043Y0010152D01*
X0029716Y0010495D01*
X0030327Y0010939D01*
X0030861Y0011473D01*
X0031305Y0012084D01*
X0031648Y0012757D01*
X0031855Y0013393D01*
X0032622Y0011541D01*
X0034141Y0010022D01*
X0036126Y0009200D01*
X0038274Y0009200D01*
X0040259Y0010022D01*
X0041778Y0011541D01*
X0042200Y0012560D01*
X0042622Y0011541D01*
X0044141Y0010022D01*
X0046126Y0009200D01*
X0048274Y0009200D01*
X0050259Y0010022D01*
X0051778Y0011541D01*
X0052200Y0012560D01*
X0052622Y0011541D01*
X0054141Y0010022D01*
X0056126Y0009200D01*
X0058274Y0009200D01*
X0060259Y0010022D01*
X0061778Y0011541D01*
X0062200Y0012560D01*
X0062622Y0011541D01*
X0064141Y0010022D01*
X0066126Y0009200D01*
X0068274Y0009200D01*
X0070259Y0010022D01*
X0071778Y0011541D01*
X0072200Y0012560D01*
X0072622Y0011541D01*
X0074141Y0010022D01*
X0076126Y0009200D01*
X0078274Y0009200D01*
X0080259Y0010022D01*
X0081778Y0011541D01*
X0082200Y0012560D01*
X0082622Y0011541D01*
X0084141Y0010022D01*
X0086126Y0009200D01*
X0088274Y0009200D01*
X0090259Y0010022D01*
X0091778Y0011541D01*
X0092545Y0013393D01*
X0092752Y0012757D01*
X0093095Y0012084D01*
X0093539Y0011473D01*
X0094073Y0010939D01*
X0094684Y0010495D01*
X0095357Y0010152D01*
X0096076Y0009918D01*
X0096822Y0009800D01*
X0097200Y0009800D01*
X0097578Y0009800D01*
X0098324Y0009918D01*
X0099043Y0010152D01*
X0099716Y0010495D01*
X0100327Y0010939D01*
X0100861Y0011473D01*
X0101305Y0012084D01*
X0101648Y0012757D01*
X0101855Y0013393D01*
X0102622Y0011541D01*
X0104141Y0010022D01*
X0106126Y0009200D01*
X0108274Y0009200D01*
X0110259Y0010022D01*
X0111778Y0011541D01*
X0112200Y0012560D01*
X0112622Y0011541D01*
X0114141Y0010022D01*
X0116126Y0009200D01*
X0118274Y0009200D01*
X0120259Y0010022D01*
X0121778Y0011541D01*
X0122200Y0012560D01*
X0122622Y0011541D01*
X0124141Y0010022D01*
X0126126Y0009200D01*
X0128274Y0009200D01*
X0130259Y0010022D01*
X0131778Y0011541D01*
X0132200Y0012560D01*
X0132622Y0011541D01*
X0134141Y0010022D01*
X0136126Y0009200D01*
X0138274Y0009200D01*
X0140259Y0010022D01*
X0141778Y0011541D01*
X0142200Y0012560D01*
X0142622Y0011541D01*
X0144141Y0010022D01*
X0146126Y0009200D01*
X0148274Y0009200D01*
X0150259Y0010022D01*
X0151778Y0011541D01*
X0152200Y0012560D01*
X0152622Y0011541D01*
X0154141Y0010022D01*
X0156126Y0009200D01*
X0158274Y0009200D01*
X0160259Y0010022D01*
X0161778Y0011541D01*
X0162200Y0012560D01*
X0162622Y0011541D01*
X0164141Y0010022D01*
X0166126Y0009200D01*
X0168274Y0009200D01*
X0170259Y0010022D01*
X0171778Y0011541D01*
X0172200Y0012560D01*
X0172622Y0011541D01*
X0174141Y0010022D01*
X0176126Y0009200D01*
X0178274Y0009200D01*
X0180259Y0010022D01*
X0181778Y0011541D01*
X0182200Y0012560D01*
X0182622Y0011541D01*
X0184141Y0010022D01*
X0186126Y0009200D01*
X0188274Y0009200D01*
X0190259Y0010022D01*
X0191778Y0011541D01*
X0192200Y0012560D01*
X0192622Y0011541D01*
X0194141Y0010022D01*
X0196126Y0009200D01*
X0198274Y0009200D01*
X0200259Y0010022D01*
X0201778Y0011541D01*
X0202200Y0012560D01*
X0202622Y0011541D01*
X0204141Y0010022D01*
X0206126Y0009200D01*
X0208274Y0009200D01*
X0210259Y0010022D01*
X0211778Y0011541D01*
X0212200Y0012560D01*
X0212622Y0011541D01*
X0214141Y0010022D01*
X0216126Y0009200D01*
X0218274Y0009200D01*
X0220259Y0010022D01*
X0221778Y0011541D01*
X0222200Y0012560D01*
X0222622Y0011541D01*
X0224141Y0010022D01*
X0226126Y0009200D01*
X0228274Y0009200D01*
X0230259Y0010022D01*
X0231778Y0011541D01*
X0232200Y0012560D01*
X0232622Y0011541D01*
X0234141Y0010022D01*
X0236126Y0009200D01*
X0238274Y0009200D01*
X0240259Y0010022D01*
X0241778Y0011541D01*
X0242200Y0012560D01*
X0242622Y0011541D01*
X0244141Y0010022D01*
X0246126Y0009200D01*
X0248274Y0009200D01*
X0250259Y0010022D01*
X0251778Y0011541D01*
X0252200Y0012560D01*
X0252622Y0011541D01*
X0254141Y0010022D01*
X0256126Y0009200D01*
X0258274Y0009200D01*
X0260259Y0010022D01*
X0261778Y0011541D01*
X0262200Y0012560D01*
X0262622Y0011541D01*
X0264141Y0010022D01*
X0266126Y0009200D01*
X0268274Y0009200D01*
X0270259Y0010022D01*
X0271778Y0011541D01*
X0272200Y0012560D01*
X0272622Y0011541D01*
X0274141Y0010022D01*
X0276126Y0009200D01*
X0278274Y0009200D01*
X0280259Y0010022D01*
X0281778Y0011541D01*
X0282200Y0012560D01*
X0282622Y0011541D01*
X0284141Y0010022D01*
X0286126Y0009200D01*
X0288274Y0009200D01*
X0290259Y0010022D01*
X0291778Y0011541D01*
X0292200Y0012560D01*
X0292622Y0011541D01*
X0294141Y0010022D01*
X0296126Y0009200D01*
X0298274Y0009200D01*
X0300259Y0010022D01*
X0301778Y0011541D01*
X0302200Y0012560D01*
X0302622Y0011541D01*
X0304141Y0010022D01*
X0306126Y0009200D01*
X0308274Y0009200D01*
X0310259Y0010022D01*
X0311778Y0011541D01*
X0312200Y0012560D01*
X0312622Y0011541D01*
X0314141Y0010022D01*
X0316126Y0009200D01*
X0318274Y0009200D01*
X0320259Y0010022D01*
X0321778Y0011541D01*
X0322200Y0012560D01*
X0322622Y0011541D01*
X0324141Y0010022D01*
X0326126Y0009200D01*
X0328274Y0009200D01*
X0325654Y0009396D02*
X0318746Y0009396D01*
X0315654Y0009396D02*
X0308746Y0009396D01*
X0305654Y0009396D02*
X0298746Y0009396D01*
X0295654Y0009396D02*
X0288746Y0009396D01*
X0285654Y0009396D02*
X0278746Y0009396D01*
X0275654Y0009396D02*
X0268746Y0009396D01*
X0265654Y0009396D02*
X0258746Y0009396D01*
X0255654Y0009396D02*
X0248746Y0009396D01*
X0245654Y0009396D02*
X0238746Y0009396D01*
X0235654Y0009396D02*
X0228746Y0009396D01*
X0225654Y0009396D02*
X0218746Y0009396D01*
X0215654Y0009396D02*
X0208746Y0009396D01*
X0205654Y0009396D02*
X0198746Y0009396D01*
X0195654Y0009396D02*
X0188746Y0009396D01*
X0185654Y0009396D02*
X0178746Y0009396D01*
X0175654Y0009396D02*
X0168746Y0009396D01*
X0165654Y0009396D02*
X0158746Y0009396D01*
X0155654Y0009396D02*
X0148746Y0009396D01*
X0145654Y0009396D02*
X0138746Y0009396D01*
X0135654Y0009396D02*
X0128746Y0009396D01*
X0125654Y0009396D02*
X0118746Y0009396D01*
X0115654Y0009396D02*
X0108746Y0009396D01*
X0105654Y0009396D02*
X0088746Y0009396D01*
X0085654Y0009396D02*
X0078746Y0009396D01*
X0075654Y0009396D02*
X0068746Y0009396D01*
X0065654Y0009396D02*
X0058746Y0009396D01*
X0055654Y0009396D02*
X0048746Y0009396D01*
X0045654Y0009396D02*
X0038746Y0009396D01*
X0035654Y0009396D02*
X0018746Y0009396D01*
X0015654Y0009396D02*
X0005400Y0009396D01*
X0005400Y0011794D02*
X0012517Y0011794D01*
X0011800Y0014193D02*
X0005400Y0014193D01*
X0005400Y0016591D02*
X0011800Y0016591D01*
X0011800Y0018990D02*
X0005400Y0018990D01*
X0005400Y0021388D02*
X0012013Y0021388D01*
X0013550Y0023787D02*
X0005400Y0023787D01*
X0005400Y0026185D02*
X0012812Y0026185D01*
X0011040Y0028584D02*
X0005400Y0028584D01*
X0005400Y0030982D02*
X0010600Y0030982D01*
X0011191Y0033381D02*
X0005400Y0033381D01*
X0005400Y0035779D02*
X0013265Y0035779D01*
X0005400Y0038178D02*
X0107856Y0038178D01*
X0107813Y0038073D02*
X0107813Y0036327D01*
X0108481Y0034715D01*
X0108495Y0034700D01*
X0108481Y0034685D01*
X0107813Y0033073D01*
X0107813Y0031327D01*
X0108481Y0029715D01*
X0109715Y0028481D01*
X0111327Y0027813D01*
X0113073Y0027813D01*
X0114008Y0028200D01*
X0150392Y0028200D01*
X0151327Y0027813D01*
X0153073Y0027813D01*
X0154685Y0028481D01*
X0155919Y0029715D01*
X0156587Y0031327D01*
X0156587Y0033073D01*
X0155919Y0034685D01*
X0155905Y0034700D01*
X0155919Y0034715D01*
X0156587Y0036327D01*
X0156587Y0038073D01*
X0155919Y0039685D01*
X0154685Y0040919D01*
X0153073Y0041587D01*
X0151327Y0041587D01*
X0150392Y0041200D01*
X0114008Y0041200D01*
X0113073Y0041587D01*
X0111327Y0041587D01*
X0109715Y0040919D01*
X0108481Y0039685D01*
X0107813Y0038073D01*
X0108040Y0035779D02*
X0051135Y0035779D01*
X0053209Y0033381D02*
X0107940Y0033381D01*
X0107956Y0030982D02*
X0053800Y0030982D01*
X0053360Y0028584D02*
X0109612Y0028584D01*
X0112200Y0032200D02*
X0152200Y0032200D01*
X0156444Y0030982D02*
X0271400Y0030982D01*
X0271400Y0028584D02*
X0154788Y0028584D01*
X0156460Y0033381D02*
X0271400Y0033381D01*
X0271400Y0035779D02*
X0156360Y0035779D01*
X0156544Y0038178D02*
X0272156Y0038178D01*
X0275023Y0040576D02*
X0155029Y0040576D01*
X0152200Y0037200D02*
X0112200Y0037200D01*
X0109371Y0040576D02*
X0005400Y0040576D01*
X0005400Y0042975D02*
X0348921Y0042975D01*
X0348921Y0040576D02*
X0319377Y0040576D01*
X0322244Y0038178D02*
X0348921Y0038178D01*
X0348921Y0035779D02*
X0323000Y0035779D01*
X0323000Y0033381D02*
X0348921Y0033381D01*
X0348921Y0030982D02*
X0323000Y0030982D01*
X0323000Y0028584D02*
X0348921Y0028584D01*
X0348921Y0026185D02*
X0322229Y0026185D01*
X0323550Y0023787D02*
X0320850Y0023787D01*
X0330850Y0023787D02*
X0334521Y0023787D01*
X0337200Y0023787D02*
X0337200Y0023787D01*
X0337200Y0021388D02*
X0337200Y0021388D01*
X0337200Y0018990D02*
X0337200Y0018990D01*
X0337200Y0017200D02*
X0337200Y0009800D01*
X0337200Y0017200D01*
X0337200Y0017200D01*
X0337200Y0016591D02*
X0337200Y0016591D01*
X0337200Y0014193D02*
X0337200Y0014193D01*
X0337200Y0011794D02*
X0337200Y0011794D01*
X0341094Y0011794D02*
X0348921Y0011794D01*
X0348921Y0014193D02*
X0341995Y0014193D01*
X0342000Y0016591D02*
X0348921Y0016591D01*
X0348921Y0018990D02*
X0342000Y0018990D01*
X0341731Y0021388D02*
X0348921Y0021388D01*
X0348921Y0023787D02*
X0339879Y0023787D01*
X0332669Y0021388D02*
X0332387Y0021388D01*
X0331883Y0011794D02*
X0333306Y0011794D01*
X0322517Y0011794D02*
X0321883Y0011794D01*
X0312517Y0011794D02*
X0311883Y0011794D01*
X0302517Y0011794D02*
X0301883Y0011794D01*
X0292517Y0011794D02*
X0291883Y0011794D01*
X0282517Y0011794D02*
X0281883Y0011794D01*
X0272517Y0011794D02*
X0271883Y0011794D01*
X0262517Y0011794D02*
X0261883Y0011794D01*
X0252517Y0011794D02*
X0251883Y0011794D01*
X0242517Y0011794D02*
X0241883Y0011794D01*
X0232517Y0011794D02*
X0231883Y0011794D01*
X0222517Y0011794D02*
X0221883Y0011794D01*
X0212517Y0011794D02*
X0211883Y0011794D01*
X0202517Y0011794D02*
X0201883Y0011794D01*
X0192517Y0011794D02*
X0191883Y0011794D01*
X0182517Y0011794D02*
X0181883Y0011794D01*
X0172517Y0011794D02*
X0171883Y0011794D01*
X0162517Y0011794D02*
X0161883Y0011794D01*
X0152517Y0011794D02*
X0151883Y0011794D01*
X0142517Y0011794D02*
X0141883Y0011794D01*
X0132517Y0011794D02*
X0131883Y0011794D01*
X0122517Y0011794D02*
X0121883Y0011794D01*
X0112517Y0011794D02*
X0111883Y0011794D01*
X0102517Y0011794D02*
X0101094Y0011794D01*
X0097200Y0011794D02*
X0097200Y0011794D01*
X0097200Y0009800D02*
X0097200Y0017200D01*
X0097200Y0017200D01*
X0097200Y0009800D01*
X0093306Y0011794D02*
X0091883Y0011794D01*
X0097200Y0014193D02*
X0097200Y0014193D01*
X0097200Y0016591D02*
X0097200Y0016591D01*
X0097200Y0018990D02*
X0097200Y0018990D01*
X0097200Y0021388D02*
X0097200Y0021388D01*
X0097200Y0023787D02*
X0097200Y0023787D01*
X0094521Y0023787D02*
X0090850Y0023787D01*
X0092387Y0021388D02*
X0092669Y0021388D01*
X0099879Y0023787D02*
X0103550Y0023787D01*
X0102013Y0021388D02*
X0101731Y0021388D01*
X0110850Y0023787D02*
X0113550Y0023787D01*
X0120850Y0023787D02*
X0123550Y0023787D01*
X0130850Y0023787D02*
X0133550Y0023787D01*
X0140850Y0023787D02*
X0143550Y0023787D01*
X0150850Y0023787D02*
X0153550Y0023787D01*
X0160850Y0023787D02*
X0163550Y0023787D01*
X0170850Y0023787D02*
X0173550Y0023787D01*
X0180850Y0023787D02*
X0183550Y0023787D01*
X0190850Y0023787D02*
X0193550Y0023787D01*
X0200850Y0023787D02*
X0203550Y0023787D01*
X0210850Y0023787D02*
X0213550Y0023787D01*
X0220850Y0023787D02*
X0223550Y0023787D01*
X0230850Y0023787D02*
X0233550Y0023787D01*
X0240850Y0023787D02*
X0243550Y0023787D01*
X0250850Y0023787D02*
X0253550Y0023787D01*
X0260850Y0023787D02*
X0263550Y0023787D01*
X0270850Y0023787D02*
X0273550Y0023787D01*
X0272171Y0026185D02*
X0051588Y0026185D01*
X0050850Y0023787D02*
X0053550Y0023787D01*
X0060850Y0023787D02*
X0063550Y0023787D01*
X0070850Y0023787D02*
X0073550Y0023787D01*
X0080850Y0023787D02*
X0083550Y0023787D01*
X0082517Y0011794D02*
X0081883Y0011794D01*
X0072517Y0011794D02*
X0071883Y0011794D01*
X0062517Y0011794D02*
X0061883Y0011794D01*
X0052517Y0011794D02*
X0051883Y0011794D01*
X0042517Y0011794D02*
X0041883Y0011794D01*
X0032517Y0011794D02*
X0031094Y0011794D01*
X0027200Y0011794D02*
X0027200Y0011794D01*
X0027200Y0009800D02*
X0027200Y0017200D01*
X0027200Y0017200D01*
X0027200Y0024600D01*
X0027578Y0024600D01*
X0028324Y0024482D01*
X0029043Y0024248D01*
X0029716Y0023905D01*
X0030327Y0023461D01*
X0030861Y0022927D01*
X0031305Y0022316D01*
X0031648Y0021643D01*
X0031855Y0021007D01*
X0032622Y0022859D01*
X0034141Y0024378D01*
X0036126Y0025200D01*
X0038274Y0025200D01*
X0040259Y0024378D01*
X0041778Y0022859D01*
X0042200Y0021840D01*
X0042622Y0022859D01*
X0044141Y0024378D01*
X0045643Y0025000D01*
X0040846Y0025000D01*
X0038715Y0025883D01*
X0037798Y0026800D01*
X0026602Y0026800D01*
X0025685Y0025883D01*
X0023554Y0025000D01*
X0018757Y0025000D01*
X0020259Y0024378D01*
X0021778Y0022859D01*
X0022545Y0021007D01*
X0022752Y0021643D01*
X0023095Y0022316D01*
X0023539Y0022927D01*
X0024073Y0023461D01*
X0024684Y0023905D01*
X0025357Y0024248D01*
X0026076Y0024482D01*
X0026822Y0024600D01*
X0027200Y0024600D01*
X0027200Y0017200D01*
X0027200Y0017200D01*
X0027200Y0009800D01*
X0023306Y0011794D02*
X0021883Y0011794D01*
X0027200Y0014193D02*
X0027200Y0014193D01*
X0027200Y0016591D02*
X0027200Y0016591D01*
X0027200Y0018990D02*
X0027200Y0018990D01*
X0027200Y0021388D02*
X0027200Y0021388D01*
X0027200Y0023787D02*
X0027200Y0023787D01*
X0024521Y0023787D02*
X0020850Y0023787D01*
X0022387Y0021388D02*
X0022669Y0021388D01*
X0029879Y0023787D02*
X0033550Y0023787D01*
X0032013Y0021388D02*
X0031731Y0021388D01*
X0025988Y0026185D02*
X0038412Y0026185D01*
X0040850Y0023787D02*
X0043550Y0023787D01*
X0045000Y0030800D02*
X0047200Y0030800D01*
X0045000Y0030800D02*
X0019400Y0030800D01*
X0025535Y0035779D02*
X0038865Y0035779D01*
X0040782Y0043528D02*
X0041591Y0043400D01*
X0045000Y0043400D01*
X0048409Y0043400D01*
X0049218Y0043528D01*
X0049996Y0043781D01*
X0050725Y0044153D01*
X0051388Y0044634D01*
X0051966Y0045212D01*
X0052447Y0045875D01*
X0052819Y0046604D01*
X0053072Y0047382D01*
X0053200Y0048191D01*
X0053200Y0048600D01*
X0053200Y0049009D01*
X0053072Y0049818D01*
X0052819Y0050596D01*
X0052447Y0051325D01*
X0051966Y0051988D01*
X0051388Y0052566D01*
X0050725Y0053047D01*
X0049996Y0053419D01*
X0049218Y0053672D01*
X0048409Y0053800D01*
X0045000Y0053800D01*
X0045000Y0048600D01*
X0045000Y0048600D01*
X0053200Y0048600D01*
X0045000Y0048600D01*
X0045000Y0048600D01*
X0045000Y0053800D01*
X0041591Y0053800D01*
X0040782Y0053672D01*
X0040004Y0053419D01*
X0039275Y0053047D01*
X0038612Y0052566D01*
X0038034Y0051988D01*
X0037553Y0051325D01*
X0037181Y0050596D01*
X0036928Y0049818D01*
X0036800Y0049009D01*
X0036800Y0048600D01*
X0045000Y0048600D01*
X0045000Y0043400D01*
X0045000Y0048600D01*
X0045000Y0048600D01*
X0045000Y0048600D01*
X0036800Y0048600D01*
X0036800Y0048191D01*
X0036928Y0047382D01*
X0037181Y0046604D01*
X0037553Y0045875D01*
X0038034Y0045212D01*
X0038612Y0044634D01*
X0039275Y0044153D01*
X0040004Y0043781D01*
X0040782Y0043528D01*
X0037917Y0045373D02*
X0026483Y0045373D01*
X0026366Y0045212D02*
X0026847Y0045875D01*
X0027219Y0046604D01*
X0027472Y0047382D01*
X0027600Y0048191D01*
X0027600Y0048600D01*
X0027600Y0049009D01*
X0027472Y0049818D01*
X0027219Y0050596D01*
X0026847Y0051325D01*
X0026366Y0051988D01*
X0025788Y0052566D01*
X0025125Y0053047D01*
X0024396Y0053419D01*
X0023618Y0053672D01*
X0022809Y0053800D01*
X0019400Y0053800D01*
X0019400Y0048600D01*
X0019400Y0048600D01*
X0027600Y0048600D01*
X0019400Y0048600D01*
X0019400Y0048600D01*
X0019400Y0053800D01*
X0015991Y0053800D01*
X0015182Y0053672D01*
X0014404Y0053419D01*
X0013675Y0053047D01*
X0013012Y0052566D01*
X0012434Y0051988D01*
X0011953Y0051325D01*
X0011581Y0050596D01*
X0011328Y0049818D01*
X0011200Y0049009D01*
X0011200Y0048600D01*
X0019400Y0048600D01*
X0019400Y0043400D01*
X0022809Y0043400D01*
X0023618Y0043528D01*
X0024396Y0043781D01*
X0025125Y0044153D01*
X0025788Y0044634D01*
X0026366Y0045212D01*
X0027534Y0047772D02*
X0036866Y0047772D01*
X0037043Y0050170D02*
X0027357Y0050170D01*
X0025784Y0052569D02*
X0038616Y0052569D01*
X0045000Y0052569D02*
X0045000Y0052569D01*
X0045000Y0050170D02*
X0045000Y0050170D01*
X0045000Y0047772D02*
X0045000Y0047772D01*
X0045000Y0045373D02*
X0045000Y0045373D01*
X0052083Y0045373D02*
X0348921Y0045373D01*
X0348921Y0047772D02*
X0053134Y0047772D01*
X0052957Y0050170D02*
X0348921Y0050170D01*
X0348921Y0052569D02*
X0051384Y0052569D01*
X0049218Y0060728D02*
X0049996Y0060981D01*
X0050725Y0061353D01*
X0051388Y0061834D01*
X0051966Y0062412D01*
X0052447Y0063075D01*
X0052819Y0063804D01*
X0053072Y0064582D01*
X0053200Y0065391D01*
X0053200Y0065800D01*
X0053200Y0066209D01*
X0053072Y0067018D01*
X0052819Y0067796D01*
X0052447Y0068525D01*
X0051966Y0069188D01*
X0051388Y0069766D01*
X0050725Y0070247D01*
X0049996Y0070619D01*
X0049218Y0070872D01*
X0048409Y0071000D01*
X0045000Y0071000D01*
X0045000Y0065800D01*
X0045000Y0065800D01*
X0053200Y0065800D01*
X0045000Y0065800D01*
X0045000Y0065800D01*
X0045000Y0060600D01*
X0048409Y0060600D01*
X0049218Y0060728D01*
X0051717Y0062163D02*
X0348921Y0062163D01*
X0348921Y0064561D02*
X0053065Y0064561D01*
X0053081Y0066960D02*
X0348921Y0066960D01*
X0348921Y0069358D02*
X0051796Y0069358D01*
X0045000Y0069358D02*
X0045000Y0069358D01*
X0045000Y0071000D02*
X0041591Y0071000D01*
X0040782Y0070872D01*
X0040004Y0070619D01*
X0039275Y0070247D01*
X0038612Y0069766D01*
X0038034Y0069188D01*
X0037553Y0068525D01*
X0037181Y0067796D01*
X0036928Y0067018D01*
X0036800Y0066209D01*
X0036800Y0065800D01*
X0045000Y0065800D01*
X0045000Y0065800D01*
X0045000Y0065800D01*
X0045000Y0071000D01*
X0045000Y0066960D02*
X0045000Y0066960D01*
X0045000Y0065800D02*
X0036800Y0065800D01*
X0036800Y0065391D01*
X0036928Y0064582D01*
X0037181Y0063804D01*
X0037553Y0063075D01*
X0038034Y0062412D01*
X0038612Y0061834D01*
X0039275Y0061353D01*
X0040004Y0060981D01*
X0040782Y0060728D01*
X0041591Y0060600D01*
X0045000Y0060600D01*
X0045000Y0065800D01*
X0045000Y0064561D02*
X0045000Y0064561D01*
X0045000Y0062163D02*
X0045000Y0062163D01*
X0038283Y0062163D02*
X0026117Y0062163D01*
X0026366Y0062412D02*
X0026847Y0063075D01*
X0027219Y0063804D01*
X0027472Y0064582D01*
X0027600Y0065391D01*
X0027600Y0065800D01*
X0027600Y0066209D01*
X0027472Y0067018D01*
X0027219Y0067796D01*
X0026847Y0068525D01*
X0026366Y0069188D01*
X0025788Y0069766D01*
X0025125Y0070247D01*
X0024396Y0070619D01*
X0023618Y0070872D01*
X0022809Y0071000D01*
X0019400Y0071000D01*
X0019400Y0065800D01*
X0019400Y0065800D01*
X0027600Y0065800D01*
X0019400Y0065800D01*
X0019400Y0065800D01*
X0019400Y0060600D01*
X0022809Y0060600D01*
X0023618Y0060728D01*
X0024396Y0060981D01*
X0025125Y0061353D01*
X0025788Y0061834D01*
X0026366Y0062412D01*
X0027465Y0064561D02*
X0036935Y0064561D01*
X0036919Y0066960D02*
X0027481Y0066960D01*
X0026196Y0069358D02*
X0038204Y0069358D01*
X0040846Y0077800D02*
X0049154Y0077800D01*
X0051285Y0078683D01*
X0052917Y0080315D01*
X0053800Y0082446D01*
X0053800Y0084754D01*
X0052917Y0086885D01*
X0051285Y0088517D01*
X0049154Y0089400D01*
X0040846Y0089400D01*
X0038715Y0088517D01*
X0037798Y0087600D01*
X0026602Y0087600D01*
X0025685Y0088517D01*
X0023554Y0089400D01*
X0015246Y0089400D01*
X0013115Y0088517D01*
X0011483Y0086885D01*
X0010600Y0084754D01*
X0010600Y0082446D01*
X0011483Y0080315D01*
X0013115Y0078683D01*
X0015246Y0077800D01*
X0023554Y0077800D01*
X0025685Y0078683D01*
X0026602Y0079600D01*
X0037798Y0079600D01*
X0038715Y0078683D01*
X0040846Y0077800D01*
X0038445Y0078952D02*
X0025955Y0078952D01*
X0019400Y0083600D02*
X0045000Y0083600D01*
X0051555Y0078952D02*
X0149677Y0078952D01*
X0149981Y0079685D02*
X0149313Y0078073D01*
X0149313Y0076327D01*
X0149981Y0074715D01*
X0151215Y0073481D01*
X0152827Y0072813D01*
X0154573Y0072813D01*
X0156185Y0073481D01*
X0157419Y0074715D01*
X0158087Y0076327D01*
X0158087Y0078073D01*
X0157419Y0079685D01*
X0157300Y0079805D01*
X0157300Y0085095D01*
X0157419Y0085215D01*
X0158087Y0086827D01*
X0158087Y0088573D01*
X0157419Y0090185D01*
X0156185Y0091419D01*
X0154573Y0092087D01*
X0152827Y0092087D01*
X0151215Y0091419D01*
X0149981Y0090185D01*
X0149313Y0088573D01*
X0149313Y0086827D01*
X0149981Y0085215D01*
X0150100Y0085095D01*
X0150100Y0079805D01*
X0149981Y0079685D01*
X0150100Y0081351D02*
X0053346Y0081351D01*
X0053800Y0083749D02*
X0150100Y0083749D01*
X0149594Y0086148D02*
X0053222Y0086148D01*
X0051214Y0088546D02*
X0149313Y0088546D01*
X0150740Y0090945D02*
X0005400Y0090945D01*
X0005400Y0093343D02*
X0348921Y0093343D01*
X0348921Y0090945D02*
X0156660Y0090945D01*
X0158087Y0088546D02*
X0348921Y0088546D01*
X0348921Y0086148D02*
X0157806Y0086148D01*
X0157300Y0083749D02*
X0348921Y0083749D01*
X0348921Y0081351D02*
X0157300Y0081351D01*
X0157723Y0078952D02*
X0348921Y0078952D01*
X0348921Y0076554D02*
X0158087Y0076554D01*
X0156860Y0074155D02*
X0348921Y0074155D01*
X0348921Y0071757D02*
X0005400Y0071757D01*
X0005400Y0074155D02*
X0150540Y0074155D01*
X0149313Y0076554D02*
X0005400Y0076554D01*
X0005400Y0078952D02*
X0012845Y0078952D01*
X0011054Y0081351D02*
X0005400Y0081351D01*
X0005400Y0083749D02*
X0010600Y0083749D01*
X0011178Y0086148D02*
X0005400Y0086148D01*
X0005400Y0088546D02*
X0013186Y0088546D01*
X0015246Y0095000D02*
X0023554Y0095000D01*
X0025685Y0095883D01*
X0026602Y0096800D01*
X0037798Y0096800D01*
X0038715Y0095883D01*
X0040846Y0095000D01*
X0049154Y0095000D01*
X0051285Y0095883D01*
X0052917Y0097515D01*
X0053800Y0099646D01*
X0053800Y0101954D01*
X0052917Y0104085D01*
X0051285Y0105717D01*
X0049154Y0106600D01*
X0040846Y0106600D01*
X0038715Y0105717D01*
X0037798Y0104800D01*
X0026602Y0104800D01*
X0025685Y0105717D01*
X0023554Y0106600D01*
X0015246Y0106600D01*
X0013115Y0105717D01*
X0011483Y0104085D01*
X0010600Y0101954D01*
X0010600Y0099646D01*
X0011483Y0097515D01*
X0013115Y0095883D01*
X0015246Y0095000D01*
X0013455Y0095742D02*
X0005400Y0095742D01*
X0005400Y0098140D02*
X0011224Y0098140D01*
X0010600Y0100539D02*
X0005400Y0100539D01*
X0005400Y0102937D02*
X0011008Y0102937D01*
X0012734Y0105336D02*
X0005400Y0105336D01*
X0005400Y0107734D02*
X0064815Y0107734D01*
X0064861Y0107780D02*
X0061600Y0104520D01*
X0061600Y0099880D01*
X0064880Y0096600D01*
X0069520Y0096600D01*
X0072200Y0099280D01*
X0074880Y0096600D01*
X0079520Y0096600D01*
X0082200Y0099280D01*
X0084880Y0096600D01*
X0089520Y0096600D01*
X0092200Y0099280D01*
X0094880Y0096600D01*
X0099520Y0096600D01*
X0102200Y0099280D01*
X0104880Y0096600D01*
X0109520Y0096600D01*
X0112200Y0099280D01*
X0114880Y0096600D01*
X0119520Y0096600D01*
X0122200Y0099280D01*
X0124880Y0096600D01*
X0129520Y0096600D01*
X0132200Y0099280D01*
X0134880Y0096600D01*
X0139520Y0096600D01*
X0142200Y0099280D01*
X0144880Y0096600D01*
X0148114Y0096600D01*
X0148481Y0095715D01*
X0149715Y0094481D01*
X0149796Y0094447D01*
X0149934Y0094309D01*
X0151404Y0093700D01*
X0152996Y0093700D01*
X0154466Y0094309D01*
X0154604Y0094447D01*
X0154685Y0094481D01*
X0155919Y0095715D01*
X0156286Y0096600D01*
X0159520Y0096600D01*
X0162200Y0099280D01*
X0164880Y0096600D01*
X0169520Y0096600D01*
X0172200Y0099280D01*
X0174880Y0096600D01*
X0179520Y0096600D01*
X0182200Y0099280D01*
X0184880Y0096600D01*
X0189520Y0096600D01*
X0192200Y0099280D01*
X0194880Y0096600D01*
X0199520Y0096600D01*
X0202200Y0099280D01*
X0204880Y0096600D01*
X0209520Y0096600D01*
X0212200Y0099280D01*
X0214880Y0096600D01*
X0219520Y0096600D01*
X0222200Y0099280D01*
X0224880Y0096600D01*
X0229520Y0096600D01*
X0232200Y0099280D01*
X0234880Y0096600D01*
X0239520Y0096600D01*
X0242200Y0099280D01*
X0244880Y0096600D01*
X0249520Y0096600D01*
X0252200Y0099280D01*
X0254880Y0096600D01*
X0259520Y0096600D01*
X0262200Y0099280D01*
X0264880Y0096600D01*
X0269520Y0096600D01*
X0272200Y0099280D01*
X0274880Y0096600D01*
X0279520Y0096600D01*
X0282200Y0099280D01*
X0284880Y0096600D01*
X0289520Y0096600D01*
X0292200Y0099280D01*
X0294880Y0096600D01*
X0299520Y0096600D01*
X0302800Y0099880D01*
X0302800Y0104520D01*
X0300120Y0107200D01*
X0302800Y0109880D01*
X0302800Y0114520D01*
X0299520Y0117800D01*
X0294880Y0117800D01*
X0292200Y0115120D01*
X0289520Y0117800D01*
X0284880Y0117800D01*
X0282200Y0115120D01*
X0279520Y0117800D01*
X0274880Y0117800D01*
X0272200Y0115120D01*
X0269520Y0117800D01*
X0264880Y0117800D01*
X0262200Y0115120D01*
X0259520Y0117800D01*
X0254880Y0117800D01*
X0252095Y0115015D01*
X0251947Y0115372D01*
X0250372Y0116947D01*
X0248314Y0117800D01*
X0246086Y0117800D01*
X0244028Y0116947D01*
X0242453Y0115372D01*
X0242056Y0114415D01*
X0239271Y0117200D01*
X0237200Y0117200D01*
X0237200Y0112200D01*
X0237200Y0112200D01*
X0237200Y0117200D01*
X0235129Y0117200D01*
X0232624Y0114695D01*
X0229520Y0117800D01*
X0224880Y0117800D01*
X0222200Y0115120D01*
X0219520Y0117800D01*
X0214880Y0117800D01*
X0212200Y0115120D01*
X0209520Y0117800D01*
X0204880Y0117800D01*
X0202200Y0115120D01*
X0199520Y0117800D01*
X0194880Y0117800D01*
X0192200Y0115120D01*
X0189520Y0117800D01*
X0184880Y0117800D01*
X0182200Y0115120D01*
X0179520Y0117800D01*
X0174880Y0117800D01*
X0171776Y0114695D01*
X0169271Y0117200D01*
X0167200Y0117200D01*
X0167200Y0112200D01*
X0167200Y0112200D01*
X0167200Y0117200D01*
X0165129Y0117200D01*
X0162344Y0114415D01*
X0161947Y0115372D01*
X0160372Y0116947D01*
X0158314Y0117800D01*
X0156286Y0117800D01*
X0155919Y0118685D01*
X0154685Y0119919D01*
X0153073Y0120587D01*
X0151327Y0120587D01*
X0149715Y0119919D01*
X0148481Y0118685D01*
X0148114Y0117800D01*
X0144880Y0117800D01*
X0142200Y0115120D01*
X0139520Y0117800D01*
X0134880Y0117800D01*
X0132200Y0115120D01*
X0129520Y0117800D01*
X0124880Y0117800D01*
X0122200Y0115120D01*
X0119520Y0117800D01*
X0114880Y0117800D01*
X0112200Y0115120D01*
X0109520Y0117800D01*
X0104880Y0117800D01*
X0102200Y0115120D01*
X0099520Y0117800D01*
X0094880Y0117800D01*
X0092200Y0115120D01*
X0089520Y0117800D01*
X0084880Y0117800D01*
X0082200Y0115120D01*
X0079520Y0117800D01*
X0074880Y0117800D01*
X0071620Y0114539D01*
X0071476Y0114821D01*
X0071014Y0115457D01*
X0070457Y0116014D01*
X0069821Y0116476D01*
X0069119Y0116834D01*
X0068371Y0117077D01*
X0067594Y0117200D01*
X0067200Y0117200D01*
X0067200Y0112200D01*
X0067200Y0112200D01*
X0067200Y0112200D01*
X0062200Y0112200D01*
X0062200Y0112594D01*
X0062323Y0113371D01*
X0062566Y0114119D01*
X0062924Y0114821D01*
X0063386Y0115457D01*
X0063943Y0116014D01*
X0064579Y0116476D01*
X0065281Y0116834D01*
X0066029Y0117077D01*
X0066806Y0117200D01*
X0067200Y0117200D01*
X0067200Y0112200D01*
X0062200Y0112200D01*
X0062200Y0111806D01*
X0062323Y0111029D01*
X0062566Y0110281D01*
X0062924Y0109579D01*
X0063386Y0108943D01*
X0063943Y0108386D01*
X0064579Y0107924D01*
X0064861Y0107780D01*
X0062642Y0110133D02*
X0005400Y0110133D01*
X0005400Y0112532D02*
X0062200Y0112532D01*
X0063003Y0114930D02*
X0051684Y0114930D01*
X0051966Y0115212D02*
X0052447Y0115875D01*
X0052819Y0116604D01*
X0053072Y0117382D01*
X0053200Y0118191D01*
X0053200Y0118600D01*
X0053200Y0119009D01*
X0053072Y0119818D01*
X0052819Y0120596D01*
X0052447Y0121325D01*
X0051966Y0121988D01*
X0051388Y0122566D01*
X0050725Y0123047D01*
X0049996Y0123419D01*
X0049218Y0123672D01*
X0048409Y0123800D01*
X0045000Y0123800D01*
X0045000Y0118600D01*
X0045000Y0118600D01*
X0053200Y0118600D01*
X0045000Y0118600D01*
X0045000Y0118600D01*
X0045000Y0123800D01*
X0041591Y0123800D01*
X0040782Y0123672D01*
X0040004Y0123419D01*
X0039275Y0123047D01*
X0038612Y0122566D01*
X0038034Y0121988D01*
X0037553Y0121325D01*
X0037181Y0120596D01*
X0036928Y0119818D01*
X0036800Y0119009D01*
X0036800Y0118600D01*
X0045000Y0118600D01*
X0045000Y0113400D01*
X0048409Y0113400D01*
X0049218Y0113528D01*
X0049996Y0113781D01*
X0050725Y0114153D01*
X0051388Y0114634D01*
X0051966Y0115212D01*
X0053054Y0117329D02*
X0074409Y0117329D01*
X0072010Y0114930D02*
X0071397Y0114930D01*
X0067200Y0114930D02*
X0067200Y0114930D01*
X0067200Y0112532D02*
X0067200Y0112532D01*
X0062416Y0105336D02*
X0051666Y0105336D01*
X0053392Y0102937D02*
X0061600Y0102937D01*
X0061600Y0100539D02*
X0053800Y0100539D01*
X0053176Y0098140D02*
X0063340Y0098140D01*
X0071060Y0098140D02*
X0073340Y0098140D01*
X0081060Y0098140D02*
X0083340Y0098140D01*
X0091060Y0098140D02*
X0093340Y0098140D01*
X0101060Y0098140D02*
X0103340Y0098140D01*
X0111060Y0098140D02*
X0113340Y0098140D01*
X0121060Y0098140D02*
X0123340Y0098140D01*
X0131060Y0098140D02*
X0133340Y0098140D01*
X0141060Y0098140D02*
X0143340Y0098140D01*
X0148469Y0095742D02*
X0050945Y0095742D01*
X0045000Y0100800D02*
X0019400Y0100800D01*
X0025345Y0095742D02*
X0039055Y0095742D01*
X0038786Y0088546D02*
X0025614Y0088546D01*
X0026066Y0105336D02*
X0038334Y0105336D01*
X0040782Y0113528D02*
X0041591Y0113400D01*
X0045000Y0113400D01*
X0045000Y0118600D01*
X0045000Y0118600D01*
X0045000Y0118600D01*
X0036800Y0118600D01*
X0036800Y0118191D01*
X0036928Y0117382D01*
X0037181Y0116604D01*
X0037553Y0115875D01*
X0038034Y0115212D01*
X0038612Y0114634D01*
X0039275Y0114153D01*
X0040004Y0113781D01*
X0040782Y0113528D01*
X0038316Y0114930D02*
X0026084Y0114930D01*
X0026366Y0115212D02*
X0026847Y0115875D01*
X0027219Y0116604D01*
X0027472Y0117382D01*
X0027600Y0118191D01*
X0027600Y0118600D01*
X0027600Y0119009D01*
X0027472Y0119818D01*
X0027219Y0120596D01*
X0026847Y0121325D01*
X0026366Y0121988D01*
X0025788Y0122566D01*
X0025125Y0123047D01*
X0024396Y0123419D01*
X0023618Y0123672D01*
X0022809Y0123800D01*
X0019400Y0123800D01*
X0019400Y0118600D01*
X0019400Y0118600D01*
X0027600Y0118600D01*
X0019400Y0118600D01*
X0019400Y0118600D01*
X0019400Y0123800D01*
X0015991Y0123800D01*
X0015182Y0123672D01*
X0014404Y0123419D01*
X0013675Y0123047D01*
X0013012Y0122566D01*
X0012434Y0121988D01*
X0011953Y0121325D01*
X0011581Y0120596D01*
X0011328Y0119818D01*
X0011200Y0119009D01*
X0011200Y0118600D01*
X0019400Y0118600D01*
X0019400Y0113400D01*
X0022809Y0113400D01*
X0023618Y0113528D01*
X0024396Y0113781D01*
X0025125Y0114153D01*
X0025788Y0114634D01*
X0026366Y0115212D01*
X0027454Y0117329D02*
X0036946Y0117329D01*
X0036914Y0119727D02*
X0027486Y0119727D01*
X0026228Y0122126D02*
X0038172Y0122126D01*
X0045000Y0122126D02*
X0045000Y0122126D01*
X0045000Y0119727D02*
X0045000Y0119727D01*
X0045000Y0117329D02*
X0045000Y0117329D01*
X0045000Y0114930D02*
X0045000Y0114930D01*
X0053086Y0119727D02*
X0149522Y0119727D01*
X0154878Y0119727D02*
X0348921Y0119727D01*
X0348921Y0122126D02*
X0051828Y0122126D01*
X0049154Y0130000D02*
X0040846Y0130000D01*
X0038715Y0130883D01*
X0037798Y0131800D01*
X0026602Y0131800D01*
X0025685Y0130883D01*
X0023554Y0130000D01*
X0015246Y0130000D01*
X0013115Y0130883D01*
X0011483Y0132515D01*
X0010600Y0134646D01*
X0010600Y0136954D01*
X0011483Y0139085D01*
X0013115Y0140717D01*
X0015246Y0141600D01*
X0023554Y0141600D01*
X0025685Y0140717D01*
X0026602Y0139800D01*
X0037798Y0139800D01*
X0038715Y0140717D01*
X0040846Y0141600D01*
X0049154Y0141600D01*
X0051285Y0140717D01*
X0052917Y0139085D01*
X0053800Y0136954D01*
X0053800Y0134646D01*
X0052917Y0132515D01*
X0051285Y0130883D01*
X0049154Y0130000D01*
X0052122Y0131720D02*
X0217089Y0131720D01*
X0215648Y0133161D02*
X0218813Y0129996D01*
X0218813Y0129827D01*
X0219481Y0128215D01*
X0220715Y0126981D01*
X0222327Y0126313D01*
X0224073Y0126313D01*
X0225685Y0126981D01*
X0226919Y0128215D01*
X0227587Y0129827D01*
X0227587Y0131573D01*
X0226919Y0133185D01*
X0225685Y0134419D01*
X0224073Y0135087D01*
X0223904Y0135087D01*
X0222300Y0136691D01*
X0222300Y0145095D01*
X0222419Y0145215D01*
X0222731Y0145967D01*
X0223915Y0144783D01*
X0226046Y0143900D01*
X0228354Y0143900D01*
X0230485Y0144783D01*
X0232117Y0146415D01*
X0232200Y0146615D01*
X0232283Y0146415D01*
X0233915Y0144783D01*
X0236046Y0143900D01*
X0238354Y0143900D01*
X0240485Y0144783D01*
X0242117Y0146415D01*
X0242200Y0146615D01*
X0242283Y0146415D01*
X0243915Y0144783D01*
X0246046Y0143900D01*
X0248354Y0143900D01*
X0250485Y0144783D01*
X0252117Y0146415D01*
X0253000Y0148546D01*
X0253000Y0156854D01*
X0252117Y0158985D01*
X0250670Y0160433D01*
X0251778Y0161541D01*
X0252200Y0162560D01*
X0252622Y0161541D01*
X0254141Y0160022D01*
X0256126Y0159200D01*
X0258274Y0159200D01*
X0260259Y0160022D01*
X0261778Y0161541D01*
X0262200Y0162560D01*
X0262622Y0161541D01*
X0264141Y0160022D01*
X0266126Y0159200D01*
X0268274Y0159200D01*
X0270259Y0160022D01*
X0271778Y0161541D01*
X0272200Y0162560D01*
X0272622Y0161541D01*
X0274141Y0160022D01*
X0276126Y0159200D01*
X0278274Y0159200D01*
X0280259Y0160022D01*
X0281778Y0161541D01*
X0282200Y0162560D01*
X0282622Y0161541D01*
X0284141Y0160022D01*
X0286126Y0159200D01*
X0288274Y0159200D01*
X0290259Y0160022D01*
X0291778Y0161541D01*
X0292200Y0162560D01*
X0292622Y0161541D01*
X0293200Y0160963D01*
X0293200Y0146508D01*
X0292813Y0145573D01*
X0292813Y0143827D01*
X0293481Y0142215D01*
X0294715Y0140981D01*
X0296327Y0140313D01*
X0298073Y0140313D01*
X0299685Y0140981D01*
X0300919Y0142215D01*
X0301587Y0143827D01*
X0301587Y0145573D01*
X0301200Y0146508D01*
X0301200Y0152865D01*
X0301327Y0152813D01*
X0303073Y0152813D01*
X0304685Y0153481D01*
X0304805Y0153600D01*
X0309595Y0153600D01*
X0309715Y0153481D01*
X0311327Y0152813D01*
X0313073Y0152813D01*
X0314685Y0153481D01*
X0315919Y0154715D01*
X0316587Y0156327D01*
X0316587Y0158073D01*
X0316119Y0159203D01*
X0316126Y0159200D01*
X0318274Y0159200D01*
X0318600Y0159335D01*
X0318600Y0141484D01*
X0319148Y0140161D01*
X0321648Y0137661D01*
X0322661Y0136648D01*
X0323984Y0136100D01*
X0329595Y0136100D01*
X0329715Y0135981D01*
X0331327Y0135313D01*
X0333073Y0135313D01*
X0334685Y0135981D01*
X0335919Y0137215D01*
X0336587Y0138827D01*
X0336587Y0140573D01*
X0335919Y0142185D01*
X0334685Y0143419D01*
X0333073Y0144087D01*
X0331327Y0144087D01*
X0329715Y0143419D01*
X0329595Y0143300D01*
X0326191Y0143300D01*
X0325800Y0143691D01*
X0325800Y0148031D01*
X0326327Y0147813D01*
X0328073Y0147813D01*
X0329685Y0148481D01*
X0330919Y0149715D01*
X0331587Y0151327D01*
X0331587Y0151496D01*
X0335252Y0155161D01*
X0335800Y0156484D01*
X0335800Y0160008D01*
X0336076Y0159918D01*
X0336822Y0159800D01*
X0337200Y0159800D01*
X0337578Y0159800D01*
X0338324Y0159918D01*
X0339043Y0160152D01*
X0339716Y0160495D01*
X0340327Y0160939D01*
X0340861Y0161473D01*
X0341305Y0162084D01*
X0341648Y0162757D01*
X0341882Y0163476D01*
X0342000Y0164222D01*
X0342000Y0167200D01*
X0342000Y0170178D01*
X0341882Y0170924D01*
X0341648Y0171643D01*
X0341305Y0172316D01*
X0340861Y0172927D01*
X0340327Y0173461D01*
X0339716Y0173905D01*
X0339043Y0174248D01*
X0338324Y0174482D01*
X0337578Y0174600D01*
X0337200Y0174600D01*
X0337200Y0167200D01*
X0337200Y0167200D01*
X0342000Y0167200D01*
X0337200Y0167200D01*
X0337200Y0167200D01*
X0337200Y0174600D01*
X0336822Y0174600D01*
X0336076Y0174482D01*
X0335357Y0174248D01*
X0335267Y0174202D01*
X0335252Y0174239D01*
X0334239Y0175252D01*
X0329239Y0180252D01*
X0327916Y0180800D01*
X0266484Y0180800D01*
X0265161Y0180252D01*
X0264148Y0179239D01*
X0263209Y0178300D01*
X0258984Y0178300D01*
X0257661Y0177752D01*
X0256648Y0176739D01*
X0254390Y0174481D01*
X0254141Y0174378D01*
X0252622Y0172859D01*
X0252200Y0171840D01*
X0251778Y0172859D01*
X0250259Y0174378D01*
X0248274Y0175200D01*
X0246126Y0175200D01*
X0244141Y0174378D01*
X0242622Y0172859D01*
X0242200Y0171840D01*
X0241778Y0172859D01*
X0240259Y0174378D01*
X0238274Y0175200D01*
X0236126Y0175200D01*
X0234141Y0174378D01*
X0232622Y0172859D01*
X0232200Y0171840D01*
X0231778Y0172859D01*
X0230259Y0174378D01*
X0228274Y0175200D01*
X0226126Y0175200D01*
X0224141Y0174378D01*
X0222622Y0172859D01*
X0222200Y0171840D01*
X0221778Y0172859D01*
X0220259Y0174378D01*
X0218274Y0175200D01*
X0216126Y0175200D01*
X0214141Y0174378D01*
X0212622Y0172859D01*
X0212200Y0171840D01*
X0211778Y0172859D01*
X0210259Y0174378D01*
X0208274Y0175200D01*
X0206126Y0175200D01*
X0204141Y0174378D01*
X0202622Y0172859D01*
X0202200Y0171840D01*
X0201778Y0172859D01*
X0200259Y0174378D01*
X0198274Y0175200D01*
X0196126Y0175200D01*
X0194141Y0174378D01*
X0192622Y0172859D01*
X0192200Y0171840D01*
X0191778Y0172859D01*
X0190259Y0174378D01*
X0188274Y0175200D01*
X0186126Y0175200D01*
X0184141Y0174378D01*
X0182622Y0172859D01*
X0182200Y0171840D01*
X0181778Y0172859D01*
X0180259Y0174378D01*
X0178274Y0175200D01*
X0176126Y0175200D01*
X0174141Y0174378D01*
X0172622Y0172859D01*
X0172200Y0171840D01*
X0171778Y0172859D01*
X0170259Y0174378D01*
X0168274Y0175200D01*
X0166126Y0175200D01*
X0164141Y0174378D01*
X0162622Y0172859D01*
X0162200Y0171840D01*
X0161778Y0172859D01*
X0160259Y0174378D01*
X0158274Y0175200D01*
X0156126Y0175200D01*
X0154141Y0174378D01*
X0152622Y0172859D01*
X0152200Y0171840D01*
X0151778Y0172859D01*
X0150259Y0174378D01*
X0148274Y0175200D01*
X0146126Y0175200D01*
X0144141Y0174378D01*
X0142622Y0172859D01*
X0142200Y0171840D01*
X0141778Y0172859D01*
X0140259Y0174378D01*
X0138274Y0175200D01*
X0136126Y0175200D01*
X0134141Y0174378D01*
X0132622Y0172859D01*
X0132200Y0171840D01*
X0131778Y0172859D01*
X0130259Y0174378D01*
X0128274Y0175200D01*
X0126126Y0175200D01*
X0124141Y0174378D01*
X0122622Y0172859D01*
X0122200Y0171840D01*
X0121778Y0172859D01*
X0120259Y0174378D01*
X0118274Y0175200D01*
X0116126Y0175200D01*
X0114141Y0174378D01*
X0112622Y0172859D01*
X0112200Y0171840D01*
X0111778Y0172859D01*
X0110259Y0174378D01*
X0108274Y0175200D01*
X0106126Y0175200D01*
X0104141Y0174378D01*
X0102622Y0172859D01*
X0102200Y0171840D01*
X0101778Y0172859D01*
X0100259Y0174378D01*
X0098274Y0175200D01*
X0096126Y0175200D01*
X0094141Y0174378D01*
X0092622Y0172859D01*
X0092200Y0171840D01*
X0091778Y0172859D01*
X0090259Y0174378D01*
X0088274Y0175200D01*
X0086126Y0175200D01*
X0084141Y0174378D01*
X0082622Y0172859D01*
X0082200Y0171840D01*
X0081778Y0172859D01*
X0080259Y0174378D01*
X0078274Y0175200D01*
X0076126Y0175200D01*
X0074141Y0174378D01*
X0072622Y0172859D01*
X0072200Y0171840D01*
X0071778Y0172859D01*
X0070259Y0174378D01*
X0068274Y0175200D01*
X0066126Y0175200D01*
X0064141Y0174378D01*
X0062622Y0172859D01*
X0062200Y0171840D01*
X0061778Y0172859D01*
X0060259Y0174378D01*
X0058274Y0175200D01*
X0056126Y0175200D01*
X0054141Y0174378D01*
X0052622Y0172859D01*
X0052200Y0171840D01*
X0051778Y0172859D01*
X0050259Y0174378D01*
X0048274Y0175200D01*
X0046126Y0175200D01*
X0044141Y0174378D01*
X0042622Y0172859D01*
X0042200Y0171840D01*
X0041778Y0172859D01*
X0040259Y0174378D01*
X0038274Y0175200D01*
X0036126Y0175200D01*
X0034141Y0174378D01*
X0032622Y0172859D01*
X0031855Y0171007D01*
X0031648Y0171643D01*
X0031305Y0172316D01*
X0030861Y0172927D01*
X0030327Y0173461D01*
X0029716Y0173905D01*
X0029043Y0174248D01*
X0028324Y0174482D01*
X0027578Y0174600D01*
X0027200Y0174600D01*
X0027200Y0167200D01*
X0027200Y0167200D01*
X0027200Y0159800D01*
X0027578Y0159800D01*
X0028324Y0159918D01*
X0029043Y0160152D01*
X0029716Y0160495D01*
X0030327Y0160939D01*
X0030861Y0161473D01*
X0031305Y0162084D01*
X0031648Y0162757D01*
X0031855Y0163393D01*
X0032622Y0161541D01*
X0034141Y0160022D01*
X0036126Y0159200D01*
X0038274Y0159200D01*
X0040259Y0160022D01*
X0041778Y0161541D01*
X0042200Y0162560D01*
X0042622Y0161541D01*
X0044141Y0160022D01*
X0046126Y0159200D01*
X0048274Y0159200D01*
X0050259Y0160022D01*
X0051778Y0161541D01*
X0052200Y0162560D01*
X0052622Y0161541D01*
X0054141Y0160022D01*
X0056126Y0159200D01*
X0058274Y0159200D01*
X0060259Y0160022D01*
X0061778Y0161541D01*
X0062200Y0162560D01*
X0062622Y0161541D01*
X0064141Y0160022D01*
X0064731Y0159778D01*
X0064475Y0159647D01*
X0063812Y0159166D01*
X0063234Y0158588D01*
X0062753Y0157925D01*
X0062381Y0157196D01*
X0062128Y0156418D01*
X0062000Y0155609D01*
X0062000Y0152200D01*
X0067200Y0152200D01*
X0067200Y0152200D01*
X0067200Y0144000D01*
X0067609Y0144000D01*
X0068418Y0144128D01*
X0069196Y0144381D01*
X0069925Y0144753D01*
X0070588Y0145234D01*
X0071166Y0145812D01*
X0071647Y0146475D01*
X0071870Y0146912D01*
X0072283Y0145915D01*
X0073915Y0144283D01*
X0076046Y0143400D01*
X0078354Y0143400D01*
X0080485Y0144283D01*
X0082117Y0145915D01*
X0082200Y0146115D01*
X0082283Y0145915D01*
X0083915Y0144283D01*
X0086046Y0143400D01*
X0088354Y0143400D01*
X0090485Y0144283D01*
X0092117Y0145915D01*
X0093000Y0148046D01*
X0093000Y0156354D01*
X0092117Y0158485D01*
X0090485Y0160117D01*
X0090392Y0160156D01*
X0091778Y0161541D01*
X0092200Y0162560D01*
X0092622Y0161541D01*
X0094141Y0160022D01*
X0096126Y0159200D01*
X0098274Y0159200D01*
X0100259Y0160022D01*
X0101778Y0161541D01*
X0102200Y0162560D01*
X0102622Y0161541D01*
X0104141Y0160022D01*
X0106126Y0159200D01*
X0108274Y0159200D01*
X0110259Y0160022D01*
X0111778Y0161541D01*
X0112200Y0162560D01*
X0112622Y0161541D01*
X0114141Y0160022D01*
X0116126Y0159200D01*
X0118274Y0159200D01*
X0120259Y0160022D01*
X0121778Y0161541D01*
X0122200Y0162560D01*
X0122622Y0161541D01*
X0124141Y0160022D01*
X0126126Y0159200D01*
X0128274Y0159200D01*
X0130259Y0160022D01*
X0131778Y0161541D01*
X0132200Y0162560D01*
X0132622Y0161541D01*
X0134141Y0160022D01*
X0136126Y0159200D01*
X0138274Y0159200D01*
X0140259Y0160022D01*
X0141778Y0161541D01*
X0142200Y0162560D01*
X0142622Y0161541D01*
X0144008Y0160156D01*
X0143915Y0160117D01*
X0142283Y0158485D01*
X0141400Y0156354D01*
X0141400Y0148046D01*
X0142283Y0145915D01*
X0143915Y0144283D01*
X0146046Y0143400D01*
X0148354Y0143400D01*
X0150485Y0144283D01*
X0152117Y0145915D01*
X0152200Y0146115D01*
X0152283Y0145915D01*
X0153915Y0144283D01*
X0156046Y0143400D01*
X0158354Y0143400D01*
X0160485Y0144283D01*
X0162117Y0145915D01*
X0162200Y0146115D01*
X0162283Y0145915D01*
X0163915Y0144283D01*
X0166046Y0143400D01*
X0168354Y0143400D01*
X0170485Y0144283D01*
X0172117Y0145915D01*
X0173000Y0148046D01*
X0173000Y0156354D01*
X0172117Y0158485D01*
X0170485Y0160117D01*
X0170392Y0160156D01*
X0171778Y0161541D01*
X0172200Y0162560D01*
X0172622Y0161541D01*
X0174141Y0160022D01*
X0176126Y0159200D01*
X0178274Y0159200D01*
X0180259Y0160022D01*
X0181778Y0161541D01*
X0182200Y0162560D01*
X0182622Y0161541D01*
X0184141Y0160022D01*
X0186126Y0159200D01*
X0188274Y0159200D01*
X0190259Y0160022D01*
X0191778Y0161541D01*
X0192200Y0162560D01*
X0192622Y0161541D01*
X0194141Y0160022D01*
X0196126Y0159200D01*
X0198274Y0159200D01*
X0200259Y0160022D01*
X0201778Y0161541D01*
X0202200Y0162560D01*
X0202622Y0161541D01*
X0204141Y0160022D01*
X0206126Y0159200D01*
X0208274Y0159200D01*
X0210259Y0160022D01*
X0211778Y0161541D01*
X0212200Y0162560D01*
X0212622Y0161541D01*
X0214141Y0160022D01*
X0216126Y0159200D01*
X0218274Y0159200D01*
X0220259Y0160022D01*
X0221778Y0161541D01*
X0222200Y0162560D01*
X0222622Y0161541D01*
X0223730Y0160433D01*
X0222283Y0158985D01*
X0221400Y0156854D01*
X0221400Y0151205D01*
X0221185Y0151419D01*
X0219573Y0152087D01*
X0217827Y0152087D01*
X0216215Y0151419D01*
X0214981Y0150185D01*
X0214313Y0148573D01*
X0214313Y0146827D01*
X0214981Y0145215D01*
X0215100Y0145095D01*
X0215100Y0134484D01*
X0215648Y0133161D01*
X0215252Y0134118D02*
X0053581Y0134118D01*
X0053800Y0136517D02*
X0215100Y0136517D01*
X0215100Y0138915D02*
X0052988Y0138915D01*
X0049845Y0141314D02*
X0215100Y0141314D01*
X0215100Y0143712D02*
X0169107Y0143712D01*
X0165293Y0143712D02*
X0159107Y0143712D01*
X0155293Y0143712D02*
X0149107Y0143712D01*
X0145293Y0143712D02*
X0089107Y0143712D01*
X0085293Y0143712D02*
X0079107Y0143712D01*
X0075293Y0143712D02*
X0005400Y0143712D01*
X0005400Y0141314D02*
X0014555Y0141314D01*
X0011412Y0138915D02*
X0005400Y0138915D01*
X0005400Y0136517D02*
X0010600Y0136517D01*
X0010819Y0134118D02*
X0005400Y0134118D01*
X0005400Y0131720D02*
X0012278Y0131720D01*
X0005400Y0129321D02*
X0219022Y0129321D01*
X0220855Y0126923D02*
X0005400Y0126923D01*
X0005400Y0124524D02*
X0348921Y0124524D01*
X0348921Y0126923D02*
X0225545Y0126923D01*
X0227378Y0129321D02*
X0348921Y0129321D01*
X0348921Y0131720D02*
X0260921Y0131720D01*
X0260919Y0131715D02*
X0261337Y0132723D01*
X0262327Y0132313D01*
X0264073Y0132313D01*
X0265685Y0132981D01*
X0265805Y0133100D01*
X0269095Y0133100D01*
X0269215Y0132981D01*
X0270827Y0132313D01*
X0272573Y0132313D01*
X0274185Y0132981D01*
X0275419Y0134215D01*
X0276087Y0135827D01*
X0276087Y0137573D01*
X0275419Y0139185D01*
X0274185Y0140419D01*
X0272573Y0141087D01*
X0270827Y0141087D01*
X0269215Y0140419D01*
X0269095Y0140300D01*
X0265805Y0140300D01*
X0265685Y0140419D01*
X0264073Y0141087D01*
X0262327Y0141087D01*
X0260800Y0140455D01*
X0260800Y0143095D01*
X0260919Y0143215D01*
X0261587Y0144827D01*
X0261587Y0146573D01*
X0260919Y0148185D01*
X0259685Y0149419D01*
X0258073Y0150087D01*
X0256327Y0150087D01*
X0254715Y0149419D01*
X0253481Y0148185D01*
X0252813Y0146573D01*
X0252813Y0144827D01*
X0253481Y0143215D01*
X0253600Y0143095D01*
X0253600Y0136805D01*
X0253481Y0136685D01*
X0252813Y0135073D01*
X0252813Y0133327D01*
X0253481Y0131715D01*
X0254715Y0130481D01*
X0256327Y0129813D01*
X0258073Y0129813D01*
X0259685Y0130481D01*
X0260919Y0131715D01*
X0253479Y0131720D02*
X0227527Y0131720D01*
X0225987Y0134118D02*
X0252813Y0134118D01*
X0253411Y0136517D02*
X0222475Y0136517D01*
X0222300Y0138915D02*
X0253600Y0138915D01*
X0253600Y0141314D02*
X0222300Y0141314D01*
X0222300Y0143712D02*
X0253274Y0143712D01*
X0252813Y0146111D02*
X0251813Y0146111D01*
X0252985Y0148509D02*
X0253804Y0148509D01*
X0253000Y0150908D02*
X0293200Y0150908D01*
X0293200Y0148509D02*
X0260596Y0148509D01*
X0261587Y0146111D02*
X0293035Y0146111D01*
X0297200Y0144700D02*
X0297200Y0167200D01*
X0293200Y0160502D02*
X0290738Y0160502D01*
X0293200Y0158103D02*
X0252482Y0158103D01*
X0253000Y0155705D02*
X0293200Y0155705D01*
X0293200Y0153306D02*
X0253000Y0153306D01*
X0253661Y0160502D02*
X0250738Y0160502D01*
X0260738Y0160502D02*
X0263661Y0160502D01*
X0270738Y0160502D02*
X0273661Y0160502D01*
X0280738Y0160502D02*
X0283661Y0160502D01*
X0301200Y0150908D02*
X0318600Y0150908D01*
X0318600Y0148509D02*
X0301200Y0148509D01*
X0301365Y0146111D02*
X0318600Y0146111D01*
X0318600Y0143712D02*
X0301540Y0143712D01*
X0300018Y0141314D02*
X0318671Y0141314D01*
X0320394Y0138915D02*
X0275531Y0138915D01*
X0276087Y0136517D02*
X0322978Y0136517D01*
X0325800Y0143712D02*
X0330421Y0143712D01*
X0333979Y0143712D02*
X0348921Y0143712D01*
X0348921Y0141314D02*
X0336280Y0141314D01*
X0336587Y0138915D02*
X0348921Y0138915D01*
X0348921Y0136517D02*
X0335221Y0136517D01*
X0348921Y0134118D02*
X0275323Y0134118D01*
X0260800Y0141314D02*
X0294382Y0141314D01*
X0292860Y0143712D02*
X0261125Y0143712D01*
X0242587Y0146111D02*
X0241813Y0146111D01*
X0232587Y0146111D02*
X0231813Y0146111D01*
X0221400Y0153306D02*
X0173000Y0153306D01*
X0173000Y0155705D02*
X0221400Y0155705D01*
X0221918Y0158103D02*
X0172275Y0158103D01*
X0173661Y0160502D02*
X0170738Y0160502D01*
X0180738Y0160502D02*
X0183661Y0160502D01*
X0190738Y0160502D02*
X0193661Y0160502D01*
X0200738Y0160502D02*
X0203661Y0160502D01*
X0210738Y0160502D02*
X0213661Y0160502D01*
X0220738Y0160502D02*
X0223661Y0160502D01*
X0215703Y0150908D02*
X0173000Y0150908D01*
X0173000Y0148509D02*
X0214313Y0148509D01*
X0214609Y0146111D02*
X0172198Y0146111D01*
X0162202Y0146111D02*
X0162198Y0146111D01*
X0152202Y0146111D02*
X0152198Y0146111D01*
X0142202Y0146111D02*
X0092198Y0146111D01*
X0093000Y0148509D02*
X0141400Y0148509D01*
X0141400Y0150908D02*
X0093000Y0150908D01*
X0093000Y0153306D02*
X0141400Y0153306D01*
X0141400Y0155705D02*
X0093000Y0155705D01*
X0092275Y0158103D02*
X0142125Y0158103D01*
X0140738Y0160502D02*
X0143661Y0160502D01*
X0133661Y0160502D02*
X0130738Y0160502D01*
X0123661Y0160502D02*
X0120738Y0160502D01*
X0113661Y0160502D02*
X0110738Y0160502D01*
X0103661Y0160502D02*
X0100738Y0160502D01*
X0093661Y0160502D02*
X0090738Y0160502D01*
X0091929Y0172494D02*
X0092471Y0172494D01*
X0095384Y0174893D02*
X0089016Y0174893D01*
X0085384Y0174893D02*
X0079016Y0174893D01*
X0075384Y0174893D02*
X0069016Y0174893D01*
X0065384Y0174893D02*
X0059016Y0174893D01*
X0055384Y0174893D02*
X0049016Y0174893D01*
X0045384Y0174893D02*
X0039016Y0174893D01*
X0041929Y0172494D02*
X0042471Y0172494D01*
X0035384Y0174893D02*
X0019016Y0174893D01*
X0018274Y0175200D02*
X0016126Y0175200D01*
X0014141Y0174378D01*
X0012622Y0172859D01*
X0011800Y0170874D01*
X0011800Y0163526D01*
X0012622Y0161541D01*
X0014141Y0160022D01*
X0016126Y0159200D01*
X0018274Y0159200D01*
X0020259Y0160022D01*
X0021778Y0161541D01*
X0022545Y0163393D01*
X0022752Y0162757D01*
X0023095Y0162084D01*
X0023539Y0161473D01*
X0024073Y0160939D01*
X0024684Y0160495D01*
X0025357Y0160152D01*
X0026076Y0159918D01*
X0026822Y0159800D01*
X0027200Y0159800D01*
X0027200Y0167200D01*
X0027200Y0167200D01*
X0027200Y0174600D01*
X0026822Y0174600D01*
X0026076Y0174482D01*
X0025357Y0174248D01*
X0024684Y0173905D01*
X0024073Y0173461D01*
X0023539Y0172927D01*
X0023095Y0172316D01*
X0022752Y0171643D01*
X0022545Y0171007D01*
X0021778Y0172859D01*
X0020259Y0174378D01*
X0018274Y0175200D01*
X0015384Y0174893D02*
X0005400Y0174893D01*
X0005400Y0177291D02*
X0257200Y0177291D01*
X0254802Y0174893D02*
X0249016Y0174893D01*
X0245384Y0174893D02*
X0239016Y0174893D01*
X0235384Y0174893D02*
X0229016Y0174893D01*
X0225384Y0174893D02*
X0219016Y0174893D01*
X0215384Y0174893D02*
X0209016Y0174893D01*
X0205384Y0174893D02*
X0199016Y0174893D01*
X0195384Y0174893D02*
X0189016Y0174893D01*
X0185384Y0174893D02*
X0179016Y0174893D01*
X0175384Y0174893D02*
X0169016Y0174893D01*
X0165384Y0174893D02*
X0159016Y0174893D01*
X0155384Y0174893D02*
X0149016Y0174893D01*
X0145384Y0174893D02*
X0139016Y0174893D01*
X0135384Y0174893D02*
X0129016Y0174893D01*
X0125384Y0174893D02*
X0119016Y0174893D01*
X0115384Y0174893D02*
X0109016Y0174893D01*
X0105384Y0174893D02*
X0099016Y0174893D01*
X0101929Y0172494D02*
X0102471Y0172494D01*
X0111929Y0172494D02*
X0112471Y0172494D01*
X0121929Y0172494D02*
X0122471Y0172494D01*
X0131929Y0172494D02*
X0132471Y0172494D01*
X0141929Y0172494D02*
X0142471Y0172494D01*
X0151929Y0172494D02*
X0152471Y0172494D01*
X0161929Y0172494D02*
X0162471Y0172494D01*
X0171929Y0172494D02*
X0172471Y0172494D01*
X0181929Y0172494D02*
X0182471Y0172494D01*
X0191929Y0172494D02*
X0192471Y0172494D01*
X0201929Y0172494D02*
X0202471Y0172494D01*
X0211929Y0172494D02*
X0212471Y0172494D01*
X0221929Y0172494D02*
X0222471Y0172494D01*
X0231929Y0172494D02*
X0232471Y0172494D01*
X0241929Y0172494D02*
X0242471Y0172494D01*
X0251929Y0172494D02*
X0252471Y0172494D01*
X0264599Y0179690D02*
X0005400Y0179690D01*
X0005400Y0182088D02*
X0348921Y0182088D01*
X0348921Y0179690D02*
X0329801Y0179690D01*
X0332200Y0177291D02*
X0348921Y0177291D01*
X0348921Y0174893D02*
X0334598Y0174893D01*
X0337200Y0172494D02*
X0337200Y0172494D01*
X0337200Y0170096D02*
X0337200Y0170096D01*
X0341176Y0172494D02*
X0348921Y0172494D01*
X0348921Y0170096D02*
X0342000Y0170096D01*
X0342000Y0167697D02*
X0348921Y0167697D01*
X0348921Y0165299D02*
X0342000Y0165299D01*
X0341695Y0162900D02*
X0348921Y0162900D01*
X0348921Y0160502D02*
X0339725Y0160502D01*
X0337200Y0160502D02*
X0337200Y0160502D01*
X0337200Y0159800D02*
X0337200Y0167200D01*
X0337200Y0167200D01*
X0337200Y0159800D01*
X0335800Y0158103D02*
X0348921Y0158103D01*
X0348921Y0155705D02*
X0335477Y0155705D01*
X0333397Y0153306D02*
X0348921Y0153306D01*
X0348921Y0150908D02*
X0331414Y0150908D01*
X0329714Y0148509D02*
X0348921Y0148509D01*
X0348921Y0146111D02*
X0325800Y0146111D01*
X0318600Y0153306D02*
X0314264Y0153306D01*
X0316330Y0155705D02*
X0318600Y0155705D01*
X0318600Y0158103D02*
X0316575Y0158103D01*
X0310136Y0153306D02*
X0304264Y0153306D01*
X0337200Y0162900D02*
X0337200Y0162900D01*
X0337200Y0165299D02*
X0337200Y0165299D01*
X0337200Y0167697D02*
X0337200Y0167697D01*
X0348921Y0117329D02*
X0299991Y0117329D01*
X0302390Y0114930D02*
X0348921Y0114930D01*
X0348921Y0112532D02*
X0302800Y0112532D01*
X0302800Y0110133D02*
X0348921Y0110133D01*
X0348921Y0107734D02*
X0300654Y0107734D01*
X0301984Y0105336D02*
X0348921Y0105336D01*
X0348921Y0102937D02*
X0302800Y0102937D01*
X0302800Y0100539D02*
X0348921Y0100539D01*
X0348921Y0098140D02*
X0301060Y0098140D01*
X0293340Y0098140D02*
X0291060Y0098140D01*
X0283340Y0098140D02*
X0281060Y0098140D01*
X0273340Y0098140D02*
X0271060Y0098140D01*
X0263340Y0098140D02*
X0261060Y0098140D01*
X0253340Y0098140D02*
X0251060Y0098140D01*
X0243340Y0098140D02*
X0241060Y0098140D01*
X0233340Y0098140D02*
X0231060Y0098140D01*
X0223340Y0098140D02*
X0221060Y0098140D01*
X0213340Y0098140D02*
X0211060Y0098140D01*
X0203340Y0098140D02*
X0201060Y0098140D01*
X0193340Y0098140D02*
X0191060Y0098140D01*
X0183340Y0098140D02*
X0181060Y0098140D01*
X0173340Y0098140D02*
X0171060Y0098140D01*
X0163340Y0098140D02*
X0161060Y0098140D01*
X0155931Y0095742D02*
X0348921Y0095742D01*
X0294409Y0117329D02*
X0289991Y0117329D01*
X0284409Y0117329D02*
X0279991Y0117329D01*
X0274409Y0117329D02*
X0269991Y0117329D01*
X0264409Y0117329D02*
X0259991Y0117329D01*
X0254409Y0117329D02*
X0249452Y0117329D01*
X0244948Y0117329D02*
X0229991Y0117329D01*
X0232390Y0114930D02*
X0232859Y0114930D01*
X0237200Y0114930D02*
X0237200Y0114930D01*
X0237200Y0112532D02*
X0237200Y0112532D01*
X0241541Y0114930D02*
X0242269Y0114930D01*
X0224409Y0117329D02*
X0219991Y0117329D01*
X0214409Y0117329D02*
X0209991Y0117329D01*
X0204409Y0117329D02*
X0199991Y0117329D01*
X0194409Y0117329D02*
X0189991Y0117329D01*
X0184409Y0117329D02*
X0179991Y0117329D01*
X0174409Y0117329D02*
X0159452Y0117329D01*
X0162131Y0114930D02*
X0162859Y0114930D01*
X0167200Y0114930D02*
X0167200Y0114930D01*
X0167200Y0112532D02*
X0167200Y0112532D01*
X0171541Y0114930D02*
X0172010Y0114930D01*
X0144409Y0117329D02*
X0139991Y0117329D01*
X0134409Y0117329D02*
X0129991Y0117329D01*
X0124409Y0117329D02*
X0119991Y0117329D01*
X0114409Y0117329D02*
X0109991Y0117329D01*
X0104409Y0117329D02*
X0099991Y0117329D01*
X0094409Y0117329D02*
X0089991Y0117329D01*
X0084409Y0117329D02*
X0079991Y0117329D01*
X0045000Y0135800D02*
X0019400Y0135800D01*
X0026522Y0131720D02*
X0037878Y0131720D01*
X0040155Y0141314D02*
X0024245Y0141314D01*
X0022809Y0148400D02*
X0019400Y0148400D01*
X0019400Y0153600D01*
X0019400Y0153600D01*
X0019400Y0158800D01*
X0022809Y0158800D01*
X0023618Y0158672D01*
X0024396Y0158419D01*
X0025125Y0158047D01*
X0025788Y0157566D01*
X0026366Y0156988D01*
X0026847Y0156325D01*
X0027219Y0155596D01*
X0027472Y0154818D01*
X0027600Y0154009D01*
X0027600Y0153600D01*
X0019400Y0153600D01*
X0019400Y0153600D01*
X0019400Y0158800D01*
X0015991Y0158800D01*
X0015182Y0158672D01*
X0014404Y0158419D01*
X0013675Y0158047D01*
X0013012Y0157566D01*
X0012434Y0156988D01*
X0011953Y0156325D01*
X0011581Y0155596D01*
X0011328Y0154818D01*
X0011200Y0154009D01*
X0011200Y0153600D01*
X0019400Y0153600D01*
X0027600Y0153600D01*
X0027600Y0153191D01*
X0027472Y0152382D01*
X0027219Y0151604D01*
X0026847Y0150875D01*
X0026366Y0150212D01*
X0025788Y0149634D01*
X0025125Y0149153D01*
X0024396Y0148781D01*
X0023618Y0148528D01*
X0022809Y0148400D01*
X0023499Y0148509D02*
X0040901Y0148509D01*
X0040782Y0148528D02*
X0041591Y0148400D01*
X0045000Y0148400D01*
X0048409Y0148400D01*
X0049218Y0148528D01*
X0049996Y0148781D01*
X0050725Y0149153D01*
X0051388Y0149634D01*
X0051966Y0150212D01*
X0052447Y0150875D01*
X0052819Y0151604D01*
X0053072Y0152382D01*
X0053200Y0153191D01*
X0053200Y0153600D01*
X0053200Y0154009D01*
X0053072Y0154818D01*
X0052819Y0155596D01*
X0052447Y0156325D01*
X0051966Y0156988D01*
X0051388Y0157566D01*
X0050725Y0158047D01*
X0049996Y0158419D01*
X0049218Y0158672D01*
X0048409Y0158800D01*
X0045000Y0158800D01*
X0045000Y0153600D01*
X0045000Y0153600D01*
X0053200Y0153600D01*
X0045000Y0153600D01*
X0045000Y0153600D01*
X0045000Y0158800D01*
X0041591Y0158800D01*
X0040782Y0158672D01*
X0040004Y0158419D01*
X0039275Y0158047D01*
X0038612Y0157566D01*
X0038034Y0156988D01*
X0037553Y0156325D01*
X0037181Y0155596D01*
X0036928Y0154818D01*
X0036800Y0154009D01*
X0036800Y0153600D01*
X0045000Y0153600D01*
X0045000Y0148400D01*
X0045000Y0153600D01*
X0045000Y0153600D01*
X0045000Y0153600D01*
X0036800Y0153600D01*
X0036800Y0153191D01*
X0036928Y0152382D01*
X0037181Y0151604D01*
X0037553Y0150875D01*
X0038034Y0150212D01*
X0038612Y0149634D01*
X0039275Y0149153D01*
X0040004Y0148781D01*
X0040782Y0148528D01*
X0037536Y0150908D02*
X0026864Y0150908D01*
X0027600Y0153306D02*
X0036800Y0153306D01*
X0037236Y0155705D02*
X0027164Y0155705D01*
X0025016Y0158103D02*
X0039384Y0158103D01*
X0040738Y0160502D02*
X0043661Y0160502D01*
X0045000Y0158103D02*
X0045000Y0158103D01*
X0045000Y0155705D02*
X0045000Y0155705D01*
X0045000Y0153306D02*
X0045000Y0153306D01*
X0045000Y0150908D02*
X0045000Y0150908D01*
X0045000Y0148509D02*
X0045000Y0148509D01*
X0049099Y0148509D02*
X0062045Y0148509D01*
X0062000Y0148791D02*
X0062128Y0147982D01*
X0062381Y0147204D01*
X0062753Y0146475D01*
X0063234Y0145812D01*
X0063812Y0145234D01*
X0064475Y0144753D01*
X0065204Y0144381D01*
X0065982Y0144128D01*
X0066791Y0144000D01*
X0067200Y0144000D01*
X0067200Y0152200D01*
X0067200Y0152200D01*
X0062000Y0152200D01*
X0062000Y0148791D01*
X0062000Y0150908D02*
X0052464Y0150908D01*
X0053200Y0153306D02*
X0062000Y0153306D01*
X0062015Y0155705D02*
X0052764Y0155705D01*
X0050616Y0158103D02*
X0062882Y0158103D01*
X0063661Y0160502D02*
X0060738Y0160502D01*
X0053661Y0160502D02*
X0050738Y0160502D01*
X0033661Y0160502D02*
X0029725Y0160502D01*
X0027200Y0160502D02*
X0027200Y0160502D01*
X0024675Y0160502D02*
X0020738Y0160502D01*
X0019400Y0158103D02*
X0019400Y0158103D01*
X0019400Y0155705D02*
X0019400Y0155705D01*
X0019400Y0153600D02*
X0019400Y0153600D01*
X0019400Y0153600D01*
X0019400Y0148400D01*
X0015991Y0148400D01*
X0015182Y0148528D01*
X0014404Y0148781D01*
X0013675Y0149153D01*
X0013012Y0149634D01*
X0012434Y0150212D01*
X0011953Y0150875D01*
X0011581Y0151604D01*
X0011328Y0152382D01*
X0011200Y0153191D01*
X0011200Y0153600D01*
X0019400Y0153600D01*
X0019400Y0153306D02*
X0019400Y0153306D01*
X0019400Y0150908D02*
X0019400Y0150908D01*
X0019400Y0148509D02*
X0019400Y0148509D01*
X0015301Y0148509D02*
X0005400Y0148509D01*
X0005400Y0146111D02*
X0063017Y0146111D01*
X0067200Y0146111D02*
X0067200Y0146111D01*
X0067200Y0148509D02*
X0067200Y0148509D01*
X0067200Y0150908D02*
X0067200Y0150908D01*
X0071383Y0146111D02*
X0072202Y0146111D01*
X0082198Y0146111D02*
X0082202Y0146111D01*
X0081929Y0172494D02*
X0082471Y0172494D01*
X0072471Y0172494D02*
X0071929Y0172494D01*
X0062471Y0172494D02*
X0061929Y0172494D01*
X0052471Y0172494D02*
X0051929Y0172494D01*
X0032471Y0172494D02*
X0031176Y0172494D01*
X0027200Y0172494D02*
X0027200Y0172494D01*
X0027200Y0170096D02*
X0027200Y0170096D01*
X0023224Y0172494D02*
X0021929Y0172494D01*
X0027200Y0167697D02*
X0027200Y0167697D01*
X0027200Y0165299D02*
X0027200Y0165299D01*
X0027200Y0162900D02*
X0027200Y0162900D01*
X0031695Y0162900D02*
X0032059Y0162900D01*
X0022705Y0162900D02*
X0022341Y0162900D01*
X0013661Y0160502D02*
X0005400Y0160502D01*
X0005400Y0158103D02*
X0013784Y0158103D01*
X0011636Y0155705D02*
X0005400Y0155705D01*
X0005400Y0153306D02*
X0011200Y0153306D01*
X0011936Y0150908D02*
X0005400Y0150908D01*
X0005400Y0162900D02*
X0012059Y0162900D01*
X0011800Y0165299D02*
X0005400Y0165299D01*
X0005400Y0167697D02*
X0011800Y0167697D01*
X0011800Y0170096D02*
X0005400Y0170096D01*
X0005400Y0172494D02*
X0012471Y0172494D01*
X0012572Y0122126D02*
X0005400Y0122126D01*
X0005400Y0119727D02*
X0011314Y0119727D01*
X0011200Y0118600D02*
X0011200Y0118191D01*
X0011328Y0117382D01*
X0011581Y0116604D01*
X0011953Y0115875D01*
X0012434Y0115212D01*
X0013012Y0114634D01*
X0013675Y0114153D01*
X0014404Y0113781D01*
X0015182Y0113528D01*
X0015991Y0113400D01*
X0019400Y0113400D01*
X0019400Y0118600D01*
X0019400Y0118600D01*
X0019400Y0118600D01*
X0011200Y0118600D01*
X0011346Y0117329D02*
X0005400Y0117329D01*
X0005400Y0114930D02*
X0012716Y0114930D01*
X0019400Y0114930D02*
X0019400Y0114930D01*
X0019400Y0117329D02*
X0019400Y0117329D01*
X0019400Y0119727D02*
X0019400Y0119727D01*
X0019400Y0122126D02*
X0019400Y0122126D01*
X0019400Y0071000D02*
X0015991Y0071000D01*
X0015182Y0070872D01*
X0014404Y0070619D01*
X0013675Y0070247D01*
X0013012Y0069766D01*
X0012434Y0069188D01*
X0011953Y0068525D01*
X0011581Y0067796D01*
X0011328Y0067018D01*
X0011200Y0066209D01*
X0011200Y0065800D01*
X0019400Y0065800D01*
X0019400Y0065800D01*
X0019400Y0065800D01*
X0019400Y0071000D01*
X0019400Y0069358D02*
X0019400Y0069358D01*
X0019400Y0066960D02*
X0019400Y0066960D01*
X0019400Y0065800D02*
X0011200Y0065800D01*
X0011200Y0065391D01*
X0011328Y0064582D01*
X0011581Y0063804D01*
X0011953Y0063075D01*
X0012434Y0062412D01*
X0013012Y0061834D01*
X0013675Y0061353D01*
X0014404Y0060981D01*
X0015182Y0060728D01*
X0015991Y0060600D01*
X0019400Y0060600D01*
X0019400Y0065800D01*
X0019400Y0064561D02*
X0019400Y0064561D01*
X0019400Y0062163D02*
X0019400Y0062163D01*
X0012683Y0062163D02*
X0005400Y0062163D01*
X0005400Y0064561D02*
X0011335Y0064561D01*
X0011319Y0066960D02*
X0005400Y0066960D01*
X0005400Y0069358D02*
X0012604Y0069358D01*
X0005400Y0059764D02*
X0348921Y0059764D01*
X0348921Y0057366D02*
X0005400Y0057366D01*
X0005400Y0054967D02*
X0348921Y0054967D01*
X0315023Y0040576D02*
X0309377Y0040576D01*
X0305023Y0040576D02*
X0299377Y0040576D01*
X0295023Y0040576D02*
X0289377Y0040576D01*
X0285023Y0040576D02*
X0279377Y0040576D01*
X0152200Y0097700D02*
X0152200Y0098200D01*
X0019400Y0052569D02*
X0019400Y0052569D01*
X0019400Y0050170D02*
X0019400Y0050170D01*
X0019400Y0048600D02*
X0019400Y0048600D01*
X0019400Y0048600D01*
X0019400Y0043400D01*
X0015991Y0043400D01*
X0015182Y0043528D01*
X0014404Y0043781D01*
X0013675Y0044153D01*
X0013012Y0044634D01*
X0012434Y0045212D01*
X0011953Y0045875D01*
X0011581Y0046604D01*
X0011328Y0047382D01*
X0011200Y0048191D01*
X0011200Y0048600D01*
X0019400Y0048600D01*
X0019400Y0047772D02*
X0019400Y0047772D01*
X0019400Y0045373D02*
X0019400Y0045373D01*
X0012317Y0045373D02*
X0005400Y0045373D01*
X0005400Y0047772D02*
X0011266Y0047772D01*
X0011443Y0050170D02*
X0005400Y0050170D01*
X0005400Y0052569D02*
X0013016Y0052569D01*
D15*
X0067200Y0074700D03*
X0077200Y0074700D03*
X0112200Y0037200D03*
X0112200Y0032200D03*
X0152200Y0032200D03*
X0152200Y0037200D03*
X0167200Y0074700D03*
X0177200Y0074700D03*
X0153700Y0077200D03*
X0153700Y0087700D03*
X0152200Y0098200D03*
X0152200Y0116200D03*
X0218700Y0147700D03*
X0223200Y0130700D03*
X0257200Y0134200D03*
X0263200Y0136700D03*
X0271700Y0136700D03*
X0257200Y0145700D03*
X0297200Y0144700D03*
X0302200Y0157200D03*
X0312200Y0157200D03*
X0327200Y0152200D03*
X0332200Y0139700D03*
X0332200Y0074700D03*
X0322200Y0074700D03*
X0312200Y0074700D03*
X0342200Y0074700D03*
X0247200Y0074700D03*
X0237200Y0074700D03*
D16*
X0153700Y0077200D02*
X0153700Y0087700D01*
X0152200Y0098200D02*
X0152200Y0116200D01*
X0218700Y0135200D02*
X0223200Y0130700D01*
X0218700Y0135200D02*
X0218700Y0147700D01*
X0257200Y0145700D02*
X0257200Y0134200D01*
X0263200Y0136700D02*
X0271700Y0136700D01*
X0302200Y0157200D02*
X0312200Y0157200D01*
X0327200Y0152200D02*
X0332200Y0157200D01*
X0332200Y0172200D01*
X0327200Y0177200D01*
X0267200Y0177200D01*
X0264700Y0174700D01*
X0259700Y0174700D01*
X0257200Y0172200D01*
X0257200Y0167200D01*
X0267200Y0167200D02*
X0267200Y0172200D01*
X0269700Y0174700D01*
X0319700Y0174700D01*
X0322200Y0172200D01*
X0322200Y0142200D01*
X0324700Y0139700D01*
X0332200Y0139700D01*
M02*
