%
M48
M72
T01C0.01575
T02C0.03200
T03C0.03600
T04C0.04000
%
T01
X112200Y32200
X112200Y37200
X152200Y37200
X152200Y32200
X167200Y74700
X177200Y74700
X153700Y77200
X153700Y87700
X152200Y98200
X152200Y116200
X218700Y147700
X223200Y130700
X257200Y134200
X263200Y136700
X271700Y136700
X257200Y145700
X297200Y144700
X302200Y157200
X312200Y157200
X327200Y152200
X332200Y139700
X332200Y74700
X322200Y74700
X312200Y74700
X342200Y74700
X247200Y74700
X237200Y74700
X77200Y74700
X67200Y74700
T02
X17200Y17200
X27200Y17200
X37200Y17200
X47200Y17200
X57200Y17200
X67200Y17200
X77200Y17200
X87200Y17200
X97200Y17200
X107200Y17200
X117200Y17200
X127200Y17200
X137200Y17200
X147200Y17200
X157200Y17200
X167200Y17200
X177200Y17200
X187200Y17200
X197200Y17200
X207200Y17200
X217200Y17200
X227200Y17200
X237200Y17200
X247200Y17200
X257200Y17200
X267200Y17200
X277200Y17200
X287200Y17200
X297200Y17200
X307200Y17200
X317200Y17200
X327200Y17200
X337200Y17200
X337200Y167200
X327200Y167200
X317200Y167200
X307200Y167200
X297200Y167200
X287200Y167200
X277200Y167200
X267200Y167200
X257200Y167200
X247200Y167200
X237200Y167200
X227200Y167200
X217200Y167200
X207200Y167200
X197200Y167200
X187200Y167200
X177200Y167200
X167200Y167200
X157200Y167200
X147200Y167200
X137200Y167200
X127200Y167200
X117200Y167200
X107200Y167200
X97200Y167200
X87200Y167200
X77200Y167200
X67200Y167200
X57200Y167200
X47200Y167200
X37200Y167200
X27200Y167200
X17200Y167200
T03
X67200Y112200
X77200Y112200
X87200Y112200
X97200Y112200
X107200Y112200
X117200Y112200
X127200Y112200
X137200Y112200
X147200Y112200
X157200Y112200
X167200Y112200
X177200Y112200
X187200Y112200
X197200Y112200
X207200Y112200
X217200Y112200
X227200Y112200
X237200Y112200
X247200Y112200
X257200Y112200
X267200Y112200
X277200Y112200
X287200Y112200
X297200Y112200
X297200Y102200
X287200Y102200
X277200Y102200
X267200Y102200
X257200Y102200
X247200Y102200
X237200Y102200
X227200Y102200
X217200Y102200
X207200Y102200
X197200Y102200
X187200Y102200
X177200Y102200
X167200Y102200
X157200Y102200
X147200Y102200
X137200Y102200
X127200Y102200
X117200Y102200
X107200Y102200
X97200Y102200
X87200Y102200
X77200Y102200
X67200Y102200
T04
X45000Y100800
X19400Y100800
X19400Y83600
X45000Y83600
X45000Y65800
X19400Y65800
X19400Y48600
X45000Y48600
X45000Y30800
X19400Y30800
X19400Y118600
X45000Y118600
X45000Y135800
X19400Y135800
X19400Y153600
X45000Y153600
X67200Y152200
X77200Y152200
X87200Y152200
X147200Y152200
X157200Y152200
X167200Y152200
X227200Y152700
X237200Y152700
X247200Y152700
X277200Y32200
X287200Y32200
X297200Y32200
X307200Y32200
X317200Y32200
M30
