G75*
%MOIN*%
%OFA0B0*%
%FSLAX25Y25*%
%IPPOS*%
%LPD*%
%AMOC8*
5,1,8,0,0,1.08239X$1,22.5*
%
%ADD10C,0.00200*%
%ADD11C,0.00600*%
%ADD12C,0.00500*%
%ADD13R,0.10000X0.10000*%
%ADD14R,0.00984X0.00984*%
D10*
X0027200Y0027700D02*
X0027200Y0028700D01*
X0037200Y0028700D01*
X0037200Y0027700D01*
X0037200Y0050700D02*
X0027700Y0050700D01*
X0027700Y0051700D01*
X0025978Y0053300D02*
X0024510Y0053300D01*
X0025244Y0053300D02*
X0025244Y0055502D01*
X0024510Y0054768D01*
X0023768Y0055135D02*
X0023401Y0055502D01*
X0022667Y0055502D01*
X0022300Y0055135D01*
X0022300Y0054768D01*
X0022667Y0054401D01*
X0023401Y0054401D01*
X0023768Y0054034D01*
X0023768Y0053667D01*
X0023401Y0053300D01*
X0022667Y0053300D01*
X0022300Y0053667D01*
X0037200Y0051700D02*
X0037200Y0050700D01*
X0036700Y0062700D02*
X0036700Y0063700D01*
X0027200Y0063700D01*
X0027200Y0062700D01*
X0065857Y0068397D02*
X0066224Y0068030D01*
X0067692Y0068030D01*
X0068059Y0068397D01*
X0068059Y0069131D01*
X0067692Y0069498D01*
X0066958Y0070240D02*
X0066958Y0071708D01*
X0065857Y0071341D02*
X0066958Y0070240D01*
X0066224Y0069498D02*
X0065857Y0069131D01*
X0065857Y0068397D01*
X0065857Y0071341D02*
X0068059Y0071341D01*
X0075857Y0070974D02*
X0078059Y0070974D01*
X0078059Y0070240D02*
X0078059Y0071708D01*
X0076591Y0070240D02*
X0075857Y0070974D01*
X0076224Y0069498D02*
X0075857Y0069131D01*
X0075857Y0068397D01*
X0076224Y0068030D01*
X0077692Y0068030D01*
X0078059Y0068397D01*
X0078059Y0069131D01*
X0077692Y0069498D01*
X0086298Y0069170D02*
X0086298Y0070271D01*
X0086665Y0070638D01*
X0087399Y0070638D01*
X0087766Y0070271D01*
X0087766Y0069170D01*
X0088500Y0069170D02*
X0086298Y0069170D01*
X0087766Y0069904D02*
X0088500Y0070638D01*
X0088500Y0071380D02*
X0087032Y0072848D01*
X0086665Y0072848D01*
X0086298Y0072481D01*
X0086298Y0071747D01*
X0086665Y0071380D01*
X0088500Y0071380D02*
X0088500Y0072848D01*
X0088133Y0073590D02*
X0088500Y0073957D01*
X0088500Y0074691D01*
X0088133Y0075058D01*
X0086665Y0075058D01*
X0086298Y0074691D01*
X0086298Y0073957D01*
X0086665Y0073590D01*
X0087032Y0073590D01*
X0087399Y0073957D01*
X0087399Y0075058D01*
X0096298Y0074691D02*
X0096665Y0075058D01*
X0097032Y0075058D01*
X0097399Y0074691D01*
X0097399Y0073957D01*
X0097032Y0073590D01*
X0096665Y0073590D01*
X0096298Y0073957D01*
X0096298Y0074691D01*
X0097399Y0074691D02*
X0097766Y0075058D01*
X0098133Y0075058D01*
X0098500Y0074691D01*
X0098500Y0073957D01*
X0098133Y0073590D01*
X0097766Y0073590D01*
X0097399Y0073957D01*
X0097032Y0072848D02*
X0096665Y0072848D01*
X0096298Y0072481D01*
X0096298Y0071747D01*
X0096665Y0071380D01*
X0096665Y0070638D02*
X0097399Y0070638D01*
X0097766Y0070271D01*
X0097766Y0069170D01*
X0098500Y0069170D02*
X0096298Y0069170D01*
X0096298Y0070271D01*
X0096665Y0070638D01*
X0097766Y0069904D02*
X0098500Y0070638D01*
X0098500Y0071380D02*
X0097032Y0072848D01*
X0098500Y0072848D02*
X0098500Y0071380D01*
X0106298Y0071747D02*
X0106665Y0071380D01*
X0106298Y0071747D02*
X0106298Y0072481D01*
X0106665Y0072848D01*
X0107032Y0072848D01*
X0108500Y0071380D01*
X0108500Y0072848D01*
X0108500Y0073590D02*
X0108500Y0075058D01*
X0108500Y0074324D02*
X0106298Y0074324D01*
X0107032Y0073590D01*
X0106665Y0070638D02*
X0106298Y0070271D01*
X0106298Y0069170D01*
X0108500Y0069170D01*
X0107766Y0069170D02*
X0107766Y0070271D01*
X0107399Y0070638D01*
X0106665Y0070638D01*
X0107766Y0069904D02*
X0108500Y0070638D01*
X0116298Y0070271D02*
X0116665Y0070638D01*
X0117399Y0070638D01*
X0117766Y0070271D01*
X0117766Y0069170D01*
X0118500Y0069170D02*
X0116298Y0069170D01*
X0116298Y0070271D01*
X0116665Y0071380D02*
X0116298Y0071747D01*
X0116298Y0072481D01*
X0116665Y0072848D01*
X0117032Y0072848D01*
X0118500Y0071380D01*
X0118500Y0072848D01*
X0118500Y0073590D02*
X0118133Y0073590D01*
X0116665Y0075058D01*
X0116298Y0075058D01*
X0116298Y0073590D01*
X0118500Y0070638D02*
X0117766Y0069904D01*
X0136298Y0070271D02*
X0136665Y0070638D01*
X0137399Y0070638D01*
X0137766Y0070271D01*
X0137766Y0069170D01*
X0138500Y0069170D02*
X0136298Y0069170D01*
X0136298Y0070271D01*
X0136665Y0071380D02*
X0136298Y0071747D01*
X0136298Y0072481D01*
X0136665Y0072848D01*
X0137032Y0072848D01*
X0138500Y0071380D01*
X0138500Y0072848D01*
X0138133Y0073590D02*
X0138500Y0073957D01*
X0138500Y0074691D01*
X0138133Y0075058D01*
X0137766Y0075058D01*
X0137399Y0074691D01*
X0137399Y0073590D01*
X0138133Y0073590D01*
X0137399Y0073590D02*
X0136665Y0074324D01*
X0136298Y0075058D01*
X0138500Y0070638D02*
X0137766Y0069904D01*
X0146298Y0070271D02*
X0146665Y0070638D01*
X0147399Y0070638D01*
X0147766Y0070271D01*
X0147766Y0069170D01*
X0148500Y0069170D02*
X0146298Y0069170D01*
X0146298Y0070271D01*
X0146665Y0071380D02*
X0146298Y0071747D01*
X0146298Y0072481D01*
X0146665Y0072848D01*
X0147032Y0072848D01*
X0148500Y0071380D01*
X0148500Y0072848D01*
X0148133Y0073590D02*
X0148500Y0073957D01*
X0148500Y0074691D01*
X0148133Y0075058D01*
X0147399Y0075058D01*
X0147032Y0074691D01*
X0147032Y0074324D01*
X0147399Y0073590D01*
X0146298Y0073590D01*
X0146298Y0075058D01*
X0148500Y0070638D02*
X0147766Y0069904D01*
X0165857Y0070240D02*
X0166958Y0070240D01*
X0166591Y0070974D01*
X0166591Y0071341D01*
X0166958Y0071708D01*
X0167692Y0071708D01*
X0168059Y0071341D01*
X0168059Y0070607D01*
X0167692Y0070240D01*
X0167692Y0069498D02*
X0168059Y0069131D01*
X0168059Y0068397D01*
X0167692Y0068030D01*
X0166224Y0068030D01*
X0165857Y0068397D01*
X0165857Y0069131D01*
X0166224Y0069498D01*
X0165857Y0070240D02*
X0165857Y0071708D01*
X0175857Y0071341D02*
X0175857Y0070607D01*
X0176224Y0070240D01*
X0176224Y0069498D02*
X0175857Y0069131D01*
X0175857Y0068397D01*
X0176224Y0068030D01*
X0177692Y0068030D01*
X0178059Y0068397D01*
X0178059Y0069131D01*
X0177692Y0069498D01*
X0178059Y0070240D02*
X0176591Y0071708D01*
X0176224Y0071708D01*
X0175857Y0071341D01*
X0178059Y0071708D02*
X0178059Y0070240D01*
X0186298Y0070271D02*
X0186665Y0070638D01*
X0187399Y0070638D01*
X0187766Y0070271D01*
X0187766Y0069170D01*
X0188500Y0069170D02*
X0186298Y0069170D01*
X0186298Y0070271D01*
X0186665Y0071380D02*
X0186298Y0071747D01*
X0186298Y0072481D01*
X0186665Y0072848D01*
X0187032Y0072848D01*
X0188500Y0071380D01*
X0188500Y0072848D01*
X0188133Y0073590D02*
X0188500Y0073957D01*
X0188500Y0074691D01*
X0188133Y0075058D01*
X0187766Y0075058D01*
X0187399Y0074691D01*
X0187399Y0074324D01*
X0187399Y0074691D02*
X0187032Y0075058D01*
X0186665Y0075058D01*
X0186298Y0074691D01*
X0186298Y0073957D01*
X0186665Y0073590D01*
X0188500Y0070638D02*
X0187766Y0069904D01*
X0196298Y0070271D02*
X0196665Y0070638D01*
X0197399Y0070638D01*
X0197766Y0070271D01*
X0197766Y0069170D01*
X0198500Y0069170D02*
X0196298Y0069170D01*
X0196298Y0070271D01*
X0196665Y0071380D02*
X0196298Y0071747D01*
X0196298Y0072481D01*
X0196665Y0072848D01*
X0197032Y0072848D01*
X0198500Y0071380D01*
X0198500Y0072848D01*
X0198500Y0073590D02*
X0197032Y0075058D01*
X0196665Y0075058D01*
X0196298Y0074691D01*
X0196298Y0073957D01*
X0196665Y0073590D01*
X0198500Y0073590D02*
X0198500Y0075058D01*
X0206298Y0075058D02*
X0206298Y0073590D01*
X0207399Y0073590D01*
X0207032Y0074324D01*
X0207032Y0074691D01*
X0207399Y0075058D01*
X0208133Y0075058D01*
X0208500Y0074691D01*
X0208500Y0073957D01*
X0208133Y0073590D01*
X0208500Y0072848D02*
X0208500Y0071380D01*
X0208500Y0072114D02*
X0206298Y0072114D01*
X0207032Y0071380D01*
X0206665Y0070638D02*
X0207399Y0070638D01*
X0207766Y0070271D01*
X0207766Y0069170D01*
X0208500Y0069170D02*
X0206298Y0069170D01*
X0206298Y0070271D01*
X0206665Y0070638D01*
X0207766Y0069904D02*
X0208500Y0070638D01*
X0198500Y0070638D02*
X0197766Y0069904D01*
X0216298Y0070271D02*
X0216665Y0070638D01*
X0217399Y0070638D01*
X0217766Y0070271D01*
X0217766Y0069170D01*
X0218500Y0069170D02*
X0216298Y0069170D01*
X0216298Y0070271D01*
X0216665Y0071380D02*
X0216298Y0071747D01*
X0216298Y0072481D01*
X0216665Y0072848D01*
X0217032Y0072848D01*
X0218500Y0071380D01*
X0218500Y0072848D01*
X0218133Y0073590D02*
X0216665Y0075058D01*
X0218133Y0075058D01*
X0218500Y0074691D01*
X0218500Y0073957D01*
X0218133Y0073590D01*
X0216665Y0073590D01*
X0216298Y0073957D01*
X0216298Y0074691D01*
X0216665Y0075058D01*
X0218500Y0070638D02*
X0217766Y0069904D01*
X0235857Y0069131D02*
X0235857Y0068397D01*
X0236224Y0068030D01*
X0237692Y0068030D01*
X0238059Y0068397D01*
X0238059Y0069131D01*
X0237692Y0069498D01*
X0237692Y0070240D02*
X0238059Y0070607D01*
X0238059Y0071341D01*
X0237692Y0071708D01*
X0237325Y0071708D01*
X0236958Y0071341D01*
X0236958Y0070240D01*
X0237692Y0070240D01*
X0236958Y0070240D02*
X0236224Y0070974D01*
X0235857Y0071708D01*
X0236224Y0069498D02*
X0235857Y0069131D01*
X0246357Y0069131D02*
X0246357Y0068397D01*
X0246724Y0068030D01*
X0248192Y0068030D01*
X0248559Y0068397D01*
X0248559Y0069131D01*
X0248192Y0069498D01*
X0248192Y0070240D02*
X0248559Y0070607D01*
X0248559Y0071341D01*
X0248192Y0071708D01*
X0247825Y0071708D01*
X0247458Y0071341D01*
X0247458Y0070974D01*
X0247458Y0071341D02*
X0247091Y0071708D01*
X0246724Y0071708D01*
X0246357Y0071341D01*
X0246357Y0070607D01*
X0246724Y0070240D01*
X0246724Y0069498D02*
X0246357Y0069131D01*
X0256298Y0069170D02*
X0256298Y0070271D01*
X0256665Y0070638D01*
X0257399Y0070638D01*
X0257766Y0070271D01*
X0257766Y0069170D01*
X0258500Y0069170D02*
X0256298Y0069170D01*
X0257766Y0069904D02*
X0258500Y0070638D01*
X0258500Y0071380D02*
X0258500Y0072848D01*
X0258500Y0072114D02*
X0256298Y0072114D01*
X0257032Y0071380D01*
X0257032Y0073590D02*
X0257399Y0073957D01*
X0257399Y0075058D01*
X0256665Y0075058D02*
X0256298Y0074691D01*
X0256298Y0073957D01*
X0256665Y0073590D01*
X0257032Y0073590D01*
X0258133Y0073590D02*
X0258500Y0073957D01*
X0258500Y0074691D01*
X0258133Y0075058D01*
X0256665Y0075058D01*
X0265798Y0074691D02*
X0266165Y0075058D01*
X0266532Y0075058D01*
X0266899Y0074691D01*
X0266899Y0073957D01*
X0266532Y0073590D01*
X0266165Y0073590D01*
X0265798Y0073957D01*
X0265798Y0074691D01*
X0266899Y0074691D02*
X0267266Y0075058D01*
X0267633Y0075058D01*
X0268000Y0074691D01*
X0268000Y0073957D01*
X0267633Y0073590D01*
X0267266Y0073590D01*
X0266899Y0073957D01*
X0268000Y0072848D02*
X0268000Y0071380D01*
X0268000Y0072114D02*
X0265798Y0072114D01*
X0266532Y0071380D01*
X0266165Y0070638D02*
X0265798Y0070271D01*
X0265798Y0069170D01*
X0268000Y0069170D01*
X0267266Y0069170D02*
X0267266Y0070271D01*
X0266899Y0070638D01*
X0266165Y0070638D01*
X0267266Y0069904D02*
X0268000Y0070638D01*
X0275798Y0069771D02*
X0275798Y0068670D01*
X0278000Y0068670D01*
X0277266Y0068670D02*
X0277266Y0069771D01*
X0276899Y0070138D01*
X0276165Y0070138D01*
X0275798Y0069771D01*
X0276532Y0070880D02*
X0275798Y0071614D01*
X0278000Y0071614D01*
X0278000Y0070880D02*
X0278000Y0072348D01*
X0278000Y0073090D02*
X0277633Y0073090D01*
X0276165Y0074558D01*
X0275798Y0074558D01*
X0275798Y0073090D01*
X0278000Y0070138D02*
X0277266Y0069404D01*
X0286298Y0069170D02*
X0286298Y0070271D01*
X0286665Y0070638D01*
X0287399Y0070638D01*
X0287766Y0070271D01*
X0287766Y0069170D01*
X0288500Y0069170D02*
X0286298Y0069170D01*
X0287766Y0069904D02*
X0288500Y0070638D01*
X0288500Y0071380D02*
X0288500Y0072848D01*
X0288500Y0072114D02*
X0286298Y0072114D01*
X0287032Y0071380D01*
X0287399Y0073590D02*
X0286665Y0074324D01*
X0286298Y0075058D01*
X0287399Y0074691D02*
X0287399Y0073590D01*
X0288133Y0073590D01*
X0288500Y0073957D01*
X0288500Y0074691D01*
X0288133Y0075058D01*
X0287766Y0075058D01*
X0287399Y0074691D01*
X0306398Y0077800D02*
X0308600Y0077800D01*
X0308600Y0079268D01*
X0308600Y0080010D02*
X0308600Y0081478D01*
X0308600Y0082220D02*
X0308600Y0083321D01*
X0308233Y0083688D01*
X0306765Y0083688D01*
X0306398Y0083321D01*
X0306398Y0082220D01*
X0308600Y0082220D01*
X0307499Y0080744D02*
X0307499Y0080010D01*
X0306398Y0080010D02*
X0308600Y0080010D01*
X0306398Y0080010D02*
X0306398Y0081478D01*
X0307499Y0084430D02*
X0307499Y0085898D01*
X0306398Y0085531D02*
X0307499Y0084430D01*
X0308600Y0085531D02*
X0306398Y0085531D01*
X0316398Y0085531D02*
X0316765Y0085898D01*
X0317132Y0085898D01*
X0317499Y0085531D01*
X0317866Y0085898D01*
X0318233Y0085898D01*
X0318600Y0085531D01*
X0318600Y0084797D01*
X0318233Y0084430D01*
X0318233Y0083688D02*
X0316765Y0083688D01*
X0316398Y0083321D01*
X0316398Y0082220D01*
X0318600Y0082220D01*
X0318600Y0083321D01*
X0318233Y0083688D01*
X0316765Y0084430D02*
X0316398Y0084797D01*
X0316398Y0085531D01*
X0317499Y0085531D02*
X0317499Y0085164D01*
X0316398Y0081478D02*
X0316398Y0080010D01*
X0318600Y0080010D01*
X0318600Y0081478D01*
X0317499Y0080744D02*
X0317499Y0080010D01*
X0318600Y0079268D02*
X0318600Y0077800D01*
X0316398Y0077800D01*
X0326398Y0077800D02*
X0328600Y0077800D01*
X0328600Y0079268D01*
X0328600Y0080010D02*
X0328600Y0081478D01*
X0328600Y0082220D02*
X0328600Y0083321D01*
X0328233Y0083688D01*
X0326765Y0083688D01*
X0326398Y0083321D01*
X0326398Y0082220D01*
X0328600Y0082220D01*
X0327499Y0080744D02*
X0327499Y0080010D01*
X0326398Y0080010D02*
X0328600Y0080010D01*
X0326398Y0080010D02*
X0326398Y0081478D01*
X0326765Y0084430D02*
X0326398Y0084797D01*
X0326398Y0085531D01*
X0326765Y0085898D01*
X0327132Y0085898D01*
X0328600Y0084430D01*
X0328600Y0085898D01*
X0336398Y0085164D02*
X0338600Y0085164D01*
X0338600Y0084430D02*
X0338600Y0085898D01*
X0337132Y0084430D02*
X0336398Y0085164D01*
X0336765Y0083688D02*
X0336398Y0083321D01*
X0336398Y0082220D01*
X0338600Y0082220D01*
X0338600Y0083321D01*
X0338233Y0083688D01*
X0336765Y0083688D01*
X0336398Y0081478D02*
X0336398Y0080010D01*
X0338600Y0080010D01*
X0338600Y0081478D01*
X0337499Y0080744D02*
X0337499Y0080010D01*
X0338600Y0079268D02*
X0338600Y0077800D01*
X0336398Y0077800D01*
X0335898Y0093800D02*
X0335898Y0094901D01*
X0336265Y0095268D01*
X0336999Y0095268D01*
X0337366Y0094901D01*
X0337366Y0093800D01*
X0337366Y0094534D02*
X0338100Y0095268D01*
X0337733Y0096010D02*
X0338100Y0096377D01*
X0338100Y0097111D01*
X0337733Y0097478D01*
X0337366Y0097478D01*
X0336999Y0097111D01*
X0336999Y0096744D01*
X0336999Y0097111D02*
X0336632Y0097478D01*
X0336265Y0097478D01*
X0335898Y0097111D01*
X0335898Y0096377D01*
X0336265Y0096010D01*
X0336265Y0098220D02*
X0335898Y0098587D01*
X0335898Y0099321D01*
X0336265Y0099688D01*
X0337733Y0098220D01*
X0338100Y0098587D01*
X0338100Y0099321D01*
X0337733Y0099688D01*
X0336265Y0099688D01*
X0336265Y0098220D02*
X0337733Y0098220D01*
X0338100Y0093800D02*
X0335898Y0093800D01*
X0328100Y0093800D02*
X0325898Y0093800D01*
X0325898Y0094901D01*
X0326265Y0095268D01*
X0326999Y0095268D01*
X0327366Y0094901D01*
X0327366Y0093800D01*
X0327366Y0094534D02*
X0328100Y0095268D01*
X0327733Y0096010D02*
X0328100Y0096377D01*
X0328100Y0097111D01*
X0327733Y0097478D01*
X0327366Y0097478D01*
X0326999Y0097111D01*
X0326999Y0096744D01*
X0326999Y0097111D02*
X0326632Y0097478D01*
X0326265Y0097478D01*
X0325898Y0097111D01*
X0325898Y0096377D01*
X0326265Y0096010D01*
X0326632Y0098220D02*
X0325898Y0098954D01*
X0328100Y0098954D01*
X0328100Y0098220D02*
X0328100Y0099688D01*
X0318100Y0099688D02*
X0318100Y0098220D01*
X0316632Y0099688D01*
X0316265Y0099688D01*
X0315898Y0099321D01*
X0315898Y0098587D01*
X0316265Y0098220D01*
X0316265Y0097478D02*
X0316632Y0097478D01*
X0316999Y0097111D01*
X0317366Y0097478D01*
X0317733Y0097478D01*
X0318100Y0097111D01*
X0318100Y0096377D01*
X0317733Y0096010D01*
X0318100Y0095268D02*
X0317366Y0094534D01*
X0317366Y0094901D02*
X0317366Y0093800D01*
X0318100Y0093800D02*
X0315898Y0093800D01*
X0315898Y0094901D01*
X0316265Y0095268D01*
X0316999Y0095268D01*
X0317366Y0094901D01*
X0316265Y0096010D02*
X0315898Y0096377D01*
X0315898Y0097111D01*
X0316265Y0097478D01*
X0316999Y0097111D02*
X0316999Y0096744D01*
X0308100Y0097111D02*
X0308100Y0096377D01*
X0307733Y0096010D01*
X0308100Y0095268D02*
X0307366Y0094534D01*
X0307366Y0094901D02*
X0307366Y0093800D01*
X0308100Y0093800D02*
X0305898Y0093800D01*
X0305898Y0094901D01*
X0306265Y0095268D01*
X0306999Y0095268D01*
X0307366Y0094901D01*
X0306265Y0096010D02*
X0305898Y0096377D01*
X0305898Y0097111D01*
X0306265Y0097478D01*
X0306632Y0097478D01*
X0306999Y0097111D01*
X0307366Y0097478D01*
X0307733Y0097478D01*
X0308100Y0097111D01*
X0306999Y0097111D02*
X0306999Y0096744D01*
X0306265Y0098220D02*
X0305898Y0098587D01*
X0305898Y0099321D01*
X0306265Y0099688D01*
X0306632Y0099688D01*
X0306999Y0099321D01*
X0307366Y0099688D01*
X0307733Y0099688D01*
X0308100Y0099321D01*
X0308100Y0098587D01*
X0307733Y0098220D01*
X0306999Y0098954D02*
X0306999Y0099321D01*
X0298100Y0133800D02*
X0295898Y0133800D01*
X0295898Y0134901D01*
X0296265Y0135268D01*
X0296999Y0135268D01*
X0297366Y0134901D01*
X0297366Y0133800D01*
X0297366Y0134534D02*
X0298100Y0135268D01*
X0296999Y0136010D02*
X0296999Y0137478D01*
X0295898Y0137111D02*
X0296999Y0136010D01*
X0298100Y0137111D02*
X0295898Y0137111D01*
X0288100Y0137111D02*
X0285898Y0137111D01*
X0286999Y0136010D01*
X0286999Y0137478D01*
X0286265Y0138220D02*
X0285898Y0138587D01*
X0285898Y0139321D01*
X0286265Y0139688D01*
X0286632Y0139688D01*
X0286999Y0139321D01*
X0287366Y0139688D01*
X0287733Y0139688D01*
X0288100Y0139321D01*
X0288100Y0138587D01*
X0287733Y0138220D01*
X0286999Y0138954D02*
X0286999Y0139321D01*
X0286999Y0135268D02*
X0287366Y0134901D01*
X0287366Y0133800D01*
X0287366Y0134534D02*
X0288100Y0135268D01*
X0286999Y0135268D02*
X0286265Y0135268D01*
X0285898Y0134901D01*
X0285898Y0133800D01*
X0288100Y0133800D01*
X0278100Y0133800D02*
X0275898Y0133800D01*
X0275898Y0134901D01*
X0276265Y0135268D01*
X0276999Y0135268D01*
X0277366Y0134901D01*
X0277366Y0133800D01*
X0277366Y0134534D02*
X0278100Y0135268D01*
X0276999Y0136010D02*
X0276999Y0137478D01*
X0276265Y0138220D02*
X0275898Y0138587D01*
X0275898Y0139321D01*
X0276265Y0139688D01*
X0276632Y0139688D01*
X0278100Y0138220D01*
X0278100Y0139688D01*
X0278100Y0137111D02*
X0275898Y0137111D01*
X0276999Y0136010D01*
X0268100Y0135268D02*
X0267366Y0134534D01*
X0267366Y0134901D02*
X0267366Y0133800D01*
X0268100Y0133800D02*
X0265898Y0133800D01*
X0265898Y0134901D01*
X0266265Y0135268D01*
X0266999Y0135268D01*
X0267366Y0134901D01*
X0266999Y0136010D02*
X0266999Y0137478D01*
X0266632Y0138220D02*
X0265898Y0138954D01*
X0268100Y0138954D01*
X0268100Y0138220D02*
X0268100Y0139688D01*
X0268100Y0137111D02*
X0265898Y0137111D01*
X0266999Y0136010D01*
X0258100Y0136300D02*
X0255898Y0136300D01*
X0255898Y0137401D01*
X0256265Y0137768D01*
X0256999Y0137768D01*
X0257366Y0137401D01*
X0257366Y0136300D01*
X0257366Y0137034D02*
X0258100Y0137768D01*
X0256999Y0138510D02*
X0256999Y0139978D01*
X0256265Y0140720D02*
X0255898Y0141087D01*
X0255898Y0141821D01*
X0256265Y0142188D01*
X0257733Y0140720D01*
X0258100Y0141087D01*
X0258100Y0141821D01*
X0257733Y0142188D01*
X0256265Y0142188D01*
X0256265Y0140720D02*
X0257733Y0140720D01*
X0258100Y0139611D02*
X0255898Y0139611D01*
X0256999Y0138510D01*
X0248600Y0138587D02*
X0248233Y0138220D01*
X0248600Y0138587D02*
X0248600Y0139321D01*
X0248233Y0139688D01*
X0246765Y0139688D01*
X0246398Y0139321D01*
X0246398Y0138587D01*
X0246765Y0138220D01*
X0247132Y0138220D01*
X0247499Y0138587D01*
X0247499Y0139688D01*
X0247132Y0137478D02*
X0247499Y0137111D01*
X0247866Y0137478D01*
X0248233Y0137478D01*
X0248600Y0137111D01*
X0248600Y0136377D01*
X0248233Y0136010D01*
X0248600Y0135268D02*
X0247866Y0134534D01*
X0247866Y0134901D02*
X0247866Y0133800D01*
X0248600Y0133800D02*
X0246398Y0133800D01*
X0246398Y0134901D01*
X0246765Y0135268D01*
X0247499Y0135268D01*
X0247866Y0134901D01*
X0246765Y0136010D02*
X0246398Y0136377D01*
X0246398Y0137111D01*
X0246765Y0137478D01*
X0247132Y0137478D01*
X0247499Y0137111D02*
X0247499Y0136744D01*
X0228100Y0137111D02*
X0228100Y0136377D01*
X0227733Y0136010D01*
X0226999Y0136010D02*
X0226632Y0136744D01*
X0226632Y0137111D01*
X0226999Y0137478D01*
X0227733Y0137478D01*
X0228100Y0137111D01*
X0226999Y0136010D02*
X0225898Y0136010D01*
X0225898Y0137478D01*
X0226265Y0135268D02*
X0226999Y0135268D01*
X0227366Y0134901D01*
X0227366Y0133800D01*
X0227366Y0134534D02*
X0228100Y0135268D01*
X0228100Y0133800D02*
X0225898Y0133800D01*
X0225898Y0134901D01*
X0226265Y0135268D01*
X0218600Y0135268D02*
X0217866Y0134534D01*
X0217866Y0134901D02*
X0217866Y0133800D01*
X0218600Y0133800D02*
X0216398Y0133800D01*
X0216398Y0134901D01*
X0216765Y0135268D01*
X0217499Y0135268D01*
X0217866Y0134901D01*
X0218233Y0136010D02*
X0218600Y0136377D01*
X0218600Y0137111D01*
X0218233Y0137478D01*
X0217866Y0137478D01*
X0217499Y0137111D01*
X0217499Y0136744D01*
X0217499Y0137111D02*
X0217132Y0137478D01*
X0216765Y0137478D01*
X0216398Y0137111D01*
X0216398Y0136377D01*
X0216765Y0136010D01*
X0216765Y0138220D02*
X0217132Y0138220D01*
X0217499Y0138587D01*
X0217499Y0139321D01*
X0217866Y0139688D01*
X0218233Y0139688D01*
X0218600Y0139321D01*
X0218600Y0138587D01*
X0218233Y0138220D01*
X0217866Y0138220D01*
X0217499Y0138587D01*
X0217499Y0139321D02*
X0217132Y0139688D01*
X0216765Y0139688D01*
X0216398Y0139321D01*
X0216398Y0138587D01*
X0216765Y0138220D01*
X0208100Y0138220D02*
X0207733Y0138220D01*
X0206265Y0139688D01*
X0205898Y0139688D01*
X0205898Y0138220D01*
X0206265Y0137478D02*
X0206632Y0137478D01*
X0206999Y0137111D01*
X0207366Y0137478D01*
X0207733Y0137478D01*
X0208100Y0137111D01*
X0208100Y0136377D01*
X0207733Y0136010D01*
X0208100Y0135268D02*
X0207366Y0134534D01*
X0207366Y0134901D02*
X0207366Y0133800D01*
X0208100Y0133800D02*
X0205898Y0133800D01*
X0205898Y0134901D01*
X0206265Y0135268D01*
X0206999Y0135268D01*
X0207366Y0134901D01*
X0206265Y0136010D02*
X0205898Y0136377D01*
X0205898Y0137111D01*
X0206265Y0137478D01*
X0206999Y0137111D02*
X0206999Y0136744D01*
X0198100Y0137111D02*
X0198100Y0136377D01*
X0197733Y0136010D01*
X0198100Y0135268D02*
X0197366Y0134534D01*
X0197366Y0134901D02*
X0197366Y0133800D01*
X0198100Y0133800D02*
X0195898Y0133800D01*
X0195898Y0134901D01*
X0196265Y0135268D01*
X0196999Y0135268D01*
X0197366Y0134901D01*
X0196265Y0136010D02*
X0195898Y0136377D01*
X0195898Y0137111D01*
X0196265Y0137478D01*
X0196632Y0137478D01*
X0196999Y0137111D01*
X0197366Y0137478D01*
X0197733Y0137478D01*
X0198100Y0137111D01*
X0196999Y0137111D02*
X0196999Y0136744D01*
X0196999Y0138220D02*
X0196999Y0139321D01*
X0197366Y0139688D01*
X0197733Y0139688D01*
X0198100Y0139321D01*
X0198100Y0138587D01*
X0197733Y0138220D01*
X0196999Y0138220D01*
X0196265Y0138954D01*
X0195898Y0139688D01*
X0188100Y0139321D02*
X0188100Y0138587D01*
X0187733Y0138220D01*
X0186999Y0138220D02*
X0186632Y0138954D01*
X0186632Y0139321D01*
X0186999Y0139688D01*
X0187733Y0139688D01*
X0188100Y0139321D01*
X0186999Y0138220D02*
X0185898Y0138220D01*
X0185898Y0139688D01*
X0186265Y0137478D02*
X0186632Y0137478D01*
X0186999Y0137111D01*
X0187366Y0137478D01*
X0187733Y0137478D01*
X0188100Y0137111D01*
X0188100Y0136377D01*
X0187733Y0136010D01*
X0188100Y0135268D02*
X0187366Y0134534D01*
X0187366Y0134901D02*
X0187366Y0133800D01*
X0188100Y0133800D02*
X0185898Y0133800D01*
X0185898Y0134901D01*
X0186265Y0135268D01*
X0186999Y0135268D01*
X0187366Y0134901D01*
X0186265Y0136010D02*
X0185898Y0136377D01*
X0185898Y0137111D01*
X0186265Y0137478D01*
X0186999Y0137111D02*
X0186999Y0136744D01*
X0178100Y0137111D02*
X0178100Y0136377D01*
X0177733Y0136010D01*
X0178100Y0135268D02*
X0177366Y0134534D01*
X0177366Y0134901D02*
X0177366Y0133800D01*
X0178100Y0133800D02*
X0175898Y0133800D01*
X0175898Y0134901D01*
X0176265Y0135268D01*
X0176999Y0135268D01*
X0177366Y0134901D01*
X0176265Y0136010D02*
X0175898Y0136377D01*
X0175898Y0137111D01*
X0176265Y0137478D01*
X0176632Y0137478D01*
X0176999Y0137111D01*
X0177366Y0137478D01*
X0177733Y0137478D01*
X0178100Y0137111D01*
X0176999Y0137111D02*
X0176999Y0136744D01*
X0176999Y0138220D02*
X0176999Y0139688D01*
X0175898Y0139321D02*
X0176999Y0138220D01*
X0178100Y0139321D02*
X0175898Y0139321D01*
X0148100Y0138800D02*
X0145898Y0138800D01*
X0145898Y0139901D01*
X0146265Y0140268D01*
X0146999Y0140268D01*
X0147366Y0139901D01*
X0147366Y0138800D01*
X0147366Y0139534D02*
X0148100Y0140268D01*
X0148100Y0141010D02*
X0146632Y0142478D01*
X0146265Y0142478D01*
X0145898Y0142111D01*
X0145898Y0141377D01*
X0146265Y0141010D01*
X0148100Y0141010D02*
X0148100Y0142478D01*
X0146999Y0143220D02*
X0146999Y0144688D01*
X0145898Y0144321D02*
X0146999Y0143220D01*
X0148100Y0144321D02*
X0145898Y0144321D01*
X0138100Y0142111D02*
X0138100Y0141377D01*
X0137733Y0141010D01*
X0137366Y0141010D01*
X0136999Y0141377D01*
X0136999Y0142111D01*
X0137366Y0142478D01*
X0137733Y0142478D01*
X0138100Y0142111D01*
X0136999Y0142111D02*
X0136632Y0142478D01*
X0136265Y0142478D01*
X0135898Y0142111D01*
X0135898Y0141377D01*
X0136265Y0141010D01*
X0136632Y0141010D01*
X0136999Y0141377D01*
X0136999Y0140268D02*
X0137366Y0139901D01*
X0137366Y0138800D01*
X0137366Y0139534D02*
X0138100Y0140268D01*
X0136999Y0140268D02*
X0136265Y0140268D01*
X0135898Y0139901D01*
X0135898Y0138800D01*
X0138100Y0138800D01*
X0128100Y0138800D02*
X0125898Y0138800D01*
X0125898Y0139901D01*
X0126265Y0140268D01*
X0126999Y0140268D01*
X0127366Y0139901D01*
X0127366Y0138800D01*
X0127366Y0139534D02*
X0128100Y0140268D01*
X0127733Y0141010D02*
X0128100Y0141377D01*
X0128100Y0142111D01*
X0127733Y0142478D01*
X0126265Y0142478D01*
X0125898Y0142111D01*
X0125898Y0141377D01*
X0126265Y0141010D01*
X0126632Y0141010D01*
X0126999Y0141377D01*
X0126999Y0142478D01*
X0118100Y0142478D02*
X0118100Y0141010D01*
X0118100Y0141744D02*
X0115898Y0141744D01*
X0116632Y0141010D01*
X0116265Y0140268D02*
X0116999Y0140268D01*
X0117366Y0139901D01*
X0117366Y0138800D01*
X0117366Y0139534D02*
X0118100Y0140268D01*
X0118100Y0138800D02*
X0115898Y0138800D01*
X0115898Y0139901D01*
X0116265Y0140268D01*
X0116265Y0143220D02*
X0115898Y0143587D01*
X0115898Y0144321D01*
X0116265Y0144688D01*
X0117733Y0143220D01*
X0118100Y0143587D01*
X0118100Y0144321D01*
X0117733Y0144688D01*
X0116265Y0144688D01*
X0116265Y0143220D02*
X0117733Y0143220D01*
X0108100Y0143220D02*
X0108100Y0144688D01*
X0108100Y0143954D02*
X0105898Y0143954D01*
X0106632Y0143220D01*
X0108100Y0142478D02*
X0108100Y0141010D01*
X0108100Y0141744D02*
X0105898Y0141744D01*
X0106632Y0141010D01*
X0106265Y0140268D02*
X0106999Y0140268D01*
X0107366Y0139901D01*
X0107366Y0138800D01*
X0107366Y0139534D02*
X0108100Y0140268D01*
X0108100Y0138800D02*
X0105898Y0138800D01*
X0105898Y0139901D01*
X0106265Y0140268D01*
X0098100Y0140268D02*
X0097366Y0139534D01*
X0097366Y0139901D02*
X0097366Y0138800D01*
X0098100Y0138800D02*
X0095898Y0138800D01*
X0095898Y0139901D01*
X0096265Y0140268D01*
X0096999Y0140268D01*
X0097366Y0139901D01*
X0096632Y0141010D02*
X0095898Y0141744D01*
X0098100Y0141744D01*
X0098100Y0141010D02*
X0098100Y0142478D01*
X0098100Y0143220D02*
X0096632Y0144688D01*
X0096265Y0144688D01*
X0095898Y0144321D01*
X0095898Y0143587D01*
X0096265Y0143220D01*
X0098100Y0143220D02*
X0098100Y0144688D01*
X0088100Y0144321D02*
X0088100Y0143587D01*
X0087733Y0143220D01*
X0088100Y0142478D02*
X0088100Y0141010D01*
X0088100Y0141744D02*
X0085898Y0141744D01*
X0086632Y0141010D01*
X0086265Y0140268D02*
X0086999Y0140268D01*
X0087366Y0139901D01*
X0087366Y0138800D01*
X0087366Y0139534D02*
X0088100Y0140268D01*
X0088100Y0138800D02*
X0085898Y0138800D01*
X0085898Y0139901D01*
X0086265Y0140268D01*
X0086265Y0143220D02*
X0085898Y0143587D01*
X0085898Y0144321D01*
X0086265Y0144688D01*
X0086632Y0144688D01*
X0086999Y0144321D01*
X0087366Y0144688D01*
X0087733Y0144688D01*
X0088100Y0144321D01*
X0086999Y0144321D02*
X0086999Y0143954D01*
X0078100Y0144321D02*
X0075898Y0144321D01*
X0076999Y0143220D01*
X0076999Y0144688D01*
X0078100Y0142478D02*
X0078100Y0141010D01*
X0078100Y0141744D02*
X0075898Y0141744D01*
X0076632Y0141010D01*
X0076265Y0140268D02*
X0076999Y0140268D01*
X0077366Y0139901D01*
X0077366Y0138800D01*
X0077366Y0139534D02*
X0078100Y0140268D01*
X0078100Y0138800D02*
X0075898Y0138800D01*
X0075898Y0139901D01*
X0076265Y0140268D01*
X0037200Y0133700D02*
X0027200Y0133700D01*
X0027200Y0132700D01*
X0037200Y0132700D02*
X0037200Y0133700D01*
X0025978Y0125135D02*
X0025611Y0125502D01*
X0024877Y0125502D01*
X0024510Y0125135D01*
X0023768Y0125135D02*
X0023401Y0125502D01*
X0022667Y0125502D01*
X0022300Y0125135D01*
X0022300Y0124768D01*
X0022667Y0124401D01*
X0023401Y0124401D01*
X0023768Y0124034D01*
X0023768Y0123667D01*
X0023401Y0123300D01*
X0022667Y0123300D01*
X0022300Y0123667D01*
X0024510Y0123667D02*
X0024877Y0123300D01*
X0025611Y0123300D01*
X0025978Y0123667D01*
X0025978Y0124034D01*
X0025611Y0124401D01*
X0025244Y0124401D01*
X0025611Y0124401D02*
X0025978Y0124768D01*
X0025978Y0125135D01*
X0027700Y0121700D02*
X0027700Y0120700D01*
X0037200Y0120700D01*
X0037200Y0121700D01*
X0037200Y0098700D02*
X0027200Y0098700D01*
X0027200Y0097700D01*
X0037200Y0097700D02*
X0037200Y0098700D01*
X0025978Y0090135D02*
X0025611Y0090502D01*
X0024877Y0090502D01*
X0024510Y0090135D01*
X0023768Y0090135D02*
X0023401Y0090502D01*
X0022667Y0090502D01*
X0022300Y0090135D01*
X0022300Y0089768D01*
X0022667Y0089401D01*
X0023401Y0089401D01*
X0023768Y0089034D01*
X0023768Y0088667D01*
X0023401Y0088300D01*
X0022667Y0088300D01*
X0022300Y0088667D01*
X0024510Y0088300D02*
X0025978Y0089768D01*
X0025978Y0090135D01*
X0025978Y0088300D02*
X0024510Y0088300D01*
X0027200Y0086700D02*
X0027200Y0085700D01*
X0037200Y0085700D01*
X0037200Y0086700D01*
X0037200Y0155700D02*
X0027700Y0155700D01*
X0027700Y0156700D01*
X0025611Y0158300D02*
X0025611Y0160502D01*
X0024510Y0159401D01*
X0025978Y0159401D01*
X0023768Y0159034D02*
X0023768Y0158667D01*
X0023401Y0158300D01*
X0022667Y0158300D01*
X0022300Y0158667D01*
X0022667Y0159401D02*
X0023401Y0159401D01*
X0023768Y0159034D01*
X0023768Y0160135D02*
X0023401Y0160502D01*
X0022667Y0160502D01*
X0022300Y0160135D01*
X0022300Y0159768D01*
X0022667Y0159401D01*
X0037200Y0156700D02*
X0037200Y0155700D01*
X0076398Y0173800D02*
X0076398Y0174901D01*
X0076765Y0175268D01*
X0077499Y0175268D01*
X0077866Y0174901D01*
X0077866Y0173800D01*
X0077866Y0174534D02*
X0078600Y0175268D01*
X0078600Y0176010D02*
X0077132Y0177478D01*
X0077132Y0176010D02*
X0078600Y0177478D01*
X0077499Y0180430D02*
X0078600Y0181898D01*
X0077499Y0182640D02*
X0077499Y0184107D01*
X0077499Y0184849D02*
X0077499Y0186317D01*
X0076398Y0181898D02*
X0077499Y0180430D01*
X0086398Y0184849D02*
X0087499Y0186317D01*
X0088600Y0184849D01*
X0087499Y0184107D02*
X0087499Y0182640D01*
X0087499Y0181898D02*
X0087499Y0180430D01*
X0087132Y0177478D02*
X0088600Y0176010D01*
X0087132Y0176010D02*
X0088600Y0177478D01*
X0088600Y0174534D02*
X0086398Y0174534D01*
X0086398Y0173800D02*
X0086398Y0175268D01*
X0078600Y0173800D02*
X0076398Y0173800D01*
D11*
X0027200Y0027700D02*
X0023700Y0027700D01*
X0027200Y0027700D02*
X0037200Y0027700D01*
X0040700Y0027700D01*
X0044200Y0035700D02*
X0044200Y0036700D01*
X0045200Y0036700D01*
X0045200Y0042700D01*
X0044200Y0042700D01*
X0044200Y0043700D01*
X0031200Y0039700D02*
X0031202Y0039763D01*
X0031208Y0039825D01*
X0031218Y0039887D01*
X0031231Y0039949D01*
X0031249Y0040009D01*
X0031270Y0040068D01*
X0031295Y0040126D01*
X0031324Y0040182D01*
X0031356Y0040236D01*
X0031391Y0040288D01*
X0031429Y0040337D01*
X0031471Y0040385D01*
X0031515Y0040429D01*
X0031563Y0040471D01*
X0031612Y0040509D01*
X0031664Y0040544D01*
X0031718Y0040576D01*
X0031774Y0040605D01*
X0031832Y0040630D01*
X0031891Y0040651D01*
X0031951Y0040669D01*
X0032013Y0040682D01*
X0032075Y0040692D01*
X0032137Y0040698D01*
X0032200Y0040700D01*
X0032263Y0040698D01*
X0032325Y0040692D01*
X0032387Y0040682D01*
X0032449Y0040669D01*
X0032509Y0040651D01*
X0032568Y0040630D01*
X0032626Y0040605D01*
X0032682Y0040576D01*
X0032736Y0040544D01*
X0032788Y0040509D01*
X0032837Y0040471D01*
X0032885Y0040429D01*
X0032929Y0040385D01*
X0032971Y0040337D01*
X0033009Y0040288D01*
X0033044Y0040236D01*
X0033076Y0040182D01*
X0033105Y0040126D01*
X0033130Y0040068D01*
X0033151Y0040009D01*
X0033169Y0039949D01*
X0033182Y0039887D01*
X0033192Y0039825D01*
X0033198Y0039763D01*
X0033200Y0039700D01*
X0033198Y0039637D01*
X0033192Y0039575D01*
X0033182Y0039513D01*
X0033169Y0039451D01*
X0033151Y0039391D01*
X0033130Y0039332D01*
X0033105Y0039274D01*
X0033076Y0039218D01*
X0033044Y0039164D01*
X0033009Y0039112D01*
X0032971Y0039063D01*
X0032929Y0039015D01*
X0032885Y0038971D01*
X0032837Y0038929D01*
X0032788Y0038891D01*
X0032736Y0038856D01*
X0032682Y0038824D01*
X0032626Y0038795D01*
X0032568Y0038770D01*
X0032509Y0038749D01*
X0032449Y0038731D01*
X0032387Y0038718D01*
X0032325Y0038708D01*
X0032263Y0038702D01*
X0032200Y0038700D01*
X0032137Y0038702D01*
X0032075Y0038708D01*
X0032013Y0038718D01*
X0031951Y0038731D01*
X0031891Y0038749D01*
X0031832Y0038770D01*
X0031774Y0038795D01*
X0031718Y0038824D01*
X0031664Y0038856D01*
X0031612Y0038891D01*
X0031563Y0038929D01*
X0031515Y0038971D01*
X0031471Y0039015D01*
X0031429Y0039063D01*
X0031391Y0039112D01*
X0031356Y0039164D01*
X0031324Y0039218D01*
X0031295Y0039274D01*
X0031270Y0039332D01*
X0031249Y0039391D01*
X0031231Y0039451D01*
X0031218Y0039513D01*
X0031208Y0039575D01*
X0031202Y0039637D01*
X0031200Y0039700D01*
X0025200Y0039700D02*
X0025202Y0039872D01*
X0025208Y0040043D01*
X0025219Y0040215D01*
X0025234Y0040386D01*
X0025253Y0040557D01*
X0025276Y0040727D01*
X0025303Y0040897D01*
X0025335Y0041066D01*
X0025370Y0041234D01*
X0025410Y0041401D01*
X0025454Y0041567D01*
X0025501Y0041732D01*
X0025553Y0041896D01*
X0025609Y0042058D01*
X0025669Y0042219D01*
X0025733Y0042379D01*
X0025801Y0042537D01*
X0025872Y0042693D01*
X0025947Y0042847D01*
X0026027Y0043000D01*
X0026109Y0043150D01*
X0026196Y0043299D01*
X0026286Y0043445D01*
X0026380Y0043589D01*
X0026477Y0043731D01*
X0026578Y0043870D01*
X0026682Y0044007D01*
X0026789Y0044141D01*
X0026900Y0044272D01*
X0027013Y0044401D01*
X0027130Y0044527D01*
X0027250Y0044650D01*
X0027373Y0044770D01*
X0027499Y0044887D01*
X0027628Y0045000D01*
X0027759Y0045111D01*
X0027893Y0045218D01*
X0028030Y0045322D01*
X0028169Y0045423D01*
X0028311Y0045520D01*
X0028455Y0045614D01*
X0028601Y0045704D01*
X0028750Y0045791D01*
X0028900Y0045873D01*
X0029053Y0045953D01*
X0029207Y0046028D01*
X0029363Y0046099D01*
X0029521Y0046167D01*
X0029681Y0046231D01*
X0029842Y0046291D01*
X0030004Y0046347D01*
X0030168Y0046399D01*
X0030333Y0046446D01*
X0030499Y0046490D01*
X0030666Y0046530D01*
X0030834Y0046565D01*
X0031003Y0046597D01*
X0031173Y0046624D01*
X0031343Y0046647D01*
X0031514Y0046666D01*
X0031685Y0046681D01*
X0031857Y0046692D01*
X0032028Y0046698D01*
X0032200Y0046700D01*
X0032372Y0046698D01*
X0032543Y0046692D01*
X0032715Y0046681D01*
X0032886Y0046666D01*
X0033057Y0046647D01*
X0033227Y0046624D01*
X0033397Y0046597D01*
X0033566Y0046565D01*
X0033734Y0046530D01*
X0033901Y0046490D01*
X0034067Y0046446D01*
X0034232Y0046399D01*
X0034396Y0046347D01*
X0034558Y0046291D01*
X0034719Y0046231D01*
X0034879Y0046167D01*
X0035037Y0046099D01*
X0035193Y0046028D01*
X0035347Y0045953D01*
X0035500Y0045873D01*
X0035650Y0045791D01*
X0035799Y0045704D01*
X0035945Y0045614D01*
X0036089Y0045520D01*
X0036231Y0045423D01*
X0036370Y0045322D01*
X0036507Y0045218D01*
X0036641Y0045111D01*
X0036772Y0045000D01*
X0036901Y0044887D01*
X0037027Y0044770D01*
X0037150Y0044650D01*
X0037270Y0044527D01*
X0037387Y0044401D01*
X0037500Y0044272D01*
X0037611Y0044141D01*
X0037718Y0044007D01*
X0037822Y0043870D01*
X0037923Y0043731D01*
X0038020Y0043589D01*
X0038114Y0043445D01*
X0038204Y0043299D01*
X0038291Y0043150D01*
X0038373Y0043000D01*
X0038453Y0042847D01*
X0038528Y0042693D01*
X0038599Y0042537D01*
X0038667Y0042379D01*
X0038731Y0042219D01*
X0038791Y0042058D01*
X0038847Y0041896D01*
X0038899Y0041732D01*
X0038946Y0041567D01*
X0038990Y0041401D01*
X0039030Y0041234D01*
X0039065Y0041066D01*
X0039097Y0040897D01*
X0039124Y0040727D01*
X0039147Y0040557D01*
X0039166Y0040386D01*
X0039181Y0040215D01*
X0039192Y0040043D01*
X0039198Y0039872D01*
X0039200Y0039700D01*
X0039198Y0039528D01*
X0039192Y0039357D01*
X0039181Y0039185D01*
X0039166Y0039014D01*
X0039147Y0038843D01*
X0039124Y0038673D01*
X0039097Y0038503D01*
X0039065Y0038334D01*
X0039030Y0038166D01*
X0038990Y0037999D01*
X0038946Y0037833D01*
X0038899Y0037668D01*
X0038847Y0037504D01*
X0038791Y0037342D01*
X0038731Y0037181D01*
X0038667Y0037021D01*
X0038599Y0036863D01*
X0038528Y0036707D01*
X0038453Y0036553D01*
X0038373Y0036400D01*
X0038291Y0036250D01*
X0038204Y0036101D01*
X0038114Y0035955D01*
X0038020Y0035811D01*
X0037923Y0035669D01*
X0037822Y0035530D01*
X0037718Y0035393D01*
X0037611Y0035259D01*
X0037500Y0035128D01*
X0037387Y0034999D01*
X0037270Y0034873D01*
X0037150Y0034750D01*
X0037027Y0034630D01*
X0036901Y0034513D01*
X0036772Y0034400D01*
X0036641Y0034289D01*
X0036507Y0034182D01*
X0036370Y0034078D01*
X0036231Y0033977D01*
X0036089Y0033880D01*
X0035945Y0033786D01*
X0035799Y0033696D01*
X0035650Y0033609D01*
X0035500Y0033527D01*
X0035347Y0033447D01*
X0035193Y0033372D01*
X0035037Y0033301D01*
X0034879Y0033233D01*
X0034719Y0033169D01*
X0034558Y0033109D01*
X0034396Y0033053D01*
X0034232Y0033001D01*
X0034067Y0032954D01*
X0033901Y0032910D01*
X0033734Y0032870D01*
X0033566Y0032835D01*
X0033397Y0032803D01*
X0033227Y0032776D01*
X0033057Y0032753D01*
X0032886Y0032734D01*
X0032715Y0032719D01*
X0032543Y0032708D01*
X0032372Y0032702D01*
X0032200Y0032700D01*
X0032028Y0032702D01*
X0031857Y0032708D01*
X0031685Y0032719D01*
X0031514Y0032734D01*
X0031343Y0032753D01*
X0031173Y0032776D01*
X0031003Y0032803D01*
X0030834Y0032835D01*
X0030666Y0032870D01*
X0030499Y0032910D01*
X0030333Y0032954D01*
X0030168Y0033001D01*
X0030004Y0033053D01*
X0029842Y0033109D01*
X0029681Y0033169D01*
X0029521Y0033233D01*
X0029363Y0033301D01*
X0029207Y0033372D01*
X0029053Y0033447D01*
X0028900Y0033527D01*
X0028750Y0033609D01*
X0028601Y0033696D01*
X0028455Y0033786D01*
X0028311Y0033880D01*
X0028169Y0033977D01*
X0028030Y0034078D01*
X0027893Y0034182D01*
X0027759Y0034289D01*
X0027628Y0034400D01*
X0027499Y0034513D01*
X0027373Y0034630D01*
X0027250Y0034750D01*
X0027130Y0034873D01*
X0027013Y0034999D01*
X0026900Y0035128D01*
X0026789Y0035259D01*
X0026682Y0035393D01*
X0026578Y0035530D01*
X0026477Y0035669D01*
X0026380Y0035811D01*
X0026286Y0035955D01*
X0026196Y0036101D01*
X0026109Y0036250D01*
X0026027Y0036400D01*
X0025947Y0036553D01*
X0025872Y0036707D01*
X0025801Y0036863D01*
X0025733Y0037021D01*
X0025669Y0037181D01*
X0025609Y0037342D01*
X0025553Y0037504D01*
X0025501Y0037668D01*
X0025454Y0037833D01*
X0025410Y0037999D01*
X0025370Y0038166D01*
X0025335Y0038334D01*
X0025303Y0038503D01*
X0025276Y0038673D01*
X0025253Y0038843D01*
X0025234Y0039014D01*
X0025219Y0039185D01*
X0025208Y0039357D01*
X0025202Y0039528D01*
X0025200Y0039700D01*
X0020200Y0036700D02*
X0020200Y0035700D01*
X0020200Y0036700D02*
X0019200Y0036700D01*
X0019200Y0042700D01*
X0020200Y0042700D01*
X0020200Y0043700D01*
X0023700Y0051700D02*
X0027700Y0051700D01*
X0037200Y0051700D01*
X0040700Y0051700D01*
X0040700Y0062700D02*
X0036700Y0062700D01*
X0027200Y0062700D01*
X0023700Y0062700D01*
X0020200Y0070700D02*
X0020200Y0071700D01*
X0019200Y0071700D01*
X0019200Y0077700D01*
X0020200Y0077700D01*
X0020200Y0078700D01*
X0023700Y0086700D02*
X0027200Y0086700D01*
X0037200Y0086700D01*
X0040700Y0086700D01*
X0044200Y0078700D02*
X0044200Y0077700D01*
X0045200Y0077700D01*
X0045200Y0071700D01*
X0044200Y0071700D01*
X0044200Y0070700D01*
X0031200Y0074700D02*
X0031202Y0074763D01*
X0031208Y0074825D01*
X0031218Y0074887D01*
X0031231Y0074949D01*
X0031249Y0075009D01*
X0031270Y0075068D01*
X0031295Y0075126D01*
X0031324Y0075182D01*
X0031356Y0075236D01*
X0031391Y0075288D01*
X0031429Y0075337D01*
X0031471Y0075385D01*
X0031515Y0075429D01*
X0031563Y0075471D01*
X0031612Y0075509D01*
X0031664Y0075544D01*
X0031718Y0075576D01*
X0031774Y0075605D01*
X0031832Y0075630D01*
X0031891Y0075651D01*
X0031951Y0075669D01*
X0032013Y0075682D01*
X0032075Y0075692D01*
X0032137Y0075698D01*
X0032200Y0075700D01*
X0032263Y0075698D01*
X0032325Y0075692D01*
X0032387Y0075682D01*
X0032449Y0075669D01*
X0032509Y0075651D01*
X0032568Y0075630D01*
X0032626Y0075605D01*
X0032682Y0075576D01*
X0032736Y0075544D01*
X0032788Y0075509D01*
X0032837Y0075471D01*
X0032885Y0075429D01*
X0032929Y0075385D01*
X0032971Y0075337D01*
X0033009Y0075288D01*
X0033044Y0075236D01*
X0033076Y0075182D01*
X0033105Y0075126D01*
X0033130Y0075068D01*
X0033151Y0075009D01*
X0033169Y0074949D01*
X0033182Y0074887D01*
X0033192Y0074825D01*
X0033198Y0074763D01*
X0033200Y0074700D01*
X0033198Y0074637D01*
X0033192Y0074575D01*
X0033182Y0074513D01*
X0033169Y0074451D01*
X0033151Y0074391D01*
X0033130Y0074332D01*
X0033105Y0074274D01*
X0033076Y0074218D01*
X0033044Y0074164D01*
X0033009Y0074112D01*
X0032971Y0074063D01*
X0032929Y0074015D01*
X0032885Y0073971D01*
X0032837Y0073929D01*
X0032788Y0073891D01*
X0032736Y0073856D01*
X0032682Y0073824D01*
X0032626Y0073795D01*
X0032568Y0073770D01*
X0032509Y0073749D01*
X0032449Y0073731D01*
X0032387Y0073718D01*
X0032325Y0073708D01*
X0032263Y0073702D01*
X0032200Y0073700D01*
X0032137Y0073702D01*
X0032075Y0073708D01*
X0032013Y0073718D01*
X0031951Y0073731D01*
X0031891Y0073749D01*
X0031832Y0073770D01*
X0031774Y0073795D01*
X0031718Y0073824D01*
X0031664Y0073856D01*
X0031612Y0073891D01*
X0031563Y0073929D01*
X0031515Y0073971D01*
X0031471Y0074015D01*
X0031429Y0074063D01*
X0031391Y0074112D01*
X0031356Y0074164D01*
X0031324Y0074218D01*
X0031295Y0074274D01*
X0031270Y0074332D01*
X0031249Y0074391D01*
X0031231Y0074451D01*
X0031218Y0074513D01*
X0031208Y0074575D01*
X0031202Y0074637D01*
X0031200Y0074700D01*
X0025200Y0074700D02*
X0025202Y0074872D01*
X0025208Y0075043D01*
X0025219Y0075215D01*
X0025234Y0075386D01*
X0025253Y0075557D01*
X0025276Y0075727D01*
X0025303Y0075897D01*
X0025335Y0076066D01*
X0025370Y0076234D01*
X0025410Y0076401D01*
X0025454Y0076567D01*
X0025501Y0076732D01*
X0025553Y0076896D01*
X0025609Y0077058D01*
X0025669Y0077219D01*
X0025733Y0077379D01*
X0025801Y0077537D01*
X0025872Y0077693D01*
X0025947Y0077847D01*
X0026027Y0078000D01*
X0026109Y0078150D01*
X0026196Y0078299D01*
X0026286Y0078445D01*
X0026380Y0078589D01*
X0026477Y0078731D01*
X0026578Y0078870D01*
X0026682Y0079007D01*
X0026789Y0079141D01*
X0026900Y0079272D01*
X0027013Y0079401D01*
X0027130Y0079527D01*
X0027250Y0079650D01*
X0027373Y0079770D01*
X0027499Y0079887D01*
X0027628Y0080000D01*
X0027759Y0080111D01*
X0027893Y0080218D01*
X0028030Y0080322D01*
X0028169Y0080423D01*
X0028311Y0080520D01*
X0028455Y0080614D01*
X0028601Y0080704D01*
X0028750Y0080791D01*
X0028900Y0080873D01*
X0029053Y0080953D01*
X0029207Y0081028D01*
X0029363Y0081099D01*
X0029521Y0081167D01*
X0029681Y0081231D01*
X0029842Y0081291D01*
X0030004Y0081347D01*
X0030168Y0081399D01*
X0030333Y0081446D01*
X0030499Y0081490D01*
X0030666Y0081530D01*
X0030834Y0081565D01*
X0031003Y0081597D01*
X0031173Y0081624D01*
X0031343Y0081647D01*
X0031514Y0081666D01*
X0031685Y0081681D01*
X0031857Y0081692D01*
X0032028Y0081698D01*
X0032200Y0081700D01*
X0032372Y0081698D01*
X0032543Y0081692D01*
X0032715Y0081681D01*
X0032886Y0081666D01*
X0033057Y0081647D01*
X0033227Y0081624D01*
X0033397Y0081597D01*
X0033566Y0081565D01*
X0033734Y0081530D01*
X0033901Y0081490D01*
X0034067Y0081446D01*
X0034232Y0081399D01*
X0034396Y0081347D01*
X0034558Y0081291D01*
X0034719Y0081231D01*
X0034879Y0081167D01*
X0035037Y0081099D01*
X0035193Y0081028D01*
X0035347Y0080953D01*
X0035500Y0080873D01*
X0035650Y0080791D01*
X0035799Y0080704D01*
X0035945Y0080614D01*
X0036089Y0080520D01*
X0036231Y0080423D01*
X0036370Y0080322D01*
X0036507Y0080218D01*
X0036641Y0080111D01*
X0036772Y0080000D01*
X0036901Y0079887D01*
X0037027Y0079770D01*
X0037150Y0079650D01*
X0037270Y0079527D01*
X0037387Y0079401D01*
X0037500Y0079272D01*
X0037611Y0079141D01*
X0037718Y0079007D01*
X0037822Y0078870D01*
X0037923Y0078731D01*
X0038020Y0078589D01*
X0038114Y0078445D01*
X0038204Y0078299D01*
X0038291Y0078150D01*
X0038373Y0078000D01*
X0038453Y0077847D01*
X0038528Y0077693D01*
X0038599Y0077537D01*
X0038667Y0077379D01*
X0038731Y0077219D01*
X0038791Y0077058D01*
X0038847Y0076896D01*
X0038899Y0076732D01*
X0038946Y0076567D01*
X0038990Y0076401D01*
X0039030Y0076234D01*
X0039065Y0076066D01*
X0039097Y0075897D01*
X0039124Y0075727D01*
X0039147Y0075557D01*
X0039166Y0075386D01*
X0039181Y0075215D01*
X0039192Y0075043D01*
X0039198Y0074872D01*
X0039200Y0074700D01*
X0039198Y0074528D01*
X0039192Y0074357D01*
X0039181Y0074185D01*
X0039166Y0074014D01*
X0039147Y0073843D01*
X0039124Y0073673D01*
X0039097Y0073503D01*
X0039065Y0073334D01*
X0039030Y0073166D01*
X0038990Y0072999D01*
X0038946Y0072833D01*
X0038899Y0072668D01*
X0038847Y0072504D01*
X0038791Y0072342D01*
X0038731Y0072181D01*
X0038667Y0072021D01*
X0038599Y0071863D01*
X0038528Y0071707D01*
X0038453Y0071553D01*
X0038373Y0071400D01*
X0038291Y0071250D01*
X0038204Y0071101D01*
X0038114Y0070955D01*
X0038020Y0070811D01*
X0037923Y0070669D01*
X0037822Y0070530D01*
X0037718Y0070393D01*
X0037611Y0070259D01*
X0037500Y0070128D01*
X0037387Y0069999D01*
X0037270Y0069873D01*
X0037150Y0069750D01*
X0037027Y0069630D01*
X0036901Y0069513D01*
X0036772Y0069400D01*
X0036641Y0069289D01*
X0036507Y0069182D01*
X0036370Y0069078D01*
X0036231Y0068977D01*
X0036089Y0068880D01*
X0035945Y0068786D01*
X0035799Y0068696D01*
X0035650Y0068609D01*
X0035500Y0068527D01*
X0035347Y0068447D01*
X0035193Y0068372D01*
X0035037Y0068301D01*
X0034879Y0068233D01*
X0034719Y0068169D01*
X0034558Y0068109D01*
X0034396Y0068053D01*
X0034232Y0068001D01*
X0034067Y0067954D01*
X0033901Y0067910D01*
X0033734Y0067870D01*
X0033566Y0067835D01*
X0033397Y0067803D01*
X0033227Y0067776D01*
X0033057Y0067753D01*
X0032886Y0067734D01*
X0032715Y0067719D01*
X0032543Y0067708D01*
X0032372Y0067702D01*
X0032200Y0067700D01*
X0032028Y0067702D01*
X0031857Y0067708D01*
X0031685Y0067719D01*
X0031514Y0067734D01*
X0031343Y0067753D01*
X0031173Y0067776D01*
X0031003Y0067803D01*
X0030834Y0067835D01*
X0030666Y0067870D01*
X0030499Y0067910D01*
X0030333Y0067954D01*
X0030168Y0068001D01*
X0030004Y0068053D01*
X0029842Y0068109D01*
X0029681Y0068169D01*
X0029521Y0068233D01*
X0029363Y0068301D01*
X0029207Y0068372D01*
X0029053Y0068447D01*
X0028900Y0068527D01*
X0028750Y0068609D01*
X0028601Y0068696D01*
X0028455Y0068786D01*
X0028311Y0068880D01*
X0028169Y0068977D01*
X0028030Y0069078D01*
X0027893Y0069182D01*
X0027759Y0069289D01*
X0027628Y0069400D01*
X0027499Y0069513D01*
X0027373Y0069630D01*
X0027250Y0069750D01*
X0027130Y0069873D01*
X0027013Y0069999D01*
X0026900Y0070128D01*
X0026789Y0070259D01*
X0026682Y0070393D01*
X0026578Y0070530D01*
X0026477Y0070669D01*
X0026380Y0070811D01*
X0026286Y0070955D01*
X0026196Y0071101D01*
X0026109Y0071250D01*
X0026027Y0071400D01*
X0025947Y0071553D01*
X0025872Y0071707D01*
X0025801Y0071863D01*
X0025733Y0072021D01*
X0025669Y0072181D01*
X0025609Y0072342D01*
X0025553Y0072504D01*
X0025501Y0072668D01*
X0025454Y0072833D01*
X0025410Y0072999D01*
X0025370Y0073166D01*
X0025335Y0073334D01*
X0025303Y0073503D01*
X0025276Y0073673D01*
X0025253Y0073843D01*
X0025234Y0074014D01*
X0025219Y0074185D01*
X0025208Y0074357D01*
X0025202Y0074528D01*
X0025200Y0074700D01*
X0064700Y0095200D02*
X0149700Y0095200D01*
X0154700Y0095200D02*
X0159700Y0095200D01*
X0164700Y0095200D02*
X0229700Y0095200D01*
X0229798Y0095202D01*
X0229896Y0095208D01*
X0229994Y0095217D01*
X0230091Y0095231D01*
X0230188Y0095248D01*
X0230284Y0095269D01*
X0230379Y0095294D01*
X0230473Y0095322D01*
X0230565Y0095355D01*
X0230657Y0095390D01*
X0230747Y0095430D01*
X0230835Y0095472D01*
X0230922Y0095519D01*
X0231006Y0095568D01*
X0231089Y0095621D01*
X0231169Y0095677D01*
X0231248Y0095737D01*
X0231324Y0095799D01*
X0231397Y0095864D01*
X0231468Y0095932D01*
X0231536Y0096003D01*
X0231601Y0096076D01*
X0231663Y0096152D01*
X0231723Y0096231D01*
X0231779Y0096311D01*
X0231832Y0096394D01*
X0231881Y0096478D01*
X0231928Y0096565D01*
X0231970Y0096653D01*
X0232010Y0096743D01*
X0232045Y0096835D01*
X0232078Y0096927D01*
X0232106Y0097021D01*
X0232131Y0097116D01*
X0232152Y0097212D01*
X0232169Y0097309D01*
X0232183Y0097406D01*
X0232192Y0097504D01*
X0232198Y0097602D01*
X0232200Y0097700D01*
X0232200Y0116700D01*
X0232198Y0116798D01*
X0232192Y0116896D01*
X0232183Y0116994D01*
X0232169Y0117091D01*
X0232152Y0117188D01*
X0232131Y0117284D01*
X0232106Y0117379D01*
X0232078Y0117473D01*
X0232045Y0117565D01*
X0232010Y0117657D01*
X0231970Y0117747D01*
X0231928Y0117835D01*
X0231881Y0117922D01*
X0231832Y0118006D01*
X0231779Y0118089D01*
X0231723Y0118169D01*
X0231663Y0118248D01*
X0231601Y0118324D01*
X0231536Y0118397D01*
X0231468Y0118468D01*
X0231397Y0118536D01*
X0231324Y0118601D01*
X0231248Y0118663D01*
X0231169Y0118723D01*
X0231089Y0118779D01*
X0231006Y0118832D01*
X0230922Y0118881D01*
X0230835Y0118928D01*
X0230747Y0118970D01*
X0230657Y0119010D01*
X0230565Y0119045D01*
X0230473Y0119078D01*
X0230379Y0119106D01*
X0230284Y0119131D01*
X0230188Y0119152D01*
X0230091Y0119169D01*
X0229994Y0119183D01*
X0229896Y0119192D01*
X0229798Y0119198D01*
X0229700Y0119200D01*
X0164700Y0119200D01*
X0164602Y0119198D01*
X0164504Y0119192D01*
X0164406Y0119183D01*
X0164309Y0119169D01*
X0164212Y0119152D01*
X0164116Y0119131D01*
X0164021Y0119106D01*
X0163927Y0119078D01*
X0163835Y0119045D01*
X0163743Y0119010D01*
X0163653Y0118970D01*
X0163565Y0118928D01*
X0163478Y0118881D01*
X0163394Y0118832D01*
X0163311Y0118779D01*
X0163231Y0118723D01*
X0163152Y0118663D01*
X0163076Y0118601D01*
X0163003Y0118536D01*
X0162932Y0118468D01*
X0162864Y0118397D01*
X0162799Y0118324D01*
X0162737Y0118248D01*
X0162677Y0118169D01*
X0162621Y0118089D01*
X0162568Y0118006D01*
X0162519Y0117922D01*
X0162472Y0117835D01*
X0162430Y0117747D01*
X0162390Y0117657D01*
X0162355Y0117565D01*
X0162322Y0117473D01*
X0162294Y0117379D01*
X0162269Y0117284D01*
X0162248Y0117188D01*
X0162231Y0117091D01*
X0162217Y0116994D01*
X0162208Y0116896D01*
X0162202Y0116798D01*
X0162200Y0116700D01*
X0162200Y0097700D01*
X0162198Y0097602D01*
X0162192Y0097504D01*
X0162183Y0097406D01*
X0162169Y0097309D01*
X0162152Y0097212D01*
X0162131Y0097116D01*
X0162106Y0097021D01*
X0162078Y0096927D01*
X0162045Y0096835D01*
X0162010Y0096743D01*
X0161970Y0096653D01*
X0161928Y0096565D01*
X0161881Y0096478D01*
X0161832Y0096394D01*
X0161779Y0096311D01*
X0161723Y0096231D01*
X0161663Y0096152D01*
X0161601Y0096076D01*
X0161536Y0096003D01*
X0161468Y0095932D01*
X0161397Y0095864D01*
X0161324Y0095799D01*
X0161248Y0095737D01*
X0161169Y0095677D01*
X0161089Y0095621D01*
X0161006Y0095568D01*
X0160922Y0095519D01*
X0160835Y0095472D01*
X0160747Y0095430D01*
X0160657Y0095390D01*
X0160565Y0095355D01*
X0160473Y0095322D01*
X0160379Y0095294D01*
X0160284Y0095269D01*
X0160188Y0095248D01*
X0160091Y0095231D01*
X0159994Y0095217D01*
X0159896Y0095208D01*
X0159798Y0095202D01*
X0159700Y0095200D01*
X0154700Y0095200D02*
X0154602Y0095202D01*
X0154504Y0095208D01*
X0154406Y0095217D01*
X0154309Y0095231D01*
X0154212Y0095248D01*
X0154116Y0095269D01*
X0154021Y0095294D01*
X0153927Y0095322D01*
X0153835Y0095355D01*
X0153743Y0095390D01*
X0153653Y0095430D01*
X0153565Y0095472D01*
X0153478Y0095519D01*
X0153394Y0095568D01*
X0153311Y0095621D01*
X0153231Y0095677D01*
X0153152Y0095737D01*
X0153076Y0095799D01*
X0153003Y0095864D01*
X0152932Y0095932D01*
X0152864Y0096003D01*
X0152799Y0096076D01*
X0152737Y0096152D01*
X0152677Y0096231D01*
X0152621Y0096311D01*
X0152568Y0096394D01*
X0152519Y0096478D01*
X0152472Y0096565D01*
X0152430Y0096653D01*
X0152390Y0096743D01*
X0152355Y0096835D01*
X0152322Y0096927D01*
X0152294Y0097021D01*
X0152269Y0097116D01*
X0152248Y0097212D01*
X0152231Y0097309D01*
X0152217Y0097406D01*
X0152208Y0097504D01*
X0152202Y0097602D01*
X0152200Y0097700D01*
X0152200Y0116700D01*
X0152198Y0116798D01*
X0152192Y0116896D01*
X0152183Y0116994D01*
X0152169Y0117091D01*
X0152152Y0117188D01*
X0152131Y0117284D01*
X0152106Y0117379D01*
X0152078Y0117473D01*
X0152045Y0117565D01*
X0152010Y0117657D01*
X0151970Y0117747D01*
X0151928Y0117835D01*
X0151881Y0117922D01*
X0151832Y0118006D01*
X0151779Y0118089D01*
X0151723Y0118169D01*
X0151663Y0118248D01*
X0151601Y0118324D01*
X0151536Y0118397D01*
X0151468Y0118468D01*
X0151397Y0118536D01*
X0151324Y0118601D01*
X0151248Y0118663D01*
X0151169Y0118723D01*
X0151089Y0118779D01*
X0151006Y0118832D01*
X0150922Y0118881D01*
X0150835Y0118928D01*
X0150747Y0118970D01*
X0150657Y0119010D01*
X0150565Y0119045D01*
X0150473Y0119078D01*
X0150379Y0119106D01*
X0150284Y0119131D01*
X0150188Y0119152D01*
X0150091Y0119169D01*
X0149994Y0119183D01*
X0149896Y0119192D01*
X0149798Y0119198D01*
X0149700Y0119200D01*
X0064700Y0119200D01*
X0064602Y0119198D01*
X0064504Y0119192D01*
X0064406Y0119183D01*
X0064309Y0119169D01*
X0064212Y0119152D01*
X0064116Y0119131D01*
X0064021Y0119106D01*
X0063927Y0119078D01*
X0063835Y0119045D01*
X0063743Y0119010D01*
X0063653Y0118970D01*
X0063565Y0118928D01*
X0063478Y0118881D01*
X0063394Y0118832D01*
X0063311Y0118779D01*
X0063231Y0118723D01*
X0063152Y0118663D01*
X0063076Y0118601D01*
X0063003Y0118536D01*
X0062932Y0118468D01*
X0062864Y0118397D01*
X0062799Y0118324D01*
X0062737Y0118248D01*
X0062677Y0118169D01*
X0062621Y0118089D01*
X0062568Y0118006D01*
X0062519Y0117922D01*
X0062472Y0117835D01*
X0062430Y0117747D01*
X0062390Y0117657D01*
X0062355Y0117565D01*
X0062322Y0117473D01*
X0062294Y0117379D01*
X0062269Y0117284D01*
X0062248Y0117188D01*
X0062231Y0117091D01*
X0062217Y0116994D01*
X0062208Y0116896D01*
X0062202Y0116798D01*
X0062200Y0116700D01*
X0062200Y0097700D01*
X0062202Y0097602D01*
X0062208Y0097504D01*
X0062217Y0097406D01*
X0062231Y0097309D01*
X0062248Y0097212D01*
X0062269Y0097116D01*
X0062294Y0097021D01*
X0062322Y0096927D01*
X0062355Y0096835D01*
X0062390Y0096743D01*
X0062430Y0096653D01*
X0062472Y0096565D01*
X0062519Y0096478D01*
X0062568Y0096394D01*
X0062621Y0096311D01*
X0062677Y0096231D01*
X0062737Y0096152D01*
X0062799Y0096076D01*
X0062864Y0096003D01*
X0062932Y0095932D01*
X0063003Y0095864D01*
X0063076Y0095799D01*
X0063152Y0095737D01*
X0063231Y0095677D01*
X0063311Y0095621D01*
X0063394Y0095568D01*
X0063478Y0095519D01*
X0063565Y0095472D01*
X0063653Y0095430D01*
X0063743Y0095390D01*
X0063835Y0095355D01*
X0063927Y0095322D01*
X0064021Y0095294D01*
X0064116Y0095269D01*
X0064212Y0095248D01*
X0064309Y0095231D01*
X0064406Y0095217D01*
X0064504Y0095208D01*
X0064602Y0095202D01*
X0064700Y0095200D01*
X0044200Y0105700D02*
X0044200Y0106700D01*
X0045200Y0106700D01*
X0045200Y0112700D01*
X0044200Y0112700D01*
X0044200Y0113700D01*
X0031200Y0109700D02*
X0031202Y0109763D01*
X0031208Y0109825D01*
X0031218Y0109887D01*
X0031231Y0109949D01*
X0031249Y0110009D01*
X0031270Y0110068D01*
X0031295Y0110126D01*
X0031324Y0110182D01*
X0031356Y0110236D01*
X0031391Y0110288D01*
X0031429Y0110337D01*
X0031471Y0110385D01*
X0031515Y0110429D01*
X0031563Y0110471D01*
X0031612Y0110509D01*
X0031664Y0110544D01*
X0031718Y0110576D01*
X0031774Y0110605D01*
X0031832Y0110630D01*
X0031891Y0110651D01*
X0031951Y0110669D01*
X0032013Y0110682D01*
X0032075Y0110692D01*
X0032137Y0110698D01*
X0032200Y0110700D01*
X0032263Y0110698D01*
X0032325Y0110692D01*
X0032387Y0110682D01*
X0032449Y0110669D01*
X0032509Y0110651D01*
X0032568Y0110630D01*
X0032626Y0110605D01*
X0032682Y0110576D01*
X0032736Y0110544D01*
X0032788Y0110509D01*
X0032837Y0110471D01*
X0032885Y0110429D01*
X0032929Y0110385D01*
X0032971Y0110337D01*
X0033009Y0110288D01*
X0033044Y0110236D01*
X0033076Y0110182D01*
X0033105Y0110126D01*
X0033130Y0110068D01*
X0033151Y0110009D01*
X0033169Y0109949D01*
X0033182Y0109887D01*
X0033192Y0109825D01*
X0033198Y0109763D01*
X0033200Y0109700D01*
X0033198Y0109637D01*
X0033192Y0109575D01*
X0033182Y0109513D01*
X0033169Y0109451D01*
X0033151Y0109391D01*
X0033130Y0109332D01*
X0033105Y0109274D01*
X0033076Y0109218D01*
X0033044Y0109164D01*
X0033009Y0109112D01*
X0032971Y0109063D01*
X0032929Y0109015D01*
X0032885Y0108971D01*
X0032837Y0108929D01*
X0032788Y0108891D01*
X0032736Y0108856D01*
X0032682Y0108824D01*
X0032626Y0108795D01*
X0032568Y0108770D01*
X0032509Y0108749D01*
X0032449Y0108731D01*
X0032387Y0108718D01*
X0032325Y0108708D01*
X0032263Y0108702D01*
X0032200Y0108700D01*
X0032137Y0108702D01*
X0032075Y0108708D01*
X0032013Y0108718D01*
X0031951Y0108731D01*
X0031891Y0108749D01*
X0031832Y0108770D01*
X0031774Y0108795D01*
X0031718Y0108824D01*
X0031664Y0108856D01*
X0031612Y0108891D01*
X0031563Y0108929D01*
X0031515Y0108971D01*
X0031471Y0109015D01*
X0031429Y0109063D01*
X0031391Y0109112D01*
X0031356Y0109164D01*
X0031324Y0109218D01*
X0031295Y0109274D01*
X0031270Y0109332D01*
X0031249Y0109391D01*
X0031231Y0109451D01*
X0031218Y0109513D01*
X0031208Y0109575D01*
X0031202Y0109637D01*
X0031200Y0109700D01*
X0025200Y0109700D02*
X0025202Y0109872D01*
X0025208Y0110043D01*
X0025219Y0110215D01*
X0025234Y0110386D01*
X0025253Y0110557D01*
X0025276Y0110727D01*
X0025303Y0110897D01*
X0025335Y0111066D01*
X0025370Y0111234D01*
X0025410Y0111401D01*
X0025454Y0111567D01*
X0025501Y0111732D01*
X0025553Y0111896D01*
X0025609Y0112058D01*
X0025669Y0112219D01*
X0025733Y0112379D01*
X0025801Y0112537D01*
X0025872Y0112693D01*
X0025947Y0112847D01*
X0026027Y0113000D01*
X0026109Y0113150D01*
X0026196Y0113299D01*
X0026286Y0113445D01*
X0026380Y0113589D01*
X0026477Y0113731D01*
X0026578Y0113870D01*
X0026682Y0114007D01*
X0026789Y0114141D01*
X0026900Y0114272D01*
X0027013Y0114401D01*
X0027130Y0114527D01*
X0027250Y0114650D01*
X0027373Y0114770D01*
X0027499Y0114887D01*
X0027628Y0115000D01*
X0027759Y0115111D01*
X0027893Y0115218D01*
X0028030Y0115322D01*
X0028169Y0115423D01*
X0028311Y0115520D01*
X0028455Y0115614D01*
X0028601Y0115704D01*
X0028750Y0115791D01*
X0028900Y0115873D01*
X0029053Y0115953D01*
X0029207Y0116028D01*
X0029363Y0116099D01*
X0029521Y0116167D01*
X0029681Y0116231D01*
X0029842Y0116291D01*
X0030004Y0116347D01*
X0030168Y0116399D01*
X0030333Y0116446D01*
X0030499Y0116490D01*
X0030666Y0116530D01*
X0030834Y0116565D01*
X0031003Y0116597D01*
X0031173Y0116624D01*
X0031343Y0116647D01*
X0031514Y0116666D01*
X0031685Y0116681D01*
X0031857Y0116692D01*
X0032028Y0116698D01*
X0032200Y0116700D01*
X0032372Y0116698D01*
X0032543Y0116692D01*
X0032715Y0116681D01*
X0032886Y0116666D01*
X0033057Y0116647D01*
X0033227Y0116624D01*
X0033397Y0116597D01*
X0033566Y0116565D01*
X0033734Y0116530D01*
X0033901Y0116490D01*
X0034067Y0116446D01*
X0034232Y0116399D01*
X0034396Y0116347D01*
X0034558Y0116291D01*
X0034719Y0116231D01*
X0034879Y0116167D01*
X0035037Y0116099D01*
X0035193Y0116028D01*
X0035347Y0115953D01*
X0035500Y0115873D01*
X0035650Y0115791D01*
X0035799Y0115704D01*
X0035945Y0115614D01*
X0036089Y0115520D01*
X0036231Y0115423D01*
X0036370Y0115322D01*
X0036507Y0115218D01*
X0036641Y0115111D01*
X0036772Y0115000D01*
X0036901Y0114887D01*
X0037027Y0114770D01*
X0037150Y0114650D01*
X0037270Y0114527D01*
X0037387Y0114401D01*
X0037500Y0114272D01*
X0037611Y0114141D01*
X0037718Y0114007D01*
X0037822Y0113870D01*
X0037923Y0113731D01*
X0038020Y0113589D01*
X0038114Y0113445D01*
X0038204Y0113299D01*
X0038291Y0113150D01*
X0038373Y0113000D01*
X0038453Y0112847D01*
X0038528Y0112693D01*
X0038599Y0112537D01*
X0038667Y0112379D01*
X0038731Y0112219D01*
X0038791Y0112058D01*
X0038847Y0111896D01*
X0038899Y0111732D01*
X0038946Y0111567D01*
X0038990Y0111401D01*
X0039030Y0111234D01*
X0039065Y0111066D01*
X0039097Y0110897D01*
X0039124Y0110727D01*
X0039147Y0110557D01*
X0039166Y0110386D01*
X0039181Y0110215D01*
X0039192Y0110043D01*
X0039198Y0109872D01*
X0039200Y0109700D01*
X0039198Y0109528D01*
X0039192Y0109357D01*
X0039181Y0109185D01*
X0039166Y0109014D01*
X0039147Y0108843D01*
X0039124Y0108673D01*
X0039097Y0108503D01*
X0039065Y0108334D01*
X0039030Y0108166D01*
X0038990Y0107999D01*
X0038946Y0107833D01*
X0038899Y0107668D01*
X0038847Y0107504D01*
X0038791Y0107342D01*
X0038731Y0107181D01*
X0038667Y0107021D01*
X0038599Y0106863D01*
X0038528Y0106707D01*
X0038453Y0106553D01*
X0038373Y0106400D01*
X0038291Y0106250D01*
X0038204Y0106101D01*
X0038114Y0105955D01*
X0038020Y0105811D01*
X0037923Y0105669D01*
X0037822Y0105530D01*
X0037718Y0105393D01*
X0037611Y0105259D01*
X0037500Y0105128D01*
X0037387Y0104999D01*
X0037270Y0104873D01*
X0037150Y0104750D01*
X0037027Y0104630D01*
X0036901Y0104513D01*
X0036772Y0104400D01*
X0036641Y0104289D01*
X0036507Y0104182D01*
X0036370Y0104078D01*
X0036231Y0103977D01*
X0036089Y0103880D01*
X0035945Y0103786D01*
X0035799Y0103696D01*
X0035650Y0103609D01*
X0035500Y0103527D01*
X0035347Y0103447D01*
X0035193Y0103372D01*
X0035037Y0103301D01*
X0034879Y0103233D01*
X0034719Y0103169D01*
X0034558Y0103109D01*
X0034396Y0103053D01*
X0034232Y0103001D01*
X0034067Y0102954D01*
X0033901Y0102910D01*
X0033734Y0102870D01*
X0033566Y0102835D01*
X0033397Y0102803D01*
X0033227Y0102776D01*
X0033057Y0102753D01*
X0032886Y0102734D01*
X0032715Y0102719D01*
X0032543Y0102708D01*
X0032372Y0102702D01*
X0032200Y0102700D01*
X0032028Y0102702D01*
X0031857Y0102708D01*
X0031685Y0102719D01*
X0031514Y0102734D01*
X0031343Y0102753D01*
X0031173Y0102776D01*
X0031003Y0102803D01*
X0030834Y0102835D01*
X0030666Y0102870D01*
X0030499Y0102910D01*
X0030333Y0102954D01*
X0030168Y0103001D01*
X0030004Y0103053D01*
X0029842Y0103109D01*
X0029681Y0103169D01*
X0029521Y0103233D01*
X0029363Y0103301D01*
X0029207Y0103372D01*
X0029053Y0103447D01*
X0028900Y0103527D01*
X0028750Y0103609D01*
X0028601Y0103696D01*
X0028455Y0103786D01*
X0028311Y0103880D01*
X0028169Y0103977D01*
X0028030Y0104078D01*
X0027893Y0104182D01*
X0027759Y0104289D01*
X0027628Y0104400D01*
X0027499Y0104513D01*
X0027373Y0104630D01*
X0027250Y0104750D01*
X0027130Y0104873D01*
X0027013Y0104999D01*
X0026900Y0105128D01*
X0026789Y0105259D01*
X0026682Y0105393D01*
X0026578Y0105530D01*
X0026477Y0105669D01*
X0026380Y0105811D01*
X0026286Y0105955D01*
X0026196Y0106101D01*
X0026109Y0106250D01*
X0026027Y0106400D01*
X0025947Y0106553D01*
X0025872Y0106707D01*
X0025801Y0106863D01*
X0025733Y0107021D01*
X0025669Y0107181D01*
X0025609Y0107342D01*
X0025553Y0107504D01*
X0025501Y0107668D01*
X0025454Y0107833D01*
X0025410Y0107999D01*
X0025370Y0108166D01*
X0025335Y0108334D01*
X0025303Y0108503D01*
X0025276Y0108673D01*
X0025253Y0108843D01*
X0025234Y0109014D01*
X0025219Y0109185D01*
X0025208Y0109357D01*
X0025202Y0109528D01*
X0025200Y0109700D01*
X0020200Y0106700D02*
X0020200Y0105700D01*
X0020200Y0106700D02*
X0019200Y0106700D01*
X0019200Y0112700D01*
X0020200Y0112700D01*
X0020200Y0113700D01*
X0023700Y0121700D02*
X0027700Y0121700D01*
X0037200Y0121700D01*
X0040700Y0121700D01*
X0040700Y0132700D02*
X0037200Y0132700D01*
X0027200Y0132700D01*
X0023700Y0132700D01*
X0020200Y0140700D02*
X0020200Y0141700D01*
X0019200Y0141700D01*
X0019200Y0147700D01*
X0020200Y0147700D01*
X0020200Y0148700D01*
X0023700Y0156700D02*
X0027700Y0156700D01*
X0037200Y0156700D01*
X0040700Y0156700D01*
X0044200Y0148700D02*
X0044200Y0147700D01*
X0045200Y0147700D01*
X0045200Y0141700D01*
X0044200Y0141700D01*
X0044200Y0140700D01*
X0031200Y0144700D02*
X0031202Y0144763D01*
X0031208Y0144825D01*
X0031218Y0144887D01*
X0031231Y0144949D01*
X0031249Y0145009D01*
X0031270Y0145068D01*
X0031295Y0145126D01*
X0031324Y0145182D01*
X0031356Y0145236D01*
X0031391Y0145288D01*
X0031429Y0145337D01*
X0031471Y0145385D01*
X0031515Y0145429D01*
X0031563Y0145471D01*
X0031612Y0145509D01*
X0031664Y0145544D01*
X0031718Y0145576D01*
X0031774Y0145605D01*
X0031832Y0145630D01*
X0031891Y0145651D01*
X0031951Y0145669D01*
X0032013Y0145682D01*
X0032075Y0145692D01*
X0032137Y0145698D01*
X0032200Y0145700D01*
X0032263Y0145698D01*
X0032325Y0145692D01*
X0032387Y0145682D01*
X0032449Y0145669D01*
X0032509Y0145651D01*
X0032568Y0145630D01*
X0032626Y0145605D01*
X0032682Y0145576D01*
X0032736Y0145544D01*
X0032788Y0145509D01*
X0032837Y0145471D01*
X0032885Y0145429D01*
X0032929Y0145385D01*
X0032971Y0145337D01*
X0033009Y0145288D01*
X0033044Y0145236D01*
X0033076Y0145182D01*
X0033105Y0145126D01*
X0033130Y0145068D01*
X0033151Y0145009D01*
X0033169Y0144949D01*
X0033182Y0144887D01*
X0033192Y0144825D01*
X0033198Y0144763D01*
X0033200Y0144700D01*
X0033198Y0144637D01*
X0033192Y0144575D01*
X0033182Y0144513D01*
X0033169Y0144451D01*
X0033151Y0144391D01*
X0033130Y0144332D01*
X0033105Y0144274D01*
X0033076Y0144218D01*
X0033044Y0144164D01*
X0033009Y0144112D01*
X0032971Y0144063D01*
X0032929Y0144015D01*
X0032885Y0143971D01*
X0032837Y0143929D01*
X0032788Y0143891D01*
X0032736Y0143856D01*
X0032682Y0143824D01*
X0032626Y0143795D01*
X0032568Y0143770D01*
X0032509Y0143749D01*
X0032449Y0143731D01*
X0032387Y0143718D01*
X0032325Y0143708D01*
X0032263Y0143702D01*
X0032200Y0143700D01*
X0032137Y0143702D01*
X0032075Y0143708D01*
X0032013Y0143718D01*
X0031951Y0143731D01*
X0031891Y0143749D01*
X0031832Y0143770D01*
X0031774Y0143795D01*
X0031718Y0143824D01*
X0031664Y0143856D01*
X0031612Y0143891D01*
X0031563Y0143929D01*
X0031515Y0143971D01*
X0031471Y0144015D01*
X0031429Y0144063D01*
X0031391Y0144112D01*
X0031356Y0144164D01*
X0031324Y0144218D01*
X0031295Y0144274D01*
X0031270Y0144332D01*
X0031249Y0144391D01*
X0031231Y0144451D01*
X0031218Y0144513D01*
X0031208Y0144575D01*
X0031202Y0144637D01*
X0031200Y0144700D01*
X0025200Y0144700D02*
X0025202Y0144872D01*
X0025208Y0145043D01*
X0025219Y0145215D01*
X0025234Y0145386D01*
X0025253Y0145557D01*
X0025276Y0145727D01*
X0025303Y0145897D01*
X0025335Y0146066D01*
X0025370Y0146234D01*
X0025410Y0146401D01*
X0025454Y0146567D01*
X0025501Y0146732D01*
X0025553Y0146896D01*
X0025609Y0147058D01*
X0025669Y0147219D01*
X0025733Y0147379D01*
X0025801Y0147537D01*
X0025872Y0147693D01*
X0025947Y0147847D01*
X0026027Y0148000D01*
X0026109Y0148150D01*
X0026196Y0148299D01*
X0026286Y0148445D01*
X0026380Y0148589D01*
X0026477Y0148731D01*
X0026578Y0148870D01*
X0026682Y0149007D01*
X0026789Y0149141D01*
X0026900Y0149272D01*
X0027013Y0149401D01*
X0027130Y0149527D01*
X0027250Y0149650D01*
X0027373Y0149770D01*
X0027499Y0149887D01*
X0027628Y0150000D01*
X0027759Y0150111D01*
X0027893Y0150218D01*
X0028030Y0150322D01*
X0028169Y0150423D01*
X0028311Y0150520D01*
X0028455Y0150614D01*
X0028601Y0150704D01*
X0028750Y0150791D01*
X0028900Y0150873D01*
X0029053Y0150953D01*
X0029207Y0151028D01*
X0029363Y0151099D01*
X0029521Y0151167D01*
X0029681Y0151231D01*
X0029842Y0151291D01*
X0030004Y0151347D01*
X0030168Y0151399D01*
X0030333Y0151446D01*
X0030499Y0151490D01*
X0030666Y0151530D01*
X0030834Y0151565D01*
X0031003Y0151597D01*
X0031173Y0151624D01*
X0031343Y0151647D01*
X0031514Y0151666D01*
X0031685Y0151681D01*
X0031857Y0151692D01*
X0032028Y0151698D01*
X0032200Y0151700D01*
X0032372Y0151698D01*
X0032543Y0151692D01*
X0032715Y0151681D01*
X0032886Y0151666D01*
X0033057Y0151647D01*
X0033227Y0151624D01*
X0033397Y0151597D01*
X0033566Y0151565D01*
X0033734Y0151530D01*
X0033901Y0151490D01*
X0034067Y0151446D01*
X0034232Y0151399D01*
X0034396Y0151347D01*
X0034558Y0151291D01*
X0034719Y0151231D01*
X0034879Y0151167D01*
X0035037Y0151099D01*
X0035193Y0151028D01*
X0035347Y0150953D01*
X0035500Y0150873D01*
X0035650Y0150791D01*
X0035799Y0150704D01*
X0035945Y0150614D01*
X0036089Y0150520D01*
X0036231Y0150423D01*
X0036370Y0150322D01*
X0036507Y0150218D01*
X0036641Y0150111D01*
X0036772Y0150000D01*
X0036901Y0149887D01*
X0037027Y0149770D01*
X0037150Y0149650D01*
X0037270Y0149527D01*
X0037387Y0149401D01*
X0037500Y0149272D01*
X0037611Y0149141D01*
X0037718Y0149007D01*
X0037822Y0148870D01*
X0037923Y0148731D01*
X0038020Y0148589D01*
X0038114Y0148445D01*
X0038204Y0148299D01*
X0038291Y0148150D01*
X0038373Y0148000D01*
X0038453Y0147847D01*
X0038528Y0147693D01*
X0038599Y0147537D01*
X0038667Y0147379D01*
X0038731Y0147219D01*
X0038791Y0147058D01*
X0038847Y0146896D01*
X0038899Y0146732D01*
X0038946Y0146567D01*
X0038990Y0146401D01*
X0039030Y0146234D01*
X0039065Y0146066D01*
X0039097Y0145897D01*
X0039124Y0145727D01*
X0039147Y0145557D01*
X0039166Y0145386D01*
X0039181Y0145215D01*
X0039192Y0145043D01*
X0039198Y0144872D01*
X0039200Y0144700D01*
X0039198Y0144528D01*
X0039192Y0144357D01*
X0039181Y0144185D01*
X0039166Y0144014D01*
X0039147Y0143843D01*
X0039124Y0143673D01*
X0039097Y0143503D01*
X0039065Y0143334D01*
X0039030Y0143166D01*
X0038990Y0142999D01*
X0038946Y0142833D01*
X0038899Y0142668D01*
X0038847Y0142504D01*
X0038791Y0142342D01*
X0038731Y0142181D01*
X0038667Y0142021D01*
X0038599Y0141863D01*
X0038528Y0141707D01*
X0038453Y0141553D01*
X0038373Y0141400D01*
X0038291Y0141250D01*
X0038204Y0141101D01*
X0038114Y0140955D01*
X0038020Y0140811D01*
X0037923Y0140669D01*
X0037822Y0140530D01*
X0037718Y0140393D01*
X0037611Y0140259D01*
X0037500Y0140128D01*
X0037387Y0139999D01*
X0037270Y0139873D01*
X0037150Y0139750D01*
X0037027Y0139630D01*
X0036901Y0139513D01*
X0036772Y0139400D01*
X0036641Y0139289D01*
X0036507Y0139182D01*
X0036370Y0139078D01*
X0036231Y0138977D01*
X0036089Y0138880D01*
X0035945Y0138786D01*
X0035799Y0138696D01*
X0035650Y0138609D01*
X0035500Y0138527D01*
X0035347Y0138447D01*
X0035193Y0138372D01*
X0035037Y0138301D01*
X0034879Y0138233D01*
X0034719Y0138169D01*
X0034558Y0138109D01*
X0034396Y0138053D01*
X0034232Y0138001D01*
X0034067Y0137954D01*
X0033901Y0137910D01*
X0033734Y0137870D01*
X0033566Y0137835D01*
X0033397Y0137803D01*
X0033227Y0137776D01*
X0033057Y0137753D01*
X0032886Y0137734D01*
X0032715Y0137719D01*
X0032543Y0137708D01*
X0032372Y0137702D01*
X0032200Y0137700D01*
X0032028Y0137702D01*
X0031857Y0137708D01*
X0031685Y0137719D01*
X0031514Y0137734D01*
X0031343Y0137753D01*
X0031173Y0137776D01*
X0031003Y0137803D01*
X0030834Y0137835D01*
X0030666Y0137870D01*
X0030499Y0137910D01*
X0030333Y0137954D01*
X0030168Y0138001D01*
X0030004Y0138053D01*
X0029842Y0138109D01*
X0029681Y0138169D01*
X0029521Y0138233D01*
X0029363Y0138301D01*
X0029207Y0138372D01*
X0029053Y0138447D01*
X0028900Y0138527D01*
X0028750Y0138609D01*
X0028601Y0138696D01*
X0028455Y0138786D01*
X0028311Y0138880D01*
X0028169Y0138977D01*
X0028030Y0139078D01*
X0027893Y0139182D01*
X0027759Y0139289D01*
X0027628Y0139400D01*
X0027499Y0139513D01*
X0027373Y0139630D01*
X0027250Y0139750D01*
X0027130Y0139873D01*
X0027013Y0139999D01*
X0026900Y0140128D01*
X0026789Y0140259D01*
X0026682Y0140393D01*
X0026578Y0140530D01*
X0026477Y0140669D01*
X0026380Y0140811D01*
X0026286Y0140955D01*
X0026196Y0141101D01*
X0026109Y0141250D01*
X0026027Y0141400D01*
X0025947Y0141553D01*
X0025872Y0141707D01*
X0025801Y0141863D01*
X0025733Y0142021D01*
X0025669Y0142181D01*
X0025609Y0142342D01*
X0025553Y0142504D01*
X0025501Y0142668D01*
X0025454Y0142833D01*
X0025410Y0142999D01*
X0025370Y0143166D01*
X0025335Y0143334D01*
X0025303Y0143503D01*
X0025276Y0143673D01*
X0025253Y0143843D01*
X0025234Y0144014D01*
X0025219Y0144185D01*
X0025208Y0144357D01*
X0025202Y0144528D01*
X0025200Y0144700D01*
X0062200Y0149700D02*
X0064700Y0147200D01*
X0069700Y0147200D01*
X0072200Y0149700D01*
X0074700Y0147200D01*
X0079700Y0147200D01*
X0082200Y0149700D01*
X0084700Y0147200D01*
X0089700Y0147200D01*
X0092200Y0149700D01*
X0092200Y0154700D01*
X0089700Y0157200D01*
X0084700Y0157200D01*
X0082200Y0154700D01*
X0079700Y0157200D01*
X0074700Y0157200D01*
X0072200Y0154700D01*
X0069700Y0157200D01*
X0064700Y0157200D01*
X0062200Y0154700D01*
X0062200Y0149700D01*
X0142200Y0149700D02*
X0144700Y0147200D01*
X0149700Y0147200D01*
X0152200Y0149700D01*
X0154700Y0147200D01*
X0159700Y0147200D01*
X0162200Y0149700D01*
X0164700Y0147200D01*
X0169700Y0147200D01*
X0172200Y0149700D01*
X0172200Y0154700D01*
X0169700Y0157200D01*
X0164700Y0157200D01*
X0162200Y0154700D01*
X0159700Y0157200D01*
X0154700Y0157200D01*
X0152200Y0154700D01*
X0149700Y0157200D01*
X0144700Y0157200D01*
X0142200Y0154700D01*
X0142200Y0149700D01*
X0154700Y0119200D02*
X0159700Y0119200D01*
X0159798Y0119198D01*
X0159896Y0119192D01*
X0159994Y0119183D01*
X0160091Y0119169D01*
X0160188Y0119152D01*
X0160284Y0119131D01*
X0160379Y0119106D01*
X0160473Y0119078D01*
X0160565Y0119045D01*
X0160657Y0119010D01*
X0160747Y0118970D01*
X0160835Y0118928D01*
X0160922Y0118881D01*
X0161006Y0118832D01*
X0161089Y0118779D01*
X0161169Y0118723D01*
X0161248Y0118663D01*
X0161324Y0118601D01*
X0161397Y0118536D01*
X0161468Y0118468D01*
X0161536Y0118397D01*
X0161601Y0118324D01*
X0161663Y0118248D01*
X0161723Y0118169D01*
X0161779Y0118089D01*
X0161832Y0118006D01*
X0161881Y0117922D01*
X0161928Y0117835D01*
X0161970Y0117747D01*
X0162010Y0117657D01*
X0162045Y0117565D01*
X0162078Y0117473D01*
X0162106Y0117379D01*
X0162131Y0117284D01*
X0162152Y0117188D01*
X0162169Y0117091D01*
X0162183Y0116994D01*
X0162192Y0116896D01*
X0162198Y0116798D01*
X0162200Y0116700D01*
X0154700Y0119200D02*
X0154602Y0119198D01*
X0154504Y0119192D01*
X0154406Y0119183D01*
X0154309Y0119169D01*
X0154212Y0119152D01*
X0154116Y0119131D01*
X0154021Y0119106D01*
X0153927Y0119078D01*
X0153835Y0119045D01*
X0153743Y0119010D01*
X0153653Y0118970D01*
X0153565Y0118928D01*
X0153478Y0118881D01*
X0153394Y0118832D01*
X0153311Y0118779D01*
X0153231Y0118723D01*
X0153152Y0118663D01*
X0153076Y0118601D01*
X0153003Y0118536D01*
X0152932Y0118468D01*
X0152864Y0118397D01*
X0152799Y0118324D01*
X0152737Y0118248D01*
X0152677Y0118169D01*
X0152621Y0118089D01*
X0152568Y0118006D01*
X0152519Y0117922D01*
X0152472Y0117835D01*
X0152430Y0117747D01*
X0152390Y0117657D01*
X0152355Y0117565D01*
X0152322Y0117473D01*
X0152294Y0117379D01*
X0152269Y0117284D01*
X0152248Y0117188D01*
X0152231Y0117091D01*
X0152217Y0116994D01*
X0152208Y0116896D01*
X0152202Y0116798D01*
X0152200Y0116700D01*
X0152200Y0097700D02*
X0152198Y0097602D01*
X0152192Y0097504D01*
X0152183Y0097406D01*
X0152169Y0097309D01*
X0152152Y0097212D01*
X0152131Y0097116D01*
X0152106Y0097021D01*
X0152078Y0096927D01*
X0152045Y0096835D01*
X0152010Y0096743D01*
X0151970Y0096653D01*
X0151928Y0096565D01*
X0151881Y0096478D01*
X0151832Y0096394D01*
X0151779Y0096311D01*
X0151723Y0096231D01*
X0151663Y0096152D01*
X0151601Y0096076D01*
X0151536Y0096003D01*
X0151468Y0095932D01*
X0151397Y0095864D01*
X0151324Y0095799D01*
X0151248Y0095737D01*
X0151169Y0095677D01*
X0151089Y0095621D01*
X0151006Y0095568D01*
X0150922Y0095519D01*
X0150835Y0095472D01*
X0150747Y0095430D01*
X0150657Y0095390D01*
X0150565Y0095355D01*
X0150473Y0095322D01*
X0150379Y0095294D01*
X0150284Y0095269D01*
X0150188Y0095248D01*
X0150091Y0095231D01*
X0149994Y0095217D01*
X0149896Y0095208D01*
X0149798Y0095202D01*
X0149700Y0095200D01*
X0162200Y0097700D02*
X0162202Y0097602D01*
X0162208Y0097504D01*
X0162217Y0097406D01*
X0162231Y0097309D01*
X0162248Y0097212D01*
X0162269Y0097116D01*
X0162294Y0097021D01*
X0162322Y0096927D01*
X0162355Y0096835D01*
X0162390Y0096743D01*
X0162430Y0096653D01*
X0162472Y0096565D01*
X0162519Y0096478D01*
X0162568Y0096394D01*
X0162621Y0096311D01*
X0162677Y0096231D01*
X0162737Y0096152D01*
X0162799Y0096076D01*
X0162864Y0096003D01*
X0162932Y0095932D01*
X0163003Y0095864D01*
X0163076Y0095799D01*
X0163152Y0095737D01*
X0163231Y0095677D01*
X0163311Y0095621D01*
X0163394Y0095568D01*
X0163478Y0095519D01*
X0163565Y0095472D01*
X0163653Y0095430D01*
X0163743Y0095390D01*
X0163835Y0095355D01*
X0163927Y0095322D01*
X0164021Y0095294D01*
X0164116Y0095269D01*
X0164212Y0095248D01*
X0164309Y0095231D01*
X0164406Y0095217D01*
X0164504Y0095208D01*
X0164602Y0095202D01*
X0164700Y0095200D01*
X0234700Y0095200D02*
X0299700Y0095200D01*
X0299798Y0095202D01*
X0299896Y0095208D01*
X0299994Y0095217D01*
X0300091Y0095231D01*
X0300188Y0095248D01*
X0300284Y0095269D01*
X0300379Y0095294D01*
X0300473Y0095322D01*
X0300565Y0095355D01*
X0300657Y0095390D01*
X0300747Y0095430D01*
X0300835Y0095472D01*
X0300922Y0095519D01*
X0301006Y0095568D01*
X0301089Y0095621D01*
X0301169Y0095677D01*
X0301248Y0095737D01*
X0301324Y0095799D01*
X0301397Y0095864D01*
X0301468Y0095932D01*
X0301536Y0096003D01*
X0301601Y0096076D01*
X0301663Y0096152D01*
X0301723Y0096231D01*
X0301779Y0096311D01*
X0301832Y0096394D01*
X0301881Y0096478D01*
X0301928Y0096565D01*
X0301970Y0096653D01*
X0302010Y0096743D01*
X0302045Y0096835D01*
X0302078Y0096927D01*
X0302106Y0097021D01*
X0302131Y0097116D01*
X0302152Y0097212D01*
X0302169Y0097309D01*
X0302183Y0097406D01*
X0302192Y0097504D01*
X0302198Y0097602D01*
X0302200Y0097700D01*
X0302200Y0116700D01*
X0302198Y0116798D01*
X0302192Y0116896D01*
X0302183Y0116994D01*
X0302169Y0117091D01*
X0302152Y0117188D01*
X0302131Y0117284D01*
X0302106Y0117379D01*
X0302078Y0117473D01*
X0302045Y0117565D01*
X0302010Y0117657D01*
X0301970Y0117747D01*
X0301928Y0117835D01*
X0301881Y0117922D01*
X0301832Y0118006D01*
X0301779Y0118089D01*
X0301723Y0118169D01*
X0301663Y0118248D01*
X0301601Y0118324D01*
X0301536Y0118397D01*
X0301468Y0118468D01*
X0301397Y0118536D01*
X0301324Y0118601D01*
X0301248Y0118663D01*
X0301169Y0118723D01*
X0301089Y0118779D01*
X0301006Y0118832D01*
X0300922Y0118881D01*
X0300835Y0118928D01*
X0300747Y0118970D01*
X0300657Y0119010D01*
X0300565Y0119045D01*
X0300473Y0119078D01*
X0300379Y0119106D01*
X0300284Y0119131D01*
X0300188Y0119152D01*
X0300091Y0119169D01*
X0299994Y0119183D01*
X0299896Y0119192D01*
X0299798Y0119198D01*
X0299700Y0119200D01*
X0234700Y0119200D01*
X0234602Y0119198D01*
X0234504Y0119192D01*
X0234406Y0119183D01*
X0234309Y0119169D01*
X0234212Y0119152D01*
X0234116Y0119131D01*
X0234021Y0119106D01*
X0233927Y0119078D01*
X0233835Y0119045D01*
X0233743Y0119010D01*
X0233653Y0118970D01*
X0233565Y0118928D01*
X0233478Y0118881D01*
X0233394Y0118832D01*
X0233311Y0118779D01*
X0233231Y0118723D01*
X0233152Y0118663D01*
X0233076Y0118601D01*
X0233003Y0118536D01*
X0232932Y0118468D01*
X0232864Y0118397D01*
X0232799Y0118324D01*
X0232737Y0118248D01*
X0232677Y0118169D01*
X0232621Y0118089D01*
X0232568Y0118006D01*
X0232519Y0117922D01*
X0232472Y0117835D01*
X0232430Y0117747D01*
X0232390Y0117657D01*
X0232355Y0117565D01*
X0232322Y0117473D01*
X0232294Y0117379D01*
X0232269Y0117284D01*
X0232248Y0117188D01*
X0232231Y0117091D01*
X0232217Y0116994D01*
X0232208Y0116896D01*
X0232202Y0116798D01*
X0232200Y0116700D01*
X0232200Y0097700D02*
X0232202Y0097602D01*
X0232208Y0097504D01*
X0232217Y0097406D01*
X0232231Y0097309D01*
X0232248Y0097212D01*
X0232269Y0097116D01*
X0232294Y0097021D01*
X0232322Y0096927D01*
X0232355Y0096835D01*
X0232390Y0096743D01*
X0232430Y0096653D01*
X0232472Y0096565D01*
X0232519Y0096478D01*
X0232568Y0096394D01*
X0232621Y0096311D01*
X0232677Y0096231D01*
X0232737Y0096152D01*
X0232799Y0096076D01*
X0232864Y0096003D01*
X0232932Y0095932D01*
X0233003Y0095864D01*
X0233076Y0095799D01*
X0233152Y0095737D01*
X0233231Y0095677D01*
X0233311Y0095621D01*
X0233394Y0095568D01*
X0233478Y0095519D01*
X0233565Y0095472D01*
X0233653Y0095430D01*
X0233743Y0095390D01*
X0233835Y0095355D01*
X0233927Y0095322D01*
X0234021Y0095294D01*
X0234116Y0095269D01*
X0234212Y0095248D01*
X0234309Y0095231D01*
X0234406Y0095217D01*
X0234504Y0095208D01*
X0234602Y0095202D01*
X0234700Y0095200D01*
X0234700Y0147700D02*
X0232200Y0150200D01*
X0229700Y0147700D01*
X0224700Y0147700D01*
X0222200Y0150200D01*
X0222200Y0155200D01*
X0224700Y0157700D01*
X0229700Y0157700D01*
X0232200Y0155200D01*
X0234700Y0157700D01*
X0239700Y0157700D01*
X0242200Y0155200D01*
X0244700Y0157700D01*
X0249700Y0157700D01*
X0252200Y0155200D01*
X0252200Y0150200D01*
X0249700Y0147700D01*
X0244700Y0147700D01*
X0242200Y0150200D01*
X0239700Y0147700D01*
X0234700Y0147700D01*
X0040700Y0097700D02*
X0037200Y0097700D01*
X0027200Y0097700D01*
X0023700Y0097700D01*
X0272200Y0034700D02*
X0272200Y0029700D01*
X0274700Y0027200D01*
X0279700Y0027200D01*
X0282200Y0029700D01*
X0284700Y0027200D01*
X0289700Y0027200D01*
X0292200Y0029700D01*
X0294700Y0027200D01*
X0299700Y0027200D01*
X0302200Y0029700D01*
X0304700Y0027200D01*
X0309700Y0027200D01*
X0312200Y0029700D01*
X0314700Y0027200D01*
X0319700Y0027200D01*
X0322200Y0029700D01*
X0322200Y0034700D01*
X0319700Y0037200D01*
X0314700Y0037200D01*
X0312200Y0034700D01*
X0309700Y0037200D01*
X0304700Y0037200D01*
X0302200Y0034700D01*
X0299700Y0037200D01*
X0294700Y0037200D01*
X0292200Y0034700D01*
X0289700Y0037200D01*
X0284700Y0037200D01*
X0282200Y0034700D01*
X0279700Y0037200D01*
X0274700Y0037200D01*
X0272200Y0034700D01*
D12*
X0273201Y0038950D02*
X0272450Y0039701D01*
X0273201Y0038950D02*
X0274702Y0038950D01*
X0275453Y0039701D01*
X0275453Y0040451D01*
X0274702Y0041202D01*
X0273201Y0041202D01*
X0272450Y0041953D01*
X0272450Y0042703D01*
X0273201Y0043454D01*
X0274702Y0043454D01*
X0275453Y0042703D01*
X0277054Y0043454D02*
X0277054Y0040451D01*
X0278555Y0038950D01*
X0280056Y0040451D01*
X0280056Y0043454D01*
X0281658Y0042703D02*
X0282408Y0043454D01*
X0283910Y0043454D01*
X0284660Y0042703D01*
X0284660Y0041953D01*
X0281658Y0038950D01*
X0284660Y0038950D01*
X0276451Y0025454D02*
X0276451Y0020950D01*
X0274950Y0020950D02*
X0277953Y0020950D01*
X0274950Y0023953D02*
X0276451Y0025454D01*
X0314950Y0039701D02*
X0315701Y0038950D01*
X0317202Y0038950D01*
X0317953Y0039701D01*
X0317953Y0041202D01*
X0317202Y0041953D01*
X0316451Y0041953D01*
X0314950Y0041202D01*
X0314950Y0043454D01*
X0317953Y0043454D01*
X0300306Y0088950D02*
X0298805Y0088950D01*
X0298054Y0089701D01*
X0298054Y0090451D01*
X0298805Y0091202D01*
X0300306Y0091202D01*
X0301056Y0090451D01*
X0301056Y0089701D01*
X0300306Y0088950D01*
X0300306Y0091202D02*
X0301056Y0091953D01*
X0301056Y0092703D01*
X0300306Y0093454D01*
X0298805Y0093454D01*
X0298054Y0092703D01*
X0298054Y0091953D01*
X0298805Y0091202D01*
X0296453Y0091202D02*
X0293450Y0091202D01*
X0295702Y0093454D01*
X0295702Y0088950D01*
X0220453Y0150450D02*
X0217450Y0150450D01*
X0218951Y0150450D02*
X0218951Y0154954D01*
X0217450Y0153453D01*
X0253450Y0155701D02*
X0254201Y0154950D01*
X0255702Y0154950D01*
X0256453Y0155701D01*
X0256453Y0156451D01*
X0255702Y0157202D01*
X0254201Y0157202D01*
X0253450Y0157953D01*
X0253450Y0158703D01*
X0254201Y0159454D01*
X0255702Y0159454D01*
X0256453Y0158703D01*
X0258054Y0159454D02*
X0258054Y0156451D01*
X0259555Y0154950D01*
X0261056Y0156451D01*
X0261056Y0159454D01*
X0262658Y0157202D02*
X0265660Y0157202D01*
X0264910Y0159454D02*
X0262658Y0157202D01*
X0264910Y0154950D02*
X0264910Y0159454D01*
X0170660Y0143703D02*
X0170660Y0142953D01*
X0169910Y0142202D01*
X0170660Y0141451D01*
X0170660Y0140701D01*
X0169910Y0139950D01*
X0168408Y0139950D01*
X0167658Y0140701D01*
X0166056Y0141451D02*
X0164555Y0139950D01*
X0163054Y0141451D01*
X0163054Y0144454D01*
X0161453Y0143703D02*
X0160702Y0144454D01*
X0159201Y0144454D01*
X0158450Y0143703D01*
X0158450Y0142953D01*
X0159201Y0142202D01*
X0160702Y0142202D01*
X0161453Y0141451D01*
X0161453Y0140701D01*
X0160702Y0139950D01*
X0159201Y0139950D01*
X0158450Y0140701D01*
X0166056Y0141451D02*
X0166056Y0144454D01*
X0167658Y0143703D02*
X0168408Y0144454D01*
X0169910Y0144454D01*
X0170660Y0143703D01*
X0169910Y0142202D02*
X0169159Y0142202D01*
X0140453Y0149950D02*
X0137450Y0149950D01*
X0138951Y0149950D02*
X0138951Y0154454D01*
X0137450Y0152953D01*
X0067660Y0140950D02*
X0064658Y0140950D01*
X0066159Y0140950D02*
X0066159Y0145454D01*
X0064658Y0143953D01*
X0063056Y0142451D02*
X0063056Y0145454D01*
X0060054Y0145454D02*
X0060054Y0142451D01*
X0061555Y0140950D01*
X0063056Y0142451D01*
X0058453Y0142451D02*
X0058453Y0141701D01*
X0057702Y0140950D01*
X0056201Y0140950D01*
X0055450Y0141701D01*
X0056201Y0143202D02*
X0057702Y0143202D01*
X0058453Y0142451D01*
X0058453Y0144703D02*
X0057702Y0145454D01*
X0056201Y0145454D01*
X0055450Y0144703D01*
X0055450Y0143953D01*
X0056201Y0143202D01*
X0057450Y0149950D02*
X0060453Y0149950D01*
X0058951Y0149950D02*
X0058951Y0154454D01*
X0057450Y0152953D01*
X0066951Y0125454D02*
X0066951Y0120950D01*
X0065450Y0120950D02*
X0068453Y0120950D01*
X0065450Y0123953D02*
X0066951Y0125454D01*
X0060950Y0116264D02*
X0060950Y0113262D01*
X0057947Y0116264D01*
X0057197Y0116264D01*
X0056446Y0115514D01*
X0056446Y0114012D01*
X0057197Y0113262D01*
X0056446Y0111660D02*
X0060950Y0111660D01*
X0056446Y0108658D01*
X0060950Y0108658D01*
X0060199Y0107056D02*
X0057197Y0107056D01*
X0056446Y0106306D01*
X0056446Y0104805D01*
X0057197Y0104054D01*
X0060199Y0104054D01*
X0060950Y0104805D01*
X0060950Y0106306D01*
X0060199Y0107056D01*
X0060199Y0102453D02*
X0060950Y0101702D01*
X0060950Y0100201D01*
X0060199Y0099450D01*
X0057197Y0099450D01*
X0056446Y0100201D01*
X0056446Y0101702D01*
X0057197Y0102453D01*
D13*
X0127200Y0102200D03*
X0157200Y0102200D03*
X0157200Y0112200D03*
X0227200Y0102200D03*
X0297200Y0102200D03*
D14*
X0312200Y0081708D03*
X0322200Y0081708D03*
X0332200Y0081708D03*
X0342200Y0081708D03*
M02*
