G75*
%MOIN*%
%OFA0B0*%
%FSLAX25Y25*%
%IPPOS*%
%LPD*%
%AMOC8*
5,1,8,0,0,1.08239X$1,22.5*
%
%ADD10C,0.05200*%
%ADD11C,0.05600*%
%ADD12OC8,0.05600*%
%ADD13R,0.04331X0.03937*%
%ADD14C,0.06000*%
%ADD15R,0.03150X0.03150*%
%ADD16R,0.04252X0.04134*%
%ADD17C,0.03175*%
%ADD18C,0.01600*%
%ADD19C,0.02400*%
%ADD20C,0.04000*%
%ADD21C,0.01200*%
D10*
X0017200Y0014600D02*
X0017200Y0019800D01*
X0027200Y0019800D02*
X0027200Y0014600D01*
X0037200Y0014600D02*
X0037200Y0019800D01*
X0047200Y0019800D02*
X0047200Y0014600D01*
X0057200Y0014600D02*
X0057200Y0019800D01*
X0067200Y0019800D02*
X0067200Y0014600D01*
X0077200Y0014600D02*
X0077200Y0019800D01*
X0087200Y0019800D02*
X0087200Y0014600D01*
X0097200Y0014600D02*
X0097200Y0019800D01*
X0107200Y0019800D02*
X0107200Y0014600D01*
X0117200Y0014600D02*
X0117200Y0019800D01*
X0127200Y0019800D02*
X0127200Y0014600D01*
X0137200Y0014600D02*
X0137200Y0019800D01*
X0147200Y0019800D02*
X0147200Y0014600D01*
X0157200Y0014600D02*
X0157200Y0019800D01*
X0167200Y0019800D02*
X0167200Y0014600D01*
X0177200Y0014600D02*
X0177200Y0019800D01*
X0187200Y0019800D02*
X0187200Y0014600D01*
X0197200Y0014600D02*
X0197200Y0019800D01*
X0207200Y0019800D02*
X0207200Y0014600D01*
X0217200Y0014600D02*
X0217200Y0019800D01*
X0227200Y0019800D02*
X0227200Y0014600D01*
X0237200Y0014600D02*
X0237200Y0019800D01*
X0247200Y0019800D02*
X0247200Y0014600D01*
X0257200Y0014600D02*
X0257200Y0019800D01*
X0267200Y0019800D02*
X0267200Y0014600D01*
X0277200Y0014600D02*
X0277200Y0019800D01*
X0287200Y0019800D02*
X0287200Y0014600D01*
X0297200Y0014600D02*
X0297200Y0019800D01*
X0307200Y0019800D02*
X0307200Y0014600D01*
X0317200Y0014600D02*
X0317200Y0019800D01*
X0327200Y0019800D02*
X0327200Y0014600D01*
X0337200Y0014600D02*
X0337200Y0019800D01*
X0337200Y0164600D02*
X0337200Y0169800D01*
X0327200Y0169800D02*
X0327200Y0164600D01*
X0317200Y0164600D02*
X0317200Y0169800D01*
X0307200Y0169800D02*
X0307200Y0164600D01*
X0297200Y0164600D02*
X0297200Y0169800D01*
X0287200Y0169800D02*
X0287200Y0164600D01*
X0277200Y0164600D02*
X0277200Y0169800D01*
X0267200Y0169800D02*
X0267200Y0164600D01*
X0257200Y0164600D02*
X0257200Y0169800D01*
X0247200Y0169800D02*
X0247200Y0164600D01*
X0237200Y0164600D02*
X0237200Y0169800D01*
X0227200Y0169800D02*
X0227200Y0164600D01*
X0217200Y0164600D02*
X0217200Y0169800D01*
X0207200Y0169800D02*
X0207200Y0164600D01*
X0197200Y0164600D02*
X0197200Y0169800D01*
X0187200Y0169800D02*
X0187200Y0164600D01*
X0177200Y0164600D02*
X0177200Y0169800D01*
X0167200Y0169800D02*
X0167200Y0164600D01*
X0157200Y0164600D02*
X0157200Y0169800D01*
X0147200Y0169800D02*
X0147200Y0164600D01*
X0137200Y0164600D02*
X0137200Y0169800D01*
X0127200Y0169800D02*
X0127200Y0164600D01*
X0117200Y0164600D02*
X0117200Y0169800D01*
X0107200Y0169800D02*
X0107200Y0164600D01*
X0097200Y0164600D02*
X0097200Y0169800D01*
X0087200Y0169800D02*
X0087200Y0164600D01*
X0077200Y0164600D02*
X0077200Y0169800D01*
X0067200Y0169800D02*
X0067200Y0164600D01*
X0057200Y0164600D02*
X0057200Y0169800D01*
X0047200Y0169800D02*
X0047200Y0164600D01*
X0037200Y0164600D02*
X0037200Y0169800D01*
X0027200Y0169800D02*
X0027200Y0164600D01*
X0017200Y0164600D02*
X0017200Y0169800D01*
D11*
X0067200Y0112200D03*
X0157200Y0112200D03*
X0247200Y0112200D03*
D12*
X0237200Y0112200D03*
X0227200Y0112200D03*
X0217200Y0112200D03*
X0207200Y0112200D03*
X0197200Y0112200D03*
X0187200Y0112200D03*
X0177200Y0112200D03*
X0167200Y0112200D03*
X0167200Y0102200D03*
X0157200Y0102200D03*
X0147200Y0102200D03*
X0137200Y0102200D03*
X0127200Y0102200D03*
X0117200Y0102200D03*
X0107200Y0102200D03*
X0097200Y0102200D03*
X0087200Y0102200D03*
X0077200Y0102200D03*
X0067200Y0102200D03*
X0077200Y0112200D03*
X0087200Y0112200D03*
X0097200Y0112200D03*
X0107200Y0112200D03*
X0117200Y0112200D03*
X0127200Y0112200D03*
X0137200Y0112200D03*
X0147200Y0112200D03*
X0177200Y0102200D03*
X0187200Y0102200D03*
X0197200Y0102200D03*
X0207200Y0102200D03*
X0217200Y0102200D03*
X0227200Y0102200D03*
X0237200Y0102200D03*
X0247200Y0102200D03*
X0257200Y0102200D03*
X0267200Y0102200D03*
X0277200Y0102200D03*
X0287200Y0102200D03*
X0297200Y0102200D03*
X0297200Y0112200D03*
X0287200Y0112200D03*
X0277200Y0112200D03*
X0267200Y0112200D03*
X0257200Y0112200D03*
D13*
X0257200Y0123854D03*
X0257200Y0130546D03*
X0247200Y0130546D03*
X0247200Y0123854D03*
X0227200Y0123854D03*
X0227200Y0130546D03*
X0217200Y0130546D03*
X0217200Y0123854D03*
X0207200Y0123854D03*
X0207200Y0130546D03*
X0197200Y0130546D03*
X0197200Y0123854D03*
X0187200Y0123854D03*
X0177200Y0123854D03*
X0177200Y0130546D03*
X0187200Y0130546D03*
X0147200Y0128854D03*
X0137200Y0128854D03*
X0127200Y0128854D03*
X0117200Y0128854D03*
X0107200Y0128854D03*
X0097200Y0128854D03*
X0087200Y0128854D03*
X0077200Y0128854D03*
X0077200Y0135546D03*
X0087200Y0135546D03*
X0097200Y0135546D03*
X0107200Y0135546D03*
X0117200Y0135546D03*
X0127200Y0135546D03*
X0137200Y0135546D03*
X0147200Y0135546D03*
X0147200Y0085546D03*
X0147200Y0078854D03*
X0137200Y0078854D03*
X0137200Y0085546D03*
X0117200Y0085546D03*
X0117200Y0078854D03*
X0107200Y0078854D03*
X0107200Y0085546D03*
X0097200Y0085546D03*
X0097200Y0078854D03*
X0087200Y0078854D03*
X0087200Y0085546D03*
X0187200Y0085546D03*
X0187200Y0078854D03*
X0197200Y0078854D03*
X0197200Y0085546D03*
X0207200Y0085546D03*
X0207200Y0078854D03*
X0217200Y0078854D03*
X0217200Y0085546D03*
X0257200Y0085546D03*
X0257200Y0078854D03*
X0267200Y0078854D03*
X0267200Y0085546D03*
X0277200Y0085546D03*
X0277200Y0078854D03*
X0287200Y0078854D03*
X0287200Y0085546D03*
X0312200Y0093854D03*
X0322200Y0093854D03*
X0322200Y0100546D03*
X0312200Y0100546D03*
X0332200Y0100546D03*
X0332200Y0093854D03*
X0342200Y0093854D03*
X0342200Y0100546D03*
X0297200Y0123854D03*
X0287200Y0123854D03*
X0287200Y0130546D03*
X0297200Y0130546D03*
X0277200Y0130546D03*
X0277200Y0123854D03*
X0267200Y0123854D03*
X0267200Y0130546D03*
D14*
X0247200Y0149700D02*
X0247200Y0155700D01*
X0237200Y0155700D02*
X0237200Y0149700D01*
X0227200Y0149700D02*
X0227200Y0155700D01*
X0167200Y0155200D02*
X0167200Y0149200D01*
X0157200Y0149200D02*
X0157200Y0155200D01*
X0147200Y0155200D02*
X0147200Y0149200D01*
X0087200Y0149200D02*
X0087200Y0155200D01*
X0077200Y0155200D02*
X0077200Y0149200D01*
X0067200Y0149200D02*
X0067200Y0155200D01*
X0048000Y0153600D02*
X0042000Y0153600D01*
X0022400Y0153600D02*
X0016400Y0153600D01*
X0016400Y0135800D02*
X0022400Y0135800D01*
X0042000Y0135800D02*
X0048000Y0135800D01*
X0048000Y0118600D02*
X0042000Y0118600D01*
X0022400Y0118600D02*
X0016400Y0118600D01*
X0016400Y0100800D02*
X0022400Y0100800D01*
X0042000Y0100800D02*
X0048000Y0100800D01*
X0048000Y0083600D02*
X0042000Y0083600D01*
X0022400Y0083600D02*
X0016400Y0083600D01*
X0016400Y0065800D02*
X0022400Y0065800D01*
X0042000Y0065800D02*
X0048000Y0065800D01*
X0048000Y0048600D02*
X0042000Y0048600D01*
X0022400Y0048600D02*
X0016400Y0048600D01*
X0016400Y0030800D02*
X0022400Y0030800D01*
X0042000Y0030800D02*
X0048000Y0030800D01*
X0277200Y0029200D02*
X0277200Y0035200D01*
X0287200Y0035200D02*
X0287200Y0029200D01*
X0297200Y0029200D02*
X0297200Y0035200D01*
X0307200Y0035200D02*
X0307200Y0029200D01*
X0317200Y0029200D02*
X0317200Y0035200D01*
D15*
X0312200Y0079247D03*
X0322200Y0079247D03*
X0322200Y0085153D03*
X0312200Y0085153D03*
X0332200Y0085153D03*
X0332200Y0079247D03*
X0342200Y0079247D03*
X0342200Y0085153D03*
D16*
X0247200Y0085645D03*
X0247200Y0078755D03*
X0237200Y0078755D03*
X0237200Y0085645D03*
X0177200Y0085645D03*
X0177200Y0078755D03*
X0167200Y0078755D03*
X0167200Y0085645D03*
X0077200Y0085645D03*
X0077200Y0078755D03*
X0067200Y0078755D03*
X0067200Y0085645D03*
D17*
X0067200Y0074700D03*
X0077200Y0074700D03*
X0112200Y0037200D03*
X0112200Y0032200D03*
X0152200Y0032200D03*
X0152200Y0037200D03*
X0167200Y0074700D03*
X0177200Y0074700D03*
X0153700Y0077200D03*
X0153700Y0087700D03*
X0152200Y0098200D03*
X0152200Y0116200D03*
X0218700Y0147700D03*
X0223200Y0130700D03*
X0257200Y0134200D03*
X0263200Y0136700D03*
X0271700Y0136700D03*
X0257200Y0145700D03*
X0297200Y0144700D03*
X0302200Y0157200D03*
X0312200Y0157200D03*
X0327200Y0152200D03*
X0332200Y0139700D03*
X0332200Y0074700D03*
X0322200Y0074700D03*
X0312200Y0074700D03*
X0342200Y0074700D03*
X0247200Y0074700D03*
X0237200Y0074700D03*
D18*
X0312200Y0074700D02*
X0312200Y0079247D01*
X0322200Y0079247D02*
X0322200Y0074700D01*
X0332200Y0074700D02*
X0332200Y0079247D01*
X0332200Y0085153D02*
X0332200Y0093854D01*
X0332200Y0100546D02*
X0327200Y0105546D01*
X0327200Y0142200D01*
X0337200Y0152200D01*
X0337200Y0157200D01*
X0342200Y0162200D01*
X0342200Y0174700D01*
X0339700Y0177200D01*
X0287200Y0177200D01*
X0284700Y0174700D01*
X0279700Y0174700D01*
X0277200Y0172200D01*
X0277200Y0167200D01*
X0287200Y0167200D02*
X0287200Y0172200D01*
X0289700Y0174700D01*
X0329700Y0174700D01*
X0332200Y0172200D01*
X0332200Y0152200D01*
X0322200Y0142200D01*
X0322200Y0100546D01*
X0312200Y0100546D02*
X0312200Y0137200D01*
X0327200Y0152200D01*
X0327200Y0162200D02*
X0314700Y0149700D01*
X0294700Y0149700D01*
X0287200Y0142200D01*
X0287200Y0130546D01*
X0277200Y0130546D02*
X0277200Y0136700D01*
X0271700Y0136700D01*
X0277200Y0136700D02*
X0277200Y0146200D01*
X0283700Y0152700D01*
X0303700Y0152700D01*
X0307200Y0156200D01*
X0307200Y0167200D01*
X0317200Y0167200D02*
X0317200Y0159700D01*
X0314700Y0157200D01*
X0312200Y0157200D01*
X0302200Y0157200D02*
X0277200Y0157200D01*
X0267200Y0147200D01*
X0267200Y0141200D01*
X0267200Y0130546D01*
X0257200Y0130546D02*
X0257200Y0134200D01*
X0261700Y0138200D02*
X0263200Y0136700D01*
X0261700Y0138200D02*
X0210200Y0138200D01*
X0207200Y0135200D01*
X0207200Y0130546D01*
X0197200Y0130546D02*
X0207854Y0141200D01*
X0267200Y0141200D01*
X0257200Y0145700D02*
X0255700Y0144200D01*
X0187200Y0144200D01*
X0217200Y0149200D02*
X0218700Y0147700D01*
X0217200Y0149200D02*
X0217200Y0167200D01*
X0219700Y0135200D02*
X0249700Y0135200D01*
X0227200Y0130546D02*
X0227046Y0130700D01*
X0223200Y0130700D01*
X0217200Y0130546D02*
X0217200Y0132700D01*
X0219700Y0135200D01*
X0152200Y0133700D02*
X0152200Y0116200D01*
X0152200Y0098200D02*
X0152200Y0089200D01*
X0153700Y0087700D01*
X0147200Y0078854D02*
X0147200Y0064200D01*
X0152200Y0059200D01*
X0152200Y0052200D01*
X0177200Y0027200D01*
X0177200Y0017200D01*
X0187200Y0017200D02*
X0187200Y0030700D01*
X0153700Y0064200D01*
X0153700Y0077200D01*
X0087200Y0135546D02*
X0087200Y0137200D01*
X0084700Y0139700D01*
X0059700Y0139700D01*
X0054700Y0144700D01*
X0054700Y0157200D01*
X0047200Y0164700D01*
X0047200Y0167200D01*
X0037200Y0167200D02*
X0037200Y0162200D01*
X0034700Y0159700D01*
X0034700Y0147200D01*
X0037200Y0144700D01*
X0049700Y0144700D01*
X0058854Y0135546D01*
X0077200Y0135546D01*
X0312200Y0093854D02*
X0312200Y0085153D01*
X0322200Y0085153D02*
X0322200Y0093854D01*
X0342200Y0093854D02*
X0342200Y0085153D01*
X0342200Y0079247D02*
X0342200Y0074700D01*
X0342200Y0100546D02*
X0342200Y0104700D01*
X0339700Y0107200D01*
X0334700Y0107200D01*
X0332200Y0109700D01*
X0332200Y0139700D01*
X0327200Y0162200D02*
X0327200Y0167200D01*
D19*
X0012200Y0007200D02*
X0009700Y0009700D01*
X0009700Y0132200D01*
X0013300Y0135800D01*
X0019400Y0135800D01*
X0029700Y0132200D02*
X0034700Y0127200D01*
X0062200Y0127200D01*
X0072200Y0117200D01*
X0072200Y0109700D01*
X0074700Y0107200D01*
X0077200Y0107200D01*
X0077200Y0102200D01*
X0077200Y0107200D02*
X0177200Y0107200D01*
X0177200Y0102200D01*
X0187200Y0102200D02*
X0187200Y0085546D01*
X0187200Y0078854D02*
X0187200Y0067200D01*
X0197200Y0057200D01*
X0197200Y0017200D01*
X0207200Y0017200D02*
X0207200Y0057200D01*
X0197200Y0067200D01*
X0197200Y0078854D01*
X0197200Y0085546D02*
X0197200Y0102200D01*
X0207200Y0102200D02*
X0207200Y0085546D01*
X0207200Y0078854D02*
X0207200Y0067200D01*
X0222200Y0052200D01*
X0222200Y0012200D01*
X0227200Y0007200D01*
X0322200Y0007200D01*
X0327200Y0012200D01*
X0327200Y0017200D01*
X0317200Y0017200D02*
X0317200Y0032200D01*
X0307200Y0032200D02*
X0307200Y0017200D01*
X0297200Y0017200D02*
X0297200Y0032200D01*
X0287200Y0032200D02*
X0287200Y0017200D01*
X0277200Y0017200D02*
X0277200Y0032200D01*
X0267200Y0017200D02*
X0267200Y0052200D01*
X0287200Y0072200D01*
X0287200Y0078854D01*
X0287200Y0085546D02*
X0287200Y0102200D01*
X0277200Y0102200D02*
X0277200Y0085546D01*
X0277200Y0078854D02*
X0277200Y0072200D01*
X0257200Y0052200D01*
X0257200Y0017200D01*
X0247200Y0017200D02*
X0247200Y0052200D01*
X0267200Y0072200D01*
X0267200Y0078854D01*
X0267200Y0085546D02*
X0267200Y0102200D01*
X0257200Y0102200D02*
X0257200Y0085546D01*
X0257200Y0078854D02*
X0257200Y0072200D01*
X0237200Y0052200D01*
X0237200Y0017200D01*
X0227200Y0017200D02*
X0227200Y0057200D01*
X0217200Y0067200D01*
X0217200Y0078854D01*
X0222200Y0082200D02*
X0225645Y0085645D01*
X0237200Y0085645D01*
X0237200Y0078755D02*
X0237200Y0074700D01*
X0247200Y0074700D02*
X0247200Y0078755D01*
X0217200Y0085546D02*
X0217200Y0102200D01*
X0217200Y0112200D02*
X0217200Y0123854D01*
X0207200Y0123854D02*
X0207200Y0112200D01*
X0197200Y0112200D02*
X0197200Y0123854D01*
X0187200Y0123854D02*
X0187200Y0112200D01*
X0177200Y0112200D02*
X0177200Y0123854D01*
X0177200Y0130546D02*
X0177200Y0152200D01*
X0187200Y0162200D01*
X0187200Y0167200D01*
X0197200Y0167200D02*
X0197200Y0162200D01*
X0187200Y0152200D01*
X0187200Y0144200D01*
X0187200Y0130546D01*
X0152200Y0133700D02*
X0150354Y0135546D01*
X0147200Y0135546D01*
X0137200Y0135546D02*
X0137200Y0167200D01*
X0127200Y0167200D02*
X0127200Y0135546D01*
X0117200Y0135546D02*
X0117200Y0167200D01*
X0107200Y0167200D02*
X0107200Y0135546D01*
X0097200Y0135546D02*
X0097200Y0167200D01*
X0087200Y0167200D02*
X0087200Y0152200D01*
X0077200Y0152200D02*
X0077200Y0167200D01*
X0029700Y0142200D02*
X0029700Y0132200D01*
X0029700Y0142200D02*
X0027200Y0144700D01*
X0012200Y0144700D01*
X0009700Y0147200D01*
X0009700Y0164700D01*
X0012200Y0167200D01*
X0017200Y0167200D01*
X0077200Y0128854D02*
X0077200Y0112200D01*
X0087200Y0112200D02*
X0087200Y0128854D01*
X0097200Y0128854D02*
X0097200Y0112200D01*
X0107200Y0112200D02*
X0107200Y0128854D01*
X0117200Y0128854D02*
X0117200Y0112200D01*
X0127200Y0112200D02*
X0127200Y0128854D01*
X0137200Y0128854D02*
X0137200Y0112200D01*
X0147200Y0112200D02*
X0147200Y0128854D01*
X0177200Y0107200D02*
X0242200Y0107200D01*
X0247200Y0102200D01*
X0247200Y0112200D02*
X0247200Y0123854D01*
X0257200Y0123854D02*
X0257200Y0112200D01*
X0267200Y0112200D02*
X0267200Y0123854D01*
X0277200Y0123854D02*
X0277200Y0112200D01*
X0287200Y0112200D02*
X0287200Y0123854D01*
X0297200Y0123854D02*
X0297200Y0112200D01*
X0297200Y0130546D02*
X0297200Y0144700D01*
X0247200Y0152700D02*
X0247200Y0167200D01*
X0237200Y0167200D02*
X0237200Y0152700D01*
X0227200Y0152700D02*
X0227200Y0167200D01*
X0167200Y0167200D02*
X0167200Y0152200D01*
X0157200Y0152200D02*
X0157200Y0167200D01*
X0147200Y0167200D02*
X0147200Y0152200D01*
X0227200Y0123854D02*
X0227200Y0112200D01*
X0172200Y0082200D02*
X0168755Y0085645D01*
X0167200Y0085645D01*
X0166255Y0084700D01*
X0157200Y0084700D01*
X0154700Y0082200D01*
X0152200Y0082200D01*
X0147200Y0085546D02*
X0147200Y0102200D01*
X0137200Y0102200D02*
X0137200Y0085546D01*
X0132200Y0082200D02*
X0122200Y0082200D01*
X0117200Y0078854D02*
X0117200Y0072200D01*
X0137200Y0052200D01*
X0137200Y0017200D01*
X0132200Y0012200D02*
X0132200Y0047200D01*
X0107200Y0072200D01*
X0107200Y0078854D01*
X0107200Y0085546D02*
X0107200Y0102200D01*
X0097200Y0102200D02*
X0097200Y0085546D01*
X0097200Y0078854D02*
X0097200Y0072200D01*
X0127200Y0042200D01*
X0127200Y0017200D01*
X0117200Y0017200D02*
X0117200Y0042200D01*
X0087200Y0072200D01*
X0087200Y0078854D01*
X0087200Y0085546D02*
X0087200Y0102200D01*
X0068755Y0085645D02*
X0072200Y0082200D01*
X0077200Y0078755D02*
X0077200Y0074700D01*
X0067200Y0074700D02*
X0067200Y0078755D01*
X0062200Y0082200D02*
X0052200Y0092200D01*
X0052200Y0097200D01*
X0048600Y0100800D01*
X0045000Y0100800D01*
X0045000Y0083600D02*
X0050800Y0083600D01*
X0057200Y0077200D01*
X0057200Y0042200D01*
X0067200Y0032200D01*
X0112200Y0032200D01*
X0112200Y0037200D02*
X0072200Y0037200D01*
X0062200Y0047200D01*
X0062200Y0082200D01*
X0117200Y0085546D02*
X0117200Y0102200D01*
X0137200Y0078854D02*
X0137200Y0067200D01*
X0147200Y0057200D01*
X0147200Y0017200D01*
X0157200Y0017200D02*
X0157200Y0027200D01*
X0152200Y0032200D01*
X0152200Y0037200D02*
X0159700Y0037200D01*
X0167200Y0029700D01*
X0167200Y0017200D01*
X0137200Y0007200D02*
X0132200Y0012200D01*
X0137200Y0007200D02*
X0212200Y0007200D01*
X0217200Y0012200D01*
X0217200Y0017200D01*
X0177200Y0074700D02*
X0177200Y0078755D01*
X0167200Y0078755D02*
X0167200Y0074700D01*
X0107200Y0022200D02*
X0102200Y0027200D01*
X0062200Y0027200D01*
X0058600Y0030800D01*
X0045000Y0030800D01*
X0032200Y0032200D02*
X0017200Y0017200D01*
X0012200Y0007200D02*
X0044700Y0007200D01*
X0047200Y0009700D01*
X0047200Y0017200D01*
X0107200Y0017200D02*
X0107200Y0022200D01*
D20*
X0032200Y0032200D02*
X0032200Y0104700D01*
X0037200Y0109700D01*
X0054700Y0109700D01*
X0062200Y0102200D01*
X0067200Y0102200D01*
X0067200Y0085645D01*
X0077200Y0085645D02*
X0077200Y0102200D01*
X0167200Y0102200D02*
X0167200Y0085645D01*
X0177200Y0085645D02*
X0177200Y0102200D01*
X0237200Y0102200D02*
X0237200Y0085645D01*
X0247200Y0085645D02*
X0247200Y0102200D01*
D21*
X0237200Y0085645D02*
X0236255Y0084700D01*
X0222200Y0082200D02*
X0172200Y0082200D01*
X0152200Y0082200D02*
X0132200Y0082200D01*
X0122200Y0082200D02*
X0072200Y0082200D01*
X0068755Y0085645D02*
X0067200Y0085645D01*
X0177200Y0130546D02*
X0178854Y0130546D01*
X0182200Y0127200D01*
X0243854Y0127200D01*
X0247200Y0130546D01*
X0252200Y0128700D02*
X0252200Y0133200D01*
X0250200Y0135200D01*
X0249700Y0135200D01*
X0252200Y0128700D02*
X0253700Y0127200D01*
X0282200Y0127200D01*
X0285546Y0130546D01*
X0287200Y0130546D01*
M02*
