G75*
%MOIN*%
%OFA0B0*%
%FSLAX25Y25*%
%IPPOS*%
%LPD*%
%AMOC8*
5,1,8,0,0,1.08239X$1,22.5*
%
%ADD10C,0.06000*%
%ADD11C,0.06400*%
%ADD12OC8,0.06400*%
%ADD13R,0.05131X0.04737*%
%ADD14C,0.06800*%
%ADD15R,0.03950X0.03950*%
%ADD16R,0.05052X0.04934*%
D10*
X0017200Y0014600D02*
X0017200Y0019800D01*
X0027200Y0019800D02*
X0027200Y0014600D01*
X0037200Y0014600D02*
X0037200Y0019800D01*
X0047200Y0019800D02*
X0047200Y0014600D01*
X0057200Y0014600D02*
X0057200Y0019800D01*
X0067200Y0019800D02*
X0067200Y0014600D01*
X0077200Y0014600D02*
X0077200Y0019800D01*
X0087200Y0019800D02*
X0087200Y0014600D01*
X0097200Y0014600D02*
X0097200Y0019800D01*
X0107200Y0019800D02*
X0107200Y0014600D01*
X0117200Y0014600D02*
X0117200Y0019800D01*
X0127200Y0019800D02*
X0127200Y0014600D01*
X0137200Y0014600D02*
X0137200Y0019800D01*
X0147200Y0019800D02*
X0147200Y0014600D01*
X0157200Y0014600D02*
X0157200Y0019800D01*
X0167200Y0019800D02*
X0167200Y0014600D01*
X0177200Y0014600D02*
X0177200Y0019800D01*
X0187200Y0019800D02*
X0187200Y0014600D01*
X0197200Y0014600D02*
X0197200Y0019800D01*
X0207200Y0019800D02*
X0207200Y0014600D01*
X0217200Y0014600D02*
X0217200Y0019800D01*
X0227200Y0019800D02*
X0227200Y0014600D01*
X0237200Y0014600D02*
X0237200Y0019800D01*
X0247200Y0019800D02*
X0247200Y0014600D01*
X0257200Y0014600D02*
X0257200Y0019800D01*
X0267200Y0019800D02*
X0267200Y0014600D01*
X0277200Y0014600D02*
X0277200Y0019800D01*
X0287200Y0019800D02*
X0287200Y0014600D01*
X0297200Y0014600D02*
X0297200Y0019800D01*
X0307200Y0019800D02*
X0307200Y0014600D01*
X0317200Y0014600D02*
X0317200Y0019800D01*
X0327200Y0019800D02*
X0327200Y0014600D01*
X0337200Y0014600D02*
X0337200Y0019800D01*
X0337200Y0164600D02*
X0337200Y0169800D01*
X0327200Y0169800D02*
X0327200Y0164600D01*
X0317200Y0164600D02*
X0317200Y0169800D01*
X0307200Y0169800D02*
X0307200Y0164600D01*
X0297200Y0164600D02*
X0297200Y0169800D01*
X0287200Y0169800D02*
X0287200Y0164600D01*
X0277200Y0164600D02*
X0277200Y0169800D01*
X0267200Y0169800D02*
X0267200Y0164600D01*
X0257200Y0164600D02*
X0257200Y0169800D01*
X0247200Y0169800D02*
X0247200Y0164600D01*
X0237200Y0164600D02*
X0237200Y0169800D01*
X0227200Y0169800D02*
X0227200Y0164600D01*
X0217200Y0164600D02*
X0217200Y0169800D01*
X0207200Y0169800D02*
X0207200Y0164600D01*
X0197200Y0164600D02*
X0197200Y0169800D01*
X0187200Y0169800D02*
X0187200Y0164600D01*
X0177200Y0164600D02*
X0177200Y0169800D01*
X0167200Y0169800D02*
X0167200Y0164600D01*
X0157200Y0164600D02*
X0157200Y0169800D01*
X0147200Y0169800D02*
X0147200Y0164600D01*
X0137200Y0164600D02*
X0137200Y0169800D01*
X0127200Y0169800D02*
X0127200Y0164600D01*
X0117200Y0164600D02*
X0117200Y0169800D01*
X0107200Y0169800D02*
X0107200Y0164600D01*
X0097200Y0164600D02*
X0097200Y0169800D01*
X0087200Y0169800D02*
X0087200Y0164600D01*
X0077200Y0164600D02*
X0077200Y0169800D01*
X0067200Y0169800D02*
X0067200Y0164600D01*
X0057200Y0164600D02*
X0057200Y0169800D01*
X0047200Y0169800D02*
X0047200Y0164600D01*
X0037200Y0164600D02*
X0037200Y0169800D01*
X0027200Y0169800D02*
X0027200Y0164600D01*
X0017200Y0164600D02*
X0017200Y0169800D01*
D11*
X0067200Y0112200D03*
X0157200Y0112200D03*
X0247200Y0112200D03*
D12*
X0237200Y0112200D03*
X0227200Y0112200D03*
X0217200Y0112200D03*
X0207200Y0112200D03*
X0197200Y0112200D03*
X0187200Y0112200D03*
X0177200Y0112200D03*
X0167200Y0112200D03*
X0167200Y0102200D03*
X0157200Y0102200D03*
X0147200Y0102200D03*
X0137200Y0102200D03*
X0127200Y0102200D03*
X0117200Y0102200D03*
X0107200Y0102200D03*
X0097200Y0102200D03*
X0087200Y0102200D03*
X0077200Y0102200D03*
X0067200Y0102200D03*
X0077200Y0112200D03*
X0087200Y0112200D03*
X0097200Y0112200D03*
X0107200Y0112200D03*
X0117200Y0112200D03*
X0127200Y0112200D03*
X0137200Y0112200D03*
X0147200Y0112200D03*
X0177200Y0102200D03*
X0187200Y0102200D03*
X0197200Y0102200D03*
X0207200Y0102200D03*
X0217200Y0102200D03*
X0227200Y0102200D03*
X0237200Y0102200D03*
X0247200Y0102200D03*
X0257200Y0102200D03*
X0267200Y0102200D03*
X0277200Y0102200D03*
X0287200Y0102200D03*
X0297200Y0102200D03*
X0297200Y0112200D03*
X0287200Y0112200D03*
X0277200Y0112200D03*
X0267200Y0112200D03*
X0257200Y0112200D03*
D13*
X0257200Y0123854D03*
X0257200Y0130546D03*
X0247200Y0130546D03*
X0247200Y0123854D03*
X0227200Y0123854D03*
X0227200Y0130546D03*
X0217200Y0130546D03*
X0217200Y0123854D03*
X0207200Y0123854D03*
X0207200Y0130546D03*
X0197200Y0130546D03*
X0197200Y0123854D03*
X0187200Y0123854D03*
X0177200Y0123854D03*
X0177200Y0130546D03*
X0187200Y0130546D03*
X0147200Y0128854D03*
X0137200Y0128854D03*
X0127200Y0128854D03*
X0117200Y0128854D03*
X0107200Y0128854D03*
X0097200Y0128854D03*
X0087200Y0128854D03*
X0077200Y0128854D03*
X0077200Y0135546D03*
X0087200Y0135546D03*
X0097200Y0135546D03*
X0107200Y0135546D03*
X0117200Y0135546D03*
X0127200Y0135546D03*
X0137200Y0135546D03*
X0147200Y0135546D03*
X0147200Y0085546D03*
X0147200Y0078854D03*
X0137200Y0078854D03*
X0137200Y0085546D03*
X0117200Y0085546D03*
X0117200Y0078854D03*
X0107200Y0078854D03*
X0107200Y0085546D03*
X0097200Y0085546D03*
X0097200Y0078854D03*
X0087200Y0078854D03*
X0087200Y0085546D03*
X0187200Y0085546D03*
X0187200Y0078854D03*
X0197200Y0078854D03*
X0197200Y0085546D03*
X0207200Y0085546D03*
X0207200Y0078854D03*
X0217200Y0078854D03*
X0217200Y0085546D03*
X0257200Y0085546D03*
X0257200Y0078854D03*
X0267200Y0078854D03*
X0267200Y0085546D03*
X0277200Y0085546D03*
X0277200Y0078854D03*
X0287200Y0078854D03*
X0287200Y0085546D03*
X0312200Y0093854D03*
X0322200Y0093854D03*
X0322200Y0100546D03*
X0312200Y0100546D03*
X0332200Y0100546D03*
X0332200Y0093854D03*
X0342200Y0093854D03*
X0342200Y0100546D03*
X0297200Y0123854D03*
X0287200Y0123854D03*
X0287200Y0130546D03*
X0297200Y0130546D03*
X0277200Y0130546D03*
X0277200Y0123854D03*
X0267200Y0123854D03*
X0267200Y0130546D03*
D14*
X0247200Y0149700D02*
X0247200Y0155700D01*
X0237200Y0155700D02*
X0237200Y0149700D01*
X0227200Y0149700D02*
X0227200Y0155700D01*
X0167200Y0155200D02*
X0167200Y0149200D01*
X0157200Y0149200D02*
X0157200Y0155200D01*
X0147200Y0155200D02*
X0147200Y0149200D01*
X0087200Y0149200D02*
X0087200Y0155200D01*
X0077200Y0155200D02*
X0077200Y0149200D01*
X0067200Y0149200D02*
X0067200Y0155200D01*
X0048000Y0153600D02*
X0042000Y0153600D01*
X0022400Y0153600D02*
X0016400Y0153600D01*
X0016400Y0135800D02*
X0022400Y0135800D01*
X0042000Y0135800D02*
X0048000Y0135800D01*
X0048000Y0118600D02*
X0042000Y0118600D01*
X0022400Y0118600D02*
X0016400Y0118600D01*
X0016400Y0100800D02*
X0022400Y0100800D01*
X0042000Y0100800D02*
X0048000Y0100800D01*
X0048000Y0083600D02*
X0042000Y0083600D01*
X0022400Y0083600D02*
X0016400Y0083600D01*
X0016400Y0065800D02*
X0022400Y0065800D01*
X0042000Y0065800D02*
X0048000Y0065800D01*
X0048000Y0048600D02*
X0042000Y0048600D01*
X0022400Y0048600D02*
X0016400Y0048600D01*
X0016400Y0030800D02*
X0022400Y0030800D01*
X0042000Y0030800D02*
X0048000Y0030800D01*
X0277200Y0029200D02*
X0277200Y0035200D01*
X0287200Y0035200D02*
X0287200Y0029200D01*
X0297200Y0029200D02*
X0297200Y0035200D01*
X0307200Y0035200D02*
X0307200Y0029200D01*
X0317200Y0029200D02*
X0317200Y0035200D01*
D15*
X0312200Y0079247D03*
X0322200Y0079247D03*
X0322200Y0085153D03*
X0312200Y0085153D03*
X0332200Y0085153D03*
X0332200Y0079247D03*
X0342200Y0079247D03*
X0342200Y0085153D03*
D16*
X0247200Y0085645D03*
X0247200Y0078755D03*
X0237200Y0078755D03*
X0237200Y0085645D03*
X0177200Y0085645D03*
X0177200Y0078755D03*
X0167200Y0078755D03*
X0167200Y0085645D03*
X0077200Y0085645D03*
X0077200Y0078755D03*
X0067200Y0078755D03*
X0067200Y0085645D03*
M02*
