G75*
%MOIN*%
%OFA0B0*%
%FSLAX25Y25*%
%IPPOS*%
%LPD*%
%AMOC8*
5,1,8,0,0,1.08239X$1,22.5*
%
%ADD10C,0.00200*%
%ADD11C,0.00500*%
D10*
X0033950Y0031320D02*
X0034311Y0030959D01*
X0035032Y0030959D01*
X0035393Y0031320D01*
X0036125Y0031320D02*
X0036486Y0030959D01*
X0037208Y0030959D01*
X0037568Y0031320D01*
X0037568Y0031680D01*
X0037208Y0032041D01*
X0036847Y0032041D01*
X0037208Y0032041D02*
X0037568Y0032402D01*
X0037568Y0032762D01*
X0037208Y0033123D01*
X0036486Y0033123D01*
X0036125Y0032762D01*
X0035393Y0032762D02*
X0035032Y0033123D01*
X0034311Y0033123D01*
X0033950Y0032762D01*
X0033950Y0031320D01*
X0047450Y0044320D02*
X0047811Y0043959D01*
X0048532Y0043959D01*
X0048893Y0044320D01*
X0049625Y0043959D02*
X0051068Y0045402D01*
X0051068Y0045762D01*
X0050708Y0046123D01*
X0049986Y0046123D01*
X0049625Y0045762D01*
X0048893Y0045762D02*
X0048532Y0046123D01*
X0047811Y0046123D01*
X0047450Y0045762D01*
X0047450Y0044320D01*
X0049625Y0043959D02*
X0051068Y0043959D01*
X0051068Y0051459D02*
X0049625Y0051459D01*
X0050347Y0051459D02*
X0050347Y0053623D01*
X0049625Y0052902D01*
X0048893Y0053262D02*
X0048532Y0053623D01*
X0047811Y0053623D01*
X0047450Y0053262D01*
X0047450Y0051820D01*
X0047811Y0051459D01*
X0048532Y0051459D01*
X0048893Y0051820D01*
X0035718Y0062703D02*
X0034275Y0061261D01*
X0034275Y0060900D01*
X0033543Y0060900D02*
X0032821Y0061621D01*
X0033182Y0061621D02*
X0032100Y0061621D01*
X0032100Y0060900D02*
X0032100Y0063064D01*
X0033182Y0063064D01*
X0033543Y0062703D01*
X0033543Y0061982D01*
X0033182Y0061621D01*
X0034275Y0063064D02*
X0035718Y0063064D01*
X0035718Y0062703D01*
X0062236Y0062900D02*
X0062236Y0063982D01*
X0062597Y0064343D01*
X0063318Y0064343D01*
X0063679Y0063982D01*
X0063679Y0062900D01*
X0064400Y0062900D02*
X0062236Y0062900D01*
X0063679Y0063621D02*
X0064400Y0064343D01*
X0064400Y0065075D02*
X0064400Y0066518D01*
X0064400Y0065796D02*
X0062236Y0065796D01*
X0062957Y0065075D01*
X0066236Y0065436D02*
X0066597Y0065075D01*
X0066236Y0065436D02*
X0066236Y0066157D01*
X0066597Y0066518D01*
X0066957Y0066518D01*
X0068400Y0065075D01*
X0068400Y0066518D01*
X0068400Y0064343D02*
X0067679Y0063621D01*
X0067679Y0063982D02*
X0067679Y0062900D01*
X0068400Y0062900D02*
X0066236Y0062900D01*
X0066236Y0063982D01*
X0066597Y0064343D01*
X0067318Y0064343D01*
X0067679Y0063982D01*
X0065039Y0038018D02*
X0064318Y0038018D01*
X0063957Y0037657D01*
X0063957Y0037296D01*
X0064318Y0036575D01*
X0063236Y0036575D01*
X0063236Y0038018D01*
X0065039Y0038018D02*
X0065400Y0037657D01*
X0065400Y0036936D01*
X0065039Y0036575D01*
X0065400Y0035843D02*
X0064679Y0035121D01*
X0064679Y0035482D02*
X0064318Y0035843D01*
X0063597Y0035843D01*
X0063236Y0035482D01*
X0063236Y0034400D01*
X0065400Y0034400D01*
X0064679Y0034400D02*
X0064679Y0035482D01*
X0067600Y0029564D02*
X0068682Y0029564D01*
X0069043Y0029203D01*
X0069043Y0028482D01*
X0068682Y0028121D01*
X0067600Y0028121D01*
X0067600Y0027400D02*
X0067600Y0029564D01*
X0068321Y0028121D02*
X0069043Y0027400D01*
X0069775Y0027761D02*
X0070136Y0027400D01*
X0070857Y0027400D01*
X0071218Y0027761D01*
X0071218Y0028121D01*
X0070857Y0028482D01*
X0070496Y0028482D01*
X0070857Y0028482D02*
X0071218Y0028843D01*
X0071218Y0029203D01*
X0070857Y0029564D01*
X0070136Y0029564D01*
X0069775Y0029203D01*
X0073236Y0034400D02*
X0073236Y0035482D01*
X0073597Y0035843D01*
X0074318Y0035843D01*
X0074679Y0035482D01*
X0074679Y0034400D01*
X0075400Y0034400D02*
X0073236Y0034400D01*
X0074679Y0035121D02*
X0075400Y0035843D01*
X0075039Y0036575D02*
X0074318Y0036575D01*
X0074318Y0037657D01*
X0074679Y0038018D01*
X0075039Y0038018D01*
X0075400Y0037657D01*
X0075400Y0036936D01*
X0075039Y0036575D01*
X0074318Y0036575D02*
X0073597Y0037296D01*
X0073236Y0038018D01*
X0070857Y0019564D02*
X0069775Y0018482D01*
X0071218Y0018482D01*
X0070857Y0017400D02*
X0070857Y0019564D01*
X0069043Y0019203D02*
X0069043Y0018482D01*
X0068682Y0018121D01*
X0067600Y0018121D01*
X0067600Y0017400D02*
X0067600Y0019564D01*
X0068682Y0019564D01*
X0069043Y0019203D01*
X0068321Y0018121D02*
X0069043Y0017400D01*
X0051068Y0008041D02*
X0049625Y0008041D01*
X0050708Y0009123D01*
X0050708Y0006959D01*
X0048893Y0007320D02*
X0048532Y0006959D01*
X0047811Y0006959D01*
X0047450Y0007320D01*
X0047450Y0008762D01*
X0047811Y0009123D01*
X0048532Y0009123D01*
X0048893Y0008762D01*
D11*
X0031751Y0014550D02*
X0030250Y0014550D01*
X0031001Y0014550D02*
X0031001Y0019054D01*
X0031751Y0019054D02*
X0030250Y0019054D01*
X0033319Y0018303D02*
X0033319Y0015301D01*
X0034070Y0014550D01*
X0035571Y0014550D01*
X0036322Y0015301D01*
X0036322Y0018303D01*
X0035571Y0019054D01*
X0034070Y0019054D01*
X0033319Y0018303D01*
X0037923Y0018303D02*
X0038674Y0019054D01*
X0040175Y0019054D01*
X0040926Y0018303D01*
X0040926Y0017553D01*
X0040175Y0016802D01*
X0040926Y0016051D01*
X0040926Y0015301D01*
X0040175Y0014550D01*
X0038674Y0014550D01*
X0037923Y0015301D01*
X0039424Y0016802D02*
X0040175Y0016802D01*
X0046000Y0015800D02*
X0046000Y0036800D01*
X0052000Y0036800D01*
X0054000Y0036800D01*
X0060000Y0036800D01*
X0060000Y0015800D01*
X0046000Y0015800D01*
X0037106Y0024550D02*
X0035605Y0024550D01*
X0034854Y0025301D01*
X0033253Y0025301D02*
X0033253Y0026051D01*
X0032502Y0026802D01*
X0031001Y0026802D01*
X0030250Y0027553D01*
X0030250Y0028303D01*
X0031001Y0029054D01*
X0032502Y0029054D01*
X0033253Y0028303D01*
X0034854Y0028303D02*
X0034854Y0027553D01*
X0035605Y0026802D01*
X0037106Y0026802D01*
X0037856Y0026051D01*
X0037856Y0025301D01*
X0037106Y0024550D01*
X0033253Y0025301D02*
X0032502Y0024550D01*
X0031001Y0024550D01*
X0030250Y0025301D01*
X0034854Y0028303D02*
X0035605Y0029054D01*
X0037106Y0029054D01*
X0037856Y0028303D01*
X0037923Y0034550D02*
X0040926Y0037553D01*
X0040926Y0038303D01*
X0040175Y0039054D01*
X0038674Y0039054D01*
X0037923Y0038303D01*
X0036322Y0038303D02*
X0035571Y0039054D01*
X0034070Y0039054D01*
X0033319Y0038303D01*
X0033319Y0035301D01*
X0034070Y0034550D01*
X0035571Y0034550D01*
X0036322Y0035301D01*
X0036322Y0038303D01*
X0031751Y0039054D02*
X0030250Y0039054D01*
X0031001Y0039054D02*
X0031001Y0034550D01*
X0031751Y0034550D02*
X0030250Y0034550D01*
X0037923Y0034550D02*
X0040926Y0034550D01*
X0052000Y0036800D02*
X0052002Y0036738D01*
X0052008Y0036677D01*
X0052017Y0036616D01*
X0052030Y0036556D01*
X0052047Y0036497D01*
X0052068Y0036439D01*
X0052092Y0036382D01*
X0052119Y0036327D01*
X0052150Y0036274D01*
X0052184Y0036222D01*
X0052221Y0036173D01*
X0052261Y0036126D01*
X0052304Y0036082D01*
X0052349Y0036041D01*
X0052397Y0036002D01*
X0052448Y0035966D01*
X0052500Y0035934D01*
X0052554Y0035905D01*
X0052610Y0035879D01*
X0052668Y0035857D01*
X0052726Y0035838D01*
X0052786Y0035823D01*
X0052847Y0035812D01*
X0052908Y0035804D01*
X0052969Y0035800D01*
X0053031Y0035800D01*
X0053092Y0035804D01*
X0053153Y0035812D01*
X0053214Y0035823D01*
X0053274Y0035838D01*
X0053332Y0035857D01*
X0053390Y0035879D01*
X0053446Y0035905D01*
X0053500Y0035934D01*
X0053552Y0035966D01*
X0053603Y0036002D01*
X0053651Y0036041D01*
X0053696Y0036082D01*
X0053739Y0036126D01*
X0053779Y0036173D01*
X0053816Y0036222D01*
X0053850Y0036274D01*
X0053881Y0036327D01*
X0053908Y0036382D01*
X0053932Y0036439D01*
X0053953Y0036497D01*
X0053970Y0036556D01*
X0053983Y0036616D01*
X0053992Y0036677D01*
X0053998Y0036738D01*
X0054000Y0036800D01*
X0040926Y0044550D02*
X0037923Y0044550D01*
X0039424Y0044550D02*
X0039424Y0049054D01*
X0037923Y0047553D01*
X0036322Y0048303D02*
X0035571Y0049054D01*
X0034070Y0049054D01*
X0033319Y0048303D01*
X0033319Y0045301D01*
X0034070Y0044550D01*
X0035571Y0044550D01*
X0036322Y0045301D01*
X0036322Y0048303D01*
X0031751Y0049054D02*
X0030250Y0049054D01*
X0031001Y0049054D02*
X0031001Y0044550D01*
X0031751Y0044550D02*
X0030250Y0044550D01*
X0031001Y0054550D02*
X0030250Y0055301D01*
X0031001Y0054550D02*
X0032502Y0054550D01*
X0033253Y0055301D01*
X0033253Y0056802D01*
X0032502Y0057553D01*
X0031751Y0057553D01*
X0030250Y0056802D01*
X0030250Y0059054D01*
X0033253Y0059054D01*
X0034854Y0059054D02*
X0034854Y0056051D01*
X0036355Y0054550D01*
X0037856Y0056051D01*
X0037856Y0059054D01*
X0037907Y0064550D02*
X0037156Y0065301D01*
X0037907Y0064550D02*
X0039408Y0064550D01*
X0040158Y0065301D01*
X0040158Y0066051D01*
X0039408Y0066802D01*
X0038657Y0066802D01*
X0039408Y0066802D02*
X0040158Y0067553D01*
X0040158Y0068303D01*
X0039408Y0069054D01*
X0037907Y0069054D01*
X0037156Y0068303D01*
X0035605Y0065301D02*
X0034854Y0065301D01*
X0034854Y0064550D01*
X0035605Y0064550D01*
X0035605Y0065301D01*
X0033253Y0065301D02*
X0032502Y0064550D01*
X0031001Y0064550D01*
X0030250Y0065301D01*
X0031751Y0066802D02*
X0032502Y0066802D01*
X0033253Y0066051D01*
X0033253Y0065301D01*
X0032502Y0066802D02*
X0033253Y0067553D01*
X0033253Y0068303D01*
X0032502Y0069054D01*
X0031001Y0069054D01*
X0030250Y0068303D01*
X0041760Y0069054D02*
X0041760Y0066051D01*
X0043261Y0064550D01*
X0044762Y0066051D01*
X0044762Y0069054D01*
M02*
