G75*
%MOIN*%
%OFA0B0*%
%FSLAX25Y25*%
%IPPOS*%
%LPD*%
%AMOC8*
5,1,8,0,0,1.08239X$1,22.5*
%
%ADD10C,0.00500*%
D10*
X0031351Y0006802D02*
X0034354Y0006802D01*
X0032102Y0009054D01*
X0032102Y0004550D01*
X0035955Y0005301D02*
X0035955Y0008303D01*
X0036706Y0009054D01*
X0038207Y0009054D01*
X0038958Y0008303D01*
X0038958Y0005301D01*
X0038207Y0004550D01*
X0036706Y0004550D01*
X0035955Y0005301D01*
X0040526Y0004550D02*
X0042027Y0004550D01*
X0041277Y0004550D02*
X0041277Y0009054D01*
X0042027Y0009054D02*
X0040526Y0009054D01*
X0041310Y0014550D02*
X0042811Y0014550D01*
X0043562Y0015301D01*
X0042811Y0016802D02*
X0041310Y0016802D01*
X0040559Y0016051D01*
X0040559Y0015301D01*
X0041310Y0014550D01*
X0038958Y0015301D02*
X0038207Y0014550D01*
X0036706Y0014550D01*
X0035955Y0015301D01*
X0034354Y0016051D02*
X0031351Y0019054D01*
X0033603Y0016802D02*
X0031351Y0014550D01*
X0034354Y0014550D02*
X0034354Y0019054D01*
X0035955Y0018303D02*
X0036706Y0019054D01*
X0038207Y0019054D01*
X0038958Y0018303D01*
X0038958Y0015301D01*
X0040559Y0018303D02*
X0041310Y0019054D01*
X0042811Y0019054D01*
X0043562Y0018303D01*
X0043562Y0017553D01*
X0042811Y0016802D01*
X0043629Y0024550D02*
X0043629Y0029054D01*
X0045130Y0027553D01*
X0046631Y0029054D01*
X0046631Y0024550D01*
X0042027Y0025301D02*
X0042027Y0028303D01*
X0041277Y0029054D01*
X0039775Y0029054D01*
X0039025Y0028303D01*
X0039025Y0025301D01*
X0039775Y0024550D01*
X0041277Y0024550D01*
X0042027Y0025301D01*
X0037423Y0025301D02*
X0036673Y0024550D01*
X0035171Y0024550D01*
X0034421Y0025301D01*
X0034421Y0026051D01*
X0035171Y0026802D01*
X0036673Y0026802D01*
X0037423Y0027553D01*
X0037423Y0028303D01*
X0036673Y0029054D01*
X0035171Y0029054D01*
X0034421Y0028303D01*
X0032819Y0029054D02*
X0031318Y0029054D01*
X0032069Y0029054D02*
X0032069Y0024550D01*
X0032819Y0024550D02*
X0031318Y0024550D01*
X0032102Y0034550D02*
X0031351Y0035301D01*
X0031351Y0038303D01*
X0032102Y0039054D01*
X0033603Y0039054D01*
X0034354Y0038303D01*
X0034354Y0035301D01*
X0033603Y0034550D01*
X0032102Y0034550D01*
X0035955Y0035301D02*
X0036706Y0034550D01*
X0038207Y0034550D01*
X0038958Y0035301D01*
X0040526Y0034550D02*
X0042027Y0034550D01*
X0041277Y0034550D02*
X0041277Y0039054D01*
X0042027Y0039054D02*
X0040526Y0039054D01*
X0038958Y0038303D02*
X0038958Y0037553D01*
X0038207Y0036802D01*
X0036706Y0036802D01*
X0035955Y0036051D01*
X0035955Y0035301D01*
X0035955Y0038303D02*
X0036706Y0039054D01*
X0038207Y0039054D01*
X0038958Y0038303D01*
X0043629Y0039054D02*
X0043629Y0034550D01*
X0046631Y0034550D02*
X0046631Y0039054D01*
X0045130Y0037553D01*
X0043629Y0039054D01*
X0042811Y0044550D02*
X0041310Y0044550D01*
X0040559Y0045301D01*
X0040559Y0046051D01*
X0041310Y0046802D01*
X0042811Y0046802D01*
X0043562Y0047553D01*
X0043562Y0048303D01*
X0042811Y0049054D01*
X0041310Y0049054D01*
X0040559Y0048303D01*
X0038958Y0048303D02*
X0038958Y0045301D01*
X0038207Y0044550D01*
X0036706Y0044550D01*
X0035955Y0045301D01*
X0034354Y0044550D02*
X0031351Y0044550D01*
X0034354Y0044550D02*
X0034354Y0049054D01*
X0035955Y0048303D02*
X0036706Y0049054D01*
X0038207Y0049054D01*
X0038958Y0048303D01*
X0042811Y0044550D02*
X0043562Y0045301D01*
X0042811Y0054550D02*
X0041310Y0054550D01*
X0040559Y0055301D01*
X0040559Y0056051D01*
X0041310Y0056802D01*
X0042811Y0056802D01*
X0043562Y0057553D01*
X0043562Y0058303D01*
X0042811Y0059054D01*
X0041310Y0059054D01*
X0040559Y0058303D01*
X0038958Y0059054D02*
X0036706Y0059054D01*
X0035955Y0058303D01*
X0035955Y0055301D01*
X0036706Y0054550D01*
X0038958Y0054550D01*
X0038958Y0059054D01*
X0034354Y0057553D02*
X0032853Y0059054D01*
X0031351Y0057553D01*
X0031351Y0054550D01*
X0031351Y0056802D02*
X0034354Y0056802D01*
X0034354Y0057553D02*
X0034354Y0054550D01*
X0042811Y0054550D02*
X0043562Y0055301D01*
X0042811Y0064550D02*
X0041310Y0064550D01*
X0040559Y0065301D01*
X0040559Y0066802D01*
X0042061Y0066802D01*
X0043562Y0068303D02*
X0043562Y0065301D01*
X0042811Y0064550D01*
X0038958Y0064550D02*
X0038958Y0069054D01*
X0035955Y0064550D01*
X0035955Y0069054D01*
X0034354Y0069054D02*
X0032102Y0069054D01*
X0031351Y0068303D01*
X0031351Y0065301D01*
X0032102Y0064550D01*
X0034354Y0064550D01*
X0034354Y0069054D01*
X0040559Y0068303D02*
X0041310Y0069054D01*
X0042811Y0069054D01*
X0043562Y0068303D01*
M02*
