G75*
%MOIN*%
%OFA0B0*%
%FSLAX25Y25*%
%IPPOS*%
%LPD*%
%AMOC8*
5,1,8,0,0,1.08239X$1,22.5*
%
%ADD10C,0.00700*%
%ADD11C,0.00400*%
%ADD12R,0.04134X0.04252*%
%ADD13R,0.04252X0.04134*%
%ADD14R,0.15000X0.07600*%
%ADD15R,0.04331X0.03937*%
%ADD16R,0.03937X0.04331*%
%ADD17R,0.04000X0.02500*%
%ADD18C,0.03600*%
%ADD19C,0.02400*%
%ADD20C,0.01600*%
%ADD21C,0.03200*%
D10*
X0080297Y0030275D02*
X0080847Y0030275D01*
X0081948Y0030275D02*
X0081948Y0029724D01*
X0081948Y0030275D02*
X0084150Y0030275D01*
X0084150Y0030825D02*
X0084150Y0029724D01*
X0084150Y0028243D02*
X0082499Y0028243D01*
X0081948Y0027692D01*
X0082499Y0027142D01*
X0084150Y0027142D01*
X0084150Y0026041D02*
X0081948Y0026041D01*
X0081948Y0026591D01*
X0082499Y0027142D01*
X0083600Y0024750D02*
X0084150Y0024750D01*
X0084150Y0024199D01*
X0083600Y0024199D01*
X0083600Y0024750D01*
X0083600Y0022718D02*
X0081948Y0022718D01*
X0083600Y0022718D02*
X0084150Y0022168D01*
X0083600Y0021617D01*
X0084150Y0021067D01*
X0083600Y0020516D01*
X0081948Y0020516D01*
X0081948Y0019035D02*
X0083600Y0019035D01*
X0084150Y0018485D01*
X0083600Y0017934D01*
X0084150Y0017384D01*
X0083600Y0016833D01*
X0081948Y0016833D01*
X0081948Y0015352D02*
X0083600Y0015352D01*
X0084150Y0014801D01*
X0083600Y0014251D01*
X0084150Y0013700D01*
X0083600Y0013150D01*
X0081948Y0013150D01*
X0082499Y0032180D02*
X0083600Y0032180D01*
X0084150Y0032730D01*
X0084150Y0034381D01*
X0084150Y0035863D02*
X0081948Y0035863D01*
X0083049Y0035863D02*
X0081948Y0036964D01*
X0081948Y0037514D01*
X0082499Y0038932D02*
X0083600Y0038932D01*
X0084150Y0039482D01*
X0084150Y0040583D01*
X0083600Y0041134D01*
X0082499Y0041134D01*
X0081948Y0040583D01*
X0081948Y0039482D01*
X0082499Y0038932D01*
X0082499Y0042615D02*
X0081948Y0043166D01*
X0081948Y0044267D01*
X0082499Y0044817D01*
X0084150Y0044817D01*
X0083600Y0046298D02*
X0083049Y0046849D01*
X0083049Y0048500D01*
X0082499Y0048500D02*
X0084150Y0048500D01*
X0084150Y0046849D01*
X0083600Y0046298D01*
X0081948Y0046849D02*
X0081948Y0047950D01*
X0082499Y0048500D01*
X0084150Y0049981D02*
X0084150Y0051082D01*
X0084150Y0050532D02*
X0080847Y0050532D01*
X0080847Y0049981D01*
X0083600Y0052437D02*
X0083600Y0052987D01*
X0084150Y0052987D01*
X0084150Y0052437D01*
X0083600Y0052437D01*
X0083600Y0054278D02*
X0082499Y0054278D01*
X0081948Y0054829D01*
X0081948Y0055930D01*
X0082499Y0056480D01*
X0083600Y0056480D01*
X0084150Y0055930D01*
X0084150Y0054829D01*
X0083600Y0054278D01*
X0084150Y0057962D02*
X0081948Y0057962D01*
X0083049Y0057962D02*
X0081948Y0059063D01*
X0081948Y0059613D01*
X0082499Y0061031D02*
X0083600Y0061031D01*
X0084150Y0061581D01*
X0084150Y0063233D01*
X0084700Y0063233D02*
X0081948Y0063233D01*
X0081948Y0061581D01*
X0082499Y0061031D01*
X0085251Y0062132D02*
X0085251Y0062682D01*
X0084700Y0063233D01*
X0084150Y0042615D02*
X0080847Y0042615D01*
X0081948Y0034381D02*
X0081948Y0032730D01*
X0082499Y0032180D01*
D11*
X0075933Y0058332D02*
X0074198Y0058332D01*
X0074198Y0060067D02*
X0075933Y0060067D01*
X0076800Y0059199D01*
X0075933Y0058332D01*
X0076800Y0061094D02*
X0076800Y0062829D01*
X0076800Y0061961D02*
X0074198Y0061961D01*
X0075065Y0061094D01*
X0076366Y0063856D02*
X0076366Y0064290D01*
X0076800Y0064290D01*
X0076800Y0063856D01*
X0076366Y0063856D01*
X0076366Y0065238D02*
X0074631Y0065238D01*
X0074198Y0065671D01*
X0074198Y0066539D01*
X0074631Y0066972D01*
X0076366Y0065238D01*
X0076800Y0065671D01*
X0076800Y0066539D01*
X0076366Y0066972D01*
X0074631Y0066972D01*
D12*
X0052945Y0048800D03*
X0046055Y0048800D03*
X0046055Y0040800D03*
X0052945Y0040800D03*
X0052945Y0012800D03*
X0046055Y0012800D03*
D13*
X0041500Y0025355D03*
X0041500Y0032245D03*
D14*
X0020500Y0016800D03*
X0020500Y0026800D03*
X0020500Y0036800D03*
X0020500Y0046800D03*
X0020500Y0056800D03*
X0020500Y0066800D03*
D15*
X0040500Y0061646D03*
X0040500Y0054954D03*
X0048500Y0060454D03*
X0048500Y0067146D03*
X0057500Y0067146D03*
X0057500Y0060454D03*
X0064500Y0048146D03*
X0064500Y0041454D03*
X0074500Y0041454D03*
X0074500Y0048146D03*
D16*
X0072846Y0023800D03*
X0066154Y0023800D03*
X0066154Y0013800D03*
X0072846Y0013800D03*
D17*
X0057000Y0018800D03*
X0057000Y0023800D03*
X0057000Y0028800D03*
X0057000Y0033800D03*
X0049000Y0033800D03*
X0049000Y0028800D03*
X0049000Y0023800D03*
X0049000Y0018800D03*
D18*
X0042000Y0020300D03*
X0032500Y0010800D03*
X0058500Y0012800D03*
X0058500Y0040800D03*
X0058500Y0048800D03*
X0049500Y0053800D03*
X0063500Y0057800D03*
X0032500Y0041800D03*
D19*
X0032500Y0043800D01*
X0029500Y0046800D01*
X0020500Y0046800D01*
X0037000Y0037800D02*
X0040000Y0040800D01*
X0046055Y0040800D01*
X0046055Y0048800D01*
X0042000Y0048800D01*
X0040500Y0050300D01*
X0040500Y0054954D01*
X0040500Y0061646D02*
X0040500Y0067146D01*
X0048500Y0060454D02*
X0048560Y0060452D01*
X0048621Y0060447D01*
X0048680Y0060438D01*
X0048739Y0060425D01*
X0048798Y0060409D01*
X0048855Y0060389D01*
X0048910Y0060366D01*
X0048965Y0060339D01*
X0049017Y0060310D01*
X0049068Y0060277D01*
X0049117Y0060241D01*
X0049163Y0060203D01*
X0049207Y0060161D01*
X0049249Y0060117D01*
X0049287Y0060071D01*
X0049323Y0060022D01*
X0049356Y0059971D01*
X0049385Y0059919D01*
X0049412Y0059864D01*
X0049435Y0059809D01*
X0049455Y0059752D01*
X0049471Y0059693D01*
X0049484Y0059634D01*
X0049493Y0059575D01*
X0049498Y0059514D01*
X0049500Y0059454D01*
X0049500Y0053800D01*
X0060500Y0053800D01*
X0064500Y0049800D01*
X0064500Y0048146D01*
X0058500Y0048800D02*
X0052945Y0048800D01*
X0052945Y0040800D01*
X0058500Y0040800D01*
X0064500Y0041454D02*
X0064500Y0037800D01*
X0060500Y0033800D01*
X0057000Y0033800D01*
X0057000Y0028800D02*
X0061500Y0028800D01*
X0065500Y0032800D01*
X0070500Y0032800D01*
X0074500Y0036800D01*
X0074500Y0041454D01*
X0074500Y0048146D02*
X0074500Y0051800D01*
X0068500Y0057800D01*
X0063500Y0057800D01*
X0063500Y0059454D01*
X0062500Y0060454D01*
X0057500Y0060454D01*
X0046055Y0040800D02*
X0046055Y0033800D01*
X0049000Y0033800D01*
X0049000Y0028800D02*
X0046500Y0028800D01*
X0043055Y0032245D01*
X0041500Y0032245D01*
X0037000Y0037800D02*
X0037000Y0019300D01*
X0043500Y0012800D01*
X0046055Y0012800D01*
X0046055Y0018355D01*
X0049000Y0018800D01*
X0049000Y0023800D02*
X0042000Y0023800D01*
X0042000Y0020300D01*
X0042000Y0023800D02*
X0042000Y0025355D01*
X0041500Y0025355D01*
X0057000Y0023800D02*
X0066154Y0023800D01*
X0059500Y0018800D02*
X0064500Y0013800D01*
X0066154Y0013800D01*
X0059500Y0018800D02*
X0057000Y0018800D01*
X0058500Y0012800D02*
X0052945Y0012800D01*
D20*
X0041500Y0008800D02*
X0032500Y0017800D01*
X0032500Y0033800D01*
X0029500Y0036800D01*
X0020500Y0036800D01*
X0041055Y0033245D02*
X0041500Y0032245D01*
X0032500Y0010800D02*
X0038000Y0006300D01*
X0073000Y0006300D01*
X0077000Y0010300D01*
X0077000Y0021800D01*
X0075000Y0023800D01*
X0072846Y0023800D01*
X0072846Y0013800D02*
X0072846Y0011146D01*
X0070500Y0008800D01*
X0041500Y0008800D01*
D21*
X0035500Y0066800D02*
X0035502Y0066836D01*
X0035508Y0066872D01*
X0035517Y0066907D01*
X0035530Y0066941D01*
X0035546Y0066973D01*
X0035566Y0067003D01*
X0035589Y0067032D01*
X0035614Y0067057D01*
X0035643Y0067080D01*
X0035673Y0067100D01*
X0035705Y0067116D01*
X0035739Y0067129D01*
X0035774Y0067138D01*
X0035810Y0067144D01*
X0035846Y0067146D01*
X0040500Y0067146D01*
X0048500Y0067146D01*
X0057500Y0067146D01*
X0035500Y0066800D02*
X0020500Y0066800D01*
M02*
