G75*
%MOIN*%
%OFA0B0*%
%FSLAX25Y25*%
%IPPOS*%
%LPD*%
%AMOC8*
5,1,8,0,0,1.08239X$1,22.5*
%
%ADD10C,0.00700*%
%ADD11R,0.04934X0.05052*%
%ADD12R,0.05052X0.04934*%
%ADD13R,0.15800X0.08400*%
%ADD14R,0.05131X0.04737*%
%ADD15R,0.04737X0.05131*%
%ADD16R,0.04800X0.03300*%
D10*
X0080297Y0030275D02*
X0080847Y0030275D01*
X0081948Y0030275D02*
X0081948Y0029724D01*
X0081948Y0030275D02*
X0084150Y0030275D01*
X0084150Y0030825D02*
X0084150Y0029724D01*
X0084150Y0028243D02*
X0082499Y0028243D01*
X0081948Y0027692D01*
X0082499Y0027142D01*
X0084150Y0027142D01*
X0084150Y0026041D02*
X0081948Y0026041D01*
X0081948Y0026591D01*
X0082499Y0027142D01*
X0083600Y0024750D02*
X0084150Y0024750D01*
X0084150Y0024199D01*
X0083600Y0024199D01*
X0083600Y0024750D01*
X0083600Y0022718D02*
X0081948Y0022718D01*
X0083600Y0022718D02*
X0084150Y0022168D01*
X0083600Y0021617D01*
X0084150Y0021067D01*
X0083600Y0020516D01*
X0081948Y0020516D01*
X0081948Y0019035D02*
X0083600Y0019035D01*
X0084150Y0018485D01*
X0083600Y0017934D01*
X0084150Y0017384D01*
X0083600Y0016833D01*
X0081948Y0016833D01*
X0081948Y0015352D02*
X0083600Y0015352D01*
X0084150Y0014801D01*
X0083600Y0014251D01*
X0084150Y0013700D01*
X0083600Y0013150D01*
X0081948Y0013150D01*
X0082499Y0032180D02*
X0083600Y0032180D01*
X0084150Y0032730D01*
X0084150Y0034381D01*
X0084150Y0035863D02*
X0081948Y0035863D01*
X0083049Y0035863D02*
X0081948Y0036964D01*
X0081948Y0037514D01*
X0082499Y0038932D02*
X0083600Y0038932D01*
X0084150Y0039482D01*
X0084150Y0040583D01*
X0083600Y0041134D01*
X0082499Y0041134D01*
X0081948Y0040583D01*
X0081948Y0039482D01*
X0082499Y0038932D01*
X0082499Y0042615D02*
X0081948Y0043166D01*
X0081948Y0044267D01*
X0082499Y0044817D01*
X0084150Y0044817D01*
X0083600Y0046298D02*
X0083049Y0046849D01*
X0083049Y0048500D01*
X0082499Y0048500D02*
X0084150Y0048500D01*
X0084150Y0046849D01*
X0083600Y0046298D01*
X0081948Y0046849D02*
X0081948Y0047950D01*
X0082499Y0048500D01*
X0084150Y0049981D02*
X0084150Y0051082D01*
X0084150Y0050532D02*
X0080847Y0050532D01*
X0080847Y0049981D01*
X0083600Y0052437D02*
X0083600Y0052987D01*
X0084150Y0052987D01*
X0084150Y0052437D01*
X0083600Y0052437D01*
X0083600Y0054278D02*
X0082499Y0054278D01*
X0081948Y0054829D01*
X0081948Y0055930D01*
X0082499Y0056480D01*
X0083600Y0056480D01*
X0084150Y0055930D01*
X0084150Y0054829D01*
X0083600Y0054278D01*
X0084150Y0057962D02*
X0081948Y0057962D01*
X0083049Y0057962D02*
X0081948Y0059063D01*
X0081948Y0059613D01*
X0082499Y0061031D02*
X0083600Y0061031D01*
X0084150Y0061581D01*
X0084150Y0063233D01*
X0084700Y0063233D02*
X0081948Y0063233D01*
X0081948Y0061581D01*
X0082499Y0061031D01*
X0085251Y0062132D02*
X0085251Y0062682D01*
X0084700Y0063233D01*
X0084150Y0042615D02*
X0080847Y0042615D01*
X0081948Y0034381D02*
X0081948Y0032730D01*
X0082499Y0032180D01*
D11*
X0052945Y0040800D03*
X0046055Y0040800D03*
X0046055Y0048800D03*
X0052945Y0048800D03*
X0052945Y0012800D03*
X0046055Y0012800D03*
D12*
X0041500Y0025355D03*
X0041500Y0032245D03*
D13*
X0020500Y0016800D03*
X0020500Y0026800D03*
X0020500Y0036800D03*
X0020500Y0046800D03*
X0020500Y0056800D03*
X0020500Y0066800D03*
D14*
X0040500Y0061646D03*
X0040500Y0054954D03*
X0048500Y0060454D03*
X0048500Y0067146D03*
X0057500Y0067146D03*
X0057500Y0060454D03*
X0064500Y0048146D03*
X0064500Y0041454D03*
X0074500Y0041454D03*
X0074500Y0048146D03*
D15*
X0072846Y0023800D03*
X0066154Y0023800D03*
X0066154Y0013800D03*
X0072846Y0013800D03*
D16*
X0057000Y0018800D03*
X0057000Y0023800D03*
X0057000Y0028800D03*
X0057000Y0033800D03*
X0049000Y0033800D03*
X0049000Y0028800D03*
X0049000Y0023800D03*
X0049000Y0018800D03*
M02*
