G75*
%MOIN*%
%OFA0B0*%
%FSLAX25Y25*%
%IPPOS*%
%LPD*%
%AMOC8*
5,1,8,0,0,1.08239X$1,22.5*
%
%ADD10C,0.00600*%
%ADD11R,0.15000X0.07600*%
%ADD12C,0.01600*%
%ADD13C,0.06600*%
%ADD14C,0.03175*%
%ADD15C,0.02400*%
D10*
X0035551Y0023335D02*
X0035551Y0026171D01*
X0037252Y0026171D01*
X0037819Y0025603D01*
X0037819Y0024469D01*
X0037252Y0023902D01*
X0035551Y0023902D01*
X0035551Y0023335D02*
X0036118Y0022768D01*
X0036685Y0022768D01*
X0039187Y0026171D02*
X0039754Y0026171D01*
X0040888Y0025036D01*
X0040888Y0023902D02*
X0040888Y0026171D01*
X0042303Y0025603D02*
X0042870Y0026171D01*
X0044004Y0026171D01*
X0044572Y0025603D01*
X0044572Y0024469D01*
X0044004Y0023902D01*
X0042870Y0023902D01*
X0042303Y0024469D01*
X0042303Y0025603D01*
X0045846Y0024469D02*
X0045846Y0023902D01*
X0046413Y0023902D01*
X0046413Y0024469D01*
X0045846Y0024469D01*
X0047734Y0023902D02*
X0048869Y0023902D01*
X0048301Y0023902D02*
X0048301Y0027305D01*
X0048869Y0027305D01*
X0050283Y0025603D02*
X0050283Y0023902D01*
X0051985Y0023902D01*
X0052552Y0024469D01*
X0051985Y0025036D01*
X0050283Y0025036D01*
X0050283Y0025603D02*
X0050850Y0026171D01*
X0051985Y0026171D01*
X0053966Y0025603D02*
X0053966Y0023902D01*
X0053966Y0025603D02*
X0054533Y0026171D01*
X0055668Y0026171D01*
X0056235Y0025603D01*
X0057649Y0025603D02*
X0057649Y0024469D01*
X0058217Y0023902D01*
X0059351Y0023902D01*
X0059918Y0024469D01*
X0059918Y0025603D01*
X0059351Y0026171D01*
X0058217Y0026171D01*
X0057649Y0025603D01*
X0056235Y0023902D02*
X0056235Y0027305D01*
X0061286Y0026171D02*
X0061853Y0026171D01*
X0062987Y0025036D01*
X0062987Y0023902D02*
X0062987Y0026171D01*
X0064402Y0026171D02*
X0066103Y0026171D01*
X0066670Y0025603D01*
X0066670Y0024469D01*
X0066103Y0023902D01*
X0064402Y0023902D01*
X0067992Y0023902D02*
X0069126Y0023902D01*
X0068559Y0023902D02*
X0068559Y0026171D01*
X0069126Y0026171D01*
X0068559Y0027305D02*
X0068559Y0027872D01*
X0070540Y0025603D02*
X0070540Y0023902D01*
X0071675Y0023902D02*
X0071675Y0025603D01*
X0071108Y0026171D01*
X0070540Y0025603D01*
X0071675Y0025603D02*
X0072242Y0026171D01*
X0072809Y0026171D01*
X0072809Y0023902D01*
X0074083Y0023902D02*
X0074651Y0023902D01*
X0074651Y0024469D01*
X0074083Y0024469D01*
X0074083Y0023902D01*
X0076065Y0024469D02*
X0076065Y0026171D01*
X0076065Y0024469D02*
X0076632Y0023902D01*
X0077199Y0024469D01*
X0077767Y0023902D01*
X0078334Y0024469D01*
X0078334Y0026171D01*
X0079748Y0026171D02*
X0079748Y0024469D01*
X0080315Y0023902D01*
X0080883Y0024469D01*
X0081450Y0023902D01*
X0082017Y0024469D01*
X0082017Y0026171D01*
X0083431Y0026171D02*
X0083431Y0024469D01*
X0083999Y0023902D01*
X0084566Y0024469D01*
X0085133Y0023902D01*
X0085700Y0024469D01*
X0085700Y0026171D01*
D11*
X0020500Y0024102D03*
X0020500Y0034102D03*
X0020500Y0044102D03*
X0020500Y0054102D03*
X0020500Y0064102D03*
X0020500Y0074102D03*
X0020500Y0084102D03*
D12*
X0021300Y0084641D02*
X0087300Y0084641D01*
X0087300Y0085902D02*
X0087300Y0029296D01*
X0086396Y0029671D01*
X0085004Y0029671D01*
X0084566Y0029489D01*
X0084128Y0029671D01*
X0082735Y0029671D01*
X0082724Y0029666D01*
X0082713Y0029671D01*
X0081321Y0029671D01*
X0080883Y0029489D01*
X0080444Y0029671D01*
X0079052Y0029671D01*
X0079041Y0029666D01*
X0079030Y0029671D01*
X0077638Y0029671D01*
X0077199Y0029489D01*
X0076761Y0029671D01*
X0075369Y0029671D01*
X0074437Y0029285D01*
X0073505Y0029671D01*
X0071602Y0029671D01*
X0071526Y0029855D01*
X0070541Y0030839D01*
X0069255Y0031372D01*
X0067863Y0031372D01*
X0066576Y0030839D01*
X0065592Y0029855D01*
X0065515Y0029671D01*
X0063706Y0029671D01*
X0063695Y0029666D01*
X0063683Y0029671D01*
X0060590Y0029671D01*
X0060318Y0029558D01*
X0060047Y0029671D01*
X0058819Y0029671D01*
X0058217Y0030272D01*
X0056931Y0030805D01*
X0055539Y0030805D01*
X0054252Y0030272D01*
X0053519Y0029539D01*
X0053259Y0029431D01*
X0052681Y0029671D01*
X0051453Y0029671D01*
X0050851Y0030272D01*
X0049565Y0030805D01*
X0047605Y0030805D01*
X0046319Y0030272D01*
X0045420Y0029373D01*
X0044701Y0029671D01*
X0042174Y0029671D01*
X0041879Y0029549D01*
X0041585Y0029671D01*
X0038491Y0029671D01*
X0038219Y0029558D01*
X0037948Y0029671D01*
X0034854Y0029671D01*
X0033568Y0029138D01*
X0032773Y0028342D01*
X0031452Y0028889D01*
X0031055Y0028889D01*
X0030967Y0029102D01*
X0031200Y0029665D01*
X0031200Y0031602D01*
X0031296Y0031602D01*
X0032766Y0032211D01*
X0033891Y0033336D01*
X0034422Y0033867D01*
X0034548Y0033815D01*
X0036452Y0033815D01*
X0038212Y0034543D01*
X0039559Y0035890D01*
X0040287Y0037650D01*
X0040287Y0039554D01*
X0039559Y0041314D01*
X0038212Y0042661D01*
X0036452Y0043389D01*
X0036133Y0043389D01*
X0037712Y0044043D01*
X0039059Y0045390D01*
X0039350Y0046095D01*
X0040734Y0044711D01*
X0042204Y0044102D01*
X0051230Y0044102D01*
X0051288Y0044043D01*
X0053048Y0043315D01*
X0054952Y0043315D01*
X0056712Y0044043D01*
X0058059Y0045390D01*
X0058787Y0047150D01*
X0058787Y0049054D01*
X0058059Y0050814D01*
X0056712Y0052161D01*
X0054952Y0052889D01*
X0053048Y0052889D01*
X0051288Y0052161D01*
X0051230Y0052102D01*
X0044657Y0052102D01*
X0044287Y0052471D01*
X0044287Y0052554D01*
X0043559Y0054314D01*
X0042768Y0055104D01*
X0042787Y0055150D01*
X0042787Y0057054D01*
X0042059Y0058814D01*
X0040712Y0060161D01*
X0038952Y0060889D01*
X0037048Y0060889D01*
X0035288Y0060161D01*
X0035230Y0060102D01*
X0031200Y0060102D01*
X0031796Y0060102D01*
X0031931Y0060158D01*
X0032077Y0060168D01*
X0032662Y0060461D01*
X0033266Y0060711D01*
X0033369Y0060815D01*
X0033500Y0060880D01*
X0033929Y0061374D01*
X0034018Y0061463D01*
X0034212Y0061543D01*
X0035559Y0062890D01*
X0035853Y0063602D01*
X0037230Y0063602D01*
X0037288Y0063543D01*
X0039048Y0062815D01*
X0040952Y0062815D01*
X0042712Y0063543D01*
X0044059Y0064890D01*
X0044787Y0066650D01*
X0044787Y0068554D01*
X0044059Y0070314D01*
X0042712Y0071661D01*
X0040952Y0072389D01*
X0039048Y0072389D01*
X0037288Y0071661D01*
X0037230Y0071602D01*
X0035646Y0071602D01*
X0036287Y0073150D01*
X0036287Y0075054D01*
X0035559Y0076814D01*
X0034212Y0078161D01*
X0032452Y0078889D01*
X0031055Y0078889D01*
X0030713Y0079715D01*
X0029813Y0080615D01*
X0029800Y0080620D01*
X0029800Y0083302D01*
X0021300Y0083302D01*
X0021300Y0084902D01*
X0029800Y0084902D01*
X0029800Y0085902D01*
X0087300Y0085902D01*
X0087300Y0083042D02*
X0029800Y0083042D01*
X0029800Y0081444D02*
X0087300Y0081444D01*
X0087300Y0079845D02*
X0030582Y0079845D01*
X0034003Y0078247D02*
X0087300Y0078247D01*
X0087300Y0076648D02*
X0035627Y0076648D01*
X0036287Y0075050D02*
X0087300Y0075050D01*
X0087300Y0073451D02*
X0036287Y0073451D01*
X0035750Y0071853D02*
X0037752Y0071853D01*
X0042248Y0071853D02*
X0087300Y0071853D01*
X0087300Y0070254D02*
X0069985Y0070254D01*
X0070212Y0070161D02*
X0068452Y0070889D01*
X0066548Y0070889D01*
X0064788Y0070161D01*
X0063441Y0068814D01*
X0062713Y0067054D01*
X0062713Y0065150D01*
X0063100Y0064214D01*
X0063100Y0045490D01*
X0062713Y0044554D01*
X0062713Y0042650D01*
X0063441Y0040890D01*
X0064788Y0039543D01*
X0066548Y0038815D01*
X0068452Y0038815D01*
X0070212Y0039543D01*
X0071559Y0040890D01*
X0072287Y0042650D01*
X0072287Y0044554D01*
X0071900Y0045490D01*
X0071900Y0064214D01*
X0072287Y0065150D01*
X0072287Y0067054D01*
X0071559Y0068814D01*
X0070212Y0070161D01*
X0071624Y0068656D02*
X0087300Y0068656D01*
X0087300Y0067057D02*
X0072286Y0067057D01*
X0072287Y0065459D02*
X0087300Y0065459D01*
X0087300Y0063860D02*
X0071900Y0063860D01*
X0071900Y0062262D02*
X0087300Y0062262D01*
X0087300Y0060663D02*
X0071900Y0060663D01*
X0071900Y0059065D02*
X0087300Y0059065D01*
X0087300Y0057466D02*
X0071900Y0057466D01*
X0071900Y0055868D02*
X0087300Y0055868D01*
X0087300Y0054269D02*
X0071900Y0054269D01*
X0071900Y0052671D02*
X0087300Y0052671D01*
X0087300Y0051072D02*
X0071900Y0051072D01*
X0071900Y0049474D02*
X0087300Y0049474D01*
X0087300Y0047875D02*
X0071900Y0047875D01*
X0071900Y0046277D02*
X0087300Y0046277D01*
X0087300Y0044678D02*
X0072236Y0044678D01*
X0072287Y0043080D02*
X0087300Y0043080D01*
X0087300Y0041481D02*
X0071803Y0041481D01*
X0070551Y0039883D02*
X0087300Y0039883D01*
X0087300Y0038284D02*
X0040287Y0038284D01*
X0040151Y0039883D02*
X0064449Y0039883D01*
X0063197Y0041481D02*
X0039391Y0041481D01*
X0037200Y0043080D02*
X0062713Y0043080D01*
X0062764Y0044678D02*
X0057347Y0044678D01*
X0058426Y0046277D02*
X0063100Y0046277D01*
X0063100Y0047875D02*
X0058787Y0047875D01*
X0058614Y0049474D02*
X0063100Y0049474D01*
X0063100Y0051072D02*
X0057800Y0051072D01*
X0055480Y0052671D02*
X0063100Y0052671D01*
X0063100Y0054269D02*
X0043577Y0054269D01*
X0044239Y0052671D02*
X0052520Y0052671D01*
X0054000Y0048102D02*
X0043000Y0048102D01*
X0039500Y0051602D01*
X0038000Y0056102D02*
X0023000Y0056102D01*
X0020500Y0054102D01*
X0023500Y0047102D02*
X0020500Y0044102D01*
X0023500Y0047102D02*
X0032500Y0047102D01*
X0033500Y0048102D01*
X0035000Y0048102D01*
X0038347Y0044678D02*
X0040813Y0044678D01*
X0035500Y0038602D02*
X0033500Y0038602D01*
X0030500Y0035602D01*
X0022000Y0035602D01*
X0020500Y0034102D01*
X0020500Y0024102D02*
X0030500Y0024102D01*
X0031926Y0028693D02*
X0033123Y0028693D01*
X0031200Y0030292D02*
X0046366Y0030292D01*
X0050804Y0030292D02*
X0054299Y0030292D01*
X0058170Y0030292D02*
X0066028Y0030292D01*
X0071089Y0030292D02*
X0087300Y0030292D01*
X0087300Y0031890D02*
X0031991Y0031890D01*
X0034043Y0033489D02*
X0087300Y0033489D01*
X0087300Y0035087D02*
X0038756Y0035087D01*
X0039888Y0036686D02*
X0087300Y0036686D01*
X0063100Y0055868D02*
X0042787Y0055868D01*
X0042617Y0057466D02*
X0063100Y0057466D01*
X0063100Y0059065D02*
X0041808Y0059065D01*
X0039498Y0060663D02*
X0063100Y0060663D01*
X0063100Y0062262D02*
X0034930Y0062262D01*
X0036502Y0060663D02*
X0033151Y0060663D01*
X0031200Y0060102D02*
X0031200Y0060102D01*
X0031000Y0064102D02*
X0031500Y0065602D01*
X0033500Y0067602D01*
X0040000Y0067602D01*
X0044294Y0065459D02*
X0062713Y0065459D01*
X0062714Y0067057D02*
X0044787Y0067057D01*
X0044745Y0068656D02*
X0063376Y0068656D01*
X0065015Y0070254D02*
X0044083Y0070254D01*
X0043029Y0063860D02*
X0063100Y0063860D01*
X0031500Y0074102D02*
X0020500Y0074102D01*
X0020500Y0064102D02*
X0031000Y0064102D01*
D13*
X0030500Y0084102D02*
X0020500Y0084102D01*
D14*
X0031500Y0074102D03*
X0031500Y0065602D03*
X0040000Y0067602D03*
X0038000Y0056102D03*
X0039500Y0051602D03*
X0035000Y0048102D03*
X0035500Y0038602D03*
X0030500Y0024102D03*
X0054000Y0048102D03*
X0054500Y0059602D03*
X0067500Y0066102D03*
X0073000Y0067602D03*
X0073000Y0064102D03*
X0083000Y0066602D03*
X0073000Y0046102D03*
X0067500Y0043602D03*
X0072500Y0034602D03*
X0062500Y0032602D03*
X0061500Y0082602D03*
X0061500Y0085602D03*
D15*
X0067500Y0066102D02*
X0067500Y0043602D01*
M02*
