G75*
%MOIN*%
%OFA0B0*%
%FSLAX25Y25*%
%IPPOS*%
%LPD*%
%AMOC8*
5,1,8,0,0,1.08239X$1,22.5*
%
%ADD10C,0.00600*%
%ADD11R,0.15800X0.08400*%
D10*
X0035551Y0023335D02*
X0035551Y0026171D01*
X0037252Y0026171D01*
X0037819Y0025603D01*
X0037819Y0024469D01*
X0037252Y0023902D01*
X0035551Y0023902D01*
X0035551Y0023335D02*
X0036118Y0022768D01*
X0036685Y0022768D01*
X0039187Y0026171D02*
X0039754Y0026171D01*
X0040888Y0025036D01*
X0040888Y0023902D02*
X0040888Y0026171D01*
X0042303Y0025603D02*
X0042870Y0026171D01*
X0044004Y0026171D01*
X0044572Y0025603D01*
X0044572Y0024469D01*
X0044004Y0023902D01*
X0042870Y0023902D01*
X0042303Y0024469D01*
X0042303Y0025603D01*
X0045846Y0024469D02*
X0045846Y0023902D01*
X0046413Y0023902D01*
X0046413Y0024469D01*
X0045846Y0024469D01*
X0047734Y0023902D02*
X0048869Y0023902D01*
X0048301Y0023902D02*
X0048301Y0027305D01*
X0048869Y0027305D01*
X0050283Y0025603D02*
X0050283Y0023902D01*
X0051985Y0023902D01*
X0052552Y0024469D01*
X0051985Y0025036D01*
X0050283Y0025036D01*
X0050283Y0025603D02*
X0050850Y0026171D01*
X0051985Y0026171D01*
X0053966Y0025603D02*
X0053966Y0023902D01*
X0053966Y0025603D02*
X0054533Y0026171D01*
X0055668Y0026171D01*
X0056235Y0025603D01*
X0057649Y0025603D02*
X0057649Y0024469D01*
X0058217Y0023902D01*
X0059351Y0023902D01*
X0059918Y0024469D01*
X0059918Y0025603D01*
X0059351Y0026171D01*
X0058217Y0026171D01*
X0057649Y0025603D01*
X0056235Y0023902D02*
X0056235Y0027305D01*
X0061286Y0026171D02*
X0061853Y0026171D01*
X0062987Y0025036D01*
X0062987Y0023902D02*
X0062987Y0026171D01*
X0064402Y0026171D02*
X0066103Y0026171D01*
X0066670Y0025603D01*
X0066670Y0024469D01*
X0066103Y0023902D01*
X0064402Y0023902D01*
X0067992Y0023902D02*
X0069126Y0023902D01*
X0068559Y0023902D02*
X0068559Y0026171D01*
X0069126Y0026171D01*
X0068559Y0027305D02*
X0068559Y0027872D01*
X0070540Y0025603D02*
X0070540Y0023902D01*
X0071675Y0023902D02*
X0071675Y0025603D01*
X0071108Y0026171D01*
X0070540Y0025603D01*
X0071675Y0025603D02*
X0072242Y0026171D01*
X0072809Y0026171D01*
X0072809Y0023902D01*
X0074083Y0023902D02*
X0074651Y0023902D01*
X0074651Y0024469D01*
X0074083Y0024469D01*
X0074083Y0023902D01*
X0076065Y0024469D02*
X0076065Y0026171D01*
X0076065Y0024469D02*
X0076632Y0023902D01*
X0077199Y0024469D01*
X0077767Y0023902D01*
X0078334Y0024469D01*
X0078334Y0026171D01*
X0079748Y0026171D02*
X0079748Y0024469D01*
X0080315Y0023902D01*
X0080883Y0024469D01*
X0081450Y0023902D01*
X0082017Y0024469D01*
X0082017Y0026171D01*
X0083431Y0026171D02*
X0083431Y0024469D01*
X0083999Y0023902D01*
X0084566Y0024469D01*
X0085133Y0023902D01*
X0085700Y0024469D01*
X0085700Y0026171D01*
D11*
X0020500Y0024102D03*
X0020500Y0034102D03*
X0020500Y0044102D03*
X0020500Y0054102D03*
X0020500Y0064102D03*
X0020500Y0074102D03*
X0020500Y0084102D03*
M02*
