%
M48
M72
T01C0.01575
%
T01
X30500Y24102
X35500Y38602
X35000Y48102
X39500Y51602
X38000Y56102
X31500Y65602
X31500Y74102
X40000Y67602
X54500Y59602
X54000Y48102
X67500Y43602
X73000Y46102
X72500Y34602
X62500Y32602
X73000Y64102
X73000Y67602
X67500Y66102
X83000Y66602
X61500Y82602
X61500Y85602
M30
