G75*
%MOIN*%
%OFA0B0*%
%FSLAX25Y25*%
%IPPOS*%
%LPD*%
%AMOC8*
5,1,8,0,0,1.08239X$1,22.5*
%
%ADD10C,0.00200*%
%ADD11C,0.00500*%
%ADD12C,0.00394*%
D10*
X0052600Y0039262D02*
X0052967Y0038895D01*
X0053334Y0038895D01*
X0053701Y0039262D01*
X0053701Y0041097D01*
X0053334Y0041097D02*
X0054068Y0041097D01*
X0054810Y0041097D02*
X0055544Y0040363D01*
X0056278Y0041097D01*
X0056278Y0038895D01*
X0057020Y0038895D02*
X0057020Y0041097D01*
X0058121Y0041097D01*
X0058488Y0040730D01*
X0058488Y0039996D01*
X0058121Y0039629D01*
X0057020Y0039629D01*
X0054810Y0038895D02*
X0054810Y0041097D01*
X0054310Y0043395D02*
X0054310Y0045597D01*
X0055044Y0044863D01*
X0055778Y0045597D01*
X0055778Y0043395D01*
X0056520Y0043395D02*
X0056520Y0045597D01*
X0057621Y0045597D01*
X0057988Y0045230D01*
X0057988Y0044496D01*
X0057621Y0044129D01*
X0056520Y0044129D01*
X0058730Y0044863D02*
X0059464Y0045597D01*
X0059464Y0043395D01*
X0058730Y0043395D02*
X0060198Y0043395D01*
X0060331Y0041097D02*
X0059597Y0041097D01*
X0059230Y0040730D01*
X0060331Y0041097D02*
X0060698Y0040730D01*
X0060698Y0040363D01*
X0059230Y0038895D01*
X0060698Y0038895D01*
X0066157Y0037243D02*
X0066524Y0037610D01*
X0066891Y0037610D01*
X0067258Y0037243D01*
X0067625Y0037610D01*
X0067992Y0037610D01*
X0068359Y0037243D01*
X0068359Y0036509D01*
X0067992Y0036142D01*
X0067992Y0035400D02*
X0068359Y0035033D01*
X0068359Y0034299D01*
X0067992Y0033932D01*
X0066524Y0033932D01*
X0066157Y0034299D01*
X0066157Y0035033D01*
X0066524Y0035400D01*
X0066524Y0036142D02*
X0066157Y0036509D01*
X0066157Y0037243D01*
X0067258Y0037243D02*
X0067258Y0036876D01*
X0061198Y0032730D02*
X0061198Y0032363D01*
X0060831Y0031996D01*
X0061198Y0031629D01*
X0061198Y0031262D01*
X0060831Y0030895D01*
X0060097Y0030895D01*
X0059730Y0031262D01*
X0060464Y0031996D02*
X0060831Y0031996D01*
X0061198Y0032730D02*
X0060831Y0033097D01*
X0060097Y0033097D01*
X0059730Y0032730D01*
X0058988Y0032730D02*
X0058988Y0031996D01*
X0058621Y0031629D01*
X0057520Y0031629D01*
X0057520Y0030895D02*
X0057520Y0033097D01*
X0058621Y0033097D01*
X0058988Y0032730D01*
X0056778Y0033097D02*
X0056778Y0030895D01*
X0055310Y0030895D02*
X0055310Y0033097D01*
X0056044Y0032363D01*
X0056778Y0033097D01*
X0054568Y0033097D02*
X0053834Y0033097D01*
X0054201Y0033097D02*
X0054201Y0031262D01*
X0053834Y0030895D01*
X0053467Y0030895D01*
X0053100Y0031262D01*
X0052834Y0043395D02*
X0052467Y0043395D01*
X0052100Y0043762D01*
X0052834Y0043395D02*
X0053201Y0043762D01*
X0053201Y0045597D01*
X0052834Y0045597D02*
X0053568Y0045597D01*
X0053310Y0053395D02*
X0053310Y0055597D01*
X0054044Y0054863D01*
X0054778Y0055597D01*
X0054778Y0053395D01*
X0055520Y0053395D02*
X0055520Y0055597D01*
X0056621Y0055597D01*
X0056988Y0055230D01*
X0056988Y0054496D01*
X0056621Y0054129D01*
X0055520Y0054129D01*
X0057730Y0054496D02*
X0059198Y0054496D01*
X0058831Y0053395D02*
X0058831Y0055597D01*
X0057730Y0054496D01*
X0052568Y0055597D02*
X0051834Y0055597D01*
X0052201Y0055597D02*
X0052201Y0053762D01*
X0051834Y0053395D01*
X0051467Y0053395D01*
X0051100Y0053762D01*
X0060600Y0060702D02*
X0061334Y0060702D01*
X0060967Y0060702D02*
X0060967Y0062904D01*
X0060600Y0062904D02*
X0061334Y0062904D01*
X0062073Y0062537D02*
X0062073Y0061069D01*
X0062440Y0060702D01*
X0063174Y0060702D01*
X0063541Y0061069D01*
X0064283Y0060702D02*
X0065751Y0060702D01*
X0065017Y0060702D02*
X0065017Y0062904D01*
X0064283Y0062170D01*
X0063541Y0062537D02*
X0063174Y0062904D01*
X0062440Y0062904D01*
X0062073Y0062537D01*
X0056778Y0066702D02*
X0055310Y0066702D01*
X0056044Y0066702D02*
X0056044Y0068904D01*
X0055310Y0068170D01*
X0054568Y0068537D02*
X0054568Y0067803D01*
X0054201Y0067436D01*
X0053100Y0067436D01*
X0053834Y0067436D02*
X0054568Y0066702D01*
X0053100Y0066702D02*
X0053100Y0068904D01*
X0054201Y0068904D01*
X0054568Y0068537D01*
X0054568Y0074702D02*
X0053834Y0075436D01*
X0054201Y0075436D02*
X0053100Y0075436D01*
X0053100Y0074702D02*
X0053100Y0076904D01*
X0054201Y0076904D01*
X0054568Y0076537D01*
X0054568Y0075803D01*
X0054201Y0075436D01*
X0055310Y0074702D02*
X0056778Y0076170D01*
X0056778Y0076537D01*
X0056411Y0076904D01*
X0055677Y0076904D01*
X0055310Y0076537D01*
X0055310Y0074702D02*
X0056778Y0074702D01*
X0065030Y0083147D02*
X0065764Y0083147D01*
X0066131Y0083514D01*
X0066873Y0083147D02*
X0068341Y0083147D01*
X0067607Y0083147D02*
X0067607Y0085349D01*
X0066873Y0084615D01*
X0066131Y0084982D02*
X0065764Y0085349D01*
X0065030Y0085349D01*
X0064663Y0084982D01*
X0064663Y0083514D01*
X0065030Y0083147D01*
X0081024Y0037110D02*
X0080657Y0036743D01*
X0080657Y0036009D01*
X0081024Y0035642D01*
X0081024Y0034900D02*
X0080657Y0034533D01*
X0080657Y0033799D01*
X0081024Y0033432D01*
X0082492Y0033432D01*
X0082859Y0033799D01*
X0082859Y0034533D01*
X0082492Y0034900D01*
X0082859Y0035642D02*
X0081391Y0037110D01*
X0081024Y0037110D01*
X0082859Y0037110D02*
X0082859Y0035642D01*
D11*
X0031751Y0031852D02*
X0030250Y0031852D01*
X0031001Y0031852D02*
X0031001Y0036356D01*
X0031751Y0036356D02*
X0030250Y0036356D01*
X0033319Y0035605D02*
X0033319Y0032603D01*
X0034070Y0031852D01*
X0035571Y0031852D01*
X0036322Y0032603D01*
X0036322Y0035605D01*
X0035571Y0036356D01*
X0034070Y0036356D01*
X0033319Y0035605D01*
X0037923Y0035605D02*
X0038674Y0036356D01*
X0040175Y0036356D01*
X0040926Y0035605D01*
X0040926Y0034855D01*
X0040175Y0034104D01*
X0040926Y0033353D01*
X0040926Y0032603D01*
X0040175Y0031852D01*
X0038674Y0031852D01*
X0037923Y0032603D01*
X0039424Y0034104D02*
X0040175Y0034104D01*
X0037106Y0041852D02*
X0035605Y0041852D01*
X0034854Y0042603D01*
X0033253Y0042603D02*
X0033253Y0043353D01*
X0032502Y0044104D01*
X0031001Y0044104D01*
X0030250Y0044855D01*
X0030250Y0045605D01*
X0031001Y0046356D01*
X0032502Y0046356D01*
X0033253Y0045605D01*
X0034854Y0045605D02*
X0034854Y0044855D01*
X0035605Y0044104D01*
X0037106Y0044104D01*
X0037856Y0043353D01*
X0037856Y0042603D01*
X0037106Y0041852D01*
X0037856Y0045605D02*
X0037106Y0046356D01*
X0035605Y0046356D01*
X0034854Y0045605D01*
X0033253Y0042603D02*
X0032502Y0041852D01*
X0031001Y0041852D01*
X0030250Y0042603D01*
X0030250Y0051852D02*
X0031751Y0051852D01*
X0031001Y0051852D02*
X0031001Y0056356D01*
X0031751Y0056356D02*
X0030250Y0056356D01*
X0033319Y0055605D02*
X0033319Y0052603D01*
X0034070Y0051852D01*
X0035571Y0051852D01*
X0036322Y0052603D01*
X0036322Y0055605D01*
X0035571Y0056356D01*
X0034070Y0056356D01*
X0033319Y0055605D01*
X0037923Y0055605D02*
X0038674Y0056356D01*
X0040175Y0056356D01*
X0040926Y0055605D01*
X0040926Y0054855D01*
X0037923Y0051852D01*
X0040926Y0051852D01*
X0040926Y0061852D02*
X0037923Y0061852D01*
X0039424Y0061852D02*
X0039424Y0066356D01*
X0037923Y0064855D01*
X0036322Y0065605D02*
X0035571Y0066356D01*
X0034070Y0066356D01*
X0033319Y0065605D01*
X0033319Y0062603D01*
X0034070Y0061852D01*
X0035571Y0061852D01*
X0036322Y0062603D01*
X0036322Y0065605D01*
X0031751Y0066356D02*
X0030250Y0066356D01*
X0031001Y0066356D02*
X0031001Y0061852D01*
X0031751Y0061852D02*
X0030250Y0061852D01*
X0031001Y0071852D02*
X0030250Y0072603D01*
X0031001Y0071852D02*
X0032502Y0071852D01*
X0033253Y0072603D01*
X0033253Y0074104D01*
X0032502Y0074855D01*
X0031751Y0074855D01*
X0030250Y0074104D01*
X0030250Y0076356D01*
X0033253Y0076356D01*
X0034854Y0076356D02*
X0034854Y0073353D01*
X0036355Y0071852D01*
X0037856Y0073353D01*
X0037856Y0076356D01*
X0037907Y0081852D02*
X0037156Y0082603D01*
X0037907Y0081852D02*
X0039408Y0081852D01*
X0040158Y0082603D01*
X0040158Y0083353D01*
X0039408Y0084104D01*
X0038657Y0084104D01*
X0039408Y0084104D02*
X0040158Y0084855D01*
X0040158Y0085605D01*
X0039408Y0086356D01*
X0037907Y0086356D01*
X0037156Y0085605D01*
X0035605Y0082603D02*
X0034854Y0082603D01*
X0034854Y0081852D01*
X0035605Y0081852D01*
X0035605Y0082603D01*
X0033253Y0082603D02*
X0032502Y0081852D01*
X0031001Y0081852D01*
X0030250Y0082603D01*
X0031751Y0084104D02*
X0032502Y0084104D01*
X0033253Y0083353D01*
X0033253Y0082603D01*
X0032502Y0084104D02*
X0033253Y0084855D01*
X0033253Y0085605D01*
X0032502Y0086356D01*
X0031001Y0086356D01*
X0030250Y0085605D01*
X0041760Y0086356D02*
X0041760Y0083353D01*
X0043261Y0081852D01*
X0044762Y0083353D01*
X0044762Y0086356D01*
D12*
X0059657Y0060008D02*
X0059657Y0048197D01*
X0079343Y0048197D01*
X0079343Y0060008D01*
X0059657Y0060008D01*
M02*
