G75*
%MOIN*%
%OFA0B0*%
%FSLAX25Y25*%
%IPPOS*%
%LPD*%
%AMOC8*
5,1,8,0,0,1.08239X$1,22.5*
%
%ADD10C,0.00500*%
D10*
X0031351Y0024104D02*
X0034354Y0024104D01*
X0032102Y0026356D01*
X0032102Y0021852D01*
X0035955Y0022603D02*
X0035955Y0025605D01*
X0036706Y0026356D01*
X0038207Y0026356D01*
X0038958Y0025605D01*
X0038958Y0022603D01*
X0038207Y0021852D01*
X0036706Y0021852D01*
X0035955Y0022603D01*
X0040526Y0021852D02*
X0042027Y0021852D01*
X0041277Y0021852D02*
X0041277Y0026356D01*
X0042027Y0026356D02*
X0040526Y0026356D01*
X0041310Y0031852D02*
X0040559Y0032603D01*
X0040559Y0033353D01*
X0041310Y0034104D01*
X0042811Y0034104D01*
X0043562Y0034855D01*
X0043562Y0035605D01*
X0042811Y0036356D01*
X0041310Y0036356D01*
X0040559Y0035605D01*
X0038958Y0035605D02*
X0038958Y0032603D01*
X0038207Y0031852D01*
X0036706Y0031852D01*
X0035955Y0032603D01*
X0034354Y0033353D02*
X0031351Y0036356D01*
X0033603Y0034104D02*
X0031351Y0031852D01*
X0034354Y0031852D02*
X0034354Y0036356D01*
X0035955Y0035605D02*
X0036706Y0036356D01*
X0038207Y0036356D01*
X0038958Y0035605D01*
X0041310Y0031852D02*
X0042811Y0031852D01*
X0043562Y0032603D01*
X0043629Y0041852D02*
X0043629Y0046356D01*
X0045130Y0044855D01*
X0046631Y0046356D01*
X0046631Y0041852D01*
X0042027Y0042603D02*
X0041277Y0041852D01*
X0039775Y0041852D01*
X0039025Y0042603D01*
X0039025Y0045605D01*
X0039775Y0046356D01*
X0041277Y0046356D01*
X0042027Y0045605D01*
X0042027Y0042603D01*
X0037423Y0042603D02*
X0036673Y0041852D01*
X0035171Y0041852D01*
X0034421Y0042603D01*
X0034421Y0043353D01*
X0035171Y0044104D01*
X0036673Y0044104D01*
X0037423Y0044855D01*
X0037423Y0045605D01*
X0036673Y0046356D01*
X0035171Y0046356D01*
X0034421Y0045605D01*
X0032819Y0046356D02*
X0031318Y0046356D01*
X0032069Y0046356D02*
X0032069Y0041852D01*
X0032819Y0041852D02*
X0031318Y0041852D01*
X0032102Y0051852D02*
X0031351Y0052603D01*
X0031351Y0055605D01*
X0032102Y0056356D01*
X0033603Y0056356D01*
X0034354Y0055605D01*
X0034354Y0052603D01*
X0033603Y0051852D01*
X0032102Y0051852D01*
X0035955Y0052603D02*
X0036706Y0051852D01*
X0038207Y0051852D01*
X0038958Y0052603D01*
X0040526Y0051852D02*
X0042027Y0051852D01*
X0041277Y0051852D02*
X0041277Y0056356D01*
X0042027Y0056356D02*
X0040526Y0056356D01*
X0038958Y0055605D02*
X0038958Y0054855D01*
X0038207Y0054104D01*
X0036706Y0054104D01*
X0035955Y0053353D01*
X0035955Y0052603D01*
X0035955Y0055605D02*
X0036706Y0056356D01*
X0038207Y0056356D01*
X0038958Y0055605D01*
X0043629Y0056356D02*
X0043629Y0051852D01*
X0046631Y0051852D02*
X0046631Y0056356D01*
X0045130Y0054855D01*
X0043629Y0056356D01*
X0042811Y0061852D02*
X0041310Y0061852D01*
X0040559Y0062603D01*
X0040559Y0063353D01*
X0041310Y0064104D01*
X0042811Y0064104D01*
X0043562Y0064855D01*
X0043562Y0065605D01*
X0042811Y0066356D01*
X0041310Y0066356D01*
X0040559Y0065605D01*
X0038958Y0065605D02*
X0038958Y0062603D01*
X0038207Y0061852D01*
X0036706Y0061852D01*
X0035955Y0062603D01*
X0034354Y0061852D02*
X0031351Y0061852D01*
X0034354Y0061852D02*
X0034354Y0066356D01*
X0035955Y0065605D02*
X0036706Y0066356D01*
X0038207Y0066356D01*
X0038958Y0065605D01*
X0042811Y0061852D02*
X0043562Y0062603D01*
X0042811Y0071852D02*
X0041310Y0071852D01*
X0040559Y0072603D01*
X0040559Y0073353D01*
X0041310Y0074104D01*
X0042811Y0074104D01*
X0043562Y0074855D01*
X0043562Y0075605D01*
X0042811Y0076356D01*
X0041310Y0076356D01*
X0040559Y0075605D01*
X0038958Y0076356D02*
X0036706Y0076356D01*
X0035955Y0075605D01*
X0035955Y0072603D01*
X0036706Y0071852D01*
X0038958Y0071852D01*
X0038958Y0076356D01*
X0042811Y0071852D02*
X0043562Y0072603D01*
X0034354Y0071852D02*
X0034354Y0074855D01*
X0032853Y0076356D01*
X0031351Y0074855D01*
X0031351Y0071852D01*
X0031351Y0074104D02*
X0034354Y0074104D01*
X0034354Y0081852D02*
X0032102Y0081852D01*
X0031351Y0082603D01*
X0031351Y0085605D01*
X0032102Y0086356D01*
X0034354Y0086356D01*
X0034354Y0081852D01*
X0035955Y0081852D02*
X0035955Y0086356D01*
X0038958Y0086356D02*
X0035955Y0081852D01*
X0038958Y0081852D02*
X0038958Y0086356D01*
X0040559Y0085605D02*
X0041310Y0086356D01*
X0042811Y0086356D01*
X0043562Y0085605D01*
X0043562Y0082603D01*
X0042811Y0081852D01*
X0041310Y0081852D01*
X0040559Y0082603D01*
X0040559Y0084104D01*
X0042061Y0084104D01*
M02*
