G75*
%MOIN*%
%OFA0B0*%
%FSLAX25Y25*%
%IPPOS*%
%LPD*%
%AMOC8*
5,1,8,0,0,1.08239X$1,22.5*
%
%ADD10C,0.00200*%
%ADD11C,0.00500*%
%ADD12C,0.00600*%
D10*
X0056600Y0046400D02*
X0056600Y0048602D01*
X0057701Y0048602D01*
X0058068Y0048235D01*
X0058068Y0047501D01*
X0057701Y0047134D01*
X0056600Y0047134D01*
X0057334Y0047134D02*
X0058068Y0046400D01*
X0058810Y0046400D02*
X0060278Y0047868D01*
X0060278Y0048235D01*
X0059911Y0048602D01*
X0059177Y0048602D01*
X0058810Y0048235D01*
X0058810Y0046400D02*
X0060278Y0046400D01*
X0067100Y0046500D02*
X0067834Y0046500D01*
X0067467Y0046500D02*
X0067467Y0048702D01*
X0067100Y0048702D02*
X0067834Y0048702D01*
X0068573Y0048335D02*
X0068573Y0046867D01*
X0068940Y0046500D01*
X0069674Y0046500D01*
X0070041Y0046867D01*
X0070783Y0046500D02*
X0072251Y0046500D01*
X0071517Y0046500D02*
X0071517Y0048702D01*
X0070783Y0047968D01*
X0070041Y0048335D02*
X0069674Y0048702D01*
X0068940Y0048702D01*
X0068573Y0048335D01*
X0060278Y0055900D02*
X0058810Y0055900D01*
X0059544Y0055900D02*
X0059544Y0058102D01*
X0058810Y0057368D01*
X0058068Y0057735D02*
X0058068Y0057001D01*
X0057701Y0056634D01*
X0056600Y0056634D01*
X0057334Y0056634D02*
X0058068Y0055900D01*
X0056600Y0055900D02*
X0056600Y0058102D01*
X0057701Y0058102D01*
X0058068Y0057735D01*
X0060817Y0065959D02*
X0061551Y0065959D01*
X0061918Y0066326D01*
X0062660Y0065959D02*
X0064128Y0065959D01*
X0063394Y0065959D02*
X0063394Y0068161D01*
X0062660Y0067427D01*
X0061918Y0067794D02*
X0061551Y0068161D01*
X0060817Y0068161D01*
X0060450Y0067794D01*
X0060450Y0066326D01*
X0060817Y0065959D01*
X0082157Y0046441D02*
X0082157Y0045707D01*
X0082524Y0045340D01*
X0082524Y0044598D02*
X0082157Y0044231D01*
X0082157Y0043497D01*
X0082524Y0043130D01*
X0083992Y0043130D01*
X0084359Y0043497D01*
X0084359Y0044231D01*
X0083992Y0044598D01*
X0084359Y0045340D02*
X0082891Y0046808D01*
X0082524Y0046808D01*
X0082157Y0046441D01*
X0084359Y0046808D02*
X0084359Y0045340D01*
D11*
X0031751Y0014550D02*
X0030250Y0014550D01*
X0031001Y0014550D02*
X0031001Y0019054D01*
X0031751Y0019054D02*
X0030250Y0019054D01*
X0033319Y0018303D02*
X0033319Y0015301D01*
X0034070Y0014550D01*
X0035571Y0014550D01*
X0036322Y0015301D01*
X0036322Y0018303D01*
X0035571Y0019054D01*
X0034070Y0019054D01*
X0033319Y0018303D01*
X0037923Y0018303D02*
X0038674Y0019054D01*
X0040175Y0019054D01*
X0040926Y0018303D01*
X0040926Y0017553D01*
X0040175Y0016802D01*
X0040926Y0016051D01*
X0040926Y0015301D01*
X0040175Y0014550D01*
X0038674Y0014550D01*
X0037923Y0015301D01*
X0039424Y0016802D02*
X0040175Y0016802D01*
X0037106Y0024550D02*
X0035605Y0024550D01*
X0034854Y0025301D01*
X0033253Y0025301D02*
X0032502Y0024550D01*
X0031001Y0024550D01*
X0030250Y0025301D01*
X0031001Y0026802D02*
X0032502Y0026802D01*
X0033253Y0026051D01*
X0033253Y0025301D01*
X0031001Y0026802D02*
X0030250Y0027553D01*
X0030250Y0028303D01*
X0031001Y0029054D01*
X0032502Y0029054D01*
X0033253Y0028303D01*
X0034854Y0028303D02*
X0034854Y0027553D01*
X0035605Y0026802D01*
X0037106Y0026802D01*
X0037856Y0026051D01*
X0037856Y0025301D01*
X0037106Y0024550D01*
X0037856Y0028303D02*
X0037106Y0029054D01*
X0035605Y0029054D01*
X0034854Y0028303D01*
X0035571Y0034550D02*
X0034070Y0034550D01*
X0033319Y0035301D01*
X0033319Y0038303D01*
X0034070Y0039054D01*
X0035571Y0039054D01*
X0036322Y0038303D01*
X0036322Y0035301D01*
X0035571Y0034550D01*
X0037923Y0034550D02*
X0040926Y0037553D01*
X0040926Y0038303D01*
X0040175Y0039054D01*
X0038674Y0039054D01*
X0037923Y0038303D01*
X0037923Y0034550D02*
X0040926Y0034550D01*
X0031751Y0034550D02*
X0030250Y0034550D01*
X0031001Y0034550D02*
X0031001Y0039054D01*
X0031751Y0039054D02*
X0030250Y0039054D01*
X0030250Y0044550D02*
X0031751Y0044550D01*
X0031001Y0044550D02*
X0031001Y0049054D01*
X0031751Y0049054D02*
X0030250Y0049054D01*
X0033319Y0048303D02*
X0033319Y0045301D01*
X0034070Y0044550D01*
X0035571Y0044550D01*
X0036322Y0045301D01*
X0036322Y0048303D01*
X0035571Y0049054D01*
X0034070Y0049054D01*
X0033319Y0048303D01*
X0037923Y0047553D02*
X0039424Y0049054D01*
X0039424Y0044550D01*
X0037923Y0044550D02*
X0040926Y0044550D01*
X0036355Y0054550D02*
X0037856Y0056051D01*
X0037856Y0059054D01*
X0034854Y0059054D02*
X0034854Y0056051D01*
X0036355Y0054550D01*
X0033253Y0055301D02*
X0033253Y0056802D01*
X0032502Y0057553D01*
X0031751Y0057553D01*
X0030250Y0056802D01*
X0030250Y0059054D01*
X0033253Y0059054D01*
X0033253Y0055301D02*
X0032502Y0054550D01*
X0031001Y0054550D01*
X0030250Y0055301D01*
X0031001Y0064550D02*
X0030250Y0065301D01*
X0031001Y0064550D02*
X0032502Y0064550D01*
X0033253Y0065301D01*
X0033253Y0066051D01*
X0032502Y0066802D01*
X0031751Y0066802D01*
X0032502Y0066802D02*
X0033253Y0067553D01*
X0033253Y0068303D01*
X0032502Y0069054D01*
X0031001Y0069054D01*
X0030250Y0068303D01*
X0034854Y0065301D02*
X0034854Y0064550D01*
X0035605Y0064550D01*
X0035605Y0065301D01*
X0034854Y0065301D01*
X0037156Y0065301D02*
X0037907Y0064550D01*
X0039408Y0064550D01*
X0040158Y0065301D01*
X0040158Y0066051D01*
X0039408Y0066802D01*
X0038657Y0066802D01*
X0039408Y0066802D02*
X0040158Y0067553D01*
X0040158Y0068303D01*
X0039408Y0069054D01*
X0037907Y0069054D01*
X0037156Y0068303D01*
X0041760Y0069054D02*
X0041760Y0066051D01*
X0043261Y0064550D01*
X0044762Y0066051D01*
X0044762Y0069054D01*
D12*
X0069100Y0028100D02*
X0069044Y0028098D01*
X0068989Y0028092D01*
X0068934Y0028083D01*
X0068879Y0028069D01*
X0068826Y0028052D01*
X0068775Y0028031D01*
X0068724Y0028006D01*
X0068676Y0027978D01*
X0068630Y0027947D01*
X0068586Y0027913D01*
X0068544Y0027875D01*
X0068505Y0027835D01*
X0068470Y0027793D01*
X0068437Y0027747D01*
X0068407Y0027700D01*
X0068381Y0027651D01*
X0068358Y0027600D01*
X0068339Y0027547D01*
X0068324Y0027494D01*
X0068312Y0027439D01*
X0068304Y0027384D01*
X0068300Y0027328D01*
X0068300Y0027272D01*
X0068304Y0027216D01*
X0068312Y0027161D01*
X0068324Y0027106D01*
X0068339Y0027053D01*
X0068358Y0027000D01*
X0068381Y0026949D01*
X0068407Y0026900D01*
X0068437Y0026853D01*
X0068470Y0026807D01*
X0068505Y0026765D01*
X0068544Y0026725D01*
X0068586Y0026687D01*
X0068630Y0026653D01*
X0068676Y0026622D01*
X0068724Y0026594D01*
X0068775Y0026569D01*
X0068826Y0026548D01*
X0068879Y0026531D01*
X0068934Y0026517D01*
X0068989Y0026508D01*
X0069044Y0026502D01*
X0069100Y0026500D01*
X0069156Y0026502D01*
X0069211Y0026508D01*
X0069266Y0026517D01*
X0069321Y0026531D01*
X0069374Y0026548D01*
X0069425Y0026569D01*
X0069476Y0026594D01*
X0069524Y0026622D01*
X0069570Y0026653D01*
X0069614Y0026687D01*
X0069656Y0026725D01*
X0069695Y0026765D01*
X0069730Y0026807D01*
X0069763Y0026853D01*
X0069793Y0026900D01*
X0069819Y0026949D01*
X0069842Y0027000D01*
X0069861Y0027053D01*
X0069876Y0027106D01*
X0069888Y0027161D01*
X0069896Y0027216D01*
X0069900Y0027272D01*
X0069900Y0027328D01*
X0069896Y0027384D01*
X0069888Y0027439D01*
X0069876Y0027494D01*
X0069861Y0027547D01*
X0069842Y0027600D01*
X0069819Y0027651D01*
X0069793Y0027700D01*
X0069763Y0027747D01*
X0069730Y0027793D01*
X0069695Y0027835D01*
X0069656Y0027875D01*
X0069614Y0027913D01*
X0069570Y0027947D01*
X0069524Y0027978D01*
X0069476Y0028006D01*
X0069425Y0028031D01*
X0069374Y0028052D01*
X0069321Y0028069D01*
X0069266Y0028083D01*
X0069211Y0028092D01*
X0069156Y0028098D01*
X0069100Y0028100D01*
M02*
