G75*
%MOIN*%
%OFA0B0*%
%FSLAX25Y25*%
%IPPOS*%
%LPD*%
%AMOC8*
5,1,8,0,0,1.08239X$1,22.5*
%
%ADD10R,0.05906X0.07874*%
%ADD11C,0.06000*%
%ADD12R,0.03937X0.04331*%
%ADD13OC8,0.06000*%
%ADD14R,0.04252X0.04134*%
%ADD15C,0.03175*%
%ADD16C,0.02400*%
%ADD17C,0.04000*%
%ADD18C,0.05000*%
%ADD19C,0.01600*%
D10*
X0132094Y0323250D03*
X0143906Y0323250D03*
D11*
X0042000Y0314250D02*
X0042000Y0308250D01*
X0052000Y0308250D02*
X0052000Y0314250D01*
D12*
X0040346Y0366250D03*
X0033654Y0366250D03*
X0033654Y0376250D03*
X0040346Y0376250D03*
X0040346Y0386250D03*
X0033654Y0386250D03*
X0033654Y0396250D03*
X0040346Y0396250D03*
X0040346Y0406250D03*
X0033654Y0406250D03*
D13*
X0024500Y0396250D03*
X0024500Y0386250D03*
X0024500Y0376250D03*
X0024500Y0366250D03*
X0024500Y0356250D03*
X0024500Y0346250D03*
X0014500Y0346250D03*
X0014500Y0356250D03*
X0014500Y0366250D03*
X0014500Y0376250D03*
X0014500Y0386250D03*
X0014500Y0396250D03*
X0014500Y0406250D03*
D14*
X0035500Y0353195D03*
X0035500Y0346305D03*
D15*
X0040000Y0353250D03*
X0044500Y0352750D03*
X0044500Y0359750D03*
X0038500Y0359750D03*
X0032000Y0359750D03*
X0049500Y0371250D03*
X0054500Y0377750D03*
X0049500Y0381250D03*
X0054500Y0386250D03*
X0049500Y0391250D03*
X0047000Y0398750D03*
X0047000Y0413750D03*
X0102000Y0418750D03*
X0112000Y0418750D03*
X0122000Y0418750D03*
X0132000Y0418750D03*
X0142000Y0418750D03*
X0142000Y0349250D03*
X0152000Y0349250D03*
X0152000Y0334250D03*
X0149500Y0326750D03*
X0149500Y0323250D03*
X0149500Y0319750D03*
X0152000Y0307250D03*
X0139500Y0307250D03*
X0132000Y0330750D03*
X0132000Y0333750D03*
X0122000Y0333750D03*
X0112000Y0333750D03*
X0102000Y0333750D03*
D16*
X0137000Y0337377D02*
X0137000Y0351250D01*
X0139500Y0353750D01*
X0155821Y0353750D01*
X0155821Y0304850D01*
X0138400Y0304850D01*
X0137000Y0306250D01*
X0137000Y0312623D01*
X0137171Y0312795D01*
X0138100Y0315037D01*
X0138100Y0317276D01*
X0138647Y0318597D01*
X0138647Y0327903D01*
X0138100Y0329224D01*
X0138100Y0334963D01*
X0137171Y0337205D01*
X0137000Y0337377D01*
X0137483Y0336453D02*
X0155821Y0336453D01*
X0155821Y0338851D02*
X0137000Y0338851D01*
X0137000Y0341250D02*
X0155821Y0341250D01*
X0155821Y0343649D02*
X0137000Y0343649D01*
X0137000Y0346047D02*
X0155821Y0346047D01*
X0155821Y0348446D02*
X0137000Y0348446D01*
X0137000Y0350844D02*
X0155821Y0350844D01*
X0155821Y0353243D02*
X0138993Y0353243D01*
X0138100Y0334054D02*
X0155821Y0334054D01*
X0155821Y0331656D02*
X0138100Y0331656D01*
X0138100Y0329257D02*
X0140180Y0329257D01*
X0140104Y0329237D02*
X0139602Y0328947D01*
X0139192Y0328538D01*
X0138903Y0328036D01*
X0138753Y0327477D01*
X0138753Y0323526D01*
X0143629Y0323526D01*
X0143629Y0322974D01*
X0138753Y0322974D01*
X0138753Y0319023D01*
X0138903Y0318464D01*
X0139192Y0317962D01*
X0139602Y0317553D01*
X0140104Y0317263D01*
X0140663Y0317113D01*
X0143629Y0317113D01*
X0143629Y0322974D01*
X0144182Y0322974D01*
X0144182Y0323526D01*
X0149058Y0323526D01*
X0149058Y0327477D01*
X0148908Y0328036D01*
X0148619Y0328538D01*
X0148209Y0328947D01*
X0147707Y0329237D01*
X0147148Y0329387D01*
X0144182Y0329387D01*
X0144182Y0323526D01*
X0143629Y0323526D01*
X0143629Y0329387D01*
X0140663Y0329387D01*
X0140104Y0329237D01*
X0138753Y0326859D02*
X0138647Y0326859D01*
X0138647Y0324460D02*
X0138753Y0324460D01*
X0138753Y0322062D02*
X0138647Y0322062D01*
X0138647Y0319663D02*
X0138753Y0319663D01*
X0138100Y0317265D02*
X0140100Y0317265D01*
X0138029Y0314866D02*
X0155821Y0314866D01*
X0155821Y0312468D02*
X0137000Y0312468D01*
X0137000Y0310069D02*
X0155821Y0310069D01*
X0155821Y0307671D02*
X0137000Y0307671D01*
X0137978Y0305272D02*
X0155821Y0305272D01*
X0155821Y0317265D02*
X0147711Y0317265D01*
X0147707Y0317263D02*
X0148209Y0317553D01*
X0148619Y0317962D01*
X0148908Y0318464D01*
X0149058Y0319023D01*
X0149058Y0322974D01*
X0144182Y0322974D01*
X0144182Y0317113D01*
X0147148Y0317113D01*
X0147707Y0317263D01*
X0149058Y0319663D02*
X0155821Y0319663D01*
X0155821Y0322062D02*
X0149058Y0322062D01*
X0149058Y0324460D02*
X0155821Y0324460D01*
X0155821Y0326859D02*
X0149058Y0326859D01*
X0147631Y0329257D02*
X0155821Y0329257D01*
X0144182Y0329257D02*
X0143629Y0329257D01*
X0143629Y0326859D02*
X0144182Y0326859D01*
X0144182Y0324460D02*
X0143629Y0324460D01*
X0143629Y0322062D02*
X0144182Y0322062D01*
X0144182Y0319663D02*
X0143629Y0319663D01*
X0143629Y0317265D02*
X0144182Y0317265D01*
X0047000Y0351250D02*
X0043460Y0347710D01*
X0041747Y0349422D01*
X0040172Y0350997D01*
X0040035Y0351054D01*
X0039826Y0351263D01*
X0039826Y0353195D01*
X0039826Y0355551D01*
X0039676Y0356111D01*
X0039386Y0356613D01*
X0038977Y0357022D01*
X0038475Y0357312D01*
X0037916Y0357462D01*
X0035500Y0357462D01*
X0035500Y0353195D01*
X0035500Y0353195D01*
X0035500Y0357462D01*
X0033084Y0357462D01*
X0032525Y0357312D01*
X0032023Y0357022D01*
X0031614Y0356613D01*
X0031324Y0356111D01*
X0031174Y0355551D01*
X0031174Y0353195D01*
X0035500Y0353195D01*
X0033945Y0353195D01*
X0032000Y0351250D01*
X0019500Y0351250D01*
X0019500Y0358750D01*
X0022000Y0361250D01*
X0032000Y0361250D01*
X0030969Y0360485D02*
X0036338Y0360485D01*
X0037000Y0360759D01*
X0037662Y0360485D01*
X0043031Y0360485D01*
X0044354Y0361033D01*
X0044571Y0361250D01*
X0047000Y0361250D01*
X0047000Y0351250D01*
X0046594Y0350844D02*
X0040326Y0350844D01*
X0039826Y0353195D02*
X0035500Y0353195D01*
X0039826Y0353195D01*
X0039826Y0353243D02*
X0047000Y0353243D01*
X0047000Y0355641D02*
X0039802Y0355641D01*
X0035500Y0355641D02*
X0035500Y0355641D01*
X0035500Y0353243D02*
X0035500Y0353243D01*
X0035500Y0353195D02*
X0035500Y0353195D01*
X0035500Y0353195D01*
X0031174Y0353195D01*
X0031174Y0351850D01*
X0029434Y0351850D01*
X0031100Y0353516D01*
X0031100Y0358984D01*
X0028834Y0361250D01*
X0029429Y0361250D01*
X0029646Y0361033D01*
X0030969Y0360485D01*
X0029646Y0360438D02*
X0047000Y0360438D01*
X0047000Y0358040D02*
X0031100Y0358040D01*
X0031100Y0355641D02*
X0031198Y0355641D01*
X0031174Y0353243D02*
X0030826Y0353243D01*
X0032055Y0346305D02*
X0032000Y0346250D01*
X0032055Y0346305D02*
X0035500Y0346305D01*
X0042724Y0348446D02*
X0044196Y0348446D01*
X0028834Y0361250D02*
X0028834Y0361250D01*
X0019500Y0351250D02*
X0014500Y0346250D01*
D17*
X0024500Y0346250D02*
X0032000Y0346250D01*
X0037000Y0346250D01*
X0042000Y0341250D01*
X0042000Y0311250D01*
X0132000Y0321250D02*
X0132094Y0321344D01*
X0132094Y0323250D01*
D18*
X0132000Y0321250D02*
X0132000Y0316250D01*
X0127000Y0311250D01*
X0052000Y0311250D01*
X0132000Y0321250D02*
X0132000Y0333750D01*
D19*
X0122000Y0333750D02*
X0119500Y0333750D01*
X0084500Y0368750D01*
X0072000Y0368750D01*
X0066500Y0374250D01*
X0051500Y0374250D01*
X0049500Y0376250D01*
X0040346Y0376250D01*
X0033654Y0376250D02*
X0024500Y0376250D01*
X0024500Y0386250D02*
X0033654Y0386250D01*
X0040346Y0386250D02*
X0054500Y0386250D01*
X0049500Y0391250D02*
X0074500Y0391250D01*
X0102000Y0418750D01*
X0112000Y0418750D02*
X0112000Y0413750D01*
X0079500Y0381250D01*
X0049500Y0381250D01*
X0054500Y0377750D02*
X0088500Y0377750D01*
X0129500Y0418750D01*
X0132000Y0418750D01*
X0142000Y0418750D02*
X0142000Y0421250D01*
X0134500Y0428750D01*
X0062000Y0428750D01*
X0047000Y0413750D01*
X0047000Y0406250D02*
X0040346Y0406250D01*
X0047000Y0406250D02*
X0064500Y0423750D01*
X0119500Y0423750D01*
X0122000Y0421250D01*
X0122000Y0418750D01*
X0064500Y0371250D02*
X0102000Y0333750D01*
X0102000Y0326250D02*
X0062000Y0366250D01*
X0040346Y0366250D01*
X0033654Y0366250D02*
X0024500Y0366250D01*
X0024500Y0396250D02*
X0033654Y0396250D01*
X0040346Y0396250D02*
X0044500Y0396250D01*
X0047000Y0398750D01*
X0033654Y0406250D02*
X0014500Y0406250D01*
X0049500Y0371250D02*
X0064500Y0371250D01*
X0102000Y0326250D02*
X0109500Y0326250D01*
X0112000Y0328750D01*
X0112000Y0333750D01*
M02*
