%
M48
M72
T01C0.01575
T02C0.04000
%
T01
X139500Y307250
X152000Y307250
X149500Y319750
X149500Y323250
X149500Y326750
X152000Y334250
X152000Y349250
X142000Y349250
X132000Y333750
X132000Y330750
X122000Y333750
X112000Y333750
X102000Y333750
X49500Y371250
X54500Y377750
X49500Y381250
X54500Y386250
X49500Y391250
X47000Y398750
X47000Y413750
X44500Y359750
X38500Y359750
X40000Y353250
X44500Y352750
X32000Y359750
X102000Y418750
X112000Y418750
X122000Y418750
X132000Y418750
X142000Y418750
T02
X52000Y311250
X42000Y311250
X24500Y346250
X24500Y356250
X24500Y366250
X24500Y376250
X24500Y386250
X24500Y396250
X14500Y396250
X14500Y386250
X14500Y376250
X14500Y366250
X14500Y356250
X14500Y346250
X14500Y406250
M30
