G75*
%MOIN*%
%OFA0B0*%
%FSLAX25Y25*%
%IPPOS*%
%LPD*%
%AMOC8*
5,1,8,0,0,1.08239X$1,22.5*
%
%ADD10C,0.00200*%
%ADD11C,0.00600*%
%ADD12C,0.00500*%
%ADD13C,0.00300*%
D10*
X0136521Y0328181D02*
X0137989Y0328181D01*
X0136521Y0329649D01*
X0136521Y0330016D01*
X0136888Y0330383D01*
X0137622Y0330383D01*
X0137989Y0330016D01*
X0138731Y0330016D02*
X0139098Y0330383D01*
X0139832Y0330383D01*
X0140199Y0330016D01*
X0140199Y0328548D01*
X0139832Y0328181D01*
X0139098Y0328181D01*
X0138731Y0328548D01*
X0042900Y0369850D02*
X0042900Y0372052D01*
X0041799Y0372052D01*
X0041432Y0371685D01*
X0041432Y0370951D01*
X0041799Y0370584D01*
X0042900Y0370584D01*
X0042166Y0370584D02*
X0041432Y0369850D01*
X0040690Y0370951D02*
X0039222Y0370951D01*
X0039589Y0372052D02*
X0040690Y0370951D01*
X0039589Y0369850D02*
X0039589Y0372052D01*
X0039589Y0379850D02*
X0039222Y0380217D01*
X0039222Y0381685D01*
X0039589Y0382052D01*
X0040323Y0382052D01*
X0040690Y0381685D01*
X0040690Y0381318D01*
X0040323Y0380951D01*
X0039222Y0380951D01*
X0039589Y0379850D02*
X0040323Y0379850D01*
X0040690Y0380217D01*
X0041432Y0379850D02*
X0042166Y0380584D01*
X0041799Y0380584D02*
X0042900Y0380584D01*
X0042900Y0379850D02*
X0042900Y0382052D01*
X0041799Y0382052D01*
X0041432Y0381685D01*
X0041432Y0380951D01*
X0041799Y0380584D01*
X0041432Y0389850D02*
X0042166Y0390584D01*
X0041799Y0390584D02*
X0042900Y0390584D01*
X0042900Y0389850D02*
X0042900Y0392052D01*
X0041799Y0392052D01*
X0041432Y0391685D01*
X0041432Y0390951D01*
X0041799Y0390584D01*
X0040690Y0390217D02*
X0040323Y0389850D01*
X0039589Y0389850D01*
X0039222Y0390217D01*
X0039222Y0390584D01*
X0039589Y0390951D01*
X0039956Y0390951D01*
X0039589Y0390951D02*
X0039222Y0391318D01*
X0039222Y0391685D01*
X0039589Y0392052D01*
X0040323Y0392052D01*
X0040690Y0391685D01*
X0040690Y0399850D02*
X0039222Y0399850D01*
X0039956Y0399850D02*
X0039956Y0402052D01*
X0040690Y0401318D01*
X0041432Y0401685D02*
X0041432Y0400951D01*
X0041799Y0400584D01*
X0042900Y0400584D01*
X0042166Y0400584D02*
X0041432Y0399850D01*
X0042900Y0399850D02*
X0042900Y0402052D01*
X0041799Y0402052D01*
X0041432Y0401685D01*
X0038480Y0401685D02*
X0038113Y0402052D01*
X0037379Y0402052D01*
X0037012Y0401685D01*
X0038480Y0400217D01*
X0038113Y0399850D01*
X0037379Y0399850D01*
X0037012Y0400217D01*
X0037012Y0401685D01*
X0038480Y0401685D02*
X0038480Y0400217D01*
X0039589Y0410350D02*
X0040323Y0410350D01*
X0040690Y0410717D01*
X0040690Y0411084D01*
X0040323Y0411451D01*
X0039589Y0411451D01*
X0039222Y0411084D01*
X0039222Y0410717D01*
X0039589Y0410350D01*
X0039589Y0411451D02*
X0039222Y0411818D01*
X0039222Y0412185D01*
X0039589Y0412552D01*
X0040323Y0412552D01*
X0040690Y0412185D01*
X0040690Y0411818D01*
X0040323Y0411451D01*
X0041432Y0411451D02*
X0041799Y0411084D01*
X0042900Y0411084D01*
X0042166Y0411084D02*
X0041432Y0410350D01*
X0041432Y0411451D02*
X0041432Y0412185D01*
X0041799Y0412552D01*
X0042900Y0412552D01*
X0042900Y0410350D01*
X0031100Y0354448D02*
X0031100Y0352980D01*
X0031100Y0353714D02*
X0033302Y0353714D01*
X0032568Y0352980D01*
X0033302Y0352238D02*
X0031100Y0352238D01*
X0033302Y0350770D01*
X0031100Y0350770D01*
X0031467Y0350028D02*
X0032935Y0350028D01*
X0033302Y0349661D01*
X0033302Y0348927D01*
X0032935Y0348560D01*
X0031467Y0348560D01*
X0031100Y0348927D01*
X0031100Y0349661D01*
X0031467Y0350028D01*
X0031467Y0347818D02*
X0031100Y0347451D01*
X0031100Y0346717D01*
X0031467Y0346350D01*
X0032935Y0346350D01*
X0033302Y0346717D01*
X0033302Y0347451D01*
X0032935Y0347818D01*
D11*
X0029500Y0348750D02*
X0029500Y0343750D01*
X0027000Y0341250D01*
X0012000Y0341250D01*
X0009500Y0343750D01*
X0009500Y0348750D01*
X0012000Y0351250D01*
X0009500Y0353750D01*
X0009500Y0358750D01*
X0012000Y0361250D01*
X0009500Y0363750D01*
X0009500Y0368750D01*
X0012000Y0371250D01*
X0009500Y0373750D01*
X0009500Y0378750D01*
X0012000Y0381250D01*
X0009500Y0383750D01*
X0009500Y0388750D01*
X0012000Y0391250D01*
X0009500Y0393750D01*
X0009500Y0398750D01*
X0012000Y0401250D01*
X0009500Y0403750D01*
X0009500Y0408750D01*
X0012000Y0411250D01*
X0027000Y0411250D01*
X0029500Y0408750D01*
X0029500Y0403750D01*
X0027000Y0401250D01*
X0029500Y0398750D01*
X0029500Y0393750D01*
X0027000Y0391250D01*
X0029500Y0388750D01*
X0029500Y0383750D01*
X0027000Y0381250D01*
X0029500Y0378750D01*
X0029500Y0373750D01*
X0027000Y0371250D01*
X0029500Y0368750D01*
X0029500Y0363750D01*
X0027000Y0361250D01*
X0029500Y0358750D01*
X0029500Y0353750D01*
X0027000Y0351250D01*
X0029500Y0348750D01*
D12*
X0007754Y0346001D02*
X0003250Y0346001D01*
X0003250Y0344500D02*
X0003250Y0347503D01*
X0006253Y0344500D02*
X0007754Y0346001D01*
X0031250Y0402000D02*
X0031250Y0405003D01*
X0031250Y0403501D02*
X0035754Y0403501D01*
X0034253Y0402000D01*
X0033502Y0406604D02*
X0033502Y0409606D01*
X0035754Y0408856D02*
X0033502Y0406604D01*
X0031250Y0408856D02*
X0035754Y0408856D01*
D13*
X0038826Y0352902D02*
X0038209Y0352285D01*
X0038209Y0351051D01*
X0038826Y0350434D01*
X0038826Y0349219D02*
X0038209Y0348602D01*
X0038209Y0347368D01*
X0038826Y0346750D01*
X0041295Y0346750D01*
X0041912Y0347368D01*
X0041912Y0348602D01*
X0041295Y0349219D01*
X0041295Y0350434D02*
X0041912Y0351051D01*
X0041912Y0352285D01*
X0041295Y0352902D01*
X0040678Y0352902D01*
X0040061Y0352285D01*
X0039443Y0352902D01*
X0038826Y0352902D01*
X0040061Y0352285D02*
X0040061Y0351668D01*
M02*
