G75*
%MOIN*%
%OFA0B0*%
%FSLAX25Y25*%
%IPPOS*%
%LPD*%
%AMOC8*
5,1,8,0,0,1.08239X$1,22.5*
%
%ADD10R,0.04934X0.05052*%
%ADD11C,0.06800*%
%ADD12R,0.03950X0.03950*%
%ADD13R,0.08800X0.08800*%
%ADD14R,0.04737X0.05131*%
%ADD15OC8,0.06800*%
%ADD16C,0.03975*%
D10*
X0136055Y0331750D03*
X0142945Y0331750D03*
D11*
X0042000Y0314250D02*
X0042000Y0308250D01*
X0052000Y0308250D02*
X0052000Y0314250D01*
D12*
X0049953Y0333750D03*
X0044047Y0333750D03*
D13*
X0102000Y0341250D03*
X0112000Y0341250D03*
X0122000Y0341250D03*
X0132000Y0341250D03*
X0142000Y0341250D03*
X0152000Y0341250D03*
X0152000Y0411250D03*
X0142000Y0411250D03*
X0132000Y0411250D03*
X0122000Y0411250D03*
X0112000Y0411250D03*
X0102000Y0411250D03*
D14*
X0040346Y0391250D03*
X0033654Y0391250D03*
X0033654Y0381250D03*
X0040346Y0381250D03*
X0040346Y0371250D03*
X0033654Y0371250D03*
X0036154Y0346250D03*
X0042846Y0346250D03*
X0043654Y0323750D03*
X0050346Y0323750D03*
D15*
X0024500Y0346250D03*
X0024500Y0356250D03*
X0024500Y0366250D03*
X0024500Y0376250D03*
X0024500Y0386250D03*
X0024500Y0396250D03*
X0014500Y0396250D03*
X0014500Y0386250D03*
X0014500Y0376250D03*
X0014500Y0366250D03*
X0014500Y0356250D03*
X0014500Y0346250D03*
X0014500Y0406250D03*
D16*
X0047000Y0398750D03*
X0049500Y0391250D03*
X0054500Y0386250D03*
X0049500Y0381250D03*
X0054500Y0377750D03*
X0049500Y0371250D03*
X0044500Y0359750D03*
X0038500Y0359750D03*
X0040000Y0353250D03*
X0044500Y0352750D03*
X0032000Y0359750D03*
X0047000Y0413750D03*
X0102000Y0418750D03*
X0112000Y0418750D03*
X0122000Y0418750D03*
X0132000Y0418750D03*
X0142000Y0418750D03*
X0142000Y0349250D03*
X0152000Y0349250D03*
X0152000Y0334250D03*
X0149500Y0326750D03*
X0149500Y0323250D03*
X0149500Y0319750D03*
X0152000Y0307250D03*
X0139500Y0307250D03*
X0132000Y0330750D03*
X0132000Y0333750D03*
X0122000Y0333750D03*
X0112000Y0333750D03*
X0102000Y0333750D03*
M02*
