G75*
%MOIN*%
%OFA0B0*%
%FSLAX25Y25*%
%IPPOS*%
%LPD*%
%AMOC8*
5,1,8,0,0,1.08239X$1,22.5*
%
%ADD10C,0.00300*%
%ADD11C,0.00200*%
%ADD12C,0.00500*%
%ADD13C,0.00394*%
%ADD14C,0.00118*%
D10*
X0078851Y0064450D02*
X0079551Y0065851D01*
X0080360Y0065851D02*
X0081060Y0066552D01*
X0081060Y0064450D01*
X0080360Y0064450D02*
X0081761Y0064450D01*
X0082570Y0064450D02*
X0082570Y0064800D01*
X0082920Y0064800D01*
X0082920Y0064450D01*
X0082570Y0064450D01*
X0083675Y0064800D02*
X0085076Y0066201D01*
X0085076Y0064800D01*
X0084726Y0064450D01*
X0084025Y0064450D01*
X0083675Y0064800D01*
X0083675Y0066201D01*
X0084025Y0066552D01*
X0084726Y0066552D01*
X0085076Y0066201D01*
X0078851Y0064450D02*
X0078150Y0065851D01*
D11*
X0059988Y0057735D02*
X0059988Y0056267D01*
X0059621Y0055900D01*
X0058887Y0055900D01*
X0058520Y0056267D01*
X0059988Y0057735D01*
X0059621Y0058102D01*
X0058887Y0058102D01*
X0058520Y0057735D01*
X0058520Y0056267D01*
X0057778Y0055900D02*
X0056310Y0055900D01*
X0057044Y0055900D02*
X0057044Y0058102D01*
X0056310Y0057368D01*
X0055568Y0057735D02*
X0055568Y0057001D01*
X0055201Y0056634D01*
X0054100Y0056634D01*
X0054834Y0056634D02*
X0055568Y0055900D01*
X0054100Y0055900D02*
X0054100Y0058102D01*
X0055201Y0058102D01*
X0055568Y0057735D01*
X0049628Y0065459D02*
X0048160Y0065459D01*
X0048894Y0065459D02*
X0048894Y0067661D01*
X0048160Y0066927D01*
X0047418Y0067294D02*
X0047051Y0067661D01*
X0046317Y0067661D01*
X0045950Y0067294D01*
X0045950Y0065826D01*
X0046317Y0065459D01*
X0047051Y0065459D01*
X0047418Y0065826D01*
X0063950Y0049794D02*
X0064317Y0050161D01*
X0065051Y0050161D01*
X0065418Y0049794D01*
X0066160Y0050161D02*
X0067628Y0050161D01*
X0067628Y0049794D01*
X0066160Y0048326D01*
X0066160Y0047959D01*
X0065418Y0048326D02*
X0065051Y0047959D01*
X0064317Y0047959D01*
X0063950Y0048326D01*
X0063950Y0049794D01*
X0057778Y0049235D02*
X0057778Y0047767D01*
X0057411Y0047400D01*
X0056677Y0047400D01*
X0056310Y0047767D01*
X0056677Y0048501D02*
X0057778Y0048501D01*
X0057778Y0049235D02*
X0057411Y0049602D01*
X0056677Y0049602D01*
X0056310Y0049235D01*
X0056310Y0048868D01*
X0056677Y0048501D01*
X0055568Y0048501D02*
X0055568Y0049235D01*
X0055201Y0049602D01*
X0054100Y0049602D01*
X0054100Y0047400D01*
X0054100Y0048134D02*
X0055201Y0048134D01*
X0055568Y0048501D01*
X0054834Y0048134D02*
X0055568Y0047400D01*
X0066194Y0039795D02*
X0066194Y0037960D01*
X0066561Y0037593D01*
X0067295Y0037593D01*
X0067662Y0037960D01*
X0067662Y0039795D01*
X0068404Y0039061D02*
X0069138Y0039795D01*
X0069138Y0037593D01*
X0068404Y0037593D02*
X0069872Y0037593D01*
X0077317Y0047959D02*
X0078051Y0047959D01*
X0078418Y0048326D01*
X0079160Y0048326D02*
X0079160Y0049060D01*
X0080261Y0049060D01*
X0080628Y0048693D01*
X0080628Y0048326D01*
X0080261Y0047959D01*
X0079527Y0047959D01*
X0079160Y0048326D01*
X0079160Y0049060D02*
X0079894Y0049794D01*
X0080628Y0050161D01*
X0078418Y0049794D02*
X0078051Y0050161D01*
X0077317Y0050161D01*
X0076950Y0049794D01*
X0076950Y0048326D01*
X0077317Y0047959D01*
D12*
X0031751Y0014550D02*
X0030250Y0014550D01*
X0031001Y0014550D02*
X0031001Y0019054D01*
X0031751Y0019054D02*
X0030250Y0019054D01*
X0033319Y0018303D02*
X0033319Y0015301D01*
X0034070Y0014550D01*
X0035571Y0014550D01*
X0036322Y0015301D01*
X0036322Y0018303D01*
X0035571Y0019054D01*
X0034070Y0019054D01*
X0033319Y0018303D01*
X0037923Y0018303D02*
X0038674Y0019054D01*
X0040175Y0019054D01*
X0040926Y0018303D01*
X0040926Y0017553D01*
X0040175Y0016802D01*
X0040926Y0016051D01*
X0040926Y0015301D01*
X0040175Y0014550D01*
X0038674Y0014550D01*
X0037923Y0015301D01*
X0039424Y0016802D02*
X0040175Y0016802D01*
X0037106Y0024550D02*
X0035605Y0024550D01*
X0034854Y0025301D01*
X0033253Y0025301D02*
X0033253Y0026051D01*
X0032502Y0026802D01*
X0031001Y0026802D01*
X0030250Y0027553D01*
X0030250Y0028303D01*
X0031001Y0029054D01*
X0032502Y0029054D01*
X0033253Y0028303D01*
X0034854Y0028303D02*
X0034854Y0027553D01*
X0035605Y0026802D01*
X0037106Y0026802D01*
X0037856Y0026051D01*
X0037856Y0025301D01*
X0037106Y0024550D01*
X0033253Y0025301D02*
X0032502Y0024550D01*
X0031001Y0024550D01*
X0030250Y0025301D01*
X0034854Y0028303D02*
X0035605Y0029054D01*
X0037106Y0029054D01*
X0037856Y0028303D01*
X0037923Y0034550D02*
X0040926Y0037553D01*
X0040926Y0038303D01*
X0040175Y0039054D01*
X0038674Y0039054D01*
X0037923Y0038303D01*
X0036322Y0038303D02*
X0035571Y0039054D01*
X0034070Y0039054D01*
X0033319Y0038303D01*
X0033319Y0035301D01*
X0034070Y0034550D01*
X0035571Y0034550D01*
X0036322Y0035301D01*
X0036322Y0038303D01*
X0031751Y0039054D02*
X0030250Y0039054D01*
X0031001Y0039054D02*
X0031001Y0034550D01*
X0031751Y0034550D02*
X0030250Y0034550D01*
X0037923Y0034550D02*
X0040926Y0034550D01*
X0040926Y0044550D02*
X0037923Y0044550D01*
X0039424Y0044550D02*
X0039424Y0049054D01*
X0037923Y0047553D01*
X0036322Y0048303D02*
X0035571Y0049054D01*
X0034070Y0049054D01*
X0033319Y0048303D01*
X0033319Y0045301D01*
X0034070Y0044550D01*
X0035571Y0044550D01*
X0036322Y0045301D01*
X0036322Y0048303D01*
X0031751Y0049054D02*
X0030250Y0049054D01*
X0031001Y0049054D02*
X0031001Y0044550D01*
X0031751Y0044550D02*
X0030250Y0044550D01*
X0031001Y0054550D02*
X0030250Y0055301D01*
X0031001Y0054550D02*
X0032502Y0054550D01*
X0033253Y0055301D01*
X0033253Y0056802D01*
X0032502Y0057553D01*
X0031751Y0057553D01*
X0030250Y0056802D01*
X0030250Y0059054D01*
X0033253Y0059054D01*
X0034854Y0059054D02*
X0034854Y0056051D01*
X0036355Y0054550D01*
X0037856Y0056051D01*
X0037856Y0059054D01*
X0037907Y0064550D02*
X0037156Y0065301D01*
X0037907Y0064550D02*
X0039408Y0064550D01*
X0040158Y0065301D01*
X0040158Y0066051D01*
X0039408Y0066802D01*
X0038657Y0066802D01*
X0039408Y0066802D02*
X0040158Y0067553D01*
X0040158Y0068303D01*
X0039408Y0069054D01*
X0037907Y0069054D01*
X0037156Y0068303D01*
X0035605Y0065301D02*
X0034854Y0065301D01*
X0034854Y0064550D01*
X0035605Y0064550D01*
X0035605Y0065301D01*
X0033253Y0065301D02*
X0032502Y0064550D01*
X0031001Y0064550D01*
X0030250Y0065301D01*
X0031751Y0066802D02*
X0032502Y0066802D01*
X0033253Y0066051D01*
X0033253Y0065301D01*
X0032502Y0066802D02*
X0033253Y0067553D01*
X0033253Y0068303D01*
X0032502Y0069054D01*
X0031001Y0069054D01*
X0030250Y0068303D01*
X0041760Y0069054D02*
X0041760Y0066051D01*
X0043261Y0064550D01*
X0044762Y0066051D01*
X0044762Y0069054D01*
D13*
X0070563Y0039737D02*
X0078437Y0039737D01*
X0078437Y0031863D01*
X0070563Y0031863D01*
X0070563Y0039737D01*
D14*
X0070858Y0032355D02*
X0070860Y0032382D01*
X0070866Y0032409D01*
X0070875Y0032435D01*
X0070888Y0032459D01*
X0070904Y0032482D01*
X0070923Y0032501D01*
X0070945Y0032518D01*
X0070969Y0032532D01*
X0070994Y0032542D01*
X0071021Y0032549D01*
X0071048Y0032552D01*
X0071076Y0032551D01*
X0071103Y0032546D01*
X0071129Y0032538D01*
X0071153Y0032526D01*
X0071176Y0032510D01*
X0071197Y0032492D01*
X0071214Y0032471D01*
X0071229Y0032447D01*
X0071240Y0032422D01*
X0071248Y0032396D01*
X0071252Y0032369D01*
X0071252Y0032341D01*
X0071248Y0032314D01*
X0071240Y0032288D01*
X0071229Y0032263D01*
X0071214Y0032239D01*
X0071197Y0032218D01*
X0071176Y0032200D01*
X0071154Y0032184D01*
X0071129Y0032172D01*
X0071103Y0032164D01*
X0071076Y0032159D01*
X0071048Y0032158D01*
X0071021Y0032161D01*
X0070994Y0032168D01*
X0070969Y0032178D01*
X0070945Y0032192D01*
X0070923Y0032209D01*
X0070904Y0032228D01*
X0070888Y0032251D01*
X0070875Y0032275D01*
X0070866Y0032301D01*
X0070860Y0032328D01*
X0070858Y0032355D01*
M02*
