G75*
%MOIN*%
%OFA0B0*%
%FSLAX25Y25*%
%IPPOS*%
%LPD*%
%AMOC8*
5,1,8,0,0,1.08239X$1,22.5*
%
%ADD10C,0.00500*%
%ADD11C,0.00800*%
%ADD12R,0.04134X0.04252*%
%ADD13R,0.15000X0.07600*%
%ADD14R,0.03937X0.04331*%
%ADD15R,0.00984X0.01378*%
%ADD16R,0.01378X0.00984*%
%ADD17C,0.03175*%
%ADD18C,0.01000*%
%ADD19C,0.03200*%
%ADD20C,0.04000*%
%ADD21C,0.02400*%
%ADD22C,0.01600*%
D10*
X0045750Y0007500D02*
X0046200Y0007050D01*
X0046651Y0007500D01*
X0047101Y0007050D01*
X0047552Y0007500D01*
X0047552Y0008852D01*
X0048697Y0008852D02*
X0048697Y0007500D01*
X0049147Y0007050D01*
X0049597Y0007500D01*
X0050048Y0007050D01*
X0050498Y0007500D01*
X0050498Y0008852D01*
X0051643Y0008852D02*
X0051643Y0007500D01*
X0052093Y0007050D01*
X0052544Y0007500D01*
X0052994Y0007050D01*
X0053445Y0007500D01*
X0053445Y0008852D01*
X0054590Y0007500D02*
X0055040Y0007500D01*
X0055040Y0007050D01*
X0054590Y0007050D01*
X0054590Y0007500D01*
X0056063Y0007050D02*
X0056063Y0008852D01*
X0056513Y0008852D01*
X0056964Y0008401D01*
X0057414Y0008852D01*
X0057864Y0008401D01*
X0057864Y0007050D01*
X0056964Y0007050D02*
X0056964Y0008401D01*
X0059009Y0008852D02*
X0059460Y0008852D01*
X0059460Y0007050D01*
X0059910Y0007050D02*
X0059009Y0007050D01*
X0060974Y0007500D02*
X0061424Y0007050D01*
X0062775Y0007050D01*
X0063920Y0007050D02*
X0063920Y0008852D01*
X0064821Y0008852D02*
X0065271Y0008852D01*
X0064821Y0008852D02*
X0063920Y0007951D01*
X0062775Y0008852D02*
X0061424Y0008852D01*
X0060974Y0008401D01*
X0060974Y0007500D01*
X0059460Y0009752D02*
X0059460Y0010203D01*
X0066376Y0008401D02*
X0066376Y0007500D01*
X0066826Y0007050D01*
X0067727Y0007050D01*
X0068177Y0007500D01*
X0068177Y0008401D01*
X0067727Y0008852D01*
X0066826Y0008852D01*
X0066376Y0008401D01*
X0069322Y0008401D02*
X0069773Y0008852D01*
X0070673Y0008852D01*
X0071124Y0008401D01*
X0071124Y0007050D01*
X0072269Y0007500D02*
X0072719Y0007951D01*
X0074070Y0007951D01*
X0074070Y0008401D02*
X0074070Y0007050D01*
X0072719Y0007050D01*
X0072269Y0007500D01*
X0072719Y0008852D02*
X0073620Y0008852D01*
X0074070Y0008401D01*
X0075215Y0007050D02*
X0076116Y0007050D01*
X0075666Y0007050D02*
X0075666Y0009752D01*
X0075215Y0009752D01*
X0077180Y0007500D02*
X0077630Y0007500D01*
X0077630Y0007050D01*
X0077180Y0007050D01*
X0077180Y0007500D01*
X0078653Y0007500D02*
X0079103Y0007050D01*
X0080004Y0007050D01*
X0080454Y0007500D01*
X0080454Y0008401D01*
X0080004Y0008852D01*
X0079103Y0008852D01*
X0078653Y0008401D01*
X0078653Y0007500D01*
X0081599Y0007050D02*
X0081599Y0008852D01*
X0082500Y0008852D02*
X0082950Y0008852D01*
X0082500Y0008852D02*
X0081599Y0007951D01*
X0084055Y0008401D02*
X0084055Y0007500D01*
X0084505Y0007050D01*
X0085856Y0007050D01*
X0085856Y0006600D02*
X0085406Y0006149D01*
X0084955Y0006149D01*
X0085856Y0006600D02*
X0085856Y0008852D01*
X0084505Y0008852D01*
X0084055Y0008401D01*
X0069322Y0009752D02*
X0069322Y0007050D01*
X0045750Y0007500D02*
X0045750Y0008852D01*
D11*
X0050900Y0017200D02*
X0053702Y0017200D01*
X0055504Y0017200D02*
X0056905Y0017200D01*
X0056205Y0017200D02*
X0056205Y0021404D01*
X0056905Y0021404D02*
X0055504Y0021404D01*
X0058573Y0020703D02*
X0058573Y0020002D01*
X0059274Y0019302D01*
X0060675Y0019302D01*
X0061376Y0018601D01*
X0061376Y0017901D01*
X0060675Y0017200D01*
X0059274Y0017200D01*
X0058573Y0017901D01*
X0058573Y0020703D02*
X0059274Y0021404D01*
X0060675Y0021404D01*
X0061376Y0020703D01*
X0063177Y0020703D02*
X0063878Y0021404D01*
X0065279Y0021404D01*
X0065980Y0020703D01*
X0065980Y0020002D01*
X0063177Y0017200D01*
X0065980Y0017200D01*
X0067781Y0017200D02*
X0069883Y0017200D01*
X0070583Y0017901D01*
X0070583Y0020703D01*
X0069883Y0021404D01*
X0067781Y0021404D01*
X0067781Y0017200D01*
X0072385Y0017200D02*
X0072385Y0021404D01*
X0072385Y0019302D02*
X0075187Y0019302D01*
X0076989Y0020002D02*
X0078390Y0021404D01*
X0078390Y0017200D01*
X0076989Y0017200D02*
X0079791Y0017200D01*
X0081593Y0017200D02*
X0084395Y0020002D01*
X0084395Y0020703D01*
X0083695Y0021404D01*
X0082293Y0021404D01*
X0081593Y0020703D01*
X0081593Y0017200D02*
X0084395Y0017200D01*
X0075187Y0017200D02*
X0075187Y0021404D01*
X0050900Y0021404D02*
X0050900Y0017200D01*
D12*
X0062555Y0044300D03*
X0069445Y0044300D03*
X0075555Y0044300D03*
X0082445Y0044300D03*
X0058945Y0066800D03*
X0052055Y0066800D03*
D13*
X0020500Y0016800D03*
X0020500Y0026800D03*
X0020500Y0036800D03*
X0020500Y0046800D03*
X0020500Y0056800D03*
X0020500Y0066800D03*
D14*
X0044654Y0056800D03*
X0051346Y0056800D03*
X0051346Y0046800D03*
X0044654Y0046800D03*
D15*
X0071547Y0038654D03*
X0073516Y0038654D03*
X0075484Y0038654D03*
X0077453Y0038654D03*
X0077453Y0032946D03*
X0075484Y0032946D03*
X0073516Y0032946D03*
X0071547Y0032946D03*
D16*
X0071646Y0034816D03*
X0071646Y0036784D03*
X0077354Y0036784D03*
X0077354Y0034816D03*
D17*
X0080500Y0035800D03*
X0080500Y0039300D03*
X0086500Y0044300D03*
X0063000Y0063300D03*
X0063000Y0066800D03*
X0058500Y0044300D03*
X0049500Y0039800D03*
X0045500Y0039800D03*
X0045500Y0031800D03*
X0049500Y0029800D03*
X0030500Y0033800D03*
X0030500Y0039800D03*
X0030500Y0046800D03*
X0030500Y0056800D03*
D18*
X0020500Y0046800D02*
X0023000Y0044300D01*
X0028000Y0044300D01*
X0030500Y0041800D01*
X0030500Y0039800D01*
X0031516Y0034816D02*
X0030500Y0033800D01*
X0031516Y0034816D02*
X0071646Y0034816D01*
X0073516Y0035300D02*
X0074500Y0035300D01*
X0075500Y0034300D01*
X0075484Y0034284D01*
X0075484Y0032946D01*
X0073516Y0032946D02*
X0073516Y0035300D01*
X0073516Y0038654D01*
X0073516Y0042261D01*
X0075555Y0044300D01*
X0071547Y0042198D02*
X0069445Y0044300D01*
X0071547Y0042198D02*
X0071547Y0038654D01*
X0071646Y0036784D02*
X0020500Y0036784D01*
X0020500Y0036800D01*
X0044654Y0046800D02*
X0045500Y0045954D01*
X0045500Y0039800D01*
X0049500Y0039800D02*
X0049500Y0041800D01*
X0048000Y0043300D01*
X0048000Y0053454D01*
X0044654Y0056800D01*
X0046646Y0032946D02*
X0045500Y0031800D01*
X0046646Y0032946D02*
X0071547Y0032946D01*
X0075598Y0036748D02*
X0082000Y0036748D01*
X0082000Y0035800D02*
X0080500Y0034300D01*
X0079118Y0034300D01*
X0078483Y0034935D01*
X0077300Y0034935D01*
X0077300Y0035046D01*
X0076300Y0036046D01*
X0075316Y0037030D01*
X0075316Y0040800D01*
X0080500Y0040800D01*
X0082000Y0039300D01*
X0082000Y0035800D01*
X0081949Y0035749D02*
X0076596Y0035749D01*
X0078667Y0034751D02*
X0080951Y0034751D01*
X0082000Y0037746D02*
X0075316Y0037746D01*
X0075316Y0038745D02*
X0082000Y0038745D01*
X0081557Y0039743D02*
X0075316Y0039743D01*
X0075316Y0040742D02*
X0080558Y0040742D01*
X0077453Y0032946D02*
X0077453Y0030253D01*
X0077000Y0029800D01*
X0049500Y0029800D01*
D19*
X0058500Y0044300D02*
X0062555Y0044300D01*
X0082445Y0044300D02*
X0086500Y0044300D01*
X0063000Y0063300D02*
X0060000Y0063300D01*
X0060000Y0066300D01*
X0059000Y0066800D02*
X0063000Y0066800D01*
X0063000Y0063300D01*
X0059500Y0063300D01*
X0059000Y0063800D01*
X0059000Y0066800D01*
X0058945Y0066800D01*
D20*
X0052055Y0066800D02*
X0020500Y0066800D01*
D21*
X0051346Y0056800D02*
X0051346Y0046800D01*
X0051346Y0056800D02*
X0069500Y0056800D01*
X0073000Y0056800D01*
X0075555Y0054245D01*
X0075555Y0044300D01*
X0069445Y0044300D02*
X0069445Y0055355D01*
X0069500Y0056800D01*
X0052055Y0057509D02*
X0052055Y0066800D01*
X0052055Y0057509D02*
X0051346Y0056800D01*
D22*
X0044654Y0056800D02*
X0030500Y0056800D01*
X0030500Y0046800D02*
X0044654Y0046800D01*
M02*
