G75*
%MOIN*%
%OFA0B0*%
%FSLAX25Y25*%
%IPPOS*%
%LPD*%
%AMOC8*
5,1,8,0,0,1.08239X$1,22.5*
%
%ADD10R,0.15000X0.07600*%
%ADD11C,0.01600*%
%ADD12C,0.06600*%
%ADD13C,0.03175*%
%ADD14C,0.02400*%
D10*
X0020500Y0013816D03*
X0020500Y0023816D03*
X0020500Y0033816D03*
X0020500Y0043816D03*
X0020500Y0053816D03*
X0020500Y0063816D03*
X0020500Y0073816D03*
D11*
X0021300Y0074355D02*
X0087300Y0074355D01*
X0087300Y0075616D02*
X0029800Y0075616D01*
X0029800Y0074616D01*
X0021300Y0074616D01*
X0021300Y0073016D01*
X0029800Y0073016D01*
X0029800Y0070334D01*
X0029813Y0070329D01*
X0030713Y0069428D01*
X0031055Y0068603D01*
X0031452Y0068603D01*
X0033212Y0067874D01*
X0034559Y0066528D01*
X0035287Y0064768D01*
X0035287Y0062864D01*
X0034559Y0061104D01*
X0033212Y0059757D01*
X0031452Y0059028D01*
X0031055Y0059028D01*
X0030967Y0058816D01*
X0031200Y0058252D01*
X0031200Y0057816D01*
X0032730Y0057816D01*
X0032788Y0057874D01*
X0034548Y0058603D01*
X0036452Y0058603D01*
X0038212Y0057874D01*
X0039559Y0056528D01*
X0040287Y0054768D01*
X0040287Y0052864D01*
X0039559Y0051104D01*
X0038212Y0049757D01*
X0036452Y0049028D01*
X0034548Y0049028D01*
X0032788Y0049757D01*
X0032730Y0049816D01*
X0031200Y0049816D01*
X0031200Y0049379D01*
X0030967Y0048816D01*
X0031200Y0048252D01*
X0031200Y0039379D01*
X0030967Y0038816D01*
X0031200Y0038252D01*
X0031200Y0029379D01*
X0030967Y0028816D01*
X0031200Y0028252D01*
X0031200Y0019379D01*
X0030967Y0018816D01*
X0031200Y0018252D01*
X0031200Y0012016D01*
X0087300Y0012016D01*
X0087300Y0075616D01*
X0087300Y0072756D02*
X0029800Y0072756D01*
X0029800Y0071158D02*
X0087300Y0071158D01*
X0087300Y0069559D02*
X0030582Y0069559D01*
X0033003Y0067961D02*
X0087300Y0067961D01*
X0087300Y0066362D02*
X0034627Y0066362D01*
X0035287Y0064764D02*
X0087300Y0064764D01*
X0087300Y0063165D02*
X0035287Y0063165D01*
X0034750Y0061567D02*
X0087300Y0061567D01*
X0087300Y0059968D02*
X0060485Y0059968D01*
X0060712Y0059874D02*
X0058952Y0060603D01*
X0057048Y0060603D01*
X0055288Y0059874D01*
X0053941Y0058528D01*
X0053213Y0056768D01*
X0053213Y0054864D01*
X0053600Y0053928D01*
X0053600Y0043703D01*
X0053213Y0042768D01*
X0053213Y0040864D01*
X0053941Y0039104D01*
X0055288Y0037757D01*
X0057048Y0037028D01*
X0058952Y0037028D01*
X0060712Y0037757D01*
X0062059Y0039104D01*
X0062787Y0040864D01*
X0062787Y0042768D01*
X0062400Y0043703D01*
X0062400Y0053928D01*
X0062787Y0054864D01*
X0062787Y0056768D01*
X0062059Y0058528D01*
X0060712Y0059874D01*
X0062124Y0058370D02*
X0087300Y0058370D01*
X0087300Y0056771D02*
X0062786Y0056771D01*
X0062787Y0055173D02*
X0087300Y0055173D01*
X0087300Y0053574D02*
X0062400Y0053574D01*
X0062400Y0051976D02*
X0087300Y0051976D01*
X0087300Y0050377D02*
X0062400Y0050377D01*
X0062400Y0048779D02*
X0087300Y0048779D01*
X0087300Y0047180D02*
X0062400Y0047180D01*
X0062400Y0045582D02*
X0087300Y0045582D01*
X0087300Y0043983D02*
X0062400Y0043983D01*
X0062787Y0042385D02*
X0087300Y0042385D01*
X0087300Y0040786D02*
X0062755Y0040786D01*
X0062093Y0039188D02*
X0087300Y0039188D01*
X0087300Y0037589D02*
X0060306Y0037589D01*
X0055694Y0037589D02*
X0031200Y0037589D01*
X0031200Y0035991D02*
X0087300Y0035991D01*
X0087300Y0034392D02*
X0031200Y0034392D01*
X0031200Y0032793D02*
X0087300Y0032793D01*
X0087300Y0031195D02*
X0031200Y0031195D01*
X0031200Y0029596D02*
X0087300Y0029596D01*
X0087300Y0027998D02*
X0031200Y0027998D01*
X0031200Y0026399D02*
X0087300Y0026399D01*
X0087300Y0024801D02*
X0031200Y0024801D01*
X0031200Y0023202D02*
X0087300Y0023202D01*
X0087300Y0021604D02*
X0031200Y0021604D01*
X0031200Y0020005D02*
X0087300Y0020005D01*
X0087300Y0018407D02*
X0031136Y0018407D01*
X0031200Y0016808D02*
X0087300Y0016808D01*
X0087300Y0015210D02*
X0031200Y0015210D01*
X0031200Y0013611D02*
X0087300Y0013611D01*
X0053907Y0039188D02*
X0031121Y0039188D01*
X0031200Y0040786D02*
X0053245Y0040786D01*
X0053213Y0042385D02*
X0031200Y0042385D01*
X0031200Y0043983D02*
X0053600Y0043983D01*
X0053600Y0045582D02*
X0031200Y0045582D01*
X0031200Y0047180D02*
X0053600Y0047180D01*
X0053600Y0048779D02*
X0030982Y0048779D01*
X0035500Y0053816D02*
X0020500Y0053816D01*
X0031151Y0058370D02*
X0033984Y0058370D01*
X0033423Y0059968D02*
X0055515Y0059968D01*
X0053876Y0058370D02*
X0037016Y0058370D01*
X0039315Y0056771D02*
X0053214Y0056771D01*
X0053213Y0055173D02*
X0040120Y0055173D01*
X0040287Y0053574D02*
X0053600Y0053574D01*
X0053600Y0051976D02*
X0039920Y0051976D01*
X0038832Y0050377D02*
X0053600Y0050377D01*
X0030500Y0063816D02*
X0020500Y0063816D01*
D12*
X0020500Y0073816D02*
X0030500Y0073816D01*
D13*
X0030500Y0063816D03*
X0035500Y0053816D03*
X0058000Y0055816D03*
X0065500Y0045316D03*
X0065500Y0042316D03*
X0058000Y0041816D03*
X0074500Y0020816D03*
X0082500Y0020816D03*
X0064000Y0072316D03*
X0064000Y0075316D03*
D14*
X0058000Y0055816D02*
X0058000Y0041816D01*
M02*
