G75*
%MOIN*%
%OFA0B0*%
%FSLAX25Y25*%
%IPPOS*%
%LPD*%
%AMOC8*
5,1,8,0,0,1.08239X$1,22.5*
%
%ADD10C,0.00500*%
D10*
X0031351Y0013818D02*
X0034354Y0013818D01*
X0032102Y0016070D01*
X0032102Y0011566D01*
X0035955Y0012316D02*
X0035955Y0015319D01*
X0036706Y0016070D01*
X0038207Y0016070D01*
X0038958Y0015319D01*
X0038958Y0012316D01*
X0038207Y0011566D01*
X0036706Y0011566D01*
X0035955Y0012316D01*
X0040526Y0011566D02*
X0042027Y0011566D01*
X0041277Y0011566D02*
X0041277Y0016070D01*
X0042027Y0016070D02*
X0040526Y0016070D01*
X0041310Y0021566D02*
X0042811Y0021566D01*
X0043562Y0022316D01*
X0042811Y0023818D02*
X0041310Y0023818D01*
X0040559Y0023067D01*
X0040559Y0022316D01*
X0041310Y0021566D01*
X0038958Y0022316D02*
X0038207Y0021566D01*
X0036706Y0021566D01*
X0035955Y0022316D01*
X0034354Y0021566D02*
X0034354Y0026070D01*
X0035955Y0025319D02*
X0036706Y0026070D01*
X0038207Y0026070D01*
X0038958Y0025319D01*
X0038958Y0022316D01*
X0040559Y0025319D02*
X0041310Y0026070D01*
X0042811Y0026070D01*
X0043562Y0025319D01*
X0043562Y0024568D01*
X0042811Y0023818D01*
X0034354Y0023067D02*
X0031351Y0026070D01*
X0033603Y0023818D02*
X0031351Y0021566D01*
X0031318Y0031566D02*
X0032819Y0031566D01*
X0032069Y0031566D02*
X0032069Y0036070D01*
X0032819Y0036070D02*
X0031318Y0036070D01*
X0034421Y0035319D02*
X0035171Y0036070D01*
X0036673Y0036070D01*
X0037423Y0035319D01*
X0037423Y0034568D01*
X0036673Y0033818D01*
X0035171Y0033818D01*
X0034421Y0033067D01*
X0034421Y0032316D01*
X0035171Y0031566D01*
X0036673Y0031566D01*
X0037423Y0032316D01*
X0039025Y0032316D02*
X0039025Y0035319D01*
X0039775Y0036070D01*
X0041277Y0036070D01*
X0042027Y0035319D01*
X0042027Y0032316D01*
X0041277Y0031566D01*
X0039775Y0031566D01*
X0039025Y0032316D01*
X0043629Y0031566D02*
X0043629Y0036070D01*
X0045130Y0034568D01*
X0046631Y0036070D01*
X0046631Y0031566D01*
X0046631Y0041566D02*
X0046631Y0046070D01*
X0045130Y0044568D01*
X0043629Y0046070D01*
X0043629Y0041566D01*
X0042027Y0041566D02*
X0040526Y0041566D01*
X0041277Y0041566D02*
X0041277Y0046070D01*
X0042027Y0046070D02*
X0040526Y0046070D01*
X0038958Y0045319D02*
X0038958Y0044568D01*
X0038207Y0043818D01*
X0036706Y0043818D01*
X0035955Y0043067D01*
X0035955Y0042316D01*
X0036706Y0041566D01*
X0038207Y0041566D01*
X0038958Y0042316D01*
X0038958Y0045319D02*
X0038207Y0046070D01*
X0036706Y0046070D01*
X0035955Y0045319D01*
X0034354Y0045319D02*
X0034354Y0042316D01*
X0033603Y0041566D01*
X0032102Y0041566D01*
X0031351Y0042316D01*
X0031351Y0045319D01*
X0032102Y0046070D01*
X0033603Y0046070D01*
X0034354Y0045319D01*
X0034354Y0051566D02*
X0031351Y0051566D01*
X0034354Y0051566D02*
X0034354Y0056070D01*
X0035955Y0055319D02*
X0036706Y0056070D01*
X0038207Y0056070D01*
X0038958Y0055319D01*
X0038958Y0052316D01*
X0038207Y0051566D01*
X0036706Y0051566D01*
X0035955Y0052316D01*
X0040559Y0052316D02*
X0041310Y0051566D01*
X0042811Y0051566D01*
X0043562Y0052316D01*
X0042811Y0053818D02*
X0041310Y0053818D01*
X0040559Y0053067D01*
X0040559Y0052316D01*
X0042811Y0053818D02*
X0043562Y0054568D01*
X0043562Y0055319D01*
X0042811Y0056070D01*
X0041310Y0056070D01*
X0040559Y0055319D01*
X0041310Y0061566D02*
X0042811Y0061566D01*
X0043562Y0062316D01*
X0042811Y0063818D02*
X0041310Y0063818D01*
X0040559Y0063067D01*
X0040559Y0062316D01*
X0041310Y0061566D01*
X0038958Y0061566D02*
X0036706Y0061566D01*
X0035955Y0062316D01*
X0035955Y0065319D01*
X0036706Y0066070D01*
X0038958Y0066070D01*
X0038958Y0061566D01*
X0042811Y0063818D02*
X0043562Y0064568D01*
X0043562Y0065319D01*
X0042811Y0066070D01*
X0041310Y0066070D01*
X0040559Y0065319D01*
X0034354Y0064568D02*
X0034354Y0061566D01*
X0034354Y0063818D02*
X0031351Y0063818D01*
X0031351Y0064568D02*
X0031351Y0061566D01*
X0031351Y0064568D02*
X0032853Y0066070D01*
X0034354Y0064568D01*
X0034354Y0071566D02*
X0032102Y0071566D01*
X0031351Y0072316D01*
X0031351Y0075319D01*
X0032102Y0076070D01*
X0034354Y0076070D01*
X0034354Y0071566D01*
X0035955Y0071566D02*
X0035955Y0076070D01*
X0038958Y0076070D02*
X0035955Y0071566D01*
X0038958Y0071566D02*
X0038958Y0076070D01*
X0040559Y0075319D02*
X0041310Y0076070D01*
X0042811Y0076070D01*
X0043562Y0075319D01*
X0043562Y0072316D01*
X0042811Y0071566D01*
X0041310Y0071566D01*
X0040559Y0072316D01*
X0040559Y0073818D01*
X0042061Y0073818D01*
M02*
