G75*
%MOIN*%
%OFA0B0*%
%FSLAX25Y25*%
%IPPOS*%
%LPD*%
%AMOC8*
5,1,8,0,0,1.08239X$1,22.5*
%
%ADD10C,0.00600*%
%ADD11C,0.00800*%
%ADD12R,0.05052X0.04934*%
%ADD13R,0.05918X0.07099*%
%ADD14R,0.15800X0.08400*%
%ADD15R,0.03556X0.03162*%
%ADD16R,0.03162X0.03556*%
%ADD17R,0.04737X0.05131*%
D10*
X0036800Y0013683D02*
X0037367Y0013116D01*
X0037934Y0013683D01*
X0038501Y0013116D01*
X0039069Y0013683D01*
X0039069Y0015384D01*
X0040483Y0015384D02*
X0040483Y0013683D01*
X0041050Y0013116D01*
X0041617Y0013683D01*
X0042185Y0013116D01*
X0042752Y0013683D01*
X0042752Y0015384D01*
X0044166Y0015384D02*
X0044166Y0013683D01*
X0044733Y0013116D01*
X0045301Y0013683D01*
X0045868Y0013116D01*
X0046435Y0013683D01*
X0046435Y0015384D01*
X0047849Y0013683D02*
X0048417Y0013683D01*
X0048417Y0013116D01*
X0047849Y0013116D01*
X0047849Y0013683D01*
X0049691Y0013116D02*
X0049691Y0015384D01*
X0050258Y0015384D01*
X0050825Y0014817D01*
X0051392Y0015384D01*
X0051960Y0014817D01*
X0051960Y0013116D01*
X0050825Y0013116D02*
X0050825Y0014817D01*
X0053374Y0015384D02*
X0053941Y0015384D01*
X0053941Y0013116D01*
X0053374Y0013116D02*
X0054508Y0013116D01*
X0055830Y0013683D02*
X0056397Y0013116D01*
X0058098Y0013116D01*
X0059513Y0013116D02*
X0059513Y0015384D01*
X0059513Y0014250D02*
X0060647Y0015384D01*
X0061214Y0015384D01*
X0062582Y0014817D02*
X0062582Y0013683D01*
X0063149Y0013116D01*
X0064283Y0013116D01*
X0064851Y0013683D01*
X0064851Y0014817D01*
X0064283Y0015384D01*
X0063149Y0015384D01*
X0062582Y0014817D01*
X0066265Y0014817D02*
X0066832Y0015384D01*
X0067967Y0015384D01*
X0068534Y0014817D01*
X0068534Y0013116D01*
X0069948Y0013683D02*
X0070515Y0014250D01*
X0072217Y0014250D01*
X0072217Y0014817D02*
X0072217Y0013116D01*
X0070515Y0013116D01*
X0069948Y0013683D01*
X0070515Y0015384D02*
X0071650Y0015384D01*
X0072217Y0014817D01*
X0073631Y0013116D02*
X0074766Y0013116D01*
X0074199Y0013116D02*
X0074199Y0016519D01*
X0073631Y0016519D01*
X0076087Y0013683D02*
X0076654Y0013683D01*
X0076654Y0013116D01*
X0076087Y0013116D01*
X0076087Y0013683D01*
X0077928Y0013683D02*
X0077928Y0014817D01*
X0078496Y0015384D01*
X0079630Y0015384D01*
X0080197Y0014817D01*
X0080197Y0013683D01*
X0079630Y0013116D01*
X0078496Y0013116D01*
X0077928Y0013683D01*
X0081612Y0014250D02*
X0082746Y0015384D01*
X0083313Y0015384D01*
X0084681Y0014817D02*
X0084681Y0013683D01*
X0085248Y0013116D01*
X0086949Y0013116D01*
X0086949Y0012549D02*
X0086949Y0015384D01*
X0085248Y0015384D01*
X0084681Y0014817D01*
X0081612Y0015384D02*
X0081612Y0013116D01*
X0085815Y0011982D02*
X0086382Y0011982D01*
X0086949Y0012549D01*
X0066265Y0013116D02*
X0066265Y0016519D01*
X0058098Y0015384D02*
X0056397Y0015384D01*
X0055830Y0014817D01*
X0055830Y0013683D01*
X0053941Y0016519D02*
X0053941Y0017086D01*
X0036800Y0015384D02*
X0036800Y0013683D01*
D11*
X0042900Y0020216D02*
X0045002Y0020216D01*
X0045702Y0020916D01*
X0045702Y0021617D01*
X0045002Y0022318D01*
X0042900Y0022318D01*
X0042900Y0024419D02*
X0042900Y0020216D01*
X0045002Y0022318D02*
X0045702Y0023018D01*
X0045702Y0023719D01*
X0045002Y0024419D01*
X0042900Y0024419D01*
X0047504Y0024419D02*
X0047504Y0020216D01*
X0050306Y0020216D02*
X0050306Y0024419D01*
X0048905Y0023018D01*
X0047504Y0024419D01*
X0052108Y0024419D02*
X0052108Y0020216D01*
X0052108Y0021617D02*
X0054210Y0021617D01*
X0054910Y0022318D01*
X0054910Y0023719D01*
X0054210Y0024419D01*
X0052108Y0024419D01*
X0056712Y0023018D02*
X0058113Y0024419D01*
X0058113Y0020216D01*
X0056712Y0020216D02*
X0059514Y0020216D01*
X0061316Y0020916D02*
X0061316Y0021617D01*
X0062016Y0022318D01*
X0063417Y0022318D01*
X0064118Y0021617D01*
X0064118Y0020916D01*
X0063417Y0020216D01*
X0062016Y0020216D01*
X0061316Y0020916D01*
X0062016Y0022318D02*
X0061316Y0023018D01*
X0061316Y0023719D01*
X0062016Y0024419D01*
X0063417Y0024419D01*
X0064118Y0023719D01*
X0064118Y0023018D01*
X0063417Y0022318D01*
X0065920Y0020916D02*
X0065920Y0023719D01*
X0066620Y0024419D01*
X0068021Y0024419D01*
X0068722Y0023719D01*
X0065920Y0020916D01*
X0066620Y0020216D01*
X0068021Y0020216D01*
X0068722Y0020916D01*
X0068722Y0023719D01*
D12*
X0074500Y0024871D03*
X0074500Y0031761D03*
X0082500Y0031761D03*
X0082500Y0024871D03*
D13*
X0059437Y0073816D03*
X0051563Y0073816D03*
D14*
X0020500Y0023816D03*
X0020500Y0033816D03*
X0020500Y0043816D03*
X0020500Y0053816D03*
X0020500Y0063816D03*
X0020500Y0073816D03*
D15*
X0069594Y0049524D03*
X0075500Y0049524D03*
X0081406Y0049524D03*
X0081406Y0038107D03*
X0075500Y0038107D03*
X0069594Y0038107D03*
D16*
X0069594Y0043816D03*
D17*
X0053846Y0053816D03*
X0047154Y0053816D03*
X0047154Y0063816D03*
X0053846Y0063816D03*
M02*
