G75*
%MOIN*%
%OFA0B0*%
%FSLAX25Y25*%
%IPPOS*%
%LPD*%
%AMOC8*
5,1,8,0,0,1.08239X$1,22.5*
%
%ADD10R,0.15000X0.07600*%
%ADD11C,0.03175*%
%ADD12C,0.01200*%
%ADD13C,0.01600*%
%ADD14C,0.06600*%
D10*
X0020500Y0006800D03*
X0020500Y0016800D03*
X0020500Y0026800D03*
X0020500Y0036800D03*
X0020500Y0046800D03*
X0020500Y0056800D03*
X0020500Y0066800D03*
D11*
X0031000Y0056800D03*
X0043000Y0056800D03*
X0043000Y0046800D03*
X0030500Y0046800D03*
X0059000Y0056800D03*
X0066500Y0064300D03*
X0066500Y0067800D03*
X0062500Y0046800D03*
X0075500Y0035300D03*
X0071000Y0021300D03*
X0080500Y0021300D03*
D12*
X0062500Y0046800D02*
X0043000Y0046800D01*
X0030500Y0046800D02*
X0020500Y0046800D01*
X0020500Y0056800D02*
X0031000Y0056800D01*
X0043000Y0056800D02*
X0059000Y0056800D01*
D13*
X0063250Y0054551D02*
X0087300Y0054551D01*
X0087300Y0056149D02*
X0063787Y0056149D01*
X0063787Y0055848D02*
X0063059Y0054088D01*
X0061712Y0052741D01*
X0059952Y0052013D01*
X0058048Y0052013D01*
X0056288Y0052741D01*
X0056030Y0053000D01*
X0045970Y0053000D01*
X0045712Y0052741D01*
X0043952Y0052013D01*
X0042048Y0052013D01*
X0040288Y0052741D01*
X0038941Y0054088D01*
X0038213Y0055848D01*
X0038213Y0057752D01*
X0038941Y0059512D01*
X0040288Y0060859D01*
X0042048Y0061587D01*
X0043952Y0061587D01*
X0045712Y0060859D01*
X0045970Y0060600D01*
X0056030Y0060600D01*
X0056288Y0060859D01*
X0058048Y0061587D01*
X0059952Y0061587D01*
X0061712Y0060859D01*
X0063059Y0059512D01*
X0063787Y0057752D01*
X0063787Y0055848D01*
X0063787Y0057748D02*
X0087300Y0057748D01*
X0087300Y0059346D02*
X0063127Y0059346D01*
X0061503Y0060945D02*
X0087300Y0060945D01*
X0087300Y0062543D02*
X0030582Y0062543D01*
X0030713Y0062413D02*
X0029813Y0063313D01*
X0029800Y0063318D01*
X0029800Y0066000D01*
X0021300Y0066000D01*
X0021300Y0067600D01*
X0029800Y0067600D01*
X0029800Y0068600D01*
X0087300Y0068600D01*
X0087300Y0005000D01*
X0031200Y0005000D01*
X0031200Y0011237D01*
X0030967Y0011800D01*
X0031200Y0012363D01*
X0031200Y0021237D01*
X0030967Y0021800D01*
X0031200Y0022363D01*
X0031200Y0031237D01*
X0030967Y0031800D01*
X0031200Y0032363D01*
X0031200Y0041237D01*
X0030967Y0041800D01*
X0031055Y0042013D01*
X0031452Y0042013D01*
X0033212Y0042741D01*
X0034559Y0044088D01*
X0035287Y0045848D01*
X0035287Y0047752D01*
X0034559Y0049512D01*
X0033212Y0050859D01*
X0031452Y0051587D01*
X0031055Y0051587D01*
X0030967Y0051800D01*
X0031055Y0052013D01*
X0031952Y0052013D01*
X0033712Y0052741D01*
X0035059Y0054088D01*
X0035787Y0055848D01*
X0035787Y0057752D01*
X0035059Y0059512D01*
X0033712Y0060859D01*
X0031952Y0061587D01*
X0031055Y0061587D01*
X0030713Y0062413D01*
X0029800Y0064142D02*
X0087300Y0064142D01*
X0087300Y0065740D02*
X0029800Y0065740D01*
X0033503Y0060945D02*
X0040497Y0060945D01*
X0038873Y0059346D02*
X0035127Y0059346D01*
X0035787Y0057748D02*
X0038213Y0057748D01*
X0038213Y0056149D02*
X0035787Y0056149D01*
X0035250Y0054551D02*
X0038750Y0054551D01*
X0040077Y0052952D02*
X0033923Y0052952D01*
X0032016Y0051354D02*
X0041484Y0051354D01*
X0042048Y0051587D02*
X0040288Y0050859D01*
X0038941Y0049512D01*
X0038213Y0047752D01*
X0038213Y0045848D01*
X0038941Y0044088D01*
X0040288Y0042741D01*
X0042048Y0042013D01*
X0043952Y0042013D01*
X0045712Y0042741D01*
X0045970Y0043000D01*
X0059530Y0043000D01*
X0059788Y0042741D01*
X0061548Y0042013D01*
X0063452Y0042013D01*
X0065212Y0042741D01*
X0066559Y0044088D01*
X0067287Y0045848D01*
X0067287Y0047752D01*
X0066559Y0049512D01*
X0065212Y0050859D01*
X0063452Y0051587D01*
X0061548Y0051587D01*
X0059788Y0050859D01*
X0059530Y0050600D01*
X0045970Y0050600D01*
X0045712Y0050859D01*
X0043952Y0051587D01*
X0042048Y0051587D01*
X0044516Y0051354D02*
X0060984Y0051354D01*
X0061923Y0052952D02*
X0087300Y0052952D01*
X0087300Y0051354D02*
X0064016Y0051354D01*
X0066315Y0049755D02*
X0087300Y0049755D01*
X0087300Y0048157D02*
X0067120Y0048157D01*
X0067287Y0046558D02*
X0087300Y0046558D01*
X0087300Y0044960D02*
X0066920Y0044960D01*
X0065832Y0043361D02*
X0087300Y0043361D01*
X0087300Y0041763D02*
X0030982Y0041763D01*
X0031200Y0040164D02*
X0087300Y0040164D01*
X0087300Y0038566D02*
X0031200Y0038566D01*
X0031200Y0036967D02*
X0087300Y0036967D01*
X0087300Y0035369D02*
X0031200Y0035369D01*
X0031200Y0033770D02*
X0087300Y0033770D01*
X0087300Y0032172D02*
X0031121Y0032172D01*
X0031200Y0030573D02*
X0087300Y0030573D01*
X0087300Y0028975D02*
X0031200Y0028975D01*
X0031200Y0027376D02*
X0087300Y0027376D01*
X0087300Y0025778D02*
X0031200Y0025778D01*
X0031200Y0024179D02*
X0087300Y0024179D01*
X0087300Y0022581D02*
X0031200Y0022581D01*
X0031200Y0020982D02*
X0087300Y0020982D01*
X0087300Y0019384D02*
X0031200Y0019384D01*
X0031200Y0017785D02*
X0087300Y0017785D01*
X0087300Y0016187D02*
X0031200Y0016187D01*
X0031200Y0014588D02*
X0087300Y0014588D01*
X0087300Y0012990D02*
X0031200Y0012990D01*
X0031136Y0011391D02*
X0087300Y0011391D01*
X0087300Y0009793D02*
X0031200Y0009793D01*
X0031200Y0008194D02*
X0087300Y0008194D01*
X0087300Y0006596D02*
X0031200Y0006596D01*
X0033832Y0043361D02*
X0039668Y0043361D01*
X0038580Y0044960D02*
X0034920Y0044960D01*
X0035287Y0046558D02*
X0038213Y0046558D01*
X0038380Y0048157D02*
X0035120Y0048157D01*
X0034315Y0049755D02*
X0039185Y0049755D01*
X0045923Y0052952D02*
X0056077Y0052952D01*
X0056497Y0060945D02*
X0045503Y0060945D01*
X0021300Y0067339D02*
X0087300Y0067339D01*
D14*
X0030500Y0066800D02*
X0020500Y0066800D01*
M02*
