G75*
%MOIN*%
%OFA0B0*%
%FSLAX25Y25*%
%IPPOS*%
%LPD*%
%AMOC8*
5,1,8,0,0,1.08239X$1,22.5*
%
%ADD10C,0.01000*%
%ADD11C,0.00200*%
%ADD12C,0.00500*%
D10*
X0060495Y0011208D02*
X0060495Y0013076D01*
X0060495Y0012142D02*
X0066100Y0012142D01*
X0066100Y0011208D02*
X0066100Y0013076D01*
X0065166Y0015260D02*
X0066100Y0016194D01*
X0066100Y0018062D01*
X0065166Y0018996D01*
X0064232Y0018996D01*
X0063298Y0018062D01*
X0063298Y0016194D01*
X0062363Y0015260D01*
X0061429Y0015260D01*
X0060495Y0016194D01*
X0060495Y0018062D01*
X0061429Y0018996D01*
X0060495Y0021337D02*
X0066100Y0021337D01*
X0066100Y0025073D01*
X0066100Y0027414D02*
X0062363Y0031151D01*
X0061429Y0031151D01*
X0060495Y0030216D01*
X0060495Y0028348D01*
X0061429Y0027414D01*
X0066100Y0027414D02*
X0066100Y0031151D01*
X0065166Y0033491D02*
X0066100Y0034425D01*
X0066100Y0036294D01*
X0065166Y0037228D01*
X0061429Y0037228D01*
X0060495Y0036294D01*
X0060495Y0034425D01*
X0061429Y0033491D01*
X0062363Y0033491D01*
X0063298Y0034425D01*
X0063298Y0037228D01*
X0065166Y0039568D02*
X0061429Y0039568D01*
X0060495Y0040503D01*
X0060495Y0042371D01*
X0061429Y0043305D01*
X0065166Y0039568D01*
X0066100Y0040503D01*
X0066100Y0042371D01*
X0065166Y0043305D01*
X0061429Y0043305D01*
X0061429Y0045646D02*
X0060495Y0046580D01*
X0060495Y0048448D01*
X0061429Y0049382D01*
X0062363Y0049382D01*
X0066100Y0045646D01*
X0066100Y0049382D01*
X0065166Y0051723D02*
X0066100Y0052657D01*
X0066100Y0054525D01*
X0065166Y0055459D01*
X0064232Y0055459D01*
X0063298Y0054525D01*
X0063298Y0053591D01*
X0063298Y0054525D02*
X0062363Y0055459D01*
X0061429Y0055459D01*
X0060495Y0054525D01*
X0060495Y0052657D01*
X0061429Y0051723D01*
D11*
X0052278Y0051868D02*
X0052278Y0052235D01*
X0051911Y0052602D01*
X0051177Y0052602D01*
X0050810Y0052235D01*
X0050068Y0052235D02*
X0050068Y0051501D01*
X0049701Y0051134D01*
X0048600Y0051134D01*
X0049334Y0051134D02*
X0050068Y0050400D01*
X0050810Y0050400D02*
X0052278Y0051868D01*
X0052278Y0050400D02*
X0050810Y0050400D01*
X0050068Y0052235D02*
X0049701Y0052602D01*
X0048600Y0052602D01*
X0048600Y0050400D01*
X0049100Y0042602D02*
X0050201Y0042602D01*
X0050568Y0042235D01*
X0050568Y0041501D01*
X0050201Y0041134D01*
X0049100Y0041134D01*
X0049834Y0041134D02*
X0050568Y0040400D01*
X0051310Y0040767D02*
X0051677Y0040400D01*
X0052411Y0040400D01*
X0052778Y0040767D01*
X0052778Y0041134D01*
X0052411Y0041501D01*
X0052044Y0041501D01*
X0052411Y0041501D02*
X0052778Y0041868D01*
X0052778Y0042235D01*
X0052411Y0042602D01*
X0051677Y0042602D01*
X0051310Y0042235D01*
X0049100Y0042602D02*
X0049100Y0040400D01*
X0068198Y0041317D02*
X0070400Y0041317D01*
X0070400Y0040583D02*
X0070400Y0042051D01*
X0068932Y0040583D02*
X0068198Y0041317D01*
X0068565Y0039841D02*
X0068198Y0039474D01*
X0068198Y0038740D01*
X0068565Y0038373D01*
X0070033Y0038373D01*
X0070400Y0038740D01*
X0070400Y0039474D01*
X0070033Y0039841D01*
X0070400Y0037634D02*
X0070400Y0036900D01*
X0070400Y0037267D02*
X0068198Y0037267D01*
X0068198Y0036900D02*
X0068198Y0037634D01*
X0070506Y0018428D02*
X0070139Y0018061D01*
X0070139Y0017327D01*
X0070506Y0016960D01*
X0070506Y0016218D02*
X0070139Y0015851D01*
X0070139Y0015117D01*
X0070506Y0014750D01*
X0071974Y0014750D01*
X0072341Y0015117D01*
X0072341Y0015851D01*
X0071974Y0016218D01*
X0072341Y0016960D02*
X0070873Y0018428D01*
X0070506Y0018428D01*
X0072341Y0018428D02*
X0072341Y0016960D01*
X0079698Y0016001D02*
X0079698Y0014900D01*
X0081900Y0014900D01*
X0081166Y0014900D02*
X0081166Y0016001D01*
X0080799Y0016368D01*
X0080065Y0016368D01*
X0079698Y0016001D01*
X0081166Y0015634D02*
X0081900Y0016368D01*
X0080799Y0017110D02*
X0080799Y0018578D01*
X0079698Y0018211D02*
X0080799Y0017110D01*
X0081900Y0018211D02*
X0079698Y0018211D01*
X0052778Y0060900D02*
X0051310Y0060900D01*
X0052044Y0060900D02*
X0052044Y0063102D01*
X0051310Y0062368D01*
X0050568Y0062735D02*
X0050568Y0062001D01*
X0050201Y0061634D01*
X0049100Y0061634D01*
X0049834Y0061634D02*
X0050568Y0060900D01*
X0049100Y0060900D02*
X0049100Y0063102D01*
X0050201Y0063102D01*
X0050568Y0062735D01*
X0069100Y0065767D02*
X0069467Y0065400D01*
X0070201Y0065400D01*
X0070568Y0065767D01*
X0071310Y0065400D02*
X0072778Y0065400D01*
X0072044Y0065400D02*
X0072044Y0067602D01*
X0071310Y0066868D01*
X0070568Y0067235D02*
X0070201Y0067602D01*
X0069467Y0067602D01*
X0069100Y0067235D01*
X0069100Y0065767D01*
D12*
X0031751Y0014550D02*
X0030250Y0014550D01*
X0031001Y0014550D02*
X0031001Y0019054D01*
X0031751Y0019054D02*
X0030250Y0019054D01*
X0033319Y0018303D02*
X0033319Y0015301D01*
X0034070Y0014550D01*
X0035571Y0014550D01*
X0036322Y0015301D01*
X0036322Y0018303D01*
X0035571Y0019054D01*
X0034070Y0019054D01*
X0033319Y0018303D01*
X0037923Y0018303D02*
X0038674Y0019054D01*
X0040175Y0019054D01*
X0040926Y0018303D01*
X0040926Y0017553D01*
X0040175Y0016802D01*
X0040926Y0016051D01*
X0040926Y0015301D01*
X0040175Y0014550D01*
X0038674Y0014550D01*
X0037923Y0015301D01*
X0039424Y0016802D02*
X0040175Y0016802D01*
X0037106Y0024550D02*
X0035605Y0024550D01*
X0034854Y0025301D01*
X0033253Y0025301D02*
X0033253Y0026051D01*
X0032502Y0026802D01*
X0031001Y0026802D01*
X0030250Y0027553D01*
X0030250Y0028303D01*
X0031001Y0029054D01*
X0032502Y0029054D01*
X0033253Y0028303D01*
X0034854Y0028303D02*
X0034854Y0027553D01*
X0035605Y0026802D01*
X0037106Y0026802D01*
X0037856Y0026051D01*
X0037856Y0025301D01*
X0037106Y0024550D01*
X0033253Y0025301D02*
X0032502Y0024550D01*
X0031001Y0024550D01*
X0030250Y0025301D01*
X0034854Y0028303D02*
X0035605Y0029054D01*
X0037106Y0029054D01*
X0037856Y0028303D01*
X0037923Y0034550D02*
X0040926Y0037553D01*
X0040926Y0038303D01*
X0040175Y0039054D01*
X0038674Y0039054D01*
X0037923Y0038303D01*
X0036322Y0038303D02*
X0035571Y0039054D01*
X0034070Y0039054D01*
X0033319Y0038303D01*
X0033319Y0035301D01*
X0034070Y0034550D01*
X0035571Y0034550D01*
X0036322Y0035301D01*
X0036322Y0038303D01*
X0031751Y0039054D02*
X0030250Y0039054D01*
X0031001Y0039054D02*
X0031001Y0034550D01*
X0031751Y0034550D02*
X0030250Y0034550D01*
X0037923Y0034550D02*
X0040926Y0034550D01*
X0040926Y0044550D02*
X0037923Y0044550D01*
X0039424Y0044550D02*
X0039424Y0049054D01*
X0037923Y0047553D01*
X0036322Y0048303D02*
X0035571Y0049054D01*
X0034070Y0049054D01*
X0033319Y0048303D01*
X0033319Y0045301D01*
X0034070Y0044550D01*
X0035571Y0044550D01*
X0036322Y0045301D01*
X0036322Y0048303D01*
X0031751Y0049054D02*
X0030250Y0049054D01*
X0031001Y0049054D02*
X0031001Y0044550D01*
X0031751Y0044550D02*
X0030250Y0044550D01*
X0031001Y0054550D02*
X0030250Y0055301D01*
X0031001Y0054550D02*
X0032502Y0054550D01*
X0033253Y0055301D01*
X0033253Y0056802D01*
X0032502Y0057553D01*
X0031751Y0057553D01*
X0030250Y0056802D01*
X0030250Y0059054D01*
X0033253Y0059054D01*
X0034854Y0059054D02*
X0034854Y0056051D01*
X0036355Y0054550D01*
X0037856Y0056051D01*
X0037856Y0059054D01*
X0037907Y0064550D02*
X0037156Y0065301D01*
X0037907Y0064550D02*
X0039408Y0064550D01*
X0040158Y0065301D01*
X0040158Y0066051D01*
X0039408Y0066802D01*
X0038657Y0066802D01*
X0039408Y0066802D02*
X0040158Y0067553D01*
X0040158Y0068303D01*
X0039408Y0069054D01*
X0037907Y0069054D01*
X0037156Y0068303D01*
X0035605Y0065301D02*
X0034854Y0065301D01*
X0034854Y0064550D01*
X0035605Y0064550D01*
X0035605Y0065301D01*
X0033253Y0065301D02*
X0032502Y0064550D01*
X0031001Y0064550D01*
X0030250Y0065301D01*
X0031751Y0066802D02*
X0032502Y0066802D01*
X0033253Y0066051D01*
X0033253Y0065301D01*
X0032502Y0066802D02*
X0033253Y0067553D01*
X0033253Y0068303D01*
X0032502Y0069054D01*
X0031001Y0069054D01*
X0030250Y0068303D01*
X0041760Y0069054D02*
X0041760Y0066051D01*
X0043261Y0064550D01*
X0044762Y0066051D01*
X0044762Y0069054D01*
X0071563Y0045934D02*
X0071563Y0037666D01*
X0079437Y0037666D02*
X0079437Y0045934D01*
M02*
