G75*
%MOIN*%
%OFA0B0*%
%FSLAX25Y25*%
%IPPOS*%
%LPD*%
%AMOC8*
5,1,8,0,0,1.08239X$1,22.5*
%
%ADD10C,0.00600*%
%ADD11R,0.05118X0.06299*%
%ADD12R,0.04252X0.04134*%
%ADD13R,0.15000X0.07600*%
%ADD14R,0.01181X0.02165*%
%ADD15R,0.05315X0.02559*%
%ADD16R,0.03937X0.04331*%
%ADD17R,0.04331X0.03937*%
%ADD18C,0.01200*%
%ADD19C,0.04000*%
%ADD20C,0.05000*%
%ADD21C,0.03175*%
%ADD22C,0.01600*%
D10*
X0034300Y0006667D02*
X0034867Y0006100D01*
X0035434Y0006667D01*
X0036001Y0006100D01*
X0036569Y0006667D01*
X0036569Y0008369D01*
X0037983Y0008369D02*
X0037983Y0006667D01*
X0038550Y0006100D01*
X0039117Y0006667D01*
X0039685Y0006100D01*
X0040252Y0006667D01*
X0040252Y0008369D01*
X0041666Y0008369D02*
X0041666Y0006667D01*
X0042233Y0006100D01*
X0042801Y0006667D01*
X0043368Y0006100D01*
X0043935Y0006667D01*
X0043935Y0008369D01*
X0045349Y0006667D02*
X0045917Y0006667D01*
X0045917Y0006100D01*
X0045349Y0006100D01*
X0045349Y0006667D01*
X0047191Y0006100D02*
X0047191Y0008369D01*
X0047758Y0008369D01*
X0048325Y0007801D01*
X0048892Y0008369D01*
X0049460Y0007801D01*
X0049460Y0006100D01*
X0048325Y0006100D02*
X0048325Y0007801D01*
X0050874Y0008369D02*
X0051441Y0008369D01*
X0051441Y0006100D01*
X0050874Y0006100D02*
X0052008Y0006100D01*
X0053330Y0006667D02*
X0053897Y0006100D01*
X0055598Y0006100D01*
X0057013Y0006100D02*
X0057013Y0008369D01*
X0058147Y0008369D02*
X0058714Y0008369D01*
X0058147Y0008369D02*
X0057013Y0007234D01*
X0055598Y0008369D02*
X0053897Y0008369D01*
X0053330Y0007801D01*
X0053330Y0006667D01*
X0051441Y0009503D02*
X0051441Y0010070D01*
X0060082Y0007801D02*
X0060082Y0006667D01*
X0060649Y0006100D01*
X0061783Y0006100D01*
X0062351Y0006667D01*
X0062351Y0007801D01*
X0061783Y0008369D01*
X0060649Y0008369D01*
X0060082Y0007801D01*
X0063765Y0007801D02*
X0064332Y0008369D01*
X0065467Y0008369D01*
X0066034Y0007801D01*
X0066034Y0006100D01*
X0067448Y0006667D02*
X0068015Y0006100D01*
X0069717Y0006100D01*
X0069717Y0007801D01*
X0069150Y0008369D01*
X0068015Y0008369D01*
X0068015Y0007234D02*
X0069717Y0007234D01*
X0068015Y0007234D02*
X0067448Y0006667D01*
X0063765Y0006100D02*
X0063765Y0009503D01*
X0071131Y0009503D02*
X0071699Y0009503D01*
X0071699Y0006100D01*
X0072266Y0006100D02*
X0071131Y0006100D01*
X0073587Y0006100D02*
X0074154Y0006100D01*
X0074154Y0006667D01*
X0073587Y0006667D01*
X0073587Y0006100D01*
X0075428Y0006667D02*
X0075428Y0007801D01*
X0075996Y0008369D01*
X0077130Y0008369D01*
X0077697Y0007801D01*
X0077697Y0006667D01*
X0077130Y0006100D01*
X0075996Y0006100D01*
X0075428Y0006667D01*
X0079112Y0006100D02*
X0079112Y0008369D01*
X0080246Y0008369D02*
X0080813Y0008369D01*
X0080246Y0008369D02*
X0079112Y0007234D01*
X0082181Y0006667D02*
X0082748Y0006100D01*
X0084449Y0006100D01*
X0084449Y0005533D02*
X0084449Y0008369D01*
X0082748Y0008369D01*
X0082181Y0007801D01*
X0082181Y0006667D01*
X0083882Y0004966D02*
X0084449Y0005533D01*
X0083882Y0004966D02*
X0083315Y0004966D01*
X0034300Y0006667D02*
X0034300Y0008369D01*
D11*
X0054063Y0066800D03*
X0061937Y0066800D03*
D12*
X0071000Y0032245D03*
X0071000Y0025355D03*
D13*
X0020500Y0016800D03*
X0020500Y0026800D03*
X0020500Y0036800D03*
X0020500Y0046800D03*
X0020500Y0056800D03*
X0020500Y0066800D03*
D14*
X0072941Y0045639D03*
X0075500Y0045639D03*
X0078059Y0045639D03*
X0078059Y0037961D03*
X0075500Y0037961D03*
X0072941Y0037961D03*
D15*
X0075500Y0041800D03*
D16*
X0053846Y0036800D03*
X0047154Y0036800D03*
X0047154Y0046800D03*
X0053846Y0046800D03*
X0053846Y0056800D03*
X0047154Y0056800D03*
D17*
X0080500Y0032146D03*
X0080500Y0025454D03*
D18*
X0080500Y0032146D02*
X0080500Y0034300D01*
X0078059Y0036741D01*
X0078059Y0037961D01*
X0075500Y0037961D02*
X0075500Y0041800D01*
X0075500Y0037961D02*
X0075500Y0035300D01*
X0072941Y0036241D02*
X0071000Y0034300D01*
X0071000Y0032245D01*
X0072941Y0036241D02*
X0072941Y0037961D01*
X0066839Y0045639D02*
X0064500Y0043300D01*
X0061000Y0043300D01*
X0059000Y0045300D01*
X0059000Y0056800D01*
X0065000Y0049300D02*
X0062500Y0046800D01*
X0065000Y0049300D02*
X0074000Y0049300D01*
X0075500Y0047800D01*
X0075500Y0045639D01*
X0072941Y0045639D02*
X0066839Y0045639D01*
X0078059Y0045639D02*
X0078059Y0047359D01*
X0078500Y0047800D01*
X0080500Y0047800D01*
X0085500Y0042800D01*
X0085500Y0018800D01*
X0083500Y0016800D01*
X0067500Y0016800D01*
X0062500Y0021800D01*
X0062500Y0028300D01*
X0058500Y0032300D01*
X0049000Y0032300D01*
X0047000Y0034300D01*
X0047000Y0036646D01*
X0047154Y0036800D01*
X0047154Y0046800D02*
X0043000Y0046800D01*
X0030500Y0046800D01*
X0031000Y0056800D02*
X0043000Y0056800D01*
X0047154Y0056800D01*
D19*
X0053846Y0056800D02*
X0053846Y0066583D01*
X0054063Y0066800D01*
X0061937Y0066800D02*
X0061937Y0067800D01*
X0066500Y0067800D01*
X0066500Y0064300D02*
X0062000Y0064300D01*
X0062000Y0066800D01*
X0053846Y0056800D02*
X0053846Y0046800D01*
X0053846Y0036800D01*
X0061000Y0036800D01*
X0065500Y0032300D01*
X0070945Y0032300D01*
X0071000Y0032245D01*
X0071000Y0025355D02*
X0071000Y0021300D01*
X0080500Y0021300D02*
X0080500Y0025454D01*
D20*
X0054063Y0066800D02*
X0020500Y0066800D01*
D21*
X0031000Y0056800D03*
X0043000Y0056800D03*
X0043000Y0046800D03*
X0030500Y0046800D03*
X0059000Y0056800D03*
X0066500Y0064300D03*
X0066500Y0067800D03*
X0062500Y0046800D03*
X0075500Y0035300D03*
X0071000Y0021300D03*
X0080500Y0021300D03*
D22*
X0047000Y0036646D02*
X0020500Y0036646D01*
X0020500Y0036800D01*
M02*
