G75*
%MOIN*%
%OFA0B0*%
%FSLAX25Y25*%
%IPPOS*%
%LPD*%
%AMOC8*
5,1,8,0,0,1.08239X$1,22.5*
%
%ADD10C,0.00600*%
%ADD11R,0.15800X0.08400*%
%ADD12C,0.04959*%
D10*
X0083800Y0018167D02*
X0084367Y0018734D01*
X0083800Y0019301D01*
X0084367Y0019869D01*
X0086069Y0019869D01*
X0086069Y0021283D02*
X0084367Y0021283D01*
X0083800Y0021850D01*
X0084367Y0022417D01*
X0083800Y0022985D01*
X0084367Y0023552D01*
X0086069Y0023552D01*
X0086069Y0024966D02*
X0084367Y0024966D01*
X0083800Y0025533D01*
X0084367Y0026101D01*
X0083800Y0026668D01*
X0084367Y0027235D01*
X0086069Y0027235D01*
X0084367Y0028649D02*
X0083800Y0028649D01*
X0083800Y0029217D01*
X0084367Y0029217D01*
X0084367Y0028649D01*
X0083800Y0030491D02*
X0086069Y0030491D01*
X0086069Y0031058D01*
X0085501Y0031625D01*
X0086069Y0032192D01*
X0085501Y0032760D01*
X0083800Y0032760D01*
X0083800Y0031625D02*
X0085501Y0031625D01*
X0086069Y0034174D02*
X0086069Y0034741D01*
X0083800Y0034741D01*
X0083800Y0034174D02*
X0083800Y0035308D01*
X0084367Y0036630D02*
X0083800Y0037197D01*
X0083800Y0038898D01*
X0083800Y0040313D02*
X0086069Y0040313D01*
X0086069Y0041447D02*
X0084934Y0040313D01*
X0086069Y0041447D02*
X0086069Y0042014D01*
X0085501Y0043382D02*
X0084367Y0043382D01*
X0083800Y0043949D01*
X0083800Y0045083D01*
X0084367Y0045651D01*
X0085501Y0045651D01*
X0086069Y0045083D01*
X0086069Y0043949D01*
X0085501Y0043382D01*
X0085501Y0047065D02*
X0086069Y0047632D01*
X0086069Y0048767D01*
X0085501Y0049334D01*
X0083800Y0049334D01*
X0084367Y0050748D02*
X0084934Y0051315D01*
X0084934Y0053017D01*
X0085501Y0053017D02*
X0086069Y0052450D01*
X0086069Y0051315D01*
X0084367Y0050748D02*
X0083800Y0051315D01*
X0083800Y0053017D01*
X0085501Y0053017D01*
X0083800Y0054431D02*
X0083800Y0055566D01*
X0083800Y0054999D02*
X0087203Y0054999D01*
X0087203Y0054431D01*
X0084367Y0056887D02*
X0083800Y0056887D01*
X0083800Y0057454D01*
X0084367Y0057454D01*
X0084367Y0056887D01*
X0084367Y0058728D02*
X0083800Y0059296D01*
X0083800Y0060430D01*
X0084367Y0060997D01*
X0085501Y0060997D01*
X0086069Y0060430D01*
X0086069Y0059296D01*
X0085501Y0058728D01*
X0084367Y0058728D01*
X0083800Y0062412D02*
X0086069Y0062412D01*
X0086069Y0063546D02*
X0086069Y0064113D01*
X0086069Y0063546D02*
X0084934Y0062412D01*
X0084367Y0065481D02*
X0083800Y0066048D01*
X0083800Y0067749D01*
X0083233Y0067749D02*
X0086069Y0067749D01*
X0086069Y0066048D01*
X0085501Y0065481D01*
X0084367Y0065481D01*
X0082666Y0066615D02*
X0082666Y0067182D01*
X0083233Y0067749D01*
X0083800Y0047065D02*
X0087203Y0047065D01*
X0086069Y0038898D02*
X0086069Y0037197D01*
X0085501Y0036630D01*
X0084367Y0036630D01*
X0087203Y0034741D02*
X0087770Y0034741D01*
X0083800Y0018167D02*
X0084367Y0017600D01*
X0086069Y0017600D01*
D11*
X0020500Y0006800D03*
X0020500Y0016800D03*
X0020500Y0026800D03*
X0020500Y0036800D03*
X0020500Y0046800D03*
X0020500Y0056800D03*
X0020500Y0066800D03*
D12*
X0053420Y0046800D02*
X0057580Y0046800D01*
X0057580Y0041800D02*
X0053420Y0041800D01*
X0053420Y0036800D02*
X0057580Y0036800D01*
X0057580Y0031800D02*
X0053420Y0031800D01*
X0053420Y0026800D02*
X0057580Y0026800D01*
X0057580Y0021800D02*
X0053420Y0021800D01*
X0053420Y0016800D02*
X0057580Y0016800D01*
X0057580Y0011800D02*
X0053420Y0011800D01*
M02*
