G75*
%MOIN*%
%OFA0B0*%
%FSLAX25Y25*%
%IPPOS*%
%LPD*%
%AMOC8*
5,1,8,0,0,1.08239X$1,22.5*
%
%ADD10C,0.00200*%
%ADD11C,0.00500*%
%ADD12C,0.00400*%
D10*
X0048139Y0045117D02*
X0048506Y0044750D01*
X0049974Y0044750D01*
X0050341Y0045117D01*
X0050341Y0045851D01*
X0049974Y0046218D01*
X0050341Y0046960D02*
X0048873Y0048428D01*
X0048506Y0048428D01*
X0048139Y0048061D01*
X0048139Y0047327D01*
X0048506Y0046960D01*
X0048506Y0046218D02*
X0048139Y0045851D01*
X0048139Y0045117D01*
X0050341Y0046960D02*
X0050341Y0048428D01*
X0050051Y0060459D02*
X0049317Y0060459D01*
X0048950Y0060826D01*
X0048950Y0062294D01*
X0049317Y0062661D01*
X0050051Y0062661D01*
X0050418Y0062294D01*
X0051160Y0061927D02*
X0051894Y0062661D01*
X0051894Y0060459D01*
X0051160Y0060459D02*
X0052628Y0060459D01*
X0050418Y0060826D02*
X0050051Y0060459D01*
D11*
X0031751Y0014550D02*
X0030250Y0014550D01*
X0031001Y0014550D02*
X0031001Y0019054D01*
X0031751Y0019054D02*
X0030250Y0019054D01*
X0033319Y0018303D02*
X0033319Y0015301D01*
X0034070Y0014550D01*
X0035571Y0014550D01*
X0036322Y0015301D01*
X0036322Y0018303D01*
X0035571Y0019054D01*
X0034070Y0019054D01*
X0033319Y0018303D01*
X0037923Y0018303D02*
X0038674Y0019054D01*
X0040175Y0019054D01*
X0040926Y0018303D01*
X0040926Y0017553D01*
X0040175Y0016802D01*
X0040926Y0016051D01*
X0040926Y0015301D01*
X0040175Y0014550D01*
X0038674Y0014550D01*
X0037923Y0015301D01*
X0039424Y0016802D02*
X0040175Y0016802D01*
X0037106Y0024550D02*
X0035605Y0024550D01*
X0034854Y0025301D01*
X0033253Y0025301D02*
X0033253Y0026051D01*
X0032502Y0026802D01*
X0031001Y0026802D01*
X0030250Y0027553D01*
X0030250Y0028303D01*
X0031001Y0029054D01*
X0032502Y0029054D01*
X0033253Y0028303D01*
X0034854Y0028303D02*
X0034854Y0027553D01*
X0035605Y0026802D01*
X0037106Y0026802D01*
X0037856Y0026051D01*
X0037856Y0025301D01*
X0037106Y0024550D01*
X0033253Y0025301D02*
X0032502Y0024550D01*
X0031001Y0024550D01*
X0030250Y0025301D01*
X0034854Y0028303D02*
X0035605Y0029054D01*
X0037106Y0029054D01*
X0037856Y0028303D01*
X0037923Y0034550D02*
X0040926Y0037553D01*
X0040926Y0038303D01*
X0040175Y0039054D01*
X0038674Y0039054D01*
X0037923Y0038303D01*
X0036322Y0038303D02*
X0035571Y0039054D01*
X0034070Y0039054D01*
X0033319Y0038303D01*
X0033319Y0035301D01*
X0034070Y0034550D01*
X0035571Y0034550D01*
X0036322Y0035301D01*
X0036322Y0038303D01*
X0031751Y0039054D02*
X0030250Y0039054D01*
X0031001Y0039054D02*
X0031001Y0034550D01*
X0031751Y0034550D02*
X0030250Y0034550D01*
X0037923Y0034550D02*
X0040926Y0034550D01*
X0040926Y0044550D02*
X0037923Y0044550D01*
X0039424Y0044550D02*
X0039424Y0049054D01*
X0037923Y0047553D01*
X0036322Y0048303D02*
X0035571Y0049054D01*
X0034070Y0049054D01*
X0033319Y0048303D01*
X0033319Y0045301D01*
X0034070Y0044550D01*
X0035571Y0044550D01*
X0036322Y0045301D01*
X0036322Y0048303D01*
X0031751Y0049054D02*
X0030250Y0049054D01*
X0031001Y0049054D02*
X0031001Y0044550D01*
X0031751Y0044550D02*
X0030250Y0044550D01*
X0031001Y0054550D02*
X0030250Y0055301D01*
X0031001Y0054550D02*
X0032502Y0054550D01*
X0033253Y0055301D01*
X0033253Y0056802D01*
X0032502Y0057553D01*
X0031751Y0057553D01*
X0030250Y0056802D01*
X0030250Y0059054D01*
X0033253Y0059054D01*
X0034854Y0059054D02*
X0034854Y0056051D01*
X0036355Y0054550D01*
X0037856Y0056051D01*
X0037856Y0059054D01*
X0037907Y0064550D02*
X0037156Y0065301D01*
X0037907Y0064550D02*
X0039408Y0064550D01*
X0040158Y0065301D01*
X0040158Y0066051D01*
X0039408Y0066802D01*
X0038657Y0066802D01*
X0039408Y0066802D02*
X0040158Y0067553D01*
X0040158Y0068303D01*
X0039408Y0069054D01*
X0037907Y0069054D01*
X0037156Y0068303D01*
X0033253Y0068303D02*
X0033253Y0067553D01*
X0032502Y0066802D01*
X0033253Y0066051D01*
X0033253Y0065301D01*
X0032502Y0064550D01*
X0031001Y0064550D01*
X0030250Y0065301D01*
X0031751Y0066802D02*
X0032502Y0066802D01*
X0033253Y0068303D02*
X0032502Y0069054D01*
X0031001Y0069054D01*
X0030250Y0068303D01*
X0034854Y0065301D02*
X0035605Y0065301D01*
X0035605Y0064550D01*
X0034854Y0064550D01*
X0034854Y0065301D01*
X0041760Y0066051D02*
X0043261Y0064550D01*
X0044762Y0066051D01*
X0044762Y0069054D01*
X0041760Y0069054D02*
X0041760Y0066051D01*
X0052942Y0053493D02*
X0052942Y0049300D01*
X0052942Y0053493D02*
X0119142Y0053493D01*
X0119142Y0003099D01*
X0052942Y0003099D01*
X0052942Y0009300D01*
D12*
X0065200Y0055000D02*
X0065200Y0059604D01*
X0066735Y0058069D01*
X0068269Y0059604D01*
X0068269Y0055000D01*
X0069804Y0055767D02*
X0070571Y0055000D01*
X0072106Y0055000D01*
X0072873Y0055767D01*
X0072873Y0058837D01*
X0072106Y0059604D01*
X0070571Y0059604D01*
X0069804Y0058837D01*
X0069804Y0055767D01*
X0074408Y0055000D02*
X0076710Y0055000D01*
X0077477Y0055767D01*
X0077477Y0058837D01*
X0076710Y0059604D01*
X0074408Y0059604D01*
X0074408Y0055000D01*
X0079012Y0055000D02*
X0082081Y0055000D01*
X0080546Y0055000D02*
X0080546Y0059604D01*
X0079012Y0058069D01*
M02*
