G75*
%MOIN*%
%OFA0B0*%
%FSLAX25Y25*%
%IPPOS*%
%LPD*%
%AMOC8*
5,1,8,0,0,1.08239X$1,22.5*
%
%ADD10C,0.00800*%
%ADD11R,0.04134X0.04252*%
%ADD12R,0.04252X0.04134*%
%ADD13R,0.15000X0.07600*%
%ADD14C,0.04159*%
%ADD15C,0.03175*%
%ADD16C,0.04000*%
%ADD17C,0.01600*%
D10*
X0065900Y0062200D02*
X0065900Y0066404D01*
X0068002Y0066404D01*
X0068702Y0065703D01*
X0068702Y0064302D01*
X0068002Y0063601D01*
X0065900Y0063601D01*
X0067301Y0063601D02*
X0068702Y0062200D01*
X0070504Y0062200D02*
X0070504Y0066404D01*
X0073306Y0066404D01*
X0075108Y0066404D02*
X0076509Y0065002D01*
X0077910Y0066404D01*
X0077910Y0062200D01*
X0079712Y0062200D02*
X0079712Y0062901D01*
X0082514Y0065703D01*
X0082514Y0066404D01*
X0079712Y0066404D01*
X0075108Y0066404D02*
X0075108Y0062200D01*
X0071905Y0064302D02*
X0070504Y0064302D01*
X0084316Y0062901D02*
X0084316Y0065703D01*
X0085016Y0066404D01*
X0086417Y0066404D01*
X0087118Y0065703D01*
X0084316Y0062901D01*
X0085016Y0062200D01*
X0086417Y0062200D01*
X0087118Y0062901D01*
X0087118Y0065703D01*
D11*
X0053945Y0065800D03*
X0047055Y0065800D03*
D12*
X0045500Y0050245D03*
X0045500Y0043355D03*
D13*
X0020500Y0016800D03*
X0020500Y0026800D03*
X0020500Y0036800D03*
X0020500Y0046800D03*
X0020500Y0056800D03*
X0020500Y0066800D03*
D14*
X0053420Y0046800D02*
X0057580Y0046800D01*
X0057580Y0041800D02*
X0053420Y0041800D01*
X0053420Y0036800D02*
X0057580Y0036800D01*
X0057580Y0031800D02*
X0053420Y0031800D01*
X0053420Y0026800D02*
X0057580Y0026800D01*
X0057580Y0021800D02*
X0053420Y0021800D01*
X0053420Y0016800D02*
X0057580Y0016800D01*
X0057580Y0011800D02*
X0053420Y0011800D01*
D15*
X0030500Y0016800D03*
X0045500Y0054300D03*
X0058000Y0063800D03*
X0058000Y0067300D03*
D16*
X0056000Y0067300D01*
X0054500Y0065800D01*
X0053945Y0065800D02*
X0055945Y0063800D01*
X0058000Y0063800D01*
X0047055Y0065800D02*
X0037500Y0065800D01*
X0038500Y0064800D01*
X0038500Y0045800D01*
X0042500Y0041800D01*
X0045500Y0041800D01*
X0045500Y0043355D01*
X0045500Y0041800D02*
X0055500Y0041800D01*
X0055500Y0046800D02*
X0053000Y0046800D01*
X0049500Y0050300D01*
X0045555Y0050300D01*
X0045500Y0050245D01*
X0045500Y0051800D02*
X0045500Y0054300D01*
X0037500Y0065800D02*
X0021500Y0065800D01*
X0020500Y0066800D01*
D17*
X0020500Y0046800D02*
X0023000Y0044300D01*
X0030500Y0044300D01*
X0038000Y0036800D01*
X0055500Y0036800D01*
X0055500Y0031800D02*
X0035500Y0031800D01*
X0030500Y0036800D01*
X0020500Y0036800D01*
X0040500Y0026800D02*
X0030500Y0016800D01*
X0040500Y0026800D02*
X0055500Y0026800D01*
M02*
